# Blender 4.5.11 LTS
# www.blender.org
mtllib visual.mtl
o large_alloy_tube
v 0.012500 0.000000 0.000000
v 0.012440 0.001225 0.000000
v 0.012260 0.002439 0.000000
v 0.011962 0.003629 0.000000
v 0.011548 0.004784 0.000000
v 0.011024 0.005892 0.000000
v 0.010393 0.006945 0.000000
v 0.009663 0.007930 0.000000
v 0.008839 0.008839 0.000000
v 0.007930 0.009663 0.000000
v 0.006945 0.010393 0.000000
v 0.005892 0.011024 0.000000
v 0.004784 0.011548 0.000000
v 0.003629 0.011962 0.000000
v 0.002439 0.012260 0.000000
v 0.001225 0.012440 0.000000
v 0.000000 0.012500 0.000000
v -0.001225 0.012440 0.000000
v -0.002439 0.012260 0.000000
v -0.003629 0.011962 0.000000
v -0.004784 0.011548 0.000000
v -0.005892 0.011024 0.000000
v -0.006945 0.010393 0.000000
v -0.007930 0.009663 0.000000
v -0.008839 0.008839 0.000000
v -0.009663 0.007930 0.000000
v -0.010393 0.006945 0.000000
v -0.011024 0.005892 0.000000
v -0.011548 0.004784 0.000000
v -0.011962 0.003629 0.000000
v -0.012260 0.002439 0.000000
v -0.012440 0.001225 0.000000
v -0.012500 0.000000 0.000000
v -0.012440 -0.001225 0.000000
v -0.012260 -0.002439 0.000000
v -0.011962 -0.003629 0.000000
v -0.011548 -0.004784 0.000000
v -0.011024 -0.005892 0.000000
v -0.010393 -0.006945 0.000000
v -0.009663 -0.007930 0.000000
v -0.008839 -0.008839 0.000000
v -0.007930 -0.009663 0.000000
v -0.006945 -0.010393 0.000000
v -0.005892 -0.011024 0.000000
v -0.004784 -0.011548 0.000000
v -0.003629 -0.011962 0.000000
v -0.002439 -0.012260 0.000000
v -0.001225 -0.012440 0.000000
v -0.000000 -0.012500 0.000000
v 0.001225 -0.012440 0.000000
v 0.002439 -0.012260 0.000000
v 0.003629 -0.011962 0.000000
v 0.004784 -0.011548 0.000000
v 0.005892 -0.011024 0.000000
v 0.006945 -0.010393 0.000000
v 0.007930 -0.009663 0.000000
v 0.008839 -0.008839 0.000000
v 0.009663 -0.007930 0.000000
v 0.010393 -0.006945 0.000000
v 0.011024 -0.005892 0.000000
v 0.011548 -0.004784 0.000000
v 0.011962 -0.003629 0.000000
v 0.012260 -0.002439 0.000000
v 0.012440 -0.001225 0.000000
v 0.012000 0.000000 0.000000
v 0.011942 0.001176 0.000000
v 0.011769 0.002341 0.000000
v 0.011483 0.003483 0.000000
v 0.011087 0.004592 0.000000
v 0.010583 0.005657 0.000000
v 0.009978 0.006667 0.000000
v 0.009276 0.007613 0.000000
v 0.008485 0.008485 0.000000
v 0.007613 0.009276 0.000000
v 0.006667 0.009978 0.000000
v 0.005657 0.010583 0.000000
v 0.004592 0.011087 0.000000
v 0.003483 0.011483 0.000000
v 0.002341 0.011769 0.000000
v 0.001176 0.011942 0.000000
v 0.000000 0.012000 0.000000
v -0.001176 0.011942 0.000000
v -0.002341 0.011769 0.000000
v -0.003483 0.011483 0.000000
v -0.004592 0.011087 0.000000
v -0.005657 0.010583 0.000000
v -0.006667 0.009978 0.000000
v -0.007613 0.009276 0.000000
v -0.008485 0.008485 0.000000
v -0.009276 0.007613 0.000000
v -0.009978 0.006667 0.000000
v -0.010583 0.005657 0.000000
v -0.011087 0.004592 0.000000
v -0.011483 0.003483 0.000000
v -0.011769 0.002341 0.000000
v -0.011942 0.001176 0.000000
v -0.012000 0.000000 0.000000
v -0.011942 -0.001176 0.000000
v -0.011769 -0.002341 0.000000
v -0.011483 -0.003483 0.000000
v -0.011087 -0.004592 0.000000
v -0.010583 -0.005657 0.000000
v -0.009978 -0.006667 0.000000
v -0.009276 -0.007613 0.000000
v -0.008485 -0.008485 0.000000
v -0.007613 -0.009276 0.000000
v -0.006667 -0.009978 0.000000
v -0.005657 -0.010583 0.000000
v -0.004592 -0.011087 0.000000
v -0.003483 -0.011483 0.000000
v -0.002341 -0.011769 0.000000
v -0.001176 -0.011942 0.000000
v -0.000000 -0.012000 0.000000
v 0.001176 -0.011942 0.000000
v 0.002341 -0.011769 0.000000
v 0.003483 -0.011483 0.000000
v 0.004592 -0.011087 0.000000
v 0.005657 -0.010583 0.000000
v 0.006667 -0.009978 0.000000
v 0.007613 -0.009276 0.000000
v 0.008485 -0.008485 0.000000
v 0.009276 -0.007613 0.000000
v 0.009978 -0.006667 0.000000
v 0.010583 -0.005657 0.000000
v 0.011087 -0.004592 0.000000
v 0.011483 -0.003483 0.000000
v 0.011769 -0.002341 0.000000
v 0.011942 -0.001176 0.000000
v 0.012500 0.000000 0.115000
v 0.012440 0.001225 0.115000
v 0.012260 0.002439 0.115000
v 0.011962 0.003629 0.115000
v 0.011548 0.004784 0.115000
v 0.011024 0.005892 0.115000
v 0.010393 0.006945 0.115000
v 0.009663 0.007930 0.115000
v 0.008839 0.008839 0.115000
v 0.007930 0.009663 0.115000
v 0.006945 0.010393 0.115000
v 0.005892 0.011024 0.115000
v 0.004784 0.011548 0.115000
v 0.003629 0.011962 0.115000
v 0.002439 0.012260 0.115000
v 0.001225 0.012440 0.115000
v 0.000000 0.012500 0.115000
v -0.001225 0.012440 0.115000
v -0.002439 0.012260 0.115000
v -0.003629 0.011962 0.115000
v -0.004784 0.011548 0.115000
v -0.005892 0.011024 0.115000
v -0.006945 0.010393 0.115000
v -0.007930 0.009663 0.115000
v -0.008839 0.008839 0.115000
v -0.009663 0.007930 0.115000
v -0.010393 0.006945 0.115000
v -0.011024 0.005892 0.115000
v -0.011548 0.004784 0.115000
v -0.011962 0.003629 0.115000
v -0.012260 0.002439 0.115000
v -0.012440 0.001225 0.115000
v -0.012500 0.000000 0.115000
v -0.012440 -0.001225 0.115000
v -0.012260 -0.002439 0.115000
v -0.011962 -0.003629 0.115000
v -0.011548 -0.004784 0.115000
v -0.011024 -0.005892 0.115000
v -0.010393 -0.006945 0.115000
v -0.009663 -0.007930 0.115000
v -0.008839 -0.008839 0.115000
v -0.007930 -0.009663 0.115000
v -0.006945 -0.010393 0.115000
v -0.005892 -0.011024 0.115000
v -0.004784 -0.011548 0.115000
v -0.003629 -0.011962 0.115000
v -0.002439 -0.012260 0.115000
v -0.001225 -0.012440 0.115000
v -0.000000 -0.012500 0.115000
v 0.001225 -0.012440 0.115000
v 0.002439 -0.012260 0.115000
v 0.003629 -0.011962 0.115000
v 0.004784 -0.011548 0.115000
v 0.005892 -0.011024 0.115000
v 0.006945 -0.010393 0.115000
v 0.007930 -0.009663 0.115000
v 0.008839 -0.008839 0.115000
v 0.009663 -0.007930 0.115000
v 0.010393 -0.006945 0.115000
v 0.011024 -0.005892 0.115000
v 0.011548 -0.004784 0.115000
v 0.011962 -0.003629 0.115000
v 0.012260 -0.002439 0.115000
v 0.012440 -0.001225 0.115000
v 0.012000 0.000000 0.115000
v 0.011942 0.001176 0.115000
v 0.011769 0.002341 0.115000
v 0.011483 0.003483 0.115000
v 0.011087 0.004592 0.115000
v 0.010583 0.005657 0.115000
v 0.009978 0.006667 0.115000
v 0.009276 0.007613 0.115000
v 0.008485 0.008485 0.115000
v 0.007613 0.009276 0.115000
v 0.006667 0.009978 0.115000
v 0.005657 0.010583 0.115000
v 0.004592 0.011087 0.115000
v 0.003483 0.011483 0.115000
v 0.002341 0.011769 0.115000
v 0.001176 0.011942 0.115000
v 0.000000 0.012000 0.115000
v -0.001176 0.011942 0.115000
v -0.002341 0.011769 0.115000
v -0.003483 0.011483 0.115000
v -0.004592 0.011087 0.115000
v -0.005657 0.010583 0.115000
v -0.006667 0.009978 0.115000
v -0.007613 0.009276 0.115000
v -0.008485 0.008485 0.115000
v -0.009276 0.007613 0.115000
v -0.009978 0.006667 0.115000
v -0.010583 0.005657 0.115000
v -0.011087 0.004592 0.115000
v -0.011483 0.003483 0.115000
v -0.011769 0.002341 0.115000
v -0.011942 0.001176 0.115000
v -0.012000 0.000000 0.115000
v -0.011942 -0.001176 0.115000
v -0.011769 -0.002341 0.115000
v -0.011483 -0.003483 0.115000
v -0.011087 -0.004592 0.115000
v -0.010583 -0.005657 0.115000
v -0.009978 -0.006667 0.115000
v -0.009276 -0.007613 0.115000
v -0.008485 -0.008485 0.115000
v -0.007613 -0.009276 0.115000
v -0.006667 -0.009978 0.115000
v -0.005657 -0.010583 0.115000
v -0.004592 -0.011087 0.115000
v -0.003483 -0.011483 0.115000
v -0.002341 -0.011769 0.115000
v -0.001176 -0.011942 0.115000
v -0.000000 -0.012000 0.115000
v 0.001176 -0.011942 0.115000
v 0.002341 -0.011769 0.115000
v 0.003483 -0.011483 0.115000
v 0.004592 -0.011087 0.115000
v 0.005657 -0.010583 0.115000
v 0.006667 -0.009978 0.115000
v 0.007613 -0.009276 0.115000
v 0.008485 -0.008485 0.115000
v 0.009276 -0.007613 0.115000
v 0.009978 -0.006667 0.115000
v 0.010583 -0.005657 0.115000
v 0.011087 -0.004592 0.115000
v 0.011483 -0.003483 0.115000
v 0.011769 -0.002341 0.115000
v 0.011942 -0.001176 0.115000
vn 0.9988 0.0491 -0.0000
vn -0.9988 -0.0491 -0.0000
vn -0.0000 -0.0000 1.0000
vn -0.0000 -0.0000 -1.0000
vn 0.9892 0.1467 -0.0000
vn -0.9892 -0.1467 -0.0000
vn 0.9700 0.2430 -0.0000
vn -0.9700 -0.2430 -0.0000
vn 0.9415 0.3369 -0.0000
vn -0.9415 -0.3369 -0.0000
vn 0.9040 0.4276 -0.0000
vn -0.9040 -0.4276 -0.0000
vn 0.8577 0.5141 -0.0000
vn -0.8577 -0.5141 -0.0000
vn 0.8032 0.5957 -0.0000
vn -0.8032 -0.5957 -0.0000
vn 0.7410 0.6716 -0.0000
vn -0.7410 -0.6716 -0.0000
vn 0.6716 0.7410 -0.0000
vn -0.6716 -0.7410 -0.0000
vn 0.5957 0.8032 -0.0000
vn -0.5957 -0.8032 -0.0000
vn 0.5141 0.8577 -0.0000
vn -0.5141 -0.8577 -0.0000
vn 0.4276 0.9040 -0.0000
vn -0.4276 -0.9040 -0.0000
vn 0.3369 0.9415 -0.0000
vn -0.3369 -0.9415 -0.0000
vn 0.2430 0.9700 -0.0000
vn -0.2430 -0.9700 -0.0000
vn 0.1467 0.9892 -0.0000
vn -0.1467 -0.9892 -0.0000
vn 0.0491 0.9988 -0.0000
vn -0.0491 -0.9988 -0.0000
vn -0.0491 0.9988 -0.0000
vn 0.0491 -0.9988 -0.0000
vn -0.1467 0.9892 -0.0000
vn 0.1467 -0.9892 -0.0000
vn -0.2430 0.9700 -0.0000
vn 0.2430 -0.9700 -0.0000
vn -0.3369 0.9415 -0.0000
vn 0.3369 -0.9415 -0.0000
vn -0.4276 0.9040 -0.0000
vn 0.4276 -0.9040 -0.0000
vn -0.5141 0.8577 -0.0000
vn 0.5141 -0.8577 -0.0000
vn -0.5957 0.8032 -0.0000
vn 0.5957 -0.8032 -0.0000
vn -0.6716 0.7410 -0.0000
vn 0.6716 -0.7410 -0.0000
vn -0.7410 0.6716 -0.0000
vn 0.7410 -0.6716 -0.0000
vn -0.8032 0.5957 -0.0000
vn 0.8032 -0.5957 -0.0000
vn -0.8577 0.5141 -0.0000
vn 0.8577 -0.5141 -0.0000
vn -0.9040 0.4276 -0.0000
vn 0.9040 -0.4276 -0.0000
vn -0.9415 0.3369 -0.0000
vn 0.9415 -0.3369 -0.0000
vn -0.9700 0.2430 -0.0000
vn 0.9700 -0.2430 -0.0000
vn -0.9892 0.1467 -0.0000
vn 0.9892 -0.1467 -0.0000
vn -0.9988 0.0491 -0.0000
vn 0.9988 -0.0491 -0.0000
vt 0.357899 0.764733
vt 0.364634 0.005372
vt 0.364634 0.764733
vt 0.766047 0.764733
vt 0.772512 0.005372
vt 0.772512 0.764733
vt 0.465757 0.940357
vt 0.473695 0.937059
vt 0.473857 0.940357
vt 0.282072 0.776271
vt 0.290295 0.778775
vt 0.282557 0.779537
vt 0.350756 0.764733
vt 0.357899 0.005372
vt 0.779370 0.005372
vt 0.779370 0.764733
vt 0.457696 0.939563
vt 0.465919 0.937059
vt 0.274930 0.781054
vt 0.274128 0.777851
vt 0.343272 0.764733
vt 0.350756 0.005372
vt 0.786554 0.005372
vt 0.786554 0.764733
vt 0.449752 0.937983
vt 0.458181 0.936297
vt 0.267489 0.783311
vt 0.266377 0.780203
vt 0.335521 0.764733
vt 0.343272 0.005372
vt 0.793995 0.005372
vt 0.793995 0.764733
vt 0.442001 0.935632
vt 0.450554 0.934780
vt 0.260305 0.786287
vt 0.258893 0.783303
vt 0.327577 0.764733
vt 0.335521 0.005372
vt 0.801622 0.005372
vt 0.801622 0.764733
vt 0.435929 0.929547
vt 0.443113 0.932523
vt 0.253447 0.789953
vt 0.251750 0.787121
vt 0.319516 0.764733
vt 0.327577 0.005372
vt 0.809360 0.005372
vt 0.809360 0.764733
vt 0.427374 0.928713
vt 0.434517 0.932532
vt 0.246981 0.794273
vt 0.245015 0.791621
vt 0.311416 0.764733
vt 0.319516 0.005372
vt 0.817136 0.005372
vt 0.817136 0.764733
vt 0.422605 0.921561
vt 0.429071 0.925882
vt 0.240971 0.799206
vt 0.238753 0.796760
vt 0.303355 0.764733
vt 0.311416 0.005372
vt 0.824875 0.005372
vt 0.824875 0.764733
vt 0.420639 0.924213
vt 0.416594 0.916628
vt 0.235472 0.804704
vt 0.233026 0.802487
vt 0.295410 0.764733
vt 0.303355 0.005372
vt 0.832502 0.005372
vt 0.832502 0.764733
vt 0.408650 0.913347
vt 0.414377 0.919075
vt 0.227887 0.808749
vt 0.230539 0.810715
vt 0.287659 0.764733
vt 0.295410 0.005372
vt 0.839943 0.005372
vt 0.839943 0.764733
vt 0.403511 0.907086
vt 0.411096 0.911130
vt 0.223387 0.815484
vt 0.226219 0.817181
vt 0.280176 0.764733
vt 0.287659 0.005372
vt 0.847127 0.005372
vt 0.847127 0.764733
vt 0.399011 0.900351
vt 0.406163 0.905119
vt 0.222553 0.824039
vt 0.219569 0.822627
vt 0.273032 0.764733
vt 0.280176 0.005372
vt 0.853985 0.005372
vt 0.853985 0.764733
vt 0.395193 0.893207
vt 0.401843 0.898654
vt 0.216469 0.830110
vt 0.219578 0.831223
vt 0.266297 0.764733
vt 0.273032 0.005372
vt 0.860450 0.005372
vt 0.860450 0.764733
vt 0.392093 0.885724
vt 0.398177 0.891796
vt 0.217320 0.838664
vt 0.214118 0.837862
vt 0.260036 0.764733
vt 0.266297 0.005372
vt 0.866461 0.005372
vt 0.866461 0.764733
vt 0.389742 0.877973
vt 0.395201 0.884612
vt 0.215803 0.846291
vt 0.212537 0.845806
vt 0.116232 0.764733
vt 0.121960 0.005372
vt 0.121960 0.764733
vt 0.871960 0.005372
vt 0.871960 0.764733
vt 0.388161 0.870028
vt 0.392944 0.877170
vt 0.215041 0.854029
vt 0.211743 0.853867
vt 0.109971 0.764733
vt 0.116232 0.005372
vt 0.514699 0.764733
vt 0.520710 0.005372
vt 0.520710 0.764733
vt 0.390665 0.861805
vt 0.391427 0.869544
vt 0.215041 0.861805
vt 0.211743 0.861967
vt 0.103236 0.764733
vt 0.109971 0.005372
vt 0.527176 0.005372
vt 0.527176 0.764733
vt 0.387367 0.853867
vt 0.387367 0.861967
vt 0.212537 0.870028
vt 0.215803 0.869544
vt 0.096092 0.764733
vt 0.103236 0.005372
vt 0.534033 0.005372
vt 0.534033 0.764733
vt 0.388161 0.845806
vt 0.390665 0.854029
vt 0.217320 0.877170
vt 0.214118 0.877973
vt 0.088609 0.764733
vt 0.096092 0.005372
vt 0.541218 0.005372
vt 0.541218 0.764733
vt 0.389742 0.837862
vt 0.391427 0.846291
vt 0.219578 0.884611
vt 0.216469 0.885724
vt 0.080858 0.764733
vt 0.088609 0.005372
vt 0.548659 0.005372
vt 0.548659 0.764733
vt 0.392093 0.830111
vt 0.392944 0.838664
vt 0.222553 0.891796
vt 0.219569 0.893207
vt 0.072913 0.764733
vt 0.080858 0.005372
vt 0.556285 0.005372
vt 0.556285 0.764733
vt 0.398177 0.824039
vt 0.395201 0.831223
vt 0.226219 0.898653
vt 0.223387 0.900351
vt 0.064852 0.764733
vt 0.072913 0.005372
vt 0.564024 0.005372
vt 0.564024 0.764733
vt 0.399011 0.815484
vt 0.395193 0.822627
vt 0.230539 0.905119
vt 0.227887 0.907086
vt 0.056752 0.764733
vt 0.064852 0.005372
vt 0.571800 0.005372
vt 0.571800 0.764733
vt 0.406163 0.810715
vt 0.401843 0.817181
vt 0.235472 0.911130
vt 0.233026 0.913347
vt 0.048691 0.764733
vt 0.056752 0.005372
vt 0.579538 0.005372
vt 0.579538 0.764733
vt 0.403511 0.808749
vt 0.411096 0.804704
vt 0.240971 0.916628
vt 0.238753 0.919075
vt 0.040747 0.764733
vt 0.048691 0.005372
vt 0.587165 0.005372
vt 0.587165 0.764733
vt 0.414377 0.796760
vt 0.408650 0.802487
vt 0.245015 0.924213
vt 0.246982 0.921561
vt 0.032995 0.764733
vt 0.040747 0.005372
vt 0.594606 0.005372
vt 0.594606 0.764733
vt 0.420639 0.791621
vt 0.416594 0.799206
vt 0.251750 0.928713
vt 0.253447 0.925882
vt 0.025512 0.764733
vt 0.032995 0.005372
vt 0.601790 0.005372
vt 0.601790 0.764733
vt 0.427373 0.787121
vt 0.422605 0.794273
vt 0.260305 0.929547
vt 0.258893 0.932532
vt 0.018368 0.764733
vt 0.025512 0.005372
vt 0.608648 0.005372
vt 0.608648 0.764733
vt 0.434517 0.783303
vt 0.429071 0.789953
vt 0.266377 0.935631
vt 0.267489 0.932523
vt 0.011634 0.764733
vt 0.018368 0.005372
vt 0.615114 0.005372
vt 0.615114 0.764733
vt 0.442001 0.780203
vt 0.435929 0.786287
vt 0.274930 0.934780
vt 0.274128 0.937983
vt 0.005372 0.764733
vt 0.011634 0.005372
vt 0.621125 0.005372
vt 0.621125 0.764733
vt 0.449752 0.777852
vt 0.443113 0.783311
vt 0.282557 0.936297
vt 0.282072 0.939563
vt 0.498227 0.764733
vt 0.503955 0.005372
vt 0.503955 0.764733
vt 0.626623 0.005372
vt 0.626623 0.764733
vt 0.457696 0.776271
vt 0.450554 0.781054
vt 0.290295 0.937059
vt 0.290133 0.940357
vt 0.491966 0.764733
vt 0.498227 0.005372
vt 0.882704 0.764733
vt 0.888715 0.005372
vt 0.888715 0.764733
vt 0.465919 0.778775
vt 0.458181 0.779537
vt 0.298071 0.937059
vt 0.298233 0.940357
vt 0.485231 0.764733
vt 0.491966 0.005372
vt 0.895180 0.005372
vt 0.895180 0.764733
vt 0.473857 0.775477
vt 0.465757 0.775477
vt 0.306294 0.939563
vt 0.305810 0.936297
vt 0.478087 0.764733
vt 0.485231 0.005372
vt 0.902038 0.005372
vt 0.902038 0.764733
vt 0.481918 0.776271
vt 0.473695 0.778775
vt 0.313437 0.934780
vt 0.314239 0.937983
vt 0.470604 0.764733
vt 0.478087 0.005372
vt 0.909222 0.005372
vt 0.909222 0.764733
vt 0.489863 0.777852
vt 0.481434 0.779537
vt 0.320878 0.932523
vt 0.321990 0.935631
vt 0.462853 0.764733
vt 0.470604 0.005372
vt 0.916663 0.005372
vt 0.916663 0.764733
vt 0.497614 0.780203
vt 0.489060 0.781054
vt 0.328062 0.929547
vt 0.329473 0.932532
vt 0.454908 0.764733
vt 0.462853 0.005372
vt 0.924290 0.005372
vt 0.924290 0.764733
vt 0.503686 0.786287
vt 0.496502 0.783311
vt 0.334920 0.925882
vt 0.336617 0.928713
vt 0.446847 0.764733
vt 0.454908 0.005372
vt 0.932029 0.005372
vt 0.932029 0.764733
vt 0.512241 0.787121
vt 0.505097 0.783303
vt 0.341385 0.921561
vt 0.343352 0.924213
vt 0.438747 0.764733
vt 0.446847 0.005372
vt 0.939805 0.005372
vt 0.939805 0.764733
vt 0.517009 0.794273
vt 0.510543 0.789953
vt 0.347396 0.916628
vt 0.349613 0.919075
vt 0.430686 0.764733
vt 0.438747 0.005372
vt 0.947543 0.005372
vt 0.947543 0.764733
vt 0.518976 0.791621
vt 0.523020 0.799206
vt 0.352895 0.911130
vt 0.355341 0.913347
vt 0.422742 0.764733
vt 0.430686 0.005372
vt 0.955170 0.005372
vt 0.955170 0.764733
vt 0.530965 0.802487
vt 0.525237 0.796760
vt 0.360479 0.907086
vt 0.357828 0.905119
vt 0.414991 0.764733
vt 0.422742 0.005372
vt 0.962611 0.005372
vt 0.962611 0.764733
vt 0.536103 0.808749
vt 0.528518 0.804704
vt 0.364980 0.900351
vt 0.362148 0.898653
vt 0.407507 0.764733
vt 0.414991 0.005372
vt 0.969795 0.005372
vt 0.969795 0.764733
vt 0.540603 0.815484
vt 0.533451 0.810715
vt 0.365813 0.891796
vt 0.368798 0.893207
vt 0.400364 0.764733
vt 0.407507 0.005372
vt 0.976653 0.005372
vt 0.976653 0.764733
vt 0.544422 0.822627
vt 0.537772 0.817181
vt 0.371898 0.885724
vt 0.368789 0.884611
vt 0.393629 0.764733
vt 0.400364 0.005372
vt 0.983118 0.005372
vt 0.983118 0.764733
vt 0.547521 0.830111
vt 0.541437 0.824039
vt 0.371046 0.877170
vt 0.374249 0.877972
vt 0.387367 0.764733
vt 0.393629 0.005372
vt 0.989129 0.005372
vt 0.989129 0.764733
vt 0.549873 0.837862
vt 0.544413 0.831223
vt 0.372563 0.869544
vt 0.375829 0.870028
vt 0.243564 0.764733
vt 0.249291 0.005372
vt 0.249291 0.764733
vt 0.994628 0.005372
vt 0.994628 0.764733
vt 0.551453 0.845806
vt 0.546670 0.838664
vt 0.373326 0.861805
vt 0.376623 0.861967
vt 0.237302 0.764733
vt 0.243564 0.005372
vt 0.637367 0.764733
vt 0.643378 0.005372
vt 0.643378 0.764733
vt 0.548949 0.854029
vt 0.548187 0.846291
vt 0.373326 0.854029
vt 0.376623 0.853867
vt 0.230568 0.764733
vt 0.237302 0.005372
vt 0.649844 0.005372
vt 0.649844 0.764733
vt 0.552247 0.861967
vt 0.552247 0.853867
vt 0.375829 0.845806
vt 0.372563 0.846291
vt 0.223424 0.764733
vt 0.230568 0.005372
vt 0.656702 0.005372
vt 0.656702 0.764733
vt 0.551453 0.870028
vt 0.548949 0.861805
vt 0.371046 0.838664
vt 0.374249 0.837862
vt 0.215940 0.764733
vt 0.223424 0.005372
vt 0.663886 0.005372
vt 0.663886 0.764733
vt 0.549873 0.877973
vt 0.548187 0.869544
vt 0.368789 0.831223
vt 0.371898 0.830110
vt 0.208189 0.764733
vt 0.215940 0.005372
vt 0.671327 0.005372
vt 0.671327 0.764733
vt 0.547522 0.885724
vt 0.546670 0.877170
vt 0.365813 0.824039
vt 0.368798 0.822627
vt 0.200245 0.764733
vt 0.208189 0.005372
vt 0.678954 0.005372
vt 0.678954 0.764733
vt 0.541437 0.891796
vt 0.544413 0.884612
vt 0.362148 0.817181
vt 0.364980 0.815483
vt 0.192184 0.764733
vt 0.200245 0.005372
vt 0.686692 0.005372
vt 0.686692 0.764733
vt 0.540603 0.900351
vt 0.544422 0.893207
vt 0.357828 0.810715
vt 0.360479 0.808749
vt 0.184084 0.764733
vt 0.192184 0.005372
vt 0.694468 0.005372
vt 0.694468 0.764733
vt 0.533451 0.905119
vt 0.537772 0.898653
vt 0.352895 0.804704
vt 0.355341 0.802487
vt 0.176023 0.764733
vt 0.184084 0.005372
vt 0.702207 0.005372
vt 0.702207 0.764733
vt 0.536103 0.907086
vt 0.528518 0.911130
vt 0.347396 0.799206
vt 0.349613 0.796760
vt 0.168078 0.764733
vt 0.176023 0.005372
vt 0.709833 0.005372
vt 0.709833 0.764733
vt 0.525237 0.919075
vt 0.530965 0.913347
vt 0.343352 0.791621
vt 0.341385 0.794273
vt 0.160327 0.764733
vt 0.168078 0.005372
vt 0.717274 0.005372
vt 0.717274 0.764733
vt 0.518976 0.924213
vt 0.523020 0.916628
vt 0.336617 0.787121
vt 0.334920 0.789953
vt 0.152844 0.764733
vt 0.160327 0.005372
vt 0.724459 0.005372
vt 0.724459 0.764733
vt 0.512241 0.928713
vt 0.517009 0.921561
vt 0.328062 0.786287
vt 0.329473 0.783302
vt 0.145700 0.764733
vt 0.152844 0.005372
vt 0.731316 0.005372
vt 0.731316 0.764733
vt 0.505097 0.932532
vt 0.510544 0.925882
vt 0.321990 0.780203
vt 0.320878 0.783311
vt 0.138965 0.764733
vt 0.145700 0.005372
vt 0.737782 0.005372
vt 0.737782 0.764733
vt 0.497614 0.935632
vt 0.503686 0.929547
vt 0.313436 0.781054
vt 0.314239 0.777851
vt 0.132704 0.764733
vt 0.138965 0.005372
vt 0.743793 0.005372
vt 0.743793 0.764733
vt 0.489863 0.937983
vt 0.496502 0.932523
vt 0.305810 0.779537
vt 0.306294 0.776271
vt 0.370896 0.764733
vt 0.376623 0.005372
vt 0.376623 0.764733
vt 0.749291 0.005372
vt 0.749291 0.764733
vt 0.481918 0.939563
vt 0.489060 0.934780
vt 0.298071 0.778775
vt 0.298233 0.775477
vt 0.370896 0.005372
vt 0.760036 0.764733
vt 0.766047 0.005372
vt 0.481434 0.936297
vt 0.290133 0.775477
vt 0.260036 0.005372
vt 0.514699 0.005372
vt 0.005372 0.005372
vt 0.882704 0.005372
vt 0.387367 0.005372
vt 0.637367 0.005372
vt 0.132704 0.005372
vt 0.760036 0.005372
s 0
usemtl ARAT_brushed_tin
f 2/1/1 129/2/1 1/3/1
f 65/4/2 194/5/2 66/6/2
f 130/7/3 193/8/3 129/9/3
f 2/10/4 65/11/4 66/12/4
f 3/13/5 130/14/5 2/1/5
f 66/6/6 195/15/6 67/16/6
f 131/17/3 194/18/3 130/7/3
f 2/10/4 67/19/4 3/20/4
f 4/21/7 131/22/7 3/13/7
f 67/16/8 196/23/8 68/24/8
f 132/25/3 195/26/3 131/17/3
f 3/20/4 68/27/4 4/28/4
f 5/29/9 132/30/9 4/21/9
f 68/24/10 197/31/10 69/32/10
f 133/33/3 196/34/3 132/25/3
f 4/28/4 69/35/4 5/36/4
f 6/37/11 133/38/11 5/29/11
f 69/32/12 198/39/12 70/40/12
f 133/33/3 198/41/3 197/42/3
f 5/36/4 70/43/4 6/44/4
f 7/45/13 134/46/13 6/37/13
f 70/40/14 199/47/14 71/48/14
f 135/49/3 198/41/3 134/50/3
f 6/44/4 71/51/4 7/52/4
f 8/53/15 135/54/15 7/45/15
f 71/48/16 200/55/16 72/56/16
f 135/49/3 200/57/3 199/58/3
f 7/52/4 72/59/4 8/60/4
f 9/61/17 136/62/17 8/53/17
f 72/56/18 201/63/18 73/64/18
f 136/65/3 201/66/3 200/57/3
f 8/60/4 73/67/4 9/68/4
f 10/69/19 137/70/19 9/61/19
f 73/64/20 202/71/20 74/72/20
f 138/73/3 201/66/3 137/74/3
f 10/75/4 73/67/4 74/76/4
f 11/77/21 138/78/21 10/69/21
f 74/72/22 203/79/22 75/80/22
f 139/81/3 202/82/3 138/73/3
f 11/83/4 74/76/4 75/84/4
f 12/85/23 139/86/23 11/77/23
f 75/80/24 204/87/24 76/88/24
f 140/89/3 203/90/3 139/81/3
f 11/83/4 76/91/4 12/92/4
f 13/93/25 140/94/25 12/85/25
f 76/88/26 205/95/26 77/96/26
f 141/97/3 204/98/3 140/89/3
f 13/99/4 76/91/4 77/100/4
f 14/101/27 141/102/27 13/93/27
f 77/96/28 206/103/28 78/104/28
f 142/105/3 205/106/3 141/97/3
f 13/99/4 78/107/4 14/108/4
f 15/109/29 142/110/29 14/101/29
f 78/104/30 207/111/30 79/112/30
f 143/113/3 206/114/3 142/105/3
f 14/108/4 79/115/4 15/116/4
f 16/117/31 143/118/31 15/119/31
f 79/112/32 208/120/32 80/121/32
f 144/122/3 207/123/3 143/113/3
f 15/116/4 80/124/4 16/125/4
f 17/126/33 144/127/33 16/117/33
f 80/128/34 209/129/34 81/130/34
f 144/122/3 209/131/3 208/132/3
f 16/125/4 81/133/4 17/134/4
f 18/135/35 145/136/35 17/126/35
f 81/130/36 210/137/36 82/138/36
f 146/139/3 209/131/3 145/140/3
f 18/141/4 81/133/4 82/142/4
f 19/143/37 146/144/37 18/135/37
f 82/138/38 211/145/38 83/146/38
f 147/147/3 210/148/3 146/139/3
f 18/141/4 83/149/4 19/150/4
f 20/151/39 147/152/39 19/143/39
f 83/146/40 212/153/40 84/154/40
f 148/155/3 211/156/3 147/147/3
f 19/150/4 84/157/4 20/158/4
f 21/159/41 148/160/41 20/151/41
f 84/154/42 213/161/42 85/162/42
f 149/163/3 212/164/3 148/155/3
f 20/158/4 85/165/4 21/166/4
f 22/167/43 149/168/43 21/159/43
f 85/162/44 214/169/44 86/170/44
f 149/163/3 214/171/3 213/172/3
f 21/166/4 86/173/4 22/174/4
f 23/175/45 150/176/45 22/167/45
f 86/170/46 215/177/46 87/178/46
f 151/179/3 214/171/3 150/180/3
f 22/174/4 87/181/4 23/182/4
f 24/183/47 151/184/47 23/175/47
f 87/178/48 216/185/48 88/186/48
f 151/179/3 216/187/3 215/188/3
f 23/182/4 88/189/4 24/190/4
f 25/191/49 152/192/49 24/183/49
f 88/186/50 217/193/50 89/194/50
f 152/195/3 217/196/3 216/187/3
f 24/190/4 89/197/4 25/198/4
f 26/199/51 153/200/51 25/191/51
f 89/194/52 218/201/52 90/202/52
f 154/203/3 217/196/3 153/204/3
f 26/205/4 89/197/4 90/206/4
f 27/207/53 154/208/53 26/199/53
f 90/202/54 219/209/54 91/210/54
f 155/211/3 218/212/3 154/203/3
f 27/213/4 90/206/4 91/214/4
f 28/215/55 155/216/55 27/207/55
f 91/210/56 220/217/56 92/218/56
f 156/219/3 219/220/3 155/211/3
f 27/213/4 92/221/4 28/222/4
f 29/223/57 156/224/57 28/215/57
f 92/218/58 221/225/58 93/226/58
f 157/227/3 220/228/3 156/219/3
f 29/229/4 92/221/4 93/230/4
f 30/231/59 157/232/59 29/223/59
f 93/226/60 222/233/60 94/234/60
f 158/235/3 221/236/3 157/227/3
f 29/229/4 94/237/4 30/238/4
f 31/239/61 158/240/61 30/231/61
f 94/234/62 223/241/62 95/242/62
f 159/243/3 222/244/3 158/235/3
f 30/238/4 95/245/4 31/246/4
f 32/247/63 159/248/63 31/249/63
f 95/242/64 224/250/64 96/251/64
f 160/252/3 223/253/3 159/243/3
f 31/246/4 96/254/4 32/255/4
f 33/256/65 160/257/65 32/247/65
f 96/258/66 225/259/66 97/260/66
f 160/252/3 225/261/3 224/262/3
f 32/255/4 97/263/4 33/264/4
f 34/265/2 161/266/2 33/256/2
f 97/260/1 226/267/1 98/268/1
f 162/269/3 225/261/3 161/270/3
f 34/271/4 97/263/4 98/272/4
f 35/273/6 162/274/6 34/265/6
f 98/268/5 227/275/5 99/276/5
f 163/277/3 226/278/3 162/269/3
f 34/271/4 99/279/4 35/280/4
f 36/281/8 163/282/8 35/273/8
f 99/276/7 228/283/7 100/284/7
f 164/285/3 227/286/3 163/277/3
f 35/280/4 100/287/4 36/288/4
f 37/289/10 164/290/10 36/281/10
f 100/284/9 229/291/9 101/292/9
f 165/293/3 228/294/3 164/285/3
f 36/288/4 101/295/4 37/296/4
f 38/297/12 165/298/12 37/289/12
f 101/292/11 230/299/11 102/300/11
f 165/293/3 230/301/3 229/302/3
f 37/296/4 102/303/4 38/304/4
f 39/305/14 166/306/14 38/297/14
f 102/300/13 231/307/13 103/308/13
f 167/309/3 230/301/3 166/310/3
f 38/304/4 103/311/4 39/312/4
f 40/313/16 167/314/16 39/305/16
f 103/308/15 232/315/15 104/316/15
f 167/309/3 232/317/3 231/318/3
f 39/312/4 104/319/4 40/320/4
f 41/321/18 168/322/18 40/313/18
f 104/316/17 233/323/17 105/324/17
f 168/325/3 233/326/3 232/317/3
f 40/320/4 105/327/4 41/328/4
f 42/329/20 169/330/20 41/321/20
f 105/324/19 234/331/19 106/332/19
f 170/333/3 233/326/3 169/334/3
f 42/335/4 105/327/4 106/336/4
f 43/337/22 170/338/22 42/329/22
f 106/332/21 235/339/21 107/340/21
f 171/341/3 234/342/3 170/333/3
f 43/343/4 106/336/4 107/344/4
f 44/345/24 171/346/24 43/337/24
f 107/340/23 236/347/23 108/348/23
f 172/349/3 235/350/3 171/341/3
f 43/343/4 108/351/4 44/352/4
f 45/353/26 172/354/26 44/345/26
f 108/348/25 237/355/25 109/356/25
f 173/357/3 236/358/3 172/349/3
f 45/359/4 108/351/4 109/360/4
f 46/361/28 173/362/28 45/353/28
f 109/356/27 238/363/27 110/364/27
f 174/365/3 237/366/3 173/357/3
f 45/359/4 110/367/4 46/368/4
f 47/369/30 174/370/30 46/361/30
f 110/364/29 239/371/29 111/372/29
f 175/373/3 238/374/3 174/365/3
f 46/368/4 111/375/4 47/376/4
f 48/377/32 175/378/32 47/379/32
f 111/372/31 240/380/31 112/381/31
f 176/382/3 239/383/3 175/373/3
f 47/376/4 112/384/4 48/385/4
f 49/386/34 176/387/34 48/377/34
f 112/388/33 241/389/33 113/390/33
f 176/382/3 241/391/3 240/392/3
f 48/385/4 113/393/4 49/394/4
f 50/395/36 177/396/36 49/386/36
f 113/390/35 242/397/35 114/398/35
f 178/399/3 241/391/3 177/400/3
f 50/401/4 113/393/4 114/402/4
f 51/403/38 178/404/38 50/395/38
f 114/398/37 243/405/37 115/406/37
f 179/407/3 242/408/3 178/399/3
f 50/401/4 115/409/4 51/410/4
f 52/411/40 179/412/40 51/403/40
f 115/406/39 244/413/39 116/414/39
f 180/415/3 243/416/3 179/407/3
f 51/410/4 116/417/4 52/418/4
f 53/419/42 180/420/42 52/411/42
f 116/414/41 245/421/41 117/422/41
f 181/423/3 244/424/3 180/415/3
f 52/418/4 117/425/4 53/426/4
f 54/427/44 181/428/44 53/419/44
f 117/422/43 246/429/43 118/430/43
f 181/423/3 246/431/3 245/432/3
f 53/426/4 118/433/4 54/434/4
f 55/435/46 182/436/46 54/427/46
f 118/430/45 247/437/45 119/438/45
f 183/439/3 246/431/3 182/440/3
f 54/434/4 119/441/4 55/442/4
f 56/443/48 183/444/48 55/435/48
f 119/438/47 248/445/47 120/446/47
f 183/439/3 248/447/3 247/448/3
f 55/442/4 120/449/4 56/450/4
f 57/451/50 184/452/50 56/443/50
f 120/446/49 249/453/49 121/454/49
f 184/455/3 249/456/3 248/447/3
f 56/450/4 121/457/4 57/458/4
f 58/459/52 185/460/52 57/451/52
f 121/454/51 250/461/51 122/462/51
f 186/463/3 249/456/3 185/464/3
f 58/465/4 121/457/4 122/466/4
f 59/467/54 186/468/54 58/459/54
f 122/462/53 251/469/53 123/470/53
f 187/471/3 250/472/3 186/463/3
f 59/473/4 122/466/4 123/474/4
f 60/475/56 187/476/56 59/467/56
f 123/470/55 252/477/55 124/478/55
f 188/479/3 251/480/3 187/471/3
f 59/473/4 124/481/4 60/482/4
f 61/483/58 188/484/58 60/475/58
f 124/478/57 253/485/57 125/486/57
f 189/487/3 252/488/3 188/479/3
f 61/489/4 124/481/4 125/490/4
f 62/491/60 189/492/60 61/483/60
f 125/486/59 254/493/59 126/494/59
f 190/495/3 253/496/3 189/487/3
f 61/489/4 126/497/4 62/498/4
f 63/499/62 190/500/62 62/491/62
f 126/494/61 255/501/61 127/502/61
f 191/503/3 254/504/3 190/495/3
f 62/498/4 127/505/4 63/506/4
f 64/507/64 191/508/64 63/509/64
f 127/502/63 256/510/63 128/511/63
f 192/512/3 255/513/3 191/503/3
f 63/506/4 128/514/4 64/515/4
f 1/3/66 192/516/66 64/507/66
f 128/517/65 193/518/65 65/4/65
f 192/512/3 193/8/3 256/519/3
f 64/515/4 65/11/4 1/520/4
f 2/1/1 130/14/1 129/2/1
f 65/4/2 193/518/2 194/5/2
f 130/7/3 194/18/3 193/8/3
f 2/10/4 1/520/4 65/11/4
f 3/13/5 131/22/5 130/14/5
f 66/6/6 194/5/6 195/15/6
f 131/17/3 195/26/3 194/18/3
f 2/10/4 66/12/4 67/19/4
f 4/21/7 132/30/7 131/22/7
f 67/16/8 195/15/8 196/23/8
f 132/25/3 196/34/3 195/26/3
f 3/20/4 67/19/4 68/27/4
f 5/29/9 133/38/9 132/30/9
f 68/24/10 196/23/10 197/31/10
f 133/33/3 197/42/3 196/34/3
f 4/28/4 68/27/4 69/35/4
f 6/37/11 134/46/11 133/38/11
f 69/32/12 197/31/12 198/39/12
f 133/33/3 134/50/3 198/41/3
f 5/36/4 69/35/4 70/43/4
f 7/45/13 135/54/13 134/46/13
f 70/40/14 198/39/14 199/47/14
f 135/49/3 199/58/3 198/41/3
f 6/44/4 70/43/4 71/51/4
f 8/53/15 136/62/15 135/54/15
f 71/48/16 199/47/16 200/55/16
f 135/49/3 136/65/3 200/57/3
f 7/52/4 71/51/4 72/59/4
f 9/61/17 137/70/17 136/62/17
f 72/56/18 200/55/18 201/63/18
f 136/65/3 137/74/3 201/66/3
f 8/60/4 72/59/4 73/67/4
f 10/69/19 138/78/19 137/70/19
f 73/64/20 201/63/20 202/71/20
f 138/73/3 202/82/3 201/66/3
f 10/75/4 9/68/4 73/67/4
f 11/77/21 139/86/21 138/78/21
f 74/72/22 202/71/22 203/79/22
f 139/81/3 203/90/3 202/82/3
f 11/83/4 10/75/4 74/76/4
f 12/85/23 140/94/23 139/86/23
f 75/80/24 203/79/24 204/87/24
f 140/89/3 204/98/3 203/90/3
f 11/83/4 75/84/4 76/91/4
f 13/93/25 141/102/25 140/94/25
f 76/88/26 204/87/26 205/95/26
f 141/97/3 205/106/3 204/98/3
f 13/99/4 12/92/4 76/91/4
f 14/101/27 142/110/27 141/102/27
f 77/96/28 205/95/28 206/103/28
f 142/105/3 206/114/3 205/106/3
f 13/99/4 77/100/4 78/107/4
f 15/109/29 143/521/29 142/110/29
f 78/104/30 206/103/30 207/111/30
f 143/113/3 207/123/3 206/114/3
f 14/108/4 78/107/4 79/115/4
f 16/117/31 144/127/31 143/118/31
f 79/112/32 207/111/32 208/120/32
f 144/122/3 208/132/3 207/123/3
f 15/116/4 79/115/4 80/124/4
f 17/126/33 145/136/33 144/127/33
f 80/128/34 208/522/34 209/129/34
f 144/122/3 145/140/3 209/131/3
f 16/125/4 80/124/4 81/133/4
f 18/135/35 146/144/35 145/136/35
f 81/130/36 209/129/36 210/137/36
f 146/139/3 210/148/3 209/131/3
f 18/141/4 17/134/4 81/133/4
f 19/143/37 147/152/37 146/144/37
f 82/138/38 210/137/38 211/145/38
f 147/147/3 211/156/3 210/148/3
f 18/141/4 82/142/4 83/149/4
f 20/151/39 148/160/39 147/152/39
f 83/146/40 211/145/40 212/153/40
f 148/155/3 212/164/3 211/156/3
f 19/150/4 83/149/4 84/157/4
f 21/159/41 149/168/41 148/160/41
f 84/154/42 212/153/42 213/161/42
f 149/163/3 213/172/3 212/164/3
f 20/158/4 84/157/4 85/165/4
f 22/167/43 150/176/43 149/168/43
f 85/162/44 213/161/44 214/169/44
f 149/163/3 150/180/3 214/171/3
f 21/166/4 85/165/4 86/173/4
f 23/175/45 151/184/45 150/176/45
f 86/170/46 214/169/46 215/177/46
f 151/179/3 215/188/3 214/171/3
f 22/174/4 86/173/4 87/181/4
f 24/183/47 152/192/47 151/184/47
f 87/178/48 215/177/48 216/185/48
f 151/179/3 152/195/3 216/187/3
f 23/182/4 87/181/4 88/189/4
f 25/191/49 153/200/49 152/192/49
f 88/186/50 216/185/50 217/193/50
f 152/195/3 153/204/3 217/196/3
f 24/190/4 88/189/4 89/197/4
f 26/199/51 154/208/51 153/200/51
f 89/194/52 217/193/52 218/201/52
f 154/203/3 218/212/3 217/196/3
f 26/205/4 25/198/4 89/197/4
f 27/207/53 155/216/53 154/208/53
f 90/202/54 218/201/54 219/209/54
f 155/211/3 219/220/3 218/212/3
f 27/213/4 26/205/4 90/206/4
f 28/215/55 156/224/55 155/216/55
f 91/210/56 219/209/56 220/217/56
f 156/219/3 220/228/3 219/220/3
f 27/213/4 91/214/4 92/221/4
f 29/223/57 157/232/57 156/224/57
f 92/218/58 220/217/58 221/225/58
f 157/227/3 221/236/3 220/228/3
f 29/229/4 28/222/4 92/221/4
f 30/231/59 158/240/59 157/232/59
f 93/226/60 221/225/60 222/233/60
f 158/235/3 222/244/3 221/236/3
f 29/229/4 93/230/4 94/237/4
f 31/239/61 159/523/61 158/240/61
f 94/234/62 222/233/62 223/241/62
f 159/243/3 223/253/3 222/244/3
f 30/238/4 94/237/4 95/245/4
f 32/247/63 160/257/63 159/248/63
f 95/242/64 223/241/64 224/250/64
f 160/252/3 224/262/3 223/253/3
f 31/246/4 95/245/4 96/254/4
f 33/256/65 161/266/65 160/257/65
f 96/258/66 224/524/66 225/259/66
f 160/252/3 161/270/3 225/261/3
f 32/255/4 96/254/4 97/263/4
f 34/265/2 162/274/2 161/266/2
f 97/260/1 225/259/1 226/267/1
f 162/269/3 226/278/3 225/261/3
f 34/271/4 33/264/4 97/263/4
f 35/273/6 163/282/6 162/274/6
f 98/268/5 226/267/5 227/275/5
f 163/277/3 227/286/3 226/278/3
f 34/271/4 98/272/4 99/279/4
f 36/281/8 164/290/8 163/282/8
f 99/276/7 227/275/7 228/283/7
f 164/285/3 228/294/3 227/286/3
f 35/280/4 99/279/4 100/287/4
f 37/289/10 165/298/10 164/290/10
f 100/284/9 228/283/9 229/291/9
f 165/293/3 229/302/3 228/294/3
f 36/288/4 100/287/4 101/295/4
f 38/297/12 166/306/12 165/298/12
f 101/292/11 229/291/11 230/299/11
f 165/293/3 166/310/3 230/301/3
f 37/296/4 101/295/4 102/303/4
f 39/305/14 167/314/14 166/306/14
f 102/300/13 230/299/13 231/307/13
f 167/309/3 231/318/3 230/301/3
f 38/304/4 102/303/4 103/311/4
f 40/313/16 168/322/16 167/314/16
f 103/308/15 231/307/15 232/315/15
f 167/309/3 168/325/3 232/317/3
f 39/312/4 103/311/4 104/319/4
f 41/321/18 169/330/18 168/322/18
f 104/316/17 232/315/17 233/323/17
f 168/325/3 169/334/3 233/326/3
f 40/320/4 104/319/4 105/327/4
f 42/329/20 170/338/20 169/330/20
f 105/324/19 233/323/19 234/331/19
f 170/333/3 234/342/3 233/326/3
f 42/335/4 41/328/4 105/327/4
f 43/337/22 171/346/22 170/338/22
f 106/332/21 234/331/21 235/339/21
f 171/341/3 235/350/3 234/342/3
f 43/343/4 42/335/4 106/336/4
f 44/345/24 172/354/24 171/346/24
f 107/340/23 235/339/23 236/347/23
f 172/349/3 236/358/3 235/350/3
f 43/343/4 107/344/4 108/351/4
f 45/353/26 173/362/26 172/354/26
f 108/348/25 236/347/25 237/355/25
f 173/357/3 237/366/3 236/358/3
f 45/359/4 44/352/4 108/351/4
f 46/361/28 174/370/28 173/362/28
f 109/356/27 237/355/27 238/363/27
f 174/365/3 238/374/3 237/366/3
f 45/359/4 109/360/4 110/367/4
f 47/369/30 175/525/30 174/370/30
f 110/364/29 238/363/29 239/371/29
f 175/373/3 239/383/3 238/374/3
f 46/368/4 110/367/4 111/375/4
f 48/377/32 176/387/32 175/378/32
f 111/372/31 239/371/31 240/380/31
f 176/382/3 240/392/3 239/383/3
f 47/376/4 111/375/4 112/384/4
f 49/386/34 177/396/34 176/387/34
f 112/388/33 240/526/33 241/389/33
f 176/382/3 177/400/3 241/391/3
f 48/385/4 112/384/4 113/393/4
f 50/395/36 178/404/36 177/396/36
f 113/390/35 241/389/35 242/397/35
f 178/399/3 242/408/3 241/391/3
f 50/401/4 49/394/4 113/393/4
f 51/403/38 179/412/38 178/404/38
f 114/398/37 242/397/37 243/405/37
f 179/407/3 243/416/3 242/408/3
f 50/401/4 114/402/4 115/409/4
f 52/411/40 180/420/40 179/412/40
f 115/406/39 243/405/39 244/413/39
f 180/415/3 244/424/3 243/416/3
f 51/410/4 115/409/4 116/417/4
f 53/419/42 181/428/42 180/420/42
f 116/414/41 244/413/41 245/421/41
f 181/423/3 245/432/3 244/424/3
f 52/418/4 116/417/4 117/425/4
f 54/427/44 182/436/44 181/428/44
f 117/422/43 245/421/43 246/429/43
f 181/423/3 182/440/3 246/431/3
f 53/426/4 117/425/4 118/433/4
f 55/435/46 183/444/46 182/436/46
f 118/430/45 246/429/45 247/437/45
f 183/439/3 247/448/3 246/431/3
f 54/434/4 118/433/4 119/441/4
f 56/443/48 184/452/48 183/444/48
f 119/438/47 247/437/47 248/445/47
f 183/439/3 184/455/3 248/447/3
f 55/442/4 119/441/4 120/449/4
f 57/451/50 185/460/50 184/452/50
f 120/446/49 248/445/49 249/453/49
f 184/455/3 185/464/3 249/456/3
f 56/450/4 120/449/4 121/457/4
f 58/459/52 186/468/52 185/460/52
f 121/454/51 249/453/51 250/461/51
f 186/463/3 250/472/3 249/456/3
f 58/465/4 57/458/4 121/457/4
f 59/467/54 187/476/54 186/468/54
f 122/462/53 250/461/53 251/469/53
f 187/471/3 251/480/3 250/472/3
f 59/473/4 58/465/4 122/466/4
f 60/475/56 188/484/56 187/476/56
f 123/470/55 251/469/55 252/477/55
f 188/479/3 252/488/3 251/480/3
f 59/473/4 123/474/4 124/481/4
f 61/483/58 189/492/58 188/484/58
f 124/478/57 252/477/57 253/485/57
f 189/487/3 253/496/3 252/488/3
f 61/489/4 60/482/4 124/481/4
f 62/491/60 190/500/60 189/492/60
f 125/486/59 253/485/59 254/493/59
f 190/495/3 254/504/3 253/496/3
f 61/489/4 125/490/4 126/497/4
f 63/499/62 191/527/62 190/500/62
f 126/494/61 254/493/61 255/501/61
f 191/503/3 255/513/3 254/504/3
f 62/498/4 126/497/4 127/505/4
f 64/507/64 192/516/64 191/508/64
f 127/502/63 255/501/63 256/510/63
f 192/512/3 256/519/3 255/513/3
f 63/506/4 127/505/4 128/514/4
f 1/3/66 129/2/66 192/516/66
f 128/517/65 256/528/65 193/518/65
f 192/512/3 129/9/3 193/8/3
f 64/515/4 128/514/4 65/11/4
