# Blender 4.5.11 LTS
# www.blender.org
mtllib visual.mtl
o bolt_washer_target_point
v 0.000000 0.003679 0.000000
v 0.000000 0.004000 0.000320
v -0.000000 0.003906 0.000094
v -0.000000 0.003679 0.085000
v 0.000000 0.004000 0.084680
v 0.000000 0.003906 0.084906
v 0.000480 0.003648 0.000000
v 0.000522 0.003966 0.000320
v 0.000510 0.003872 0.000094
v 0.000480 0.003648 0.085000
v 0.000522 0.003966 0.084680
v 0.000510 0.003872 0.084906
v 0.000952 0.003554 0.000000
v 0.001035 0.003864 0.000320
v 0.001011 0.003773 0.000094
v 0.000952 0.003554 0.085000
v 0.001035 0.003864 0.084680
v 0.001011 0.003773 0.084906
v 0.001408 0.003399 0.000000
v 0.001531 0.003696 0.000320
v 0.001495 0.003608 0.000094
v 0.001408 0.003399 0.085000
v 0.001531 0.003696 0.084680
v 0.001495 0.003608 0.084906
v 0.001840 0.003186 0.000000
v 0.002000 0.003464 0.000320
v 0.001953 0.003383 0.000094
v 0.001840 0.003186 0.085000
v 0.002000 0.003464 0.084680
v 0.001953 0.003383 0.084906
v 0.002240 0.002919 0.000000
v 0.002435 0.003173 0.000320
v 0.002378 0.003099 0.000094
v 0.002240 0.002919 0.085000
v 0.002435 0.003173 0.084680
v 0.002378 0.003099 0.084906
v 0.002602 0.002602 0.000000
v 0.002828 0.002828 0.000320
v 0.002762 0.002762 0.000094
v 0.002602 0.002602 0.085000
v 0.002828 0.002828 0.084680
v 0.002762 0.002762 0.084906
v 0.002919 0.002240 0.000000
v 0.003173 0.002435 0.000320
v 0.003099 0.002378 0.000094
v 0.002919 0.002240 0.085000
v 0.003173 0.002435 0.084680
v 0.003099 0.002378 0.084906
v 0.003186 0.001840 0.000000
v 0.003464 0.002000 0.000320
v 0.003383 0.001953 0.000094
v 0.003186 0.001840 0.085000
v 0.003464 0.002000 0.084680
v 0.003383 0.001953 0.084906
v 0.003399 0.001408 0.000000
v 0.003696 0.001531 0.000320
v 0.003608 0.001495 0.000094
v 0.003399 0.001408 0.085000
v 0.003696 0.001531 0.084680
v 0.003608 0.001495 0.084906
v 0.003554 0.000952 0.000000
v 0.003864 0.001035 0.000320
v 0.003773 0.001011 0.000094
v 0.003554 0.000952 0.085000
v 0.003864 0.001035 0.084680
v 0.003773 0.001011 0.084906
v 0.003648 0.000480 0.000000
v 0.003966 0.000522 0.000320
v 0.003872 0.000510 0.000094
v 0.003648 0.000480 0.085000
v 0.003966 0.000522 0.084680
v 0.003872 0.000510 0.084906
v 0.003679 -0.000000 0.000000
v 0.004000 0.000000 0.000320
v 0.003906 0.000000 0.000094
v 0.003679 0.000000 0.085000
v 0.004000 0.000000 0.084680
v 0.003906 -0.000000 0.084906
v 0.003648 -0.000480 0.000000
v 0.003966 -0.000522 0.000320
v 0.003872 -0.000510 0.000094
v 0.003648 -0.000480 0.085000
v 0.003966 -0.000522 0.084680
v 0.003872 -0.000510 0.084906
v 0.003554 -0.000952 0.000000
v 0.003864 -0.001035 0.000320
v 0.003773 -0.001011 0.000094
v 0.003554 -0.000952 0.085000
v 0.003864 -0.001035 0.084680
v 0.003773 -0.001011 0.084906
v 0.003399 -0.001408 0.000000
v 0.003696 -0.001531 0.000320
v 0.003608 -0.001495 0.000094
v 0.003399 -0.001408 0.085000
v 0.003696 -0.001531 0.084680
v 0.003608 -0.001495 0.084906
v 0.003186 -0.001840 0.000000
v 0.003464 -0.002000 0.000320
v 0.003383 -0.001953 0.000094
v 0.003186 -0.001840 0.085000
v 0.003464 -0.002000 0.084680
v 0.003383 -0.001953 0.084906
v 0.002919 -0.002240 0.000000
v 0.003173 -0.002435 0.000320
v 0.003099 -0.002378 0.000094
v 0.002919 -0.002240 0.085000
v 0.003173 -0.002435 0.084680
v 0.003099 -0.002378 0.084906
v 0.002602 -0.002602 0.000000
v 0.002828 -0.002828 0.000320
v 0.002762 -0.002762 0.000094
v 0.002602 -0.002602 0.085000
v 0.002828 -0.002828 0.084680
v 0.002762 -0.002762 0.084906
v 0.002240 -0.002919 0.000000
v 0.002435 -0.003173 0.000320
v 0.002378 -0.003099 0.000094
v 0.002240 -0.002919 0.085000
v 0.002435 -0.003173 0.084680
v 0.002378 -0.003099 0.084906
v 0.001840 -0.003186 0.000000
v 0.002000 -0.003464 0.000320
v 0.001953 -0.003383 0.000094
v 0.001840 -0.003186 0.085000
v 0.002000 -0.003464 0.084680
v 0.001953 -0.003383 0.084906
v 0.001408 -0.003399 0.000000
v 0.001531 -0.003696 0.000320
v 0.001495 -0.003608 0.000094
v 0.001408 -0.003399 0.085000
v 0.001531 -0.003696 0.084680
v 0.001495 -0.003608 0.084906
v 0.000952 -0.003554 0.000000
v 0.001035 -0.003864 0.000320
v 0.001011 -0.003773 0.000094
v 0.000952 -0.003554 0.085000
v 0.001035 -0.003864 0.084680
v 0.001011 -0.003773 0.084906
v 0.000480 -0.003648 0.000000
v 0.000522 -0.003966 0.000320
v 0.000510 -0.003872 0.000094
v 0.000480 -0.003648 0.085000
v 0.000522 -0.003966 0.084680
v 0.000510 -0.003872 0.084906
v -0.000000 -0.003679 0.000000
v 0.000000 -0.004000 0.000320
v 0.000000 -0.003906 0.000094
v 0.000000 -0.003679 0.085000
v 0.000000 -0.004000 0.084680
v -0.000000 -0.003906 0.084906
v -0.000480 -0.003648 0.000000
v -0.000522 -0.003966 0.000320
v -0.000510 -0.003872 0.000094
v -0.000480 -0.003648 0.085000
v -0.000522 -0.003966 0.084680
v -0.000510 -0.003872 0.084906
v -0.000952 -0.003554 0.000000
v -0.001035 -0.003864 0.000320
v -0.001011 -0.003773 0.000094
v -0.000952 -0.003554 0.085000
v -0.001035 -0.003864 0.084680
v -0.001011 -0.003773 0.084906
v -0.001408 -0.003399 0.000000
v -0.001531 -0.003696 0.000320
v -0.001495 -0.003608 0.000094
v -0.001408 -0.003399 0.085000
v -0.001531 -0.003696 0.084680
v -0.001495 -0.003608 0.084906
v -0.001840 -0.003186 0.000000
v -0.002000 -0.003464 0.000320
v -0.001953 -0.003383 0.000094
v -0.001840 -0.003186 0.085000
v -0.002000 -0.003464 0.084680
v -0.001953 -0.003383 0.084906
v -0.002240 -0.002919 0.000000
v -0.002435 -0.003173 0.000320
v -0.002378 -0.003099 0.000094
v -0.002240 -0.002919 0.085000
v -0.002435 -0.003173 0.084680
v -0.002378 -0.003099 0.084906
v -0.002602 -0.002602 0.000000
v -0.002828 -0.002828 0.000320
v -0.002762 -0.002762 0.000094
v -0.002602 -0.002602 0.085000
v -0.002828 -0.002828 0.084680
v -0.002762 -0.002762 0.084906
v -0.002919 -0.002240 0.000000
v -0.003173 -0.002435 0.000320
v -0.003099 -0.002378 0.000094
v -0.002919 -0.002240 0.085000
v -0.003173 -0.002435 0.084680
v -0.003099 -0.002378 0.084906
v -0.003186 -0.001840 0.000000
v -0.003464 -0.002000 0.000320
v -0.003383 -0.001953 0.000094
v -0.003186 -0.001840 0.085000
v -0.003464 -0.002000 0.084680
v -0.003383 -0.001953 0.084906
v -0.003399 -0.001408 0.000000
v -0.003696 -0.001531 0.000320
v -0.003608 -0.001495 0.000094
v -0.003399 -0.001408 0.085000
v -0.003696 -0.001531 0.084680
v -0.003608 -0.001495 0.084906
v -0.003554 -0.000952 0.000000
v -0.003864 -0.001035 0.000320
v -0.003773 -0.001011 0.000094
v -0.003554 -0.000952 0.085000
v -0.003864 -0.001035 0.084680
v -0.003773 -0.001011 0.084906
v -0.003648 -0.000480 0.000000
v -0.003966 -0.000522 0.000320
v -0.003872 -0.000510 0.000094
v -0.003648 -0.000480 0.085000
v -0.003966 -0.000522 0.084680
v -0.003872 -0.000510 0.084906
v -0.003679 0.000000 0.000000
v -0.004000 0.000000 0.000320
v -0.003906 -0.000000 0.000094
v -0.003679 -0.000000 0.085000
v -0.004000 0.000000 0.084680
v -0.003906 0.000000 0.084906
v -0.003648 0.000480 0.000000
v -0.003966 0.000522 0.000320
v -0.003872 0.000510 0.000094
v -0.003648 0.000480 0.085000
v -0.003966 0.000522 0.084680
v -0.003872 0.000510 0.084906
v -0.003554 0.000952 0.000000
v -0.003864 0.001035 0.000320
v -0.003773 0.001011 0.000094
v -0.003554 0.000952 0.085000
v -0.003864 0.001035 0.084680
v -0.003773 0.001011 0.084906
v -0.003399 0.001408 0.000000
v -0.003696 0.001531 0.000320
v -0.003608 0.001495 0.000094
v -0.003399 0.001408 0.085000
v -0.003696 0.001531 0.084680
v -0.003608 0.001495 0.084906
v -0.003186 0.001840 0.000000
v -0.003464 0.002000 0.000320
v -0.003383 0.001953 0.000094
v -0.003186 0.001840 0.085000
v -0.003464 0.002000 0.084680
v -0.003383 0.001953 0.084906
v -0.002919 0.002240 0.000000
v -0.003173 0.002435 0.000320
v -0.003099 0.002378 0.000094
v -0.002919 0.002240 0.085000
v -0.003173 0.002435 0.084680
v -0.003099 0.002378 0.084906
v -0.002602 0.002602 0.000000
v -0.002828 0.002828 0.000320
v -0.002762 0.002762 0.000094
v -0.002602 0.002602 0.085000
v -0.002828 0.002828 0.084680
v -0.002762 0.002762 0.084906
v -0.002240 0.002919 0.000000
v -0.002435 0.003173 0.000320
v -0.002378 0.003099 0.000094
v -0.002240 0.002919 0.085000
v -0.002435 0.003173 0.084680
v -0.002378 0.003099 0.084906
v -0.001840 0.003186 0.000000
v -0.002000 0.003464 0.000320
v -0.001953 0.003383 0.000094
v -0.001840 0.003186 0.085000
v -0.002000 0.003464 0.084680
v -0.001953 0.003383 0.084906
v -0.001408 0.003399 0.000000
v -0.001531 0.003696 0.000320
v -0.001495 0.003608 0.000094
v -0.001408 0.003399 0.085000
v -0.001531 0.003696 0.084680
v -0.001495 0.003608 0.084906
v -0.000952 0.003554 0.000000
v -0.001035 0.003864 0.000320
v -0.001011 0.003773 0.000094
v -0.000952 0.003554 0.085000
v -0.001035 0.003864 0.084680
v -0.001011 0.003773 0.084906
v -0.000480 0.003648 0.000000
v -0.000522 0.003966 0.000320
v -0.000510 0.003872 0.000094
v -0.000480 0.003648 0.085000
v -0.000522 0.003966 0.084680
v -0.000510 0.003872 0.084906
vn 0.0604 0.9215 -0.3837
vn 0.0251 0.3823 -0.9237
vn 0.0604 0.9215 0.3837
vn 0.0251 0.3823 0.9237
vn 0.1802 0.9057 -0.3837
vn 0.0747 0.3757 -0.9237
vn 0.1801 0.9057 0.3837
vn 0.0747 0.3757 0.9237
vn 0.2968 0.8745 -0.3837
vn 0.1231 0.3627 -0.9237
vn 0.2968 0.8745 0.3837
vn 0.1231 0.3627 0.9237
vn 0.4084 0.8282 -0.3837
vn 0.1694 0.3436 -0.9237
vn 0.4085 0.8282 0.3837
vn 0.1694 0.3436 0.9237
vn 0.5131 0.7678 -0.3837
vn 0.2128 0.3185 -0.9237
vn 0.5131 0.7678 0.3837
vn 0.2128 0.3185 0.9237
vn 0.6089 0.6943 -0.3837
vn 0.2526 0.2880 -0.9237
vn 0.6089 0.6943 0.3837
vn 0.2526 0.2880 0.9237
vn 0.6943 0.6089 -0.3837
vn 0.2880 0.2526 -0.9237
vn 0.6943 0.6089 0.3837
vn 0.2881 0.2526 0.9237
vn 0.7678 0.5131 -0.3837
vn 0.3185 0.2128 -0.9237
vn 0.7678 0.5130 0.3837
vn 0.3186 0.2128 0.9237
vn 0.8282 0.4084 -0.3837
vn 0.3436 0.1694 -0.9237
vn 0.8282 0.4084 0.3837
vn 0.3436 0.1694 0.9237
vn 0.8745 0.2968 -0.3837
vn 0.3627 0.1231 -0.9237
vn 0.8745 0.2968 0.3837
vn 0.3628 0.1231 0.9237
vn 0.9057 0.1802 -0.3837
vn 0.3757 0.0747 -0.9237
vn 0.9057 0.1802 0.3837
vn 0.3757 0.0747 0.9237
vn 0.9215 0.0604 -0.3837
vn 0.3823 0.0251 -0.9237
vn 0.9215 0.0604 0.3837
vn 0.3823 0.0251 0.9237
vn 0.9215 -0.0604 -0.3837
vn 0.3823 -0.0251 -0.9237
vn 0.9215 -0.0604 0.3837
vn 0.3823 -0.0251 0.9237
vn 0.9057 -0.1802 -0.3837
vn 0.3757 -0.0747 -0.9237
vn 0.9057 -0.1802 0.3837
vn 0.3758 -0.0747 0.9237
vn 0.8745 -0.2968 -0.3837
vn 0.3627 -0.1231 -0.9237
vn 0.8745 -0.2968 0.3837
vn 0.3627 -0.1231 0.9237
vn 0.8282 -0.4084 -0.3837
vn 0.3436 -0.1694 -0.9237
vn 0.8282 -0.4084 0.3837
vn 0.3435 -0.1694 0.9237
vn 0.7678 -0.5131 -0.3837
vn 0.3185 -0.2128 -0.9237
vn 0.7678 -0.5131 0.3837
vn 0.3186 -0.2128 0.9237
vn 0.6943 -0.6089 -0.3837
vn 0.2880 -0.2526 -0.9237
vn 0.6943 -0.6089 0.3837
vn 0.2880 -0.2526 0.9237
vn 0.6089 -0.6943 -0.3837
vn 0.2526 -0.2880 -0.9237
vn 0.6089 -0.6943 0.3837
vn 0.2526 -0.2880 0.9237
vn 0.5131 -0.7678 -0.3837
vn 0.2128 -0.3185 -0.9237
vn 0.5130 -0.7678 0.3837
vn 0.2128 -0.3185 0.9237
vn 0.4084 -0.8282 -0.3837
vn 0.1694 -0.3436 -0.9237
vn 0.4084 -0.8282 0.3837
vn 0.1695 -0.3436 0.9237
vn 0.2968 -0.8745 -0.3837
vn 0.1231 -0.3627 -0.9237
vn 0.2968 -0.8745 0.3837
vn 0.1232 -0.3627 0.9237
vn 0.1802 -0.9057 -0.3837
vn 0.0747 -0.3757 -0.9237
vn 0.1801 -0.9057 0.3837
vn 0.0747 -0.3757 0.9237
vn 0.0604 -0.9215 -0.3837
vn 0.0251 -0.3823 -0.9237
vn 0.0604 -0.9215 0.3837
vn 0.0251 -0.3823 0.9237
vn -0.0604 -0.9215 -0.3837
vn -0.0251 -0.3823 -0.9237
vn -0.0604 -0.9215 0.3837
vn -0.0251 -0.3823 0.9237
vn -0.1802 -0.9057 -0.3837
vn -0.0747 -0.3757 -0.9237
vn -0.1801 -0.9057 0.3837
vn -0.0747 -0.3757 0.9237
vn -0.2968 -0.8745 -0.3837
vn -0.1231 -0.3627 -0.9237
vn -0.2968 -0.8745 0.3837
vn -0.1231 -0.3627 0.9237
vn -0.4084 -0.8282 -0.3837
vn -0.1694 -0.3436 -0.9237
vn -0.4085 -0.8282 0.3837
vn -0.1694 -0.3436 0.9237
vn -0.5131 -0.7678 -0.3837
vn -0.2128 -0.3185 -0.9237
vn -0.5131 -0.7678 0.3837
vn -0.2128 -0.3185 0.9237
vn -0.6089 -0.6943 -0.3837
vn -0.2526 -0.2880 -0.9237
vn -0.6089 -0.6943 0.3837
vn -0.2526 -0.2880 0.9237
vn -0.6943 -0.6089 -0.3837
vn -0.2880 -0.2526 -0.9237
vn -0.6943 -0.6089 0.3837
vn -0.2881 -0.2526 0.9237
vn -0.7678 -0.5131 -0.3837
vn -0.3185 -0.2128 -0.9237
vn -0.7678 -0.5130 0.3837
vn -0.3186 -0.2128 0.9237
vn -0.8282 -0.4084 -0.3837
vn -0.3436 -0.1694 -0.9237
vn -0.8282 -0.4084 0.3837
vn -0.3436 -0.1694 0.9237
vn -0.8745 -0.2968 -0.3837
vn -0.3627 -0.1231 -0.9237
vn -0.8745 -0.2968 0.3837
vn -0.3628 -0.1231 0.9237
vn -0.9057 -0.1802 -0.3837
vn -0.3757 -0.0747 -0.9237
vn -0.9057 -0.1802 0.3837
vn -0.3757 -0.0747 0.9237
vn -0.9215 -0.0604 -0.3837
vn -0.3823 -0.0251 -0.9237
vn -0.9215 -0.0604 0.3837
vn -0.3823 -0.0251 0.9237
vn -0.9215 0.0604 -0.3837
vn -0.3823 0.0251 -0.9237
vn -0.9215 0.0604 0.3837
vn -0.3823 0.0251 0.9237
vn -0.9057 0.1802 -0.3837
vn -0.3757 0.0747 -0.9237
vn -0.9057 0.1802 0.3837
vn -0.3758 0.0747 0.9237
vn -0.8745 0.2968 -0.3837
vn -0.3627 0.1231 -0.9237
vn -0.8745 0.2968 0.3837
vn -0.3627 0.1231 0.9237
vn -0.8282 0.4084 -0.3837
vn -0.3436 0.1694 -0.9237
vn -0.8282 0.4084 0.3837
vn -0.3435 0.1694 0.9237
vn -0.7678 0.5131 -0.3837
vn -0.3185 0.2128 -0.9237
vn -0.7678 0.5131 0.3837
vn -0.3186 0.2128 0.9237
vn -0.6943 0.6089 -0.3837
vn -0.2880 0.2526 -0.9237
vn -0.6943 0.6089 0.3837
vn -0.2880 0.2526 0.9237
vn -0.6089 0.6943 -0.3837
vn -0.2526 0.2880 -0.9237
vn -0.6089 0.6943 0.3837
vn -0.2526 0.2880 0.9237
vn -0.5131 0.7678 -0.3837
vn -0.2128 0.3185 -0.9237
vn -0.5130 0.7678 0.3837
vn -0.2128 0.3185 0.9237
vn -0.4084 0.8282 -0.3837
vn -0.1694 0.3436 -0.9237
vn -0.4084 0.8282 0.3837
vn -0.1695 0.3436 0.9237
vn -0.2968 0.8745 -0.3837
vn -0.1231 0.3627 -0.9237
vn -0.2968 0.8745 0.3837
vn -0.1232 0.3627 0.9237
vn -0.1802 0.9057 -0.3837
vn -0.0747 0.3757 -0.9237
vn -0.1801 0.9057 0.3837
vn -0.0747 0.3757 0.9237
vn -0.0604 0.9215 -0.3837
vn -0.0251 0.3823 -0.9237
vn -0.0604 0.9215 0.3837
vn -0.0251 0.3823 0.9237
vn -0.0000 -0.0000 -1.0000
vn 0.0654 0.9979 -0.0000
vn -0.0654 0.9979 -0.0000
vn -0.0000 -0.0000 1.0000
vn 0.1951 0.9808 -0.0000
vn 0.3214 0.9469 -0.0000
vn 0.4423 0.8969 -0.0000
vn 0.5556 0.8315 -0.0000
vn 0.6593 0.7518 -0.0000
vn 0.7518 0.6593 -0.0000
vn 0.8315 0.5556 -0.0000
vn 0.8969 0.4423 -0.0000
vn 0.9469 0.3214 -0.0000
vn 0.9808 0.1951 -0.0000
vn 0.9979 0.0654 -0.0000
vn 0.9979 -0.0654 -0.0000
vn 0.9808 -0.1951 -0.0000
vn 0.9469 -0.3214 -0.0000
vn 0.8969 -0.4423 -0.0000
vn 0.8315 -0.5556 -0.0000
vn 0.7518 -0.6593 -0.0000
vn 0.6593 -0.7518 -0.0000
vn 0.5556 -0.8315 -0.0000
vn 0.4423 -0.8969 -0.0000
vn 0.3214 -0.9469 -0.0000
vn 0.1951 -0.9808 -0.0000
vn 0.0654 -0.9979 -0.0000
vn -0.0654 -0.9979 -0.0000
vn -0.1951 -0.9808 -0.0000
vn -0.3214 -0.9469 -0.0000
vn -0.4423 -0.8969 -0.0000
vn -0.5556 -0.8315 -0.0000
vn -0.6593 -0.7518 -0.0000
vn -0.7518 -0.6593 -0.0000
vn -0.8315 -0.5556 -0.0000
vn -0.8969 -0.4423 -0.0000
vn -0.9469 -0.3214 -0.0000
vn -0.9808 -0.1951 -0.0000
vn -0.9979 -0.0654 -0.0000
vn -0.9979 0.0654 -0.0000
vn -0.9808 0.1951 -0.0000
vn -0.9469 0.3214 -0.0000
vn -0.8969 0.4423 -0.0000
vn -0.8315 0.5556 -0.0000
vn -0.7518 0.6593 -0.0000
vn -0.6593 0.7518 -0.0000
vn -0.5556 0.8315 -0.0000
vn -0.4423 0.8969 -0.0000
vn -0.3214 0.9469 -0.0000
vn -0.1951 0.9808 -0.0000
vn 0.1802 0.9057 0.3837
vn 0.1232 0.3627 0.9237
vn 0.1695 0.3436 0.9237
vn 0.5130 0.7678 0.3837
vn 0.2880 0.2526 0.9237
vn 0.7678 0.5131 0.3837
vn 0.3184 0.2128 0.9237
vn 0.8283 0.4084 0.3837
vn 0.3435 0.1694 0.9237
vn 0.3627 0.1231 0.9237
vn 0.3758 0.0747 0.9237
vn 0.3757 -0.0747 0.9237
vn 0.3628 -0.1231 0.9237
vn 0.3436 -0.1694 0.9237
vn 0.7678 -0.5130 0.3837
vn 0.3184 -0.2128 0.9237
vn 0.2881 -0.2526 0.9237
vn 0.5131 -0.7678 0.3837
vn 0.4085 -0.8282 0.3837
vn 0.1694 -0.3436 0.9237
vn 0.1231 -0.3627 0.9237
vn 0.1802 -0.9057 0.3837
vn -0.1802 -0.9057 0.3837
vn -0.1232 -0.3627 0.9237
vn -0.1695 -0.3436 0.9237
vn -0.5130 -0.7678 0.3837
vn -0.2880 -0.2526 0.9237
vn -0.7678 -0.5131 0.3837
vn -0.3184 -0.2128 0.9237
vn -0.8283 -0.4084 0.3837
vn -0.3435 -0.1694 0.9237
vn -0.3627 -0.1231 0.9237
vn -0.3758 -0.0747 0.9237
vn -0.3757 0.0747 0.9237
vn -0.3628 0.1231 0.9237
vn -0.3436 0.1694 0.9237
vn -0.7678 0.5130 0.3837
vn -0.3184 0.2128 0.9237
vn -0.2881 0.2526 0.9237
vn -0.5131 0.7678 0.3837
vn -0.4085 0.8282 0.3837
vn -0.1694 0.3436 0.9237
vn -0.1231 0.3627 0.9237
vn -0.1802 0.9057 0.3837
vn 0.0002 -0.0000 1.0000
vn -0.0002 -0.0000 1.0000
vn 0.0001 -0.0000 1.0000
vn -0.0001 -0.0000 1.0000
vt 0.028582 0.994892
vt 0.023007 0.997547
vt 0.022652 0.994892
vt 0.296454 0.057121
vt 0.298324 0.051004
vt 0.299061 0.056603
vt 0.022652 0.005108
vt 0.028797 0.002453
vt 0.028582 0.005108
vt 0.296454 0.153482
vt 0.300522 0.158418
vt 0.298006 0.159272
vt 0.034740 0.997547
vt 0.028797 0.997547
vt 0.295672 0.045183
vt 0.295672 0.051178
vt 0.034668 0.005108
vt 0.034740 0.002453
vt 0.302683 0.163635
vt 0.300300 0.164810
vt 0.040807 0.994892
vt 0.034668 0.994892
vt 0.296454 0.039240
vt 0.298324 0.045357
vt 0.040807 0.005108
vt 0.040735 0.002453
vt 0.303297 0.170002
vt 0.305506 0.168525
vt 0.046894 0.994892
vt 0.040735 0.997547
vt 0.298006 0.033450
vt 0.299061 0.039759
vt 0.046678 0.002453
vt 0.046894 0.005108
vt 0.306946 0.174757
vt 0.308944 0.173005
vt 0.052468 0.997547
vt 0.046678 0.997547
vt 0.302683 0.029088
vt 0.300522 0.034304
vt 0.052468 0.002453
vt 0.052823 0.005108
vt 0.312937 0.176998
vt 0.311185 0.178996
vt 0.058495 0.994892
vt 0.052823 0.994892
vt 0.303297 0.022721
vt 0.300300 0.027912
vt 0.058006 0.002453
vt 0.058495 0.005108
vt 0.315940 0.182645
vt 0.317417 0.180436
vt 0.063811 0.994892
vt 0.058006 0.997547
vt 0.308944 0.019717
vt 0.305506 0.024197
vt 0.063197 0.002453
vt 0.063811 0.005108
vt 0.322307 0.183259
vt 0.321132 0.185642
vt 0.068682 0.994892
vt 0.063197 0.997547
vt 0.311185 0.013727
vt 0.306946 0.017965
vt 0.068682 0.005108
vt 0.067953 0.002453
vt 0.327524 0.185420
vt 0.326670 0.187936
vt 0.073023 0.994892
vt 0.067953 0.997547
vt 0.317417 0.012287
vt 0.312937 0.015725
vt 0.072192 0.002453
vt 0.073023 0.005108
vt 0.332978 0.186881
vt 0.332460 0.189488
vt 0.153403 0.994892
vt 0.158888 0.997547
vt 0.154132 0.997547
vt 0.315940 0.010078
vt 0.322307 0.009464
vt 0.153403 0.005108
vt 0.158888 0.002453
vt 0.158274 0.005108
vt 0.338577 0.187618
vt 0.338403 0.190270
vt 0.158274 0.994892
vt 0.164079 0.997547
vt 0.326670 0.004787
vt 0.321132 0.007080
vt 0.163590 0.005108
vt 0.164079 0.002453
vt 0.344397 0.190270
vt 0.344223 0.187619
vt 0.169262 0.994892
vt 0.163590 0.994892
vt 0.332460 0.003235
vt 0.327524 0.007303
vt 0.169617 0.002453
vt 0.169262 0.005108
vt 0.350340 0.189488
vt 0.349822 0.186881
vt 0.175191 0.994892
vt 0.169617 0.997547
vt 0.338577 0.005104
vt 0.332978 0.005841
vt 0.175407 0.002453
vt 0.175191 0.005108
vt 0.355276 0.185420
vt 0.356130 0.187936
vt 0.181350 0.997547
vt 0.175407 0.997547
vt 0.344397 0.002453
vt 0.338403 0.002453
vt 0.181278 0.005108
vt 0.181350 0.002453
vt 0.360493 0.183259
vt 0.361668 0.185642
vt 0.187417 0.994892
vt 0.181278 0.994892
vt 0.350340 0.003235
vt 0.344223 0.005104
vt 0.187417 0.005108
vt 0.187344 0.002453
vt 0.366860 0.182645
vt 0.365383 0.180436
vt 0.193503 0.994892
vt 0.187344 0.997547
vt 0.356130 0.004787
vt 0.349822 0.005841
vt 0.193288 0.002453
vt 0.193503 0.005108
vt 0.371615 0.178996
vt 0.369863 0.176998
vt 0.199078 0.997547
vt 0.193288 0.997547
vt 0.360493 0.009464
vt 0.355276 0.007303
vt 0.199078 0.002453
vt 0.199433 0.005108
vt 0.373856 0.173005
vt 0.375854 0.174757
vt 0.205105 0.994892
vt 0.199433 0.994892
vt 0.366860 0.010078
vt 0.361668 0.007081
vt 0.204616 0.002453
vt 0.205105 0.005108
vt 0.379503 0.170002
vt 0.377294 0.168525
vt 0.210421 0.994892
vt 0.204616 0.997547
vt 0.369863 0.015725
vt 0.365383 0.012287
vt 0.209807 0.002453
vt 0.210421 0.005108
vt 0.380117 0.163635
vt 0.382500 0.164810
vt 0.215291 0.994892
vt 0.209807 0.997547
vt 0.375854 0.017965
vt 0.371615 0.013727
vt 0.215291 0.005108
vt 0.214563 0.002453
vt 0.382278 0.158418
vt 0.384794 0.159272
vt 0.219632 0.994892
vt 0.214563 0.997547
vt 0.377294 0.024197
vt 0.373856 0.019717
vt 0.218801 0.002453
vt 0.219632 0.005108
vt 0.383739 0.152964
vt 0.386346 0.153482
vt 0.082269 0.994892
vt 0.087753 0.997547
vt 0.082998 0.997547
vt 0.379503 0.022721
vt 0.380117 0.029088
vt 0.082269 0.005108
vt 0.087753 0.002453
vt 0.087139 0.005108
vt 0.384476 0.147365
vt 0.387128 0.147539
vt 0.087139 0.994892
vt 0.092945 0.997547
vt 0.384794 0.033450
vt 0.382500 0.027912
vt 0.092456 0.005108
vt 0.092945 0.002453
vt 0.387128 0.141545
vt 0.384476 0.141719
vt 0.098127 0.994892
vt 0.092456 0.994892
vt 0.386346 0.039240
vt 0.382278 0.034305
vt 0.098483 0.002453
vt 0.098127 0.005108
vt 0.386346 0.135602
vt 0.383739 0.136120
vt 0.104057 0.994892
vt 0.098483 0.997547
vt 0.384477 0.045357
vt 0.383739 0.039759
vt 0.104273 0.002453
vt 0.104057 0.005108
vt 0.382278 0.130666
vt 0.384794 0.129812
vt 0.110216 0.997547
vt 0.104273 0.997547
vt 0.387128 0.051178
vt 0.387128 0.045184
vt 0.110143 0.005108
vt 0.110216 0.002453
vt 0.380117 0.125449
vt 0.382500 0.124274
vt 0.116282 0.994892
vt 0.110143 0.994892
vt 0.386346 0.057121
vt 0.384477 0.051004
vt 0.116282 0.005108
vt 0.116210 0.002453
vt 0.379503 0.119082
vt 0.377294 0.120559
vt 0.122369 0.994892
vt 0.116210 0.997547
vt 0.384794 0.062911
vt 0.383739 0.056603
vt 0.122153 0.002453
vt 0.122369 0.005108
vt 0.375854 0.114327
vt 0.373856 0.116079
vt 0.127943 0.997547
vt 0.122153 0.997547
vt 0.380117 0.067274
vt 0.382278 0.062057
vt 0.127943 0.002453
vt 0.128299 0.005108
vt 0.369863 0.112086
vt 0.371615 0.110088
vt 0.133970 0.994892
vt 0.128299 0.994892
vt 0.379503 0.073640
vt 0.382500 0.068449
vt 0.133481 0.002453
vt 0.133970 0.005108
vt 0.366860 0.106439
vt 0.365383 0.108648
vt 0.139287 0.994892
vt 0.133481 0.997547
vt 0.373856 0.076644
vt 0.377294 0.072164
vt 0.138673 0.002453
vt 0.139287 0.005108
vt 0.360493 0.105825
vt 0.361668 0.103442
vt 0.144157 0.994892
vt 0.138673 0.997547
vt 0.371615 0.082635
vt 0.375854 0.078396
vt 0.144157 0.005108
vt 0.143428 0.002453
vt 0.355276 0.103664
vt 0.356130 0.101148
vt 0.148498 0.994892
vt 0.143428 0.997547
vt 0.365383 0.084074
vt 0.369863 0.080637
vt 0.147667 0.002453
vt 0.148498 0.005108
vt 0.349822 0.102203
vt 0.350340 0.099596
vt 0.224538 0.994892
vt 0.230022 0.997547
vt 0.225266 0.997547
vt 0.366860 0.086284
vt 0.360493 0.086898
vt 0.224538 0.005108
vt 0.230022 0.002453
vt 0.229408 0.005108
vt 0.344223 0.101466
vt 0.344397 0.098814
vt 0.229408 0.994892
vt 0.235213 0.997547
vt 0.356130 0.091575
vt 0.361668 0.089281
vt 0.234724 0.005108
vt 0.235213 0.002453
vt 0.338403 0.098814
vt 0.338577 0.101466
vt 0.240396 0.994892
vt 0.234724 0.994892
vt 0.350340 0.093126
vt 0.355276 0.089059
vt 0.240751 0.002453
vt 0.240396 0.005108
vt 0.332460 0.099596
vt 0.332978 0.102203
vt 0.246326 0.994892
vt 0.240751 0.997547
vt 0.344223 0.091257
vt 0.349822 0.090520
vt 0.246541 0.002453
vt 0.246326 0.005108
vt 0.327524 0.103664
vt 0.326670 0.101148
vt 0.252485 0.997547
vt 0.246541 0.997547
vt 0.338403 0.093909
vt 0.344397 0.093909
vt 0.252412 0.005108
vt 0.252485 0.002453
vt 0.322307 0.105825
vt 0.321132 0.103442
vt 0.258551 0.994892
vt 0.252412 0.994892
vt 0.332460 0.093126
vt 0.338577 0.091257
vt 0.258551 0.005108
vt 0.258479 0.002453
vt 0.315940 0.106439
vt 0.317417 0.108648
vt 0.264638 0.994892
vt 0.258479 0.997547
vt 0.326670 0.091575
vt 0.332978 0.090520
vt 0.264422 0.002453
vt 0.264638 0.005108
vt 0.311185 0.110088
vt 0.312937 0.112086
vt 0.270212 0.997547
vt 0.264422 0.997547
vt 0.322307 0.086898
vt 0.327524 0.089059
vt 0.270212 0.002453
vt 0.270567 0.005108
vt 0.308944 0.116079
vt 0.306946 0.114327
vt 0.276239 0.994892
vt 0.270567 0.994892
vt 0.315940 0.086284
vt 0.321132 0.089281
vt 0.275750 0.002453
vt 0.276239 0.005108
vt 0.303297 0.119082
vt 0.305506 0.120559
vt 0.281555 0.994892
vt 0.275750 0.997547
vt 0.312937 0.080637
vt 0.317417 0.084074
vt 0.280941 0.002453
vt 0.281555 0.005108
vt 0.302683 0.125449
vt 0.300300 0.124274
vt 0.286426 0.994892
vt 0.280941 0.997547
vt 0.306946 0.078396
vt 0.311185 0.082635
vt 0.286426 0.005108
vt 0.285697 0.002453
vt 0.300522 0.130666
vt 0.298006 0.129812
vt 0.290767 0.994892
vt 0.285697 0.997547
vt 0.305506 0.072164
vt 0.308944 0.076644
vt 0.289936 0.002453
vt 0.290767 0.005108
vt 0.299061 0.136120
vt 0.296454 0.135602
vt 0.006794 0.994892
vt 0.012278 0.997547
vt 0.007522 0.997547
vt 0.303297 0.073640
vt 0.302683 0.067274
vt 0.006794 0.005108
vt 0.012278 0.002453
vt 0.011664 0.005108
vt 0.298324 0.141719
vt 0.295672 0.141545
vt 0.011664 0.994892
vt 0.017469 0.997547
vt 0.298006 0.062911
vt 0.300300 0.068449
vt 0.016980 0.005108
vt 0.017469 0.002453
vt 0.295672 0.147539
vt 0.298324 0.147365
vt 0.016980 0.994892
vt 0.300522 0.062057
vt 0.023007 0.002453
vt 0.299061 0.152964
vt 0.077928 0.005108
vt 0.077928 0.994892
vt 0.002453 0.005108
vt 0.002453 0.994892
vt 0.072192 0.997547
vt 0.154132 0.002453
vt 0.218801 0.997547
vt 0.082998 0.002453
vt 0.147667 0.997547
vt 0.225266 0.002453
vt 0.289936 0.997547
vt 0.007522 0.002453
s 0
usemtl ARAT_light_maple
f 8/1/1 3/2/1 2/3/1
f 3/4/2 7/5/2 1/6/2
f 5/7/3 12/8/3 11/9/3
f 6/10/4 10/11/4 12/12/4
f 8/1/5 15/13/5 9/14/5
f 15/15/6 7/5/6 9/16/6
f 17/17/7 12/8/7 18/18/7
f 12/12/8 16/19/8 18/20/8
f 20/21/9 15/13/9 14/22/9
f 21/23/10 13/24/10 15/15/10
f 23/25/11 18/18/11 24/26/11
f 24/27/12 16/19/12 22/28/12
f 26/29/13 21/30/13 20/21/13
f 27/31/14 19/32/14 21/23/14
f 23/25/15 30/33/15 29/34/15
f 30/35/16 22/28/16 28/36/16
f 26/29/17 33/37/17 27/38/17
f 27/31/18 31/39/18 25/40/18
f 29/34/19 36/41/19 35/42/19
f 30/35/20 34/43/20 36/44/20
f 38/45/21 33/37/21 32/46/21
f 39/47/22 31/39/22 33/48/22
f 35/42/23 42/49/23 41/50/23
f 42/51/24 34/43/24 40/52/24
f 44/53/25 39/54/25 38/45/25
f 39/47/26 43/55/26 37/56/26
f 41/50/27 48/57/27 47/58/27
f 42/51/28 46/59/28 48/60/28
f 50/61/29 45/62/29 44/53/29
f 51/63/30 43/55/30 45/64/30
f 53/65/31 48/57/31 54/66/31
f 48/60/32 52/67/32 54/68/32
f 56/69/33 51/70/33 50/61/33
f 51/63/34 55/71/34 49/72/34
f 53/65/35 60/73/35 59/74/35
f 54/68/36 58/75/36 60/76/36
f 56/77/37 63/78/37 57/79/37
f 57/80/38 61/81/38 55/71/38
f 59/82/39 66/83/39 65/84/39
f 60/76/40 64/85/40 66/86/40
f 62/87/41 69/88/41 63/78/41
f 69/89/42 61/81/42 63/90/42
f 71/91/43 66/83/43 72/92/43
f 72/93/44 64/85/44 70/94/44
f 74/95/45 69/88/45 68/96/45
f 75/97/46 67/98/46 69/89/46
f 71/91/47 78/99/47 77/100/47
f 78/101/48 70/94/48 76/102/48
f 80/103/49 75/104/49 74/95/49
f 75/97/50 79/105/50 73/106/50
f 77/100/51 84/107/51 83/108/51
f 78/101/52 82/109/52 84/110/52
f 80/103/53 87/111/53 81/112/53
f 87/113/54 79/105/54 81/114/54
f 89/115/55 84/107/55 90/116/55
f 84/110/56 88/117/56 90/118/56
f 92/119/57 87/111/57 86/120/57
f 93/121/58 85/122/58 87/113/58
f 95/123/59 90/116/59 96/124/59
f 96/125/60 88/117/60 94/126/60
f 98/127/61 93/128/61 92/119/61
f 99/129/62 91/130/62 93/121/62
f 95/123/63 102/131/63 101/132/63
f 102/133/64 94/126/64 100/134/64
f 98/127/65 105/135/65 99/136/65
f 99/129/66 103/137/66 97/138/66
f 101/132/67 108/139/67 107/140/67
f 102/133/68 106/141/68 108/142/68
f 110/143/69 105/135/69 104/144/69
f 111/145/70 103/137/70 105/146/70
f 107/140/71 114/147/71 113/148/71
f 114/149/72 106/141/72 112/150/72
f 116/151/73 111/152/73 110/143/73
f 111/145/74 115/153/74 109/154/74
f 113/148/75 120/155/75 119/156/75
f 114/149/76 118/157/76 120/158/76
f 122/159/77 117/160/77 116/151/77
f 123/161/78 115/153/78 117/162/78
f 125/163/79 120/155/79 126/164/79
f 120/158/80 124/165/80 126/166/80
f 128/167/81 123/168/81 122/159/81
f 123/161/82 127/169/82 121/170/82
f 125/163/83 132/171/83 131/172/83
f 126/166/84 130/173/84 132/174/84
f 128/175/85 135/176/85 129/177/85
f 129/178/86 133/179/86 127/169/86
f 131/180/87 138/181/87 137/182/87
f 132/174/88 136/183/88 138/184/88
f 134/185/89 141/186/89 135/176/89
f 141/187/90 133/179/90 135/188/90
f 143/189/91 138/181/91 144/190/91
f 144/191/92 136/183/92 142/192/92
f 146/193/93 141/186/93 140/194/93
f 147/195/94 139/196/94 141/187/94
f 143/189/95 150/197/95 149/198/95
f 150/199/96 142/192/96 148/200/96
f 152/201/97 147/202/97 146/193/97
f 147/195/98 151/203/98 145/204/98
f 149/198/99 156/205/99 155/206/99
f 150/199/100 154/207/100 156/208/100
f 152/201/101 159/209/101 153/210/101
f 159/211/102 151/203/102 153/212/102
f 161/213/103 156/205/103 162/214/103
f 156/208/104 160/215/104 162/216/104
f 164/217/105 159/209/105 158/218/105
f 165/219/106 157/220/106 159/211/106
f 167/221/107 162/214/107 168/222/107
f 168/223/108 160/215/108 166/224/108
f 170/225/109 165/226/109 164/217/109
f 171/227/110 163/228/110 165/219/110
f 167/221/111 174/229/111 173/230/111
f 174/231/112 166/224/112 172/232/112
f 170/225/113 177/233/113 171/234/113
f 171/227/114 175/235/114 169/236/114
f 173/230/115 180/237/115 179/238/115
f 174/231/116 178/239/116 180/240/116
f 182/241/117 177/233/117 176/242/117
f 183/243/118 175/235/118 177/244/118
f 179/238/119 186/245/119 185/246/119
f 186/247/120 178/239/120 184/248/120
f 188/249/121 183/250/121 182/241/121
f 183/243/122 187/251/122 181/252/122
f 185/246/123 192/253/123 191/254/123
f 186/247/124 190/255/124 192/256/124
f 194/257/125 189/258/125 188/249/125
f 195/259/126 187/251/126 189/260/126
f 197/261/127 192/253/127 198/262/127
f 192/256/128 196/263/128 198/264/128
f 200/265/129 195/266/129 194/257/129
f 195/259/130 199/267/130 193/268/130
f 197/261/131 204/269/131 203/270/131
f 198/264/132 202/271/132 204/272/132
f 200/273/133 207/274/133 201/275/133
f 201/276/134 205/277/134 199/267/134
f 203/278/135 210/279/135 209/280/135
f 204/272/136 208/281/136 210/282/136
f 206/283/137 213/284/137 207/274/137
f 213/285/138 205/277/138 207/286/138
f 215/287/139 210/279/139 216/288/139
f 216/289/140 208/281/140 214/290/140
f 218/291/141 213/284/141 212/292/141
f 219/293/142 211/294/142 213/285/142
f 215/287/143 222/295/143 221/296/143
f 222/297/144 214/290/144 220/298/144
f 224/299/145 219/300/145 218/291/145
f 219/293/146 223/301/146 217/302/146
f 221/296/147 228/303/147 227/304/147
f 222/297/148 226/305/148 228/306/148
f 224/299/149 231/307/149 225/308/149
f 231/309/150 223/301/150 225/310/150
f 233/311/151 228/303/151 234/312/151
f 228/306/152 232/313/152 234/314/152
f 236/315/153 231/307/153 230/316/153
f 237/317/154 229/318/154 231/309/154
f 239/319/155 234/312/155 240/320/155
f 240/321/156 232/313/156 238/322/156
f 242/323/157 237/324/157 236/315/157
f 243/325/158 235/326/158 237/317/158
f 239/319/159 246/327/159 245/328/159
f 246/329/160 238/322/160 244/330/160
f 242/323/161 249/331/161 243/332/161
f 243/325/162 247/333/162 241/334/162
f 245/328/163 252/335/163 251/336/163
f 246/329/164 250/337/164 252/338/164
f 254/339/165 249/331/165 248/340/165
f 255/341/166 247/333/166 249/342/166
f 251/336/167 258/343/167 257/344/167
f 258/345/168 250/337/168 256/346/168
f 260/347/169 255/348/169 254/339/169
f 255/341/170 259/349/170 253/350/170
f 257/344/171 264/351/171 263/352/171
f 258/345/172 262/353/172 264/354/172
f 266/355/173 261/356/173 260/347/173
f 267/357/174 259/349/174 261/358/174
f 269/359/175 264/351/175 270/360/175
f 264/354/176 268/361/176 270/362/176
f 272/363/177 267/364/177 266/355/177
f 267/357/178 271/365/178 265/366/178
f 269/359/179 276/367/179 275/368/179
f 270/362/180 274/369/180 276/370/180
f 272/371/181 279/372/181 273/373/181
f 273/374/182 277/375/182 271/365/182
f 275/376/183 282/377/183 281/378/183
f 276/370/184 280/379/184 282/380/184
f 278/381/185 285/382/185 279/372/185
f 285/383/186 277/375/186 279/384/186
f 287/385/187 282/377/187 288/386/187
f 288/387/188 280/379/188 286/388/188
f 2/3/189 285/382/189 284/389/189
f 3/4/190 283/390/190 285/383/190
f 287/385/191 6/391/191 5/7/191
f 6/10/192 286/388/192 4/392/192
f 91/130/193 187/251/193 283/390/193
f 5/7/194 8/1/194 2/3/194
f 287/385/195 2/3/195 284/389/195
f 208/281/196 112/150/196 16/19/196
f 11/9/197 14/22/197 8/1/197
f 17/17/198 20/21/198 14/22/198
f 23/25/199 26/29/199 20/21/199
f 29/34/200 32/46/200 26/29/200
f 35/42/201 38/45/201 32/46/201
f 41/50/202 44/53/202 38/45/202
f 47/58/203 50/61/203 44/53/203
f 53/65/204 56/69/204 50/61/204
f 59/82/205 62/87/205 56/77/205
f 65/84/206 68/96/206 62/87/206
f 71/91/207 74/95/207 68/96/207
f 77/100/208 80/103/208 74/95/208
f 83/108/209 86/120/209 80/103/209
f 89/115/210 92/119/210 86/120/210
f 95/123/211 98/127/211 92/119/211
f 101/132/212 104/144/212 98/127/212
f 107/140/213 110/143/213 104/144/213
f 113/148/214 116/151/214 110/143/214
f 119/156/215 122/159/215 116/151/215
f 125/393/216 128/175/216 122/394/216
f 131/180/217 134/185/217 128/175/217
f 137/182/218 140/194/218 134/185/218
f 143/189/219 146/193/219 140/194/219
f 149/198/220 152/201/220 146/193/220
f 155/206/221 158/218/221 152/201/221
f 161/213/222 164/217/222 158/218/222
f 167/221/223 170/225/223 164/217/223
f 173/230/224 176/242/224 170/225/224
f 179/238/225 182/241/225 176/242/225
f 185/246/226 188/249/226 182/241/226
f 191/254/227 194/257/227 188/249/227
f 197/261/228 200/265/228 194/257/228
f 203/278/229 206/283/229 200/273/229
f 209/280/230 212/292/230 206/283/230
f 215/287/231 218/291/231 212/292/231
f 221/296/232 224/299/232 218/291/232
f 227/304/233 230/316/233 224/299/233
f 233/311/234 236/315/234 230/316/234
f 239/319/235 242/323/235 236/315/235
f 245/328/236 248/340/236 242/323/236
f 251/336/237 254/339/237 248/340/237
f 257/344/238 260/347/238 254/339/238
f 263/352/239 266/355/239 260/347/239
f 269/395/240 272/371/240 266/396/240
f 275/376/241 278/381/241 272/371/241
f 281/378/242 284/389/242 278/381/242
f 8/1/1 9/14/1 3/2/1
f 3/4/2 9/16/2 7/5/2
f 5/7/3 6/391/3 12/8/3
f 6/10/4 4/392/4 10/11/4
f 8/1/5 14/22/5 15/13/5
f 15/15/6 13/24/6 7/5/6
f 17/17/243 11/9/243 12/8/243
f 12/12/8 10/11/8 16/19/8
f 20/21/9 21/30/9 15/13/9
f 21/23/10 19/32/10 13/24/10
f 23/25/11 17/17/11 18/18/11
f 24/27/244 18/20/244 16/19/244
f 26/29/13 27/38/13 21/30/13
f 27/31/14 25/40/14 19/32/14
f 23/25/15 24/26/15 30/33/15
f 30/35/245 24/27/245 22/28/245
f 26/29/17 32/46/17 33/37/17
f 27/31/18 33/48/18 31/39/18
f 29/34/246 30/33/246 36/41/246
f 30/35/20 28/36/20 34/43/20
f 38/45/21 39/54/21 33/37/21
f 39/47/22 37/56/22 31/39/22
f 35/42/23 36/41/23 42/49/23
f 42/51/24 36/44/24 34/43/24
f 44/53/25 45/62/25 39/54/25
f 39/47/26 45/64/26 43/55/26
f 41/50/27 42/49/27 48/57/27
f 42/51/247 40/52/247 46/59/247
f 50/61/29 51/70/29 45/62/29
f 51/63/30 49/72/30 43/55/30
f 53/65/248 47/58/248 48/57/248
f 48/60/249 46/59/249 52/67/249
f 56/69/33 57/397/33 51/70/33
f 51/63/34 57/80/34 55/71/34
f 53/65/250 54/66/250 60/73/250
f 54/68/251 52/67/251 58/75/251
f 56/77/37 62/87/37 63/78/37
f 57/80/38 63/90/38 61/81/38
f 59/82/39 60/398/39 66/83/39
f 60/76/252 58/75/252 64/85/252
f 62/87/41 68/96/41 69/88/41
f 69/89/42 67/98/42 61/81/42
f 71/91/43 65/84/43 66/83/43
f 72/93/253 66/86/253 64/85/253
f 74/95/45 75/104/45 69/88/45
f 75/97/46 73/106/46 67/98/46
f 71/91/47 72/92/47 78/99/47
f 78/101/48 72/93/48 70/94/48
f 80/103/49 81/112/49 75/104/49
f 75/97/50 81/114/50 79/105/50
f 77/100/51 78/99/51 84/107/51
f 78/101/52 76/102/52 82/109/52
f 80/103/53 86/120/53 87/111/53
f 87/113/54 85/122/54 79/105/54
f 89/115/55 83/108/55 84/107/55
f 84/110/254 82/109/254 88/117/254
f 92/119/57 93/128/57 87/111/57
f 93/121/58 91/130/58 85/122/58
f 95/123/59 89/115/59 90/116/59
f 96/125/255 90/118/255 88/117/255
f 98/127/61 99/136/61 93/128/61
f 99/129/62 97/138/62 91/130/62
f 95/123/63 96/124/63 102/131/63
f 102/133/256 96/125/256 94/126/256
f 98/127/65 104/144/65 105/135/65
f 99/129/66 105/146/66 103/137/66
f 101/132/257 102/131/257 108/139/257
f 102/133/258 100/134/258 106/141/258
f 110/143/69 111/152/69 105/135/69
f 111/145/70 109/154/70 103/137/70
f 107/140/71 108/139/71 114/147/71
f 114/149/259 108/142/259 106/141/259
f 116/151/73 117/160/73 111/152/73
f 111/145/74 117/162/74 115/153/74
f 113/148/75 114/147/75 120/155/75
f 114/149/76 112/150/76 118/157/76
f 122/159/77 123/168/77 117/160/77
f 123/161/78 121/170/78 115/153/78
f 125/163/260 119/156/260 120/155/260
f 120/158/80 118/157/80 124/165/80
f 128/167/81 129/399/81 123/168/81
f 123/161/82 129/178/82 127/169/82
f 125/163/261 126/164/261 132/171/261
f 126/166/262 124/165/262 130/173/262
f 128/175/85 134/185/85 135/176/85
f 129/178/86 135/188/86 133/179/86
f 131/180/87 132/400/87 138/181/87
f 132/174/263 130/173/263 136/183/263
f 134/185/89 140/194/89 141/186/89
f 141/187/90 139/196/90 133/179/90
f 143/189/264 137/182/264 138/181/264
f 144/191/92 138/184/92 136/183/92
f 146/193/93 147/202/93 141/186/93
f 147/195/94 145/204/94 139/196/94
f 143/189/95 144/190/95 150/197/95
f 150/199/96 144/191/96 142/192/96
f 152/201/97 153/210/97 147/202/97
f 147/195/98 153/212/98 151/203/98
f 149/198/99 150/197/99 156/205/99
f 150/199/100 148/200/100 154/207/100
f 152/201/101 158/218/101 159/209/101
f 159/211/102 157/220/102 151/203/102
f 161/213/265 155/206/265 156/205/265
f 156/208/104 154/207/104 160/215/104
f 164/217/105 165/226/105 159/209/105
f 165/219/106 163/228/106 157/220/106
f 167/221/107 161/213/107 162/214/107
f 168/223/266 162/216/266 160/215/266
f 170/225/109 171/234/109 165/226/109
f 171/227/110 169/236/110 163/228/110
f 167/221/111 168/222/111 174/229/111
f 174/231/267 168/223/267 166/224/267
f 170/225/113 176/242/113 177/233/113
f 171/227/114 177/244/114 175/235/114
f 173/230/268 174/229/268 180/237/268
f 174/231/116 172/232/116 178/239/116
f 182/241/117 183/250/117 177/233/117
f 183/243/118 181/252/118 175/235/118
f 179/238/119 180/237/119 186/245/119
f 186/247/120 180/240/120 178/239/120
f 188/249/121 189/258/121 183/250/121
f 183/243/122 189/260/122 187/251/122
f 185/246/123 186/245/123 192/253/123
f 186/247/269 184/248/269 190/255/269
f 194/257/125 195/266/125 189/258/125
f 195/259/126 193/268/126 187/251/126
f 197/261/270 191/254/270 192/253/270
f 192/256/271 190/255/271 196/263/271
f 200/265/129 201/401/129 195/266/129
f 195/259/130 201/276/130 199/267/130
f 197/261/272 198/262/272 204/269/272
f 198/264/273 196/263/273 202/271/273
f 200/273/133 206/283/133 207/274/133
f 201/276/134 207/286/134 205/277/134
f 203/278/135 204/402/135 210/279/135
f 204/272/274 202/271/274 208/281/274
f 206/283/137 212/292/137 213/284/137
f 213/285/138 211/294/138 205/277/138
f 215/287/139 209/280/139 210/279/139
f 216/289/275 210/282/275 208/281/275
f 218/291/141 219/300/141 213/284/141
f 219/293/142 217/302/142 211/294/142
f 215/287/143 216/288/143 222/295/143
f 222/297/144 216/289/144 214/290/144
f 224/299/145 225/308/145 219/300/145
f 219/293/146 225/310/146 223/301/146
f 221/296/147 222/295/147 228/303/147
f 222/297/148 220/298/148 226/305/148
f 224/299/149 230/316/149 231/307/149
f 231/309/150 229/318/150 223/301/150
f 233/311/151 227/304/151 228/303/151
f 228/306/276 226/305/276 232/313/276
f 236/315/153 237/324/153 231/307/153
f 237/317/154 235/326/154 229/318/154
f 239/319/155 233/311/155 234/312/155
f 240/321/277 234/314/277 232/313/277
f 242/323/157 243/332/157 237/324/157
f 243/325/158 241/334/158 235/326/158
f 239/319/159 240/320/159 246/327/159
f 246/329/278 240/321/278 238/322/278
f 242/323/161 248/340/161 249/331/161
f 243/325/162 249/342/162 247/333/162
f 245/328/279 246/327/279 252/335/279
f 246/329/280 244/330/280 250/337/280
f 254/339/165 255/348/165 249/331/165
f 255/341/166 253/350/166 247/333/166
f 251/336/167 252/335/167 258/343/167
f 258/345/281 252/338/281 250/337/281
f 260/347/169 261/356/169 255/348/169
f 255/341/170 261/358/170 259/349/170
f 257/344/171 258/343/171 264/351/171
f 258/345/172 256/346/172 262/353/172
f 266/355/173 267/364/173 261/356/173
f 267/357/174 265/366/174 259/349/174
f 269/359/282 263/352/282 264/351/282
f 264/354/176 262/353/176 268/361/176
f 272/363/177 273/403/177 267/364/177
f 267/357/178 273/374/178 271/365/178
f 269/359/283 270/360/283 276/367/283
f 270/362/284 268/361/284 274/369/284
f 272/371/181 278/381/181 279/372/181
f 273/374/182 279/384/182 277/375/182
f 275/376/183 276/404/183 282/377/183
f 276/370/285 274/369/285 280/379/285
f 278/381/185 284/389/185 285/382/185
f 285/383/186 283/390/186 277/375/186
f 287/385/286 281/378/286 282/377/286
f 288/387/188 282/380/188 280/379/188
f 2/3/189 3/2/189 285/382/189
f 3/4/190 1/6/190 283/390/190
f 287/385/191 288/386/191 6/391/191
f 6/10/192 288/387/192 286/388/192
f 283/390/193 1/6/193 7/5/193
f 7/5/193 13/24/193 19/32/193
f 19/32/193 25/40/193 31/39/193
f 31/39/193 37/56/193 43/55/193
f 43/55/193 49/72/193 55/71/193
f 55/71/193 61/81/193 67/98/193
f 67/98/193 73/106/193 79/105/193
f 79/105/193 85/122/193 91/130/193
f 91/130/193 97/138/193 103/137/193
f 103/137/193 109/154/193 115/153/193
f 115/153/193 121/170/193 127/169/193
f 127/169/193 133/179/193 139/196/193
f 139/196/193 145/204/193 151/203/193
f 151/203/193 157/220/193 163/228/193
f 163/228/193 169/236/193 175/235/193
f 175/235/193 181/252/193 187/251/193
f 187/251/193 193/268/193 199/267/193
f 199/267/193 205/277/193 211/294/193
f 211/294/193 217/302/193 223/301/193
f 223/301/193 229/318/193 235/326/193
f 235/326/193 241/334/193 247/333/193
f 247/333/193 253/350/193 259/349/193
f 259/349/193 265/366/193 271/365/193
f 271/365/193 277/375/193 283/390/193
f 283/390/193 7/5/193 19/32/193
f 19/32/193 31/39/193 43/55/193
f 43/55/193 55/71/193 67/98/193
f 67/98/193 79/105/193 91/130/193
f 91/130/193 103/137/193 115/153/193
f 115/153/193 127/169/193 139/196/193
f 139/196/193 151/203/193 163/228/193
f 163/228/193 175/235/193 187/251/193
f 187/251/193 199/267/193 211/294/193
f 211/294/193 223/301/193 235/326/193
f 235/326/193 247/333/193 259/349/193
f 259/349/193 271/365/193 283/390/193
f 283/390/193 19/32/193 43/55/193
f 43/55/193 67/98/193 91/130/193
f 91/130/193 115/153/193 139/196/193
f 139/196/193 163/228/193 187/251/193
f 187/251/193 211/294/193 235/326/193
f 235/326/193 259/349/193 283/390/193
f 283/390/193 43/55/193 91/130/193
f 91/130/193 139/196/193 187/251/193
f 187/251/193 235/326/193 283/390/193
f 5/7/194 11/9/194 8/1/194
f 287/385/195 5/7/195 2/3/195
f 16/19/196 10/11/196 4/392/196
f 4/392/196 286/388/196 280/379/196
f 280/379/196 274/369/196 268/361/196
f 268/361/196 262/353/196 256/346/196
f 256/346/196 250/337/196 244/330/196
f 244/330/287 238/322/287 232/313/287
f 232/313/288 226/305/288 220/298/288
f 220/298/288 214/290/288 208/281/288
f 208/281/287 202/271/287 196/263/287
f 196/263/196 190/255/196 184/248/196
f 184/248/196 178/239/196 172/232/196
f 172/232/289 166/224/289 160/215/289
f 160/215/196 154/207/196 148/200/196
f 148/200/196 142/192/196 136/183/196
f 136/183/196 130/173/196 124/165/196
f 124/165/196 118/157/196 112/150/196
f 112/150/196 106/141/196 100/134/196
f 100/134/288 94/126/288 88/117/288
f 88/117/287 82/109/287 76/102/287
f 76/102/287 70/94/287 64/85/287
f 64/85/288 58/75/288 52/67/288
f 52/67/196 46/59/196 40/52/196
f 40/52/196 34/43/196 28/36/196
f 28/36/290 22/28/290 16/19/290
f 16/19/196 4/392/196 280/379/196
f 280/379/196 268/361/196 256/346/196
f 256/346/196 244/330/196 232/313/196
f 232/313/196 220/298/196 208/281/196
f 208/281/196 196/263/196 184/248/196
f 184/248/196 172/232/196 160/215/196
f 160/215/196 148/200/196 136/183/196
f 136/183/196 124/165/196 112/150/196
f 112/150/196 100/134/196 88/117/196
f 88/117/196 76/102/196 64/85/196
f 64/85/196 52/67/196 40/52/196
f 40/52/196 28/36/196 16/19/196
f 16/19/196 280/379/196 256/346/196
f 256/346/196 232/313/196 208/281/196
f 208/281/196 184/248/196 160/215/196
f 160/215/196 136/183/196 112/150/196
f 112/150/196 88/117/196 64/85/196
f 64/85/196 40/52/196 16/19/196
f 16/19/196 256/346/196 208/281/196
f 208/281/196 160/215/196 112/150/196
f 112/150/196 64/85/196 16/19/196
f 11/9/197 17/17/197 14/22/197
f 17/17/198 23/25/198 20/21/198
f 23/25/199 29/34/199 26/29/199
f 29/34/200 35/42/200 32/46/200
f 35/42/201 41/50/201 38/45/201
f 41/50/202 47/58/202 44/53/202
f 47/58/203 53/65/203 50/61/203
f 53/65/204 59/74/204 56/69/204
f 59/82/205 65/84/205 62/87/205
f 65/84/206 71/91/206 68/96/206
f 71/91/207 77/100/207 74/95/207
f 77/100/208 83/108/208 80/103/208
f 83/108/209 89/115/209 86/120/209
f 89/115/210 95/123/210 92/119/210
f 95/123/211 101/132/211 98/127/211
f 101/132/212 107/140/212 104/144/212
f 107/140/213 113/148/213 110/143/213
f 113/148/214 119/156/214 116/151/214
f 119/156/215 125/163/215 122/159/215
f 125/393/216 131/180/216 128/175/216
f 131/180/217 137/182/217 134/185/217
f 137/182/218 143/189/218 140/194/218
f 143/189/219 149/198/219 146/193/219
f 149/198/220 155/206/220 152/201/220
f 155/206/221 161/213/221 158/218/221
f 161/213/222 167/221/222 164/217/222
f 167/221/223 173/230/223 170/225/223
f 173/230/224 179/238/224 176/242/224
f 179/238/225 185/246/225 182/241/225
f 185/246/226 191/254/226 188/249/226
f 191/254/227 197/261/227 194/257/227
f 197/261/228 203/270/228 200/265/228
f 203/278/229 209/280/229 206/283/229
f 209/280/230 215/287/230 212/292/230
f 215/287/231 221/296/231 218/291/231
f 221/296/232 227/304/232 224/299/232
f 227/304/233 233/311/233 230/316/233
f 233/311/234 239/319/234 236/315/234
f 239/319/235 245/328/235 242/323/235
f 245/328/236 251/336/236 248/340/236
f 251/336/237 257/344/237 254/339/237
f 257/344/238 263/352/238 260/347/238
f 263/352/239 269/359/239 266/355/239
f 269/395/240 275/376/240 272/371/240
f 275/376/241 281/378/241 278/381/241
f 281/378/242 287/385/242 284/389/242
