# Blender 4.5.11 LTS
# www.blender.org
mtllib visual.mtl
o washer_target_fixture
v -0.041300 -0.041300 0.000000
v -0.041300 -0.042500 0.001200
v -0.042500 -0.041300 0.001200
v -0.041300 -0.041899 0.000160
v -0.041899 -0.041300 0.000160
v -0.041874 -0.041874 0.000316
v -0.041899 -0.042340 0.001200
v -0.041300 -0.042340 0.000601
v -0.041874 -0.042184 0.000626
v -0.042340 -0.041300 0.000601
v -0.042340 -0.041899 0.001200
v -0.042184 -0.041874 0.000626
v -0.041300 -0.042500 0.013800
v -0.041300 -0.041300 0.015000
v -0.042500 -0.041300 0.013800
v -0.041300 -0.042340 0.014399
v -0.041899 -0.042340 0.013800
v -0.041874 -0.042184 0.014374
v -0.041899 -0.041300 0.014840
v -0.041300 -0.041899 0.014840
v -0.041874 -0.041874 0.014684
v -0.042340 -0.041899 0.013800
v -0.042340 -0.041300 0.014399
v -0.042184 -0.041874 0.014374
v -0.041300 0.041300 0.000000
v -0.042500 0.041300 0.001200
v -0.041300 0.042500 0.001200
v -0.041899 0.041300 0.000160
v -0.041300 0.041899 0.000160
v -0.041874 0.041874 0.000316
v -0.042340 0.041899 0.001200
v -0.042340 0.041300 0.000601
v -0.042184 0.041874 0.000626
v -0.041300 0.042340 0.000601
v -0.041899 0.042340 0.001200
v -0.041874 0.042184 0.000626
v -0.041300 0.041300 0.015000
v -0.041300 0.042500 0.013800
v -0.042500 0.041300 0.013800
v -0.041300 0.041899 0.014840
v -0.041899 0.041300 0.014840
v -0.041874 0.041874 0.014684
v -0.041899 0.042340 0.013800
v -0.041300 0.042340 0.014399
v -0.041874 0.042184 0.014374
v -0.042340 0.041300 0.014399
v -0.042340 0.041899 0.013800
v -0.042184 0.041874 0.014374
v 0.041300 -0.041300 0.000000
v 0.042500 -0.041300 0.001200
v 0.041300 -0.042500 0.001200
v 0.041899 -0.041300 0.000160
v 0.041300 -0.041899 0.000160
v 0.041874 -0.041874 0.000316
v 0.042340 -0.041899 0.001200
v 0.042340 -0.041300 0.000601
v 0.042184 -0.041874 0.000626
v 0.041300 -0.042340 0.000601
v 0.041899 -0.042340 0.001200
v 0.041874 -0.042184 0.000626
v 0.041300 -0.041300 0.015000
v 0.041300 -0.042500 0.013800
v 0.042500 -0.041300 0.013800
v 0.041300 -0.041899 0.014840
v 0.041899 -0.041300 0.014840
v 0.041874 -0.041874 0.014684
v 0.041899 -0.042340 0.013800
v 0.041300 -0.042340 0.014399
v 0.041874 -0.042184 0.014374
v 0.042340 -0.041300 0.014399
v 0.042340 -0.041899 0.013800
v 0.042184 -0.041874 0.014374
v 0.041300 0.041300 0.000000
v 0.041300 0.042500 0.001200
v 0.042500 0.041300 0.001200
v 0.041300 0.041899 0.000160
v 0.041899 0.041300 0.000160
v 0.041874 0.041874 0.000316
v 0.041899 0.042340 0.001200
v 0.041300 0.042340 0.000601
v 0.041874 0.042184 0.000626
v 0.042340 0.041300 0.000601
v 0.042340 0.041899 0.001200
v 0.042184 0.041874 0.000626
v 0.041300 0.041300 0.015000
v 0.042500 0.041300 0.013800
v 0.041300 0.042500 0.013800
v 0.041899 0.041300 0.014840
v 0.041300 0.041899 0.014840
v 0.041874 0.041874 0.014684
v 0.042340 0.041899 0.013800
v 0.042340 0.041300 0.014399
v 0.042184 0.041874 0.014374
v 0.041300 0.042340 0.014399
v 0.041899 0.042340 0.013800
v 0.041874 0.042184 0.014374
v 0.000000 0.003679 0.015000
v 0.000000 0.004000 0.015320
v -0.000000 0.003906 0.015094
v -0.000000 0.003679 0.100000
v 0.000000 0.004000 0.099680
v 0.000000 0.003906 0.099906
v 0.000480 0.003648 0.015000
v 0.000522 0.003966 0.015320
v 0.000510 0.003872 0.015094
v 0.000480 0.003648 0.100000
v 0.000522 0.003966 0.099680
v 0.000510 0.003872 0.099906
v 0.000952 0.003554 0.015000
v 0.001035 0.003864 0.015320
v 0.001011 0.003773 0.015094
v 0.000952 0.003554 0.100000
v 0.001035 0.003864 0.099680
v 0.001011 0.003773 0.099906
v 0.001408 0.003399 0.015000
v 0.001531 0.003696 0.015320
v 0.001495 0.003608 0.015094
v 0.001408 0.003399 0.100000
v 0.001531 0.003696 0.099680
v 0.001495 0.003608 0.099906
v 0.001840 0.003186 0.015000
v 0.002000 0.003464 0.015320
v 0.001953 0.003383 0.015094
v 0.001840 0.003186 0.100000
v 0.002000 0.003464 0.099680
v 0.001953 0.003383 0.099906
v 0.002240 0.002919 0.015000
v 0.002435 0.003173 0.015320
v 0.002378 0.003099 0.015094
v 0.002240 0.002919 0.100000
v 0.002435 0.003173 0.099680
v 0.002378 0.003099 0.099906
v 0.002602 0.002602 0.015000
v 0.002828 0.002828 0.015320
v 0.002762 0.002762 0.015094
v 0.002602 0.002602 0.100000
v 0.002828 0.002828 0.099680
v 0.002762 0.002762 0.099906
v 0.002919 0.002240 0.015000
v 0.003173 0.002435 0.015320
v 0.003099 0.002378 0.015094
v 0.002919 0.002240 0.100000
v 0.003173 0.002435 0.099680
v 0.003099 0.002378 0.099906
v 0.003186 0.001840 0.015000
v 0.003464 0.002000 0.015320
v 0.003383 0.001953 0.015094
v 0.003186 0.001840 0.100000
v 0.003464 0.002000 0.099680
v 0.003383 0.001953 0.099906
v 0.003399 0.001408 0.015000
v 0.003696 0.001531 0.015320
v 0.003608 0.001495 0.015094
v 0.003399 0.001408 0.100000
v 0.003696 0.001531 0.099680
v 0.003608 0.001495 0.099906
v 0.003554 0.000952 0.015000
v 0.003864 0.001035 0.015320
v 0.003773 0.001011 0.015094
v 0.003554 0.000952 0.100000
v 0.003864 0.001035 0.099680
v 0.003773 0.001011 0.099906
v 0.003648 0.000480 0.015000
v 0.003966 0.000522 0.015320
v 0.003872 0.000510 0.015094
v 0.003648 0.000480 0.100000
v 0.003966 0.000522 0.099680
v 0.003872 0.000510 0.099906
v 0.003679 -0.000000 0.015000
v 0.004000 0.000000 0.015320
v 0.003906 0.000000 0.015094
v 0.003679 0.000000 0.100000
v 0.004000 0.000000 0.099680
v 0.003906 -0.000000 0.099906
v 0.003648 -0.000480 0.015000
v 0.003966 -0.000522 0.015320
v 0.003872 -0.000510 0.015094
v 0.003648 -0.000480 0.100000
v 0.003966 -0.000522 0.099680
v 0.003872 -0.000510 0.099906
v 0.003554 -0.000952 0.015000
v 0.003864 -0.001035 0.015320
v 0.003773 -0.001011 0.015094
v 0.003554 -0.000952 0.100000
v 0.003864 -0.001035 0.099680
v 0.003773 -0.001011 0.099906
v 0.003399 -0.001408 0.015000
v 0.003696 -0.001531 0.015320
v 0.003608 -0.001495 0.015094
v 0.003399 -0.001408 0.100000
v 0.003696 -0.001531 0.099680
v 0.003608 -0.001495 0.099906
v 0.003186 -0.001840 0.015000
v 0.003464 -0.002000 0.015320
v 0.003383 -0.001953 0.015094
v 0.003186 -0.001840 0.100000
v 0.003464 -0.002000 0.099680
v 0.003383 -0.001953 0.099906
v 0.002919 -0.002240 0.015000
v 0.003173 -0.002435 0.015320
v 0.003099 -0.002378 0.015094
v 0.002919 -0.002240 0.100000
v 0.003173 -0.002435 0.099680
v 0.003099 -0.002378 0.099906
v 0.002602 -0.002602 0.015000
v 0.002828 -0.002828 0.015320
v 0.002762 -0.002762 0.015094
v 0.002602 -0.002602 0.100000
v 0.002828 -0.002828 0.099680
v 0.002762 -0.002762 0.099906
v 0.002240 -0.002919 0.015000
v 0.002435 -0.003173 0.015320
v 0.002378 -0.003099 0.015094
v 0.002240 -0.002919 0.100000
v 0.002435 -0.003173 0.099680
v 0.002378 -0.003099 0.099906
v 0.001840 -0.003186 0.015000
v 0.002000 -0.003464 0.015320
v 0.001953 -0.003383 0.015094
v 0.001840 -0.003186 0.100000
v 0.002000 -0.003464 0.099680
v 0.001953 -0.003383 0.099906
v 0.001408 -0.003399 0.015000
v 0.001531 -0.003696 0.015320
v 0.001495 -0.003608 0.015094
v 0.001408 -0.003399 0.100000
v 0.001531 -0.003696 0.099680
v 0.001495 -0.003608 0.099906
v 0.000952 -0.003554 0.015000
v 0.001035 -0.003864 0.015320
v 0.001011 -0.003773 0.015094
v 0.000952 -0.003554 0.100000
v 0.001035 -0.003864 0.099680
v 0.001011 -0.003773 0.099906
v 0.000480 -0.003648 0.015000
v 0.000522 -0.003966 0.015320
v 0.000510 -0.003872 0.015094
v 0.000480 -0.003648 0.100000
v 0.000522 -0.003966 0.099680
v 0.000510 -0.003872 0.099906
v -0.000000 -0.003679 0.015000
v 0.000000 -0.004000 0.015320
v 0.000000 -0.003906 0.015094
v 0.000000 -0.003679 0.100000
v 0.000000 -0.004000 0.099680
v -0.000000 -0.003906 0.099906
v -0.000480 -0.003648 0.015000
v -0.000522 -0.003966 0.015320
v -0.000510 -0.003872 0.015094
v -0.000480 -0.003648 0.100000
v -0.000522 -0.003966 0.099680
v -0.000510 -0.003872 0.099906
v -0.000952 -0.003554 0.015000
v -0.001035 -0.003864 0.015320
v -0.001011 -0.003773 0.015094
v -0.000952 -0.003554 0.100000
v -0.001035 -0.003864 0.099680
v -0.001011 -0.003773 0.099906
v -0.001408 -0.003399 0.015000
v -0.001531 -0.003696 0.015320
v -0.001495 -0.003608 0.015094
v -0.001408 -0.003399 0.100000
v -0.001531 -0.003696 0.099680
v -0.001495 -0.003608 0.099906
v -0.001840 -0.003186 0.015000
v -0.002000 -0.003464 0.015320
v -0.001953 -0.003383 0.015094
v -0.001840 -0.003186 0.100000
v -0.002000 -0.003464 0.099680
v -0.001953 -0.003383 0.099906
v -0.002240 -0.002919 0.015000
v -0.002435 -0.003173 0.015320
v -0.002378 -0.003099 0.015094
v -0.002240 -0.002919 0.100000
v -0.002435 -0.003173 0.099680
v -0.002378 -0.003099 0.099906
v -0.002602 -0.002602 0.015000
v -0.002828 -0.002828 0.015320
v -0.002762 -0.002762 0.015094
v -0.002602 -0.002602 0.100000
v -0.002828 -0.002828 0.099680
v -0.002762 -0.002762 0.099906
v -0.002919 -0.002240 0.015000
v -0.003173 -0.002435 0.015320
v -0.003099 -0.002378 0.015094
v -0.002919 -0.002240 0.100000
v -0.003173 -0.002435 0.099680
v -0.003099 -0.002378 0.099906
v -0.003186 -0.001840 0.015000
v -0.003464 -0.002000 0.015320
v -0.003383 -0.001953 0.015094
v -0.003186 -0.001840 0.100000
v -0.003464 -0.002000 0.099680
v -0.003383 -0.001953 0.099906
v -0.003399 -0.001408 0.015000
v -0.003696 -0.001531 0.015320
v -0.003608 -0.001495 0.015094
v -0.003399 -0.001408 0.100000
v -0.003696 -0.001531 0.099680
v -0.003608 -0.001495 0.099906
v -0.003554 -0.000952 0.015000
v -0.003864 -0.001035 0.015320
v -0.003773 -0.001011 0.015094
v -0.003554 -0.000952 0.100000
v -0.003864 -0.001035 0.099680
v -0.003773 -0.001011 0.099906
v -0.003648 -0.000480 0.015000
v -0.003966 -0.000522 0.015320
v -0.003872 -0.000510 0.015094
v -0.003648 -0.000480 0.100000
v -0.003966 -0.000522 0.099680
v -0.003872 -0.000510 0.099906
v -0.003679 0.000000 0.015000
v -0.004000 0.000000 0.015320
v -0.003906 -0.000000 0.015094
v -0.003679 -0.000000 0.100000
v -0.004000 0.000000 0.099680
v -0.003906 0.000000 0.099906
v -0.003648 0.000480 0.015000
v -0.003966 0.000522 0.015320
v -0.003872 0.000510 0.015094
v -0.003648 0.000480 0.100000
v -0.003966 0.000522 0.099680
v -0.003872 0.000510 0.099906
v -0.003554 0.000952 0.015000
v -0.003864 0.001035 0.015320
v -0.003773 0.001011 0.015094
v -0.003554 0.000952 0.100000
v -0.003864 0.001035 0.099680
v -0.003773 0.001011 0.099906
v -0.003399 0.001408 0.015000
v -0.003696 0.001531 0.015320
v -0.003608 0.001495 0.015094
v -0.003399 0.001408 0.100000
v -0.003696 0.001531 0.099680
v -0.003608 0.001495 0.099906
v -0.003186 0.001840 0.015000
v -0.003464 0.002000 0.015320
v -0.003383 0.001953 0.015094
v -0.003186 0.001840 0.100000
v -0.003464 0.002000 0.099680
v -0.003383 0.001953 0.099906
v -0.002919 0.002240 0.015000
v -0.003173 0.002435 0.015320
v -0.003099 0.002378 0.015094
v -0.002919 0.002240 0.100000
v -0.003173 0.002435 0.099680
v -0.003099 0.002378 0.099906
v -0.002602 0.002602 0.015000
v -0.002828 0.002828 0.015320
v -0.002762 0.002762 0.015094
v -0.002602 0.002602 0.100000
v -0.002828 0.002828 0.099680
v -0.002762 0.002762 0.099906
v -0.002240 0.002919 0.015000
v -0.002435 0.003173 0.015320
v -0.002378 0.003099 0.015094
v -0.002240 0.002919 0.100000
v -0.002435 0.003173 0.099680
v -0.002378 0.003099 0.099906
v -0.001840 0.003186 0.015000
v -0.002000 0.003464 0.015320
v -0.001953 0.003383 0.015094
v -0.001840 0.003186 0.100000
v -0.002000 0.003464 0.099680
v -0.001953 0.003383 0.099906
v -0.001408 0.003399 0.015000
v -0.001531 0.003696 0.015320
v -0.001495 0.003608 0.015094
v -0.001408 0.003399 0.100000
v -0.001531 0.003696 0.099680
v -0.001495 0.003608 0.099906
v -0.000952 0.003554 0.015000
v -0.001035 0.003864 0.015320
v -0.001011 0.003773 0.015094
v -0.000952 0.003554 0.100000
v -0.001035 0.003864 0.099680
v -0.001011 0.003773 0.099906
v -0.000480 0.003648 0.015000
v -0.000522 0.003966 0.015320
v -0.000510 0.003872 0.015094
v -0.000480 0.003648 0.100000
v -0.000522 0.003966 0.099680
v -0.000510 0.003872 0.099906
vn -0.2502 -0.2502 -0.9353
vn -0.2178 -0.6901 -0.6901
vn -0.2502 -0.9353 -0.2502
vn -0.6901 -0.6901 -0.2178
vn -0.9353 -0.2502 -0.2502
vn -0.6901 -0.2178 -0.6901
vn -0.5774 -0.5773 -0.5773
vn -0.2502 -0.9353 0.2502
vn -0.2178 -0.6901 0.6901
vn -0.2502 -0.2502 0.9353
vn -0.6901 -0.2178 0.6901
vn -0.9353 -0.2502 0.2502
vn -0.6901 -0.6901 0.2178
vn -0.5774 -0.5773 0.5773
vn -0.2502 0.2502 -0.9353
vn -0.6901 0.2178 -0.6901
vn -0.9353 0.2502 -0.2502
vn -0.6901 0.6901 -0.2178
vn -0.2502 0.9353 -0.2502
vn -0.2178 0.6901 -0.6901
vn -0.5774 0.5773 -0.5773
vn -0.2502 0.2502 0.9353
vn -0.2178 0.6901 0.6901
vn -0.2502 0.9353 0.2502
vn -0.6901 0.6901 0.2178
vn -0.9353 0.2502 0.2502
vn -0.6901 0.2178 0.6901
vn -0.5774 0.5773 0.5773
vn 0.2502 -0.2502 -0.9353
vn 0.6901 -0.2178 -0.6901
vn 0.9353 -0.2502 -0.2502
vn 0.6901 -0.6901 -0.2178
vn 0.2502 -0.9353 -0.2502
vn 0.2178 -0.6901 -0.6901
vn 0.5774 -0.5773 -0.5773
vn 0.2502 -0.2502 0.9353
vn 0.2178 -0.6901 0.6901
vn 0.2502 -0.9353 0.2502
vn 0.6901 -0.6901 0.2178
vn 0.9353 -0.2502 0.2502
vn 0.6901 -0.2178 0.6901
vn 0.5774 -0.5773 0.5773
vn 0.2502 0.2502 -0.9353
vn 0.2178 0.6901 -0.6901
vn 0.2502 0.9353 -0.2502
vn 0.6901 0.6901 -0.2178
vn 0.9353 0.2502 -0.2502
vn 0.6901 0.2178 -0.6901
vn 0.5774 0.5773 -0.5773
vn 0.2502 0.2502 0.9353
vn 0.6901 0.2178 0.6901
vn 0.9353 0.2502 0.2502
vn 0.6901 0.6901 0.2178
vn 0.2502 0.9353 0.2502
vn 0.2178 0.6901 0.6901
vn 0.5774 0.5773 0.5773
vn -0.2585 -0.0000 -0.9660
vn -0.7071 -0.0000 -0.7071
vn -0.9660 -0.0000 -0.2585
vn -0.2585 -0.9660 -0.0000
vn -0.7071 -0.7071 -0.0000
vn -0.9660 -0.2584 -0.0000
vn -0.2585 -0.0000 0.9660
vn -0.7071 -0.0000 0.7071
vn -0.9660 -0.0000 0.2585
vn -0.2585 0.9660 -0.0000
vn -0.7071 0.7071 -0.0000
vn -0.9660 0.2585 -0.0000
vn -0.0000 0.2585 -0.9660
vn -0.0000 0.7071 -0.7071
vn -0.0000 0.9660 -0.2585
vn -0.0000 0.2585 0.9660
vn -0.0000 0.7071 0.7071
vn -0.0000 0.9660 0.2585
vn 0.9660 0.2585 -0.0000
vn 0.7071 0.7071 -0.0000
vn 0.2585 0.9660 -0.0000
vn 0.2585 -0.0000 -0.9660
vn 0.7071 -0.0000 -0.7071
vn 0.9660 -0.0000 -0.2585
vn 0.2585 -0.0000 0.9660
vn 0.7071 -0.0000 0.7071
vn 0.9660 -0.0000 0.2585
vn 0.2585 -0.9660 -0.0000
vn 0.7071 -0.7071 -0.0000
vn 0.9660 -0.2585 -0.0000
vn -0.0000 -0.2585 -0.9660
vn -0.0000 -0.7071 -0.7071
vn -0.0000 -0.9660 -0.2585
vn -0.0000 -0.2585 0.9660
vn -0.0000 -0.7071 0.7071
vn -0.0000 -0.9660 0.2585
vn -0.0000 -0.0000 -1.0000
vn -1.0000 -0.0000 -0.0000
vn -0.0000 -1.0000 -0.0000
vn -0.0000 -0.0000 1.0000
vn -0.0000 1.0000 -0.0000
vn 1.0000 -0.0000 -0.0000
vn 0.0604 0.9215 -0.3837
vn 0.0251 0.3823 -0.9237
vn 0.0604 0.9215 0.3837
vn 0.0250 0.3823 0.9237
vn 0.1802 0.9057 -0.3837
vn 0.0747 0.3757 -0.9237
vn 0.1801 0.9057 0.3837
vn 0.0747 0.3757 0.9237
vn 0.2968 0.8745 -0.3837
vn 0.1231 0.3627 -0.9237
vn 0.2968 0.8745 0.3837
vn 0.1231 0.3627 0.9237
vn 0.4084 0.8282 -0.3837
vn 0.1694 0.3436 -0.9237
vn 0.4084 0.8282 0.3837
vn 0.1694 0.3436 0.9237
vn 0.5131 0.7678 -0.3837
vn 0.2128 0.3185 -0.9237
vn 0.5130 0.7679 0.3837
vn 0.2128 0.3185 0.9237
vn 0.6089 0.6943 -0.3837
vn 0.2526 0.2880 -0.9237
vn 0.6089 0.6943 0.3837
vn 0.2525 0.2880 0.9237
vn 0.6943 0.6089 -0.3837
vn 0.2880 0.2526 -0.9237
vn 0.6943 0.6089 0.3837
vn 0.2880 0.2526 0.9237
vn 0.7678 0.5131 -0.3837
vn 0.3185 0.2128 -0.9237
vn 0.7678 0.5131 0.3837
vn 0.3185 0.2128 0.9237
vn 0.8282 0.4084 -0.3837
vn 0.3436 0.1694 -0.9237
vn 0.8282 0.4085 0.3837
vn 0.3436 0.1694 0.9237
vn 0.8745 0.2968 -0.3837
vn 0.3627 0.1231 -0.9237
vn 0.8744 0.2969 0.3837
vn 0.3628 0.1231 0.9237
vn 0.9057 0.1802 -0.3837
vn 0.3757 0.0747 -0.9237
vn 0.9057 0.1802 0.3837
vn 0.3757 0.0747 0.9237
vn 0.9215 0.0604 -0.3837
vn 0.3823 0.0251 -0.9237
vn 0.9215 0.0604 0.3837
vn 0.3823 0.0251 0.9237
vn 0.9215 -0.0604 -0.3837
vn 0.3823 -0.0251 -0.9237
vn 0.9215 -0.0604 0.3837
vn 0.3823 -0.0251 0.9237
vn 0.9057 -0.1802 -0.3837
vn 0.3757 -0.0747 -0.9237
vn 0.9057 -0.1802 0.3837
vn 0.3757 -0.0747 0.9237
vn 0.8745 -0.2968 -0.3837
vn 0.3627 -0.1231 -0.9237
vn 0.8745 -0.2968 0.3836
vn 0.3627 -0.1231 0.9237
vn 0.8282 -0.4084 -0.3837
vn 0.3436 -0.1694 -0.9237
vn 0.8282 -0.4085 0.3837
vn 0.3436 -0.1694 0.9237
vn 0.7678 -0.5131 -0.3837
vn 0.3185 -0.2128 -0.9237
vn 0.7678 -0.5131 0.3837
vn 0.3185 -0.2128 0.9237
vn 0.6943 -0.6089 -0.3837
vn 0.2880 -0.2526 -0.9237
vn 0.6943 -0.6089 0.3837
vn 0.2881 -0.2526 0.9237
vn 0.6089 -0.6943 -0.3837
vn 0.2526 -0.2880 -0.9237
vn 0.6089 -0.6943 0.3837
vn 0.2526 -0.2880 0.9237
vn 0.5131 -0.7678 -0.3837
vn 0.2128 -0.3185 -0.9237
vn 0.5131 -0.7678 0.3837
vn 0.2128 -0.3185 0.9237
vn 0.4084 -0.8282 -0.3837
vn 0.1694 -0.3436 -0.9237
vn 0.4084 -0.8282 0.3837
vn 0.1695 -0.3436 0.9237
vn 0.2968 -0.8745 -0.3837
vn 0.1231 -0.3627 -0.9237
vn 0.2969 -0.8745 0.3837
vn 0.1232 -0.3627 0.9237
vn 0.1802 -0.9057 -0.3837
vn 0.0747 -0.3757 -0.9237
vn 0.1802 -0.9057 0.3837
vn 0.0747 -0.3757 0.9237
vn 0.0604 -0.9215 -0.3837
vn 0.0251 -0.3823 -0.9237
vn 0.0604 -0.9215 0.3837
vn 0.0250 -0.3823 0.9237
vn -0.0604 -0.9215 -0.3837
vn -0.0251 -0.3823 -0.9237
vn -0.0604 -0.9215 0.3837
vn -0.0250 -0.3823 0.9237
vn -0.1802 -0.9057 -0.3837
vn -0.0747 -0.3757 -0.9237
vn -0.1801 -0.9057 0.3837
vn -0.0747 -0.3757 0.9237
vn -0.2968 -0.8745 -0.3837
vn -0.1231 -0.3627 -0.9237
vn -0.2968 -0.8745 0.3837
vn -0.1231 -0.3627 0.9237
vn -0.4084 -0.8282 -0.3837
vn -0.1694 -0.3436 -0.9237
vn -0.4084 -0.8282 0.3837
vn -0.1694 -0.3436 0.9237
vn -0.5131 -0.7678 -0.3837
vn -0.2128 -0.3185 -0.9237
vn -0.5130 -0.7679 0.3837
vn -0.2128 -0.3185 0.9237
vn -0.6089 -0.6943 -0.3837
vn -0.2526 -0.2880 -0.9237
vn -0.6089 -0.6943 0.3837
vn -0.2525 -0.2880 0.9237
vn -0.6943 -0.6089 -0.3837
vn -0.2880 -0.2526 -0.9237
vn -0.6943 -0.6089 0.3837
vn -0.2880 -0.2526 0.9237
vn -0.7678 -0.5131 -0.3837
vn -0.3185 -0.2128 -0.9237
vn -0.7678 -0.5131 0.3837
vn -0.3185 -0.2128 0.9237
vn -0.8282 -0.4084 -0.3837
vn -0.3436 -0.1694 -0.9237
vn -0.8282 -0.4085 0.3837
vn -0.3436 -0.1694 0.9237
vn -0.8745 -0.2968 -0.3837
vn -0.3627 -0.1231 -0.9237
vn -0.8744 -0.2969 0.3837
vn -0.3628 -0.1231 0.9237
vn -0.9057 -0.1802 -0.3837
vn -0.3757 -0.0747 -0.9237
vn -0.9057 -0.1802 0.3837
vn -0.3757 -0.0747 0.9237
vn -0.9215 -0.0604 -0.3837
vn -0.3823 -0.0251 -0.9237
vn -0.9215 -0.0604 0.3837
vn -0.3823 -0.0251 0.9237
vn -0.9215 0.0604 -0.3837
vn -0.3823 0.0251 -0.9237
vn -0.9215 0.0604 0.3837
vn -0.3823 0.0251 0.9237
vn -0.9057 0.1802 -0.3837
vn -0.3757 0.0747 -0.9237
vn -0.9057 0.1802 0.3837
vn -0.3757 0.0747 0.9237
vn -0.8745 0.2968 -0.3837
vn -0.3627 0.1231 -0.9237
vn -0.8745 0.2968 0.3836
vn -0.3627 0.1231 0.9237
vn -0.8282 0.4084 -0.3837
vn -0.3436 0.1694 -0.9237
vn -0.8282 0.4085 0.3837
vn -0.3436 0.1694 0.9237
vn -0.7678 0.5131 -0.3837
vn -0.3185 0.2128 -0.9237
vn -0.7678 0.5131 0.3837
vn -0.3185 0.2128 0.9237
vn -0.6943 0.6089 -0.3837
vn -0.2880 0.2526 -0.9237
vn -0.6943 0.6089 0.3837
vn -0.2881 0.2526 0.9237
vn -0.6089 0.6943 -0.3837
vn -0.2526 0.2880 -0.9237
vn -0.6089 0.6943 0.3837
vn -0.2526 0.2880 0.9237
vn -0.5131 0.7678 -0.3837
vn -0.2128 0.3185 -0.9237
vn -0.5131 0.7678 0.3837
vn -0.2128 0.3185 0.9237
vn -0.4084 0.8282 -0.3837
vn -0.1694 0.3436 -0.9237
vn -0.4084 0.8282 0.3837
vn -0.1695 0.3436 0.9237
vn -0.2968 0.8745 -0.3837
vn -0.1231 0.3627 -0.9237
vn -0.2969 0.8745 0.3837
vn -0.1232 0.3627 0.9237
vn -0.1802 0.9057 -0.3837
vn -0.0747 0.3757 -0.9237
vn -0.1802 0.9057 0.3837
vn -0.0747 0.3757 0.9237
vn -0.0604 0.9215 -0.3837
vn -0.0251 0.3823 -0.9237
vn -0.0604 0.9215 0.3837
vn -0.0250 0.3823 0.9237
vn 0.0654 0.9979 -0.0000
vn -0.0654 0.9979 -0.0000
vn 0.1951 0.9808 -0.0000
vn 0.3214 0.9469 -0.0000
vn 0.4423 0.8969 -0.0000
vn 0.5556 0.8315 -0.0000
vn 0.6593 0.7518 -0.0000
vn 0.7518 0.6593 -0.0000
vn 0.8315 0.5556 -0.0000
vn 0.8969 0.4423 -0.0000
vn 0.9469 0.3214 -0.0000
vn 0.9808 0.1951 -0.0000
vn 0.9979 0.0654 -0.0000
vn 0.9979 -0.0654 -0.0000
vn 0.9808 -0.1951 -0.0000
vn 0.9469 -0.3214 -0.0000
vn 0.8969 -0.4423 -0.0000
vn 0.8315 -0.5556 -0.0000
vn 0.7518 -0.6593 -0.0000
vn 0.6593 -0.7518 -0.0000
vn 0.5556 -0.8315 -0.0000
vn 0.4423 -0.8969 -0.0000
vn 0.3214 -0.9469 -0.0000
vn 0.1951 -0.9808 -0.0000
vn 0.0654 -0.9979 -0.0000
vn -0.0654 -0.9979 -0.0000
vn -0.1951 -0.9808 -0.0000
vn -0.3214 -0.9469 -0.0000
vn -0.4423 -0.8969 -0.0000
vn -0.5556 -0.8315 -0.0000
vn -0.6593 -0.7518 -0.0000
vn -0.7518 -0.6593 -0.0000
vn -0.8315 -0.5556 -0.0000
vn -0.8969 -0.4423 -0.0000
vn -0.9469 -0.3214 -0.0000
vn -0.9808 -0.1951 -0.0000
vn -0.9979 -0.0654 -0.0000
vn -0.9979 0.0654 -0.0000
vn -0.9808 0.1951 -0.0000
vn -0.9469 0.3214 -0.0000
vn -0.8969 0.4423 -0.0000
vn -0.8315 0.5556 -0.0000
vn -0.7518 0.6593 -0.0000
vn -0.6593 0.7518 -0.0000
vn -0.5556 0.8315 -0.0000
vn -0.4423 0.8969 -0.0000
vn -0.3214 0.9469 -0.0000
vn -0.1951 0.9808 -0.0000
vn -0.2635 -0.2635 -0.9280
vn -0.2635 -0.9280 -0.2635
vn -0.9280 -0.2635 -0.2635
vn -0.2635 -0.9280 0.2635
vn -0.2635 -0.2635 0.9280
vn -0.9280 -0.2635 0.2635
vn -0.2635 0.2635 -0.9280
vn -0.9280 0.2635 -0.2635
vn -0.2635 0.9280 -0.2635
vn -0.2635 0.2635 0.9280
vn -0.2635 0.9280 0.2635
vn -0.9280 0.2635 0.2635
vn 0.2635 -0.2635 -0.9280
vn 0.9280 -0.2635 -0.2635
vn 0.2635 -0.9280 -0.2635
vn 0.2635 -0.2635 0.9280
vn 0.2635 -0.9280 0.2635
vn 0.9280 -0.2635 0.2635
vn 0.2635 0.2635 -0.9280
vn 0.2635 0.9280 -0.2635
vn 0.9280 0.2635 -0.2635
vn 0.2635 0.2635 0.9280
vn 0.9280 0.2635 0.2635
vn 0.2635 0.9280 0.2635
vn -0.9660 -0.2585 -0.0000
vn -0.9660 0.2584 -0.0000
vn -0.0000 0.9660 -0.2584
vn -0.0000 0.9660 0.2584
vn 0.9660 -0.2584 -0.0000
vn -0.0000 -0.9660 -0.2584
vn -0.0000 -0.9660 0.2584
vn 0.1802 0.9057 0.3837
vn 0.2969 0.8745 0.3837
vn 0.1232 0.3627 0.9237
vn 0.4085 0.8282 0.3837
vn 0.5131 0.7678 0.3837
vn 0.2526 0.2880 0.9237
vn 0.8283 0.4084 0.3836
vn 0.8745 0.2968 0.3836
vn 0.3627 0.1231 0.9237
vn 0.9057 0.1801 0.3836
vn 0.3758 0.0747 0.9237
vn 0.8744 -0.2969 0.3837
vn 0.3628 -0.1231 0.9237
vn 0.8283 -0.4084 0.3836
vn 0.2880 -0.2526 0.9237
vn 0.5130 -0.7679 0.3837
vn 0.4085 -0.8282 0.3837
vn 0.1694 -0.3436 0.9237
vn 0.2968 -0.8745 0.3837
vn 0.1231 -0.3627 0.9237
vn -0.1802 -0.9057 0.3837
vn -0.2969 -0.8745 0.3837
vn -0.1232 -0.3627 0.9237
vn -0.4085 -0.8282 0.3837
vn -0.5131 -0.7678 0.3837
vn -0.2526 -0.2880 0.9237
vn -0.8283 -0.4084 0.3836
vn -0.8745 -0.2968 0.3836
vn -0.3627 -0.1231 0.9237
vn -0.9057 -0.1801 0.3836
vn -0.3758 -0.0747 0.9237
vn -0.8744 0.2969 0.3837
vn -0.3628 0.1231 0.9237
vn -0.8283 0.4084 0.3836
vn -0.2880 0.2526 0.9237
vn -0.5130 0.7679 0.3837
vn -0.4085 0.8282 0.3837
vn -0.1694 0.3436 0.9237
vn -0.2968 0.8745 0.3837
vn -0.1231 0.3627 0.9237
vn 0.0001 -0.0000 -1.0000
vn -0.0001 -0.0000 -1.0000
vn 0.0002 -0.0000 1.0000
vn 0.0001 -0.0000 1.0000
vn -0.0002 -0.0000 1.0000
vn -0.0001 -0.0000 1.0000
vt -0.016250 -0.023740
vt -0.023740 -0.016250
vt -0.016250 -0.016250
vt -0.023423 -0.027299
vt -0.023423 -0.023423
vt -0.023740 0.421250
vt -0.016250 0.413760
vt -0.016250 0.421250
vt -0.029246 0.421250
vt -0.023423 0.414077
vt -0.027299 -0.023423
vt -0.029246 -0.016250
vt -0.023423 0.410201
vt -0.027299 0.414077
vt -0.016250 0.586240
vt -0.023740 0.578750
vt -0.016250 0.578750
vt -0.016250 -0.029246
vt -0.027299 0.585923
vt -0.029246 0.578750
vt -0.023423 0.585923
vt -0.023423 0.589799
vt -0.023740 1.016250
vt -0.016250 1.023740
vt -0.016250 1.016250
vt -0.027299 1.023423
vt -0.023423 1.023423
vt 1.023740 0.421250
vt 1.016250 0.413760
vt 1.016250 0.421250
vt -0.023423 1.027299
vt -0.016250 1.029246
vt 1.016250 0.586240
vt 1.023740 0.578750
vt 1.016250 0.578750
vt -0.029246 1.016250
vt 1.023740 -0.016250
vt 1.016250 -0.023740
vt 1.016250 -0.016250
vt 1.027299 -0.023423
vt 1.023423 -0.023423
vt 1.027299 0.414077
vt 1.029246 0.421250
vt 1.023423 -0.027299
vt 1.016250 -0.029246
vt 1.023423 0.410201
vt 1.023423 0.414077
vt 1.029246 0.578750
vt 1.023423 0.585923
vt 1.029246 -0.016250
vt 1.023423 0.589799
vt 1.027299 0.585923
vt 1.016250 1.023740
vt 1.023740 1.016250
vt 1.016250 1.016250
vt 1.023423 1.027299
vt 1.023423 1.023423
vt 1.027299 1.023423
vt 1.029246 1.016250
vt 1.016250 1.029246
vt 0.028582 0.994892
vt 0.023007 0.997547
vt 0.022652 0.994892
vt 0.296454 0.057121
vt 0.298324 0.051004
vt 0.299061 0.056603
vt 0.022652 0.005108
vt 0.028797 0.002453
vt 0.028582 0.005108
vt 0.296454 0.153482
vt 0.300522 0.158418
vt 0.298006 0.159272
vt 0.034668 0.994892
vt 0.028797 0.997547
vt 0.295672 0.051178
vt 0.298324 0.045357
vt 0.034740 0.002453
vt 0.034668 0.005108
vt 0.302683 0.163635
vt 0.300300 0.164810
vt 0.040807 0.994892
vt 0.034740 0.997547
vt 0.296454 0.039240
vt 0.295672 0.045183
vt 0.040807 0.005108
vt 0.040735 0.002453
vt 0.303297 0.170002
vt 0.305506 0.168525
vt 0.046894 0.994892
vt 0.040735 0.997547
vt 0.298006 0.033450
vt 0.299061 0.039759
vt 0.046678 0.002453
vt 0.046894 0.005108
vt 0.308944 0.173005
vt 0.306946 0.174757
vt 0.052823 0.994892
vt 0.046678 0.997547
vt 0.302683 0.029088
vt 0.300522 0.034304
vt 0.052468 0.002453
vt 0.052823 0.005108
vt 0.312937 0.176998
vt 0.311185 0.178996
vt 0.058495 0.994892
vt 0.052468 0.997547
vt 0.303297 0.022721
vt 0.300300 0.027912
vt 0.058006 0.002453
vt 0.058495 0.005108
vt 0.317417 0.180436
vt 0.315940 0.182645
vt 0.063811 0.994892
vt 0.058006 0.997547
vt 0.308944 0.019717
vt 0.305506 0.024197
vt 0.063811 0.005108
vt 0.063197 0.002453
vt 0.322307 0.183259
vt 0.321132 0.185642
vt 0.067953 0.997547
vt 0.063197 0.997547
vt 0.311185 0.013727
vt 0.306946 0.017965
vt 0.068682 0.005108
vt 0.067953 0.002453
vt 0.326670 0.187936
vt 0.327524 0.185420
vt 0.068682 0.994892
vt 0.072192 0.997547
vt 0.317417 0.012287
vt 0.312937 0.015725
vt 0.072192 0.002453
vt 0.073023 0.005108
vt 0.332978 0.186881
vt 0.332460 0.189488
vt 0.153403 0.994892
vt 0.158888 0.997547
vt 0.154132 0.997547
vt 0.315940 0.010078
vt 0.322307 0.009464
vt 0.153403 0.005108
vt 0.158888 0.002453
vt 0.158274 0.005108
vt 0.338577 0.187618
vt 0.338403 0.190270
vt 0.163590 0.994892
vt 0.158274 0.994892
vt 0.326670 0.004787
vt 0.321132 0.007080
vt 0.164079 0.002453
vt 0.163590 0.005108
vt 0.344223 0.187619
vt 0.344397 0.190270
vt 0.169617 0.997547
vt 0.164079 0.997547
vt 0.332460 0.003235
vt 0.327524 0.007303
vt 0.169617 0.002453
vt 0.169262 0.005108
vt 0.350340 0.189488
vt 0.349822 0.186881
vt 0.175191 0.994892
vt 0.169262 0.994892
vt 0.338577 0.005104
vt 0.332978 0.005841
vt 0.175407 0.002453
vt 0.175191 0.005108
vt 0.355276 0.185420
vt 0.356130 0.187936
vt 0.181278 0.994892
vt 0.175407 0.997547
vt 0.338403 0.002453
vt 0.344223 0.005104
vt 0.181350 0.002453
vt 0.181278 0.005108
vt 0.360493 0.183259
vt 0.361668 0.185642
vt 0.187417 0.994892
vt 0.181350 0.997547
vt 0.350340 0.003235
vt 0.344397 0.002453
vt 0.187417 0.005108
vt 0.187344 0.002453
vt 0.366860 0.182645
vt 0.365383 0.180436
vt 0.193503 0.994892
vt 0.187344 0.997547
vt 0.356130 0.004787
vt 0.349822 0.005841
vt 0.193288 0.002453
vt 0.193503 0.005108
vt 0.369863 0.176998
vt 0.371615 0.178996
vt 0.199433 0.994892
vt 0.193288 0.997547
vt 0.360493 0.009464
vt 0.355276 0.007303
vt 0.199078 0.002453
vt 0.199433 0.005108
vt 0.373856 0.173005
vt 0.375854 0.174757
vt 0.205105 0.994892
vt 0.199078 0.997547
vt 0.366860 0.010078
vt 0.361668 0.007081
vt 0.204616 0.002453
vt 0.205105 0.005108
vt 0.377294 0.168525
vt 0.379503 0.170002
vt 0.210421 0.994892
vt 0.204616 0.997547
vt 0.369863 0.015725
vt 0.365383 0.012287
vt 0.210421 0.005108
vt 0.209807 0.002453
vt 0.380117 0.163635
vt 0.382500 0.164810
vt 0.214563 0.997547
vt 0.209807 0.997547
vt 0.375854 0.017965
vt 0.371615 0.013727
vt 0.215291 0.005108
vt 0.214563 0.002453
vt 0.384794 0.159272
vt 0.382278 0.158418
vt 0.215291 0.994892
vt 0.218801 0.997547
vt 0.377294 0.024197
vt 0.373856 0.019717
vt 0.218801 0.002453
vt 0.219632 0.005108
vt 0.383739 0.152964
vt 0.386346 0.153482
vt 0.082269 0.994892
vt 0.087753 0.997547
vt 0.082998 0.997547
vt 0.379503 0.022721
vt 0.380117 0.029088
vt 0.082269 0.005108
vt 0.087753 0.002453
vt 0.087139 0.005108
vt 0.384476 0.147365
vt 0.387128 0.147539
vt 0.092456 0.994892
vt 0.087139 0.994892
vt 0.384794 0.033450
vt 0.382500 0.027912
vt 0.092945 0.002453
vt 0.092456 0.005108
vt 0.384476 0.141719
vt 0.387128 0.141545
vt 0.098483 0.997547
vt 0.092945 0.997547
vt 0.386346 0.039240
vt 0.382278 0.034305
vt 0.098483 0.002453
vt 0.098127 0.005108
vt 0.386346 0.135602
vt 0.383739 0.136120
vt 0.104057 0.994892
vt 0.098127 0.994892
vt 0.384477 0.045357
vt 0.383739 0.039759
vt 0.104273 0.002453
vt 0.104057 0.005108
vt 0.382278 0.130666
vt 0.384794 0.129812
vt 0.110143 0.994892
vt 0.104273 0.997547
vt 0.387128 0.045184
vt 0.384477 0.051004
vt 0.110216 0.002453
vt 0.110143 0.005108
vt 0.380117 0.125449
vt 0.382500 0.124274
vt 0.116282 0.994892
vt 0.110216 0.997547
vt 0.386346 0.057121
vt 0.387128 0.051178
vt 0.116282 0.005108
vt 0.116210 0.002453
vt 0.379503 0.119082
vt 0.377294 0.120559
vt 0.122369 0.994892
vt 0.116210 0.997547
vt 0.384794 0.062911
vt 0.383739 0.056603
vt 0.122153 0.002453
vt 0.122369 0.005108
vt 0.373856 0.116079
vt 0.375854 0.114327
vt 0.128299 0.994892
vt 0.122153 0.997547
vt 0.380117 0.067274
vt 0.382278 0.062057
vt 0.127943 0.002453
vt 0.128299 0.005108
vt 0.369863 0.112086
vt 0.371615 0.110088
vt 0.133970 0.994892
vt 0.127943 0.997547
vt 0.379503 0.073640
vt 0.382500 0.068449
vt 0.133481 0.002453
vt 0.133970 0.005108
vt 0.365383 0.108648
vt 0.366860 0.106439
vt 0.139287 0.994892
vt 0.133481 0.997547
vt 0.373856 0.076644
vt 0.377294 0.072164
vt 0.139287 0.005108
vt 0.138673 0.002453
vt 0.360493 0.105825
vt 0.361668 0.103442
vt 0.143428 0.997547
vt 0.138673 0.997547
vt 0.371615 0.082635
vt 0.375854 0.078396
vt 0.144157 0.005108
vt 0.143428 0.002453
vt 0.356130 0.101148
vt 0.355276 0.103664
vt 0.144157 0.994892
vt 0.147667 0.997547
vt 0.365383 0.084074
vt 0.369863 0.080637
vt 0.147667 0.002453
vt 0.148498 0.005108
vt 0.349822 0.102203
vt 0.350340 0.099596
vt 0.224538 0.994892
vt 0.230022 0.997547
vt 0.225266 0.997547
vt 0.366860 0.086284
vt 0.360493 0.086898
vt 0.224538 0.005108
vt 0.230022 0.002453
vt 0.229408 0.005108
vt 0.344223 0.101466
vt 0.344397 0.098814
vt 0.234724 0.994892
vt 0.229408 0.994892
vt 0.356130 0.091575
vt 0.361668 0.089281
vt 0.235213 0.002453
vt 0.234724 0.005108
vt 0.338577 0.101466
vt 0.338403 0.098814
vt 0.240751 0.997547
vt 0.235213 0.997547
vt 0.350340 0.093126
vt 0.355276 0.089059
vt 0.240751 0.002453
vt 0.240396 0.005108
vt 0.332460 0.099596
vt 0.332978 0.102203
vt 0.246326 0.994892
vt 0.240396 0.994892
vt 0.344223 0.091257
vt 0.349822 0.090520
vt 0.246541 0.002453
vt 0.246326 0.005108
vt 0.327524 0.103664
vt 0.326670 0.101148
vt 0.252412 0.994892
vt 0.246541 0.997547
vt 0.344397 0.093909
vt 0.338577 0.091257
vt 0.252485 0.002453
vt 0.252412 0.005108
vt 0.322307 0.105825
vt 0.321132 0.103442
vt 0.258551 0.994892
vt 0.252485 0.997547
vt 0.332460 0.093126
vt 0.338403 0.093909
vt 0.258551 0.005108
vt 0.258479 0.002453
vt 0.315940 0.106439
vt 0.317417 0.108648
vt 0.264638 0.994892
vt 0.258479 0.997547
vt 0.326670 0.091575
vt 0.332978 0.090520
vt 0.264422 0.002453
vt 0.264638 0.005108
vt 0.312937 0.112086
vt 0.311185 0.110088
vt 0.270567 0.994892
vt 0.264422 0.997547
vt 0.322307 0.086898
vt 0.327524 0.089059
vt 0.270212 0.002453
vt 0.270567 0.005108
vt 0.308944 0.116079
vt 0.306946 0.114327
vt 0.276239 0.994892
vt 0.270212 0.997547
vt 0.315940 0.086284
vt 0.321132 0.089281
vt 0.275750 0.002453
vt 0.276239 0.005108
vt 0.305506 0.120559
vt 0.303297 0.119082
vt 0.281555 0.994892
vt 0.275750 0.997547
vt 0.312937 0.080637
vt 0.317417 0.084074
vt 0.281555 0.005108
vt 0.280941 0.002453
vt 0.302683 0.125449
vt 0.300300 0.124274
vt 0.285697 0.997547
vt 0.280941 0.997547
vt 0.306946 0.078396
vt 0.311185 0.082635
vt 0.286426 0.005108
vt 0.285697 0.002453
vt 0.298006 0.129812
vt 0.300522 0.130666
vt 0.286426 0.994892
vt 0.289936 0.997547
vt 0.305506 0.072164
vt 0.308944 0.076644
vt 0.289936 0.002453
vt 0.290767 0.005108
vt 0.299061 0.136120
vt 0.296454 0.135602
vt 0.006794 0.994892
vt 0.012278 0.997547
vt 0.007522 0.997547
vt 0.303297 0.073640
vt 0.302683 0.067274
vt 0.006794 0.005108
vt 0.012278 0.002453
vt 0.011664 0.005108
vt 0.298324 0.141719
vt 0.295672 0.141545
vt 0.016980 0.994892
vt 0.011664 0.994892
vt 0.298006 0.062911
vt 0.300300 0.068449
vt 0.017469 0.002453
vt 0.016980 0.005108
vt 0.298324 0.147365
vt 0.295672 0.147539
vt 0.017469 0.997547
vt 0.300522 0.062057
vt 0.023007 0.002453
vt 0.299061 0.152964
vt 0.073023 0.994892
vt 0.077928 0.005108
vt 0.077928 0.994892
vt 0.148498 0.994892
vt 0.002453 0.005108
vt 0.002453 0.994892
vt 0.154132 0.002453
vt 0.219632 0.994892
vt 0.082998 0.002453
vt 0.225266 0.002453
vt 0.290767 0.994892
vt 0.007522 0.002453
s 0
usemtl ARAT_light_maple
f 4/1/1 5/2/1 1/3/1
f 4/1/2 9/4/2 6/5/2
f 7/6/3 8/7/3 2/8/3
f 11/9/4 9/10/4 7/6/4
f 10/7/5 11/6/5 3/8/5
f 5/2/6 12/11/6 10/12/6
f 6/13/7 9/10/7 12/14/7
f 16/15/8 17/16/8 13/17/8
f 20/1/9 18/4/9 16/18/9
f 19/2/10 20/1/10 14/3/10
f 19/2/11 24/11/11 21/5/11
f 22/16/12 23/15/12 15/17/12
f 17/16/13 24/19/13 22/20/13
f 18/21/14 21/22/14 24/19/14
f 28/23/15 29/24/15 25/25/15
f 28/23/16 33/26/16 30/27/16
f 31/28/17 32/29/17 26/30/17
f 35/6/18 33/14/18 31/9/18
f 34/7/19 35/6/19 27/8/19
f 29/24/20 36/31/20 34/32/20
f 30/13/21 33/14/21 36/10/21
f 40/24/22 41/23/22 37/25/22
f 40/24/23 45/31/23 42/27/23
f 43/16/24 44/15/24 38/17/24
f 47/20/25 45/21/25 43/16/25
f 46/33/26 47/34/26 39/35/26
f 41/23/27 48/26/27 46/36/27
f 42/22/28 45/21/28 48/19/28
f 52/37/29 53/38/29 49/39/29
f 52/37/30 57/40/30 54/41/30
f 55/6/31 56/7/31 50/8/31
f 59/28/32 57/42/32 55/43/32
f 58/29/33 59/28/33 51/30/33
f 53/38/34 60/44/34 58/45/34
f 54/46/35 57/42/35 60/47/35
f 64/38/36 65/37/36 61/39/36
f 64/38/37 69/44/37 66/41/37
f 67/34/38 68/33/38 62/35/38
f 71/48/39 69/49/39 67/34/39
f 70/15/40 71/16/40 63/17/40
f 65/37/41 72/40/41 70/50/41
f 66/51/42 69/49/42 72/52/42
f 76/53/43 77/54/43 73/55/43
f 76/53/44 81/56/44 78/57/44
f 79/28/45 80/29/45 74/30/45
f 83/43/46 81/47/46 79/28/46
f 82/29/47 83/28/47 75/30/47
f 77/54/48 84/58/48 82/59/48
f 78/46/49 81/47/49 84/42/49
f 88/54/50 89/53/50 85/55/50
f 88/54/51 93/58/51 90/57/51
f 91/34/52 92/33/52 86/35/52
f 95/34/53 93/52/53 91/48/53
f 94/33/54 95/34/54 87/35/54
f 89/53/55 96/56/55 94/60/55
f 90/51/56 93/52/56 96/49/56
f 1/3/57 28/23/57 25/25/57
f 5/2/58 32/36/58 28/23/58
f 10/7/59 26/30/59 32/29/59
f 13/17/60 7/6/60 2/8/60
f 17/16/61 11/9/61 7/6/61
f 11/6/62 15/17/62 3/8/62
f 37/25/63 19/2/63 14/3/63
f 41/23/64 23/12/64 19/2/64
f 46/33/65 15/17/65 23/15/65
f 38/17/66 35/6/66 43/16/66
f 35/6/67 47/20/67 43/16/67
f 31/28/68 39/35/68 47/34/68
f 25/25/69 76/53/69 73/55/69
f 29/24/70 80/60/70 76/53/70
f 34/7/71 74/30/71 80/29/71
f 85/55/72 40/24/72 37/25/72
f 89/53/73 44/32/73 40/24/73
f 94/33/74 38/17/74 44/15/74
f 86/35/75 83/28/75 91/34/75
f 83/43/76 95/34/76 91/48/76
f 79/28/77 87/35/77 95/34/77
f 73/55/78 52/37/78 49/39/78
f 77/54/79 56/50/79 52/37/79
f 82/29/80 50/8/80 56/7/80
f 61/39/81 88/54/81 85/55/81
f 65/37/82 92/59/82 88/54/82
f 70/15/83 86/35/83 92/33/83
f 62/35/84 59/28/84 67/34/84
f 59/28/85 71/48/85 67/34/85
f 55/6/86 63/17/86 71/16/86
f 49/39/87 4/1/87 1/3/87
f 53/38/88 8/18/88 4/1/88
f 58/29/89 2/8/89 8/7/89
f 14/3/90 64/38/90 61/39/90
f 20/1/91 68/45/91 64/38/91
f 16/15/92 62/35/92 68/33/92
f 73/55/93 1/3/93 25/25/93
f 15/17/94 26/30/94 3/8/94
f 62/35/95 2/8/95 51/30/95
f 37/25/96 61/39/96 85/55/96
f 38/17/97 74/30/97 27/8/97
f 86/35/98 50/8/98 75/30/98
f 104/61/99 99/62/99 98/63/99
f 99/64/100 103/65/100 97/66/100
f 101/67/101 108/68/101 107/69/101
f 102/70/102 106/71/102 108/72/102
f 110/73/103 105/74/103 104/61/103
f 105/75/104 109/76/104 103/65/104
f 107/69/105 114/77/105 113/78/105
f 108/72/106 112/79/106 114/80/106
f 116/81/107 111/82/107 110/73/107
f 117/83/108 109/76/108 111/84/108
f 119/85/109 114/77/109 120/86/109
f 120/87/110 112/79/110 118/88/110
f 122/89/111 117/90/111 116/81/111
f 123/91/112 115/92/112 117/83/112
f 119/85/113 126/93/113 125/94/113
f 120/87/114 124/95/114 126/96/114
f 128/97/115 123/98/115 122/89/115
f 123/91/116 127/99/116 121/100/116
f 125/94/117 132/101/117 131/102/117
f 126/96/118 130/103/118 132/104/118
f 134/105/119 129/106/119 128/97/119
f 135/107/120 127/99/120 129/108/120
f 131/102/121 138/109/121 137/110/121
f 132/104/122 136/111/122 138/112/122
f 140/113/123 135/114/123 134/105/123
f 135/107/124 139/115/124 133/116/124
f 143/117/125 138/109/125 144/118/125
f 138/112/126 142/119/126 144/120/126
f 140/113/127 147/121/127 141/122/127
f 147/123/128 139/115/128 141/124/128
f 149/125/129 144/118/129 150/126/129
f 150/127/130 142/119/130 148/128/130
f 146/129/131 153/130/131 147/121/131
f 147/123/132 151/131/132 145/132/132
f 149/125/133 156/133/133 155/134/133
f 150/127/134 154/135/134 156/136/134
f 152/137/135 159/138/135 153/139/135
f 153/140/136 157/141/136 151/131/136
f 155/142/137 162/143/137 161/144/137
f 156/136/138 160/145/138 162/146/138
f 164/147/139 159/138/139 158/148/139
f 165/149/140 157/141/140 159/150/140
f 161/144/141 168/151/141 167/152/141
f 162/146/142 166/153/142 168/154/142
f 164/147/143 171/155/143 165/156/143
f 171/157/144 163/158/144 165/149/144
f 167/152/145 174/159/145 173/160/145
f 174/161/146 166/153/146 172/162/146
f 176/163/147 171/155/147 170/164/147
f 171/157/148 175/165/148 169/166/148
f 173/160/149 180/167/149 179/168/149
f 174/161/150 178/169/150 180/170/150
f 182/171/151 177/172/151 176/163/151
f 177/173/152 181/174/152 175/165/152
f 179/168/153 186/175/153 185/176/153
f 180/170/154 184/177/154 186/178/154
f 188/179/155 183/180/155 182/171/155
f 189/181/156 181/174/156 183/182/156
f 191/183/157 186/175/157 192/184/157
f 192/185/158 184/177/158 190/186/158
f 194/187/159 189/188/159 188/179/159
f 195/189/160 187/190/160 189/181/160
f 191/183/161 198/191/161 197/192/161
f 192/185/162 196/193/162 198/194/162
f 200/195/163 195/196/163 194/187/163
f 195/189/164 199/197/164 193/198/164
f 197/192/165 204/199/165 203/200/165
f 198/194/166 202/201/166 204/202/166
f 206/203/167 201/204/167 200/195/167
f 207/205/168 199/197/168 201/206/168
f 203/200/169 210/207/169 209/208/169
f 204/202/170 208/209/170 210/210/170
f 212/211/171 207/212/171 206/203/171
f 207/205/172 211/213/172 205/214/172
f 215/215/173 210/207/173 216/216/173
f 210/210/174 214/217/174 216/218/174
f 212/211/175 219/219/175 213/220/175
f 219/221/176 211/213/176 213/222/176
f 221/223/177 216/216/177 222/224/177
f 222/225/178 214/217/178 220/226/178
f 218/227/179 225/228/179 219/219/179
f 219/221/180 223/229/180 217/230/180
f 221/223/181 228/231/181 227/232/181
f 222/225/182 226/233/182 228/234/182
f 224/235/183 231/236/183 225/237/183
f 225/238/184 229/239/184 223/229/184
f 227/240/185 234/241/185 233/242/185
f 228/234/186 232/243/186 234/244/186
f 236/245/187 231/236/187 230/246/187
f 237/247/188 229/239/188 231/248/188
f 233/242/189 240/249/189 239/250/189
f 234/244/190 238/251/190 240/252/190
f 236/245/191 243/253/191 237/254/191
f 243/255/192 235/256/192 237/247/192
f 239/250/193 246/257/193 245/258/193
f 246/259/194 238/251/194 244/260/194
f 248/261/195 243/253/195 242/262/195
f 243/255/196 247/263/196 241/264/196
f 245/258/197 252/265/197 251/266/197
f 246/259/198 250/267/198 252/268/198
f 254/269/199 249/270/199 248/261/199
f 249/271/200 253/272/200 247/263/200
f 251/266/201 258/273/201 257/274/201
f 252/268/202 256/275/202 258/276/202
f 260/277/203 255/278/203 254/269/203
f 261/279/204 253/272/204 255/280/204
f 263/281/205 258/273/205 264/282/205
f 264/283/206 256/275/206 262/284/206
f 266/285/207 261/286/207 260/277/207
f 267/287/208 259/288/208 261/279/208
f 263/281/209 270/289/209 269/290/209
f 264/283/210 268/291/210 270/292/210
f 272/293/211 267/294/211 266/285/211
f 267/287/212 271/295/212 265/296/212
f 269/290/213 276/297/213 275/298/213
f 270/292/214 274/299/214 276/300/214
f 278/301/215 273/302/215 272/293/215
f 279/303/216 271/295/216 273/304/216
f 275/298/217 282/305/217 281/306/217
f 276/300/218 280/307/218 282/308/218
f 284/309/219 279/310/219 278/301/219
f 279/303/220 283/311/220 277/312/220
f 287/313/221 282/305/221 288/314/221
f 282/308/222 286/315/222 288/316/222
f 284/309/223 291/317/223 285/318/223
f 291/319/224 283/311/224 285/320/224
f 293/321/225 288/314/225 294/322/225
f 294/323/226 286/315/226 292/324/226
f 290/325/227 297/326/227 291/317/227
f 291/319/228 295/327/228 289/328/228
f 293/321/229 300/329/229 299/330/229
f 294/323/230 298/331/230 300/332/230
f 296/333/231 303/334/231 297/335/231
f 297/336/232 301/337/232 295/327/232
f 299/338/233 306/339/233 305/340/233
f 300/332/234 304/341/234 306/342/234
f 308/343/235 303/334/235 302/344/235
f 309/345/236 301/337/236 303/346/236
f 305/340/237 312/347/237 311/348/237
f 306/342/238 310/349/238 312/350/238
f 308/343/239 315/351/239 309/352/239
f 315/353/240 307/354/240 309/345/240
f 311/348/241 318/355/241 317/356/241
f 318/357/242 310/349/242 316/358/242
f 320/359/243 315/351/243 314/360/243
f 315/353/244 319/361/244 313/362/244
f 317/356/245 324/363/245 323/364/245
f 318/357/246 322/365/246 324/366/246
f 326/367/247 321/368/247 320/359/247
f 321/369/248 325/370/248 319/361/248
f 323/364/249 330/371/249 329/372/249
f 324/366/250 328/373/250 330/374/250
f 332/375/251 327/376/251 326/367/251
f 333/377/252 325/370/252 327/378/252
f 335/379/253 330/371/253 336/380/253
f 336/381/254 328/373/254 334/382/254
f 338/383/255 333/384/255 332/375/255
f 339/385/256 331/386/256 333/377/256
f 335/379/257 342/387/257 341/388/257
f 336/381/258 340/389/258 342/390/258
f 344/391/259 339/392/259 338/383/259
f 339/385/260 343/393/260 337/394/260
f 341/388/261 348/395/261 347/396/261
f 342/390/262 346/397/262 348/398/262
f 350/399/263 345/400/263 344/391/263
f 351/401/264 343/393/264 345/402/264
f 347/396/265 354/403/265 353/404/265
f 348/398/266 352/405/266 354/406/266
f 356/407/267 351/408/267 350/399/267
f 351/401/268 355/409/268 349/410/268
f 359/411/269 354/403/269 360/412/269
f 354/406/270 358/413/270 360/414/270
f 356/407/271 363/415/271 357/416/271
f 363/417/272 355/409/272 357/418/272
f 365/419/273 360/412/273 366/420/273
f 366/421/274 358/413/274 364/422/274
f 362/423/275 369/424/275 363/415/275
f 363/417/276 367/425/276 361/426/276
f 365/419/277 372/427/277 371/428/277
f 366/421/278 370/429/278 372/430/278
f 368/431/279 375/432/279 369/433/279
f 369/434/280 373/435/280 367/425/280
f 371/436/281 378/437/281 377/438/281
f 372/430/282 376/439/282 378/440/282
f 380/441/283 375/432/283 374/442/283
f 381/443/284 373/435/284 375/444/284
f 377/438/285 384/445/285 383/446/285
f 378/440/286 382/447/286 384/448/286
f 380/441/287 99/62/287 381/449/287
f 99/64/288 379/450/288 381/443/288
f 383/446/289 102/451/289 101/67/289
f 102/70/290 382/447/290 100/452/290
f 187/190/93 283/311/93 379/450/93
f 101/67/291 104/61/291 98/63/291
f 383/446/292 98/63/292 380/441/292
f 304/341/96 208/209/96 112/79/96
f 107/69/293 110/73/293 104/61/293
f 113/78/294 116/81/294 110/73/294
f 119/85/295 122/89/295 116/81/295
f 125/94/296 128/97/296 122/89/296
f 131/102/297 134/105/297 128/97/297
f 137/110/298 140/113/298 134/105/298
f 143/117/299 146/129/299 140/113/299
f 149/125/300 152/453/300 146/129/300
f 155/142/301 158/148/301 152/137/301
f 161/144/302 164/147/302 158/148/302
f 167/152/303 170/164/303 164/147/303
f 173/160/304 176/163/304 170/164/304
f 179/168/305 182/171/305 176/163/305
f 185/176/306 188/179/306 182/171/306
f 191/183/307 194/187/307 188/179/307
f 197/192/308 200/195/308 194/187/308
f 203/200/309 206/203/309 200/195/309
f 209/208/310 212/211/310 206/203/310
f 215/215/311 218/227/311 212/211/311
f 221/454/312 224/235/312 218/455/312
f 227/240/313 230/246/313 224/235/313
f 233/242/314 236/245/314 230/246/314
f 239/250/315 242/262/315 236/245/315
f 245/258/316 248/261/316 242/262/316
f 251/266/317 254/269/317 248/261/317
f 257/274/318 260/277/318 254/269/318
f 263/281/319 266/285/319 260/277/319
f 269/290/320 272/293/320 266/285/320
f 275/298/321 278/301/321 272/293/321
f 281/306/322 284/309/322 278/301/322
f 287/313/323 290/325/323 284/309/323
f 293/321/324 296/456/324 290/325/324
f 299/338/325 302/344/325 296/333/325
f 305/340/326 308/343/326 302/344/326
f 311/348/327 314/360/327 308/343/327
f 317/356/328 320/359/328 314/360/328
f 323/364/329 326/367/329 320/359/329
f 329/372/330 332/375/330 326/367/330
f 335/379/331 338/383/331 332/375/331
f 341/388/332 344/391/332 338/383/332
f 347/396/333 350/399/333 344/391/333
f 353/404/334 356/407/334 350/399/334
f 359/411/335 362/423/335 356/407/335
f 365/457/336 368/431/336 362/458/336
f 371/436/337 374/442/337 368/431/337
f 377/438/338 380/441/338 374/442/338
f 4/1/339 6/5/339 5/2/339
f 4/1/2 8/18/2 9/4/2
f 7/6/340 9/10/340 8/7/340
f 11/9/4 12/14/4 9/10/4
f 10/7/341 12/10/341 11/6/341
f 5/2/6 6/5/6 12/11/6
f 16/15/342 18/21/342 17/16/342
f 20/1/9 21/5/9 18/4/9
f 19/2/343 21/5/343 20/1/343
f 19/2/11 23/12/11 24/11/11
f 22/16/344 24/21/344 23/15/344
f 17/16/13 18/21/13 24/19/13
f 28/23/345 30/27/345 29/24/345
f 28/23/16 32/36/16 33/26/16
f 31/28/346 33/47/346 32/29/346
f 35/6/18 36/10/18 33/14/18
f 34/7/347 36/10/347 35/6/347
f 29/24/20 30/27/20 36/31/20
f 40/24/348 42/27/348 41/23/348
f 40/24/23 44/32/23 45/31/23
f 43/16/349 45/21/349 44/15/349
f 47/20/25 48/19/25 45/21/25
f 46/33/350 48/49/350 47/34/350
f 41/23/27 42/27/27 48/26/27
f 52/37/351 54/41/351 53/38/351
f 52/37/30 56/50/30 57/40/30
f 55/6/352 57/10/352 56/7/352
f 59/28/32 60/47/32 57/42/32
f 58/29/353 60/47/353 59/28/353
f 53/38/34 54/41/34 60/44/34
f 64/38/354 66/41/354 65/37/354
f 64/38/37 68/45/37 69/44/37
f 67/34/355 69/49/355 68/33/355
f 71/48/39 72/52/39 69/49/39
f 70/15/356 72/21/356 71/16/356
f 65/37/41 66/41/41 72/40/41
f 76/53/357 78/57/357 77/54/357
f 76/53/44 80/60/44 81/56/44
f 79/28/358 81/47/358 80/29/358
f 83/43/46 84/42/46 81/47/46
f 82/29/359 84/47/359 83/28/359
f 77/54/48 78/57/48 84/58/48
f 88/54/360 90/57/360 89/53/360
f 88/54/51 92/59/51 93/58/51
f 91/34/361 93/49/361 92/33/361
f 95/34/53 96/49/53 93/52/53
f 94/33/362 96/49/362 95/34/362
f 89/53/55 90/57/55 96/56/55
f 1/3/57 5/2/57 28/23/57
f 5/2/58 10/12/58 32/36/58
f 10/7/59 3/8/59 26/30/59
f 13/17/60 17/16/60 7/6/60
f 17/16/61 22/20/61 11/9/61
f 11/6/363 22/16/363 15/17/363
f 37/25/63 41/23/63 19/2/63
f 41/23/64 46/36/64 23/12/64
f 46/33/65 39/35/65 15/17/65
f 38/17/66 27/8/66 35/6/66
f 35/6/67 31/9/67 47/20/67
f 31/28/364 26/30/364 39/35/364
f 25/25/69 29/24/69 76/53/69
f 29/24/70 34/32/70 80/60/70
f 34/7/365 27/8/365 74/30/365
f 85/55/72 89/53/72 40/24/72
f 89/53/73 94/60/73 44/32/73
f 94/33/366 87/35/366 38/17/366
f 86/35/75 75/30/75 83/28/75
f 83/43/76 79/28/76 95/34/76
f 79/28/77 74/30/77 87/35/77
f 73/55/78 77/54/78 52/37/78
f 77/54/79 82/59/79 56/50/79
f 82/29/80 75/30/80 50/8/80
f 61/39/81 65/37/81 88/54/81
f 65/37/82 70/50/82 92/59/82
f 70/15/83 63/17/83 86/35/83
f 62/35/84 51/30/84 59/28/84
f 59/28/85 55/43/85 71/48/85
f 55/6/367 50/8/367 63/17/367
f 49/39/87 53/38/87 4/1/87
f 53/38/88 58/45/88 8/18/88
f 58/29/368 51/30/368 2/8/368
f 14/3/90 20/1/90 64/38/90
f 20/1/91 16/18/91 68/45/91
f 16/15/369 13/17/369 62/35/369
f 73/55/93 49/39/93 1/3/93
f 15/17/94 39/35/94 26/30/94
f 62/35/95 13/17/95 2/8/95
f 37/25/96 14/3/96 61/39/96
f 38/17/97 87/35/97 74/30/97
f 86/35/98 63/17/98 50/8/98
f 104/61/99 105/74/99 99/62/99
f 99/64/100 105/75/100 103/65/100
f 101/67/101 102/451/101 108/68/101
f 102/70/102 100/452/102 106/71/102
f 110/73/103 111/82/103 105/74/103
f 105/75/104 111/84/104 109/76/104
f 107/69/370 108/68/370 114/77/370
f 108/72/106 106/71/106 112/79/106
f 116/81/107 117/90/107 111/82/107
f 117/83/108 115/92/108 109/76/108
f 119/85/371 113/78/371 114/77/371
f 120/87/372 114/80/372 112/79/372
f 122/89/111 123/98/111 117/90/111
f 123/91/112 121/100/112 115/92/112
f 119/85/373 120/86/373 126/93/373
f 120/87/114 118/88/114 124/95/114
f 128/97/115 129/106/115 123/98/115
f 123/91/116 129/108/116 127/99/116
f 125/94/374 126/93/374 132/101/374
f 126/96/118 124/95/118 130/103/118
f 134/105/119 135/114/119 129/106/119
f 135/107/120 133/116/120 127/99/120
f 131/102/121 132/101/121 138/109/121
f 132/104/375 130/103/375 136/111/375
f 140/113/123 141/122/123 135/114/123
f 135/107/124 141/124/124 139/115/124
f 143/117/125 137/110/125 138/109/125
f 138/112/126 136/111/126 142/119/126
f 140/113/127 146/129/127 147/121/127
f 147/123/128 145/132/128 139/115/128
f 149/125/129 143/117/129 144/118/129
f 150/127/130 144/120/130 142/119/130
f 146/129/131 152/453/131 153/130/131
f 147/123/132 153/140/132 151/131/132
f 149/125/376 150/126/376 156/133/376
f 150/127/134 148/128/134 154/135/134
f 152/137/135 158/148/135 159/138/135
f 153/140/136 159/150/136 157/141/136
f 155/142/377 156/459/377 162/143/377
f 156/136/378 154/135/378 160/145/378
f 164/147/139 165/156/139 159/138/139
f 165/149/140 163/158/140 157/141/140
f 161/144/379 162/143/379 168/151/379
f 162/146/380 160/145/380 166/153/380
f 164/147/143 170/164/143 171/155/143
f 171/157/144 169/166/144 163/158/144
f 167/152/145 168/151/145 174/159/145
f 174/161/146 168/154/146 166/153/146
f 176/163/147 177/172/147 171/155/147
f 171/157/148 177/173/148 175/165/148
f 173/160/149 174/159/149 180/167/149
f 174/161/150 172/162/150 178/169/150
f 182/171/151 183/180/151 177/172/151
f 177/173/152 183/182/152 181/174/152
f 179/168/153 180/167/153 186/175/153
f 180/170/154 178/169/154 184/177/154
f 188/179/155 189/188/155 183/180/155
f 189/181/156 187/190/156 181/174/156
f 191/183/381 185/176/381 186/175/381
f 192/185/382 186/178/382 184/177/382
f 194/187/159 195/196/159 189/188/159
f 195/189/160 193/198/160 187/190/160
f 191/183/383 192/184/383 198/191/383
f 192/185/162 190/186/162 196/193/162
f 200/195/163 201/204/163 195/196/163
f 195/189/164 201/206/164 199/197/164
f 197/192/165 198/191/165 204/199/165
f 198/194/166 196/193/166 202/201/166
f 206/203/167 207/212/167 201/204/167
f 207/205/168 205/214/168 199/197/168
f 203/200/169 204/199/169 210/207/169
f 204/202/384 202/201/384 208/209/384
f 212/211/171 213/220/171 207/212/171
f 207/205/172 213/222/172 211/213/172
f 215/215/173 209/208/173 210/207/173
f 210/210/174 208/209/174 214/217/174
f 212/211/175 218/227/175 219/219/175
f 219/221/176 217/230/176 211/213/176
f 221/223/385 215/215/385 216/216/385
f 222/225/178 216/218/178 214/217/178
f 218/227/179 224/460/179 225/228/179
f 219/221/180 225/238/180 223/229/180
f 221/223/386 222/224/386 228/231/386
f 222/225/387 220/226/387 226/233/387
f 224/235/183 230/246/183 231/236/183
f 225/238/184 231/248/184 229/239/184
f 227/240/388 228/461/388 234/241/388
f 228/234/389 226/233/389 232/243/389
f 236/245/187 237/254/187 231/236/187
f 237/247/188 235/256/188 229/239/188
f 233/242/189 234/241/189 240/249/189
f 234/244/190 232/243/190 238/251/190
f 236/245/191 242/262/191 243/253/191
f 243/255/192 241/264/192 235/256/192
f 239/250/193 240/249/193 246/257/193
f 246/259/194 240/252/194 238/251/194
f 248/261/195 249/270/195 243/253/195
f 243/255/196 249/271/196 247/263/196
f 245/258/197 246/257/197 252/265/197
f 246/259/198 244/260/198 250/267/198
f 254/269/199 255/278/199 249/270/199
f 249/271/200 255/280/200 253/272/200
f 251/266/390 252/265/390 258/273/390
f 252/268/202 250/267/202 256/275/202
f 260/277/203 261/286/203 255/278/203
f 261/279/204 259/288/204 253/272/204
f 263/281/391 257/274/391 258/273/391
f 264/283/392 258/276/392 256/275/392
f 266/285/207 267/294/207 261/286/207
f 267/287/208 265/296/208 259/288/208
f 263/281/393 264/282/393 270/289/393
f 264/283/210 262/284/210 268/291/210
f 272/293/211 273/302/211 267/294/211
f 267/287/212 273/304/212 271/295/212
f 269/290/394 270/289/394 276/297/394
f 270/292/214 268/291/214 274/299/214
f 278/301/215 279/310/215 273/302/215
f 279/303/216 277/312/216 271/295/216
f 275/298/217 276/297/217 282/305/217
f 276/300/395 274/299/395 280/307/395
f 284/309/219 285/318/219 279/310/219
f 279/303/220 285/320/220 283/311/220
f 287/313/221 281/306/221 282/305/221
f 282/308/222 280/307/222 286/315/222
f 284/309/223 290/325/223 291/317/223
f 291/319/224 289/328/224 283/311/224
f 293/321/225 287/313/225 288/314/225
f 294/323/226 288/316/226 286/315/226
f 290/325/227 296/456/227 297/326/227
f 291/319/228 297/336/228 295/327/228
f 293/321/396 294/322/396 300/329/396
f 294/323/230 292/324/230 298/331/230
f 296/333/231 302/344/231 303/334/231
f 297/336/232 303/346/232 301/337/232
f 299/338/397 300/462/397 306/339/397
f 300/332/398 298/331/398 304/341/398
f 308/343/235 309/352/235 303/334/235
f 309/345/236 307/354/236 301/337/236
f 305/340/399 306/339/399 312/347/399
f 306/342/400 304/341/400 310/349/400
f 308/343/239 314/360/239 315/351/239
f 315/353/240 313/362/240 307/354/240
f 311/348/241 312/347/241 318/355/241
f 318/357/242 312/350/242 310/349/242
f 320/359/243 321/368/243 315/351/243
f 315/353/244 321/369/244 319/361/244
f 317/356/245 318/355/245 324/363/245
f 318/357/246 316/358/246 322/365/246
f 326/367/247 327/376/247 321/368/247
f 321/369/248 327/378/248 325/370/248
f 323/364/249 324/363/249 330/371/249
f 324/366/250 322/365/250 328/373/250
f 332/375/251 333/384/251 327/376/251
f 333/377/252 331/386/252 325/370/252
f 335/379/401 329/372/401 330/371/401
f 336/381/402 330/374/402 328/373/402
f 338/383/255 339/392/255 333/384/255
f 339/385/256 337/394/256 331/386/256
f 335/379/403 336/380/403 342/387/403
f 336/381/258 334/382/258 340/389/258
f 344/391/259 345/400/259 339/392/259
f 339/385/260 345/402/260 343/393/260
f 341/388/261 342/387/261 348/395/261
f 342/390/262 340/389/262 346/397/262
f 350/399/263 351/408/263 345/400/263
f 351/401/264 349/410/264 343/393/264
f 347/396/265 348/395/265 354/403/265
f 348/398/404 346/397/404 352/405/404
f 356/407/267 357/416/267 351/408/267
f 351/401/268 357/418/268 355/409/268
f 359/411/269 353/404/269 354/403/269
f 354/406/270 352/405/270 358/413/270
f 356/407/271 362/423/271 363/415/271
f 363/417/272 361/426/272 355/409/272
f 365/419/405 359/411/405 360/412/405
f 366/421/274 360/414/274 358/413/274
f 362/423/275 368/463/275 369/424/275
f 363/417/276 369/434/276 367/425/276
f 365/419/406 366/420/406 372/427/406
f 366/421/407 364/422/407 370/429/407
f 368/431/279 374/442/279 375/432/279
f 369/434/280 375/444/280 373/435/280
f 371/436/408 372/464/408 378/437/408
f 372/430/409 370/429/409 376/439/409
f 380/441/283 381/449/283 375/432/283
f 381/443/284 379/450/284 373/435/284
f 377/438/285 378/437/285 384/445/285
f 378/440/286 376/439/286 382/447/286
f 380/441/287 98/63/287 99/62/287
f 99/64/288 97/66/288 379/450/288
f 383/446/289 384/445/289 102/451/289
f 102/70/290 384/448/290 382/447/290
f 379/450/93 97/66/93 103/65/93
f 103/65/93 109/76/93 115/92/93
f 115/92/93 121/100/93 127/99/93
f 127/99/93 133/116/93 139/115/93
f 139/115/93 145/132/93 151/131/93
f 151/131/410 157/141/410 163/158/410
f 163/158/93 169/166/93 175/165/93
f 175/165/410 181/174/410 187/190/410
f 187/190/93 193/198/93 199/197/93
f 199/197/93 205/214/93 211/213/93
f 211/213/93 217/230/93 223/229/93
f 223/229/93 229/239/93 235/256/93
f 235/256/93 241/264/93 247/263/93
f 247/263/93 253/272/93 259/288/93
f 259/288/93 265/296/93 271/295/93
f 271/295/93 277/312/93 283/311/93
f 283/311/93 289/328/93 295/327/93
f 295/327/411 301/337/411 307/354/411
f 307/354/93 313/362/93 319/361/93
f 319/361/411 325/370/411 331/386/411
f 331/386/93 337/394/93 343/393/93
f 343/393/93 349/410/93 355/409/93
f 355/409/93 361/426/93 367/425/93
f 367/425/93 373/435/93 379/450/93
f 379/450/93 103/65/93 115/92/93
f 115/92/93 127/99/93 139/115/93
f 139/115/93 151/131/93 163/158/93
f 163/158/93 175/165/93 187/190/93
f 187/190/93 199/197/93 211/213/93
f 211/213/93 223/229/93 235/256/93
f 235/256/93 247/263/93 259/288/93
f 259/288/93 271/295/93 283/311/93
f 283/311/93 295/327/93 307/354/93
f 307/354/93 319/361/93 331/386/93
f 331/386/93 343/393/93 355/409/93
f 355/409/93 367/425/93 379/450/93
f 379/450/93 115/92/93 139/115/93
f 139/115/93 163/158/93 187/190/93
f 187/190/93 211/213/93 235/256/93
f 235/256/93 259/288/93 283/311/93
f 283/311/93 307/354/93 331/386/93
f 331/386/93 355/409/93 379/450/93
f 379/450/93 139/115/93 187/190/93
f 187/190/93 235/256/93 283/311/93
f 283/311/93 331/386/93 379/450/93
f 101/67/291 107/69/291 104/61/291
f 383/446/292 101/67/292 98/63/292
f 112/79/96 106/71/96 100/452/96
f 100/452/96 382/447/96 376/439/96
f 376/439/96 370/429/96 364/422/96
f 364/422/412 358/413/412 352/405/412
f 352/405/412 346/397/412 340/389/412
f 340/389/412 334/382/412 328/373/412
f 328/373/412 322/365/412 316/358/412
f 316/358/412 310/349/412 304/341/412
f 304/341/412 298/331/412 292/324/412
f 292/324/412 286/315/412 280/307/412
f 280/307/413 274/299/413 268/291/413
f 268/291/96 262/284/96 256/275/96
f 256/275/96 250/267/96 244/260/96
f 244/260/96 238/251/96 232/243/96
f 232/243/96 226/233/96 220/226/96
f 220/226/414 214/217/414 208/209/414
f 208/209/414 202/201/414 196/193/414
f 196/193/414 190/186/414 184/177/414
f 184/177/414 178/169/414 172/162/414
f 172/162/414 166/153/414 160/145/414
f 160/145/414 154/135/414 148/128/414
f 148/128/414 142/119/414 136/111/414
f 136/111/415 130/103/415 124/95/415
f 124/95/96 118/88/96 112/79/96
f 112/79/96 100/452/96 376/439/96
f 376/439/96 364/422/96 352/405/96
f 352/405/415 340/389/415 328/373/415
f 328/373/96 316/358/96 304/341/96
f 304/341/415 292/324/415 280/307/415
f 280/307/96 268/291/96 256/275/96
f 256/275/96 244/260/96 232/243/96
f 232/243/96 220/226/96 208/209/96
f 208/209/413 196/193/413 184/177/413
f 184/177/96 172/162/96 160/145/96
f 160/145/413 148/128/413 136/111/413
f 136/111/96 124/95/96 112/79/96
f 112/79/96 376/439/96 352/405/96
f 352/405/96 328/373/96 304/341/96
f 304/341/96 280/307/96 256/275/96
f 256/275/96 232/243/96 208/209/96
f 208/209/96 184/177/96 160/145/96
f 160/145/96 136/111/96 112/79/96
f 112/79/96 352/405/96 304/341/96
f 304/341/96 256/275/96 208/209/96
f 208/209/96 160/145/96 112/79/96
f 107/69/293 113/78/293 110/73/293
f 113/78/294 119/85/294 116/81/294
f 119/85/295 125/94/295 122/89/295
f 125/94/296 131/102/296 128/97/296
f 131/102/297 137/110/297 134/105/297
f 137/110/298 143/117/298 140/113/298
f 143/117/299 149/125/299 146/129/299
f 149/125/300 155/134/300 152/453/300
f 155/142/301 161/144/301 158/148/301
f 161/144/302 167/152/302 164/147/302
f 167/152/303 173/160/303 170/164/303
f 173/160/304 179/168/304 176/163/304
f 179/168/305 185/176/305 182/171/305
f 185/176/306 191/183/306 188/179/306
f 191/183/307 197/192/307 194/187/307
f 197/192/308 203/200/308 200/195/308
f 203/200/309 209/208/309 206/203/309
f 209/208/310 215/215/310 212/211/310
f 215/215/311 221/223/311 218/227/311
f 221/454/312 227/240/312 224/235/312
f 227/240/313 233/242/313 230/246/313
f 233/242/314 239/250/314 236/245/314
f 239/250/315 245/258/315 242/262/315
f 245/258/316 251/266/316 248/261/316
f 251/266/317 257/274/317 254/269/317
f 257/274/318 263/281/318 260/277/318
f 263/281/319 269/290/319 266/285/319
f 269/290/320 275/298/320 272/293/320
f 275/298/321 281/306/321 278/301/321
f 281/306/322 287/313/322 284/309/322
f 287/313/323 293/321/323 290/325/323
f 293/321/324 299/330/324 296/456/324
f 299/338/325 305/340/325 302/344/325
f 305/340/326 311/348/326 308/343/326
f 311/348/327 317/356/327 314/360/327
f 317/356/328 323/364/328 320/359/328
f 323/364/329 329/372/329 326/367/329
f 329/372/330 335/379/330 332/375/330
f 335/379/331 341/388/331 338/383/331
f 341/388/332 347/396/332 344/391/332
f 347/396/333 353/404/333 350/399/333
f 353/404/334 359/411/334 356/407/334
f 359/411/335 365/419/335 362/423/335
f 365/457/336 371/436/336 368/431/336
f 371/436/337 377/438/337 374/442/337
f 377/438/338 383/446/338 380/441/338
