# Blender 4.5.11 LTS
# www.blender.org
mtllib visual.mtl
o tube_target_fixture
v -0.041000 -0.168500 0.000000
v -0.041000 -0.170000 0.001500
v -0.042500 -0.168500 0.001500
v -0.041000 -0.169249 0.000200
v -0.041749 -0.168500 0.000200
v -0.041717 -0.169217 0.000395
v -0.041749 -0.169800 0.001500
v -0.041000 -0.169800 0.000751
v -0.041717 -0.169605 0.000783
v -0.042300 -0.168500 0.000751
v -0.042300 -0.169249 0.001500
v -0.042105 -0.169217 0.000783
v -0.041000 -0.170000 0.033500
v -0.041000 -0.168500 0.035000
v -0.042500 -0.168500 0.033500
v -0.041000 -0.169800 0.034249
v -0.041749 -0.169800 0.033500
v -0.041717 -0.169605 0.034217
v -0.041749 -0.168500 0.034800
v -0.041000 -0.169249 0.034800
v -0.041717 -0.169217 0.034605
v -0.042300 -0.169249 0.033500
v -0.042300 -0.168500 0.034249
v -0.042105 -0.169217 0.034217
v -0.041000 0.168500 0.000000
v -0.042500 0.168500 0.001500
v -0.041000 0.170000 0.001500
v -0.041749 0.168500 0.000200
v -0.041000 0.169249 0.000200
v -0.041717 0.169217 0.000395
v -0.042300 0.169249 0.001500
v -0.042300 0.168500 0.000751
v -0.042105 0.169217 0.000783
v -0.041000 0.169800 0.000751
v -0.041749 0.169800 0.001500
v -0.041717 0.169605 0.000783
v -0.041000 0.168500 0.035000
v -0.041000 0.170000 0.033500
v -0.042500 0.168500 0.033500
v -0.041000 0.169249 0.034800
v -0.041749 0.168500 0.034800
v -0.041717 0.169217 0.034605
v -0.041749 0.169800 0.033500
v -0.041000 0.169800 0.034249
v -0.041717 0.169605 0.034217
v -0.042300 0.168500 0.034249
v -0.042300 0.169249 0.033500
v -0.042105 0.169217 0.034217
v 0.041000 -0.168500 0.000000
v 0.042500 -0.168500 0.001500
v 0.041000 -0.170000 0.001500
v 0.041749 -0.168500 0.000200
v 0.041000 -0.169249 0.000200
v 0.041717 -0.169217 0.000395
v 0.042300 -0.169249 0.001500
v 0.042300 -0.168500 0.000751
v 0.042105 -0.169217 0.000783
v 0.041000 -0.169800 0.000751
v 0.041749 -0.169800 0.001500
v 0.041717 -0.169605 0.000783
v 0.041000 -0.168500 0.035000
v 0.041000 -0.170000 0.033500
v 0.042500 -0.168500 0.033500
v 0.041000 -0.169249 0.034800
v 0.041749 -0.168500 0.034800
v 0.041717 -0.169217 0.034605
v 0.041749 -0.169800 0.033500
v 0.041000 -0.169800 0.034249
v 0.041717 -0.169605 0.034217
v 0.042300 -0.168500 0.034249
v 0.042300 -0.169249 0.033500
v 0.042105 -0.169217 0.034217
v 0.041000 0.168500 0.000000
v 0.041000 0.170000 0.001500
v 0.042500 0.168500 0.001500
v 0.041000 0.169249 0.000200
v 0.041749 0.168500 0.000200
v 0.041717 0.169217 0.000395
v 0.041749 0.169800 0.001500
v 0.041000 0.169800 0.000751
v 0.041717 0.169605 0.000783
v 0.042300 0.168500 0.000751
v 0.042300 0.169249 0.001500
v 0.042105 0.169217 0.000783
v 0.041000 0.168500 0.035000
v 0.042500 0.168500 0.033500
v 0.041000 0.170000 0.033500
v 0.041749 0.168500 0.034800
v 0.041000 0.169249 0.034800
v 0.041717 0.169217 0.034605
v 0.042300 0.169249 0.033500
v 0.042300 0.168500 0.034249
v 0.042105 0.169217 0.034217
v 0.041000 0.169800 0.034249
v 0.041749 0.169800 0.033500
v 0.041717 0.169605 0.034217
v -0.020000 0.069198 0.035000
v -0.020000 0.070000 0.035800
v -0.020000 0.069764 0.035234
v -0.020000 0.069198 0.115000
v -0.020000 0.070000 0.114200
v -0.020000 0.069764 0.114766
v -0.018799 0.069120 0.035000
v -0.018695 0.069914 0.035800
v -0.018725 0.069681 0.035234
v -0.018799 0.069120 0.115000
v -0.018695 0.069914 0.114200
v -0.018725 0.069681 0.114766
v -0.017619 0.068885 0.035000
v -0.017412 0.069659 0.035800
v -0.017473 0.069432 0.035234
v -0.017619 0.068885 0.115000
v -0.017412 0.069659 0.114200
v -0.017473 0.069432 0.114766
v -0.016480 0.068498 0.035000
v -0.016173 0.069239 0.035800
v -0.016263 0.069021 0.035234
v -0.016480 0.068498 0.115000
v -0.016173 0.069239 0.114200
v -0.016263 0.069021 0.114766
v -0.015401 0.067966 0.035000
v -0.015000 0.068660 0.035800
v -0.015118 0.068456 0.035234
v -0.015401 0.067966 0.115000
v -0.015000 0.068660 0.114200
v -0.015118 0.068456 0.114766
v -0.014400 0.067297 0.035000
v -0.013912 0.067934 0.035800
v -0.014056 0.067747 0.035234
v -0.014400 0.067297 0.115000
v -0.013912 0.067934 0.114200
v -0.014056 0.067747 0.114766
v -0.013496 0.066504 0.035000
v -0.012929 0.067071 0.035800
v -0.013095 0.066905 0.035234
v -0.013496 0.066504 0.115000
v -0.012929 0.067071 0.114200
v -0.013095 0.066905 0.114766
v -0.012703 0.065600 0.035000
v -0.012066 0.066088 0.035800
v -0.012253 0.065944 0.035234
v -0.012703 0.065600 0.115000
v -0.012066 0.066088 0.114200
v -0.012253 0.065944 0.114766
v -0.012034 0.064599 0.035000
v -0.011340 0.065000 0.035800
v -0.011544 0.064882 0.035234
v -0.012034 0.064599 0.115000
v -0.011340 0.065000 0.114200
v -0.011544 0.064882 0.114766
v -0.011502 0.063520 0.035000
v -0.010761 0.063827 0.035800
v -0.010979 0.063737 0.035234
v -0.011502 0.063520 0.115000
v -0.010761 0.063827 0.114200
v -0.010979 0.063737 0.114766
v -0.011115 0.062381 0.035000
v -0.010341 0.062588 0.035800
v -0.010568 0.062527 0.035234
v -0.011115 0.062381 0.115000
v -0.010341 0.062588 0.114200
v -0.010568 0.062527 0.114766
v -0.010880 0.061201 0.035000
v -0.010086 0.061305 0.035800
v -0.010319 0.061275 0.035234
v -0.010880 0.061201 0.115000
v -0.010086 0.061305 0.114200
v -0.010319 0.061275 0.114766
v -0.010802 0.060000 0.035000
v -0.010000 0.060000 0.035800
v -0.010236 0.060000 0.035234
v -0.010802 0.060000 0.115000
v -0.010000 0.060000 0.114200
v -0.010236 0.060000 0.114766
v -0.010880 0.058799 0.035000
v -0.010086 0.058695 0.035800
v -0.010319 0.058725 0.035234
v -0.010880 0.058799 0.115000
v -0.010086 0.058695 0.114200
v -0.010319 0.058725 0.114766
v -0.011115 0.057619 0.035000
v -0.010341 0.057412 0.035800
v -0.010568 0.057473 0.035234
v -0.011115 0.057619 0.115000
v -0.010341 0.057412 0.114200
v -0.010568 0.057473 0.114766
v -0.011502 0.056480 0.035000
v -0.010761 0.056173 0.035800
v -0.010979 0.056263 0.035234
v -0.011502 0.056480 0.115000
v -0.010761 0.056173 0.114200
v -0.010979 0.056263 0.114766
v -0.012034 0.055401 0.035000
v -0.011340 0.055000 0.035800
v -0.011544 0.055118 0.035234
v -0.012034 0.055401 0.115000
v -0.011340 0.055000 0.114200
v -0.011544 0.055118 0.114766
v -0.012703 0.054400 0.035000
v -0.012066 0.053912 0.035800
v -0.012253 0.054056 0.035234
v -0.012703 0.054400 0.115000
v -0.012066 0.053912 0.114200
v -0.012253 0.054056 0.114766
v -0.013496 0.053496 0.035000
v -0.012929 0.052929 0.035800
v -0.013095 0.053095 0.035234
v -0.013496 0.053496 0.115000
v -0.012929 0.052929 0.114200
v -0.013095 0.053095 0.114766
v -0.014400 0.052703 0.035000
v -0.013912 0.052066 0.035800
v -0.014056 0.052253 0.035234
v -0.014400 0.052703 0.115000
v -0.013912 0.052066 0.114200
v -0.014056 0.052253 0.114766
v -0.015401 0.052034 0.035000
v -0.015000 0.051340 0.035800
v -0.015118 0.051544 0.035234
v -0.015401 0.052034 0.115000
v -0.015000 0.051340 0.114200
v -0.015118 0.051544 0.114766
v -0.016480 0.051502 0.035000
v -0.016173 0.050761 0.035800
v -0.016263 0.050979 0.035234
v -0.016480 0.051502 0.115000
v -0.016173 0.050761 0.114200
v -0.016263 0.050979 0.114766
v -0.017619 0.051115 0.035000
v -0.017412 0.050341 0.035800
v -0.017473 0.050568 0.035234
v -0.017619 0.051115 0.115000
v -0.017412 0.050341 0.114200
v -0.017473 0.050568 0.114766
v -0.018799 0.050880 0.035000
v -0.018695 0.050086 0.035800
v -0.018725 0.050319 0.035234
v -0.018799 0.050880 0.115000
v -0.018695 0.050086 0.114200
v -0.018725 0.050319 0.114766
v -0.020000 0.050802 0.035000
v -0.020000 0.050000 0.035800
v -0.020000 0.050236 0.035234
v -0.020000 0.050802 0.115000
v -0.020000 0.050000 0.114200
v -0.020000 0.050236 0.114766
v -0.021201 0.050880 0.035000
v -0.021305 0.050086 0.035800
v -0.021275 0.050319 0.035234
v -0.021201 0.050880 0.115000
v -0.021305 0.050086 0.114200
v -0.021275 0.050319 0.114766
v -0.022381 0.051115 0.035000
v -0.022588 0.050341 0.035800
v -0.022527 0.050568 0.035234
v -0.022381 0.051115 0.115000
v -0.022588 0.050341 0.114200
v -0.022527 0.050568 0.114766
v -0.023520 0.051502 0.035000
v -0.023827 0.050761 0.035800
v -0.023737 0.050979 0.035234
v -0.023520 0.051502 0.115000
v -0.023827 0.050761 0.114200
v -0.023737 0.050979 0.114766
v -0.024599 0.052034 0.035000
v -0.025000 0.051340 0.035800
v -0.024882 0.051544 0.035234
v -0.024599 0.052034 0.115000
v -0.025000 0.051340 0.114200
v -0.024882 0.051544 0.114766
v -0.025600 0.052703 0.035000
v -0.026088 0.052066 0.035800
v -0.025944 0.052253 0.035234
v -0.025600 0.052703 0.115000
v -0.026088 0.052066 0.114200
v -0.025944 0.052253 0.114766
v -0.026504 0.053496 0.035000
v -0.027071 0.052929 0.035800
v -0.026905 0.053095 0.035234
v -0.026504 0.053496 0.115000
v -0.027071 0.052929 0.114200
v -0.026905 0.053095 0.114766
v -0.027297 0.054400 0.035000
v -0.027934 0.053912 0.035800
v -0.027747 0.054056 0.035234
v -0.027297 0.054400 0.115000
v -0.027934 0.053912 0.114200
v -0.027747 0.054056 0.114766
v -0.027966 0.055401 0.035000
v -0.028660 0.055000 0.035800
v -0.028456 0.055118 0.035234
v -0.027966 0.055401 0.115000
v -0.028660 0.055000 0.114200
v -0.028456 0.055118 0.114766
v -0.028498 0.056480 0.035000
v -0.029239 0.056173 0.035800
v -0.029021 0.056263 0.035234
v -0.028498 0.056480 0.115000
v -0.029239 0.056173 0.114200
v -0.029021 0.056263 0.114766
v -0.028885 0.057619 0.035000
v -0.029659 0.057412 0.035800
v -0.029432 0.057473 0.035234
v -0.028885 0.057619 0.115000
v -0.029659 0.057412 0.114200
v -0.029432 0.057473 0.114766
v -0.029120 0.058799 0.035000
v -0.029914 0.058695 0.035800
v -0.029681 0.058725 0.035234
v -0.029120 0.058799 0.115000
v -0.029914 0.058695 0.114200
v -0.029681 0.058725 0.114766
v -0.029198 0.060000 0.035000
v -0.030000 0.060000 0.035800
v -0.029764 0.060000 0.035234
v -0.029198 0.060000 0.115000
v -0.030000 0.060000 0.114200
v -0.029764 0.060000 0.114766
v -0.029120 0.061201 0.035000
v -0.029914 0.061305 0.035800
v -0.029681 0.061275 0.035234
v -0.029120 0.061201 0.115000
v -0.029914 0.061305 0.114200
v -0.029681 0.061275 0.114766
v -0.028885 0.062381 0.035000
v -0.029659 0.062588 0.035800
v -0.029432 0.062527 0.035234
v -0.028885 0.062381 0.115000
v -0.029659 0.062588 0.114200
v -0.029432 0.062527 0.114766
v -0.028498 0.063520 0.035000
v -0.029239 0.063827 0.035800
v -0.029021 0.063737 0.035234
v -0.028498 0.063520 0.115000
v -0.029239 0.063827 0.114200
v -0.029021 0.063737 0.114766
v -0.027966 0.064599 0.035000
v -0.028660 0.065000 0.035800
v -0.028456 0.064882 0.035234
v -0.027966 0.064599 0.115000
v -0.028660 0.065000 0.114200
v -0.028456 0.064882 0.114766
v -0.027297 0.065600 0.035000
v -0.027934 0.066088 0.035800
v -0.027747 0.065944 0.035234
v -0.027297 0.065600 0.115000
v -0.027934 0.066088 0.114200
v -0.027747 0.065944 0.114766
v -0.026504 0.066504 0.035000
v -0.027071 0.067071 0.035800
v -0.026905 0.066905 0.035234
v -0.026504 0.066504 0.115000
v -0.027071 0.067071 0.114200
v -0.026905 0.066905 0.114766
v -0.025600 0.067297 0.035000
v -0.026088 0.067934 0.035800
v -0.025944 0.067747 0.035234
v -0.025600 0.067297 0.115000
v -0.026088 0.067934 0.114200
v -0.025944 0.067747 0.114766
v -0.024599 0.067966 0.035000
v -0.025000 0.068660 0.035800
v -0.024882 0.068456 0.035234
v -0.024599 0.067966 0.115000
v -0.025000 0.068660 0.114200
v -0.024882 0.068456 0.114766
v -0.023520 0.068498 0.035000
v -0.023827 0.069239 0.035800
v -0.023737 0.069021 0.035234
v -0.023520 0.068498 0.115000
v -0.023827 0.069239 0.114200
v -0.023737 0.069021 0.114766
v -0.022381 0.068885 0.035000
v -0.022588 0.069659 0.035800
v -0.022527 0.069432 0.035234
v -0.022381 0.068885 0.115000
v -0.022588 0.069659 0.114200
v -0.022527 0.069432 0.114766
v -0.021201 0.069120 0.035000
v -0.021305 0.069914 0.035800
v -0.021275 0.069681 0.035234
v -0.021201 0.069120 0.115000
v -0.021305 0.069914 0.114200
v -0.021275 0.069681 0.114766
v 0.020000 0.063679 0.035000
v 0.020000 0.064000 0.035320
v 0.020000 0.063906 0.035094
v 0.020000 0.063679 0.095000
v 0.020000 0.064000 0.094680
v 0.020000 0.063906 0.094906
v 0.020480 0.063648 0.035000
v 0.020522 0.063966 0.035320
v 0.020510 0.063872 0.035094
v 0.020480 0.063648 0.095000
v 0.020522 0.063966 0.094680
v 0.020510 0.063872 0.094906
v 0.020952 0.063554 0.035000
v 0.021035 0.063864 0.035320
v 0.021011 0.063773 0.035094
v 0.020952 0.063554 0.095000
v 0.021035 0.063864 0.094680
v 0.021011 0.063773 0.094906
v 0.021408 0.063399 0.035000
v 0.021531 0.063696 0.035320
v 0.021495 0.063608 0.035094
v 0.021408 0.063399 0.095000
v 0.021531 0.063696 0.094680
v 0.021495 0.063608 0.094906
v 0.021840 0.063186 0.035000
v 0.022000 0.063464 0.035320
v 0.021953 0.063383 0.035094
v 0.021840 0.063186 0.095000
v 0.022000 0.063464 0.094680
v 0.021953 0.063383 0.094906
v 0.022240 0.062919 0.035000
v 0.022435 0.063173 0.035320
v 0.022378 0.063099 0.035094
v 0.022240 0.062919 0.095000
v 0.022435 0.063173 0.094680
v 0.022378 0.063099 0.094906
v 0.022602 0.062602 0.035000
v 0.022828 0.062828 0.035320
v 0.022762 0.062762 0.035094
v 0.022602 0.062602 0.095000
v 0.022828 0.062828 0.094680
v 0.022762 0.062762 0.094906
v 0.022919 0.062240 0.035000
v 0.023173 0.062435 0.035320
v 0.023099 0.062378 0.035094
v 0.022919 0.062240 0.095000
v 0.023173 0.062435 0.094680
v 0.023099 0.062378 0.094906
v 0.023186 0.061840 0.035000
v 0.023464 0.062000 0.035320
v 0.023383 0.061953 0.035094
v 0.023186 0.061840 0.095000
v 0.023464 0.062000 0.094680
v 0.023383 0.061953 0.094906
v 0.023399 0.061408 0.035000
v 0.023696 0.061531 0.035320
v 0.023608 0.061495 0.035094
v 0.023399 0.061408 0.095000
v 0.023696 0.061531 0.094680
v 0.023608 0.061495 0.094906
v 0.023554 0.060952 0.035000
v 0.023864 0.061035 0.035320
v 0.023773 0.061011 0.035094
v 0.023554 0.060952 0.095000
v 0.023864 0.061035 0.094680
v 0.023773 0.061011 0.094906
v 0.023648 0.060480 0.035000
v 0.023966 0.060522 0.035320
v 0.023872 0.060510 0.035094
v 0.023648 0.060480 0.095000
v 0.023966 0.060522 0.094680
v 0.023872 0.060510 0.094906
v 0.023679 0.060000 0.035000
v 0.024000 0.060000 0.035320
v 0.023906 0.060000 0.035094
v 0.023679 0.060000 0.095000
v 0.024000 0.060000 0.094680
v 0.023906 0.060000 0.094906
v 0.023648 0.059520 0.035000
v 0.023966 0.059478 0.035320
v 0.023872 0.059490 0.035094
v 0.023648 0.059520 0.095000
v 0.023966 0.059478 0.094680
v 0.023872 0.059490 0.094906
v 0.023554 0.059048 0.035000
v 0.023864 0.058965 0.035320
v 0.023773 0.058989 0.035094
v 0.023554 0.059048 0.095000
v 0.023864 0.058965 0.094680
v 0.023773 0.058989 0.094906
v 0.023399 0.058592 0.035000
v 0.023696 0.058469 0.035320
v 0.023608 0.058505 0.035094
v 0.023399 0.058592 0.095000
v 0.023696 0.058469 0.094680
v 0.023608 0.058505 0.094906
v 0.023186 0.058160 0.035000
v 0.023464 0.058000 0.035320
v 0.023383 0.058047 0.035094
v 0.023186 0.058160 0.095000
v 0.023464 0.058000 0.094680
v 0.023383 0.058047 0.094906
v 0.022919 0.057760 0.035000
v 0.023173 0.057565 0.035320
v 0.023099 0.057622 0.035094
v 0.022919 0.057760 0.095000
v 0.023173 0.057565 0.094680
v 0.023099 0.057622 0.094906
v 0.022602 0.057398 0.035000
v 0.022828 0.057172 0.035320
v 0.022762 0.057238 0.035094
v 0.022602 0.057398 0.095000
v 0.022828 0.057172 0.094680
v 0.022762 0.057238 0.094906
v 0.022240 0.057081 0.035000
v 0.022435 0.056827 0.035320
v 0.022378 0.056901 0.035094
v 0.022240 0.057081 0.095000
v 0.022435 0.056827 0.094680
v 0.022378 0.056901 0.094906
v 0.021840 0.056814 0.035000
v 0.022000 0.056536 0.035320
v 0.021953 0.056617 0.035094
v 0.021840 0.056814 0.095000
v 0.022000 0.056536 0.094680
v 0.021953 0.056617 0.094906
v 0.021408 0.056601 0.035000
v 0.021531 0.056304 0.035320
v 0.021495 0.056392 0.035094
v 0.021408 0.056601 0.095000
v 0.021531 0.056304 0.094680
v 0.021495 0.056392 0.094906
v 0.020952 0.056446 0.035000
v 0.021035 0.056136 0.035320
v 0.021011 0.056227 0.035094
v 0.020952 0.056446 0.095000
v 0.021035 0.056136 0.094680
v 0.021011 0.056227 0.094906
v 0.020480 0.056352 0.035000
v 0.020522 0.056034 0.035320
v 0.020510 0.056128 0.035094
v 0.020480 0.056352 0.095000
v 0.020522 0.056034 0.094680
v 0.020510 0.056128 0.094906
v 0.020000 0.056321 0.035000
v 0.020000 0.056000 0.035320
v 0.020000 0.056094 0.035094
v 0.020000 0.056321 0.095000
v 0.020000 0.056000 0.094680
v 0.020000 0.056094 0.094906
v 0.019520 0.056352 0.035000
v 0.019478 0.056034 0.035320
v 0.019490 0.056128 0.035094
v 0.019520 0.056352 0.095000
v 0.019478 0.056034 0.094680
v 0.019490 0.056128 0.094906
v 0.019048 0.056446 0.035000
v 0.018965 0.056136 0.035320
v 0.018989 0.056227 0.035094
v 0.019048 0.056446 0.095000
v 0.018965 0.056136 0.094680
v 0.018989 0.056227 0.094906
v 0.018592 0.056601 0.035000
v 0.018469 0.056304 0.035320
v 0.018505 0.056392 0.035094
v 0.018592 0.056601 0.095000
v 0.018469 0.056304 0.094680
v 0.018505 0.056392 0.094906
v 0.018160 0.056814 0.035000
v 0.018000 0.056536 0.035320
v 0.018047 0.056617 0.035094
v 0.018160 0.056814 0.095000
v 0.018000 0.056536 0.094680
v 0.018047 0.056617 0.094906
v 0.017760 0.057081 0.035000
v 0.017565 0.056827 0.035320
v 0.017622 0.056901 0.035094
v 0.017760 0.057081 0.095000
v 0.017565 0.056827 0.094680
v 0.017622 0.056901 0.094906
v 0.017398 0.057398 0.035000
v 0.017172 0.057172 0.035320
v 0.017238 0.057238 0.035094
v 0.017398 0.057398 0.095000
v 0.017172 0.057172 0.094680
v 0.017238 0.057238 0.094906
v 0.017081 0.057760 0.035000
v 0.016827 0.057565 0.035320
v 0.016901 0.057622 0.035094
v 0.017081 0.057760 0.095000
v 0.016827 0.057565 0.094680
v 0.016901 0.057622 0.094906
v 0.016814 0.058160 0.035000
v 0.016536 0.058000 0.035320
v 0.016617 0.058047 0.035094
v 0.016814 0.058160 0.095000
v 0.016536 0.058000 0.094680
v 0.016617 0.058047 0.094906
v 0.016601 0.058592 0.035000
v 0.016304 0.058469 0.035320
v 0.016392 0.058505 0.035094
v 0.016601 0.058592 0.095000
v 0.016304 0.058469 0.094680
v 0.016392 0.058505 0.094906
v 0.016446 0.059048 0.035000
v 0.016136 0.058965 0.035320
v 0.016227 0.058989 0.035094
v 0.016446 0.059048 0.095000
v 0.016136 0.058965 0.094680
v 0.016227 0.058989 0.094906
v 0.016352 0.059520 0.035000
v 0.016034 0.059478 0.035320
v 0.016128 0.059490 0.035094
v 0.016352 0.059520 0.095000
v 0.016034 0.059478 0.094680
v 0.016128 0.059490 0.094906
v 0.016321 0.060000 0.035000
v 0.016000 0.060000 0.035320
v 0.016094 0.060000 0.035094
v 0.016321 0.060000 0.095000
v 0.016000 0.060000 0.094680
v 0.016094 0.060000 0.094906
v 0.016352 0.060480 0.035000
v 0.016034 0.060522 0.035320
v 0.016128 0.060510 0.035094
v 0.016352 0.060480 0.095000
v 0.016034 0.060522 0.094680
v 0.016128 0.060510 0.094906
v 0.016446 0.060952 0.035000
v 0.016136 0.061035 0.035320
v 0.016227 0.061011 0.035094
v 0.016446 0.060952 0.095000
v 0.016136 0.061035 0.094680
v 0.016227 0.061011 0.094906
v 0.016601 0.061408 0.035000
v 0.016304 0.061531 0.035320
v 0.016392 0.061495 0.035094
v 0.016601 0.061408 0.095000
v 0.016304 0.061531 0.094680
v 0.016392 0.061495 0.094906
v 0.016814 0.061840 0.035000
v 0.016536 0.062000 0.035320
v 0.016617 0.061953 0.035094
v 0.016814 0.061840 0.095000
v 0.016536 0.062000 0.094680
v 0.016617 0.061953 0.094906
v 0.017081 0.062240 0.035000
v 0.016827 0.062435 0.035320
v 0.016901 0.062378 0.035094
v 0.017081 0.062240 0.095000
v 0.016827 0.062435 0.094680
v 0.016901 0.062378 0.094906
v 0.017398 0.062602 0.035000
v 0.017172 0.062828 0.035320
v 0.017238 0.062762 0.035094
v 0.017398 0.062602 0.095000
v 0.017172 0.062828 0.094680
v 0.017238 0.062762 0.094906
v 0.017760 0.062919 0.035000
v 0.017565 0.063173 0.035320
v 0.017622 0.063099 0.035094
v 0.017760 0.062919 0.095000
v 0.017565 0.063173 0.094680
v 0.017622 0.063099 0.094906
v 0.018160 0.063186 0.035000
v 0.018000 0.063464 0.035320
v 0.018047 0.063383 0.035094
v 0.018160 0.063186 0.095000
v 0.018000 0.063464 0.094680
v 0.018047 0.063383 0.094906
v 0.018592 0.063399 0.035000
v 0.018469 0.063696 0.035320
v 0.018505 0.063608 0.035094
v 0.018592 0.063399 0.095000
v 0.018469 0.063696 0.094680
v 0.018505 0.063608 0.094906
v 0.019048 0.063554 0.035000
v 0.018965 0.063864 0.035320
v 0.018989 0.063773 0.035094
v 0.019048 0.063554 0.095000
v 0.018965 0.063864 0.094680
v 0.018989 0.063773 0.094906
v 0.019520 0.063648 0.035000
v 0.019478 0.063966 0.035320
v 0.019490 0.063872 0.035094
v 0.019520 0.063648 0.095000
v 0.019478 0.063966 0.094680
v 0.019490 0.063872 0.094906
vn -0.2502 -0.2502 -0.9353
vn -0.2178 -0.6902 -0.6901
vn -0.2502 -0.9353 -0.2502
vn -0.6902 -0.6901 -0.2178
vn -0.9353 -0.2502 -0.2502
vn -0.6901 -0.2178 -0.6901
vn -0.5773 -0.5773 -0.5774
vn -0.2502 -0.9353 0.2502
vn -0.2178 -0.6901 0.6902
vn -0.2502 -0.2502 0.9353
vn -0.6901 -0.2178 0.6901
vn -0.9353 -0.2502 0.2502
vn -0.6901 -0.6901 0.2178
vn -0.5773 -0.5773 0.5774
vn -0.2502 0.2502 -0.9353
vn -0.6901 0.2178 -0.6901
vn -0.9353 0.2502 -0.2502
vn -0.6901 0.6901 -0.2178
vn -0.2502 0.9353 -0.2502
vn -0.2178 0.6901 -0.6902
vn -0.5773 0.5773 -0.5774
vn -0.2502 0.2502 0.9353
vn -0.2178 0.6901 0.6901
vn -0.2502 0.9353 0.2502
vn -0.6902 0.6901 0.2178
vn -0.9353 0.2502 0.2502
vn -0.6901 0.2178 0.6901
vn -0.5773 0.5773 0.5774
vn 0.2502 -0.2502 -0.9353
vn 0.6901 -0.2178 -0.6901
vn 0.9353 -0.2502 -0.2502
vn 0.6901 -0.6901 -0.2178
vn 0.2502 -0.9353 -0.2502
vn 0.2178 -0.6901 -0.6902
vn 0.5773 -0.5773 -0.5774
vn 0.2502 -0.2502 0.9353
vn 0.2178 -0.6901 0.6901
vn 0.2502 -0.9353 0.2502
vn 0.6902 -0.6901 0.2178
vn 0.9353 -0.2502 0.2502
vn 0.6901 -0.2178 0.6901
vn 0.5773 -0.5773 0.5774
vn 0.2502 0.2502 -0.9353
vn 0.2178 0.6902 -0.6901
vn 0.2502 0.9353 -0.2502
vn 0.6902 0.6901 -0.2178
vn 0.9353 0.2502 -0.2502
vn 0.6901 0.2178 -0.6901
vn 0.5773 0.5773 -0.5774
vn 0.2502 0.2502 0.9353
vn 0.6901 0.2178 0.6901
vn 0.9353 0.2502 0.2502
vn 0.6901 0.6901 0.2178
vn 0.2502 0.9353 0.2502
vn 0.2178 0.6901 0.6902
vn 0.5773 0.5773 0.5774
vn -0.2585 -0.0000 -0.9660
vn -0.7071 -0.0000 -0.7071
vn -0.9660 -0.0000 -0.2585
vn -0.2584 -0.9660 -0.0000
vn -0.7071 -0.7071 -0.0000
vn -0.9660 -0.2584 -0.0000
vn -0.2585 -0.0000 0.9660
vn -0.7071 -0.0000 0.7071
vn -0.9660 -0.0000 0.2585
vn -0.2584 0.9660 -0.0000
vn -0.7071 0.7071 -0.0000
vn -0.9660 0.2585 -0.0000
vn -0.0000 0.2585 -0.9660
vn -0.0000 0.7071 -0.7071
vn -0.0000 0.9660 -0.2585
vn -0.0000 0.2585 0.9660
vn -0.0000 0.7071 0.7071
vn -0.0000 0.9660 0.2585
vn 0.9660 0.2585 -0.0000
vn 0.7071 0.7071 -0.0000
vn 0.2584 0.9660 -0.0000
vn 0.2585 -0.0000 -0.9660
vn 0.7071 -0.0000 -0.7071
vn 0.9660 -0.0000 -0.2585
vn 0.2585 -0.0000 0.9660
vn 0.7071 -0.0000 0.7071
vn 0.9660 -0.0000 0.2585
vn 0.2584 -0.9660 -0.0000
vn 0.7071 -0.7071 -0.0000
vn 0.9660 -0.2585 -0.0000
vn -0.0000 -0.2585 -0.9660
vn -0.0000 -0.7071 -0.7071
vn -0.0000 -0.9660 -0.2585
vn -0.0000 -0.2585 0.9660
vn -0.0000 -0.7071 0.7071
vn -0.0000 -0.9660 0.2585
vn -0.0000 -0.0000 -1.0000
vn -1.0000 -0.0000 -0.0000
vn -0.0000 -1.0000 -0.0000
vn -0.0000 -0.0000 1.0000
vn -0.0000 1.0000 -0.0000
vn 1.0000 -0.0000 -0.0000
vn 0.0604 0.9215 -0.3837
vn 0.0251 0.3823 -0.9237
vn 0.0604 0.9215 0.3837
vn 0.0251 0.3823 0.9237
vn 0.1802 0.9057 -0.3837
vn 0.0747 0.3757 -0.9237
vn 0.1802 0.9057 0.3837
vn 0.0747 0.3757 0.9237
vn 0.2968 0.8745 -0.3837
vn 0.1231 0.3628 -0.9237
vn 0.2968 0.8745 0.3837
vn 0.1231 0.3628 0.9237
vn 0.4084 0.8282 -0.3837
vn 0.1694 0.3436 -0.9237
vn 0.4084 0.8282 0.3837
vn 0.1694 0.3436 0.9237
vn 0.5131 0.7678 -0.3837
vn 0.2128 0.3185 -0.9237
vn 0.5130 0.7678 0.3837
vn 0.2128 0.3185 0.9237
vn 0.6089 0.6943 -0.3837
vn 0.2526 0.2880 -0.9237
vn 0.6089 0.6943 0.3837
vn 0.2526 0.2880 0.9237
vn 0.6943 0.6089 -0.3837
vn 0.2880 0.2526 -0.9237
vn 0.6943 0.6089 0.3837
vn 0.2880 0.2526 0.9237
vn 0.7678 0.5131 -0.3837
vn 0.3185 0.2128 -0.9237
vn 0.7678 0.5130 0.3837
vn 0.3185 0.2128 0.9237
vn 0.8282 0.4084 -0.3837
vn 0.3436 0.1694 -0.9237
vn 0.8282 0.4084 0.3837
vn 0.3436 0.1694 0.9237
vn 0.8745 0.2968 -0.3837
vn 0.3628 0.1231 -0.9237
vn 0.8745 0.2968 0.3837
vn 0.3628 0.1231 0.9237
vn 0.9057 0.1802 -0.3837
vn 0.3757 0.0747 -0.9237
vn 0.9057 0.1802 0.3837
vn 0.3757 0.0747 0.9237
vn 0.9215 0.0604 -0.3837
vn 0.3823 0.0251 -0.9237
vn 0.9215 0.0604 0.3837
vn 0.3823 0.0251 0.9237
vn 0.9215 -0.0604 -0.3837
vn 0.3823 -0.0251 -0.9237
vn 0.9215 -0.0604 0.3837
vn 0.3823 -0.0251 0.9237
vn 0.9057 -0.1802 -0.3837
vn 0.3757 -0.0747 -0.9237
vn 0.9057 -0.1802 0.3837
vn 0.3757 -0.0747 0.9237
vn 0.8745 -0.2968 -0.3837
vn 0.3628 -0.1231 -0.9237
vn 0.8745 -0.2968 0.3837
vn 0.3628 -0.1231 0.9237
vn 0.8282 -0.4084 -0.3837
vn 0.3436 -0.1694 -0.9237
vn 0.8282 -0.4084 0.3837
vn 0.3436 -0.1694 0.9237
vn 0.7678 -0.5131 -0.3837
vn 0.3185 -0.2128 -0.9237
vn 0.7678 -0.5130 0.3837
vn 0.3185 -0.2128 0.9237
vn 0.6943 -0.6089 -0.3837
vn 0.2880 -0.2526 -0.9237
vn 0.6943 -0.6089 0.3837
vn 0.2880 -0.2526 0.9237
vn 0.6089 -0.6943 -0.3837
vn 0.2526 -0.2880 -0.9237
vn 0.6089 -0.6943 0.3837
vn 0.2526 -0.2880 0.9237
vn 0.5131 -0.7678 -0.3837
vn 0.2128 -0.3185 -0.9237
vn 0.5130 -0.7678 0.3837
vn 0.2128 -0.3185 0.9237
vn 0.4084 -0.8282 -0.3837
vn 0.1694 -0.3436 -0.9237
vn 0.4084 -0.8282 0.3837
vn 0.1694 -0.3436 0.9237
vn 0.2968 -0.8745 -0.3837
vn 0.1231 -0.3628 -0.9237
vn 0.2968 -0.8745 0.3837
vn 0.1231 -0.3628 0.9237
vn 0.1802 -0.9057 -0.3837
vn 0.0747 -0.3757 -0.9237
vn 0.1802 -0.9057 0.3837
vn 0.0747 -0.3757 0.9237
vn 0.0604 -0.9215 -0.3837
vn 0.0251 -0.3823 -0.9237
vn 0.0604 -0.9215 0.3837
vn 0.0251 -0.3823 0.9237
vn -0.0604 -0.9215 -0.3837
vn -0.0251 -0.3823 -0.9237
vn -0.0604 -0.9215 0.3837
vn -0.0251 -0.3823 0.9237
vn -0.1802 -0.9057 -0.3837
vn -0.0747 -0.3757 -0.9237
vn -0.1802 -0.9057 0.3837
vn -0.0747 -0.3757 0.9237
vn -0.2968 -0.8745 -0.3837
vn -0.1231 -0.3628 -0.9237
vn -0.2968 -0.8745 0.3837
vn -0.1231 -0.3628 0.9237
vn -0.4084 -0.8282 -0.3837
vn -0.1694 -0.3436 -0.9237
vn -0.4084 -0.8282 0.3837
vn -0.1694 -0.3436 0.9237
vn -0.5131 -0.7678 -0.3837
vn -0.2128 -0.3185 -0.9237
vn -0.5130 -0.7678 0.3837
vn -0.2128 -0.3185 0.9237
vn -0.6089 -0.6943 -0.3837
vn -0.2526 -0.2880 -0.9237
vn -0.6089 -0.6943 0.3837
vn -0.2526 -0.2880 0.9237
vn -0.6943 -0.6089 -0.3837
vn -0.2880 -0.2526 -0.9237
vn -0.6943 -0.6089 0.3837
vn -0.2880 -0.2526 0.9237
vn -0.7678 -0.5131 -0.3837
vn -0.3185 -0.2128 -0.9237
vn -0.7678 -0.5130 0.3837
vn -0.3185 -0.2128 0.9237
vn -0.8282 -0.4084 -0.3837
vn -0.3436 -0.1694 -0.9237
vn -0.8282 -0.4084 0.3837
vn -0.3436 -0.1694 0.9237
vn -0.8745 -0.2968 -0.3837
vn -0.3628 -0.1231 -0.9237
vn -0.8745 -0.2968 0.3837
vn -0.3628 -0.1231 0.9237
vn -0.9057 -0.1802 -0.3837
vn -0.3757 -0.0747 -0.9237
vn -0.9057 -0.1802 0.3837
vn -0.3757 -0.0747 0.9237
vn -0.9215 -0.0604 -0.3837
vn -0.3823 -0.0251 -0.9237
vn -0.9215 -0.0604 0.3837
vn -0.3823 -0.0251 0.9237
vn -0.9215 0.0604 -0.3837
vn -0.3823 0.0251 -0.9237
vn -0.9215 0.0604 0.3837
vn -0.3823 0.0251 0.9237
vn -0.9057 0.1802 -0.3837
vn -0.3757 0.0747 -0.9237
vn -0.9057 0.1802 0.3837
vn -0.3757 0.0747 0.9237
vn -0.8745 0.2968 -0.3837
vn -0.3628 0.1231 -0.9237
vn -0.8745 0.2968 0.3837
vn -0.3628 0.1231 0.9237
vn -0.8282 0.4084 -0.3837
vn -0.3436 0.1694 -0.9237
vn -0.8282 0.4084 0.3837
vn -0.3436 0.1694 0.9237
vn -0.7678 0.5130 -0.3837
vn -0.3185 0.2128 -0.9237
vn -0.7678 0.5131 0.3837
vn -0.3185 0.2128 0.9237
vn -0.6943 0.6089 -0.3837
vn -0.2880 0.2526 -0.9237
vn -0.6943 0.6089 0.3837
vn -0.2880 0.2526 0.9237
vn -0.6089 0.6943 -0.3837
vn -0.2526 0.2880 -0.9237
vn -0.6089 0.6943 0.3837
vn -0.2526 0.2880 0.9237
vn -0.5131 0.7678 -0.3837
vn -0.2128 0.3185 -0.9237
vn -0.5131 0.7678 0.3837
vn -0.2128 0.3185 0.9237
vn -0.4084 0.8282 -0.3837
vn -0.1694 0.3436 -0.9237
vn -0.4085 0.8282 0.3837
vn -0.1694 0.3436 0.9237
vn -0.2968 0.8745 -0.3837
vn -0.1231 0.3628 -0.9237
vn -0.2968 0.8745 0.3837
vn -0.1231 0.3628 0.9237
vn -0.1802 0.9057 -0.3837
vn -0.0747 0.3757 -0.9237
vn -0.1802 0.9057 0.3837
vn -0.0747 0.3757 0.9237
vn -0.0604 0.9215 -0.3837
vn -0.0251 0.3823 -0.9237
vn -0.0604 0.9215 0.3837
vn -0.0251 0.3823 0.9237
vn 0.0654 0.9979 -0.0000
vn -0.0654 0.9979 -0.0000
vn 0.1951 0.9808 -0.0000
vn 0.3214 0.9469 -0.0000
vn 0.4423 0.8969 -0.0000
vn 0.5556 0.8315 -0.0000
vn 0.6593 0.7518 -0.0000
vn 0.7518 0.6593 -0.0000
vn 0.8315 0.5556 -0.0000
vn 0.8969 0.4423 -0.0000
vn 0.9469 0.3214 -0.0000
vn 0.9808 0.1951 -0.0000
vn 0.9979 0.0654 -0.0000
vn 0.9979 -0.0654 -0.0000
vn 0.9808 -0.1951 -0.0000
vn 0.9469 -0.3214 -0.0000
vn 0.8969 -0.4423 -0.0000
vn 0.8315 -0.5556 -0.0000
vn 0.7518 -0.6593 -0.0000
vn 0.6593 -0.7518 -0.0000
vn 0.5556 -0.8315 -0.0000
vn 0.4423 -0.8969 -0.0000
vn 0.3214 -0.9469 -0.0000
vn 0.1951 -0.9808 -0.0000
vn 0.0654 -0.9979 -0.0000
vn -0.0654 -0.9979 -0.0000
vn -0.1951 -0.9808 -0.0000
vn -0.3214 -0.9469 -0.0000
vn -0.4423 -0.8969 -0.0000
vn -0.5556 -0.8315 -0.0000
vn -0.6593 -0.7518 -0.0000
vn -0.7518 -0.6593 -0.0000
vn -0.8315 -0.5556 -0.0000
vn -0.8969 -0.4423 -0.0000
vn -0.9469 -0.3214 -0.0000
vn -0.9808 -0.1951 -0.0000
vn -0.9979 -0.0654 -0.0000
vn -0.9979 0.0654 -0.0000
vn -0.9808 0.1951 -0.0000
vn -0.9469 0.3214 -0.0000
vn -0.8969 0.4423 -0.0000
vn -0.8315 0.5556 -0.0000
vn -0.7518 0.6593 -0.0000
vn -0.6593 0.7518 -0.0000
vn -0.5556 0.8315 -0.0000
vn -0.4423 0.8969 -0.0000
vn -0.3214 0.9469 -0.0000
vn -0.1951 0.9808 -0.0000
vn 0.1802 0.9057 0.3836
vn 0.1231 0.3627 -0.9237
vn 0.2969 0.8745 0.3837
vn 0.5130 0.7678 -0.3837
vn 0.5131 0.7678 0.3837
vn 0.6089 0.6943 0.3836
vn 0.7679 0.5130 0.3837
vn 0.8282 0.4085 -0.3837
vn 0.3822 -0.0251 -0.9237
vn 0.3758 -0.0747 0.9237
vn 0.7679 -0.5130 -0.3837
vn 0.7678 -0.5131 0.3837
vn 0.5131 -0.7678 0.3837
vn 0.4085 -0.8282 -0.3837
vn 0.2969 -0.8745 0.3837
vn 0.0604 -0.9215 -0.3836
vn 0.0251 -0.3822 -0.9237
vn -0.0250 -0.3823 -0.9237
vn -0.1231 -0.3627 -0.9237
vn -0.2969 -0.8745 0.3837
vn -0.4085 -0.8282 0.3837
vn -0.5131 -0.7678 0.3837
vn -0.2129 -0.3185 0.9237
vn -0.7678 -0.5130 -0.3837
vn -0.7678 -0.5131 0.3837
vn -0.3186 -0.2128 0.9237
vn -0.3627 -0.1231 -0.9237
vn -0.3758 -0.0747 0.9237
vn -0.3822 -0.0251 0.9237
vn -0.3758 0.0747 0.9237
vn -0.8745 0.2968 0.3836
vn -0.7678 0.5130 0.3837
vn -0.2881 0.2526 0.9237
vn -0.6089 0.6943 -0.3836
vn -0.5130 0.7678 0.3837
vn -0.4085 0.8282 -0.3836
vn -0.4084 0.8282 0.3837
vn -0.1232 0.3628 -0.9237
vn -0.2969 0.8745 0.3837
vn -0.1231 0.3627 0.9237
vn -0.1802 0.9057 -0.3836
vn -0.1801 0.9057 0.3837
vn 0.7518 -0.6594 -0.0000
vn -0.6594 -0.7518 -0.0000
vn -0.2635 -0.2635 -0.9280
vn -0.2178 -0.6901 -0.6902
vn -0.2635 -0.9280 -0.2635
vn -0.6901 -0.6901 -0.2178
vn -0.9280 -0.2635 -0.2635
vn -0.2635 -0.9280 0.2634
vn -0.2178 -0.6901 0.6901
vn -0.2635 -0.2635 0.9280
vn -0.9280 -0.2635 0.2635
vn -0.6902 -0.6901 0.2178
vn -0.2635 0.2635 -0.9280
vn -0.9280 0.2635 -0.2635
vn -0.6902 0.6901 -0.2178
vn -0.2635 0.9280 -0.2635
vn -0.2178 0.6902 -0.6901
vn -0.2635 0.2635 0.9280
vn -0.2178 0.6901 0.6902
vn -0.2635 0.9280 0.2635
vn -0.6901 0.6901 0.2178
vn -0.9280 0.2635 0.2635
vn 0.2635 -0.2635 -0.9280
vn 0.9280 -0.2635 -0.2635
vn 0.6902 -0.6901 -0.2178
vn 0.2635 -0.9280 -0.2635
vn 0.2178 -0.6902 -0.6901
vn 0.2635 -0.2635 0.9280
vn 0.2178 -0.6901 0.6902
vn 0.2635 -0.9280 0.2635
vn 0.6901 -0.6901 0.2178
vn 0.9280 -0.2635 0.2635
vn 0.2635 0.2635 -0.9280
vn 0.2178 0.6901 -0.6902
vn 0.2635 0.9280 -0.2635
vn 0.6901 0.6901 -0.2178
vn 0.9280 0.2635 -0.2635
vn 0.2635 0.2635 0.9280
vn 0.9280 0.2635 0.2635
vn 0.6902 0.6901 0.2178
vn 0.2635 0.9280 0.2634
vn 0.2178 0.6901 0.6901
vn -0.9660 -0.2585 -0.0000
vn 0.9660 0.2584 -0.0000
vn 0.4085 0.8282 0.3837
vn 0.7678 0.5130 -0.3837
vn 0.7678 0.5131 0.3837
vn 0.8745 0.2969 0.3837
vn 0.8745 -0.2969 0.3837
vn 0.1232 -0.3628 0.9237
vn -0.1232 -0.3628 0.9237
vn -0.8282 -0.4085 0.3837
vn -0.8744 -0.2969 0.3837
vn -0.7678 0.5131 -0.3837
vn -0.0001 -0.0000 1.0000
vn 0.0001 -0.0000 1.0000
vn 0.1802 0.9057 -0.3836
vn 0.1801 0.9057 0.3837
vn 0.1232 0.3628 -0.9237
vn 0.4085 0.8282 -0.3836
vn 0.4085 0.8283 0.3836
vn 0.6089 0.6943 -0.3836
vn 0.2881 0.2526 0.9237
vn 0.7679 0.5130 -0.3837
vn 0.3627 0.1231 -0.9237
vn 0.3627 0.1231 0.9237
vn 0.3758 0.0747 0.9237
vn 0.3822 -0.0251 0.9237
vn 0.3627 -0.1231 -0.9237
vn 0.3627 -0.1231 0.9237
vn 0.3186 -0.2128 0.9237
vn 0.4085 -0.8282 0.3837
vn 0.1231 -0.3627 -0.9237
vn 0.0250 -0.3823 -0.9237
vn 0.0604 -0.9215 0.3836
vn -0.0604 -0.9215 -0.3836
vn -0.0604 -0.9215 0.3836
vn -0.4085 -0.8282 -0.3837
vn -0.1695 -0.3436 0.9237
vn -0.2881 -0.2526 0.9237
vn -0.3627 -0.1231 0.9237
vn -0.3822 -0.0251 -0.9237
vn -0.3627 0.1231 -0.9237
vn -0.8744 0.2968 0.3837
vn -0.3627 0.1231 0.9237
vn -0.8282 0.4085 -0.3837
vn -0.6089 0.6943 0.3836
vn -0.5130 0.7678 -0.3837
vn -0.4085 0.8282 0.3836
vn -0.1231 0.3627 -0.9237
vn -0.1802 0.9057 0.3836
vn -0.0001 -0.0000 -1.0000
vn 0.0001 -0.0000 -1.0000
vn -0.0002 -0.0000 1.0000
vn 0.0002 -0.0000 1.0000
vn 0.7518 0.6594 -0.0000
vt -0.012500 -1.615613
vt -0.021863 -1.606250
vt -0.012500 -1.606250
vt -0.021466 -1.620062
vt -0.021466 -1.615216
vt -0.021863 0.300000
vt -0.012500 0.290637
vt -0.012500 0.300000
vt -1.622495 0.300000
vt -1.615216 0.291034
vt -1.620062 0.291034
vt -1.606250 0.290637
vt -1.615613 0.300000
vt -1.606250 0.300000
vt -0.026312 -1.615216
vt -0.028745 -1.606250
vt -0.012500 0.709363
vt -0.021863 0.700000
vt -0.012500 0.700000
vt -0.012500 -1.622495
vt -1.615613 0.700000
vt -1.606250 0.709363
vt -1.606250 0.700000
vt -1.622495 0.700000
vt -1.615216 0.708966
vt -0.021863 2.606250
vt -0.012500 2.615613
vt -0.012500 2.606250
vt -0.026312 2.615216
vt -0.021466 2.615216
vt 2.615613 0.300000
vt 2.606250 0.290637
vt 2.606250 0.300000
vt 2.622495 0.300000
vt 2.615216 0.291034
vt -0.012500 2.622495
vt -0.021466 2.620062
vt 2.622495 0.700000
vt 2.615216 0.708966
vt 2.620062 0.708966
vt 2.606250 0.709363
vt 2.615613 0.700000
vt 2.606250 0.700000
vt -0.028745 2.606250
vt 1.021863 -1.606250
vt 1.012500 -1.615613
vt 1.012500 -1.606250
vt 1.026312 -1.615216
vt 1.021466 -1.615216
vt 1.012500 0.290637
vt 1.021863 0.300000
vt 1.012500 0.300000
vt 1.012500 -1.622495
vt 1.021466 -1.620062
vt 1.021863 0.700000
vt 1.012500 0.709363
vt 1.012500 0.700000
vt -1.620062 0.708966
vt 1.028745 -1.606250
vt 1.012500 2.615613
vt 1.021863 2.606250
vt 1.012500 2.606250
vt 1.021466 2.620062
vt 1.021466 2.615216
vt 2.620062 0.291034
vt 1.026312 2.615216
vt 1.028745 2.606250
vt 1.012500 2.622495
vt 0.104847 0.975749
vt 0.088944 0.982708
vt 0.088755 0.975749
vt 0.755959 0.132032
vt 0.764842 0.146251
vt 0.758010 0.147610
vt 0.088755 0.011268
vt 0.104657 0.004309
vt 0.104847 0.011268
vt 0.762077 0.411138
vt 0.764842 0.394601
vt 0.768673 0.408899
vt 0.120236 0.982708
vt 0.104657 0.982708
vt 0.762910 0.116774
vt 0.762910 0.131576
vt 0.120236 0.004309
vt 0.120801 0.011268
vt 0.774337 0.422574
vt 0.768090 0.425654
vt 0.136345 0.975749
vt 0.120801 0.975749
vt 0.758010 0.100740
vt 0.755959 0.116319
vt 0.135413 0.004309
vt 0.136345 0.011268
vt 0.775946 0.439262
vt 0.781738 0.435392
vt 0.151212 0.975749
vt 0.135413 0.982708
vt 0.768672 0.087802
vt 0.764842 0.102099
vt 0.151212 0.011268
vt 0.149930 0.004309
vt 0.790749 0.447135
vt 0.785512 0.451728
vt 0.165147 0.975749
vt 0.149930 0.982708
vt 0.768090 0.071046
vt 0.762077 0.085563
vt 0.165147 0.011268
vt 0.163538 0.004309
vt 0.801215 0.457602
vt 0.796622 0.462839
vt 0.177914 0.975749
vt 0.163538 0.982708
vt 0.781738 0.061308
vt 0.774337 0.074127
vt 0.177914 0.011268
vt 0.176004 0.004309
vt 0.812958 0.466612
vt 0.809088 0.472404
vt 0.189293 0.975749
vt 0.176004 0.982708
vt 0.785512 0.044972
vt 0.775946 0.057438
vt 0.187114 0.004309
vt 0.189293 0.011268
vt 0.822696 0.480260
vt 0.825777 0.474013
vt 0.222056 0.975749
vt 0.211200 0.982708
vt 0.209290 0.975749
vt 0.796622 0.033862
vt 0.790748 0.049565
vt 0.222056 0.011268
vt 0.211200 0.004309
vt 0.223666 0.004309
vt 0.837213 0.486273
vt 0.839452 0.479678
vt 0.235992 0.975749
vt 0.223666 0.982708
vt 0.812958 0.030088
vt 0.801215 0.039099
vt 0.235992 0.011268
vt 0.237274 0.004309
vt 0.853749 0.483509
vt 0.852390 0.490340
vt 0.250859 0.975749
vt 0.237274 0.982708
vt 0.822696 0.016440
vt 0.809088 0.024296
vt 0.251790 0.004309
vt 0.250859 0.011268
vt 0.867969 0.492391
vt 0.868424 0.485441
vt 0.266403 0.975749
vt 0.251790 0.982708
vt 0.839452 0.017023
vt 0.825777 0.022687
vt 0.266403 0.011268
vt 0.266968 0.004309
vt 0.883226 0.485441
vt 0.883682 0.492391
vt 0.282357 0.975749
vt 0.266968 0.982708
vt 0.837213 0.010427
vt 0.853749 0.013192
vt 0.282357 0.011268
vt 0.282546 0.004309
vt 0.897901 0.483509
vt 0.899260 0.490340
vt 0.298259 0.982708
vt 0.282546 0.982708
vt 0.852390 0.006360
vt 0.868424 0.011260
vt 0.298259 0.004309
vt 0.298449 0.011268
vt 0.912198 0.479678
vt 0.914437 0.486273
vt 0.298449 0.975749
vt 0.313838 0.982708
vt 0.883681 0.004309
vt 0.867968 0.004309
vt 0.313838 0.004309
vt 0.314403 0.011268
vt 0.925873 0.474013
vt 0.928954 0.480260
vt 0.329946 0.975749
vt 0.314403 0.975749
vt 0.897901 0.013192
vt 0.883226 0.011260
vt 0.329015 0.004309
vt 0.329946 0.011268
vt 0.938692 0.466612
vt 0.942562 0.472404
vt 0.344813 0.975749
vt 0.329015 0.982708
vt 0.899260 0.006360
vt 0.912198 0.017022
vt 0.343532 0.004309
vt 0.344813 0.011268
vt 0.950435 0.457602
vt 0.955028 0.462838
vt 0.358749 0.975749
vt 0.343532 0.982708
vt 0.914437 0.010427
vt 0.925873 0.022687
vt 0.357140 0.004309
vt 0.358749 0.011268
vt 0.960902 0.447135
vt 0.966138 0.451728
vt 0.371516 0.975749
vt 0.357140 0.982708
vt 0.928954 0.016440
vt 0.938692 0.030088
vt 0.369605 0.004309
vt 0.371516 0.011268
vt 0.969912 0.435392
vt 0.975704 0.439262
vt 0.380716 0.982708
vt 0.369605 0.982708
vt 0.942562 0.024296
vt 0.950435 0.039098
vt 0.380716 0.004309
vt 0.382894 0.011268
vt 0.977313 0.422573
vt 0.983560 0.425654
vt 0.391513 0.975749
vt 0.404802 0.982708
vt 0.393691 0.982708
vt 0.955028 0.033862
vt 0.960901 0.049565
vt 0.391513 0.011268
vt 0.404802 0.004309
vt 0.402891 0.011268
vt 0.982978 0.408898
vt 0.989573 0.411137
vt 0.415658 0.975749
vt 0.402891 0.975749
vt 0.975704 0.057438
vt 0.966138 0.044972
vt 0.417268 0.004309
vt 0.415658 0.011268
vt 0.993640 0.395960
vt 0.986808 0.394601
vt 0.430875 0.982708
vt 0.417268 0.982708
vt 0.977313 0.074127
vt 0.969912 0.061308
vt 0.430875 0.004309
vt 0.429594 0.011268
vt 0.988741 0.379926
vt 0.995691 0.380381
vt 0.444461 0.975749
vt 0.429594 0.975749
vt 0.989573 0.085563
vt 0.983560 0.071046
vt 0.444461 0.011268
vt 0.445392 0.004309
vt 0.988741 0.365124
vt 0.995691 0.364669
vt 0.460570 0.982708
vt 0.445392 0.982708
vt 0.993640 0.100740
vt 0.982978 0.087802
vt 0.460570 0.004309
vt 0.460004 0.011268
vt 0.993640 0.349090
vt 0.986808 0.350449
vt 0.460004 0.975749
vt 0.476148 0.982708
vt 0.988741 0.116774
vt 0.986808 0.102099
vt 0.476148 0.004309
vt 0.475959 0.011268
vt 0.989573 0.333913
vt 0.982977 0.336152
vt 0.492050 0.975749
vt 0.475959 0.975749
vt 0.995691 0.132031
vt 0.995691 0.116319
vt 0.491861 0.004309
vt 0.492050 0.011268
vt 0.983560 0.319396
vt 0.977313 0.322477
vt 0.507439 0.982708
vt 0.491861 0.982708
vt 0.986809 0.146251
vt 0.988741 0.131576
vt 0.508005 0.011268
vt 0.507439 0.004309
vt 0.969912 0.309658
vt 0.975704 0.305788
vt 0.508005 0.975749
vt 0.522617 0.982708
vt 0.993640 0.147610
vt 0.982978 0.160548
vt 0.522617 0.004309
vt 0.523548 0.011268
vt 0.960901 0.297915
vt 0.966138 0.293322
vt 0.538415 0.975749
vt 0.523548 0.975749
vt 0.989573 0.162787
vt 0.977313 0.174223
vt 0.538415 0.011268
vt 0.537134 0.004309
vt 0.955028 0.282212
vt 0.950435 0.287449
vt 0.552351 0.975749
vt 0.537134 0.982708
vt 0.975704 0.190912
vt 0.983560 0.177304
vt 0.550741 0.004309
vt 0.552351 0.011268
vt 0.942562 0.272646
vt 0.938692 0.278438
vt 0.563207 0.982708
vt 0.550741 0.982708
vt 0.966138 0.203378
vt 0.969912 0.187042
vt 0.563207 0.004309
vt 0.565118 0.011268
vt 0.928954 0.264790
vt 0.925873 0.271037
vt 0.586502 0.975749
vt 0.575646 0.982708
vt 0.573736 0.975749
vt 0.955028 0.214488
vt 0.960902 0.198785
vt 0.573736 0.011268
vt 0.588112 0.004309
vt 0.586502 0.011268
vt 0.914437 0.258777
vt 0.912198 0.265373
vt 0.601720 0.982708
vt 0.588112 0.982708
vt 0.938692 0.218262
vt 0.950435 0.209252
vt 0.601720 0.004309
vt 0.600438 0.011268
vt 0.897901 0.261542
vt 0.899260 0.254710
vt 0.615305 0.975749
vt 0.600438 0.975749
vt 0.928954 0.231910
vt 0.942562 0.224054
vt 0.616237 0.004309
vt 0.615305 0.011268
vt 0.883681 0.252659
vt 0.883226 0.259610
vt 0.630849 0.975749
vt 0.616237 0.982708
vt 0.912198 0.231328
vt 0.925874 0.225663
vt 0.630849 0.011268
vt 0.631414 0.004309
vt 0.868424 0.259610
vt 0.867968 0.252659
vt 0.646803 0.975749
vt 0.631414 0.982708
vt 0.899260 0.241990
vt 0.914437 0.237923
vt 0.646993 0.004309
vt 0.646803 0.011268
vt 0.852390 0.254710
vt 0.853749 0.261542
vt 0.662705 0.982708
vt 0.646993 0.982708
vt 0.883682 0.244041
vt 0.897901 0.235159
vt 0.662705 0.004309
vt 0.662895 0.011268
vt 0.839452 0.265373
vt 0.837213 0.258777
vt 0.678849 0.975749
vt 0.662895 0.975749
vt 0.868424 0.237091
vt 0.883226 0.237091
vt 0.678284 0.004309
vt 0.678849 0.011268
vt 0.825777 0.271037
vt 0.822696 0.264790
vt 0.694393 0.975749
vt 0.678284 0.982708
vt 0.852390 0.241990
vt 0.867969 0.244041
vt 0.693461 0.004309
vt 0.694393 0.011268
vt 0.812958 0.278438
vt 0.809088 0.272647
vt 0.707978 0.982708
vt 0.693461 0.982708
vt 0.837213 0.237923
vt 0.853749 0.235159
vt 0.707978 0.004309
vt 0.709260 0.011268
vt 0.796622 0.282212
vt 0.801215 0.287449
vt 0.709260 0.975749
vt 0.721586 0.982708
vt 0.822696 0.231910
vt 0.839452 0.231328
vt 0.721586 0.004309
vt 0.723196 0.011268
vt 0.785512 0.293323
vt 0.790748 0.297915
vt 0.735962 0.975749
vt 0.723196 0.975749
vt 0.812958 0.218262
vt 0.825777 0.225663
vt 0.735962 0.011268
vt 0.734052 0.004309
vt 0.781738 0.309658
vt 0.775946 0.305788
vt 0.745162 0.982708
vt 0.734052 0.982708
vt 0.796623 0.214488
vt 0.809088 0.224054
vt 0.745162 0.004309
vt 0.747341 0.011268
vt 0.768090 0.319396
vt 0.774337 0.322477
vt 0.015688 0.975749
vt 0.030064 0.982708
vt 0.017598 0.982708
vt 0.785512 0.203378
vt 0.801215 0.209252
vt 0.015688 0.011268
vt 0.030064 0.004309
vt 0.028454 0.011268
vt 0.768672 0.336152
vt 0.762077 0.333913
vt 0.028454 0.975749
vt 0.043672 0.982708
vt 0.775946 0.190912
vt 0.790749 0.198785
vt 0.043672 0.004309
vt 0.042390 0.011268
vt 0.758010 0.349090
vt 0.764841 0.350449
vt 0.042390 0.975749
vt 0.058189 0.982708
vt 0.774337 0.174223
vt 0.781738 0.187042
vt 0.058189 0.004309
vt 0.057257 0.011268
vt 0.755959 0.364669
vt 0.762909 0.365124
vt 0.072801 0.975749
vt 0.057257 0.975749
vt 0.768090 0.177304
vt 0.768673 0.160548
vt 0.072801 0.011268
vt 0.073366 0.004309
vt 0.755959 0.380382
vt 0.762910 0.379926
vt 0.073366 0.982708
vt 0.762077 0.162787
vt 0.088944 0.004309
vt 0.758010 0.395960
vt 0.197911 0.011268
vt 0.197911 0.975749
vt 0.209290 0.011268
vt 0.382894 0.975749
vt 0.565118 0.975749
vt 0.004309 0.011268
vt 0.004309 0.975749
vt 0.265385 0.993279
vt 0.256661 0.997039
vt 0.256763 0.993279
vt 0.401906 0.071981
vt 0.406706 0.079665
vt 0.403014 0.080400
vt 0.256763 0.006721
vt 0.265079 0.002961
vt 0.265385 0.006721
vt 0.405212 0.224072
vt 0.406706 0.215136
vt 0.408776 0.222862
vt 0.273281 0.997039
vt 0.265079 0.997039
vt 0.405662 0.063736
vt 0.405662 0.071735
vt 0.273281 0.002961
vt 0.273784 0.006721
vt 0.411837 0.230252
vt 0.408461 0.231917
vt 0.281818 0.993279
vt 0.273784 0.993279
vt 0.401906 0.063490
vt 0.406706 0.055806
vt 0.281818 0.006721
vt 0.281126 0.002961
vt 0.415837 0.237179
vt 0.412707 0.239271
vt 0.289349 0.993279
vt 0.281126 0.997039
vt 0.403014 0.055071
vt 0.408776 0.048080
vt 0.288479 0.002961
vt 0.289349 0.006721
vt 0.417876 0.246007
vt 0.420706 0.243525
vt 0.295216 0.997039
vt 0.288479 0.997039
vt 0.408461 0.039025
vt 0.405212 0.046870
vt 0.295216 0.002961
vt 0.296248 0.006721
vt 0.426362 0.249181
vt 0.423880 0.252011
vt 0.296248 0.993279
vt 0.301220 0.997039
vt 0.415837 0.033762
vt 0.411837 0.040690
vt 0.301220 0.002961
vt 0.302397 0.006721
vt 0.430617 0.257180
vt 0.432708 0.254051
vt 0.009110 0.993279
vt 0.004138 0.997039
vt 0.002961 0.993279
vt 0.417876 0.024935
vt 0.412707 0.031671
vt 0.009110 0.006721
vt 0.004138 0.002961
vt 0.010142 0.002961
vt 0.439635 0.258050
vt 0.437970 0.261426
vt 0.016878 0.997039
vt 0.010142 0.997039
vt 0.423880 0.018931
vt 0.420706 0.027417
vt 0.016878 0.002961
vt 0.016009 0.006721
vt 0.447025 0.261111
vt 0.445815 0.264675
vt 0.016009 0.993279
vt 0.024232 0.997039
vt 0.432708 0.016891
vt 0.426362 0.021761
vt 0.024232 0.002961
vt 0.023539 0.006721
vt 0.454751 0.263181
vt 0.454017 0.266873
vt 0.023539 0.993279
vt 0.032077 0.997039
vt 0.437970 0.009516
vt 0.430617 0.013762
vt 0.032077 0.002961
vt 0.031573 0.006721
vt 0.462681 0.264225
vt 0.462435 0.267981
vt 0.039973 0.993279
vt 0.031573 0.993279
vt 0.445815 0.006267
vt 0.439635 0.012892
vt 0.040279 0.002961
vt 0.039973 0.006721
vt 0.470680 0.264225
vt 0.470926 0.267981
vt 0.048697 0.997039
vt 0.040279 0.997039
vt 0.454017 0.004069
vt 0.447025 0.009831
vt 0.048697 0.002961
vt 0.048595 0.006721
vt 0.479345 0.266873
vt 0.478610 0.263181
vt 0.057291 0.993279
vt 0.048595 0.993279
vt 0.462681 0.006717
vt 0.454751 0.007761
vt 0.057291 0.006721
vt 0.057188 0.002961
vt 0.486337 0.261111
vt 0.487547 0.264675
vt 0.065912 0.993279
vt 0.057188 0.997039
vt 0.470926 0.002961
vt 0.462435 0.002961
vt 0.065912 0.006721
vt 0.065607 0.002961
vt 0.493727 0.258050
vt 0.495391 0.261426
vt 0.073809 0.997039
vt 0.065607 0.997039
vt 0.479345 0.004069
vt 0.470680 0.006717
vt 0.073809 0.002961
vt 0.074312 0.006721
vt 0.500654 0.254051
vt 0.502745 0.257180
vt 0.074312 0.993279
vt 0.081653 0.997039
vt 0.487547 0.006267
vt 0.478611 0.007761
vt 0.081653 0.002961
vt 0.082346 0.006721
vt 0.509481 0.252011
vt 0.507000 0.249181
vt 0.089877 0.993279
vt 0.082346 0.993279
vt 0.493727 0.012892
vt 0.486337 0.009831
vt 0.089007 0.002961
vt 0.089877 0.006721
vt 0.515486 0.246007
vt 0.512656 0.243525
vt 0.096776 0.993279
vt 0.089007 0.997039
vt 0.495391 0.009516
vt 0.500654 0.016891
vt 0.096776 0.006721
vt 0.095743 0.002961
vt 0.517525 0.237179
vt 0.520655 0.239271
vt 0.102925 0.993279
vt 0.095743 0.997039
vt 0.509481 0.018931
vt 0.502745 0.013762
vt 0.102925 0.006721
vt 0.101747 0.002961
vt 0.524900 0.231917
vt 0.521524 0.230252
vt 0.108846 0.993279
vt 0.116615 0.997039
vt 0.109878 0.997039
vt 0.515486 0.024935
vt 0.507000 0.021761
vt 0.108846 0.006721
vt 0.116615 0.002961
vt 0.115745 0.006721
vt 0.524585 0.222862
vt 0.528150 0.224072
vt 0.115745 0.993279
vt 0.123968 0.997039
vt 0.517525 0.033762
vt 0.512656 0.027417
vt 0.123968 0.002961
vt 0.123276 0.006721
vt 0.526656 0.215136
vt 0.530347 0.215871
vt 0.131310 0.993279
vt 0.123276 0.993279
vt 0.520655 0.031671
vt 0.521524 0.040690
vt 0.131813 0.002961
vt 0.131310 0.006721
vt 0.527700 0.207206
vt 0.531456 0.207452
vt 0.139709 0.993279
vt 0.131813 0.997039
vt 0.524900 0.039025
vt 0.524585 0.048080
vt 0.139709 0.006721
vt 0.140015 0.002961
vt 0.527700 0.199207
vt 0.531456 0.198961
vt 0.148433 0.997039
vt 0.140015 0.997039
vt 0.530347 0.055071
vt 0.528150 0.046870
vt 0.148433 0.002961
vt 0.148331 0.006721
vt 0.526656 0.191277
vt 0.530347 0.190542
vt 0.157027 0.993279
vt 0.148331 0.993279
vt 0.531456 0.063490
vt 0.526656 0.055806
vt 0.156925 0.002961
vt 0.157027 0.006721
vt 0.524585 0.183550
vt 0.528150 0.182341
vt 0.165649 0.993279
vt 0.156925 0.997039
vt 0.531456 0.071981
vt 0.527700 0.063736
vt 0.165343 0.002961
vt 0.165649 0.006721
vt 0.521524 0.176161
vt 0.524900 0.174496
vt 0.174048 0.993279
vt 0.165343 0.997039
vt 0.530347 0.080400
vt 0.527700 0.071735
vt 0.173545 0.002961
vt 0.174048 0.006721
vt 0.517525 0.169233
vt 0.520655 0.167142
vt 0.182082 0.993279
vt 0.173545 0.997039
vt 0.528150 0.088601
vt 0.526656 0.079665
vt 0.182082 0.006721
vt 0.181390 0.002961
vt 0.512656 0.162888
vt 0.515486 0.160406
vt 0.189613 0.993279
vt 0.181390 0.997039
vt 0.521524 0.094781
vt 0.524585 0.087391
vt 0.188743 0.002961
vt 0.189613 0.006721
vt 0.507000 0.157232
vt 0.509481 0.154402
vt 0.195480 0.997039
vt 0.188743 0.997039
vt 0.524900 0.096446
vt 0.517525 0.101709
vt 0.195480 0.002961
vt 0.196512 0.006721
vt 0.500654 0.152362
vt 0.502745 0.149233
vt 0.202661 0.993279
vt 0.196512 0.993279
vt 0.515486 0.110536
vt 0.520655 0.103800
vt 0.201484 0.002961
vt 0.202661 0.006721
vt 0.493727 0.148363
vt 0.495391 0.144987
vt 0.315217 0.993279
vt 0.309351 0.997039
vt 0.308319 0.993279
vt 0.507000 0.113710
vt 0.512656 0.108054
vt 0.315217 0.006721
vt 0.309351 0.002961
vt 0.316087 0.002961
vt 0.486337 0.145302
vt 0.487547 0.141738
vt 0.322748 0.993279
vt 0.316087 0.997039
vt 0.509481 0.116540
vt 0.500654 0.118580
vt 0.323441 0.002961
vt 0.322748 0.006721
vt 0.478611 0.143232
vt 0.479345 0.139540
vt 0.330782 0.993279
vt 0.323441 0.997039
vt 0.502745 0.121709
vt 0.493727 0.122579
vt 0.330782 0.006721
vt 0.331286 0.002961
vt 0.470680 0.142188
vt 0.470926 0.138432
vt 0.339488 0.997039
vt 0.331286 0.997039
vt 0.487547 0.129204
vt 0.495391 0.125955
vt 0.339488 0.002961
vt 0.339182 0.006721
vt 0.462435 0.138432
vt 0.462681 0.142188
vt 0.339182 0.993279
vt 0.347906 0.997039
vt 0.479345 0.131402
vt 0.486337 0.125640
vt 0.347906 0.002961
vt 0.347804 0.006721
vt 0.454017 0.139540
vt 0.454751 0.143232
vt 0.356500 0.993279
vt 0.347804 0.993279
vt 0.470680 0.128754
vt 0.478610 0.127710
vt 0.356500 0.006721
vt 0.356397 0.002961
vt 0.447025 0.145302
vt 0.445815 0.141738
vt 0.365121 0.993279
vt 0.356397 0.997039
vt 0.470926 0.132510
vt 0.462681 0.128754
vt 0.364816 0.002961
vt 0.365121 0.006721
vt 0.439635 0.148363
vt 0.437970 0.144987
vt 0.373521 0.993279
vt 0.364816 0.997039
vt 0.454017 0.131402
vt 0.462435 0.132510
vt 0.373017 0.002961
vt 0.373521 0.006721
vt 0.432708 0.152362
vt 0.430617 0.149233
vt 0.381555 0.993279
vt 0.373017 0.997039
vt 0.445815 0.129204
vt 0.454751 0.127710
vt 0.380862 0.002961
vt 0.381555 0.006721
vt 0.423880 0.154402
vt 0.426362 0.157232
vt 0.389086 0.993279
vt 0.380862 0.997039
vt 0.437970 0.125955
vt 0.447025 0.125640
vt 0.388216 0.002961
vt 0.389086 0.006721
vt 0.417876 0.160406
vt 0.420706 0.162888
vt 0.394952 0.997039
vt 0.388216 0.997039
vt 0.430617 0.121709
vt 0.439635 0.122579
vt 0.394952 0.002961
vt 0.395985 0.006721
vt 0.412707 0.167142
vt 0.415837 0.169233
vt 0.215481 0.993279
vt 0.209615 0.997039
vt 0.208582 0.993279
vt 0.426362 0.113710
vt 0.432708 0.118580
vt 0.215481 0.006721
vt 0.209615 0.002961
vt 0.216351 0.002961
vt 0.411837 0.176161
vt 0.408461 0.174496
vt 0.223012 0.993279
vt 0.216351 0.997039
vt 0.417876 0.110536
vt 0.423880 0.116540
vt 0.223012 0.006721
vt 0.223705 0.002961
vt 0.405212 0.182341
vt 0.408776 0.183550
vt 0.231549 0.997039
vt 0.223705 0.997039
vt 0.412707 0.103800
vt 0.420706 0.108054
vt 0.231549 0.002961
vt 0.231046 0.006721
vt 0.403014 0.190542
vt 0.406706 0.191277
vt 0.231046 0.993279
vt 0.239751 0.997039
vt 0.408461 0.096446
vt 0.415837 0.101709
vt 0.239751 0.002961
vt 0.239446 0.006721
vt 0.401906 0.198961
vt 0.405662 0.199207
vt 0.248067 0.993279
vt 0.239446 0.993279
vt 0.408776 0.087391
vt 0.411837 0.094781
vt 0.248067 0.006721
vt 0.248170 0.002961
vt 0.401906 0.207452
vt 0.405662 0.207206
vt 0.248170 0.997039
vt 0.405212 0.088601
vt 0.256661 0.002961
vt 0.403014 0.215870
vt 0.302397 0.993279
vt 0.002961 0.006721
vt 0.308319 0.006721
vt 0.395985 0.993279
vt 0.208582 0.006721
vt -0.021466 0.291034
vt -0.021466 0.708966
vt 1.021466 0.291034
vt 1.021466 0.708966
vt 0.187114 0.982708
vt 0.393691 0.004309
vt 0.575646 0.004309
vt 0.747341 0.975749
vt 0.017598 0.004309
vt 0.101747 0.997039
vt 0.109878 0.002961
vt 0.201484 0.997039
s 0
usemtl ARAT_light_maple
f 4/1/1 5/2/1 1/3/1
f 4/1/2 9/4/2 6/5/2
f 7/6/3 8/7/3 2/8/3
f 7/9/4 12/10/4 9/11/4
f 10/12/5 11/13/5 3/14/5
f 5/2/6 12/15/6 10/16/6
f 6/5/7 9/4/7 12/15/7
f 16/17/8 17/18/8 13/19/8
f 16/20/9 21/5/9 18/4/9
f 19/2/10 20/1/10 14/3/10
f 23/16/11 21/5/11 19/2/11
f 22/21/12 23/22/12 15/23/12
f 17/24/13 24/25/13 22/21/13
f 18/4/14 21/5/14 24/15/14
f 28/26/15 29/27/15 25/28/15
f 28/26/16 33/29/16 30/30/16
f 31/31/17 32/32/17 26/33/17
f 35/34/18 33/35/18 31/31/18
f 34/7/19 35/6/19 27/8/19
f 34/36/20 30/30/20 36/37/20
f 30/30/21 33/29/21 36/37/21
f 40/27/22 41/26/22 37/28/22
f 44/36/23 42/30/23 40/27/23
f 43/18/24 44/17/24 38/19/24
f 43/38/25 48/39/25 45/40/25
f 46/41/26 47/42/26 39/43/26
f 46/44/27 42/30/27 48/29/27
f 42/30/28 45/37/28 48/29/28
f 52/45/29 53/46/29 49/47/29
f 52/45/30 57/48/30 54/49/30
f 55/13/31 56/12/31 50/14/31
f 59/9/32 57/10/32 55/13/32
f 58/50/33 59/51/33 51/52/33
f 58/53/34 54/49/34 60/54/34
f 54/49/35 57/48/35 60/54/35
f 64/46/36 65/45/36 61/47/36
f 68/53/37 66/49/37 64/46/37
f 67/55/38 68/56/38 62/57/38
f 67/24/39 72/25/39 69/58/39
f 70/22/40 71/21/40 63/23/40
f 70/59/41 66/49/41 72/48/41
f 66/49/42 69/54/42 72/48/42
f 76/60/43 77/61/43 73/62/43
f 76/60/44 81/63/44 78/64/44
f 79/51/45 80/50/45 74/52/45
f 79/34/46 84/35/46 81/65/46
f 82/32/47 83/31/47 75/33/47
f 77/61/48 84/66/48 82/67/48
f 78/64/49 81/63/49 84/66/49
f 88/61/50 89/60/50 85/62/50
f 92/67/51 90/64/51 88/61/51
f 91/42/52 92/41/52 86/43/52
f 95/38/53 93/39/53 91/42/53
f 94/56/54 95/55/54 87/57/54
f 94/68/55 90/64/55 96/63/55
f 90/64/56 93/66/56 96/63/56
f 1/3/57 28/26/57 25/28/57
f 5/2/58 32/44/58 28/26/58
f 10/12/59 26/33/59 32/32/59
f 2/8/60 17/18/60 7/6/60
f 17/24/61 11/13/61 7/9/61
f 22/21/62 3/14/62 11/13/62
f 37/28/63 19/2/63 14/3/63
f 41/26/64 23/16/64 19/2/64
f 46/41/65 15/23/65 23/22/65
f 27/8/66 43/18/66 38/19/66
f 35/34/67 47/42/67 43/38/67
f 31/31/68 39/43/68 47/42/68
f 25/28/69 76/60/69 73/62/69
f 29/27/70 80/68/70 76/60/70
f 34/7/71 74/52/71 80/50/71
f 85/62/72 40/27/72 37/28/72
f 89/60/73 44/36/73 40/27/73
f 94/56/74 38/19/74 44/17/74
f 75/33/75 91/42/75 86/43/75
f 83/31/76 95/38/76 91/42/76
f 95/55/77 74/52/77 87/57/77
f 73/62/78 52/45/78 49/47/78
f 77/61/79 56/59/79 52/45/79
f 82/32/80 50/14/80 56/12/80
f 61/47/81 88/61/81 85/62/81
f 65/45/82 92/67/82 88/61/82
f 70/22/83 86/43/83 92/41/83
f 51/52/84 67/55/84 62/57/84
f 59/9/85 71/21/85 67/24/85
f 55/13/86 63/23/86 71/21/86
f 49/47/87 4/1/87 1/3/87
f 53/46/88 8/20/88 4/1/88
f 58/50/89 2/8/89 8/7/89
f 14/3/90 64/46/90 61/47/90
f 20/1/91 68/53/91 64/46/91
f 16/17/92 62/57/92 68/56/92
f 73/62/93 1/3/93 25/28/93
f 15/23/94 26/33/94 3/14/94
f 62/57/95 2/8/95 51/52/95
f 37/28/96 61/47/96 85/62/96
f 38/19/97 74/52/97 27/8/97
f 86/43/98 50/14/98 75/33/98
f 104/69/99 99/70/99 98/71/99
f 105/72/100 97/73/100 99/74/100
f 101/75/101 108/76/101 107/77/101
f 108/78/102 100/79/102 106/80/102
f 104/69/103 111/81/103 105/82/103
f 105/72/104 109/83/104 103/84/104
f 107/77/105 114/85/105 113/86/105
f 108/78/106 112/87/106 114/88/106
f 116/89/107 111/81/107 110/90/107
f 117/91/108 109/83/108 111/92/108
f 113/86/109 120/93/109 119/94/109
f 120/95/110 112/87/110 118/96/110
f 122/97/111 117/98/111 116/89/111
f 117/91/112 121/99/112 115/100/112
f 125/101/113 120/93/113 126/102/113
f 120/95/114 124/103/114 126/104/114
f 128/105/115 123/106/115 122/97/115
f 129/107/116 121/99/116 123/108/116
f 131/109/117 126/102/117 132/110/117
f 126/104/118 130/111/118 132/112/118
f 134/113/119 129/114/119 128/105/119
f 129/107/120 133/115/120 127/116/120
f 137/117/121 132/110/121 138/118/121
f 132/112/122 136/119/122 138/120/122
f 140/121/123 135/122/123 134/113/123
f 141/123/124 133/115/124 135/124/124
f 137/117/125 144/125/125 143/126/125
f 144/127/126 136/119/126 142/128/126
f 146/129/127 141/130/127 140/131/127
f 147/132/128 139/133/128 141/123/128
f 149/134/129 144/135/129 150/136/129
f 150/137/130 142/128/130 148/138/130
f 152/139/131 147/140/131 146/129/131
f 147/132/132 151/141/132 145/142/132
f 155/143/133 150/136/133 156/144/133
f 150/137/134 154/145/134 156/146/134
f 158/147/135 153/148/135 152/139/135
f 159/149/136 151/141/136 153/150/136
f 155/143/137 162/151/137 161/152/137
f 162/153/138 154/145/138 160/154/138
f 164/155/139 159/156/139 158/147/139
f 159/149/140 163/157/140 157/158/140
f 167/159/141 162/151/141 168/160/141
f 162/153/142 166/161/142 168/162/142
f 170/163/143 165/164/143 164/155/143
f 165/165/144 169/166/144 163/157/144
f 173/167/145 168/160/145 174/168/145
f 168/162/146 172/169/146 174/170/146
f 170/163/147 177/171/147 171/172/147
f 171/173/148 175/174/148 169/166/148
f 173/167/149 180/175/149 179/176/149
f 174/170/150 178/177/150 180/178/150
f 176/179/151 183/180/151 177/171/151
f 183/181/152 175/174/152 177/182/152
f 179/176/153 186/183/153 185/184/153
f 180/178/154 184/185/154 186/186/154
f 188/187/155 183/180/155 182/188/155
f 183/181/156 187/189/156 181/190/156
f 185/184/157 192/191/157 191/192/157
f 186/186/158 190/193/158 192/194/158
f 194/195/159 189/196/159 188/187/159
f 189/197/160 193/198/160 187/189/160
f 191/192/161 198/199/161 197/200/161
f 192/194/162 196/201/162 198/202/162
f 200/203/163 195/204/163 194/195/163
f 195/205/164 199/206/164 193/198/164
f 197/200/165 204/207/165 203/208/165
f 198/202/166 202/209/166 204/210/166
f 206/211/167 201/212/167 200/203/167
f 201/213/168 205/214/168 199/206/168
f 203/208/169 210/215/169 209/216/169
f 204/210/170 208/217/170 210/218/170
f 206/211/171 213/219/171 207/220/171
f 207/221/172 211/222/172 205/214/172
f 209/216/173 216/223/173 215/224/173
f 210/218/174 214/225/174 216/226/174
f 212/227/175 219/228/175 213/229/175
f 213/230/176 217/231/176 211/222/176
f 215/232/177 222/233/177 221/234/177
f 216/226/178 220/235/178 222/236/178
f 224/237/179 219/228/179 218/238/179
f 225/239/180 217/231/180 219/240/180
f 221/234/181 228/241/181 227/242/181
f 228/243/182 220/235/182 226/244/182
f 224/237/183 231/245/183 225/246/183
f 225/239/184 229/247/184 223/248/184
f 227/242/185 234/249/185 233/250/185
f 228/243/186 232/251/186 234/252/186
f 236/253/187 231/245/187 230/254/187
f 237/255/188 229/247/188 231/256/188
f 239/257/189 234/249/189 240/258/189
f 234/252/190 238/259/190 240/260/190
f 236/253/191 243/261/191 237/262/191
f 243/263/192 235/264/192 237/255/192
f 239/257/193 246/265/193 245/266/193
f 246/267/194 238/259/194 244/268/194
f 242/269/195 249/270/195 243/261/195
f 243/263/196 247/271/196 241/272/196
f 245/266/197 252/273/197 251/274/197
f 252/275/198 244/268/198 250/276/198
f 254/277/199 249/270/199 248/278/199
f 255/279/200 247/271/200 249/280/200
f 251/274/201 258/281/201 257/282/201
f 258/283/202 250/276/202 256/284/202
f 254/277/203 261/285/203 255/286/203
f 255/279/204 259/287/204 253/288/204
f 263/289/205 258/281/205 264/290/205
f 258/283/206 262/291/206 264/292/206
f 260/293/207 267/294/207 261/285/207
f 261/295/208 265/296/208 259/287/208
f 263/289/209 270/297/209 269/298/209
f 264/292/210 268/299/210 270/300/210
f 272/301/211 267/294/211 266/302/211
f 267/303/212 271/304/212 265/296/212
f 275/305/213 270/297/213 276/306/213
f 276/307/214 268/299/214 274/308/214
f 278/309/215 273/310/215 272/301/215
f 279/311/216 271/304/216 273/312/216
f 275/305/217 282/313/217 281/314/217
f 282/315/218 274/308/218 280/316/218
f 278/309/219 285/317/219 279/318/219
f 285/319/220 277/320/220 279/311/220
f 281/314/221 288/321/221 287/322/221
f 288/323/222 280/316/222 286/324/222
f 290/325/223 285/326/223 284/327/223
f 291/328/224 283/329/224 285/319/224
f 287/330/225 294/331/225 293/332/225
f 294/333/226 286/324/226 292/334/226
f 290/325/227 297/335/227 291/336/227
f 291/328/228 295/337/228 289/338/228
f 293/332/229 300/339/229 299/340/229
f 294/333/230 298/341/230 300/342/230
f 302/343/231 297/335/231 296/344/231
f 303/345/232 295/337/232 297/346/232
f 299/340/233 306/347/233 305/348/233
f 306/349/234 298/341/234 304/350/234
f 308/351/235 303/352/235 302/343/235
f 303/345/236 307/353/236 301/354/236
f 311/355/237 306/347/237 312/356/237
f 306/349/238 310/357/238 312/358/238
f 314/359/239 309/360/239 308/351/239
f 315/361/240 307/353/240 309/362/240
f 311/355/241 318/363/241 317/364/241
f 318/365/242 310/357/242 316/366/242
f 314/359/243 321/367/243 315/368/243
f 321/369/244 313/370/244 315/361/244
f 317/364/245 324/371/245 323/372/245
f 318/365/246 322/373/246 324/374/246
f 326/375/247 321/367/247 320/376/247
f 321/369/248 325/377/248 319/378/248
f 323/372/249 330/379/249 329/380/249
f 324/374/250 328/381/250 330/382/250
f 332/383/251 327/384/251 326/375/251
f 333/385/252 325/377/252 327/386/252
f 329/380/253 336/387/253 335/388/253
f 330/382/254 334/389/254 336/390/254
f 332/383/255 339/391/255 333/392/255
f 339/393/256 331/394/256 333/385/256
f 335/388/257 342/395/257 341/396/257
f 342/397/258 334/389/258 340/398/258
f 338/399/259 345/400/259 339/391/259
f 345/401/260 337/402/260 339/393/260
f 341/396/261 348/403/261 347/404/261
f 348/405/262 340/398/262 346/406/262
f 350/407/263 345/400/263 344/408/263
f 345/401/264 349/409/264 343/410/264
f 353/411/265 348/403/265 354/412/265
f 348/405/266 352/413/266 354/414/266
f 350/407/267 357/415/267 351/416/267
f 357/417/268 349/409/268 351/418/268
f 353/411/269 360/419/269 359/420/269
f 360/421/270 352/413/270 358/422/270
f 356/423/271 363/424/271 357/425/271
f 363/426/272 355/427/272 357/417/272
f 359/428/273 366/429/273 365/430/273
f 360/421/274 364/431/274 366/432/274
f 362/433/275 369/434/275 363/424/275
f 369/435/276 361/436/276 363/426/276
f 365/430/277 372/437/277 371/438/277
f 372/439/278 364/431/278 370/440/278
f 368/441/279 375/442/279 369/434/279
f 369/435/280 373/443/280 367/444/280
f 371/438/281 378/445/281 377/446/281
f 378/447/282 370/440/282 376/448/282
f 380/449/283 375/442/283 374/450/283
f 375/451/284 379/452/284 373/443/284
f 383/453/285 378/445/285 384/454/285
f 384/455/286 376/448/286 382/456/286
f 98/71/287 381/457/287 380/449/287
f 99/74/288 379/452/288 381/458/288
f 383/453/289 102/459/289 101/75/289
f 102/460/290 382/456/290 100/79/290
f 187/189/93 283/329/93 379/452/93
f 101/75/291 104/69/291 98/71/291
f 383/453/292 98/71/292 380/449/292
f 304/350/96 208/217/96 112/87/96
f 107/77/293 110/90/293 104/69/293
f 113/86/294 116/89/294 110/90/294
f 119/94/295 122/97/295 116/89/295
f 125/101/296 128/105/296 122/97/296
f 131/109/297 134/113/297 128/105/297
f 137/461/298 140/131/298 134/462/298
f 143/463/299 146/129/299 140/131/299
f 149/134/300 152/139/300 146/129/300
f 155/143/301 158/147/301 152/139/301
f 161/152/302 164/155/302 158/147/302
f 167/159/303 170/163/303 164/155/303
f 173/167/304 176/179/304 170/163/304
f 179/176/305 182/188/305 176/179/305
f 185/184/306 188/187/306 182/188/306
f 191/192/307 194/195/307 188/187/307
f 197/200/308 200/203/308 194/195/308
f 203/208/309 206/211/309 200/203/309
f 209/216/310 212/464/310 206/211/310
f 215/232/311 218/238/311 212/227/311
f 221/234/312 224/237/312 218/238/312
f 227/242/313 230/254/313 224/237/313
f 233/250/314 236/253/314 230/254/314
f 239/257/315 242/269/315 236/253/315
f 245/266/316 248/278/316 242/269/316
f 251/274/317 254/277/317 248/278/317
f 257/282/318 260/293/318 254/277/318
f 263/289/319 266/302/319 260/293/319
f 269/298/320 272/301/320 266/302/320
f 275/305/321 278/309/321 272/301/321
f 281/314/322 284/465/322 278/309/322
f 287/330/323 290/325/323 284/327/323
f 293/332/324 296/344/324 290/325/324
f 299/340/325 302/343/325 296/344/325
f 305/348/326 308/351/326 302/343/326
f 311/355/327 314/359/327 308/351/327
f 317/364/328 320/376/328 314/359/328
f 323/372/329 326/375/329 320/376/329
f 329/380/330 332/383/330 326/375/330
f 335/388/331 338/399/331 332/383/331
f 341/396/332 344/408/332 338/399/332
f 347/404/333 350/407/333 344/408/333
f 353/466/334 356/423/334 350/467/334
f 359/428/335 362/433/335 356/423/335
f 365/430/336 368/441/336 362/433/336
f 371/438/337 374/450/337 368/441/337
f 377/446/338 380/449/338 374/450/338
f 392/468/99 387/469/99 386/470/99
f 393/471/100 385/472/100 387/473/100
f 389/474/101 396/475/101 395/476/101
f 396/477/102 388/478/102 394/479/102
f 392/468/103 399/480/103 393/481/103
f 393/471/104 397/482/104 391/483/104
f 395/476/339 402/484/339 401/485/339
f 396/477/106 400/486/106 402/487/106
f 404/488/107 399/480/107 398/489/107
f 399/490/340 403/491/340 397/482/340
f 407/492/341 402/484/341 408/493/341
f 402/487/110 406/494/110 408/495/110
f 410/496/111 405/497/111 404/488/111
f 405/498/112 409/499/112 403/491/112
f 407/492/113 414/500/113 413/501/113
f 414/502/114 406/494/114 412/503/114
f 410/496/342 417/504/342 411/505/342
f 417/506/116 409/499/116 411/507/116
f 413/501/343 420/508/343 419/509/343
f 414/502/118 418/510/118 420/511/118
f 416/512/119 423/513/119 417/504/119
f 417/506/120 421/514/120 415/515/120
f 419/509/344 426/516/344 425/517/344
f 426/518/122 418/510/122 424/519/122
f 428/520/123 423/521/123 422/522/123
f 429/523/124 421/514/124 423/524/124
f 431/525/125 426/526/125 432/527/125
f 426/518/126 430/528/126 432/529/126
f 428/520/127 435/530/127 429/531/127
f 435/532/128 427/533/128 429/523/128
f 431/525/345 438/534/345 437/535/345
f 432/529/130 436/536/130 438/537/130
f 434/538/346 441/539/346 435/530/346
f 435/532/132 439/540/132 433/541/132
f 437/535/133 444/542/133 443/543/133
f 438/537/134 442/544/134 444/545/134
f 440/546/135 447/547/135 441/539/135
f 447/548/136 439/540/136 441/549/136
f 443/543/137 450/550/137 449/551/137
f 444/545/138 448/552/138 450/553/138
f 452/554/139 447/547/139 446/555/139
f 453/556/140 445/557/140 447/548/140
f 449/551/141 456/558/141 455/559/141
f 450/553/142 454/560/142 456/561/142
f 452/554/143 459/562/143 453/563/143
f 459/564/144 451/565/144 453/556/144
f 455/559/145 462/566/145 461/567/145
f 462/568/146 454/560/146 460/569/146
f 464/570/147 459/562/147 458/571/147
f 459/564/347 463/572/347 457/573/347
f 467/574/149 462/566/149 468/575/149
f 462/568/150 466/576/150 468/577/150
f 470/578/151 465/579/151 464/570/151
f 471/580/152 463/572/152 465/581/152
f 473/582/153 468/575/153 474/583/153
f 468/577/348 472/584/348 474/585/348
f 470/578/155 477/586/155 471/587/155
f 477/588/156 469/589/156 471/580/156
f 473/582/157 480/590/157 479/591/157
f 474/585/158 478/592/158 480/593/158
f 476/594/159 483/595/159 477/586/159
f 483/596/160 475/597/160 477/588/160
f 479/591/161 486/598/161 485/599/161
f 486/600/162 478/592/162 484/601/162
f 488/602/349 483/595/349 482/603/349
f 483/596/164 487/604/164 481/605/164
f 485/599/350 492/606/350 491/607/350
f 492/608/166 484/601/166 490/609/166
f 494/610/167 489/611/167 488/602/167
f 489/612/168 493/613/168 487/604/168
f 497/614/169 492/606/169 498/615/169
f 492/608/170 496/616/170 498/617/170
f 500/618/171 495/619/171 494/610/171
f 501/620/172 493/613/172 495/621/172
f 503/622/173 498/615/173 504/623/173
f 504/624/174 496/616/174 502/625/174
f 500/626/175 507/627/175 501/628/175
f 507/629/176 499/630/176 501/620/176
f 503/631/351 510/632/351 509/633/351
f 504/624/178 508/634/178 510/635/178
f 506/636/352 513/637/352 507/627/352
f 507/629/180 511/638/180 505/639/180
f 509/633/181 516/640/181 515/641/181
f 510/635/182 514/642/182 516/643/182
f 518/644/183 513/637/183 512/645/183
f 513/646/184 517/647/184 511/638/184
f 515/641/353 522/648/353 521/649/353
f 516/643/186 520/650/186 522/651/186
f 524/652/187 519/653/187 518/644/187
f 519/654/188 523/655/188 517/647/188
f 527/656/189 522/648/189 528/657/189
f 522/651/190 526/658/190 528/659/190
f 524/652/354 531/660/354 525/661/354
f 531/662/355 523/655/355 525/663/355
f 527/656/193 534/664/193 533/665/193
f 528/659/194 532/666/194 534/667/194
f 536/668/195 531/660/195 530/669/195
f 537/670/356 529/671/356 531/662/356
f 533/665/197 540/672/197 539/673/197
f 534/667/198 538/674/198 540/675/198
f 542/676/199 537/677/199 536/668/199
f 543/678/200 535/679/200 537/670/200
f 539/673/201 546/680/201 545/681/201
f 540/675/202 544/682/202 546/683/202
f 548/684/203 543/685/203 542/676/203
f 549/686/357 541/687/357 543/678/357
f 545/681/358 552/688/358 551/689/358
f 546/683/206 550/690/206 552/691/206
f 554/692/207 549/693/207 548/684/207
f 555/694/208 547/695/208 549/686/208
f 557/696/359 552/688/359 558/697/359
f 552/691/210 556/698/210 558/699/210
f 560/700/211 555/701/211 554/692/211
f 555/694/212 559/702/212 553/703/212
f 557/696/360 564/704/360 563/705/360
f 558/699/361 562/706/361 564/707/361
f 560/700/215 567/708/215 561/709/215
f 561/710/216 565/711/216 559/702/216
f 563/705/217 570/712/217 569/713/217
f 564/707/218 568/714/218 570/715/218
f 572/716/219 567/708/219 566/717/219
f 573/718/220 565/711/220 567/719/220
f 569/713/221 576/720/221 575/721/221
f 570/715/222 574/722/222 576/723/222
f 578/724/362 573/725/362 572/726/362
f 573/718/224 577/727/224 571/728/224
f 581/729/363 576/730/363 582/731/363
f 576/723/364 580/732/364 582/733/364
f 584/734/227 579/735/227 578/724/227
f 579/736/228 583/737/228 577/727/228
f 581/729/229 588/738/229 587/739/229
f 582/733/230 586/740/230 588/741/230
f 590/742/231 585/743/231 584/734/231
f 585/744/365 589/745/365 583/737/365
f 593/746/233 588/738/233 594/747/233
f 588/741/234 592/748/234 594/749/234
f 590/742/235 597/750/235 591/751/235
f 597/752/236 589/745/236 591/753/236
f 593/746/237 600/754/237 599/755/237
f 600/756/366 592/748/366 598/757/366
f 596/758/239 603/759/239 597/750/239
f 603/760/240 595/761/240 597/752/240
f 599/755/241 606/762/241 605/763/241
f 606/764/367 598/757/367 604/765/367
f 608/766/243 603/759/243 602/767/243
f 603/760/244 607/768/244 601/769/244
f 611/770/245 606/762/245 612/771/245
f 606/764/246 610/772/246 612/773/246
f 614/774/247 609/775/247 608/766/247
f 609/776/248 613/777/248 607/768/248
f 611/770/249 618/778/249 617/779/249
f 612/773/368 616/780/368 618/781/368
f 620/782/251 615/783/251 614/774/251
f 621/784/252 613/777/252 615/785/252
f 617/779/369 624/786/369 623/787/369
f 618/781/254 622/788/254 624/789/254
f 626/790/255 621/791/255 620/782/255
f 627/792/256 619/793/256 621/784/256
f 623/787/257 630/794/257 629/795/257
f 630/796/258 622/788/258 628/797/258
f 632/798/259 627/799/259 626/790/259
f 633/800/260 625/801/260 627/792/260
f 629/795/370 636/802/370 635/803/370
f 636/804/262 628/797/262 634/805/262
f 632/798/263 639/806/263 633/807/263
f 639/808/264 631/809/264 633/800/264
f 635/803/265 642/810/265 641/811/265
f 642/812/371 634/805/371 640/813/371
f 644/814/372 639/815/372 638/816/372
f 639/808/268 643/817/268 637/818/268
f 647/819/269 642/820/269 648/821/269
f 642/812/270 646/822/270 648/823/270
f 650/824/271 645/825/271 644/814/271
f 651/826/272 643/817/272 645/827/272
f 653/828/373 648/821/373 654/829/373
f 654/830/274 646/822/274 652/831/274
f 650/824/374 657/832/374 651/833/374
f 657/834/276 649/835/276 651/826/276
f 653/828/375 660/836/375 659/837/375
f 660/838/278 652/831/278 658/839/278
f 656/840/279 663/841/279 657/832/279
f 663/842/376 655/843/376 657/834/376
f 659/837/377 666/844/377 665/845/377
f 666/846/378 658/839/378 664/847/378
f 668/848/379 663/841/379 662/849/379
f 663/842/284 667/850/284 661/851/284
f 671/852/380 666/844/380 672/853/380
f 672/854/286 664/847/286 670/855/286
f 668/848/287 387/469/287 669/856/287
f 387/473/288 667/850/288 669/857/288
f 671/852/289 390/858/289 389/474/289
f 390/859/290 670/855/290 388/478/290
f 475/597/93 571/728/93 667/850/93
f 389/474/291 392/468/291 386/470/291
f 671/852/292 386/470/292 668/848/292
f 592/748/96 496/616/96 400/486/96
f 395/476/293 398/489/293 392/468/293
f 401/485/294 404/488/294 398/489/294
f 407/492/295 410/496/295 404/488/295
f 413/501/296 416/512/296 410/496/296
f 419/509/297 422/860/297 416/512/297
f 425/861/298 428/520/298 422/522/298
f 431/525/299 434/538/299 428/520/299
f 437/535/300 440/546/300 434/538/300
f 443/543/301 446/555/301 440/546/301
f 449/551/302 452/554/302 446/555/302
f 455/559/303 458/571/303 452/554/303
f 461/567/304 464/570/304 458/571/304
f 467/574/305 470/578/305 464/570/305
f 473/582/306 476/594/306 470/578/306
f 479/591/307 482/603/307 476/594/307
f 485/599/308 488/602/308 482/603/308
f 491/607/381 494/610/381 488/602/381
f 497/614/310 500/618/310 494/610/310
f 503/631/311 506/636/311 500/626/311
f 509/633/312 512/645/312 506/636/312
f 515/641/313 518/644/313 512/645/313
f 521/649/314 524/652/314 518/644/314
f 527/656/315 530/669/315 524/652/315
f 533/665/316 536/668/316 530/669/316
f 539/673/317 542/676/317 536/668/317
f 545/681/318 548/684/318 542/676/318
f 551/689/319 554/692/319 548/684/319
f 557/696/320 560/700/320 554/692/320
f 563/705/382 566/717/382 560/700/382
f 569/713/322 572/716/322 566/717/322
f 575/862/323 578/724/323 572/726/323
f 581/729/324 584/734/324 578/724/324
f 587/739/325 590/742/325 584/734/325
f 593/746/326 596/758/326 590/742/326
f 599/755/327 602/767/327 596/758/327
f 605/763/328 608/766/328 602/767/328
f 611/770/329 614/774/329 608/766/329
f 617/779/330 620/782/330 614/774/330
f 623/787/331 626/790/331 620/782/331
f 629/795/332 632/798/332 626/790/332
f 635/803/333 638/863/333 632/798/333
f 641/864/334 644/814/334 638/816/334
f 647/819/335 650/824/335 644/814/335
f 653/828/336 656/840/336 650/824/336
f 659/837/337 662/849/337 656/840/337
f 665/845/338 668/848/338 662/849/338
f 4/1/383 6/5/383 5/2/383
f 4/1/384 8/20/384 9/4/384
f 7/6/385 9/865/385 8/7/385
f 7/9/386 11/13/386 12/10/386
f 10/12/387 12/10/387 11/13/387
f 5/2/6 6/5/6 12/15/6
f 16/17/388 18/866/388 17/18/388
f 16/20/389 20/1/389 21/5/389
f 19/2/390 21/5/390 20/1/390
f 23/16/11 24/15/11 21/5/11
f 22/21/391 24/25/391 23/22/391
f 17/24/392 18/58/392 24/25/392
f 28/26/393 30/30/393 29/27/393
f 28/26/16 32/44/16 33/29/16
f 31/31/394 33/35/394 32/32/394
f 35/34/395 36/65/395 33/35/395
f 34/7/396 36/865/396 35/6/396
f 34/36/397 29/27/397 30/30/397
f 40/27/398 42/30/398 41/26/398
f 44/36/399 45/37/399 42/30/399
f 43/18/400 45/866/400 44/17/400
f 43/38/401 47/42/401 48/39/401
f 46/41/402 48/39/402 47/42/402
f 46/44/27 41/26/27 42/30/27
f 52/45/403 54/49/403 53/46/403
f 52/45/30 56/59/30 57/48/30
f 55/13/404 57/10/404 56/12/404
f 59/9/405 60/11/405 57/10/405
f 58/50/406 60/867/406 59/51/406
f 58/53/407 53/46/407 54/49/407
f 64/46/408 66/49/408 65/45/408
f 68/53/409 69/54/409 66/49/409
f 67/55/410 69/868/410 68/56/410
f 67/24/411 71/21/411 72/25/411
f 70/22/412 72/25/412 71/21/412
f 70/59/41 65/45/41 66/49/41
f 76/60/413 78/64/413 77/61/413
f 76/60/414 80/68/414 81/63/414
f 79/51/415 81/867/415 80/50/415
f 79/34/416 83/31/416 84/35/416
f 82/32/417 84/35/417 83/31/417
f 77/61/48 78/64/48 84/66/48
f 88/61/418 90/64/418 89/60/418
f 92/67/51 93/66/51 90/64/51
f 91/42/419 93/39/419 92/41/419
f 95/38/420 96/40/420 93/39/420
f 94/56/421 96/868/421 95/55/421
f 94/68/422 89/60/422 90/64/422
f 1/3/57 5/2/57 28/26/57
f 5/2/58 10/16/58 32/44/58
f 10/12/59 3/14/59 26/33/59
f 2/8/60 13/19/60 17/18/60
f 17/24/61 22/21/61 11/13/61
f 22/21/423 15/23/423 3/14/423
f 37/28/63 41/26/63 19/2/63
f 41/26/64 46/44/64 23/16/64
f 46/41/65 39/43/65 15/23/65
f 27/8/66 35/6/66 43/18/66
f 35/34/67 31/31/67 47/42/67
f 31/31/68 26/33/68 39/43/68
f 25/28/69 29/27/69 76/60/69
f 29/27/70 34/36/70 80/68/70
f 34/7/71 27/8/71 74/52/71
f 85/62/72 89/60/72 40/27/72
f 89/60/73 94/68/73 44/36/73
f 94/56/74 87/57/74 38/19/74
f 75/33/424 83/31/424 91/42/424
f 83/31/76 79/34/76 95/38/76
f 95/55/77 79/51/77 74/52/77
f 73/62/78 77/61/78 52/45/78
f 77/61/79 82/67/79 56/59/79
f 82/32/80 75/33/80 50/14/80
f 61/47/81 65/45/81 88/61/81
f 65/45/82 70/59/82 92/67/82
f 70/22/83 63/23/83 86/43/83
f 51/52/84 59/51/84 67/55/84
f 59/9/85 55/13/85 71/21/85
f 55/13/86 50/14/86 63/23/86
f 49/47/87 53/46/87 4/1/87
f 53/46/88 58/53/88 8/20/88
f 58/50/89 51/52/89 2/8/89
f 14/3/90 20/1/90 64/46/90
f 20/1/91 16/20/91 68/53/91
f 16/17/92 13/19/92 62/57/92
f 73/62/93 49/47/93 1/3/93
f 15/23/94 39/43/94 26/33/94
f 62/57/95 13/19/95 2/8/95
f 37/28/96 14/3/96 61/47/96
f 38/19/97 87/57/97 74/52/97
f 86/43/98 63/23/98 50/14/98
f 104/69/99 105/82/99 99/70/99
f 105/72/100 103/84/100 97/73/100
f 101/75/101 102/459/101 108/76/101
f 108/78/102 102/460/102 100/79/102
f 104/69/103 110/90/103 111/81/103
f 105/72/104 111/92/104 109/83/104
f 107/77/105 108/76/105 114/85/105
f 108/78/106 106/80/106 112/87/106
f 116/89/107 117/98/107 111/81/107
f 117/91/108 115/100/108 109/83/108
f 113/86/109 114/85/109 120/93/109
f 120/95/110 114/88/110 112/87/110
f 122/97/111 123/106/111 117/98/111
f 117/91/112 123/108/112 121/99/112
f 125/101/425 119/94/425 120/93/425
f 120/95/114 118/96/114 124/103/114
f 128/105/115 129/114/115 123/106/115
f 129/107/116 127/116/116 121/99/116
f 131/109/343 125/101/343 126/102/343
f 126/104/118 124/103/118 130/111/118
f 134/113/119 135/122/119 129/114/119
f 129/107/120 135/124/120 133/115/120
f 137/117/121 131/109/121 132/110/121
f 132/112/122 130/111/122 136/119/122
f 140/121/123 141/869/123 135/122/123
f 141/123/124 139/133/124 133/115/124
f 137/117/125 138/118/125 144/125/125
f 144/127/126 138/120/126 136/119/126
f 146/129/426 147/140/426 141/130/426
f 147/132/128 145/142/128 139/133/128
f 149/134/427 143/463/427 144/135/427
f 150/137/130 144/127/130 142/128/130
f 152/139/131 153/148/131 147/140/131
f 147/132/132 153/150/132 151/141/132
f 155/143/133 149/134/133 150/136/133
f 150/137/134 148/138/134 154/145/134
f 158/147/135 159/156/135 153/148/135
f 159/149/136 157/158/136 151/141/136
f 155/143/428 156/144/428 162/151/428
f 162/153/138 156/146/138 154/145/138
f 164/155/139 165/164/139 159/156/139
f 159/149/140 165/165/140 163/157/140
f 167/159/141 161/152/141 162/151/141
f 162/153/142 160/154/142 166/161/142
f 170/163/143 171/172/143 165/164/143
f 165/165/144 171/173/144 169/166/144
f 173/167/145 167/159/145 168/160/145
f 168/162/146 166/161/146 172/169/146
f 170/163/147 176/179/147 177/171/147
f 171/173/148 177/182/148 175/174/148
f 173/167/149 174/168/149 180/175/149
f 174/170/150 172/169/150 178/177/150
f 176/179/151 182/188/151 183/180/151
f 183/181/152 181/190/152 175/174/152
f 179/176/153 180/175/153 186/183/153
f 180/178/154 178/177/154 184/185/154
f 188/187/155 189/196/155 183/180/155
f 183/181/156 189/197/156 187/189/156
f 185/184/429 186/183/429 192/191/429
f 186/186/158 184/185/158 190/193/158
f 194/195/159 195/204/159 189/196/159
f 189/197/160 195/205/160 193/198/160
f 191/192/161 192/191/161 198/199/161
f 192/194/162 190/193/162 196/201/162
f 200/203/163 201/212/163 195/204/163
f 195/205/164 201/213/164 199/206/164
f 197/200/350 198/199/350 204/207/350
f 198/202/166 196/201/166 202/209/166
f 206/211/167 207/220/167 201/212/167
f 201/213/168 207/221/168 205/214/168
f 203/208/169 204/207/169 210/215/169
f 204/210/170 202/209/170 208/217/170
f 206/211/171 212/464/171 213/219/171
f 207/221/172 213/230/172 211/222/172
f 209/216/173 210/215/173 216/223/173
f 210/218/174 208/217/174 214/225/174
f 212/227/175 218/238/175 219/228/175
f 213/230/176 219/240/176 217/231/176
f 215/232/177 216/870/177 222/233/177
f 216/226/178 214/225/178 220/235/178
f 224/237/179 225/246/179 219/228/179
f 225/239/180 223/248/180 217/231/180
f 221/234/181 222/233/181 228/241/181
f 228/243/182 222/236/182 220/235/182
f 224/237/183 230/254/183 231/245/183
f 225/239/184 231/256/184 229/247/184
f 227/242/185 228/241/185 234/249/185
f 228/243/430 226/244/430 232/251/430
f 236/253/187 237/262/187 231/245/187
f 237/255/188 235/264/188 229/247/188
f 239/257/189 233/250/189 234/249/189
f 234/252/190 232/251/190 238/259/190
f 236/253/191 242/269/191 243/261/191
f 243/263/192 241/272/192 235/264/192
f 239/257/193 240/258/193 246/265/193
f 246/267/194 240/260/194 238/259/194
f 242/269/195 248/278/195 249/270/195
f 243/263/196 249/280/196 247/271/196
f 245/266/197 246/265/197 252/273/197
f 252/275/198 246/267/198 244/268/198
f 254/277/199 255/286/199 249/270/199
f 255/279/200 253/288/200 247/271/200
f 251/274/201 252/273/201 258/281/201
f 258/283/202 252/275/202 250/276/202
f 254/277/203 260/293/203 261/285/203
f 255/279/204 261/295/204 259/287/204
f 263/289/205 257/282/205 258/281/205
f 258/283/431 256/284/431 262/291/431
f 260/293/207 266/302/207 267/294/207
f 261/295/208 267/303/208 265/296/208
f 263/289/209 264/290/209 270/297/209
f 264/292/210 262/291/210 268/299/210
f 272/301/211 273/310/211 267/294/211
f 267/303/212 273/312/212 271/304/212
f 275/305/360 269/298/360 270/297/360
f 276/307/214 270/300/214 268/299/214
f 278/309/215 279/318/215 273/310/215
f 279/311/216 277/320/216 271/304/216
f 275/305/217 276/306/217 282/313/217
f 282/315/218 276/307/218 274/308/218
f 278/309/219 284/465/219 285/317/219
f 285/319/220 283/329/220 277/320/220
f 281/314/221 282/313/221 288/321/221
f 288/323/222 282/315/222 280/316/222
f 290/325/223 291/336/223 285/326/223
f 291/328/224 289/338/224 283/329/224
f 287/330/363 288/871/363 294/331/363
f 294/333/226 288/323/226 286/324/226
f 290/325/227 296/344/227 297/335/227
f 291/328/228 297/346/228 295/337/228
f 293/332/432 294/331/432 300/339/432
f 294/333/230 292/334/230 298/341/230
f 302/343/231 303/352/231 297/335/231
f 303/345/232 301/354/232 295/337/232
f 299/340/433 300/339/433 306/347/433
f 306/349/234 300/342/234 298/341/234
f 308/351/235 309/360/235 303/352/235
f 303/345/236 309/362/236 307/353/236
f 311/355/237 305/348/237 306/347/237
f 306/349/238 304/350/238 310/357/238
f 314/359/239 315/368/239 309/360/239
f 315/361/240 313/370/240 307/353/240
f 311/355/241 312/356/241 318/363/241
f 318/365/242 312/358/242 310/357/242
f 314/359/243 320/376/243 321/367/243
f 321/369/244 319/378/244 313/370/244
f 317/364/245 318/363/245 324/371/245
f 318/365/246 316/366/246 322/373/246
f 326/375/247 327/384/247 321/367/247
f 321/369/248 327/386/248 325/377/248
f 323/372/249 324/371/249 330/379/249
f 324/374/250 322/373/250 328/381/250
f 332/383/251 333/392/251 327/384/251
f 333/385/252 331/394/252 325/377/252
f 329/380/253 330/379/253 336/387/253
f 330/382/254 328/381/254 334/389/254
f 332/383/255 338/399/255 339/391/255
f 339/393/256 337/402/256 331/394/256
f 335/388/257 336/387/257 342/395/257
f 342/397/258 336/390/258 334/389/258
f 338/399/434 344/408/434 345/400/434
f 345/401/260 343/410/260 337/402/260
f 341/396/261 342/395/261 348/403/261
f 348/405/262 342/397/262 340/398/262
f 350/407/263 351/416/263 345/400/263
f 345/401/264 351/418/264 349/409/264
f 353/411/265 347/404/265 348/403/265
f 348/405/266 346/406/266 352/413/266
f 350/407/267 356/872/267 357/415/267
f 357/417/268 355/427/268 349/409/268
f 353/411/269 354/412/269 360/419/269
f 360/421/270 354/414/270 352/413/270
f 356/423/271 362/433/271 363/424/271
f 363/426/272 361/436/272 355/427/272
f 359/428/373 360/873/373 366/429/373
f 360/421/274 358/422/274 364/431/274
f 362/433/275 368/441/275 369/434/275
f 369/435/276 367/444/276 361/436/276
f 365/430/375 366/429/375 372/437/375
f 372/439/278 366/432/278 364/431/278
f 368/441/279 374/450/279 375/442/279
f 369/435/280 375/451/280 373/443/280
f 371/438/281 372/437/281 378/445/281
f 378/447/282 372/439/282 370/440/282
f 380/449/283 381/457/283 375/442/283
f 375/451/284 381/458/284 379/452/284
f 383/453/285 377/446/285 378/445/285
f 384/455/286 378/447/286 376/448/286
f 98/71/287 99/70/287 381/457/287
f 99/74/288 97/73/288 379/452/288
f 383/453/289 384/454/289 102/459/289
f 102/460/290 384/455/290 382/456/290
f 379/452/93 97/73/93 103/84/93
f 103/84/93 109/83/93 115/100/93
f 115/100/93 121/99/93 127/116/93
f 127/116/93 133/115/93 139/133/93
f 139/133/93 145/142/93 151/141/93
f 151/141/93 157/158/93 163/157/93
f 163/157/93 169/166/93 175/174/93
f 175/174/93 181/190/93 187/189/93
f 187/189/93 193/198/93 199/206/93
f 199/206/93 205/214/93 211/222/93
f 211/222/93 217/231/93 223/248/93
f 223/248/93 229/247/93 235/264/93
f 235/264/93 241/272/93 247/271/93
f 247/271/93 253/288/93 259/287/93
f 259/287/93 265/296/93 271/304/93
f 271/304/93 277/320/93 283/329/93
f 283/329/93 289/338/93 295/337/93
f 295/337/93 301/354/93 307/353/93
f 307/353/93 313/370/93 319/378/93
f 319/378/93 325/377/93 331/394/93
f 331/394/93 337/402/93 343/410/93
f 343/410/93 349/409/93 355/427/93
f 355/427/93 361/436/93 367/444/93
f 367/444/93 373/443/93 379/452/93
f 379/452/93 103/84/93 115/100/93
f 115/100/93 127/116/93 139/133/93
f 139/133/93 151/141/93 163/157/93
f 163/157/93 175/174/93 187/189/93
f 187/189/93 199/206/93 211/222/93
f 211/222/93 223/248/93 235/264/93
f 235/264/93 247/271/93 259/287/93
f 259/287/93 271/304/93 283/329/93
f 283/329/93 295/337/93 307/353/93
f 307/353/93 319/378/93 331/394/93
f 331/394/93 343/410/93 355/427/93
f 355/427/93 367/444/93 379/452/93
f 379/452/93 115/100/93 139/133/93
f 139/133/93 163/157/93 187/189/93
f 187/189/93 211/222/93 235/264/93
f 235/264/93 259/287/93 283/329/93
f 283/329/93 307/353/93 331/394/93
f 331/394/93 355/427/93 379/452/93
f 379/452/93 139/133/93 187/189/93
f 187/189/93 235/264/93 283/329/93
f 283/329/93 331/394/93 379/452/93
f 101/75/291 107/77/291 104/69/291
f 383/453/292 101/75/292 98/71/292
f 112/87/96 106/80/96 100/79/96
f 100/79/96 382/456/96 376/448/96
f 376/448/96 370/440/96 364/431/96
f 364/431/435 358/422/435 352/413/435
f 352/413/96 346/406/96 340/398/96
f 340/398/96 334/389/96 328/381/96
f 328/381/96 322/373/96 316/366/96
f 316/366/96 310/357/96 304/350/96
f 304/350/96 298/341/96 292/334/96
f 292/334/96 286/324/96 280/316/96
f 280/316/96 274/308/96 268/299/96
f 268/299/96 262/291/96 256/284/96
f 256/284/96 250/276/96 244/268/96
f 244/268/96 238/259/96 232/251/96
f 232/251/96 226/244/96 220/235/96
f 220/235/96 214/225/96 208/217/96
f 208/217/96 202/209/96 196/201/96
f 196/201/96 190/193/96 184/185/96
f 184/185/96 178/177/96 172/169/96
f 172/169/96 166/161/96 160/154/96
f 160/154/96 154/145/96 148/138/96
f 148/138/96 142/128/96 136/119/96
f 136/119/436 130/111/436 124/103/436
f 124/103/96 118/96/96 112/87/96
f 112/87/96 100/79/96 376/448/96
f 376/448/96 364/431/96 352/413/96
f 352/413/96 340/398/96 328/381/96
f 328/381/96 316/366/96 304/350/96
f 304/350/96 292/334/96 280/316/96
f 280/316/96 268/299/96 256/284/96
f 256/284/96 244/268/96 232/251/96
f 232/251/96 220/235/96 208/217/96
f 208/217/96 196/201/96 184/185/96
f 184/185/96 172/169/96 160/154/96
f 160/154/96 148/138/96 136/119/96
f 136/119/96 124/103/96 112/87/96
f 112/87/96 376/448/96 352/413/96
f 352/413/96 328/381/96 304/350/96
f 304/350/96 280/316/96 256/284/96
f 256/284/96 232/251/96 208/217/96
f 208/217/96 184/185/96 160/154/96
f 160/154/96 136/119/96 112/87/96
f 112/87/96 352/413/96 304/350/96
f 304/350/96 256/284/96 208/217/96
f 208/217/96 160/154/96 112/87/96
f 107/77/293 113/86/293 110/90/293
f 113/86/294 119/94/294 116/89/294
f 119/94/295 125/101/295 122/97/295
f 125/101/296 131/109/296 128/105/296
f 131/109/297 137/117/297 134/113/297
f 137/461/298 143/463/298 140/131/298
f 143/463/299 149/134/299 146/129/299
f 149/134/300 155/143/300 152/139/300
f 155/143/301 161/152/301 158/147/301
f 161/152/302 167/159/302 164/155/302
f 167/159/303 173/167/303 170/163/303
f 173/167/304 179/176/304 176/179/304
f 179/176/305 185/184/305 182/188/305
f 185/184/306 191/192/306 188/187/306
f 191/192/307 197/200/307 194/195/307
f 197/200/308 203/208/308 200/203/308
f 203/208/309 209/216/309 206/211/309
f 209/216/310 215/224/310 212/464/310
f 215/232/311 221/234/311 218/238/311
f 221/234/312 227/242/312 224/237/312
f 227/242/313 233/250/313 230/254/313
f 233/250/314 239/257/314 236/253/314
f 239/257/315 245/266/315 242/269/315
f 245/266/316 251/274/316 248/278/316
f 251/274/317 257/282/317 254/277/317
f 257/282/318 263/289/318 260/293/318
f 263/289/319 269/298/319 266/302/319
f 269/298/320 275/305/320 272/301/320
f 275/305/321 281/314/321 278/309/321
f 281/314/322 287/322/322 284/465/322
f 287/330/323 293/332/323 290/325/323
f 293/332/324 299/340/324 296/344/324
f 299/340/325 305/348/325 302/343/325
f 305/348/326 311/355/326 308/351/326
f 311/355/327 317/364/327 314/359/327
f 317/364/328 323/372/328 320/376/328
f 323/372/329 329/380/329 326/375/329
f 329/380/330 335/388/330 332/383/330
f 335/388/331 341/396/331 338/399/331
f 341/396/332 347/404/332 344/408/332
f 347/404/333 353/411/333 350/407/333
f 353/466/334 359/428/334 356/423/334
f 359/428/335 365/430/335 362/433/335
f 365/430/336 371/438/336 368/441/336
f 371/438/337 377/446/337 374/450/337
f 377/446/338 383/453/338 380/449/338
f 392/468/99 393/481/99 387/469/99
f 393/471/100 391/483/100 385/472/100
f 389/474/101 390/858/101 396/475/101
f 396/477/102 390/859/102 388/478/102
f 392/468/437 398/489/437 399/480/437
f 393/471/104 399/490/104 397/482/104
f 395/476/438 396/475/438 402/484/438
f 396/477/106 394/479/106 400/486/106
f 404/488/107 405/497/107 399/480/107
f 399/490/439 405/498/439 403/491/439
f 407/492/341 401/485/341 402/484/341
f 402/487/110 400/486/110 406/494/110
f 410/496/440 411/505/440 405/497/440
f 405/498/112 411/507/112 409/499/112
f 407/492/441 408/493/441 414/500/441
f 414/502/114 408/495/114 406/494/114
f 410/496/115 416/512/115 417/504/115
f 417/506/116 415/515/116 409/499/116
f 413/501/117 414/500/117 420/508/117
f 414/502/118 412/503/118 418/510/118
f 416/512/442 422/860/442 423/513/442
f 417/506/120 423/524/120 421/514/120
f 419/509/121 420/508/121 426/516/121
f 426/518/122 420/511/122 418/510/122
f 428/520/123 429/531/123 423/521/123
f 429/523/124 427/533/124 421/514/124
f 431/525/125 425/861/125 426/526/125
f 426/518/443 424/519/443 430/528/443
f 428/520/444 434/538/444 435/530/444
f 435/532/128 433/541/128 427/533/128
f 431/525/427 432/527/427 438/534/427
f 432/529/130 430/528/130 436/536/130
f 434/538/131 440/546/131 441/539/131
f 435/532/132 441/549/132 439/540/132
f 437/535/133 438/534/133 444/542/133
f 438/537/134 436/536/134 442/544/134
f 440/546/135 446/555/135 447/547/135
f 447/548/445 445/557/445 439/540/445
f 443/543/137 444/542/137 450/550/137
f 444/545/446 442/544/446 448/552/446
f 452/554/139 453/563/139 447/547/139
f 453/556/140 451/565/140 445/557/140
f 449/551/141 450/550/141 456/558/141
f 450/553/447 448/552/447 454/560/447
f 452/554/143 458/571/143 459/562/143
f 459/564/144 457/573/144 451/565/144
f 455/559/145 456/558/145 462/566/145
f 462/568/146 456/561/146 454/560/146
f 464/570/147 465/579/147 459/562/147
f 459/564/148 465/581/148 463/572/148
f 467/574/149 461/567/149 462/566/149
f 462/568/448 460/569/448 466/576/448
f 470/578/151 471/587/151 465/579/151
f 471/580/152 469/589/152 463/572/152
f 473/582/153 467/574/153 468/575/153
f 468/577/348 466/576/348 472/584/348
f 470/578/155 476/594/155 477/586/155
f 477/588/449 475/597/449 469/589/449
f 473/582/157 474/583/157 480/590/157
f 474/585/450 472/584/450 478/592/450
f 476/594/159 482/603/159 483/595/159
f 483/596/160 481/605/160 475/597/160
f 479/591/161 480/590/161 486/598/161
f 486/600/162 480/593/162 478/592/162
f 488/602/163 489/611/163 483/595/163
f 483/596/164 489/612/164 487/604/164
f 485/599/165 486/598/165 492/606/165
f 492/608/451 486/600/451 484/601/451
f 494/610/167 495/619/167 489/611/167
f 489/612/168 495/621/168 493/613/168
f 497/614/169 491/607/169 492/606/169
f 492/608/170 490/609/170 496/616/170
f 500/618/171 501/874/171 495/619/171
f 501/620/172 499/630/172 493/613/172
f 503/622/173 497/614/173 498/615/173
f 504/624/174 498/617/174 496/616/174
f 500/626/175 506/636/175 507/627/175
f 507/629/176 505/639/176 499/630/176
f 503/631/177 504/875/177 510/632/177
f 504/624/178 502/625/178 508/634/178
f 506/636/179 512/645/179 513/637/179
f 507/629/180 513/646/180 511/638/180
f 509/633/452 510/632/452 516/640/452
f 510/635/182 508/634/182 514/642/182
f 518/644/183 519/653/183 513/637/183
f 513/646/453 519/654/453 517/647/453
f 515/641/185 516/640/185 522/648/185
f 516/643/186 514/642/186 520/650/186
f 524/652/187 525/661/187 519/653/187
f 519/654/188 525/663/188 523/655/188
f 527/656/189 521/649/189 522/648/189
f 522/651/190 520/650/190 526/658/190
f 524/652/191 530/669/191 531/660/191
f 531/662/454 529/671/454 523/655/454
f 527/656/455 528/657/455 534/664/455
f 528/659/194 526/658/194 532/666/194
f 536/668/456 537/677/456 531/660/456
f 537/670/196 535/679/196 529/671/196
f 533/665/457 534/664/457 540/672/457
f 534/667/198 532/666/198 538/674/198
f 542/676/199 543/685/199 537/677/199
f 543/678/200 541/687/200 535/679/200
f 539/673/201 540/672/201 546/680/201
f 540/675/202 538/674/202 544/682/202
f 548/684/203 549/693/203 543/685/203
f 549/686/204 547/695/204 541/687/204
f 545/681/205 546/680/205 552/688/205
f 546/683/206 544/682/206 550/690/206
f 554/692/458 555/701/458 549/693/458
f 555/694/208 553/703/208 547/695/208
f 557/696/209 551/689/209 552/688/209
f 552/691/459 550/690/459 556/698/459
f 560/700/211 561/709/211 555/701/211
f 555/694/212 561/710/212 559/702/212
f 557/696/213 558/697/213 564/704/213
f 558/699/214 556/698/214 562/706/214
f 560/700/215 566/717/215 567/708/215
f 561/710/216 567/719/216 565/711/216
f 563/705/217 564/704/217 570/712/217
f 564/707/218 562/706/218 568/714/218
f 572/716/219 573/876/219 567/708/219
f 573/718/220 571/728/220 565/711/220
f 569/713/221 570/712/221 576/720/221
f 570/715/460 568/714/460 574/722/460
f 578/724/223 579/735/223 573/725/223
f 573/718/224 579/736/224 577/727/224
f 581/729/225 575/862/225 576/730/225
f 576/723/226 574/722/226 580/732/226
f 584/734/227 585/743/227 579/735/227
f 579/736/228 585/744/228 583/737/228
f 581/729/229 582/731/229 588/738/229
f 582/733/230 580/732/230 586/740/230
f 590/742/231 591/751/231 585/743/231
f 585/744/232 591/753/232 589/745/232
f 593/746/233 587/739/233 588/738/233
f 588/741/461 586/740/461 592/748/461
f 590/742/235 596/758/235 597/750/235
f 597/752/236 595/761/236 589/745/236
f 593/746/237 594/747/237 600/754/237
f 600/756/366 594/749/366 592/748/366
f 596/758/239 602/767/239 603/759/239
f 603/760/462 601/769/462 595/761/462
f 599/755/241 600/754/241 606/762/241
f 606/764/242 600/756/242 598/757/242
f 608/766/243 609/775/243 603/759/243
f 603/760/244 609/776/244 607/768/244
f 611/770/245 605/763/245 606/762/245
f 606/764/246 604/765/246 610/772/246
f 614/774/247 615/783/247 609/775/247
f 609/776/248 615/785/248 613/777/248
f 611/770/249 612/771/249 618/778/249
f 612/773/368 610/772/368 616/780/368
f 620/782/251 621/791/251 615/783/251
f 621/784/463 619/793/463 613/777/463
f 617/779/464 618/778/464 624/786/464
f 618/781/465 616/780/465 622/788/465
f 626/790/466 627/799/466 621/791/466
f 627/792/256 625/801/256 619/793/256
f 623/787/257 624/786/257 630/794/257
f 630/796/258 624/789/258 622/788/258
f 632/798/434 633/807/434 627/799/434
f 633/800/260 631/809/260 625/801/260
f 629/795/370 630/794/370 636/802/370
f 636/804/262 630/796/262 628/797/262
f 632/798/263 638/863/263 639/806/263
f 639/808/264 637/818/264 631/809/264
f 635/803/265 636/802/265 642/810/265
f 642/812/266 636/804/266 634/805/266
f 644/814/267 645/825/267 639/815/267
f 639/808/268 645/827/268 643/817/268
f 647/819/467 641/864/467 642/820/467
f 642/812/270 640/813/270 646/822/270
f 650/824/468 651/833/468 645/825/468
f 651/826/272 649/835/272 643/817/272
f 653/828/273 647/819/273 648/821/273
f 654/830/274 648/823/274 646/822/274
f 650/824/275 656/840/275 657/832/275
f 657/834/276 655/843/276 649/835/276
f 653/828/469 654/829/469 660/836/469
f 660/838/278 654/830/278 652/831/278
f 656/840/279 662/849/279 663/841/279
f 663/842/470 661/851/470 655/843/470
f 659/837/377 660/836/377 666/844/377
f 666/846/282 660/838/282 658/839/282
f 668/848/283 669/856/283 663/841/283
f 663/842/284 669/857/284 667/850/284
f 671/852/471 665/845/471 666/844/471
f 672/854/286 666/846/286 664/847/286
f 668/848/287 386/470/287 387/469/287
f 387/473/288 385/472/288 667/850/288
f 671/852/289 672/853/289 390/858/289
f 390/859/290 672/854/290 670/855/290
f 667/850/93 385/472/93 391/483/93
f 391/483/93 397/482/93 403/491/93
f 403/491/472 409/499/472 415/515/472
f 415/515/93 421/514/93 427/533/93
f 427/533/473 433/541/473 439/540/473
f 439/540/93 445/557/93 451/565/93
f 451/565/93 457/573/93 463/572/93
f 463/572/93 469/589/93 475/597/93
f 475/597/473 481/605/473 487/604/473
f 487/604/93 493/613/93 499/630/93
f 499/630/93 505/639/93 511/638/93
f 511/638/93 517/647/93 523/655/93
f 523/655/93 529/671/93 535/679/93
f 535/679/93 541/687/93 547/695/93
f 547/695/93 553/703/93 559/702/93
f 559/702/93 565/711/93 571/728/93
f 571/728/472 577/727/472 583/737/472
f 583/737/93 589/745/93 595/761/93
f 595/761/93 601/769/93 607/768/93
f 607/768/93 613/777/93 619/793/93
f 619/793/472 625/801/472 631/809/472
f 631/809/93 637/818/93 643/817/93
f 643/817/93 649/835/93 655/843/93
f 655/843/93 661/851/93 667/850/93
f 667/850/93 391/483/93 403/491/93
f 403/491/93 415/515/93 427/533/93
f 427/533/93 439/540/93 451/565/93
f 451/565/93 463/572/93 475/597/93
f 475/597/93 487/604/93 499/630/93
f 499/630/93 511/638/93 523/655/93
f 523/655/93 535/679/93 547/695/93
f 547/695/93 559/702/93 571/728/93
f 571/728/93 583/737/93 595/761/93
f 595/761/93 607/768/93 619/793/93
f 619/793/93 631/809/93 643/817/93
f 643/817/93 655/843/93 667/850/93
f 667/850/93 403/491/93 427/533/93
f 427/533/93 451/565/93 475/597/93
f 475/597/93 499/630/93 523/655/93
f 523/655/93 547/695/93 571/728/93
f 571/728/93 595/761/93 619/793/93
f 619/793/93 643/817/93 667/850/93
f 667/850/93 427/533/93 475/597/93
f 475/597/93 523/655/93 571/728/93
f 571/728/93 619/793/93 667/850/93
f 389/474/291 395/476/291 392/468/291
f 671/852/292 389/474/292 386/470/292
f 400/486/96 394/479/96 388/478/96
f 388/478/96 670/855/96 664/847/96
f 664/847/96 658/839/96 652/831/96
f 652/831/96 646/822/96 640/813/96
f 640/813/474 634/805/474 628/797/474
f 628/797/475 622/788/475 616/780/475
f 616/780/96 610/772/96 604/765/96
f 604/765/96 598/757/96 592/748/96
f 592/748/475 586/740/475 580/732/475
f 580/732/474 574/722/474 568/714/474
f 568/714/96 562/706/96 556/698/96
f 556/698/435 550/690/435 544/682/435
f 544/682/96 538/674/96 532/666/96
f 532/666/96 526/658/96 520/650/96
f 520/650/96 514/642/96 508/634/96
f 508/634/96 502/625/96 496/616/96
f 496/616/475 490/609/475 484/601/475
f 484/601/474 478/592/474 472/584/474
f 472/584/96 466/576/96 460/569/96
f 460/569/96 454/560/96 448/552/96
f 448/552/474 442/544/474 436/536/474
f 436/536/475 430/528/475 424/519/475
f 424/519/96 418/510/96 412/503/96
f 412/503/435 406/494/435 400/486/435
f 400/486/96 388/478/96 664/847/96
f 664/847/96 652/831/96 640/813/96
f 640/813/436 628/797/436 616/780/436
f 616/780/96 604/765/96 592/748/96
f 592/748/436 580/732/436 568/714/436
f 568/714/96 556/698/96 544/682/96
f 544/682/96 532/666/96 520/650/96
f 520/650/96 508/634/96 496/616/96
f 496/616/435 484/601/435 472/584/435
f 472/584/96 460/569/96 448/552/96
f 448/552/435 436/536/435 424/519/435
f 424/519/96 412/503/96 400/486/96
f 400/486/96 664/847/96 640/813/96
f 640/813/96 616/780/96 592/748/96
f 592/748/96 568/714/96 544/682/96
f 544/682/96 520/650/96 496/616/96
f 496/616/96 472/584/96 448/552/96
f 448/552/96 424/519/96 400/486/96
f 400/486/96 640/813/96 592/748/96
f 592/748/96 544/682/96 496/616/96
f 496/616/96 448/552/96 400/486/96
f 395/476/293 401/485/293 398/489/293
f 401/485/294 407/492/294 404/488/294
f 407/492/295 413/501/295 410/496/295
f 413/501/296 419/509/296 416/512/296
f 419/509/297 425/517/297 422/860/297
f 425/861/476 431/525/476 428/520/476
f 431/525/299 437/535/299 434/538/299
f 437/535/300 443/543/300 440/546/300
f 443/543/301 449/551/301 446/555/301
f 449/551/302 455/559/302 452/554/302
f 455/559/303 461/567/303 458/571/303
f 461/567/304 467/574/304 464/570/304
f 467/574/305 473/582/305 470/578/305
f 473/582/306 479/591/306 476/594/306
f 479/591/307 485/599/307 482/603/307
f 485/599/308 491/607/308 488/602/308
f 491/607/309 497/614/309 494/610/309
f 497/614/310 503/622/310 500/618/310
f 503/631/311 509/633/311 506/636/311
f 509/633/312 515/641/312 512/645/312
f 515/641/313 521/649/313 518/644/313
f 521/649/314 527/656/314 524/652/314
f 527/656/315 533/665/315 530/669/315
f 533/665/316 539/673/316 536/668/316
f 539/673/317 545/681/317 542/676/317
f 545/681/318 551/689/318 548/684/318
f 551/689/319 557/696/319 554/692/319
f 557/696/320 563/705/320 560/700/320
f 563/705/321 569/713/321 566/717/321
f 569/713/322 575/721/322 572/716/322
f 575/862/323 581/729/323 578/724/323
f 581/729/324 587/739/324 584/734/324
f 587/739/325 593/746/325 590/742/325
f 593/746/326 599/755/326 596/758/326
f 599/755/327 605/763/327 602/767/327
f 605/763/328 611/770/328 608/766/328
f 611/770/329 617/779/329 614/774/329
f 617/779/330 623/787/330 620/782/330
f 623/787/331 629/795/331 626/790/331
f 629/795/332 635/803/332 632/798/332
f 635/803/333 641/811/333 638/863/333
f 641/864/334 647/819/334 644/814/334
f 647/819/335 653/828/335 650/824/335
f 653/828/336 659/837/336 656/840/336
f 659/837/337 665/845/337 662/849/337
f 665/845/338 671/852/338 668/848/338
