# Blender 4.5.11 LTS
# www.blender.org
mtllib visual.mtl
o bolt_large_target_point
v -0.000000 0.009198 0.000000
v 0.000000 0.010000 0.000800
v -0.000000 0.009764 0.000234
v 0.000000 0.009198 0.080000
v 0.000000 0.010000 0.079200
v 0.000000 0.009764 0.079766
v 0.001201 0.009120 0.000000
v 0.001305 0.009914 0.000800
v 0.001275 0.009681 0.000234
v 0.001201 0.009120 0.080000
v 0.001305 0.009914 0.079200
v 0.001275 0.009681 0.079766
v 0.002381 0.008885 0.000000
v 0.002588 0.009659 0.000800
v 0.002527 0.009432 0.000234
v 0.002381 0.008885 0.080000
v 0.002588 0.009659 0.079200
v 0.002527 0.009432 0.079766
v 0.003520 0.008498 0.000000
v 0.003827 0.009239 0.000800
v 0.003737 0.009021 0.000234
v 0.003520 0.008498 0.080000
v 0.003827 0.009239 0.079200
v 0.003737 0.009021 0.079766
v 0.004599 0.007966 0.000000
v 0.005000 0.008660 0.000800
v 0.004882 0.008456 0.000234
v 0.004599 0.007966 0.080000
v 0.005000 0.008660 0.079200
v 0.004882 0.008456 0.079766
v 0.005600 0.007297 0.000000
v 0.006088 0.007934 0.000800
v 0.005944 0.007747 0.000234
v 0.005600 0.007297 0.080000
v 0.006088 0.007934 0.079200
v 0.005944 0.007747 0.079766
v 0.006504 0.006504 0.000000
v 0.007071 0.007071 0.000800
v 0.006905 0.006905 0.000234
v 0.006504 0.006504 0.080000
v 0.007071 0.007071 0.079200
v 0.006905 0.006905 0.079766
v 0.007297 0.005600 0.000000
v 0.007934 0.006088 0.000800
v 0.007747 0.005944 0.000234
v 0.007297 0.005600 0.080000
v 0.007934 0.006088 0.079200
v 0.007747 0.005944 0.079766
v 0.007966 0.004599 0.000000
v 0.008660 0.005000 0.000800
v 0.008456 0.004882 0.000234
v 0.007966 0.004599 0.080000
v 0.008660 0.005000 0.079200
v 0.008456 0.004882 0.079766
v 0.008498 0.003520 0.000000
v 0.009239 0.003827 0.000800
v 0.009021 0.003737 0.000234
v 0.008498 0.003520 0.080000
v 0.009239 0.003827 0.079200
v 0.009021 0.003737 0.079766
v 0.008885 0.002381 0.000000
v 0.009659 0.002588 0.000800
v 0.009432 0.002527 0.000234
v 0.008885 0.002381 0.080000
v 0.009659 0.002588 0.079200
v 0.009432 0.002527 0.079766
v 0.009120 0.001201 0.000000
v 0.009914 0.001305 0.000800
v 0.009681 0.001275 0.000234
v 0.009120 0.001201 0.080000
v 0.009914 0.001305 0.079200
v 0.009681 0.001275 0.079766
v 0.009198 0.000000 0.000000
v 0.010000 0.000000 0.000800
v 0.009764 0.000000 0.000234
v 0.009198 -0.000000 0.080000
v 0.010000 0.000000 0.079200
v 0.009764 -0.000000 0.079766
v 0.009120 -0.001201 0.000000
v 0.009914 -0.001305 0.000800
v 0.009681 -0.001275 0.000234
v 0.009120 -0.001201 0.080000
v 0.009914 -0.001305 0.079200
v 0.009681 -0.001275 0.079766
v 0.008885 -0.002381 0.000000
v 0.009659 -0.002588 0.000800
v 0.009432 -0.002527 0.000234
v 0.008885 -0.002381 0.080000
v 0.009659 -0.002588 0.079200
v 0.009432 -0.002527 0.079766
v 0.008498 -0.003520 0.000000
v 0.009239 -0.003827 0.000800
v 0.009021 -0.003737 0.000234
v 0.008498 -0.003520 0.080000
v 0.009239 -0.003827 0.079200
v 0.009021 -0.003737 0.079766
v 0.007966 -0.004599 0.000000
v 0.008660 -0.005000 0.000800
v 0.008456 -0.004882 0.000234
v 0.007966 -0.004599 0.080000
v 0.008660 -0.005000 0.079200
v 0.008456 -0.004882 0.079766
v 0.007297 -0.005600 0.000000
v 0.007934 -0.006088 0.000800
v 0.007747 -0.005944 0.000234
v 0.007297 -0.005600 0.080000
v 0.007934 -0.006088 0.079200
v 0.007747 -0.005944 0.079766
v 0.006504 -0.006504 0.000000
v 0.007071 -0.007071 0.000800
v 0.006905 -0.006905 0.000234
v 0.006504 -0.006504 0.080000
v 0.007071 -0.007071 0.079200
v 0.006905 -0.006905 0.079766
v 0.005600 -0.007297 0.000000
v 0.006088 -0.007934 0.000800
v 0.005944 -0.007747 0.000234
v 0.005600 -0.007297 0.080000
v 0.006088 -0.007934 0.079200
v 0.005944 -0.007747 0.079766
v 0.004599 -0.007966 0.000000
v 0.005000 -0.008660 0.000800
v 0.004882 -0.008456 0.000234
v 0.004599 -0.007966 0.080000
v 0.005000 -0.008660 0.079200
v 0.004882 -0.008456 0.079766
v 0.003520 -0.008498 0.000000
v 0.003827 -0.009239 0.000800
v 0.003737 -0.009021 0.000234
v 0.003520 -0.008498 0.080000
v 0.003827 -0.009239 0.079200
v 0.003737 -0.009021 0.079766
v 0.002381 -0.008885 0.000000
v 0.002588 -0.009659 0.000800
v 0.002527 -0.009432 0.000234
v 0.002381 -0.008885 0.080000
v 0.002588 -0.009659 0.079200
v 0.002527 -0.009432 0.079766
v 0.001201 -0.009120 0.000000
v 0.001305 -0.009914 0.000800
v 0.001275 -0.009681 0.000234
v 0.001201 -0.009120 0.080000
v 0.001305 -0.009914 0.079200
v 0.001275 -0.009681 0.079766
v 0.000000 -0.009198 0.000000
v 0.000000 -0.010000 0.000800
v 0.000000 -0.009764 0.000234
v -0.000000 -0.009198 0.080000
v 0.000000 -0.010000 0.079200
v -0.000000 -0.009764 0.079766
v -0.001201 -0.009120 0.000000
v -0.001305 -0.009914 0.000800
v -0.001275 -0.009681 0.000234
v -0.001201 -0.009120 0.080000
v -0.001305 -0.009914 0.079200
v -0.001275 -0.009681 0.079766
v -0.002381 -0.008885 0.000000
v -0.002588 -0.009659 0.000800
v -0.002527 -0.009432 0.000234
v -0.002381 -0.008885 0.080000
v -0.002588 -0.009659 0.079200
v -0.002527 -0.009432 0.079766
v -0.003520 -0.008498 0.000000
v -0.003827 -0.009239 0.000800
v -0.003737 -0.009021 0.000234
v -0.003520 -0.008498 0.080000
v -0.003827 -0.009239 0.079200
v -0.003737 -0.009021 0.079766
v -0.004599 -0.007966 0.000000
v -0.005000 -0.008660 0.000800
v -0.004882 -0.008456 0.000234
v -0.004599 -0.007966 0.080000
v -0.005000 -0.008660 0.079200
v -0.004882 -0.008456 0.079766
v -0.005600 -0.007297 0.000000
v -0.006088 -0.007934 0.000800
v -0.005944 -0.007747 0.000234
v -0.005600 -0.007297 0.080000
v -0.006088 -0.007934 0.079200
v -0.005944 -0.007747 0.079766
v -0.006504 -0.006504 0.000000
v -0.007071 -0.007071 0.000800
v -0.006905 -0.006905 0.000234
v -0.006504 -0.006504 0.080000
v -0.007071 -0.007071 0.079200
v -0.006905 -0.006905 0.079766
v -0.007297 -0.005600 0.000000
v -0.007934 -0.006088 0.000800
v -0.007747 -0.005944 0.000234
v -0.007297 -0.005600 0.080000
v -0.007934 -0.006088 0.079200
v -0.007747 -0.005944 0.079766
v -0.007966 -0.004599 0.000000
v -0.008660 -0.005000 0.000800
v -0.008456 -0.004882 0.000234
v -0.007966 -0.004599 0.080000
v -0.008660 -0.005000 0.079200
v -0.008456 -0.004882 0.079766
v -0.008498 -0.003520 0.000000
v -0.009239 -0.003827 0.000800
v -0.009021 -0.003737 0.000234
v -0.008498 -0.003520 0.080000
v -0.009239 -0.003827 0.079200
v -0.009021 -0.003737 0.079766
v -0.008885 -0.002381 0.000000
v -0.009659 -0.002588 0.000800
v -0.009432 -0.002527 0.000234
v -0.008885 -0.002381 0.080000
v -0.009659 -0.002588 0.079200
v -0.009432 -0.002527 0.079766
v -0.009120 -0.001201 0.000000
v -0.009914 -0.001305 0.000800
v -0.009681 -0.001275 0.000234
v -0.009120 -0.001201 0.080000
v -0.009914 -0.001305 0.079200
v -0.009681 -0.001275 0.079766
v -0.009198 -0.000000 0.000000
v -0.010000 0.000000 0.000800
v -0.009764 -0.000000 0.000234
v -0.009198 0.000000 0.080000
v -0.010000 0.000000 0.079200
v -0.009764 0.000000 0.079766
v -0.009120 0.001201 0.000000
v -0.009914 0.001305 0.000800
v -0.009681 0.001275 0.000234
v -0.009120 0.001201 0.080000
v -0.009914 0.001305 0.079200
v -0.009681 0.001275 0.079766
v -0.008885 0.002381 0.000000
v -0.009659 0.002588 0.000800
v -0.009432 0.002527 0.000234
v -0.008885 0.002381 0.080000
v -0.009659 0.002588 0.079200
v -0.009432 0.002527 0.079766
v -0.008498 0.003520 0.000000
v -0.009239 0.003827 0.000800
v -0.009021 0.003737 0.000234
v -0.008498 0.003520 0.080000
v -0.009239 0.003827 0.079200
v -0.009021 0.003737 0.079766
v -0.007966 0.004599 0.000000
v -0.008660 0.005000 0.000800
v -0.008456 0.004882 0.000234
v -0.007966 0.004599 0.080000
v -0.008660 0.005000 0.079200
v -0.008456 0.004882 0.079766
v -0.007297 0.005600 0.000000
v -0.007934 0.006088 0.000800
v -0.007747 0.005944 0.000234
v -0.007297 0.005600 0.080000
v -0.007934 0.006088 0.079200
v -0.007747 0.005944 0.079766
v -0.006504 0.006504 0.000000
v -0.007071 0.007071 0.000800
v -0.006905 0.006905 0.000234
v -0.006504 0.006504 0.080000
v -0.007071 0.007071 0.079200
v -0.006905 0.006905 0.079766
v -0.005600 0.007297 0.000000
v -0.006088 0.007934 0.000800
v -0.005944 0.007747 0.000234
v -0.005600 0.007297 0.080000
v -0.006088 0.007934 0.079200
v -0.005944 0.007747 0.079766
v -0.004599 0.007966 0.000000
v -0.005000 0.008660 0.000800
v -0.004882 0.008456 0.000234
v -0.004599 0.007966 0.080000
v -0.005000 0.008660 0.079200
v -0.004882 0.008456 0.079766
v -0.003520 0.008498 0.000000
v -0.003827 0.009239 0.000800
v -0.003737 0.009021 0.000234
v -0.003520 0.008498 0.080000
v -0.003827 0.009239 0.079200
v -0.003737 0.009021 0.079766
v -0.002381 0.008885 0.000000
v -0.002588 0.009659 0.000800
v -0.002527 0.009432 0.000234
v -0.002381 0.008885 0.080000
v -0.002588 0.009659 0.079200
v -0.002527 0.009432 0.079766
v -0.001201 0.009120 0.000000
v -0.001305 0.009914 0.000800
v -0.001275 0.009681 0.000234
v -0.001201 0.009120 0.080000
v -0.001305 0.009914 0.079200
v -0.001275 0.009681 0.079766
vn 0.0604 0.9215 -0.3837
vn 0.0251 0.3823 -0.9237
vn 0.0604 0.9215 0.3837
vn 0.0251 0.3823 0.9237
vn 0.1802 0.9057 -0.3837
vn 0.0747 0.3757 -0.9237
vn 0.1802 0.9057 0.3837
vn 0.0747 0.3757 0.9237
vn 0.2968 0.8745 -0.3837
vn 0.1231 0.3628 -0.9237
vn 0.2968 0.8745 0.3837
vn 0.1231 0.3628 0.9237
vn 0.4084 0.8282 -0.3837
vn 0.1694 0.3436 -0.9237
vn 0.4084 0.8282 0.3837
vn 0.1695 0.3436 0.9237
vn 0.5131 0.7678 -0.3837
vn 0.2128 0.3185 -0.9237
vn 0.5131 0.7678 0.3837
vn 0.2128 0.3185 0.9237
vn 0.6089 0.6943 -0.3837
vn 0.2526 0.2880 -0.9237
vn 0.6089 0.6943 0.3837
vn 0.2526 0.2880 0.9237
vn 0.6943 0.6089 -0.3837
vn 0.2880 0.2526 -0.9237
vn 0.6943 0.6089 0.3837
vn 0.2880 0.2526 0.9237
vn 0.7678 0.5131 -0.3837
vn 0.3185 0.2128 -0.9237
vn 0.7678 0.5131 0.3837
vn 0.3185 0.2128 0.9237
vn 0.8282 0.4084 -0.3837
vn 0.3436 0.1694 -0.9237
vn 0.8282 0.4084 0.3837
vn 0.3436 0.1694 0.9237
vn 0.8745 0.2968 -0.3837
vn 0.3628 0.1231 -0.9237
vn 0.8745 0.2968 0.3837
vn 0.3628 0.1231 0.9237
vn 0.9057 0.1802 -0.3837
vn 0.3757 0.0747 -0.9237
vn 0.9057 0.1802 0.3837
vn 0.3757 0.0747 0.9237
vn 0.9215 0.0604 -0.3837
vn 0.3823 0.0251 -0.9237
vn 0.9215 0.0604 0.3837
vn 0.3823 0.0251 0.9237
vn 0.9215 -0.0604 -0.3837
vn 0.3823 -0.0251 -0.9237
vn 0.9215 -0.0604 0.3837
vn 0.3823 -0.0251 0.9237
vn 0.9057 -0.1802 -0.3837
vn 0.3757 -0.0747 -0.9237
vn 0.9057 -0.1802 0.3837
vn 0.3757 -0.0747 0.9237
vn 0.8745 -0.2968 -0.3837
vn 0.3628 -0.1231 -0.9237
vn 0.8745 -0.2968 0.3837
vn 0.3628 -0.1231 0.9237
vn 0.8282 -0.4084 -0.3837
vn 0.3436 -0.1694 -0.9237
vn 0.8282 -0.4084 0.3837
vn 0.3436 -0.1694 0.9237
vn 0.7678 -0.5131 -0.3837
vn 0.3185 -0.2128 -0.9237
vn 0.7678 -0.5131 0.3837
vn 0.3185 -0.2128 0.9237
vn 0.6943 -0.6089 -0.3837
vn 0.2880 -0.2526 -0.9237
vn 0.6943 -0.6089 0.3837
vn 0.2880 -0.2526 0.9237
vn 0.6089 -0.6943 -0.3837
vn 0.2526 -0.2880 -0.9237
vn 0.6089 -0.6943 0.3837
vn 0.2526 -0.2880 0.9237
vn 0.5131 -0.7678 -0.3837
vn 0.2128 -0.3185 -0.9237
vn 0.5130 -0.7678 0.3837
vn 0.2128 -0.3185 0.9237
vn 0.4084 -0.8282 -0.3837
vn 0.1694 -0.3436 -0.9237
vn 0.4084 -0.8282 0.3837
vn 0.1694 -0.3436 0.9237
vn 0.2968 -0.8745 -0.3837
vn 0.1231 -0.3628 -0.9237
vn 0.2968 -0.8745 0.3837
vn 0.1231 -0.3628 0.9237
vn 0.1802 -0.9057 -0.3837
vn 0.0747 -0.3757 -0.9237
vn 0.1802 -0.9057 0.3837
vn 0.0747 -0.3757 0.9237
vn 0.0604 -0.9215 -0.3837
vn 0.0251 -0.3823 -0.9237
vn 0.0604 -0.9215 0.3837
vn 0.0251 -0.3823 0.9237
vn -0.0604 -0.9215 -0.3837
vn -0.0251 -0.3823 -0.9237
vn -0.0604 -0.9215 0.3837
vn -0.0251 -0.3823 0.9237
vn -0.1802 -0.9057 -0.3837
vn -0.0747 -0.3757 -0.9237
vn -0.1802 -0.9057 0.3837
vn -0.0747 -0.3757 0.9237
vn -0.2968 -0.8745 -0.3837
vn -0.1231 -0.3628 -0.9237
vn -0.2968 -0.8745 0.3837
vn -0.1231 -0.3628 0.9237
vn -0.4084 -0.8282 -0.3837
vn -0.1694 -0.3436 -0.9237
vn -0.4084 -0.8282 0.3837
vn -0.1695 -0.3436 0.9237
vn -0.5131 -0.7678 -0.3837
vn -0.2128 -0.3185 -0.9237
vn -0.5131 -0.7678 0.3837
vn -0.2128 -0.3185 0.9237
vn -0.6089 -0.6943 -0.3837
vn -0.2526 -0.2880 -0.9237
vn -0.6089 -0.6943 0.3837
vn -0.2526 -0.2880 0.9237
vn -0.6943 -0.6089 -0.3837
vn -0.2880 -0.2526 -0.9237
vn -0.6943 -0.6089 0.3837
vn -0.2880 -0.2526 0.9237
vn -0.7678 -0.5131 -0.3837
vn -0.3185 -0.2128 -0.9237
vn -0.7678 -0.5131 0.3837
vn -0.3185 -0.2128 0.9237
vn -0.8282 -0.4084 -0.3837
vn -0.3436 -0.1694 -0.9237
vn -0.8282 -0.4084 0.3837
vn -0.3436 -0.1694 0.9237
vn -0.8745 -0.2968 -0.3837
vn -0.3628 -0.1231 -0.9237
vn -0.8745 -0.2968 0.3837
vn -0.3628 -0.1231 0.9237
vn -0.9057 -0.1802 -0.3837
vn -0.3757 -0.0747 -0.9237
vn -0.9057 -0.1802 0.3837
vn -0.3757 -0.0747 0.9237
vn -0.9215 -0.0604 -0.3837
vn -0.3823 -0.0251 -0.9237
vn -0.9215 -0.0604 0.3837
vn -0.3823 -0.0251 0.9237
vn -0.9215 0.0604 -0.3837
vn -0.3823 0.0251 -0.9237
vn -0.9215 0.0604 0.3837
vn -0.3823 0.0251 0.9237
vn -0.9057 0.1802 -0.3837
vn -0.3757 0.0747 -0.9237
vn -0.9057 0.1802 0.3837
vn -0.3757 0.0747 0.9237
vn -0.8745 0.2968 -0.3837
vn -0.3628 0.1231 -0.9237
vn -0.8745 0.2968 0.3837
vn -0.3628 0.1231 0.9237
vn -0.8282 0.4084 -0.3837
vn -0.3436 0.1694 -0.9237
vn -0.8282 0.4084 0.3837
vn -0.3436 0.1694 0.9237
vn -0.7678 0.5131 -0.3837
vn -0.3185 0.2128 -0.9237
vn -0.7678 0.5131 0.3837
vn -0.3185 0.2128 0.9237
vn -0.6943 0.6089 -0.3837
vn -0.2880 0.2526 -0.9237
vn -0.6943 0.6089 0.3837
vn -0.2880 0.2526 0.9237
vn -0.6089 0.6943 -0.3837
vn -0.2526 0.2880 -0.9237
vn -0.6089 0.6943 0.3837
vn -0.2526 0.2880 0.9237
vn -0.5131 0.7678 -0.3837
vn -0.2128 0.3185 -0.9237
vn -0.5130 0.7678 0.3837
vn -0.2128 0.3185 0.9237
vn -0.4084 0.8282 -0.3837
vn -0.1694 0.3436 -0.9237
vn -0.4084 0.8282 0.3837
vn -0.1694 0.3436 0.9237
vn -0.2968 0.8745 -0.3837
vn -0.1231 0.3628 -0.9237
vn -0.2968 0.8745 0.3837
vn -0.1231 0.3628 0.9237
vn -0.1802 0.9057 -0.3837
vn -0.0747 0.3757 -0.9237
vn -0.1802 0.9057 0.3837
vn -0.0747 0.3757 0.9237
vn -0.0604 0.9215 -0.3837
vn -0.0251 0.3823 -0.9237
vn -0.0604 0.9215 0.3837
vn -0.0251 0.3823 0.9237
vn -0.0000 -0.0000 -1.0000
vn 0.0654 0.9979 -0.0000
vn -0.0654 0.9979 -0.0000
vn -0.0000 -0.0000 1.0000
vn 0.1951 0.9808 -0.0000
vn 0.3214 0.9469 -0.0000
vn 0.4423 0.8969 -0.0000
vn 0.5556 0.8315 -0.0000
vn 0.6593 0.7518 -0.0000
vn 0.7518 0.6593 -0.0000
vn 0.8315 0.5556 -0.0000
vn 0.8969 0.4423 -0.0000
vn 0.9469 0.3214 -0.0000
vn 0.9808 0.1951 -0.0000
vn 0.9979 0.0654 -0.0000
vn 0.9979 -0.0654 -0.0000
vn 0.9808 -0.1951 -0.0000
vn 0.9469 -0.3214 -0.0000
vn 0.8969 -0.4423 -0.0000
vn 0.8315 -0.5556 -0.0000
vn 0.7518 -0.6593 -0.0000
vn 0.6593 -0.7518 -0.0000
vn 0.5556 -0.8315 -0.0000
vn 0.4423 -0.8969 -0.0000
vn 0.3214 -0.9469 -0.0000
vn 0.1951 -0.9808 -0.0000
vn 0.0654 -0.9979 -0.0000
vn -0.0654 -0.9979 -0.0000
vn -0.1951 -0.9808 -0.0000
vn -0.3214 -0.9469 -0.0000
vn -0.4423 -0.8969 -0.0000
vn -0.5556 -0.8315 -0.0000
vn -0.6593 -0.7518 -0.0000
vn -0.7518 -0.6593 -0.0000
vn -0.8315 -0.5556 -0.0000
vn -0.8969 -0.4423 -0.0000
vn -0.9469 -0.3214 -0.0000
vn -0.9808 -0.1951 -0.0000
vn -0.9979 -0.0654 -0.0000
vn -0.9979 0.0654 -0.0000
vn -0.9808 0.1951 -0.0000
vn -0.9469 0.3214 -0.0000
vn -0.8969 0.4423 -0.0000
vn -0.8315 0.5556 -0.0000
vn -0.7518 0.6593 -0.0000
vn -0.6593 0.7518 -0.0000
vn -0.5556 0.8315 -0.0000
vn -0.4423 0.8969 -0.0000
vn -0.3214 0.9469 -0.0000
vn -0.1951 0.9808 -0.0000
vn 0.1694 0.3436 0.9237
vn 0.5130 0.7678 0.3837
vn 0.5131 -0.7678 0.3837
vn 0.4085 -0.8282 0.3837
vn -0.1694 -0.3436 0.9237
vn -0.5130 -0.7678 0.3837
vn -0.5131 0.7678 0.3837
vn -0.4085 0.8282 0.3837
vn -0.0001 -0.0000 1.0000
vn 0.0001 -0.0000 1.0000
vt 0.088755 0.975749
vt 0.104657 0.982708
vt 0.088944 0.982708
vt 0.758010 0.147610
vt 0.762910 0.131576
vt 0.764842 0.146251
vt 0.088755 0.011268
vt 0.104657 0.004309
vt 0.104847 0.011268
vt 0.762077 0.411138
vt 0.764842 0.394601
vt 0.768673 0.408899
vt 0.104847 0.975749
vt 0.120236 0.982708
vt 0.755959 0.132032
vt 0.762910 0.116774
vt 0.120236 0.004309
vt 0.120801 0.011268
vt 0.774337 0.422574
vt 0.768090 0.425654
vt 0.136345 0.975749
vt 0.120801 0.975749
vt 0.755959 0.116319
vt 0.764842 0.102099
vt 0.135413 0.004309
vt 0.136345 0.011268
vt 0.781738 0.435392
vt 0.775946 0.439262
vt 0.151212 0.975749
vt 0.135413 0.982708
vt 0.758010 0.100740
vt 0.768672 0.087802
vt 0.149930 0.004309
vt 0.151212 0.011268
vt 0.790749 0.447135
vt 0.785512 0.451728
vt 0.165147 0.975749
vt 0.149930 0.982708
vt 0.762077 0.085563
vt 0.774337 0.074127
vt 0.165147 0.011268
vt 0.163538 0.004309
vt 0.801215 0.457602
vt 0.796622 0.462839
vt 0.177914 0.975749
vt 0.163538 0.982708
vt 0.775946 0.057438
vt 0.768090 0.071046
vt 0.177914 0.011268
vt 0.176004 0.004309
vt 0.809088 0.472404
vt 0.812958 0.466612
vt 0.187114 0.982708
vt 0.176004 0.982708
vt 0.790748 0.049565
vt 0.781738 0.061308
vt 0.187114 0.004309
vt 0.189293 0.011268
vt 0.825777 0.474013
vt 0.822696 0.480260
vt 0.209290 0.975749
vt 0.223666 0.982708
vt 0.211200 0.982708
vt 0.785512 0.044972
vt 0.801215 0.039099
vt 0.209290 0.011268
vt 0.223666 0.004309
vt 0.222056 0.011268
vt 0.837213 0.486273
vt 0.839452 0.479678
vt 0.235992 0.975749
vt 0.222056 0.975749
vt 0.809088 0.024296
vt 0.796622 0.033862
vt 0.237274 0.004309
vt 0.235992 0.011268
vt 0.852390 0.490340
vt 0.853749 0.483509
vt 0.250859 0.975749
vt 0.237274 0.982708
vt 0.822696 0.016440
vt 0.812958 0.030088
vt 0.251790 0.004309
vt 0.250859 0.011268
vt 0.867969 0.492391
vt 0.868424 0.485441
vt 0.266403 0.975749
vt 0.251790 0.982708
vt 0.837213 0.010427
vt 0.825777 0.022687
vt 0.266403 0.011268
vt 0.266968 0.004309
vt 0.883682 0.492391
vt 0.883226 0.485441
vt 0.282357 0.975749
vt 0.266968 0.982708
vt 0.852390 0.006360
vt 0.839452 0.017023
vt 0.282357 0.011268
vt 0.282546 0.004309
vt 0.897901 0.483509
vt 0.899260 0.490340
vt 0.298259 0.982708
vt 0.282546 0.982708
vt 0.868424 0.011260
vt 0.853749 0.013192
vt 0.298259 0.004309
vt 0.298449 0.011268
vt 0.914437 0.486273
vt 0.912198 0.479678
vt 0.298449 0.975749
vt 0.313838 0.982708
vt 0.867968 0.004309
vt 0.883226 0.011260
vt 0.313838 0.004309
vt 0.314403 0.011268
vt 0.925873 0.474013
vt 0.928954 0.480260
vt 0.329946 0.975749
vt 0.314403 0.975749
vt 0.883681 0.004309
vt 0.897901 0.013192
vt 0.329015 0.004309
vt 0.329946 0.011268
vt 0.938692 0.466612
vt 0.942562 0.472404
vt 0.344813 0.975749
vt 0.329015 0.982708
vt 0.899260 0.006360
vt 0.912198 0.017022
vt 0.343532 0.004309
vt 0.344813 0.011268
vt 0.950435 0.457602
vt 0.955028 0.462838
vt 0.358749 0.975749
vt 0.343532 0.982708
vt 0.914437 0.010427
vt 0.925873 0.022687
vt 0.358749 0.011268
vt 0.357140 0.004309
vt 0.960902 0.447135
vt 0.966138 0.451728
vt 0.371516 0.975749
vt 0.357140 0.982708
vt 0.942562 0.024296
vt 0.928954 0.016440
vt 0.371516 0.011268
vt 0.369605 0.004309
vt 0.975704 0.439262
vt 0.969912 0.435392
vt 0.380716 0.982708
vt 0.369605 0.982708
vt 0.950435 0.039098
vt 0.938692 0.030088
vt 0.380716 0.004309
vt 0.382894 0.011268
vt 0.977313 0.422573
vt 0.983560 0.425654
vt 0.391513 0.975749
vt 0.404802 0.982708
vt 0.393691 0.982708
vt 0.955028 0.033862
vt 0.960901 0.049565
vt 0.391513 0.011268
vt 0.404802 0.004309
vt 0.402891 0.011268
vt 0.989573 0.411137
vt 0.982978 0.408898
vt 0.415658 0.975749
vt 0.402891 0.975749
vt 0.975704 0.057438
vt 0.966138 0.044972
vt 0.417268 0.004309
vt 0.415658 0.011268
vt 0.993640 0.395960
vt 0.986808 0.394601
vt 0.429594 0.975749
vt 0.417268 0.982708
vt 0.983560 0.071046
vt 0.969912 0.061308
vt 0.430875 0.004309
vt 0.429594 0.011268
vt 0.995691 0.380381
vt 0.988741 0.379926
vt 0.444461 0.975749
vt 0.430875 0.982708
vt 0.989573 0.085563
vt 0.977313 0.074127
vt 0.444461 0.011268
vt 0.445392 0.004309
vt 0.995691 0.364669
vt 0.988741 0.365124
vt 0.460004 0.975749
vt 0.445392 0.982708
vt 0.993640 0.100740
vt 0.982978 0.087802
vt 0.460004 0.011268
vt 0.460570 0.004309
vt 0.986808 0.350449
vt 0.993640 0.349090
vt 0.476148 0.982708
vt 0.460570 0.982708
vt 0.988741 0.116774
vt 0.986808 0.102099
vt 0.476148 0.004309
vt 0.475959 0.011268
vt 0.989573 0.333913
vt 0.982977 0.336152
vt 0.475959 0.975749
vt 0.491861 0.982708
vt 0.995691 0.116319
vt 0.988741 0.131576
vt 0.491861 0.004309
vt 0.492050 0.011268
vt 0.977313 0.322477
vt 0.983560 0.319396
vt 0.508005 0.975749
vt 0.492050 0.975749
vt 0.995691 0.132031
vt 0.986809 0.146251
vt 0.507439 0.004309
vt 0.508005 0.011268
vt 0.969912 0.309658
vt 0.975704 0.305788
vt 0.523548 0.975749
vt 0.507439 0.982708
vt 0.993640 0.147610
vt 0.982978 0.160548
vt 0.522617 0.004309
vt 0.523548 0.011268
vt 0.960901 0.297915
vt 0.966138 0.293322
vt 0.538415 0.975749
vt 0.522617 0.982708
vt 0.989573 0.162787
vt 0.977313 0.174223
vt 0.538415 0.011268
vt 0.537134 0.004309
vt 0.950435 0.287449
vt 0.955028 0.282212
vt 0.552351 0.975749
vt 0.537134 0.982708
vt 0.975704 0.190912
vt 0.983560 0.177304
vt 0.552351 0.011268
vt 0.550741 0.004309
vt 0.942562 0.272646
vt 0.938692 0.278438
vt 0.563207 0.982708
vt 0.550741 0.982708
vt 0.960902 0.198785
vt 0.969912 0.187042
vt 0.563207 0.004309
vt 0.565118 0.011268
vt 0.925873 0.271037
vt 0.928954 0.264790
vt 0.573736 0.975749
vt 0.588112 0.982708
vt 0.575646 0.982708
vt 0.966138 0.203378
vt 0.950435 0.209252
vt 0.573736 0.011268
vt 0.588112 0.004309
vt 0.586502 0.011268
vt 0.914437 0.258777
vt 0.912198 0.265373
vt 0.600438 0.975749
vt 0.586502 0.975749
vt 0.942562 0.224054
vt 0.955028 0.214488
vt 0.601720 0.004309
vt 0.600438 0.011268
vt 0.899260 0.254710
vt 0.897901 0.261542
vt 0.615305 0.975749
vt 0.601720 0.982708
vt 0.928954 0.231910
vt 0.938692 0.218262
vt 0.616237 0.004309
vt 0.615305 0.011268
vt 0.883681 0.252659
vt 0.883226 0.259610
vt 0.630849 0.975749
vt 0.616237 0.982708
vt 0.914437 0.237923
vt 0.925874 0.225663
vt 0.630849 0.011268
vt 0.631414 0.004309
vt 0.867968 0.252659
vt 0.868424 0.259610
vt 0.646803 0.975749
vt 0.631414 0.982708
vt 0.899260 0.241990
vt 0.912198 0.231328
vt 0.646803 0.011268
vt 0.646993 0.004309
vt 0.853749 0.261542
vt 0.852390 0.254710
vt 0.662705 0.982708
vt 0.646993 0.982708
vt 0.883226 0.237091
vt 0.897901 0.235159
vt 0.662705 0.004309
vt 0.662895 0.011268
vt 0.837213 0.258777
vt 0.839452 0.265373
vt 0.662895 0.975749
vt 0.678284 0.982708
vt 0.883682 0.244041
vt 0.868424 0.237091
vt 0.678284 0.004309
vt 0.678849 0.011268
vt 0.825777 0.271037
vt 0.822696 0.264790
vt 0.694393 0.975749
vt 0.678849 0.975749
vt 0.867969 0.244041
vt 0.853749 0.235159
vt 0.693461 0.004309
vt 0.694393 0.011268
vt 0.812958 0.278438
vt 0.809088 0.272647
vt 0.709260 0.975749
vt 0.693461 0.982708
vt 0.852390 0.241990
vt 0.839452 0.231328
vt 0.707978 0.004309
vt 0.709260 0.011268
vt 0.801215 0.287449
vt 0.796622 0.282212
vt 0.723196 0.975749
vt 0.707978 0.982708
vt 0.837213 0.237923
vt 0.825777 0.225663
vt 0.723196 0.011268
vt 0.721586 0.004309
vt 0.790748 0.297915
vt 0.785512 0.293323
vt 0.735962 0.975749
vt 0.721586 0.982708
vt 0.809088 0.224054
vt 0.822696 0.231910
vt 0.735962 0.011268
vt 0.734052 0.004309
vt 0.775946 0.305788
vt 0.781738 0.309658
vt 0.745162 0.982708
vt 0.734052 0.982708
vt 0.801215 0.209252
vt 0.812958 0.218262
vt 0.745162 0.004309
vt 0.747341 0.011268
vt 0.774337 0.322477
vt 0.768090 0.319396
vt 0.015688 0.975749
vt 0.030064 0.982708
vt 0.017598 0.982708
vt 0.796623 0.214488
vt 0.790749 0.198785
vt 0.015688 0.011268
vt 0.030064 0.004309
vt 0.028454 0.011268
vt 0.762077 0.333913
vt 0.768672 0.336152
vt 0.042390 0.975749
vt 0.028454 0.975749
vt 0.775946 0.190912
vt 0.785512 0.203378
vt 0.043672 0.004309
vt 0.042390 0.011268
vt 0.758010 0.349090
vt 0.764841 0.350449
vt 0.057257 0.975749
vt 0.043672 0.982708
vt 0.768090 0.177304
vt 0.781738 0.187042
vt 0.058189 0.004309
vt 0.057257 0.011268
vt 0.755959 0.364669
vt 0.762909 0.365124
vt 0.072801 0.975749
vt 0.058189 0.982708
vt 0.762077 0.162787
vt 0.774337 0.174223
vt 0.072801 0.011268
vt 0.073366 0.004309
vt 0.755959 0.380382
vt 0.762910 0.379926
vt 0.073366 0.982708
vt 0.768673 0.160548
vt 0.088944 0.004309
vt 0.758010 0.395960
vt 0.197911 0.011268
vt 0.197911 0.975749
vt 0.382894 0.975749
vt 0.565118 0.975749
vt 0.004309 0.011268
vt 0.004309 0.975749
vt 0.189293 0.975749
vt 0.211200 0.004309
vt 0.393691 0.004309
vt 0.575646 0.004309
vt 0.747341 0.975749
vt 0.017598 0.004309
s 0
usemtl ARAT_light_maple
f 2/1/1 9/2/1 3/3/1
f 3/4/2 7/5/2 1/6/2
f 5/7/3 12/8/3 11/9/3
f 12/10/4 4/11/4 10/12/4
f 8/13/5 15/14/5 9/2/5
f 9/15/6 13/16/6 7/5/6
f 11/9/7 18/17/7 17/18/7
f 12/10/8 16/19/8 18/20/8
f 20/21/9 15/14/9 14/22/9
f 15/23/10 19/24/10 13/16/10
f 17/18/11 24/25/11 23/26/11
f 18/20/12 22/27/12 24/28/12
f 26/29/13 21/30/13 20/21/13
f 21/31/14 25/32/14 19/24/14
f 23/26/15 30/33/15 29/34/15
f 24/28/16 28/35/16 30/36/16
f 32/37/17 27/38/17 26/29/17
f 27/39/18 31/40/18 25/32/18
f 35/41/19 30/33/19 36/42/19
f 30/36/20 34/43/20 36/44/20
f 38/45/21 33/46/21 32/37/21
f 39/47/22 31/40/22 33/48/22
f 41/49/23 36/42/23 42/50/23
f 42/51/24 34/43/24 40/52/24
f 38/45/25 45/53/25 39/54/25
f 39/47/26 43/55/26 37/56/26
f 41/49/27 48/57/27 47/58/27
f 42/51/28 46/59/28 48/60/28
f 44/61/29 51/62/29 45/63/29
f 45/64/30 49/65/30 43/55/30
f 47/66/31 54/67/31 53/68/31
f 54/69/32 46/59/32 52/70/32
f 56/71/33 51/62/33 50/72/33
f 57/73/34 49/65/34 51/74/34
f 53/68/35 60/75/35 59/76/35
f 60/77/36 52/70/36 58/78/36
f 62/79/37 57/80/37 56/71/37
f 63/81/38 55/82/38 57/73/38
f 59/76/39 66/83/39 65/84/39
f 66/85/40 58/78/40 64/86/40
f 68/87/41 63/88/41 62/79/41
f 69/89/42 61/90/42 63/81/42
f 71/91/43 66/83/43 72/92/43
f 72/93/44 64/86/44 70/94/44
f 74/95/45 69/96/45 68/87/45
f 75/97/46 67/98/46 69/89/46
f 77/99/47 72/92/47 78/100/47
f 72/93/48 76/101/48 78/102/48
f 74/95/49 81/103/49 75/104/49
f 75/97/50 79/105/50 73/106/50
f 77/99/51 84/107/51 83/108/51
f 84/109/52 76/101/52 82/110/52
f 80/111/53 87/112/53 81/103/53
f 81/113/54 85/114/54 79/105/54
f 83/108/55 90/115/55 89/116/55
f 84/109/56 88/117/56 90/118/56
f 92/119/57 87/112/57 86/120/57
f 87/121/58 91/122/58 85/114/58
f 89/116/59 96/123/59 95/124/59
f 90/118/60 94/125/60 96/126/60
f 98/127/61 93/128/61 92/119/61
f 93/129/62 97/130/62 91/122/62
f 95/124/63 102/131/63 101/132/63
f 96/126/64 100/133/64 102/134/64
f 104/135/65 99/136/65 98/127/65
f 99/137/66 103/138/66 97/130/66
f 107/139/67 102/131/67 108/140/67
f 102/134/68 106/141/68 108/142/68
f 110/143/69 105/144/69 104/135/69
f 111/145/70 103/138/70 105/146/70
f 113/147/71 108/140/71 114/148/71
f 114/149/72 106/141/72 112/150/72
f 110/143/73 117/151/73 111/152/73
f 111/145/74 115/153/74 109/154/74
f 113/147/75 120/155/75 119/156/75
f 114/149/76 118/157/76 120/158/76
f 116/159/77 123/160/77 117/161/77
f 117/162/78 121/163/78 115/153/78
f 119/164/79 126/165/79 125/166/79
f 126/167/80 118/157/80 124/168/80
f 128/169/81 123/160/81 122/170/81
f 129/171/82 121/163/82 123/172/82
f 125/166/83 132/173/83 131/174/83
f 132/175/84 124/168/84 130/176/84
f 134/177/85 129/178/85 128/169/85
f 135/179/86 127/180/86 129/171/86
f 131/174/87 138/181/87 137/182/87
f 138/183/88 130/176/88 136/184/88
f 140/185/89 135/186/89 134/177/89
f 141/187/90 133/188/90 135/179/90
f 143/189/91 138/181/91 144/190/91
f 144/191/92 136/184/92 142/192/92
f 146/193/93 141/194/93 140/185/93
f 147/195/94 139/196/94 141/187/94
f 149/197/95 144/190/95 150/198/95
f 144/191/96 148/199/96 150/200/96
f 146/193/97 153/201/97 147/202/97
f 147/195/98 151/203/98 145/204/98
f 149/197/99 156/205/99 155/206/99
f 156/207/100 148/199/100 154/208/100
f 152/209/101 159/210/101 153/201/101
f 153/211/102 157/212/102 151/203/102
f 155/206/103 162/213/103 161/214/103
f 156/207/104 160/215/104 162/216/104
f 164/217/105 159/210/105 158/218/105
f 159/219/106 163/220/106 157/212/106
f 161/214/107 168/221/107 167/222/107
f 162/216/108 166/223/108 168/224/108
f 170/225/109 165/226/109 164/217/109
f 165/227/110 169/228/110 163/220/110
f 167/222/111 174/229/111 173/230/111
f 168/224/112 172/231/112 174/232/112
f 176/233/113 171/234/113 170/225/113
f 171/235/114 175/236/114 169/228/114
f 179/237/115 174/229/115 180/238/115
f 174/232/116 178/239/116 180/240/116
f 182/241/117 177/242/117 176/233/117
f 183/243/118 175/236/118 177/244/118
f 185/245/119 180/238/119 186/246/119
f 186/247/120 178/239/120 184/248/120
f 182/241/121 189/249/121 183/250/121
f 183/243/122 187/251/122 181/252/122
f 185/245/123 192/253/123 191/254/123
f 186/247/124 190/255/124 192/256/124
f 188/257/125 195/258/125 189/259/125
f 189/260/126 193/261/126 187/251/126
f 191/262/127 198/263/127 197/264/127
f 198/265/128 190/255/128 196/266/128
f 200/267/129 195/258/129 194/268/129
f 201/269/130 193/261/130 195/270/130
f 197/264/131 204/271/131 203/272/131
f 204/273/132 196/266/132 202/274/132
f 206/275/133 201/276/133 200/267/133
f 207/277/134 199/278/134 201/269/134
f 203/272/135 210/279/135 209/280/135
f 210/281/136 202/274/136 208/282/136
f 212/283/137 207/284/137 206/275/137
f 213/285/138 205/286/138 207/277/138
f 215/287/139 210/279/139 216/288/139
f 216/289/140 208/282/140 214/290/140
f 218/291/141 213/292/141 212/283/141
f 219/293/142 211/294/142 213/285/142
f 221/295/143 216/288/143 222/296/143
f 216/289/144 220/297/144 222/298/144
f 218/291/145 225/299/145 219/300/145
f 219/293/146 223/301/146 217/302/146
f 221/295/147 228/303/147 227/304/147
f 228/305/148 220/297/148 226/306/148
f 224/307/149 231/308/149 225/299/149
f 225/309/150 229/310/150 223/301/150
f 227/304/151 234/311/151 233/312/151
f 228/305/152 232/313/152 234/314/152
f 236/315/153 231/308/153 230/316/153
f 231/317/154 235/318/154 229/310/154
f 233/312/155 240/319/155 239/320/155
f 234/314/156 238/321/156 240/322/156
f 242/323/157 237/324/157 236/315/157
f 237/325/158 241/326/158 235/318/158
f 239/320/159 246/327/159 245/328/159
f 240/322/160 244/329/160 246/330/160
f 248/331/161 243/332/161 242/323/161
f 243/333/162 247/334/162 241/326/162
f 251/335/163 246/327/163 252/336/163
f 246/330/164 250/337/164 252/338/164
f 254/339/165 249/340/165 248/331/165
f 255/341/166 247/334/166 249/342/166
f 257/343/167 252/336/167 258/344/167
f 258/345/168 250/337/168 256/346/168
f 254/339/169 261/347/169 255/348/169
f 255/341/170 259/349/170 253/350/170
f 257/343/171 264/351/171 263/352/171
f 258/345/172 262/353/172 264/354/172
f 260/355/173 267/356/173 261/357/173
f 261/358/174 265/359/174 259/349/174
f 263/360/175 270/361/175 269/362/175
f 270/363/176 262/353/176 268/364/176
f 272/365/177 267/356/177 266/366/177
f 273/367/178 265/359/178 267/368/178
f 269/362/179 276/369/179 275/370/179
f 276/371/180 268/364/180 274/372/180
f 278/373/181 273/374/181 272/365/181
f 279/375/182 271/376/182 273/367/182
f 275/370/183 282/377/183 281/378/183
f 282/379/184 274/372/184 280/380/184
f 284/381/185 279/382/185 278/373/185
f 285/383/186 277/384/186 279/375/186
f 287/385/187 282/377/187 288/386/187
f 288/387/188 280/380/188 286/388/188
f 2/1/189 285/389/189 284/381/189
f 3/4/190 283/390/190 285/383/190
f 5/7/191 288/386/191 6/391/191
f 288/387/192 4/11/192 6/392/192
f 91/122/193 187/251/193 283/390/193
f 5/7/194 8/13/194 2/1/194
f 287/385/195 2/1/195 284/381/195
f 208/282/196 112/150/196 16/19/196
f 11/9/197 14/22/197 8/13/197
f 17/18/198 20/21/198 14/22/198
f 23/26/199 26/29/199 20/21/199
f 29/34/200 32/37/200 26/29/200
f 35/41/201 38/45/201 32/37/201
f 41/393/202 44/61/202 38/394/202
f 47/66/203 50/72/203 44/61/203
f 53/68/204 56/71/204 50/72/204
f 59/76/205 62/79/205 56/71/205
f 65/84/206 68/87/206 62/79/206
f 71/91/207 74/95/207 68/87/207
f 77/99/208 80/111/208 74/95/208
f 83/108/209 86/120/209 80/111/209
f 89/116/210 92/119/210 86/120/210
f 95/124/211 98/127/211 92/119/211
f 101/132/212 104/135/212 98/127/212
f 107/139/213 110/143/213 104/135/213
f 113/147/214 116/395/214 110/143/214
f 119/164/215 122/170/215 116/159/215
f 125/166/216 128/169/216 122/170/216
f 131/174/217 134/177/217 128/169/217
f 137/182/218 140/185/218 134/177/218
f 143/189/219 146/193/219 140/185/219
f 149/197/220 152/209/220 146/193/220
f 155/206/221 158/218/221 152/209/221
f 161/214/222 164/217/222 158/218/222
f 167/222/223 170/225/223 164/217/223
f 173/230/224 176/233/224 170/225/224
f 179/237/225 182/241/225 176/233/225
f 185/245/226 188/396/226 182/241/226
f 191/262/227 194/268/227 188/257/227
f 197/264/228 200/267/228 194/268/228
f 203/272/229 206/275/229 200/267/229
f 209/280/230 212/283/230 206/275/230
f 215/287/231 218/291/231 212/283/231
f 221/295/232 224/307/232 218/291/232
f 227/304/233 230/316/233 224/307/233
f 233/312/234 236/315/234 230/316/234
f 239/320/235 242/323/235 236/315/235
f 245/328/236 248/331/236 242/323/236
f 251/335/237 254/339/237 248/331/237
f 257/397/238 260/355/238 254/398/238
f 263/360/239 266/366/239 260/355/239
f 269/362/240 272/365/240 266/366/240
f 275/370/241 278/373/241 272/365/241
f 281/378/242 284/381/242 278/373/242
f 2/1/1 8/13/1 9/2/1
f 3/4/2 9/15/2 7/5/2
f 5/7/3 6/391/3 12/8/3
f 12/10/4 6/392/4 4/11/4
f 8/13/5 14/22/5 15/14/5
f 9/15/6 15/23/6 13/16/6
f 11/9/7 12/8/7 18/17/7
f 12/10/8 10/12/8 16/19/8
f 20/21/9 21/30/9 15/14/9
f 15/23/10 21/31/10 19/24/10
f 17/18/11 18/17/11 24/25/11
f 18/20/12 16/19/12 22/27/12
f 26/29/13 27/38/13 21/30/13
f 21/31/14 27/39/14 25/32/14
f 23/26/15 24/25/15 30/33/15
f 24/28/243 22/27/243 28/35/243
f 32/37/17 33/46/17 27/38/17
f 27/39/18 33/48/18 31/40/18
f 35/41/244 29/34/244 30/33/244
f 30/36/20 28/35/20 34/43/20
f 38/45/21 39/54/21 33/46/21
f 39/47/22 37/56/22 31/40/22
f 41/49/23 35/41/23 36/42/23
f 42/51/24 36/44/24 34/43/24
f 38/45/25 44/399/25 45/53/25
f 39/47/26 45/64/26 43/55/26
f 41/49/27 42/50/27 48/57/27
f 42/51/28 40/52/28 46/59/28
f 44/61/29 50/72/29 51/62/29
f 45/64/30 51/74/30 49/65/30
f 47/66/31 48/400/31 54/67/31
f 54/69/32 48/60/32 46/59/32
f 56/71/33 57/80/33 51/62/33
f 57/73/34 55/82/34 49/65/34
f 53/68/35 54/67/35 60/75/35
f 60/77/36 54/69/36 52/70/36
f 62/79/37 63/88/37 57/80/37
f 63/81/38 61/90/38 55/82/38
f 59/76/39 60/75/39 66/83/39
f 66/85/40 60/77/40 58/78/40
f 68/87/41 69/96/41 63/88/41
f 69/89/42 67/98/42 61/90/42
f 71/91/43 65/84/43 66/83/43
f 72/93/44 66/85/44 64/86/44
f 74/95/45 75/104/45 69/96/45
f 75/97/46 73/106/46 67/98/46
f 77/99/47 71/91/47 72/92/47
f 72/93/48 70/94/48 76/101/48
f 74/95/49 80/111/49 81/103/49
f 75/97/50 81/113/50 79/105/50
f 77/99/51 78/100/51 84/107/51
f 84/109/52 78/102/52 76/101/52
f 80/111/53 86/120/53 87/112/53
f 81/113/54 87/121/54 85/114/54
f 83/108/55 84/107/55 90/115/55
f 84/109/56 82/110/56 88/117/56
f 92/119/57 93/128/57 87/112/57
f 87/121/58 93/129/58 91/122/58
f 89/116/59 90/115/59 96/123/59
f 90/118/60 88/117/60 94/125/60
f 98/127/61 99/136/61 93/128/61
f 93/129/62 99/137/62 97/130/62
f 95/124/63 96/123/63 102/131/63
f 96/126/64 94/125/64 100/133/64
f 104/135/65 105/144/65 99/136/65
f 99/137/66 105/146/66 103/138/66
f 107/139/67 101/132/67 102/131/67
f 102/134/68 100/133/68 106/141/68
f 110/143/69 111/152/69 105/144/69
f 111/145/70 109/154/70 103/138/70
f 113/147/71 107/139/71 108/140/71
f 114/149/72 108/142/72 106/141/72
f 110/143/73 116/395/73 117/151/73
f 111/145/74 117/162/74 115/153/74
f 113/147/75 114/148/75 120/155/75
f 114/149/76 112/150/76 118/157/76
f 116/159/77 122/170/77 123/160/77
f 117/162/78 123/172/78 121/163/78
f 119/164/245 120/401/245 126/165/245
f 126/167/80 120/158/80 118/157/80
f 128/169/81 129/178/81 123/160/81
f 129/171/82 127/180/82 121/163/82
f 125/166/246 126/165/246 132/173/246
f 132/175/84 126/167/84 124/168/84
f 134/177/85 135/186/85 129/178/85
f 135/179/86 133/188/86 127/180/86
f 131/174/87 132/173/87 138/181/87
f 138/183/88 132/175/88 130/176/88
f 140/185/89 141/194/89 135/186/89
f 141/187/90 139/196/90 133/188/90
f 143/189/91 137/182/91 138/181/91
f 144/191/92 138/183/92 136/184/92
f 146/193/93 147/202/93 141/194/93
f 147/195/94 145/204/94 139/196/94
f 149/197/95 143/189/95 144/190/95
f 144/191/96 142/192/96 148/199/96
f 146/193/97 152/209/97 153/201/97
f 147/195/98 153/211/98 151/203/98
f 149/197/99 150/198/99 156/205/99
f 156/207/100 150/200/100 148/199/100
f 152/209/101 158/218/101 159/210/101
f 153/211/102 159/219/102 157/212/102
f 155/206/103 156/205/103 162/213/103
f 156/207/104 154/208/104 160/215/104
f 164/217/105 165/226/105 159/210/105
f 159/219/106 165/227/106 163/220/106
f 161/214/107 162/213/107 168/221/107
f 162/216/108 160/215/108 166/223/108
f 170/225/109 171/234/109 165/226/109
f 165/227/110 171/235/110 169/228/110
f 167/222/111 168/221/111 174/229/111
f 168/224/247 166/223/247 172/231/247
f 176/233/113 177/242/113 171/234/113
f 171/235/114 177/244/114 175/236/114
f 179/237/248 173/230/248 174/229/248
f 174/232/116 172/231/116 178/239/116
f 182/241/117 183/250/117 177/242/117
f 183/243/118 181/252/118 175/236/118
f 185/245/119 179/237/119 180/238/119
f 186/247/120 180/240/120 178/239/120
f 182/241/121 188/396/121 189/249/121
f 183/243/122 189/260/122 187/251/122
f 185/245/123 186/246/123 192/253/123
f 186/247/124 184/248/124 190/255/124
f 188/257/125 194/268/125 195/258/125
f 189/260/126 195/270/126 193/261/126
f 191/262/127 192/402/127 198/263/127
f 198/265/128 192/256/128 190/255/128
f 200/267/129 201/276/129 195/258/129
f 201/269/130 199/278/130 193/261/130
f 197/264/131 198/263/131 204/271/131
f 204/273/132 198/265/132 196/266/132
f 206/275/133 207/284/133 201/276/133
f 207/277/134 205/286/134 199/278/134
f 203/272/135 204/271/135 210/279/135
f 210/281/136 204/273/136 202/274/136
f 212/283/137 213/292/137 207/284/137
f 213/285/138 211/294/138 205/286/138
f 215/287/139 209/280/139 210/279/139
f 216/289/140 210/281/140 208/282/140
f 218/291/141 219/300/141 213/292/141
f 219/293/142 217/302/142 211/294/142
f 221/295/143 215/287/143 216/288/143
f 216/289/144 214/290/144 220/297/144
f 218/291/145 224/307/145 225/299/145
f 219/293/146 225/309/146 223/301/146
f 221/295/147 222/296/147 228/303/147
f 228/305/148 222/298/148 220/297/148
f 224/307/149 230/316/149 231/308/149
f 225/309/150 231/317/150 229/310/150
f 227/304/151 228/303/151 234/311/151
f 228/305/152 226/306/152 232/313/152
f 236/315/153 237/324/153 231/308/153
f 231/317/154 237/325/154 235/318/154
f 233/312/155 234/311/155 240/319/155
f 234/314/156 232/313/156 238/321/156
f 242/323/157 243/332/157 237/324/157
f 237/325/158 243/333/158 241/326/158
f 239/320/159 240/319/159 246/327/159
f 240/322/160 238/321/160 244/329/160
f 248/331/161 249/340/161 243/332/161
f 243/333/162 249/342/162 247/334/162
f 251/335/163 245/328/163 246/327/163
f 246/330/164 244/329/164 250/337/164
f 254/339/165 255/348/165 249/340/165
f 255/341/166 253/350/166 247/334/166
f 257/343/167 251/335/167 252/336/167
f 258/345/168 252/338/168 250/337/168
f 254/339/169 260/403/169 261/347/169
f 255/341/170 261/358/170 259/349/170
f 257/343/171 258/344/171 264/351/171
f 258/345/172 256/346/172 262/353/172
f 260/355/173 266/366/173 267/356/173
f 261/358/174 267/368/174 265/359/174
f 263/360/249 264/404/249 270/361/249
f 270/363/176 264/354/176 262/353/176
f 272/365/177 273/374/177 267/356/177
f 273/367/178 271/376/178 265/359/178
f 269/362/250 270/361/250 276/369/250
f 276/371/180 270/363/180 268/364/180
f 278/373/181 279/382/181 273/374/181
f 279/375/182 277/384/182 271/376/182
f 275/370/183 276/369/183 282/377/183
f 282/379/184 276/371/184 274/372/184
f 284/381/185 285/389/185 279/382/185
f 285/383/186 283/390/186 277/384/186
f 287/385/187 281/378/187 282/377/187
f 288/387/188 282/379/188 280/380/188
f 2/1/189 3/3/189 285/389/189
f 3/4/190 1/6/190 283/390/190
f 5/7/191 287/385/191 288/386/191
f 288/387/192 286/388/192 4/11/192
f 283/390/193 1/6/193 7/5/193
f 7/5/193 13/16/193 19/24/193
f 19/24/193 25/32/193 31/40/193
f 31/40/193 37/56/193 43/55/193
f 43/55/193 49/65/193 55/82/193
f 55/82/193 61/90/193 67/98/193
f 67/98/193 73/106/193 79/105/193
f 79/105/193 85/114/193 91/122/193
f 91/122/193 97/130/193 103/138/193
f 103/138/193 109/154/193 115/153/193
f 115/153/193 121/163/193 127/180/193
f 127/180/193 133/188/193 139/196/193
f 139/196/193 145/204/193 151/203/193
f 151/203/193 157/212/193 163/220/193
f 163/220/193 169/228/193 175/236/193
f 175/236/193 181/252/193 187/251/193
f 187/251/193 193/261/193 199/278/193
f 199/278/193 205/286/193 211/294/193
f 211/294/193 217/302/193 223/301/193
f 223/301/193 229/310/193 235/318/193
f 235/318/193 241/326/193 247/334/193
f 247/334/193 253/350/193 259/349/193
f 259/349/193 265/359/193 271/376/193
f 271/376/193 277/384/193 283/390/193
f 283/390/193 7/5/193 19/24/193
f 19/24/193 31/40/193 43/55/193
f 43/55/193 55/82/193 67/98/193
f 67/98/193 79/105/193 91/122/193
f 91/122/193 103/138/193 115/153/193
f 115/153/193 127/180/193 139/196/193
f 139/196/193 151/203/193 163/220/193
f 163/220/193 175/236/193 187/251/193
f 187/251/193 199/278/193 211/294/193
f 211/294/193 223/301/193 235/318/193
f 235/318/193 247/334/193 259/349/193
f 259/349/193 271/376/193 283/390/193
f 283/390/193 19/24/193 43/55/193
f 43/55/193 67/98/193 91/122/193
f 91/122/193 115/153/193 139/196/193
f 139/196/193 163/220/193 187/251/193
f 187/251/193 211/294/193 235/318/193
f 235/318/193 259/349/193 283/390/193
f 283/390/193 43/55/193 91/122/193
f 91/122/193 139/196/193 187/251/193
f 187/251/193 235/318/193 283/390/193
f 5/7/194 11/9/194 8/13/194
f 287/385/195 5/7/195 2/1/195
f 16/19/196 10/12/196 4/11/196
f 4/11/196 286/388/196 280/380/196
f 280/380/196 274/372/196 268/364/196
f 268/364/251 262/353/251 256/346/251
f 256/346/196 250/337/196 244/329/196
f 244/329/196 238/321/196 232/313/196
f 232/313/196 226/306/196 220/297/196
f 220/297/196 214/290/196 208/282/196
f 208/282/252 202/274/252 196/266/252
f 196/266/252 190/255/252 184/248/252
f 184/248/251 178/239/251 172/231/251
f 172/231/196 166/223/196 160/215/196
f 160/215/196 154/208/196 148/199/196
f 148/199/196 142/192/196 136/184/196
f 136/184/196 130/176/196 124/168/196
f 124/168/252 118/157/252 112/150/252
f 112/150/196 106/141/196 100/133/196
f 100/133/196 94/125/196 88/117/196
f 88/117/196 82/110/196 76/101/196
f 76/101/196 70/94/196 64/86/196
f 64/86/251 58/78/251 52/70/251
f 52/70/251 46/59/251 40/52/251
f 40/52/252 34/43/252 28/35/252
f 28/35/196 22/27/196 16/19/196
f 16/19/196 4/11/196 280/380/196
f 280/380/196 268/364/196 256/346/196
f 256/346/196 244/329/196 232/313/196
f 232/313/196 220/297/196 208/282/196
f 208/282/196 196/266/196 184/248/196
f 184/248/196 172/231/196 160/215/196
f 160/215/196 148/199/196 136/184/196
f 136/184/196 124/168/196 112/150/196
f 112/150/196 100/133/196 88/117/196
f 88/117/196 76/101/196 64/86/196
f 64/86/196 52/70/196 40/52/196
f 40/52/196 28/35/196 16/19/196
f 16/19/196 280/380/196 256/346/196
f 256/346/196 232/313/196 208/282/196
f 208/282/196 184/248/196 160/215/196
f 160/215/196 136/184/196 112/150/196
f 112/150/196 88/117/196 64/86/196
f 64/86/196 40/52/196 16/19/196
f 16/19/196 256/346/196 208/282/196
f 208/282/196 160/215/196 112/150/196
f 112/150/196 64/86/196 16/19/196
f 11/9/197 17/18/197 14/22/197
f 17/18/198 23/26/198 20/21/198
f 23/26/199 29/34/199 26/29/199
f 29/34/200 35/41/200 32/37/200
f 35/41/201 41/49/201 38/45/201
f 41/393/202 47/66/202 44/61/202
f 47/66/203 53/68/203 50/72/203
f 53/68/204 59/76/204 56/71/204
f 59/76/205 65/84/205 62/79/205
f 65/84/206 71/91/206 68/87/206
f 71/91/207 77/99/207 74/95/207
f 77/99/208 83/108/208 80/111/208
f 83/108/209 89/116/209 86/120/209
f 89/116/210 95/124/210 92/119/210
f 95/124/211 101/132/211 98/127/211
f 101/132/212 107/139/212 104/135/212
f 107/139/213 113/147/213 110/143/213
f 113/147/214 119/156/214 116/395/214
f 119/164/215 125/166/215 122/170/215
f 125/166/216 131/174/216 128/169/216
f 131/174/217 137/182/217 134/177/217
f 137/182/218 143/189/218 140/185/218
f 143/189/219 149/197/219 146/193/219
f 149/197/220 155/206/220 152/209/220
f 155/206/221 161/214/221 158/218/221
f 161/214/222 167/222/222 164/217/222
f 167/222/223 173/230/223 170/225/223
f 173/230/224 179/237/224 176/233/224
f 179/237/225 185/245/225 182/241/225
f 185/245/226 191/254/226 188/396/226
f 191/262/227 197/264/227 194/268/227
f 197/264/228 203/272/228 200/267/228
f 203/272/229 209/280/229 206/275/229
f 209/280/230 215/287/230 212/283/230
f 215/287/231 221/295/231 218/291/231
f 221/295/232 227/304/232 224/307/232
f 227/304/233 233/312/233 230/316/233
f 233/312/234 239/320/234 236/315/234
f 239/320/235 245/328/235 242/323/235
f 245/328/236 251/335/236 248/331/236
f 251/335/237 257/343/237 254/339/237
f 257/397/238 263/360/238 260/355/238
f 263/360/239 269/362/239 266/366/239
f 269/362/240 275/370/240 272/365/240
f 275/370/241 281/378/241 278/373/241
f 281/378/242 287/385/242 284/381/242
