# Blender 4.5.11 LTS
# www.blender.org
mtllib visual.mtl
o plank_washer_target_point
v -0.041300 -0.041300 0.000000
v -0.041300 -0.042500 0.001200
v -0.042500 -0.041300 0.001200
v -0.041300 -0.041899 0.000160
v -0.041899 -0.041300 0.000160
v -0.041874 -0.041874 0.000316
v -0.041899 -0.042340 0.001200
v -0.041300 -0.042340 0.000601
v -0.041874 -0.042184 0.000626
v -0.042340 -0.041300 0.000601
v -0.042340 -0.041899 0.001200
v -0.042184 -0.041874 0.000626
v -0.041300 -0.042500 0.013800
v -0.041300 -0.041300 0.015000
v -0.042500 -0.041300 0.013800
v -0.041300 -0.042340 0.014399
v -0.041899 -0.042340 0.013800
v -0.041874 -0.042184 0.014374
v -0.041899 -0.041300 0.014840
v -0.041300 -0.041899 0.014840
v -0.041874 -0.041874 0.014684
v -0.042340 -0.041899 0.013800
v -0.042340 -0.041300 0.014399
v -0.042184 -0.041874 0.014374
v -0.041300 0.041300 0.000000
v -0.042500 0.041300 0.001200
v -0.041300 0.042500 0.001200
v -0.041899 0.041300 0.000160
v -0.041300 0.041899 0.000160
v -0.041874 0.041874 0.000316
v -0.042340 0.041899 0.001200
v -0.042340 0.041300 0.000601
v -0.042184 0.041874 0.000626
v -0.041300 0.042340 0.000601
v -0.041899 0.042340 0.001200
v -0.041874 0.042184 0.000626
v -0.041300 0.041300 0.015000
v -0.041300 0.042500 0.013800
v -0.042500 0.041300 0.013800
v -0.041300 0.041899 0.014840
v -0.041899 0.041300 0.014840
v -0.041874 0.041874 0.014684
v -0.041899 0.042340 0.013800
v -0.041300 0.042340 0.014399
v -0.041874 0.042184 0.014374
v -0.042340 0.041300 0.014399
v -0.042340 0.041899 0.013800
v -0.042184 0.041874 0.014374
v 0.041300 -0.041300 0.000000
v 0.042500 -0.041300 0.001200
v 0.041300 -0.042500 0.001200
v 0.041899 -0.041300 0.000160
v 0.041300 -0.041899 0.000160
v 0.041874 -0.041874 0.000316
v 0.042340 -0.041899 0.001200
v 0.042340 -0.041300 0.000601
v 0.042184 -0.041874 0.000626
v 0.041300 -0.042340 0.000601
v 0.041899 -0.042340 0.001200
v 0.041874 -0.042184 0.000626
v 0.041300 -0.041300 0.015000
v 0.041300 -0.042500 0.013800
v 0.042500 -0.041300 0.013800
v 0.041300 -0.041899 0.014840
v 0.041899 -0.041300 0.014840
v 0.041874 -0.041874 0.014684
v 0.041899 -0.042340 0.013800
v 0.041300 -0.042340 0.014399
v 0.041874 -0.042184 0.014374
v 0.042340 -0.041300 0.014399
v 0.042340 -0.041899 0.013800
v 0.042184 -0.041874 0.014374
v 0.041300 0.041300 0.000000
v 0.041300 0.042500 0.001200
v 0.042500 0.041300 0.001200
v 0.041300 0.041899 0.000160
v 0.041899 0.041300 0.000160
v 0.041874 0.041874 0.000316
v 0.041899 0.042340 0.001200
v 0.041300 0.042340 0.000601
v 0.041874 0.042184 0.000626
v 0.042340 0.041300 0.000601
v 0.042340 0.041899 0.001200
v 0.042184 0.041874 0.000626
v 0.041300 0.041300 0.015000
v 0.042500 0.041300 0.013800
v 0.041300 0.042500 0.013800
v 0.041899 0.041300 0.014840
v 0.041300 0.041899 0.014840
v 0.041874 0.041874 0.014684
v 0.042340 0.041899 0.013800
v 0.042340 0.041300 0.014399
v 0.042184 0.041874 0.014374
v 0.041300 0.042340 0.014399
v 0.041899 0.042340 0.013800
v 0.041874 0.042184 0.014374
vn -0.2502 -0.2502 -0.9353
vn -0.2178 -0.6901 -0.6901
vn -0.2502 -0.9353 -0.2502
vn -0.6901 -0.6901 -0.2178
vn -0.9353 -0.2502 -0.2502
vn -0.6901 -0.2178 -0.6901
vn -0.5774 -0.5773 -0.5773
vn -0.2502 -0.9353 0.2502
vn -0.2178 -0.6901 0.6901
vn -0.2502 -0.2502 0.9353
vn -0.6901 -0.2178 0.6901
vn -0.9353 -0.2502 0.2502
vn -0.6901 -0.6901 0.2178
vn -0.5774 -0.5773 0.5773
vn -0.2502 0.2502 -0.9353
vn -0.6901 0.2178 -0.6901
vn -0.9353 0.2502 -0.2502
vn -0.6901 0.6901 -0.2178
vn -0.2502 0.9353 -0.2502
vn -0.2178 0.6901 -0.6901
vn -0.5774 0.5773 -0.5773
vn -0.2502 0.2502 0.9353
vn -0.2178 0.6901 0.6901
vn -0.2502 0.9353 0.2502
vn -0.6901 0.6901 0.2178
vn -0.9353 0.2502 0.2502
vn -0.6901 0.2178 0.6901
vn -0.5774 0.5773 0.5773
vn 0.2502 -0.2502 -0.9353
vn 0.6901 -0.2178 -0.6901
vn 0.9353 -0.2502 -0.2502
vn 0.6901 -0.6901 -0.2178
vn 0.2502 -0.9353 -0.2502
vn 0.2178 -0.6901 -0.6901
vn 0.5774 -0.5773 -0.5773
vn 0.2502 -0.2502 0.9353
vn 0.2178 -0.6901 0.6901
vn 0.2502 -0.9353 0.2502
vn 0.6901 -0.6901 0.2178
vn 0.9353 -0.2502 0.2502
vn 0.6901 -0.2178 0.6901
vn 0.5774 -0.5773 0.5773
vn 0.2502 0.2502 -0.9353
vn 0.2178 0.6901 -0.6901
vn 0.2502 0.9353 -0.2502
vn 0.6901 0.6901 -0.2178
vn 0.9353 0.2502 -0.2502
vn 0.6901 0.2178 -0.6901
vn 0.5774 0.5773 -0.5773
vn 0.2502 0.2502 0.9353
vn 0.6901 0.2178 0.6901
vn 0.9353 0.2502 0.2502
vn 0.6901 0.6901 0.2178
vn 0.2502 0.9353 0.2502
vn 0.2178 0.6901 0.6901
vn 0.5774 0.5773 0.5773
vn -0.2585 -0.0000 -0.9660
vn -0.7071 -0.0000 -0.7071
vn -0.9660 -0.0000 -0.2585
vn -0.2585 -0.9660 -0.0000
vn -0.7071 -0.7071 -0.0000
vn -0.9660 -0.2584 -0.0000
vn -0.2585 -0.0000 0.9660
vn -0.7071 -0.0000 0.7071
vn -0.9660 -0.0000 0.2585
vn -0.2585 0.9660 -0.0000
vn -0.7071 0.7071 -0.0000
vn -0.9660 0.2585 -0.0000
vn -0.0000 0.2585 -0.9660
vn -0.0000 0.7071 -0.7071
vn -0.0000 0.9660 -0.2585
vn -0.0000 0.2585 0.9660
vn -0.0000 0.7071 0.7071
vn -0.0000 0.9660 0.2585
vn 0.9660 0.2585 -0.0000
vn 0.7071 0.7071 -0.0000
vn 0.2585 0.9660 -0.0000
vn 0.2585 -0.0000 -0.9660
vn 0.7071 -0.0000 -0.7071
vn 0.9660 -0.0000 -0.2585
vn 0.2585 -0.0000 0.9660
vn 0.7071 -0.0000 0.7071
vn 0.9660 -0.0000 0.2585
vn 0.2585 -0.9660 -0.0000
vn 0.7071 -0.7071 -0.0000
vn 0.9660 -0.2585 -0.0000
vn -0.0000 -0.2585 -0.9660
vn -0.0000 -0.7071 -0.7071
vn -0.0000 -0.9660 -0.2585
vn -0.0000 -0.2585 0.9660
vn -0.0000 -0.7071 0.7071
vn -0.0000 -0.9660 0.2585
vn -0.0000 -0.0000 -1.0000
vn -1.0000 -0.0000 -0.0000
vn -0.0000 -1.0000 -0.0000
vn -0.0000 -0.0000 1.0000
vn -0.0000 1.0000 -0.0000
vn 1.0000 -0.0000 -0.0000
vn -0.2635 -0.2635 -0.9280
vn -0.2635 -0.9280 -0.2635
vn -0.9280 -0.2635 -0.2635
vn -0.2635 -0.9280 0.2635
vn -0.2635 -0.2635 0.9280
vn -0.9280 -0.2635 0.2635
vn -0.2635 0.2635 -0.9280
vn -0.9280 0.2635 -0.2635
vn -0.2635 0.9280 -0.2635
vn -0.2635 0.2635 0.9280
vn -0.2635 0.9280 0.2635
vn -0.9280 0.2635 0.2635
vn 0.2635 -0.2635 -0.9280
vn 0.9280 -0.2635 -0.2635
vn 0.2635 -0.9280 -0.2635
vn 0.2635 -0.2635 0.9280
vn 0.2635 -0.9280 0.2635
vn 0.9280 -0.2635 0.2635
vn 0.2635 0.2635 -0.9280
vn 0.2635 0.9280 -0.2635
vn 0.9280 0.2635 -0.2635
vn 0.2635 0.2635 0.9280
vn 0.9280 0.2635 0.2635
vn 0.2635 0.9280 0.2635
vn -0.9660 -0.2585 -0.0000
vn -0.9660 0.2584 -0.0000
vn -0.0000 0.9660 -0.2584
vn -0.0000 0.9660 0.2584
vn 0.9660 -0.2584 -0.0000
vn -0.0000 -0.9660 -0.2584
vn -0.0000 -0.9660 0.2584
vt -0.016250 -0.023740
vt -0.023740 -0.016250
vt -0.016250 -0.016250
vt -0.023423 -0.027299
vt -0.023423 -0.023423
vt -0.023740 0.421250
vt -0.016250 0.413760
vt -0.016250 0.421250
vt -0.029246 0.421250
vt -0.023423 0.414077
vt -0.027299 -0.023423
vt -0.029246 -0.016250
vt -0.023423 0.410201
vt -0.027299 0.414077
vt -0.016250 0.586240
vt -0.023740 0.578750
vt -0.016250 0.578750
vt -0.016250 -0.029246
vt -0.027299 0.585923
vt -0.029246 0.578750
vt -0.023423 0.585923
vt -0.023423 0.589799
vt -0.023740 1.016250
vt -0.016250 1.023740
vt -0.016250 1.016250
vt -0.027299 1.023423
vt -0.023423 1.023423
vt 1.023740 0.421250
vt 1.016250 0.413760
vt 1.016250 0.421250
vt -0.023423 1.027299
vt -0.016250 1.029246
vt 1.016250 0.586240
vt 1.023740 0.578750
vt 1.016250 0.578750
vt -0.029246 1.016250
vt 1.023740 -0.016250
vt 1.016250 -0.023740
vt 1.016250 -0.016250
vt 1.027299 -0.023423
vt 1.023423 -0.023423
vt 1.027299 0.414077
vt 1.029246 0.421250
vt 1.023423 -0.027299
vt 1.016250 -0.029246
vt 1.023423 0.410201
vt 1.023423 0.414077
vt 1.029246 0.578750
vt 1.023423 0.585923
vt 1.029246 -0.016250
vt 1.023423 0.589799
vt 1.027299 0.585923
vt 1.016250 1.023740
vt 1.023740 1.016250
vt 1.016250 1.016250
vt 1.023423 1.027299
vt 1.023423 1.023423
vt 1.027299 1.023423
vt 1.029246 1.016250
vt 1.016250 1.029246
s 0
usemtl ARAT_light_maple
f 4/1/1 5/2/1 1/3/1
f 4/1/2 9/4/2 6/5/2
f 7/6/3 8/7/3 2/8/3
f 11/9/4 9/10/4 7/6/4
f 10/7/5 11/6/5 3/8/5
f 5/2/6 12/11/6 10/12/6
f 6/13/7 9/10/7 12/14/7
f 16/15/8 17/16/8 13/17/8
f 20/1/9 18/4/9 16/18/9
f 19/2/10 20/1/10 14/3/10
f 19/2/11 24/11/11 21/5/11
f 22/16/12 23/15/12 15/17/12
f 17/16/13 24/19/13 22/20/13
f 18/21/14 21/22/14 24/19/14
f 28/23/15 29/24/15 25/25/15
f 28/23/16 33/26/16 30/27/16
f 31/28/17 32/29/17 26/30/17
f 35/6/18 33/14/18 31/9/18
f 34/7/19 35/6/19 27/8/19
f 29/24/20 36/31/20 34/32/20
f 30/13/21 33/14/21 36/10/21
f 40/24/22 41/23/22 37/25/22
f 40/24/23 45/31/23 42/27/23
f 43/16/24 44/15/24 38/17/24
f 47/20/25 45/21/25 43/16/25
f 46/33/26 47/34/26 39/35/26
f 41/23/27 48/26/27 46/36/27
f 42/22/28 45/21/28 48/19/28
f 52/37/29 53/38/29 49/39/29
f 52/37/30 57/40/30 54/41/30
f 55/6/31 56/7/31 50/8/31
f 59/28/32 57/42/32 55/43/32
f 58/29/33 59/28/33 51/30/33
f 53/38/34 60/44/34 58/45/34
f 54/46/35 57/42/35 60/47/35
f 64/38/36 65/37/36 61/39/36
f 64/38/37 69/44/37 66/41/37
f 67/34/38 68/33/38 62/35/38
f 71/48/39 69/49/39 67/34/39
f 70/15/40 71/16/40 63/17/40
f 65/37/41 72/40/41 70/50/41
f 66/51/42 69/49/42 72/52/42
f 76/53/43 77/54/43 73/55/43
f 76/53/44 81/56/44 78/57/44
f 79/28/45 80/29/45 74/30/45
f 83/43/46 81/47/46 79/28/46
f 82/29/47 83/28/47 75/30/47
f 77/54/48 84/58/48 82/59/48
f 78/46/49 81/47/49 84/42/49
f 88/54/50 89/53/50 85/55/50
f 88/54/51 93/58/51 90/57/51
f 91/34/52 92/33/52 86/35/52
f 95/34/53 93/52/53 91/48/53
f 94/33/54 95/34/54 87/35/54
f 89/53/55 96/56/55 94/60/55
f 90/51/56 93/52/56 96/49/56
f 1/3/57 28/23/57 25/25/57
f 5/2/58 32/36/58 28/23/58
f 10/7/59 26/30/59 32/29/59
f 13/17/60 7/6/60 2/8/60
f 17/16/61 11/9/61 7/6/61
f 11/6/62 15/17/62 3/8/62
f 37/25/63 19/2/63 14/3/63
f 41/23/64 23/12/64 19/2/64
f 46/33/65 15/17/65 23/15/65
f 38/17/66 35/6/66 43/16/66
f 35/6/67 47/20/67 43/16/67
f 31/28/68 39/35/68 47/34/68
f 25/25/69 76/53/69 73/55/69
f 29/24/70 80/60/70 76/53/70
f 34/7/71 74/30/71 80/29/71
f 85/55/72 40/24/72 37/25/72
f 89/53/73 44/32/73 40/24/73
f 94/33/74 38/17/74 44/15/74
f 86/35/75 83/28/75 91/34/75
f 83/43/76 95/34/76 91/48/76
f 79/28/77 87/35/77 95/34/77
f 73/55/78 52/37/78 49/39/78
f 77/54/79 56/50/79 52/37/79
f 82/29/80 50/8/80 56/7/80
f 61/39/81 88/54/81 85/55/81
f 65/37/82 92/59/82 88/54/82
f 70/15/83 86/35/83 92/33/83
f 62/35/84 59/28/84 67/34/84
f 59/28/85 71/48/85 67/34/85
f 55/6/86 63/17/86 71/16/86
f 49/39/87 4/1/87 1/3/87
f 53/38/88 8/18/88 4/1/88
f 58/29/89 2/8/89 8/7/89
f 14/3/90 64/38/90 61/39/90
f 20/1/91 68/45/91 64/38/91
f 16/15/92 62/35/92 68/33/92
f 73/55/93 1/3/93 25/25/93
f 15/17/94 26/30/94 3/8/94
f 62/35/95 2/8/95 51/30/95
f 37/25/96 61/39/96 85/55/96
f 38/17/97 74/30/97 27/8/97
f 86/35/98 50/8/98 75/30/98
f 4/1/99 6/5/99 5/2/99
f 4/1/2 8/18/2 9/4/2
f 7/6/100 9/10/100 8/7/100
f 11/9/4 12/14/4 9/10/4
f 10/7/101 12/10/101 11/6/101
f 5/2/6 6/5/6 12/11/6
f 16/15/102 18/21/102 17/16/102
f 20/1/9 21/5/9 18/4/9
f 19/2/103 21/5/103 20/1/103
f 19/2/11 23/12/11 24/11/11
f 22/16/104 24/21/104 23/15/104
f 17/16/13 18/21/13 24/19/13
f 28/23/105 30/27/105 29/24/105
f 28/23/16 32/36/16 33/26/16
f 31/28/106 33/47/106 32/29/106
f 35/6/18 36/10/18 33/14/18
f 34/7/107 36/10/107 35/6/107
f 29/24/20 30/27/20 36/31/20
f 40/24/108 42/27/108 41/23/108
f 40/24/23 44/32/23 45/31/23
f 43/16/109 45/21/109 44/15/109
f 47/20/25 48/19/25 45/21/25
f 46/33/110 48/49/110 47/34/110
f 41/23/27 42/27/27 48/26/27
f 52/37/111 54/41/111 53/38/111
f 52/37/30 56/50/30 57/40/30
f 55/6/112 57/10/112 56/7/112
f 59/28/32 60/47/32 57/42/32
f 58/29/113 60/47/113 59/28/113
f 53/38/34 54/41/34 60/44/34
f 64/38/114 66/41/114 65/37/114
f 64/38/37 68/45/37 69/44/37
f 67/34/115 69/49/115 68/33/115
f 71/48/39 72/52/39 69/49/39
f 70/15/116 72/21/116 71/16/116
f 65/37/41 66/41/41 72/40/41
f 76/53/117 78/57/117 77/54/117
f 76/53/44 80/60/44 81/56/44
f 79/28/118 81/47/118 80/29/118
f 83/43/46 84/42/46 81/47/46
f 82/29/119 84/47/119 83/28/119
f 77/54/48 78/57/48 84/58/48
f 88/54/120 90/57/120 89/53/120
f 88/54/51 92/59/51 93/58/51
f 91/34/121 93/49/121 92/33/121
f 95/34/53 96/49/53 93/52/53
f 94/33/122 96/49/122 95/34/122
f 89/53/55 90/57/55 96/56/55
f 1/3/57 5/2/57 28/23/57
f 5/2/58 10/12/58 32/36/58
f 10/7/59 3/8/59 26/30/59
f 13/17/60 17/16/60 7/6/60
f 17/16/61 22/20/61 11/9/61
f 11/6/123 22/16/123 15/17/123
f 37/25/63 41/23/63 19/2/63
f 41/23/64 46/36/64 23/12/64
f 46/33/65 39/35/65 15/17/65
f 38/17/66 27/8/66 35/6/66
f 35/6/67 31/9/67 47/20/67
f 31/28/124 26/30/124 39/35/124
f 25/25/69 29/24/69 76/53/69
f 29/24/70 34/32/70 80/60/70
f 34/7/125 27/8/125 74/30/125
f 85/55/72 89/53/72 40/24/72
f 89/53/73 94/60/73 44/32/73
f 94/33/126 87/35/126 38/17/126
f 86/35/75 75/30/75 83/28/75
f 83/43/76 79/28/76 95/34/76
f 79/28/77 74/30/77 87/35/77
f 73/55/78 77/54/78 52/37/78
f 77/54/79 82/59/79 56/50/79
f 82/29/80 75/30/80 50/8/80
f 61/39/81 65/37/81 88/54/81
f 65/37/82 70/50/82 92/59/82
f 70/15/83 63/17/83 86/35/83
f 62/35/84 51/30/84 59/28/84
f 59/28/85 55/43/85 71/48/85
f 55/6/127 50/8/127 63/17/127
f 49/39/87 53/38/87 4/1/87
f 53/38/88 58/45/88 8/18/88
f 58/29/128 51/30/128 2/8/128
f 14/3/90 20/1/90 64/38/90
f 20/1/91 16/18/91 68/45/91
f 16/15/129 13/17/129 62/35/129
f 73/55/93 49/39/93 1/3/93
f 15/17/94 39/35/94 26/30/94
f 62/35/95 13/17/95 2/8/95
f 37/25/96 14/3/96 61/39/96
f 38/17/97 87/35/97 74/30/97
f 86/35/98 63/17/98 50/8/98
