# Blender 4.5.11 LTS
# www.blender.org
mtllib visual.mtl
o bolt_small_target_point
v 0.000000 0.003679 0.000000
v 0.000000 0.004000 0.000320
v -0.000000 0.003906 0.000094
v -0.000000 0.003679 0.060000
v 0.000000 0.004000 0.059680
v 0.000000 0.003906 0.059906
v 0.000480 0.003648 0.000000
v 0.000522 0.003966 0.000320
v 0.000510 0.003872 0.000094
v 0.000480 0.003648 0.060000
v 0.000522 0.003966 0.059680
v 0.000510 0.003872 0.059906
v 0.000952 0.003554 0.000000
v 0.001035 0.003864 0.000320
v 0.001011 0.003773 0.000094
v 0.000952 0.003554 0.060000
v 0.001035 0.003864 0.059680
v 0.001011 0.003773 0.059906
v 0.001408 0.003399 0.000000
v 0.001531 0.003696 0.000320
v 0.001495 0.003608 0.000094
v 0.001408 0.003399 0.060000
v 0.001531 0.003696 0.059680
v 0.001495 0.003608 0.059906
v 0.001840 0.003186 0.000000
v 0.002000 0.003464 0.000320
v 0.001953 0.003383 0.000094
v 0.001840 0.003186 0.060000
v 0.002000 0.003464 0.059680
v 0.001953 0.003383 0.059906
v 0.002240 0.002919 0.000000
v 0.002435 0.003173 0.000320
v 0.002378 0.003099 0.000094
v 0.002240 0.002919 0.060000
v 0.002435 0.003173 0.059680
v 0.002378 0.003099 0.059906
v 0.002602 0.002602 0.000000
v 0.002828 0.002828 0.000320
v 0.002762 0.002762 0.000094
v 0.002602 0.002602 0.060000
v 0.002828 0.002828 0.059680
v 0.002762 0.002762 0.059906
v 0.002919 0.002240 0.000000
v 0.003173 0.002435 0.000320
v 0.003099 0.002378 0.000094
v 0.002919 0.002240 0.060000
v 0.003173 0.002435 0.059680
v 0.003099 0.002378 0.059906
v 0.003186 0.001840 0.000000
v 0.003464 0.002000 0.000320
v 0.003383 0.001953 0.000094
v 0.003186 0.001840 0.060000
v 0.003464 0.002000 0.059680
v 0.003383 0.001953 0.059906
v 0.003399 0.001408 0.000000
v 0.003696 0.001531 0.000320
v 0.003608 0.001495 0.000094
v 0.003399 0.001408 0.060000
v 0.003696 0.001531 0.059680
v 0.003608 0.001495 0.059906
v 0.003554 0.000952 0.000000
v 0.003864 0.001035 0.000320
v 0.003773 0.001011 0.000094
v 0.003554 0.000952 0.060000
v 0.003864 0.001035 0.059680
v 0.003773 0.001011 0.059906
v 0.003648 0.000480 0.000000
v 0.003966 0.000522 0.000320
v 0.003872 0.000510 0.000094
v 0.003648 0.000480 0.060000
v 0.003966 0.000522 0.059680
v 0.003872 0.000510 0.059906
v 0.003679 -0.000000 0.000000
v 0.004000 0.000000 0.000320
v 0.003906 0.000000 0.000094
v 0.003679 0.000000 0.060000
v 0.004000 0.000000 0.059680
v 0.003906 -0.000000 0.059906
v 0.003648 -0.000480 0.000000
v 0.003966 -0.000522 0.000320
v 0.003872 -0.000510 0.000094
v 0.003648 -0.000480 0.060000
v 0.003966 -0.000522 0.059680
v 0.003872 -0.000510 0.059906
v 0.003554 -0.000952 0.000000
v 0.003864 -0.001035 0.000320
v 0.003773 -0.001011 0.000094
v 0.003554 -0.000952 0.060000
v 0.003864 -0.001035 0.059680
v 0.003773 -0.001011 0.059906
v 0.003399 -0.001408 0.000000
v 0.003696 -0.001531 0.000320
v 0.003608 -0.001495 0.000094
v 0.003399 -0.001408 0.060000
v 0.003696 -0.001531 0.059680
v 0.003608 -0.001495 0.059906
v 0.003186 -0.001840 0.000000
v 0.003464 -0.002000 0.000320
v 0.003383 -0.001953 0.000094
v 0.003186 -0.001840 0.060000
v 0.003464 -0.002000 0.059680
v 0.003383 -0.001953 0.059906
v 0.002919 -0.002240 0.000000
v 0.003173 -0.002435 0.000320
v 0.003099 -0.002378 0.000094
v 0.002919 -0.002240 0.060000
v 0.003173 -0.002435 0.059680
v 0.003099 -0.002378 0.059906
v 0.002602 -0.002602 0.000000
v 0.002828 -0.002828 0.000320
v 0.002762 -0.002762 0.000094
v 0.002602 -0.002602 0.060000
v 0.002828 -0.002828 0.059680
v 0.002762 -0.002762 0.059906
v 0.002240 -0.002919 0.000000
v 0.002435 -0.003173 0.000320
v 0.002378 -0.003099 0.000094
v 0.002240 -0.002919 0.060000
v 0.002435 -0.003173 0.059680
v 0.002378 -0.003099 0.059906
v 0.001840 -0.003186 0.000000
v 0.002000 -0.003464 0.000320
v 0.001953 -0.003383 0.000094
v 0.001840 -0.003186 0.060000
v 0.002000 -0.003464 0.059680
v 0.001953 -0.003383 0.059906
v 0.001408 -0.003399 0.000000
v 0.001531 -0.003696 0.000320
v 0.001495 -0.003608 0.000094
v 0.001408 -0.003399 0.060000
v 0.001531 -0.003696 0.059680
v 0.001495 -0.003608 0.059906
v 0.000952 -0.003554 0.000000
v 0.001035 -0.003864 0.000320
v 0.001011 -0.003773 0.000094
v 0.000952 -0.003554 0.060000
v 0.001035 -0.003864 0.059680
v 0.001011 -0.003773 0.059906
v 0.000480 -0.003648 0.000000
v 0.000522 -0.003966 0.000320
v 0.000510 -0.003872 0.000094
v 0.000480 -0.003648 0.060000
v 0.000522 -0.003966 0.059680
v 0.000510 -0.003872 0.059906
v -0.000000 -0.003679 0.000000
v 0.000000 -0.004000 0.000320
v 0.000000 -0.003906 0.000094
v 0.000000 -0.003679 0.060000
v 0.000000 -0.004000 0.059680
v -0.000000 -0.003906 0.059906
v -0.000480 -0.003648 0.000000
v -0.000522 -0.003966 0.000320
v -0.000510 -0.003872 0.000094
v -0.000480 -0.003648 0.060000
v -0.000522 -0.003966 0.059680
v -0.000510 -0.003872 0.059906
v -0.000952 -0.003554 0.000000
v -0.001035 -0.003864 0.000320
v -0.001011 -0.003773 0.000094
v -0.000952 -0.003554 0.060000
v -0.001035 -0.003864 0.059680
v -0.001011 -0.003773 0.059906
v -0.001408 -0.003399 0.000000
v -0.001531 -0.003696 0.000320
v -0.001495 -0.003608 0.000094
v -0.001408 -0.003399 0.060000
v -0.001531 -0.003696 0.059680
v -0.001495 -0.003608 0.059906
v -0.001840 -0.003186 0.000000
v -0.002000 -0.003464 0.000320
v -0.001953 -0.003383 0.000094
v -0.001840 -0.003186 0.060000
v -0.002000 -0.003464 0.059680
v -0.001953 -0.003383 0.059906
v -0.002240 -0.002919 0.000000
v -0.002435 -0.003173 0.000320
v -0.002378 -0.003099 0.000094
v -0.002240 -0.002919 0.060000
v -0.002435 -0.003173 0.059680
v -0.002378 -0.003099 0.059906
v -0.002602 -0.002602 0.000000
v -0.002828 -0.002828 0.000320
v -0.002762 -0.002762 0.000094
v -0.002602 -0.002602 0.060000
v -0.002828 -0.002828 0.059680
v -0.002762 -0.002762 0.059906
v -0.002919 -0.002240 0.000000
v -0.003173 -0.002435 0.000320
v -0.003099 -0.002378 0.000094
v -0.002919 -0.002240 0.060000
v -0.003173 -0.002435 0.059680
v -0.003099 -0.002378 0.059906
v -0.003186 -0.001840 0.000000
v -0.003464 -0.002000 0.000320
v -0.003383 -0.001953 0.000094
v -0.003186 -0.001840 0.060000
v -0.003464 -0.002000 0.059680
v -0.003383 -0.001953 0.059906
v -0.003399 -0.001408 0.000000
v -0.003696 -0.001531 0.000320
v -0.003608 -0.001495 0.000094
v -0.003399 -0.001408 0.060000
v -0.003696 -0.001531 0.059680
v -0.003608 -0.001495 0.059906
v -0.003554 -0.000952 0.000000
v -0.003864 -0.001035 0.000320
v -0.003773 -0.001011 0.000094
v -0.003554 -0.000952 0.060000
v -0.003864 -0.001035 0.059680
v -0.003773 -0.001011 0.059906
v -0.003648 -0.000480 0.000000
v -0.003966 -0.000522 0.000320
v -0.003872 -0.000510 0.000094
v -0.003648 -0.000480 0.060000
v -0.003966 -0.000522 0.059680
v -0.003872 -0.000510 0.059906
v -0.003679 0.000000 0.000000
v -0.004000 0.000000 0.000320
v -0.003906 -0.000000 0.000094
v -0.003679 -0.000000 0.060000
v -0.004000 0.000000 0.059680
v -0.003906 0.000000 0.059906
v -0.003648 0.000480 0.000000
v -0.003966 0.000522 0.000320
v -0.003872 0.000510 0.000094
v -0.003648 0.000480 0.060000
v -0.003966 0.000522 0.059680
v -0.003872 0.000510 0.059906
v -0.003554 0.000952 0.000000
v -0.003864 0.001035 0.000320
v -0.003773 0.001011 0.000094
v -0.003554 0.000952 0.060000
v -0.003864 0.001035 0.059680
v -0.003773 0.001011 0.059906
v -0.003399 0.001408 0.000000
v -0.003696 0.001531 0.000320
v -0.003608 0.001495 0.000094
v -0.003399 0.001408 0.060000
v -0.003696 0.001531 0.059680
v -0.003608 0.001495 0.059906
v -0.003186 0.001840 0.000000
v -0.003464 0.002000 0.000320
v -0.003383 0.001953 0.000094
v -0.003186 0.001840 0.060000
v -0.003464 0.002000 0.059680
v -0.003383 0.001953 0.059906
v -0.002919 0.002240 0.000000
v -0.003173 0.002435 0.000320
v -0.003099 0.002378 0.000094
v -0.002919 0.002240 0.060000
v -0.003173 0.002435 0.059680
v -0.003099 0.002378 0.059906
v -0.002602 0.002602 0.000000
v -0.002828 0.002828 0.000320
v -0.002762 0.002762 0.000094
v -0.002602 0.002602 0.060000
v -0.002828 0.002828 0.059680
v -0.002762 0.002762 0.059906
v -0.002240 0.002919 0.000000
v -0.002435 0.003173 0.000320
v -0.002378 0.003099 0.000094
v -0.002240 0.002919 0.060000
v -0.002435 0.003173 0.059680
v -0.002378 0.003099 0.059906
v -0.001840 0.003186 0.000000
v -0.002000 0.003464 0.000320
v -0.001953 0.003383 0.000094
v -0.001840 0.003186 0.060000
v -0.002000 0.003464 0.059680
v -0.001953 0.003383 0.059906
v -0.001408 0.003399 0.000000
v -0.001531 0.003696 0.000320
v -0.001495 0.003608 0.000094
v -0.001408 0.003399 0.060000
v -0.001531 0.003696 0.059680
v -0.001495 0.003608 0.059906
v -0.000952 0.003554 0.000000
v -0.001035 0.003864 0.000320
v -0.001011 0.003773 0.000094
v -0.000952 0.003554 0.060000
v -0.001035 0.003864 0.059680
v -0.001011 0.003773 0.059906
v -0.000480 0.003648 0.000000
v -0.000522 0.003966 0.000320
v -0.000510 0.003872 0.000094
v -0.000480 0.003648 0.060000
v -0.000522 0.003966 0.059680
v -0.000510 0.003872 0.059906
vn 0.0604 0.9215 -0.3837
vn 0.0251 0.3823 -0.9237
vn 0.0604 0.9215 0.3837
vn 0.0251 0.3823 0.9237
vn 0.1802 0.9057 -0.3837
vn 0.0747 0.3757 -0.9237
vn 0.1802 0.9057 0.3837
vn 0.0747 0.3757 0.9237
vn 0.2968 0.8745 -0.3837
vn 0.1231 0.3628 -0.9237
vn 0.2968 0.8745 0.3837
vn 0.1231 0.3628 0.9237
vn 0.4084 0.8282 -0.3837
vn 0.1694 0.3436 -0.9237
vn 0.4084 0.8282 0.3837
vn 0.1694 0.3436 0.9237
vn 0.5131 0.7678 -0.3837
vn 0.2128 0.3185 -0.9237
vn 0.5131 0.7678 0.3837
vn 0.2128 0.3185 0.9237
vn 0.6089 0.6943 -0.3837
vn 0.2526 0.2880 -0.9237
vn 0.6089 0.6943 0.3837
vn 0.2526 0.2880 0.9237
vn 0.6943 0.6089 -0.3837
vn 0.2880 0.2526 -0.9237
vn 0.6943 0.6089 0.3837
vn 0.2880 0.2526 0.9237
vn 0.7678 0.5131 -0.3837
vn 0.3185 0.2128 -0.9237
vn 0.7678 0.5130 0.3837
vn 0.3185 0.2128 0.9237
vn 0.8282 0.4084 -0.3837
vn 0.3436 0.1694 -0.9237
vn 0.8282 0.4084 0.3837
vn 0.3436 0.1694 0.9237
vn 0.8745 0.2968 -0.3837
vn 0.3628 0.1231 -0.9237
vn 0.8745 0.2968 0.3837
vn 0.3628 0.1231 0.9237
vn 0.9057 0.1802 -0.3837
vn 0.3757 0.0747 -0.9237
vn 0.9057 0.1802 0.3837
vn 0.3757 0.0747 0.9237
vn 0.9215 0.0604 -0.3837
vn 0.3823 0.0251 -0.9237
vn 0.9215 0.0604 0.3837
vn 0.3823 0.0251 0.9237
vn 0.9215 -0.0604 -0.3837
vn 0.3823 -0.0251 -0.9237
vn 0.9215 -0.0604 0.3837
vn 0.3823 -0.0251 0.9237
vn 0.9057 -0.1802 -0.3837
vn 0.3757 -0.0747 -0.9237
vn 0.9057 -0.1802 0.3837
vn 0.3757 -0.0747 0.9237
vn 0.8745 -0.2968 -0.3837
vn 0.3628 -0.1231 -0.9237
vn 0.8745 -0.2968 0.3837
vn 0.3628 -0.1231 0.9237
vn 0.8282 -0.4084 -0.3837
vn 0.3436 -0.1694 -0.9237
vn 0.8282 -0.4084 0.3837
vn 0.3436 -0.1694 0.9237
vn 0.7678 -0.5131 -0.3837
vn 0.3185 -0.2128 -0.9237
vn 0.7678 -0.5131 0.3837
vn 0.3185 -0.2128 0.9237
vn 0.6943 -0.6089 -0.3837
vn 0.2880 -0.2526 -0.9237
vn 0.6943 -0.6089 0.3837
vn 0.2880 -0.2526 0.9237
vn 0.6089 -0.6943 -0.3837
vn 0.2526 -0.2880 -0.9237
vn 0.6089 -0.6943 0.3837
vn 0.2526 -0.2880 0.9237
vn 0.5131 -0.7678 -0.3837
vn 0.2128 -0.3185 -0.9237
vn 0.5130 -0.7678 0.3837
vn 0.2128 -0.3185 0.9237
vn 0.4084 -0.8282 -0.3837
vn 0.1694 -0.3436 -0.9237
vn 0.4084 -0.8282 0.3837
vn 0.1694 -0.3436 0.9237
vn 0.2968 -0.8745 -0.3837
vn 0.1231 -0.3628 -0.9237
vn 0.2968 -0.8745 0.3837
vn 0.1231 -0.3628 0.9237
vn 0.1802 -0.9057 -0.3837
vn 0.0747 -0.3757 -0.9237
vn 0.1802 -0.9057 0.3837
vn 0.0747 -0.3757 0.9237
vn 0.0604 -0.9215 -0.3837
vn 0.0251 -0.3823 -0.9237
vn 0.0604 -0.9215 0.3837
vn 0.0250 -0.3823 0.9237
vn -0.0604 -0.9215 -0.3837
vn -0.0251 -0.3823 -0.9237
vn -0.0604 -0.9215 0.3837
vn -0.0251 -0.3823 0.9237
vn -0.1802 -0.9057 -0.3837
vn -0.0747 -0.3757 -0.9237
vn -0.1802 -0.9057 0.3837
vn -0.0747 -0.3757 0.9237
vn -0.2968 -0.8745 -0.3837
vn -0.1231 -0.3628 -0.9237
vn -0.2968 -0.8745 0.3837
vn -0.1231 -0.3628 0.9237
vn -0.4084 -0.8282 -0.3837
vn -0.1694 -0.3436 -0.9237
vn -0.4084 -0.8282 0.3837
vn -0.1694 -0.3436 0.9237
vn -0.5131 -0.7678 -0.3837
vn -0.2128 -0.3185 -0.9237
vn -0.5131 -0.7678 0.3837
vn -0.2128 -0.3185 0.9237
vn -0.6089 -0.6943 -0.3837
vn -0.2526 -0.2880 -0.9237
vn -0.6089 -0.6943 0.3837
vn -0.2526 -0.2880 0.9237
vn -0.6943 -0.6089 -0.3837
vn -0.2880 -0.2526 -0.9237
vn -0.6943 -0.6089 0.3837
vn -0.2880 -0.2526 0.9237
vn -0.7678 -0.5131 -0.3837
vn -0.3185 -0.2128 -0.9237
vn -0.7678 -0.5130 0.3837
vn -0.3185 -0.2128 0.9237
vn -0.8282 -0.4084 -0.3837
vn -0.3436 -0.1694 -0.9237
vn -0.8282 -0.4084 0.3837
vn -0.3436 -0.1694 0.9237
vn -0.8745 -0.2968 -0.3837
vn -0.3628 -0.1231 -0.9237
vn -0.8745 -0.2968 0.3837
vn -0.3628 -0.1231 0.9237
vn -0.9057 -0.1802 -0.3837
vn -0.3757 -0.0747 -0.9237
vn -0.9057 -0.1802 0.3837
vn -0.3757 -0.0747 0.9237
vn -0.9215 -0.0604 -0.3837
vn -0.3823 -0.0251 -0.9237
vn -0.9215 -0.0604 0.3837
vn -0.3823 -0.0251 0.9237
vn -0.9215 0.0604 -0.3837
vn -0.3823 0.0251 -0.9237
vn -0.9215 0.0604 0.3837
vn -0.3823 0.0251 0.9237
vn -0.9057 0.1802 -0.3837
vn -0.3757 0.0747 -0.9237
vn -0.9057 0.1802 0.3837
vn -0.3757 0.0747 0.9237
vn -0.8745 0.2968 -0.3837
vn -0.3628 0.1231 -0.9237
vn -0.8745 0.2968 0.3837
vn -0.3628 0.1231 0.9237
vn -0.8282 0.4084 -0.3837
vn -0.3436 0.1694 -0.9237
vn -0.8282 0.4084 0.3837
vn -0.3436 0.1694 0.9237
vn -0.7678 0.5131 -0.3837
vn -0.3185 0.2128 -0.9237
vn -0.7678 0.5131 0.3837
vn -0.3185 0.2128 0.9237
vn -0.6943 0.6089 -0.3837
vn -0.2880 0.2526 -0.9237
vn -0.6943 0.6089 0.3837
vn -0.2880 0.2526 0.9237
vn -0.6089 0.6943 -0.3837
vn -0.2526 0.2880 -0.9237
vn -0.6089 0.6943 0.3837
vn -0.2526 0.2880 0.9237
vn -0.5131 0.7678 -0.3837
vn -0.2128 0.3185 -0.9237
vn -0.5130 0.7678 0.3837
vn -0.2128 0.3185 0.9237
vn -0.4084 0.8282 -0.3837
vn -0.1694 0.3436 -0.9237
vn -0.4084 0.8282 0.3837
vn -0.1694 0.3436 0.9237
vn -0.2968 0.8745 -0.3837
vn -0.1231 0.3628 -0.9237
vn -0.2968 0.8745 0.3837
vn -0.1231 0.3628 0.9237
vn -0.1802 0.9057 -0.3837
vn -0.0747 0.3757 -0.9237
vn -0.1802 0.9057 0.3837
vn -0.0747 0.3757 0.9237
vn -0.0604 0.9215 -0.3837
vn -0.0251 0.3823 -0.9237
vn -0.0604 0.9215 0.3837
vn -0.0250 0.3823 0.9237
vn -0.0000 -0.0000 -1.0000
vn 0.0654 0.9979 -0.0000
vn -0.0654 0.9979 -0.0000
vn -0.0000 -0.0000 1.0000
vn 0.1951 0.9808 -0.0000
vn 0.3214 0.9469 -0.0000
vn 0.4423 0.8969 -0.0000
vn 0.5556 0.8315 -0.0000
vn 0.6593 0.7518 -0.0000
vn 0.7518 0.6593 -0.0000
vn 0.8315 0.5556 -0.0000
vn 0.8969 0.4423 -0.0000
vn 0.9469 0.3214 -0.0000
vn 0.9808 0.1951 -0.0000
vn 0.9979 0.0654 -0.0000
vn 0.9979 -0.0654 -0.0000
vn 0.9808 -0.1951 -0.0000
vn 0.9469 -0.3214 -0.0000
vn 0.8969 -0.4423 -0.0000
vn 0.8315 -0.5556 -0.0000
vn 0.7518 -0.6593 -0.0000
vn 0.6593 -0.7518 -0.0000
vn 0.5556 -0.8315 -0.0000
vn 0.4423 -0.8969 -0.0000
vn 0.3214 -0.9469 -0.0000
vn 0.1951 -0.9808 -0.0000
vn 0.0654 -0.9979 -0.0000
vn -0.0654 -0.9979 -0.0000
vn -0.1951 -0.9808 -0.0000
vn -0.3214 -0.9469 -0.0000
vn -0.4423 -0.8969 -0.0000
vn -0.5556 -0.8315 -0.0000
vn -0.6593 -0.7518 -0.0000
vn -0.7518 -0.6593 -0.0000
vn -0.8315 -0.5556 -0.0000
vn -0.8969 -0.4423 -0.0000
vn -0.9469 -0.3214 -0.0000
vn -0.9808 -0.1951 -0.0000
vn -0.9979 -0.0654 -0.0000
vn -0.9979 0.0654 -0.0000
vn -0.9808 0.1951 -0.0000
vn -0.9469 0.3214 -0.0000
vn -0.8969 0.4423 -0.0000
vn -0.8315 0.5556 -0.0000
vn -0.7518 0.6593 -0.0000
vn -0.6593 0.7518 -0.0000
vn -0.5556 0.8315 -0.0000
vn -0.4423 0.8969 -0.0000
vn -0.3214 0.9469 -0.0000
vn -0.1951 0.9808 -0.0000
vn 0.0250 0.3823 0.9237
vn 0.4085 0.8282 0.3837
vn 0.5130 0.7678 0.3837
vn 0.7678 0.5131 0.3837
vn 0.3435 -0.1694 0.9237
vn 0.7678 -0.5130 0.3837
vn 0.5131 -0.7678 0.3837
vn 0.4085 -0.8282 0.3837
vn 0.0251 -0.3823 0.9237
vn -0.0250 -0.3823 0.9237
vn -0.4085 -0.8282 0.3837
vn -0.5130 -0.7678 0.3837
vn -0.7678 -0.5131 0.3837
vn -0.3435 0.1694 0.9237
vn -0.7678 0.5130 0.3837
vn -0.5131 0.7678 0.3837
vn -0.4085 0.8282 0.3837
vn -0.0251 0.3823 0.9237
vn -0.0001 -0.0000 1.0000
vn 0.0001 -0.0000 1.0000
vt 0.256763 0.993279
vt 0.265079 0.997039
vt 0.256661 0.997039
vt 0.403014 0.080400
vt 0.405662 0.071735
vt 0.406706 0.079665
vt 0.256763 0.006721
vt 0.265079 0.002961
vt 0.265385 0.006721
vt 0.403014 0.215870
vt 0.408776 0.222862
vt 0.405212 0.224072
vt 0.273784 0.993279
vt 0.265385 0.993279
vt 0.401906 0.063490
vt 0.401906 0.071981
vt 0.273281 0.002961
vt 0.273784 0.006721
vt 0.408461 0.231917
vt 0.411837 0.230252
vt 0.281818 0.993279
vt 0.273281 0.997039
vt 0.403014 0.055071
vt 0.405662 0.063736
vt 0.281818 0.006721
vt 0.281126 0.002961
vt 0.412707 0.239271
vt 0.415837 0.237179
vt 0.289349 0.993279
vt 0.281126 0.997039
vt 0.405212 0.046870
vt 0.406706 0.055806
vt 0.288479 0.002961
vt 0.289349 0.006721
vt 0.420706 0.243525
vt 0.417876 0.246007
vt 0.295216 0.997039
vt 0.288479 0.997039
vt 0.411837 0.040690
vt 0.408776 0.048080
vt 0.295216 0.002961
vt 0.296248 0.006721
vt 0.426362 0.249181
vt 0.423880 0.252011
vt 0.296248 0.993279
vt 0.301220 0.997039
vt 0.412707 0.031671
vt 0.408461 0.039025
vt 0.301220 0.002961
vt 0.302397 0.006721
vt 0.432708 0.254051
vt 0.430617 0.257180
vt 0.009110 0.993279
vt 0.004138 0.997039
vt 0.002961 0.993279
vt 0.417876 0.024935
vt 0.415837 0.033762
vt 0.009110 0.006721
vt 0.004138 0.002961
vt 0.010142 0.002961
vt 0.437970 0.261426
vt 0.439635 0.258050
vt 0.016009 0.993279
vt 0.010142 0.997039
vt 0.423880 0.018931
vt 0.420706 0.027417
vt 0.016009 0.006721
vt 0.016878 0.002961
vt 0.445815 0.264675
vt 0.447025 0.261111
vt 0.023539 0.993279
vt 0.016878 0.997039
vt 0.432708 0.016891
vt 0.426362 0.021761
vt 0.024232 0.002961
vt 0.023539 0.006721
vt 0.454751 0.263181
vt 0.454017 0.266873
vt 0.032077 0.997039
vt 0.024232 0.997039
vt 0.430617 0.013762
vt 0.439635 0.012892
vt 0.032077 0.002961
vt 0.031573 0.006721
vt 0.462681 0.264225
vt 0.462435 0.267981
vt 0.039973 0.993279
vt 0.031573 0.993279
vt 0.445815 0.006267
vt 0.437970 0.009516
vt 0.040279 0.002961
vt 0.039973 0.006721
vt 0.470680 0.264225
vt 0.470926 0.267981
vt 0.048697 0.997039
vt 0.040279 0.997039
vt 0.454017 0.004069
vt 0.447025 0.009831
vt 0.048697 0.002961
vt 0.048595 0.006721
vt 0.479345 0.266873
vt 0.478610 0.263181
vt 0.048595 0.993279
vt 0.057188 0.997039
vt 0.462681 0.006717
vt 0.454751 0.007761
vt 0.057188 0.002961
vt 0.057291 0.006721
vt 0.486337 0.261111
vt 0.487547 0.264675
vt 0.065912 0.993279
vt 0.057291 0.993279
vt 0.470926 0.002961
vt 0.462435 0.002961
vt 0.065607 0.002961
vt 0.065912 0.006721
vt 0.495391 0.261426
vt 0.493727 0.258050
vt 0.074312 0.993279
vt 0.065607 0.997039
vt 0.479345 0.004069
vt 0.470680 0.006717
vt 0.074312 0.006721
vt 0.073809 0.002961
vt 0.502745 0.257180
vt 0.500654 0.254051
vt 0.082346 0.993279
vt 0.073809 0.997039
vt 0.487547 0.006267
vt 0.478611 0.007761
vt 0.081653 0.002961
vt 0.082346 0.006721
vt 0.507000 0.249181
vt 0.509481 0.252011
vt 0.089007 0.997039
vt 0.081653 0.997039
vt 0.493727 0.012892
vt 0.486337 0.009831
vt 0.089007 0.002961
vt 0.089877 0.006721
vt 0.512656 0.243525
vt 0.515486 0.246007
vt 0.089877 0.993279
vt 0.095743 0.997039
vt 0.502745 0.013762
vt 0.495391 0.009516
vt 0.095743 0.002961
vt 0.096776 0.006721
vt 0.517525 0.237179
vt 0.520655 0.239271
vt 0.102925 0.993279
vt 0.096776 0.993279
vt 0.509481 0.018931
vt 0.500654 0.016891
vt 0.102925 0.006721
vt 0.101747 0.002961
vt 0.524900 0.231917
vt 0.521524 0.230252
vt 0.115745 0.993279
vt 0.109878 0.997039
vt 0.108846 0.993279
vt 0.515486 0.024935
vt 0.507000 0.021761
vt 0.115745 0.006721
vt 0.109878 0.002961
vt 0.116615 0.002961
vt 0.528150 0.224072
vt 0.524585 0.222862
vt 0.123276 0.993279
vt 0.116615 0.997039
vt 0.517525 0.033762
vt 0.512656 0.027417
vt 0.123968 0.002961
vt 0.123276 0.006721
vt 0.526656 0.215136
vt 0.530347 0.215871
vt 0.131813 0.997039
vt 0.123968 0.997039
vt 0.520655 0.031671
vt 0.521524 0.040690
vt 0.131813 0.002961
vt 0.131310 0.006721
vt 0.527700 0.207206
vt 0.531456 0.207452
vt 0.139709 0.993279
vt 0.131310 0.993279
vt 0.528150 0.046870
vt 0.524900 0.039025
vt 0.140015 0.002961
vt 0.139709 0.006721
vt 0.527700 0.199207
vt 0.531456 0.198961
vt 0.148433 0.997039
vt 0.140015 0.997039
vt 0.530347 0.055071
vt 0.524585 0.048080
vt 0.148433 0.002961
vt 0.148331 0.006721
vt 0.530347 0.190542
vt 0.526656 0.191277
vt 0.148331 0.993279
vt 0.156925 0.997039
vt 0.527700 0.063736
vt 0.526656 0.055806
vt 0.156925 0.002961
vt 0.157027 0.006721
vt 0.524585 0.183550
vt 0.528150 0.182341
vt 0.165649 0.993279
vt 0.157027 0.993279
vt 0.531456 0.071981
vt 0.531456 0.063490
vt 0.165343 0.002961
vt 0.165649 0.006721
vt 0.524900 0.174496
vt 0.521524 0.176161
vt 0.174048 0.993279
vt 0.165343 0.997039
vt 0.530347 0.080400
vt 0.527700 0.071735
vt 0.174048 0.006721
vt 0.173545 0.002961
vt 0.520655 0.167142
vt 0.517525 0.169233
vt 0.182082 0.993279
vt 0.173545 0.997039
vt 0.528150 0.088601
vt 0.526656 0.079665
vt 0.181390 0.002961
vt 0.182082 0.006721
vt 0.512656 0.162888
vt 0.515486 0.160406
vt 0.188743 0.997039
vt 0.181390 0.997039
vt 0.521524 0.094781
vt 0.524585 0.087391
vt 0.188743 0.002961
vt 0.189613 0.006721
vt 0.507000 0.157232
vt 0.509481 0.154402
vt 0.189613 0.993279
vt 0.195480 0.997039
vt 0.520655 0.103800
vt 0.524900 0.096446
vt 0.195480 0.002961
vt 0.196512 0.006721
vt 0.500654 0.152362
vt 0.502745 0.149233
vt 0.202661 0.993279
vt 0.196512 0.993279
vt 0.515486 0.110536
vt 0.517525 0.101709
vt 0.202661 0.006721
vt 0.201484 0.002961
vt 0.495391 0.144987
vt 0.493727 0.148363
vt 0.315217 0.993279
vt 0.309351 0.997039
vt 0.308319 0.993279
vt 0.509481 0.116540
vt 0.512656 0.108054
vt 0.315217 0.006721
vt 0.309351 0.002961
vt 0.316087 0.002961
vt 0.487547 0.141738
vt 0.486337 0.145302
vt 0.322748 0.993279
vt 0.316087 0.997039
vt 0.500654 0.118580
vt 0.507000 0.113710
vt 0.323441 0.002961
vt 0.322748 0.006721
vt 0.478611 0.143232
vt 0.479345 0.139540
vt 0.331286 0.997039
vt 0.323441 0.997039
vt 0.502745 0.121709
vt 0.493727 0.122579
vt 0.331286 0.002961
vt 0.330782 0.006721
vt 0.470680 0.142188
vt 0.470926 0.138432
vt 0.339182 0.993279
vt 0.330782 0.993279
vt 0.487547 0.129204
vt 0.495391 0.125955
vt 0.339488 0.002961
vt 0.339182 0.006721
vt 0.462681 0.142188
vt 0.462435 0.138432
vt 0.347906 0.997039
vt 0.339488 0.997039
vt 0.479345 0.131402
vt 0.486337 0.125640
vt 0.347906 0.002961
vt 0.347804 0.006721
vt 0.454017 0.139540
vt 0.454751 0.143232
vt 0.347804 0.993279
vt 0.356397 0.997039
vt 0.470680 0.128754
vt 0.478610 0.127710
vt 0.356397 0.002961
vt 0.356500 0.006721
vt 0.447025 0.145302
vt 0.445815 0.141738
vt 0.365121 0.993279
vt 0.356500 0.993279
vt 0.462435 0.132510
vt 0.470926 0.132510
vt 0.364816 0.002961
vt 0.365121 0.006721
vt 0.437970 0.144987
vt 0.439635 0.148363
vt 0.373521 0.993279
vt 0.364816 0.997039
vt 0.454017 0.131402
vt 0.462681 0.128754
vt 0.373521 0.006721
vt 0.373017 0.002961
vt 0.430617 0.149233
vt 0.432708 0.152362
vt 0.381555 0.993279
vt 0.373017 0.997039
vt 0.445815 0.129204
vt 0.454751 0.127710
vt 0.380862 0.002961
vt 0.381555 0.006721
vt 0.426362 0.157232
vt 0.423880 0.154402
vt 0.388216 0.997039
vt 0.380862 0.997039
vt 0.439635 0.122579
vt 0.447025 0.125640
vt 0.388216 0.002961
vt 0.389086 0.006721
vt 0.420706 0.162888
vt 0.417876 0.160406
vt 0.389086 0.993279
vt 0.394952 0.997039
vt 0.430617 0.121709
vt 0.437970 0.125955
vt 0.394952 0.002961
vt 0.395985 0.006721
vt 0.415837 0.169233
vt 0.412707 0.167142
vt 0.215481 0.993279
vt 0.209615 0.997039
vt 0.208582 0.993279
vt 0.423880 0.116540
vt 0.432708 0.118580
vt 0.215481 0.006721
vt 0.209615 0.002961
vt 0.216351 0.002961
vt 0.408461 0.174496
vt 0.411837 0.176161
vt 0.223012 0.993279
vt 0.216351 0.997039
vt 0.417876 0.110536
vt 0.426362 0.113710
vt 0.223012 0.006721
vt 0.223705 0.002961
vt 0.405212 0.182341
vt 0.408776 0.183550
vt 0.231046 0.993279
vt 0.223705 0.997039
vt 0.415837 0.101709
vt 0.420706 0.108054
vt 0.231549 0.002961
vt 0.231046 0.006721
vt 0.406706 0.191277
vt 0.403014 0.190542
vt 0.239751 0.997039
vt 0.231549 0.997039
vt 0.412707 0.103800
vt 0.411837 0.094781
vt 0.239751 0.002961
vt 0.239446 0.006721
vt 0.405662 0.199207
vt 0.401906 0.198961
vt 0.248067 0.993279
vt 0.239446 0.993279
vt 0.405212 0.088601
vt 0.408461 0.096446
vt 0.248170 0.002961
vt 0.248067 0.006721
vt 0.405662 0.207206
vt 0.401906 0.207452
vt 0.248170 0.997039
vt 0.408776 0.087391
vt 0.256661 0.002961
vt 0.406706 0.215136
vt 0.302397 0.993279
vt 0.002961 0.006721
vt 0.108846 0.006721
vt 0.308319 0.006721
vt 0.395985 0.993279
vt 0.208582 0.006721
vt 0.101747 0.997039
vt 0.201484 0.997039
s 0
usemtl ARAT_light_maple
f 2/1/1 9/2/1 3/3/1
f 3/4/2 7/5/2 1/6/2
f 5/7/3 12/8/3 11/9/3
f 6/10/4 10/11/4 12/12/4
f 14/13/5 9/2/5 8/14/5
f 15/15/6 7/5/6 9/16/6
f 11/9/7 18/17/7 17/18/7
f 18/19/8 10/11/8 16/20/8
f 20/21/9 15/22/9 14/13/9
f 21/23/10 13/24/10 15/15/10
f 23/25/11 18/17/11 24/26/11
f 24/27/12 16/20/12 22/28/12
f 26/29/13 21/30/13 20/21/13
f 27/31/14 19/32/14 21/23/14
f 23/25/15 30/33/15 29/34/15
f 24/27/16 28/35/16 30/36/16
f 26/29/17 33/37/17 27/38/17
f 27/31/18 31/39/18 25/40/18
f 29/34/19 36/41/19 35/42/19
f 30/36/20 34/43/20 36/44/20
f 32/45/21 39/46/21 33/37/21
f 39/47/22 31/39/22 33/48/22
f 35/42/23 42/49/23 41/50/23
f 36/44/24 40/51/24 42/52/24
f 44/53/25 39/54/25 38/55/25
f 45/56/26 37/57/26 39/47/26
f 47/58/27 42/59/27 48/60/27
f 48/61/28 40/51/28 46/62/28
f 50/63/29 45/64/29 44/53/29
f 51/65/30 43/66/30 45/56/30
f 53/67/31 48/60/31 54/68/31
f 54/69/32 46/62/32 52/70/32
f 56/71/33 51/72/33 50/63/33
f 51/65/34 55/73/34 49/74/34
f 53/67/35 60/75/35 59/76/35
f 54/69/36 58/77/36 60/78/36
f 56/71/37 63/79/37 57/80/37
f 57/81/38 61/82/38 55/73/38
f 59/76/39 66/83/39 65/84/39
f 60/78/40 64/85/40 66/86/40
f 68/87/41 63/79/41 62/88/41
f 69/89/42 61/82/42 63/90/42
f 65/84/43 72/91/43 71/92/43
f 66/86/44 70/93/44 72/94/44
f 68/87/45 75/95/45 69/96/45
f 75/97/46 67/98/46 69/89/46
f 71/92/47 78/99/47 77/100/47
f 78/101/48 70/93/48 76/102/48
f 74/103/49 81/104/49 75/95/49
f 75/97/50 79/105/50 73/106/50
f 77/100/51 84/107/51 83/108/51
f 78/101/52 82/109/52 84/110/52
f 86/111/53 81/104/53 80/112/53
f 87/113/54 79/105/54 81/114/54
f 83/108/55 90/115/55 89/116/55
f 90/117/56 82/109/56 88/118/56
f 92/119/57 87/120/57 86/111/57
f 93/121/58 85/122/58 87/113/58
f 95/123/59 90/115/59 96/124/59
f 96/125/60 88/118/60 94/126/60
f 98/127/61 93/128/61 92/119/61
f 99/129/62 91/130/62 93/121/62
f 95/123/63 102/131/63 101/132/63
f 96/125/64 100/133/64 102/134/64
f 98/127/65 105/135/65 99/136/65
f 99/129/66 103/137/66 97/138/66
f 101/132/67 108/139/67 107/140/67
f 102/134/68 106/141/68 108/142/68
f 104/143/69 111/144/69 105/135/69
f 111/145/70 103/137/70 105/146/70
f 107/140/71 114/147/71 113/148/71
f 108/142/72 112/149/72 114/150/72
f 116/151/73 111/144/73 110/152/73
f 117/153/74 109/154/74 111/145/74
f 119/155/75 114/147/75 120/156/75
f 120/157/76 112/149/76 118/158/76
f 122/159/77 117/160/77 116/161/77
f 123/162/78 115/163/78 117/153/78
f 125/164/79 120/165/79 126/166/79
f 126/167/80 118/158/80 124/168/80
f 128/169/81 123/170/81 122/159/81
f 123/162/82 127/171/82 121/172/82
f 125/164/83 132/173/83 131/174/83
f 126/167/84 130/175/84 132/176/84
f 128/169/85 135/177/85 129/178/85
f 129/179/86 133/180/86 127/171/86
f 131/174/87 138/181/87 137/182/87
f 132/176/88 136/183/88 138/184/88
f 140/185/89 135/177/89 134/186/89
f 141/187/90 133/180/90 135/188/90
f 137/182/91 144/189/91 143/190/91
f 138/184/92 142/191/92 144/192/92
f 140/185/93 147/193/93 141/194/93
f 147/195/94 139/196/94 141/187/94
f 143/190/95 150/197/95 149/198/95
f 150/199/96 142/191/96 148/200/96
f 146/201/97 153/202/97 147/193/97
f 147/195/98 151/203/98 145/204/98
f 149/198/99 156/205/99 155/206/99
f 150/199/100 154/207/100 156/208/100
f 158/209/101 153/202/101 152/210/101
f 159/211/102 151/203/102 153/212/102
f 155/206/103 162/213/103 161/214/103
f 162/215/104 154/207/104 160/216/104
f 164/217/105 159/218/105 158/209/105
f 165/219/106 157/220/106 159/211/106
f 167/221/107 162/213/107 168/222/107
f 168/223/108 160/216/108 166/224/108
f 170/225/109 165/226/109 164/217/109
f 171/227/110 163/228/110 165/219/110
f 167/221/111 174/229/111 173/230/111
f 168/223/112 172/231/112 174/232/112
f 170/225/113 177/233/113 171/234/113
f 171/227/114 175/235/114 169/236/114
f 173/230/115 180/237/115 179/238/115
f 174/232/116 178/239/116 180/240/116
f 176/241/117 183/242/117 177/233/117
f 183/243/118 175/235/118 177/244/118
f 179/238/119 186/245/119 185/246/119
f 180/240/120 184/247/120 186/248/120
f 188/249/121 183/242/121 182/250/121
f 189/251/122 181/252/122 183/243/122
f 191/253/123 186/245/123 192/254/123
f 192/255/124 184/247/124 190/256/124
f 194/257/125 189/258/125 188/259/125
f 195/260/126 187/261/126 189/251/126
f 197/262/127 192/263/127 198/264/127
f 198/265/128 190/256/128 196/266/128
f 200/267/129 195/268/129 194/257/129
f 195/260/130 199/269/130 193/270/130
f 197/262/131 204/271/131 203/272/131
f 198/265/132 202/273/132 204/274/132
f 200/267/133 207/275/133 201/276/133
f 201/277/134 205/278/134 199/269/134
f 203/272/135 210/279/135 209/280/135
f 204/274/136 208/281/136 210/282/136
f 212/283/137 207/275/137 206/284/137
f 213/285/138 205/278/138 207/286/138
f 209/280/139 216/287/139 215/288/139
f 210/282/140 214/289/140 216/290/140
f 212/283/141 219/291/141 213/292/141
f 219/293/142 211/294/142 213/285/142
f 215/288/143 222/295/143 221/296/143
f 222/297/144 214/289/144 220/298/144
f 218/299/145 225/300/145 219/291/145
f 219/293/146 223/301/146 217/302/146
f 221/296/147 228/303/147 227/304/147
f 222/297/148 226/305/148 228/306/148
f 230/307/149 225/300/149 224/308/149
f 231/309/150 223/301/150 225/310/150
f 227/304/151 234/311/151 233/312/151
f 234/313/152 226/305/152 232/314/152
f 236/315/153 231/316/153 230/307/153
f 237/317/154 229/318/154 231/309/154
f 239/319/155 234/311/155 240/320/155
f 240/321/156 232/314/156 238/322/156
f 242/323/157 237/324/157 236/315/157
f 243/325/158 235/326/158 237/317/158
f 239/319/159 246/327/159 245/328/159
f 240/321/160 244/329/160 246/330/160
f 242/323/161 249/331/161 243/332/161
f 243/325/162 247/333/162 241/334/162
f 245/328/163 252/335/163 251/336/163
f 246/330/164 250/337/164 252/338/164
f 248/339/165 255/340/165 249/331/165
f 255/341/166 247/333/166 249/342/166
f 251/336/167 258/343/167 257/344/167
f 252/338/168 256/345/168 258/346/168
f 260/347/169 255/348/169 254/349/169
f 261/350/170 253/351/170 255/341/170
f 263/352/171 258/353/171 264/354/171
f 264/355/172 256/345/172 262/356/172
f 266/357/173 261/358/173 260/347/173
f 267/359/174 259/360/174 261/350/174
f 269/361/175 264/354/175 270/362/175
f 270/363/176 262/356/176 268/364/176
f 272/365/177 267/366/177 266/357/177
f 267/359/178 271/367/178 265/368/178
f 269/361/179 276/369/179 275/370/179
f 270/363/180 274/371/180 276/372/180
f 272/365/181 279/373/181 273/374/181
f 273/375/182 277/376/182 271/367/182
f 275/370/183 282/377/183 281/378/183
f 276/372/184 280/379/184 282/380/184
f 284/381/185 279/373/185 278/382/185
f 285/383/186 277/376/186 279/384/186
f 281/378/187 288/385/187 287/386/187
f 282/380/188 286/387/188 288/388/188
f 284/381/189 3/3/189 285/389/189
f 3/4/190 283/390/190 285/383/190
f 287/386/191 6/391/191 5/7/191
f 6/10/192 286/387/192 4/392/192
f 91/130/193 187/261/193 283/390/193
f 5/7/194 8/14/194 2/1/194
f 287/386/195 2/1/195 284/381/195
f 208/281/196 112/149/196 16/20/196
f 11/9/197 14/13/197 8/14/197
f 17/18/198 20/21/198 14/13/198
f 23/25/199 26/29/199 20/21/199
f 29/34/200 32/45/200 26/29/200
f 35/42/201 38/393/201 32/45/201
f 41/394/202 44/53/202 38/55/202
f 47/58/203 50/63/203 44/53/203
f 53/67/204 56/71/204 50/63/204
f 59/76/205 62/88/205 56/71/205
f 65/84/206 68/87/206 62/88/206
f 71/92/207 74/103/207 68/87/207
f 77/100/208 80/112/208 74/103/208
f 83/108/209 86/111/209 80/112/209
f 89/116/210 92/119/210 86/111/210
f 95/123/211 98/127/211 92/119/211
f 101/132/212 104/143/212 98/127/212
f 107/140/213 110/152/213 104/143/213
f 113/148/214 116/151/214 110/152/214
f 119/395/215 122/159/215 116/161/215
f 125/164/216 128/169/216 122/159/216
f 131/174/217 134/186/217 128/169/217
f 137/182/218 140/185/218 134/186/218
f 143/190/219 146/201/219 140/185/219
f 149/198/220 152/210/220 146/201/220
f 155/206/221 158/209/221 152/210/221
f 161/214/222 164/217/222 158/209/222
f 167/221/223 170/225/223 164/217/223
f 173/230/224 176/241/224 170/225/224
f 179/238/225 182/250/225 176/241/225
f 185/246/226 188/249/226 182/250/226
f 191/396/227 194/257/227 188/259/227
f 197/262/228 200/267/228 194/257/228
f 203/272/229 206/284/229 200/267/229
f 209/280/230 212/283/230 206/284/230
f 215/288/231 218/299/231 212/283/231
f 221/296/232 224/308/232 218/299/232
f 227/304/233 230/307/233 224/308/233
f 233/312/234 236/315/234 230/307/234
f 239/319/235 242/323/235 236/315/235
f 245/328/236 248/339/236 242/323/236
f 251/336/237 254/397/237 248/339/237
f 257/398/238 260/347/238 254/349/238
f 263/352/239 266/357/239 260/347/239
f 269/361/240 272/365/240 266/357/240
f 275/370/241 278/382/241 272/365/241
f 281/378/242 284/381/242 278/382/242
f 2/1/1 8/14/1 9/2/1
f 3/4/2 9/16/2 7/5/2
f 5/7/3 6/391/3 12/8/3
f 6/10/243 4/392/243 10/11/243
f 14/13/5 15/22/5 9/2/5
f 15/15/6 13/24/6 7/5/6
f 11/9/7 12/8/7 18/17/7
f 18/19/8 12/12/8 10/11/8
f 20/21/9 21/30/9 15/22/9
f 21/23/10 19/32/10 13/24/10
f 23/25/11 17/18/11 18/17/11
f 24/27/12 18/19/12 16/20/12
f 26/29/13 27/38/13 21/30/13
f 27/31/14 25/40/14 19/32/14
f 23/25/244 24/26/244 30/33/244
f 24/27/16 22/28/16 28/35/16
f 26/29/17 32/45/17 33/37/17
f 27/31/18 33/48/18 31/39/18
f 29/34/245 30/33/245 36/41/245
f 30/36/20 28/35/20 34/43/20
f 32/45/21 38/393/21 39/46/21
f 39/47/22 37/57/22 31/39/22
f 35/42/23 36/41/23 42/49/23
f 36/44/24 34/43/24 40/51/24
f 44/53/25 45/64/25 39/54/25
f 45/56/26 43/66/26 37/57/26
f 47/58/27 41/394/27 42/59/27
f 48/61/28 42/52/28 40/51/28
f 50/63/29 51/72/29 45/64/29
f 51/65/30 49/74/30 43/66/30
f 53/67/246 47/58/246 48/60/246
f 54/69/32 48/61/32 46/62/32
f 56/71/33 57/80/33 51/72/33
f 51/65/34 57/81/34 55/73/34
f 53/67/35 54/68/35 60/75/35
f 54/69/36 52/70/36 58/77/36
f 56/71/37 62/88/37 63/79/37
f 57/81/38 63/90/38 61/82/38
f 59/76/39 60/75/39 66/83/39
f 60/78/40 58/77/40 64/85/40
f 68/87/41 69/96/41 63/79/41
f 69/89/42 67/98/42 61/82/42
f 65/84/43 66/83/43 72/91/43
f 66/86/44 64/85/44 70/93/44
f 68/87/45 74/103/45 75/95/45
f 75/97/46 73/106/46 67/98/46
f 71/92/47 72/91/47 78/99/47
f 78/101/48 72/94/48 70/93/48
f 74/103/49 80/112/49 81/104/49
f 75/97/50 81/114/50 79/105/50
f 77/100/51 78/99/51 84/107/51
f 78/101/52 76/102/52 82/109/52
f 86/111/53 87/120/53 81/104/53
f 87/113/54 85/122/54 79/105/54
f 83/108/55 84/107/55 90/115/55
f 90/117/56 84/110/56 82/109/56
f 92/119/57 93/128/57 87/120/57
f 93/121/58 91/130/58 85/122/58
f 95/123/59 89/116/59 90/115/59
f 96/125/60 90/117/60 88/118/60
f 98/127/61 99/136/61 93/128/61
f 99/129/62 97/138/62 91/130/62
f 95/123/63 96/124/63 102/131/63
f 96/125/247 94/126/247 100/133/247
f 98/127/65 104/143/65 105/135/65
f 99/129/66 105/146/66 103/137/66
f 101/132/248 102/131/248 108/139/248
f 102/134/68 100/133/68 106/141/68
f 104/143/69 110/152/69 111/144/69
f 111/145/70 109/154/70 103/137/70
f 107/140/71 108/139/71 114/147/71
f 108/142/72 106/141/72 112/149/72
f 116/151/73 117/399/73 111/144/73
f 117/153/74 115/163/74 109/154/74
f 119/155/75 113/148/75 114/147/75
f 120/157/76 114/150/76 112/149/76
f 122/159/77 123/170/77 117/160/77
f 123/162/78 121/172/78 115/163/78
f 125/164/249 119/395/249 120/165/249
f 126/167/80 120/157/80 118/158/80
f 128/169/81 129/178/81 123/170/81
f 123/162/82 129/179/82 127/171/82
f 125/164/250 126/166/250 132/173/250
f 126/167/84 124/168/84 130/175/84
f 128/169/85 134/186/85 135/177/85
f 129/179/86 135/188/86 133/180/86
f 131/174/87 132/173/87 138/181/87
f 132/176/88 130/175/88 136/183/88
f 140/185/89 141/194/89 135/177/89
f 141/187/90 139/196/90 133/180/90
f 137/182/91 138/181/91 144/189/91
f 138/184/92 136/183/92 142/191/92
f 140/185/93 146/201/93 147/193/93
f 147/195/94 145/204/94 139/196/94
f 143/190/95 144/189/95 150/197/95
f 150/199/251 144/192/251 142/191/251
f 146/201/97 152/210/97 153/202/97
f 147/195/98 153/212/98 151/203/98
f 149/198/99 150/197/99 156/205/99
f 150/199/252 148/200/252 154/207/252
f 158/209/101 159/218/101 153/202/101
f 159/211/102 157/220/102 151/203/102
f 155/206/103 156/205/103 162/213/103
f 162/215/104 156/208/104 154/207/104
f 164/217/105 165/226/105 159/218/105
f 165/219/106 163/228/106 157/220/106
f 167/221/107 161/214/107 162/213/107
f 168/223/108 162/215/108 160/216/108
f 170/225/109 171/234/109 165/226/109
f 171/227/110 169/236/110 163/228/110
f 167/221/253 168/222/253 174/229/253
f 168/223/112 166/224/112 172/231/112
f 170/225/113 176/241/113 177/233/113
f 171/227/114 177/244/114 175/235/114
f 173/230/254 174/229/254 180/237/254
f 174/232/116 172/231/116 178/239/116
f 176/241/117 182/250/117 183/242/117
f 183/243/118 181/252/118 175/235/118
f 179/238/119 180/237/119 186/245/119
f 180/240/120 178/239/120 184/247/120
f 188/249/121 189/400/121 183/242/121
f 189/251/122 187/261/122 181/252/122
f 191/253/123 185/246/123 186/245/123
f 192/255/124 186/248/124 184/247/124
f 194/257/125 195/268/125 189/258/125
f 195/260/126 193/270/126 187/261/126
f 197/262/255 191/396/255 192/263/255
f 198/265/128 192/255/128 190/256/128
f 200/267/129 201/276/129 195/268/129
f 195/260/130 201/277/130 199/269/130
f 197/262/131 198/264/131 204/271/131
f 198/265/132 196/266/132 202/273/132
f 200/267/133 206/284/133 207/275/133
f 201/277/134 207/286/134 205/278/134
f 203/272/135 204/271/135 210/279/135
f 204/274/136 202/273/136 208/281/136
f 212/283/137 213/292/137 207/275/137
f 213/285/138 211/294/138 205/278/138
f 209/280/139 210/279/139 216/287/139
f 210/282/140 208/281/140 214/289/140
f 212/283/141 218/299/141 219/291/141
f 219/293/142 217/302/142 211/294/142
f 215/288/143 216/287/143 222/295/143
f 222/297/144 216/290/144 214/289/144
f 218/299/145 224/308/145 225/300/145
f 219/293/146 225/310/146 223/301/146
f 221/296/147 222/295/147 228/303/147
f 222/297/148 220/298/148 226/305/148
f 230/307/149 231/316/149 225/300/149
f 231/309/150 229/318/150 223/301/150
f 227/304/151 228/303/151 234/311/151
f 234/313/152 228/306/152 226/305/152
f 236/315/153 237/324/153 231/316/153
f 237/317/154 235/326/154 229/318/154
f 239/319/155 233/312/155 234/311/155
f 240/321/156 234/313/156 232/314/156
f 242/323/157 243/332/157 237/324/157
f 243/325/158 241/334/158 235/326/158
f 239/319/159 240/320/159 246/327/159
f 240/321/256 238/322/256 244/329/256
f 242/323/161 248/339/161 249/331/161
f 243/325/162 249/342/162 247/333/162
f 245/328/257 246/327/257 252/335/257
f 246/330/164 244/329/164 250/337/164
f 248/339/165 254/397/165 255/340/165
f 255/341/166 253/351/166 247/333/166
f 251/336/167 252/335/167 258/343/167
f 252/338/168 250/337/168 256/345/168
f 260/347/169 261/358/169 255/348/169
f 261/350/170 259/360/170 253/351/170
f 263/352/171 257/398/171 258/353/171
f 264/355/172 258/346/172 256/345/172
f 266/357/173 267/366/173 261/358/173
f 267/359/174 265/368/174 259/360/174
f 269/361/258 263/352/258 264/354/258
f 270/363/176 264/355/176 262/356/176
f 272/365/177 273/374/177 267/366/177
f 267/359/178 273/375/178 271/367/178
f 269/361/259 270/362/259 276/369/259
f 270/363/180 268/364/180 274/371/180
f 272/365/181 278/382/181 279/373/181
f 273/375/182 279/384/182 277/376/182
f 275/370/183 276/369/183 282/377/183
f 276/372/184 274/371/184 280/379/184
f 284/381/185 285/389/185 279/373/185
f 285/383/186 283/390/186 277/376/186
f 281/378/187 282/377/187 288/385/187
f 282/380/188 280/379/188 286/387/188
f 284/381/189 2/1/189 3/3/189
f 3/4/190 1/6/190 283/390/190
f 287/386/191 288/385/191 6/391/191
f 6/10/260 288/388/260 286/387/260
f 283/390/193 1/6/193 7/5/193
f 7/5/193 13/24/193 19/32/193
f 19/32/193 25/40/193 31/39/193
f 31/39/193 37/57/193 43/66/193
f 43/66/193 49/74/193 55/73/193
f 55/73/193 61/82/193 67/98/193
f 67/98/193 73/106/193 79/105/193
f 79/105/193 85/122/193 91/130/193
f 91/130/193 97/138/193 103/137/193
f 103/137/193 109/154/193 115/163/193
f 115/163/193 121/172/193 127/171/193
f 127/171/193 133/180/193 139/196/193
f 139/196/193 145/204/193 151/203/193
f 151/203/193 157/220/193 163/228/193
f 163/228/193 169/236/193 175/235/193
f 175/235/193 181/252/193 187/261/193
f 187/261/193 193/270/193 199/269/193
f 199/269/193 205/278/193 211/294/193
f 211/294/193 217/302/193 223/301/193
f 223/301/193 229/318/193 235/326/193
f 235/326/193 241/334/193 247/333/193
f 247/333/193 253/351/193 259/360/193
f 259/360/193 265/368/193 271/367/193
f 271/367/193 277/376/193 283/390/193
f 283/390/193 7/5/193 19/32/193
f 19/32/193 31/39/193 43/66/193
f 43/66/193 55/73/193 67/98/193
f 67/98/193 79/105/193 91/130/193
f 91/130/193 103/137/193 115/163/193
f 115/163/193 127/171/193 139/196/193
f 139/196/193 151/203/193 163/228/193
f 163/228/193 175/235/193 187/261/193
f 187/261/193 199/269/193 211/294/193
f 211/294/193 223/301/193 235/326/193
f 235/326/193 247/333/193 259/360/193
f 259/360/193 271/367/193 283/390/193
f 283/390/193 19/32/193 43/66/193
f 43/66/193 67/98/193 91/130/193
f 91/130/193 115/163/193 139/196/193
f 139/196/193 163/228/193 187/261/193
f 187/261/193 211/294/193 235/326/193
f 235/326/193 259/360/193 283/390/193
f 283/390/193 43/66/193 91/130/193
f 91/130/193 139/196/193 187/261/193
f 187/261/193 235/326/193 283/390/193
f 5/7/194 11/9/194 8/14/194
f 287/386/195 5/7/195 2/1/195
f 16/20/196 10/11/196 4/392/196
f 4/392/196 286/387/196 280/379/196
f 280/379/196 274/371/196 268/364/196
f 268/364/196 262/356/196 256/345/196
f 256/345/196 250/337/196 244/329/196
f 244/329/261 238/322/261 232/314/261
f 232/314/262 226/305/262 220/298/262
f 220/298/262 214/289/262 208/281/262
f 208/281/261 202/273/261 196/266/261
f 196/266/196 190/256/196 184/247/196
f 184/247/196 178/239/196 172/231/196
f 172/231/196 166/224/196 160/216/196
f 160/216/196 154/207/196 148/200/196
f 148/200/196 142/191/196 136/183/196
f 136/183/196 130/175/196 124/168/196
f 124/168/196 118/158/196 112/149/196
f 112/149/196 106/141/196 100/133/196
f 100/133/262 94/126/262 88/118/262
f 88/118/261 82/109/261 76/102/261
f 76/102/261 70/93/261 64/85/261
f 64/85/262 58/77/262 52/70/262
f 52/70/196 46/62/196 40/51/196
f 40/51/196 34/43/196 28/35/196
f 28/35/196 22/28/196 16/20/196
f 16/20/196 4/392/196 280/379/196
f 280/379/196 268/364/196 256/345/196
f 256/345/196 244/329/196 232/314/196
f 232/314/196 220/298/196 208/281/196
f 208/281/196 196/266/196 184/247/196
f 184/247/196 172/231/196 160/216/196
f 160/216/196 148/200/196 136/183/196
f 136/183/196 124/168/196 112/149/196
f 112/149/196 100/133/196 88/118/196
f 88/118/196 76/102/196 64/85/196
f 64/85/196 52/70/196 40/51/196
f 40/51/196 28/35/196 16/20/196
f 16/20/196 280/379/196 256/345/196
f 256/345/196 232/314/196 208/281/196
f 208/281/196 184/247/196 160/216/196
f 160/216/196 136/183/196 112/149/196
f 112/149/196 88/118/196 64/85/196
f 64/85/196 40/51/196 16/20/196
f 16/20/196 256/345/196 208/281/196
f 208/281/196 160/216/196 112/149/196
f 112/149/196 64/85/196 16/20/196
f 11/9/197 17/18/197 14/13/197
f 17/18/198 23/25/198 20/21/198
f 23/25/199 29/34/199 26/29/199
f 29/34/200 35/42/200 32/45/200
f 35/42/201 41/50/201 38/393/201
f 41/394/202 47/58/202 44/53/202
f 47/58/203 53/67/203 50/63/203
f 53/67/204 59/76/204 56/71/204
f 59/76/205 65/84/205 62/88/205
f 65/84/206 71/92/206 68/87/206
f 71/92/207 77/100/207 74/103/207
f 77/100/208 83/108/208 80/112/208
f 83/108/209 89/116/209 86/111/209
f 89/116/210 95/123/210 92/119/210
f 95/123/211 101/132/211 98/127/211
f 101/132/212 107/140/212 104/143/212
f 107/140/213 113/148/213 110/152/213
f 113/148/214 119/155/214 116/151/214
f 119/395/215 125/164/215 122/159/215
f 125/164/216 131/174/216 128/169/216
f 131/174/217 137/182/217 134/186/217
f 137/182/218 143/190/218 140/185/218
f 143/190/219 149/198/219 146/201/219
f 149/198/220 155/206/220 152/210/220
f 155/206/221 161/214/221 158/209/221
f 161/214/222 167/221/222 164/217/222
f 167/221/223 173/230/223 170/225/223
f 173/230/224 179/238/224 176/241/224
f 179/238/225 185/246/225 182/250/225
f 185/246/226 191/253/226 188/249/226
f 191/396/227 197/262/227 194/257/227
f 197/262/228 203/272/228 200/267/228
f 203/272/229 209/280/229 206/284/229
f 209/280/230 215/288/230 212/283/230
f 215/288/231 221/296/231 218/299/231
f 221/296/232 227/304/232 224/308/232
f 227/304/233 233/312/233 230/307/233
f 233/312/234 239/319/234 236/315/234
f 239/319/235 245/328/235 242/323/235
f 245/328/236 251/336/236 248/339/236
f 251/336/237 257/344/237 254/397/237
f 257/398/238 263/352/238 260/347/238
f 263/352/239 269/361/239 266/357/239
f 269/361/240 275/370/240 272/365/240
f 275/370/241 281/378/241 278/382/241
f 281/378/242 287/386/242 284/381/242
