# Blender 4.5.11 LTS
# www.blender.org
mtllib visual.mtl
o sharpening_stone.001
v -0.049200 -0.011700 0.000000
v -0.049200 -0.012500 0.000800
v -0.050000 -0.011700 0.000800
v -0.049200 -0.012099 0.000107
v -0.049599 -0.011700 0.000107
v -0.049583 -0.012083 0.000211
v -0.049599 -0.012393 0.000800
v -0.049200 -0.012393 0.000401
v -0.049583 -0.012289 0.000417
v -0.049893 -0.011700 0.000401
v -0.049893 -0.012099 0.000800
v -0.049789 -0.012083 0.000417
v -0.049200 -0.012500 0.009200
v -0.049200 -0.011700 0.010000
v -0.050000 -0.011700 0.009200
v -0.049200 -0.012393 0.009599
v -0.049599 -0.012393 0.009200
v -0.049583 -0.012289 0.009583
v -0.049599 -0.011700 0.009893
v -0.049200 -0.012099 0.009893
v -0.049583 -0.012083 0.009789
v -0.049893 -0.012099 0.009200
v -0.049893 -0.011700 0.009599
v -0.049789 -0.012083 0.009583
v -0.049200 0.011700 0.000000
v -0.050000 0.011700 0.000800
v -0.049200 0.012500 0.000800
v -0.049599 0.011700 0.000107
v -0.049200 0.012099 0.000107
v -0.049583 0.012083 0.000211
v -0.049893 0.012099 0.000800
v -0.049893 0.011700 0.000401
v -0.049789 0.012083 0.000417
v -0.049200 0.012393 0.000401
v -0.049599 0.012393 0.000800
v -0.049583 0.012289 0.000417
v -0.049200 0.011700 0.010000
v -0.049200 0.012500 0.009200
v -0.050000 0.011700 0.009200
v -0.049200 0.012099 0.009893
v -0.049599 0.011700 0.009893
v -0.049583 0.012083 0.009789
v -0.049599 0.012393 0.009200
v -0.049200 0.012393 0.009599
v -0.049583 0.012289 0.009583
v -0.049893 0.011700 0.009599
v -0.049893 0.012099 0.009200
v -0.049789 0.012083 0.009583
v 0.049200 -0.011700 0.000000
v 0.050000 -0.011700 0.000800
v 0.049200 -0.012500 0.000800
v 0.049599 -0.011700 0.000107
v 0.049200 -0.012099 0.000107
v 0.049583 -0.012083 0.000211
v 0.049893 -0.012099 0.000800
v 0.049893 -0.011700 0.000401
v 0.049789 -0.012083 0.000417
v 0.049200 -0.012393 0.000401
v 0.049599 -0.012393 0.000800
v 0.049583 -0.012289 0.000417
v 0.049200 -0.011700 0.010000
v 0.049200 -0.012500 0.009200
v 0.050000 -0.011700 0.009200
v 0.049200 -0.012099 0.009893
v 0.049599 -0.011700 0.009893
v 0.049583 -0.012083 0.009789
v 0.049599 -0.012393 0.009200
v 0.049200 -0.012393 0.009599
v 0.049583 -0.012289 0.009583
v 0.049893 -0.011700 0.009599
v 0.049893 -0.012099 0.009200
v 0.049789 -0.012083 0.009583
v 0.049200 0.011700 0.000000
v 0.049200 0.012500 0.000800
v 0.050000 0.011700 0.000800
v 0.049200 0.012099 0.000107
v 0.049599 0.011700 0.000107
v 0.049583 0.012083 0.000211
v 0.049599 0.012393 0.000800
v 0.049200 0.012393 0.000401
v 0.049583 0.012289 0.000417
v 0.049893 0.011700 0.000401
v 0.049893 0.012099 0.000800
v 0.049789 0.012083 0.000417
v 0.049200 0.011700 0.010000
v 0.050000 0.011700 0.009200
v 0.049200 0.012500 0.009200
v 0.049599 0.011700 0.009893
v 0.049200 0.012099 0.009893
v 0.049583 0.012083 0.009789
v 0.049893 0.012099 0.009200
v 0.049893 0.011700 0.009599
v 0.049789 0.012083 0.009583
v 0.049200 0.012393 0.009599
v 0.049599 0.012393 0.009200
v 0.049583 0.012289 0.009583
vn -0.2502 -0.2502 -0.9353
vn -0.2178 -0.6901 -0.6901
vn -0.2502 -0.9353 -0.2502
vn -0.6901 -0.6901 -0.2178
vn -0.9353 -0.2502 -0.2502
vn -0.6901 -0.2178 -0.6901
vn -0.5774 -0.5773 -0.5774
vn -0.2502 -0.9353 0.2502
vn -0.2178 -0.6901 0.6901
vn -0.2502 -0.2502 0.9353
vn -0.6901 -0.2178 0.6901
vn -0.9353 -0.2502 0.2502
vn -0.6901 -0.6901 0.2178
vn -0.5774 -0.5773 0.5774
vn -0.2502 0.2502 -0.9353
vn -0.6901 0.2178 -0.6901
vn -0.9353 0.2502 -0.2502
vn -0.6901 0.6901 -0.2178
vn -0.2502 0.9353 -0.2502
vn -0.2178 0.6901 -0.6901
vn -0.5774 0.5773 -0.5774
vn -0.2502 0.2502 0.9353
vn -0.2178 0.6901 0.6901
vn -0.2502 0.9353 0.2502
vn -0.6901 0.6901 0.2178
vn -0.9353 0.2502 0.2502
vn -0.6901 0.2178 0.6901
vn -0.5774 0.5773 0.5774
vn 0.2502 -0.2502 -0.9353
vn 0.6901 -0.2178 -0.6901
vn 0.9353 -0.2502 -0.2502
vn 0.6901 -0.6901 -0.2178
vn 0.2502 -0.9353 -0.2502
vn 0.2178 -0.6901 -0.6901
vn 0.5774 -0.5773 -0.5774
vn 0.2502 -0.2502 0.9353
vn 0.2178 -0.6901 0.6901
vn 0.2502 -0.9353 0.2502
vn 0.6901 -0.6901 0.2178
vn 0.9353 -0.2502 0.2502
vn 0.6901 -0.2178 0.6901
vn 0.5774 -0.5773 0.5774
vn 0.2502 0.2502 -0.9353
vn 0.2178 0.6901 -0.6901
vn 0.2502 0.9353 -0.2502
vn 0.6901 0.6901 -0.2178
vn 0.9353 0.2502 -0.2502
vn 0.6901 0.2178 -0.6901
vn 0.5774 0.5773 -0.5774
vn 0.2502 0.2502 0.9353
vn 0.6901 0.2178 0.6901
vn 0.9353 0.2502 0.2502
vn 0.6901 0.6901 0.2178
vn 0.2502 0.9353 0.2502
vn 0.2178 0.6901 0.6901
vn 0.5774 0.5773 0.5774
vn -0.2585 -0.0000 -0.9660
vn -0.7071 -0.0000 -0.7071
vn -0.9660 -0.0000 -0.2584
vn -0.2585 -0.9660 -0.0000
vn -0.7071 -0.7071 -0.0000
vn -0.9660 -0.2584 -0.0000
vn -0.2585 -0.0000 0.9660
vn -0.7071 -0.0000 0.7071
vn -0.9660 -0.0000 0.2584
vn -0.2585 0.9660 -0.0000
vn -0.7071 0.7071 -0.0000
vn -0.9660 0.2584 -0.0000
vn -0.0000 0.2585 -0.9660
vn -0.0000 0.7071 -0.7071
vn -0.0000 0.9660 -0.2585
vn -0.0000 0.2585 0.9660
vn -0.0000 0.7071 0.7071
vn -0.0000 0.9660 0.2585
vn 0.9660 0.2585 -0.0000
vn 0.7071 0.7071 -0.0000
vn 0.2585 0.9660 -0.0000
vn 0.2585 -0.0000 -0.9660
vn 0.7071 -0.0000 -0.7071
vn 0.9660 -0.0000 -0.2584
vn 0.2585 -0.0000 0.9660
vn 0.7071 -0.0000 0.7071
vn 0.9660 -0.0000 0.2584
vn 0.2585 -0.9660 -0.0000
vn 0.7071 -0.7071 -0.0000
vn 0.9660 -0.2584 -0.0000
vn -0.0000 -0.2585 -0.9660
vn -0.0000 -0.7071 -0.7071
vn -0.0000 -0.9660 -0.2585
vn -0.0000 -0.2585 0.9660
vn -0.0000 -0.7071 0.7071
vn -0.0000 -0.9660 0.2585
vn -0.0000 -0.0000 -1.0000
vn -1.0000 -0.0000 -0.0000
vn -0.0000 -1.0000 -0.0000
vn -0.0000 -0.0000 1.0000
vn -0.0000 1.0000 -0.0000
vn 1.0000 -0.0000 -0.0000
vn -0.2635 -0.2635 -0.9280
vn -0.2635 -0.9280 -0.2635
vn -0.9280 -0.2635 -0.2635
vn -0.2635 -0.9280 0.2635
vn -0.2635 -0.2635 0.9280
vn -0.9280 -0.2635 0.2635
vn -0.2635 0.2635 -0.9280
vn -0.9280 0.2635 -0.2635
vn -0.2635 0.9280 -0.2635
vn -0.2635 0.2635 0.9280
vn -0.2635 0.9280 0.2635
vn -0.9280 0.2635 0.2635
vn 0.2635 -0.2635 -0.9280
vn 0.9280 -0.2635 -0.2635
vn 0.2635 -0.9280 -0.2635
vn 0.2635 -0.2635 0.9280
vn 0.2635 -0.9280 0.2635
vn 0.9280 -0.2635 0.2635
vn 0.2635 0.2635 -0.9280
vn 0.2635 0.9280 -0.2635
vn 0.9280 0.2635 -0.2635
vn 0.2635 0.2635 0.9280
vn 0.9280 0.2635 0.2635
vn 0.2635 0.9280 0.2635
vn -0.9660 -0.2585 -0.0000
vn -0.9660 0.2585 -0.0000
vn -0.0000 0.9660 -0.2584
vn -0.0000 0.9660 0.2584
vn 0.9660 0.2584 -0.0000
vn 0.9660 -0.2585 -0.0000
vn -0.0000 -0.9660 -0.2584
vn -0.0000 -0.9660 0.2584
vt -0.115000 0.348757
vt -0.119994 0.353750
vt -0.115000 0.353750
vt -0.115000 0.345086
vt -0.119782 0.348968
vt -0.119994 0.447500
vt -0.115000 0.442507
vt -0.115000 0.447500
vt 0.348757 0.447500
vt 0.346384 0.442718
vt 0.345086 0.447500
vt 0.353750 0.442507
vt 0.353750 0.447500
vt 0.348968 0.440134
vt 0.348968 0.442718
vt -0.115000 0.557493
vt -0.119994 0.552500
vt -0.115000 0.552500
vt -0.119782 0.346384
vt 0.353750 0.557493
vt 0.348968 0.559866
vt 0.353750 0.561164
vt 0.348757 0.552500
vt 0.353750 0.552500
vt 0.346384 0.557282
vt 0.348968 0.557282
vt -0.119994 0.646250
vt -0.115000 0.651243
vt -0.115000 0.646250
vt 0.646250 0.442507
vt 0.651032 0.440134
vt 0.646250 0.438836
vt 0.651243 0.447500
vt 0.646250 0.447500
vt 0.653616 0.442718
vt 0.651032 0.442718
vt -0.115000 0.654914
vt -0.119782 0.651032
vt -0.119782 0.653616
vt 0.651243 0.552500
vt 0.653616 0.557282
vt 0.654914 0.552500
vt 0.646250 0.557493
vt 0.646250 0.552500
vt 0.651032 0.559866
vt 0.651032 0.557282
vt 1.119993 0.353750
vt 1.115000 0.348757
vt 1.115000 0.353750
vt 0.353750 0.438836
vt 1.115000 0.442507
vt 1.119993 0.447500
vt 1.115000 0.447500
vt 1.115000 0.345086
vt 1.119782 0.348968
vt 1.119782 0.346384
vt 1.119993 0.552500
vt 1.115000 0.557493
vt 1.115000 0.552500
vt 0.345086 0.552500
vt 1.115000 0.651243
vt 1.119993 0.646250
vt 1.115000 0.646250
vt 1.115000 0.654914
vt 1.119782 0.651032
vt 0.654914 0.447500
vt 0.646250 0.561164
vt 1.119782 0.653616
vt -0.119782 0.442718
vt -0.119782 0.557282
vt 1.119782 0.442718
vt 1.119782 0.557282
s 0
usemtl ARAT_sharpening_stone
f 4/1/1 5/2/1 1/3/1
f 8/4/2 6/5/2 4/1/2
f 7/6/3 8/7/3 2/8/3
f 11/9/4 9/10/4 7/11/4
f 10/12/5 11/9/5 3/13/5
f 10/12/6 6/14/6 12/15/6
f 6/14/7 9/10/7 12/15/7
f 16/16/8 17/17/8 13/18/8
f 16/4/9 21/5/9 18/19/9
f 19/2/10 20/1/10 14/3/10
f 23/20/11 21/21/11 19/22/11
f 22/23/12 23/20/12 15/24/12
f 22/23/13 18/25/13 24/26/13
f 18/25/14 21/21/14 24/26/14
f 28/27/15 29/28/15 25/29/15
f 32/30/16 30/31/16 28/32/16
f 31/33/17 32/30/17 26/34/17
f 31/33/18 36/35/18 33/36/18
f 34/7/19 35/6/19 27/8/19
f 34/37/20 30/38/20 36/39/20
f 30/31/21 33/36/21 36/35/21
f 40/28/22 41/27/22 37/29/22
f 44/37/23 42/38/23 40/28/23
f 43/17/24 44/16/24 38/18/24
f 47/40/25 45/41/25 43/42/25
f 46/43/26 47/40/26 39/44/26
f 46/43/27 42/45/27 48/46/27
f 42/45/28 45/41/28 48/46/28
f 52/47/29 53/48/29 49/49/29
f 56/12/30 54/14/30 52/50/30
f 55/9/31 56/12/31 50/13/31
f 55/9/32 60/10/32 57/15/32
f 58/51/33 59/52/33 51/53/33
f 58/54/34 54/55/34 60/56/34
f 54/14/35 57/15/35 60/10/35
f 64/48/36 65/47/36 61/49/36
f 68/54/37 66/55/37 64/48/37
f 67/57/38 68/58/38 62/59/38
f 71/23/39 69/25/39 67/60/39
f 70/20/40 71/23/40 63/24/40
f 70/20/41 66/21/41 72/26/41
f 66/21/42 69/25/42 72/26/42
f 76/61/43 77/62/43 73/63/43
f 80/64/44 78/65/44 76/61/44
f 79/52/45 80/51/45 74/53/45
f 83/33/46 81/35/46 79/66/46
f 82/30/47 83/33/47 75/34/47
f 82/30/48 78/31/48 84/36/48
f 78/31/49 81/35/49 84/36/49
f 88/62/50 89/61/50 85/63/50
f 92/43/51 90/45/51 88/67/51
f 91/40/52 92/43/52 86/44/52
f 91/40/53 96/41/53 93/46/53
f 94/58/54 95/57/54 87/59/54
f 94/64/55 90/65/55 96/68/55
f 90/45/56 93/46/56 96/41/56
f 1/3/57 28/27/57 25/29/57
f 5/50/58 32/30/58 28/32/58
f 10/12/59 26/34/59 32/30/59
f 13/18/60 7/6/60 2/8/60
f 17/60/61 11/9/61 7/11/61
f 22/23/62 3/13/62 11/9/62
f 37/29/63 19/2/63 14/3/63
f 41/67/64 23/20/64 19/22/64
f 46/43/65 15/24/65 23/20/65
f 27/8/66 43/17/66 38/18/66
f 35/66/67 47/40/67 43/42/67
f 31/33/68 39/44/68 47/40/68
f 25/29/69 76/61/69 73/63/69
f 29/28/70 80/64/70 76/61/70
f 34/7/71 74/53/71 80/51/71
f 85/63/72 40/28/72 37/29/72
f 89/61/73 44/37/73 40/28/73
f 94/58/74 38/18/74 44/16/74
f 75/34/75 91/40/75 86/44/75
f 83/33/76 95/42/76 91/40/76
f 79/52/77 87/59/77 95/57/77
f 73/63/78 52/47/78 49/49/78
f 77/32/79 56/12/79 52/50/79
f 82/30/80 50/13/80 56/12/80
f 61/49/81 88/62/81 85/63/81
f 65/22/82 92/43/82 88/67/82
f 70/20/83 86/44/83 92/43/83
f 51/53/84 67/57/84 62/59/84
f 59/11/85 71/23/85 67/60/85
f 55/9/86 63/24/86 71/23/86
f 49/49/87 4/1/87 1/3/87
f 53/48/88 8/4/88 4/1/88
f 58/51/89 2/8/89 8/7/89
f 14/3/90 64/48/90 61/49/90
f 20/1/91 68/54/91 64/48/91
f 16/16/92 62/59/92 68/58/92
f 73/63/93 1/3/93 25/29/93
f 15/24/94 26/34/94 3/13/94
f 62/59/95 2/8/95 51/53/95
f 37/29/96 61/49/96 85/63/96
f 38/18/97 74/53/97 27/8/97
f 86/44/98 50/13/98 75/34/98
f 4/1/99 6/5/99 5/2/99
f 8/4/2 9/19/2 6/5/2
f 7/6/100 9/69/100 8/7/100
f 11/9/4 12/15/4 9/10/4
f 10/12/101 12/15/101 11/9/101
f 10/12/6 5/50/6 6/14/6
f 16/16/102 18/70/102 17/17/102
f 16/4/9 20/1/9 21/5/9
f 19/2/103 21/5/103 20/1/103
f 23/20/11 24/26/11 21/21/11
f 22/23/104 24/26/104 23/20/104
f 22/23/13 17/60/13 18/25/13
f 28/27/105 30/38/105 29/28/105
f 32/30/16 33/36/16 30/31/16
f 31/33/106 33/36/106 32/30/106
f 31/33/18 35/66/18 36/35/18
f 34/7/107 36/69/107 35/6/107
f 34/37/20 29/28/20 30/38/20
f 40/28/108 42/38/108 41/27/108
f 44/37/23 45/39/23 42/38/23
f 43/17/109 45/70/109 44/16/109
f 47/40/25 48/46/25 45/41/25
f 46/43/110 48/46/110 47/40/110
f 46/43/27 41/67/27 42/45/27
f 52/47/111 54/55/111 53/48/111
f 56/12/30 57/15/30 54/14/30
f 55/9/112 57/15/112 56/12/112
f 55/9/32 59/11/32 60/10/32
f 58/51/113 60/71/113 59/52/113
f 58/54/34 53/48/34 54/55/34
f 64/48/114 66/55/114 65/47/114
f 68/54/37 69/56/37 66/55/37
f 67/57/115 69/72/115 68/58/115
f 71/23/39 72/26/39 69/25/39
f 70/20/116 72/26/116 71/23/116
f 70/20/41 65/22/41 66/21/41
f 76/61/117 78/65/117 77/62/117
f 80/64/44 81/68/44 78/65/44
f 79/52/118 81/71/118 80/51/118
f 83/33/46 84/36/46 81/35/46
f 82/30/119 84/36/119 83/33/119
f 82/30/48 77/32/48 78/31/48
f 88/62/120 90/65/120 89/61/120
f 92/43/51 93/46/51 90/45/51
f 91/40/121 93/46/121 92/43/121
f 91/40/53 95/42/53 96/41/53
f 94/58/122 96/72/122 95/57/122
f 94/64/55 89/61/55 90/65/55
f 1/3/57 5/2/57 28/27/57
f 5/50/58 10/12/58 32/30/58
f 10/12/59 3/13/59 26/34/59
f 13/18/60 17/17/60 7/6/60
f 17/60/61 22/23/61 11/9/61
f 22/23/123 15/24/123 3/13/123
f 37/29/63 41/27/63 19/2/63
f 41/67/64 46/43/64 23/20/64
f 46/43/65 39/44/65 15/24/65
f 27/8/66 35/6/66 43/17/66
f 35/66/67 31/33/67 47/40/67
f 31/33/124 26/34/124 39/44/124
f 25/29/69 29/28/69 76/61/69
f 29/28/70 34/37/70 80/64/70
f 34/7/125 27/8/125 74/53/125
f 85/63/72 89/61/72 40/28/72
f 89/61/73 94/64/73 44/37/73
f 94/58/126 87/59/126 38/18/126
f 75/34/127 83/33/127 91/40/127
f 83/33/76 79/66/76 95/42/76
f 79/52/77 74/53/77 87/59/77
f 73/63/78 77/62/78 52/47/78
f 77/32/79 82/30/79 56/12/79
f 82/30/80 75/34/80 50/13/80
f 61/49/81 65/47/81 88/62/81
f 65/22/82 70/20/82 92/43/82
f 70/20/83 63/24/83 86/44/83
f 51/53/84 59/52/84 67/57/84
f 59/11/85 55/9/85 71/23/85
f 55/9/128 50/13/128 63/24/128
f 49/49/87 53/48/87 4/1/87
f 53/48/88 58/54/88 8/4/88
f 58/51/129 51/53/129 2/8/129
f 14/3/90 20/1/90 64/48/90
f 20/1/91 16/4/91 68/54/91
f 16/16/130 13/18/130 62/59/130
f 73/63/93 49/49/93 1/3/93
f 15/24/94 39/44/94 26/34/94
f 62/59/95 13/18/95 2/8/95
f 37/29/96 14/3/96 61/49/96
f 38/18/97 87/59/97 74/53/97
f 86/44/98 63/24/98 50/13/98
