# Blender 4.5.11 LTS
# www.blender.org
mtllib visual.mtl
o small_alloy_tube
v 0.005000 0.000000 0.000000
v 0.004976 0.000490 0.000000
v 0.004904 0.000975 0.000000
v 0.004785 0.001451 0.000000
v 0.004619 0.001913 0.000000
v 0.004410 0.002357 0.000000
v 0.004157 0.002778 0.000000
v 0.003865 0.003172 0.000000
v 0.003536 0.003536 0.000000
v 0.003172 0.003865 0.000000
v 0.002778 0.004157 0.000000
v 0.002357 0.004410 0.000000
v 0.001913 0.004619 0.000000
v 0.001451 0.004785 0.000000
v 0.000975 0.004904 0.000000
v 0.000490 0.004976 0.000000
v 0.000000 0.005000 0.000000
v -0.000490 0.004976 0.000000
v -0.000975 0.004904 0.000000
v -0.001451 0.004785 0.000000
v -0.001913 0.004619 0.000000
v -0.002357 0.004410 0.000000
v -0.002778 0.004157 0.000000
v -0.003172 0.003865 0.000000
v -0.003536 0.003536 0.000000
v -0.003865 0.003172 0.000000
v -0.004157 0.002778 0.000000
v -0.004410 0.002357 0.000000
v -0.004619 0.001913 0.000000
v -0.004785 0.001451 0.000000
v -0.004904 0.000975 0.000000
v -0.004976 0.000490 0.000000
v -0.005000 0.000000 0.000000
v -0.004976 -0.000490 0.000000
v -0.004904 -0.000975 0.000000
v -0.004785 -0.001451 0.000000
v -0.004619 -0.001913 0.000000
v -0.004410 -0.002357 0.000000
v -0.004157 -0.002778 0.000000
v -0.003865 -0.003172 0.000000
v -0.003536 -0.003536 0.000000
v -0.003172 -0.003865 0.000000
v -0.002778 -0.004157 0.000000
v -0.002357 -0.004410 0.000000
v -0.001913 -0.004619 0.000000
v -0.001451 -0.004785 0.000000
v -0.000975 -0.004904 0.000000
v -0.000490 -0.004976 0.000000
v -0.000000 -0.005000 0.000000
v 0.000490 -0.004976 0.000000
v 0.000975 -0.004904 0.000000
v 0.001451 -0.004785 0.000000
v 0.001913 -0.004619 0.000000
v 0.002357 -0.004410 0.000000
v 0.002778 -0.004157 0.000000
v 0.003172 -0.003865 0.000000
v 0.003536 -0.003536 0.000000
v 0.003865 -0.003172 0.000000
v 0.004157 -0.002778 0.000000
v 0.004410 -0.002357 0.000000
v 0.004619 -0.001913 0.000000
v 0.004785 -0.001451 0.000000
v 0.004904 -0.000975 0.000000
v 0.004976 -0.000490 0.000000
v 0.004700 0.000000 0.000000
v 0.004677 0.000461 0.000000
v 0.004610 0.000917 0.000000
v 0.004498 0.001364 0.000000
v 0.004342 0.001799 0.000000
v 0.004145 0.002216 0.000000
v 0.003908 0.002611 0.000000
v 0.003633 0.002982 0.000000
v 0.003323 0.003323 0.000000
v 0.002982 0.003633 0.000000
v 0.002611 0.003908 0.000000
v 0.002216 0.004145 0.000000
v 0.001799 0.004342 0.000000
v 0.001364 0.004498 0.000000
v 0.000917 0.004610 0.000000
v 0.000461 0.004677 0.000000
v 0.000000 0.004700 0.000000
v -0.000461 0.004677 0.000000
v -0.000917 0.004610 0.000000
v -0.001364 0.004498 0.000000
v -0.001799 0.004342 0.000000
v -0.002216 0.004145 0.000000
v -0.002611 0.003908 0.000000
v -0.002982 0.003633 0.000000
v -0.003323 0.003323 0.000000
v -0.003633 0.002982 0.000000
v -0.003908 0.002611 0.000000
v -0.004145 0.002216 0.000000
v -0.004342 0.001799 0.000000
v -0.004498 0.001364 0.000000
v -0.004610 0.000917 0.000000
v -0.004677 0.000461 0.000000
v -0.004700 0.000000 0.000000
v -0.004677 -0.000461 0.000000
v -0.004610 -0.000917 0.000000
v -0.004498 -0.001364 0.000000
v -0.004342 -0.001799 0.000000
v -0.004145 -0.002216 0.000000
v -0.003908 -0.002611 0.000000
v -0.003633 -0.002982 0.000000
v -0.003323 -0.003323 0.000000
v -0.002982 -0.003633 0.000000
v -0.002611 -0.003908 0.000000
v -0.002216 -0.004145 0.000000
v -0.001799 -0.004342 0.000000
v -0.001364 -0.004498 0.000000
v -0.000917 -0.004610 0.000000
v -0.000461 -0.004677 0.000000
v -0.000000 -0.004700 0.000000
v 0.000461 -0.004677 0.000000
v 0.000917 -0.004610 0.000000
v 0.001364 -0.004498 0.000000
v 0.001799 -0.004342 0.000000
v 0.002216 -0.004145 0.000000
v 0.002611 -0.003908 0.000000
v 0.002982 -0.003633 0.000000
v 0.003323 -0.003323 0.000000
v 0.003633 -0.002982 0.000000
v 0.003908 -0.002611 0.000000
v 0.004145 -0.002216 0.000000
v 0.004342 -0.001799 0.000000
v 0.004498 -0.001364 0.000000
v 0.004610 -0.000917 0.000000
v 0.004677 -0.000461 0.000000
v 0.005000 0.000000 0.160000
v 0.004976 0.000490 0.160000
v 0.004904 0.000975 0.160000
v 0.004785 0.001451 0.160000
v 0.004619 0.001913 0.160000
v 0.004410 0.002357 0.160000
v 0.004157 0.002778 0.160000
v 0.003865 0.003172 0.160000
v 0.003536 0.003536 0.160000
v 0.003172 0.003865 0.160000
v 0.002778 0.004157 0.160000
v 0.002357 0.004410 0.160000
v 0.001913 0.004619 0.160000
v 0.001451 0.004785 0.160000
v 0.000975 0.004904 0.160000
v 0.000490 0.004976 0.160000
v 0.000000 0.005000 0.160000
v -0.000490 0.004976 0.160000
v -0.000975 0.004904 0.160000
v -0.001451 0.004785 0.160000
v -0.001913 0.004619 0.160000
v -0.002357 0.004410 0.160000
v -0.002778 0.004157 0.160000
v -0.003172 0.003865 0.160000
v -0.003536 0.003536 0.160000
v -0.003865 0.003172 0.160000
v -0.004157 0.002778 0.160000
v -0.004410 0.002357 0.160000
v -0.004619 0.001913 0.160000
v -0.004785 0.001451 0.160000
v -0.004904 0.000975 0.160000
v -0.004976 0.000490 0.160000
v -0.005000 0.000000 0.160000
v -0.004976 -0.000490 0.160000
v -0.004904 -0.000975 0.160000
v -0.004785 -0.001451 0.160000
v -0.004619 -0.001913 0.160000
v -0.004410 -0.002357 0.160000
v -0.004157 -0.002778 0.160000
v -0.003865 -0.003172 0.160000
v -0.003536 -0.003536 0.160000
v -0.003172 -0.003865 0.160000
v -0.002778 -0.004157 0.160000
v -0.002357 -0.004410 0.160000
v -0.001913 -0.004619 0.160000
v -0.001451 -0.004785 0.160000
v -0.000975 -0.004904 0.160000
v -0.000490 -0.004976 0.160000
v -0.000000 -0.005000 0.160000
v 0.000490 -0.004976 0.160000
v 0.000975 -0.004904 0.160000
v 0.001451 -0.004785 0.160000
v 0.001913 -0.004619 0.160000
v 0.002357 -0.004410 0.160000
v 0.002778 -0.004157 0.160000
v 0.003172 -0.003865 0.160000
v 0.003536 -0.003536 0.160000
v 0.003865 -0.003172 0.160000
v 0.004157 -0.002778 0.160000
v 0.004410 -0.002357 0.160000
v 0.004619 -0.001913 0.160000
v 0.004785 -0.001451 0.160000
v 0.004904 -0.000975 0.160000
v 0.004976 -0.000490 0.160000
v 0.004700 0.000000 0.160000
v 0.004677 0.000461 0.160000
v 0.004610 0.000917 0.160000
v 0.004498 0.001364 0.160000
v 0.004342 0.001799 0.160000
v 0.004145 0.002216 0.160000
v 0.003908 0.002611 0.160000
v 0.003633 0.002982 0.160000
v 0.003323 0.003323 0.160000
v 0.002982 0.003633 0.160000
v 0.002611 0.003908 0.160000
v 0.002216 0.004145 0.160000
v 0.001799 0.004342 0.160000
v 0.001364 0.004498 0.160000
v 0.000917 0.004610 0.160000
v 0.000461 0.004677 0.160000
v 0.000000 0.004700 0.160000
v -0.000461 0.004677 0.160000
v -0.000917 0.004610 0.160000
v -0.001364 0.004498 0.160000
v -0.001799 0.004342 0.160000
v -0.002216 0.004145 0.160000
v -0.002611 0.003908 0.160000
v -0.002982 0.003633 0.160000
v -0.003323 0.003323 0.160000
v -0.003633 0.002982 0.160000
v -0.003908 0.002611 0.160000
v -0.004145 0.002216 0.160000
v -0.004342 0.001799 0.160000
v -0.004498 0.001364 0.160000
v -0.004610 0.000917 0.160000
v -0.004677 0.000461 0.160000
v -0.004700 0.000000 0.160000
v -0.004677 -0.000461 0.160000
v -0.004610 -0.000917 0.160000
v -0.004498 -0.001364 0.160000
v -0.004342 -0.001799 0.160000
v -0.004145 -0.002216 0.160000
v -0.003908 -0.002611 0.160000
v -0.003633 -0.002982 0.160000
v -0.003323 -0.003323 0.160000
v -0.002982 -0.003633 0.160000
v -0.002611 -0.003908 0.160000
v -0.002216 -0.004145 0.160000
v -0.001799 -0.004342 0.160000
v -0.001364 -0.004498 0.160000
v -0.000917 -0.004610 0.160000
v -0.000461 -0.004677 0.160000
v -0.000000 -0.004700 0.160000
v 0.000461 -0.004677 0.160000
v 0.000917 -0.004610 0.160000
v 0.001364 -0.004498 0.160000
v 0.001799 -0.004342 0.160000
v 0.002216 -0.004145 0.160000
v 0.002611 -0.003908 0.160000
v 0.002982 -0.003633 0.160000
v 0.003323 -0.003323 0.160000
v 0.003633 -0.002982 0.160000
v 0.003908 -0.002611 0.160000
v 0.004145 -0.002216 0.160000
v 0.004342 -0.001799 0.160000
v 0.004498 -0.001364 0.160000
v 0.004610 -0.000917 0.160000
v 0.004677 -0.000461 0.160000
vn 0.9988 0.0491 -0.0000
vn -0.9988 -0.0491 -0.0000
vn -0.0000 -0.0000 1.0000
vn -0.0000 -0.0000 -1.0000
vn 0.9892 0.1467 -0.0000
vn -0.9892 -0.1467 -0.0000
vn -0.0001 -0.0000 1.0000
vn 0.9700 0.2430 -0.0000
vn -0.9700 -0.2430 -0.0000
vn 0.9415 0.3369 -0.0000
vn -0.9415 -0.3369 -0.0000
vn 0.9040 0.4276 -0.0000
vn -0.9040 -0.4276 -0.0000
vn 0.8577 0.5141 -0.0000
vn -0.8577 -0.5141 -0.0000
vn 0.8032 0.5957 -0.0000
vn -0.8032 -0.5957 -0.0000
vn 0.7410 0.6716 -0.0000
vn -0.7410 -0.6716 -0.0000
vn 0.6716 0.7410 -0.0000
vn -0.6716 -0.7410 -0.0000
vn 0.5957 0.8032 -0.0000
vn -0.5957 -0.8032 -0.0000
vn 0.5141 0.8577 -0.0000
vn -0.5141 -0.8577 -0.0000
vn 0.4276 0.9040 -0.0000
vn -0.4276 -0.9040 -0.0000
vn 0.3369 0.9415 -0.0000
vn -0.3369 -0.9415 -0.0000
vn 0.2430 0.9700 -0.0000
vn -0.2430 -0.9700 -0.0000
vn 0.1467 0.9892 -0.0000
vn -0.1467 -0.9892 -0.0000
vn 0.0491 0.9988 -0.0000
vn -0.0491 -0.9988 -0.0000
vn -0.0491 0.9988 -0.0000
vn 0.0491 -0.9988 -0.0000
vn -0.1467 0.9892 -0.0000
vn 0.1467 -0.9892 -0.0000
vn -0.2430 0.9700 -0.0000
vn 0.2430 -0.9700 -0.0000
vn -0.3369 0.9415 -0.0000
vn 0.3369 -0.9415 -0.0000
vn -0.4276 0.9040 -0.0000
vn 0.4276 -0.9040 -0.0000
vn -0.5141 0.8577 -0.0000
vn 0.5141 -0.8577 -0.0000
vn -0.5957 0.8032 -0.0000
vn 0.5957 -0.8032 -0.0000
vn -0.6716 0.7410 -0.0000
vn 0.6716 -0.7410 -0.0000
vn -0.7410 0.6716 -0.0000
vn 0.7410 -0.6716 -0.0000
vn -0.8032 0.5957 -0.0000
vn 0.8032 -0.5957 -0.0000
vn -0.8577 0.5141 -0.0000
vn 0.8577 -0.5141 -0.0000
vn -0.9040 0.4276 -0.0000
vn 0.9040 -0.4276 -0.0000
vn -0.9415 0.3369 -0.0000
vn 0.9415 -0.3369 -0.0000
vn -0.9700 0.2430 -0.0000
vn 0.9700 -0.2430 -0.0000
vn 0.0001 -0.0000 1.0000
vn -0.9892 0.1467 -0.0000
vn 0.9892 -0.1467 -0.0000
vn -0.9988 0.0491 -0.0000
vn 0.9988 -0.0491 -0.0000
vt 0.008421 0.996465
vt 0.011106 0.003535
vt 0.011106 0.996465
vt 0.239188 0.996465
vt 0.241712 0.003535
vt 0.241712 0.996465
vt 0.441650 0.063742
vt 0.438284 0.062820
vt 0.441023 0.061989
vt 0.420743 0.074364
vt 0.418726 0.077213
vt 0.417930 0.075530
vt 0.005889 0.996465
vt 0.008421 0.003535
vt 0.244092 0.003535
vt 0.244092 0.996465
vt 0.438736 0.064626
vt 0.435477 0.063378
vt 0.416202 0.078562
vt 0.415245 0.076965
vt 0.003535 0.996465
vt 0.005889 0.003535
vt 0.246305 0.003535
vt 0.246305 0.996465
vt 0.432719 0.065518
vt 0.435750 0.065220
vt 0.412713 0.078657
vt 0.413822 0.080152
vt 0.096109 0.996465
vt 0.098262 0.003535
vt 0.098262 0.996465
vt 0.248329 0.003535
vt 0.248329 0.996465
vt 0.429674 0.065518
vt 0.432628 0.063659
vt 0.410359 0.080589
vt 0.411609 0.081968
vt 0.093755 0.996465
vt 0.096109 0.003535
vt 0.255398 0.996465
vt 0.257611 0.003535
vt 0.257611 0.996465
vt 0.426644 0.065220
vt 0.429766 0.063659
vt 0.408206 0.082742
vt 0.409585 0.083992
vt 0.091224 0.996465
vt 0.093755 0.003535
vt 0.259991 0.003535
vt 0.259991 0.996465
vt 0.424110 0.062820
vt 0.426917 0.063378
vt 0.407769 0.086205
vt 0.406274 0.085096
vt 0.088538 0.996465
vt 0.091224 0.003535
vt 0.262515 0.003535
vt 0.262515 0.996465
vt 0.420743 0.063742
vt 0.423657 0.064626
vt 0.406179 0.088585
vt 0.404582 0.087628
vt 0.085725 0.996465
vt 0.088538 0.003535
vt 0.265160 0.003535
vt 0.265160 0.996465
vt 0.417930 0.062577
vt 0.421371 0.061989
vt 0.403147 0.090313
vt 0.404830 0.091109
vt 0.082811 0.996465
vt 0.085725 0.003535
vt 0.267899 0.003535
vt 0.267899 0.996465
vt 0.416202 0.059544
vt 0.418726 0.060894
vt 0.403735 0.093754
vt 0.401982 0.093126
vt 0.079824 0.996465
vt 0.082811 0.003535
vt 0.270706 0.003535
vt 0.270706 0.996465
vt 0.412713 0.059449
vt 0.415245 0.061141
vt 0.402904 0.096493
vt 0.401098 0.096040
vt 0.076794 0.996465
vt 0.079824 0.003535
vt 0.273555 0.003535
vt 0.273555 0.996465
vt 0.410359 0.057518
vt 0.413822 0.057954
vt 0.400504 0.099027
vt 0.402345 0.099300
vt 0.073749 0.996465
vt 0.076794 0.003535
vt 0.276417 0.003535
vt 0.276417 0.996465
vt 0.409585 0.054114
vt 0.411609 0.056138
vt 0.402065 0.102149
vt 0.400205 0.102057
vt 0.070718 0.996465
vt 0.073749 0.003535
vt 0.279266 0.003535
vt 0.279266 0.996465
vt 0.408206 0.055364
vt 0.407769 0.051902
vt 0.402065 0.105011
vt 0.400205 0.105102
vt 0.067732 0.996465
vt 0.070718 0.003535
vt 0.282073 0.003535
vt 0.282073 0.996465
vt 0.406274 0.053011
vt 0.406179 0.049522
vt 0.402345 0.107859
vt 0.400504 0.108133
vt 0.064818 0.996465
vt 0.067732 0.003535
vt 0.284812 0.003535
vt 0.284812 0.996465
vt 0.403147 0.047793
vt 0.404582 0.050479
vt 0.401098 0.111119
vt 0.402904 0.110667
vt 0.062005 0.996465
vt 0.064818 0.003535
vt 0.287457 0.003535
vt 0.287457 0.996465
vt 0.401982 0.044980
vt 0.404830 0.046997
vt 0.401982 0.114033
vt 0.403735 0.113406
vt 0.059319 0.996465
vt 0.062005 0.003535
vt 0.289981 0.003535
vt 0.289981 0.996465
vt 0.402904 0.041614
vt 0.403735 0.044353
vt 0.404830 0.116050
vt 0.403147 0.116846
vt 0.056787 0.996465
vt 0.059319 0.003535
vt 0.292361 0.003535
vt 0.292361 0.996465
vt 0.401098 0.042066
vt 0.402345 0.038806
vt 0.406179 0.118575
vt 0.404582 0.119532
vt 0.054434 0.996465
vt 0.056787 0.003535
vt 0.294574 0.003535
vt 0.294574 0.996465
vt 0.400205 0.036049
vt 0.400504 0.039079
vt 0.406274 0.122064
vt 0.407769 0.120955
vt 0.147008 0.996465
vt 0.149161 0.003535
vt 0.149161 0.996465
vt 0.296598 0.003535
vt 0.296598 0.996465
vt 0.400205 0.033004
vt 0.402065 0.035958
vt 0.408206 0.124418
vt 0.409585 0.123167
vt 0.144654 0.996465
vt 0.147008 0.003535
vt 0.303667 0.996465
vt 0.305880 0.003535
vt 0.305880 0.996465
vt 0.400504 0.029974
vt 0.402065 0.033095
vt 0.410359 0.126571
vt 0.411609 0.125191
vt 0.142122 0.996465
vt 0.144654 0.003535
vt 0.308260 0.003535
vt 0.308260 0.996465
vt 0.402904 0.027440
vt 0.402345 0.030247
vt 0.413822 0.127007
vt 0.412713 0.128503
vt 0.139437 0.996465
vt 0.142122 0.003535
vt 0.310784 0.003535
vt 0.310784 0.996465
vt 0.401982 0.024073
vt 0.401098 0.026987
vt 0.416202 0.128597
vt 0.415245 0.130194
vt 0.136623 0.996465
vt 0.139437 0.003535
vt 0.313429 0.003535
vt 0.313429 0.996465
vt 0.403147 0.021260
vt 0.403735 0.024700
vt 0.417930 0.131630
vt 0.418726 0.129947
vt 0.133709 0.996465
vt 0.136623 0.003535
vt 0.316168 0.003535
vt 0.316168 0.996465
vt 0.406179 0.019532
vt 0.404830 0.022056
vt 0.421371 0.131042
vt 0.420743 0.132795
vt 0.130723 0.996465
vt 0.133709 0.003535
vt 0.318975 0.003535
vt 0.318975 0.996465
vt 0.406274 0.016043
vt 0.404582 0.018574
vt 0.424110 0.131873
vt 0.423657 0.133679
vt 0.127693 0.996465
vt 0.130723 0.003535
vt 0.321824 0.003535
vt 0.321824 0.996465
vt 0.408206 0.013689
vt 0.407769 0.017152
vt 0.426644 0.134273
vt 0.426917 0.132431
vt 0.124648 0.996465
vt 0.127693 0.003535
vt 0.324686 0.003535
vt 0.324686 0.996465
vt 0.411609 0.012915
vt 0.409585 0.014939
vt 0.429766 0.132712
vt 0.429674 0.134571
vt 0.121617 0.996465
vt 0.124648 0.003535
vt 0.327535 0.003535
vt 0.327535 0.996465
vt 0.410359 0.011536
vt 0.413822 0.011099
vt 0.432628 0.132712
vt 0.432719 0.134571
vt 0.118631 0.996465
vt 0.121617 0.003535
vt 0.330342 0.003535
vt 0.330342 0.996465
vt 0.412713 0.009604
vt 0.416202 0.009509
vt 0.435477 0.132431
vt 0.435750 0.134273
vt 0.115717 0.996465
vt 0.118631 0.003535
vt 0.333081 0.003535
vt 0.333081 0.996465
vt 0.417930 0.006477
vt 0.415245 0.007912
vt 0.438736 0.133679
vt 0.438284 0.131873
vt 0.112903 0.996465
vt 0.115717 0.003535
vt 0.335726 0.003535
vt 0.335726 0.996465
vt 0.420743 0.005311
vt 0.418726 0.008160
vt 0.441650 0.132795
vt 0.441023 0.131042
vt 0.110218 0.996465
vt 0.112903 0.003535
vt 0.338250 0.003535
vt 0.338250 0.996465
vt 0.424110 0.006233
vt 0.421371 0.007064
vt 0.443668 0.129947
vt 0.444463 0.131630
vt 0.107686 0.996465
vt 0.110218 0.003535
vt 0.340630 0.003535
vt 0.340630 0.996465
vt 0.423657 0.004427
vt 0.426917 0.005675
vt 0.446192 0.128597
vt 0.447149 0.130194
vt 0.105332 0.996465
vt 0.107686 0.003535
vt 0.342842 0.003535
vt 0.342842 0.996465
vt 0.429674 0.003535
vt 0.426644 0.003833
vt 0.449681 0.128503
vt 0.448572 0.127007
vt 0.197907 0.996465
vt 0.200060 0.003535
vt 0.200060 0.996465
vt 0.344866 0.003535
vt 0.344866 0.996465
vt 0.432719 0.003535
vt 0.429766 0.005394
vt 0.452035 0.126571
vt 0.450784 0.125191
vt 0.195553 0.996465
vt 0.197907 0.003535
vt 0.351936 0.996465
vt 0.354149 0.003535
vt 0.354149 0.996465
vt 0.435750 0.003833
vt 0.432628 0.005394
vt 0.454188 0.124418
vt 0.452808 0.123167
vt 0.193021 0.996465
vt 0.195553 0.003535
vt 0.356529 0.003535
vt 0.356529 0.996465
vt 0.438284 0.006233
vt 0.435477 0.005675
vt 0.454624 0.120955
vt 0.456120 0.122064
vt 0.190335 0.996465
vt 0.193021 0.003535
vt 0.359053 0.003535
vt 0.359053 0.996465
vt 0.441650 0.005311
vt 0.438736 0.004427
vt 0.456214 0.118575
vt 0.457811 0.119532
vt 0.187522 0.996465
vt 0.190335 0.003535
vt 0.361698 0.003535
vt 0.361698 0.996465
vt 0.444463 0.006477
vt 0.441023 0.007064
vt 0.459247 0.116846
vt 0.457564 0.116050
vt 0.184608 0.996465
vt 0.187522 0.003535
vt 0.364437 0.003535
vt 0.364437 0.996465
vt 0.446192 0.009509
vt 0.443667 0.008160
vt 0.458659 0.113406
vt 0.460412 0.114033
vt 0.181622 0.996465
vt 0.184608 0.003535
vt 0.367244 0.003535
vt 0.367244 0.996465
vt 0.449681 0.009604
vt 0.447149 0.007912
vt 0.459490 0.110667
vt 0.461296 0.111119
vt 0.178591 0.996465
vt 0.181622 0.003535
vt 0.370093 0.003535
vt 0.370093 0.996465
vt 0.452035 0.011536
vt 0.448572 0.011099
vt 0.461890 0.108133
vt 0.460048 0.107859
vt 0.175546 0.996465
vt 0.178591 0.003535
vt 0.372955 0.003535
vt 0.372955 0.996465
vt 0.452808 0.014939
vt 0.450784 0.012915
vt 0.460329 0.105011
vt 0.462189 0.105102
vt 0.172516 0.996465
vt 0.175546 0.003535
vt 0.375804 0.003535
vt 0.375804 0.996465
vt 0.454188 0.013689
vt 0.454624 0.017152
vt 0.460329 0.102149
vt 0.462189 0.102057
vt 0.169529 0.996465
vt 0.172516 0.003535
vt 0.378611 0.003535
vt 0.378611 0.996465
vt 0.456120 0.016043
vt 0.456214 0.019532
vt 0.460048 0.099300
vt 0.461890 0.099027
vt 0.166615 0.996465
vt 0.169529 0.003535
vt 0.381350 0.003535
vt 0.381350 0.996465
vt 0.459247 0.021260
vt 0.457811 0.018574
vt 0.461296 0.096040
vt 0.459490 0.096493
vt 0.163802 0.996465
vt 0.166615 0.003535
vt 0.383994 0.003535
vt 0.383994 0.996465
vt 0.460412 0.024073
vt 0.457564 0.022056
vt 0.460412 0.093126
vt 0.458659 0.093754
vt 0.161117 0.996465
vt 0.163802 0.003535
vt 0.386519 0.003535
vt 0.386519 0.996465
vt 0.459490 0.027439
vt 0.458659 0.024700
vt 0.457564 0.091109
vt 0.459247 0.090313
vt 0.158585 0.996465
vt 0.161117 0.003535
vt 0.388899 0.003535
vt 0.388899 0.996465
vt 0.461296 0.026987
vt 0.460048 0.030247
vt 0.456214 0.088585
vt 0.457811 0.087628
vt 0.156231 0.996465
vt 0.158585 0.003535
vt 0.391111 0.003535
vt 0.391111 0.996465
vt 0.462189 0.033004
vt 0.461890 0.029974
vt 0.456120 0.085096
vt 0.454624 0.086205
vt 0.045211 0.996465
vt 0.047364 0.003535
vt 0.047364 0.996465
vt 0.393135 0.003535
vt 0.393135 0.996465
vt 0.462189 0.036049
vt 0.460329 0.033095
vt 0.454188 0.082742
vt 0.452808 0.083992
vt 0.042857 0.996465
vt 0.045211 0.003535
vt 0.207130 0.996465
vt 0.209342 0.003535
vt 0.209342 0.996465
vt 0.461890 0.039079
vt 0.460329 0.035958
vt 0.452035 0.080589
vt 0.450784 0.081968
vt 0.040325 0.996465
vt 0.042857 0.003535
vt 0.211722 0.003535
vt 0.211722 0.996465
vt 0.459490 0.041614
vt 0.460048 0.038806
vt 0.448572 0.080152
vt 0.449681 0.078657
vt 0.037639 0.996465
vt 0.040325 0.003535
vt 0.214246 0.003535
vt 0.214246 0.996465
vt 0.460412 0.044980
vt 0.461296 0.042066
vt 0.446192 0.078562
vt 0.447149 0.076965
vt 0.034826 0.996465
vt 0.037639 0.003535
vt 0.216891 0.003535
vt 0.216891 0.996465
vt 0.459247 0.047793
vt 0.458659 0.044353
vt 0.444463 0.075530
vt 0.443667 0.077213
vt 0.031912 0.996465
vt 0.034826 0.003535
vt 0.219630 0.003535
vt 0.219630 0.996465
vt 0.456214 0.049522
vt 0.457564 0.046997
vt 0.441023 0.076117
vt 0.441650 0.074364
vt 0.028926 0.996465
vt 0.031912 0.003535
vt 0.222437 0.003535
vt 0.222437 0.996465
vt 0.456120 0.053011
vt 0.457811 0.050479
vt 0.438284 0.075287
vt 0.438736 0.073481
vt 0.025895 0.996465
vt 0.028926 0.003535
vt 0.225286 0.003535
vt 0.225286 0.996465
vt 0.454188 0.055364
vt 0.454624 0.051902
vt 0.435750 0.072886
vt 0.435477 0.074728
vt 0.022850 0.996465
vt 0.025895 0.003535
vt 0.228148 0.003535
vt 0.228148 0.996465
vt 0.450784 0.056138
vt 0.452808 0.054114
vt 0.432628 0.074448
vt 0.432719 0.072588
vt 0.019820 0.996465
vt 0.022850 0.003535
vt 0.230997 0.003535
vt 0.230997 0.996465
vt 0.452035 0.057518
vt 0.448572 0.057954
vt 0.429766 0.074448
vt 0.429674 0.072588
vt 0.016833 0.996465
vt 0.019820 0.003535
vt 0.233804 0.003535
vt 0.233804 0.996465
vt 0.449681 0.059449
vt 0.446192 0.059544
vt 0.426917 0.074728
vt 0.426644 0.072886
vt 0.013919 0.996465
vt 0.016833 0.003535
vt 0.236543 0.003535
vt 0.236543 0.996465
vt 0.444463 0.062577
vt 0.447149 0.061141
vt 0.423657 0.073481
vt 0.424110 0.075287
vt 0.013919 0.003535
vt 0.239188 0.003535
vt 0.443667 0.060894
vt 0.421371 0.076117
vt 0.003535 0.003535
vt 0.255398 0.003535
vt 0.054434 0.003535
vt 0.303667 0.003535
vt 0.105332 0.003535
vt 0.351936 0.003535
vt 0.156231 0.003535
vt 0.207130 0.003535
s 0
usemtl ARAT_brushed_tin
f 2/1/1 129/2/1 1/3/1
f 65/4/2 194/5/2 66/6/2
f 129/7/3 194/8/3 193/9/3
f 1/10/4 66/11/4 2/12/4
f 3/13/5 130/14/5 2/1/5
f 66/6/6 195/15/6 67/16/6
f 130/17/7 195/18/7 194/8/7
f 2/12/4 67/19/4 3/20/4
f 4/21/8 131/22/8 3/13/8
f 67/16/9 196/23/9 68/24/9
f 132/25/3 195/18/3 131/26/3
f 4/27/4 67/19/4 68/28/4
f 5/29/10 132/30/10 4/31/10
f 68/24/11 197/32/11 69/33/11
f 133/34/3 196/35/3 132/25/3
f 5/36/4 68/28/4 69/37/4
f 6/38/12 133/39/12 5/29/12
f 69/40/13 198/41/13 70/42/13
f 134/43/3 197/44/3 133/34/3
f 6/45/4 69/37/4 70/46/4
f 7/47/14 134/48/14 6/38/14
f 70/42/15 199/49/15 71/50/15
f 134/43/3 199/51/3 198/52/3
f 6/45/4 71/53/4 7/54/4
f 8/55/16 135/56/16 7/47/16
f 71/50/17 200/57/17 72/58/17
f 136/59/3 199/51/3 135/60/3
f 7/54/4 72/61/4 8/62/4
f 9/63/18 136/64/18 8/55/18
f 72/58/19 201/65/19 73/66/19
f 137/67/3 200/68/3 136/59/3
f 9/69/4 72/61/4 73/70/4
f 10/71/20 137/72/20 9/63/20
f 73/66/21 202/73/21 74/74/21
f 137/67/3 202/75/3 201/76/3
f 9/69/4 74/77/4 10/78/4
f 11/79/22 138/80/22 10/71/22
f 74/74/23 203/81/23 75/82/23
f 139/83/3 202/75/3 138/84/3
f 10/78/4 75/85/4 11/86/4
f 12/87/24 139/88/24 11/79/24
f 75/82/25 204/89/25 76/90/25
f 140/91/3 203/92/3 139/83/3
f 12/93/4 75/85/4 76/94/4
f 13/95/26 140/96/26 12/87/26
f 76/90/27 205/97/27 77/98/27
f 140/91/3 205/99/3 204/100/3
f 12/93/4 77/101/4 13/102/4
f 14/103/28 141/104/28 13/95/28
f 77/98/29 206/105/29 78/106/29
f 141/107/3 206/108/3 205/99/3
f 13/102/4 78/109/4 14/110/4
f 15/111/30 142/112/30 14/103/30
f 78/106/31 207/113/31 79/114/31
f 142/115/3 207/116/3 206/108/3
f 14/110/4 79/117/4 15/118/4
f 16/119/32 143/120/32 15/111/32
f 79/114/33 208/121/33 80/122/33
f 144/123/3 207/116/3 143/124/3
f 16/125/4 79/117/4 80/126/4
f 17/127/34 144/128/34 16/119/34
f 80/122/35 209/129/35 81/130/35
f 145/131/3 208/132/3 144/123/3
f 17/133/4 80/126/4 81/134/4
f 18/135/36 145/136/36 17/127/36
f 81/130/37 210/137/37 82/138/37
f 145/131/3 210/139/3 209/140/3
f 17/133/4 82/141/4 18/142/4
f 19/143/38 146/144/38 18/135/38
f 82/138/39 211/145/39 83/146/39
f 146/147/3 211/148/3 210/139/3
f 18/142/4 83/149/4 19/150/4
f 20/151/40 147/152/40 19/143/40
f 83/146/41 212/153/41 84/154/41
f 148/155/3 211/148/3 147/156/3
f 20/157/4 83/149/4 84/158/4
f 21/159/42 148/160/42 20/161/42
f 84/154/43 213/162/43 85/163/43
f 149/164/3 212/165/3 148/155/3
f 21/166/4 84/158/4 85/167/4
f 22/168/44 149/169/44 21/159/44
f 85/170/45 214/171/45 86/172/45
f 150/173/3 213/174/3 149/164/3
f 22/175/4 85/167/4 86/176/4
f 23/177/46 150/178/46 22/168/46
f 86/172/47 215/179/47 87/180/47
f 150/173/7 215/181/7 214/182/7
f 22/175/4 87/183/4 23/184/4
f 24/185/48 151/186/48 23/177/48
f 87/180/49 216/187/49 88/188/49
f 152/189/3 215/181/3 151/190/3
f 23/184/4 88/191/4 24/192/4
f 25/193/50 152/194/50 24/185/50
f 88/188/51 217/195/51 89/196/51
f 153/197/3 216/198/3 152/189/3
f 25/199/4 88/191/4 89/200/4
f 26/201/52 153/202/52 25/193/52
f 89/196/53 218/203/53 90/204/53
f 153/197/3 218/205/3 217/206/3
f 25/199/4 90/207/4 26/208/4
f 27/209/54 154/210/54 26/201/54
f 90/204/55 219/211/55 91/212/55
f 155/213/3 218/205/3 154/214/3
f 26/208/4 91/215/4 27/216/4
f 28/217/56 155/218/56 27/209/56
f 91/212/57 220/219/57 92/220/57
f 156/221/3 219/222/3 155/213/3
f 28/223/4 91/215/4 92/224/4
f 29/225/58 156/226/58 28/217/58
f 92/220/59 221/227/59 93/228/59
f 156/221/3 221/229/3 220/230/3
f 28/223/4 93/231/4 29/232/4
f 30/233/60 157/234/60 29/225/60
f 93/228/61 222/235/61 94/236/61
f 157/237/7 222/238/7 221/229/7
f 29/232/4 94/239/4 30/240/4
f 31/241/62 158/242/62 30/233/62
f 94/236/63 223/243/63 95/244/63
f 158/245/64 223/246/64 222/238/64
f 30/240/4 95/247/4 31/248/4
f 32/249/65 159/250/65 31/241/65
f 95/244/66 224/251/66 96/252/66
f 160/253/7 223/246/7 159/254/7
f 32/255/4 95/247/4 96/256/4
f 33/257/67 160/258/67 32/249/67
f 96/252/68 225/259/68 97/260/68
f 161/261/3 224/262/3 160/253/3
f 33/263/4 96/256/4 97/264/4
f 34/265/2 161/266/2 33/257/2
f 97/260/1 226/267/1 98/268/1
f 161/261/3 226/269/3 225/270/3
f 33/263/4 98/271/4 34/272/4
f 35/273/6 162/274/6 34/265/6
f 98/268/5 227/275/5 99/276/5
f 162/277/64 227/278/64 226/269/64
f 34/272/4 99/279/4 35/280/4
f 36/281/9 163/282/9 35/273/9
f 99/276/8 228/283/8 100/284/8
f 164/285/3 227/278/3 163/286/3
f 36/287/4 99/279/4 100/288/4
f 37/289/11 164/290/11 36/291/11
f 100/284/10 229/292/10 101/293/10
f 165/294/3 228/295/3 164/285/3
f 37/296/4 100/288/4 101/297/4
f 38/298/13 165/299/13 37/289/13
f 101/300/12 230/301/12 102/302/12
f 166/303/3 229/304/3 165/294/3
f 38/305/4 101/297/4 102/306/4
f 39/307/15 166/308/15 38/298/15
f 102/302/14 231/309/14 103/310/14
f 166/303/3 231/311/3 230/312/3
f 38/305/4 103/313/4 39/314/4
f 40/315/17 167/316/17 39/307/17
f 103/310/16 232/317/16 104/318/16
f 168/319/3 231/311/3 167/320/3
f 39/314/4 104/321/4 40/322/4
f 41/323/19 168/324/19 40/315/19
f 104/318/18 233/325/18 105/326/18
f 169/327/3 232/328/3 168/319/3
f 41/329/4 104/321/4 105/330/4
f 42/331/21 169/332/21 41/323/21
f 105/326/20 234/333/20 106/334/20
f 169/327/3 234/335/3 233/336/3
f 41/329/4 106/337/4 42/338/4
f 43/339/23 170/340/23 42/331/23
f 106/334/22 235/341/22 107/342/22
f 171/343/3 234/335/3 170/344/3
f 42/338/4 107/345/4 43/346/4
f 44/347/25 171/348/25 43/339/25
f 107/342/24 236/349/24 108/350/24
f 172/351/3 235/352/3 171/343/3
f 44/353/4 107/345/4 108/354/4
f 45/355/27 172/356/27 44/347/27
f 108/350/26 237/357/26 109/358/26
f 172/351/3 237/359/3 236/360/3
f 44/353/4 109/361/4 45/362/4
f 46/363/29 173/364/29 45/355/29
f 109/358/28 238/365/28 110/366/28
f 173/367/3 238/368/3 237/359/3
f 45/362/4 110/369/4 46/370/4
f 47/371/31 174/372/31 46/363/31
f 110/366/30 239/373/30 111/374/30
f 174/375/3 239/376/3 238/368/3
f 46/370/4 111/377/4 47/378/4
f 48/379/33 175/380/33 47/371/33
f 111/374/32 240/381/32 112/382/32
f 176/383/3 239/376/3 175/384/3
f 48/385/4 111/377/4 112/386/4
f 49/387/35 176/388/35 48/379/35
f 112/382/34 241/389/34 113/390/34
f 177/391/3 240/392/3 176/383/3
f 49/393/4 112/386/4 113/394/4
f 50/395/37 177/396/37 49/387/37
f 113/390/36 242/397/36 114/398/36
f 177/391/3 242/399/3 241/400/3
f 49/393/4 114/401/4 50/402/4
f 51/403/39 178/404/39 50/395/39
f 114/398/38 243/405/38 115/406/38
f 178/407/3 243/408/3 242/399/3
f 50/402/4 115/409/4 51/410/4
f 52/411/41 179/412/41 51/403/41
f 115/406/40 244/413/40 116/414/40
f 180/415/3 243/408/3 179/416/3
f 52/417/4 115/409/4 116/418/4
f 53/419/43 180/420/43 52/421/43
f 116/414/42 245/422/42 117/423/42
f 181/424/3 244/425/3 180/415/3
f 53/426/4 116/418/4 117/427/4
f 54/428/45 181/429/45 53/419/45
f 117/430/44 246/431/44 118/432/44
f 182/433/3 245/434/3 181/424/3
f 54/435/4 117/427/4 118/436/4
f 55/437/47 182/438/47 54/428/47
f 118/432/46 247/439/46 119/440/46
f 182/433/64 247/441/64 246/442/64
f 54/435/4 119/443/4 55/444/4
f 56/445/49 183/446/49 55/437/49
f 119/440/48 248/447/48 120/448/48
f 184/449/3 247/441/3 183/450/3
f 55/444/4 120/451/4 56/452/4
f 57/453/51 184/454/51 56/445/51
f 120/448/50 249/455/50 121/456/50
f 185/457/3 248/458/3 184/449/3
f 57/459/4 120/451/4 121/460/4
f 58/461/53 185/462/53 57/453/53
f 121/456/52 250/463/52 122/464/52
f 185/457/3 250/465/3 249/466/3
f 57/459/4 122/467/4 58/468/4
f 59/469/55 186/470/55 58/461/55
f 122/464/54 251/471/54 123/472/54
f 187/473/3 250/465/3 186/474/3
f 58/468/4 123/475/4 59/476/4
f 60/477/57 187/478/57 59/469/57
f 123/472/56 252/479/56 124/480/56
f 188/481/3 251/482/3 187/473/3
f 60/483/4 123/475/4 124/484/4
f 61/485/59 188/486/59 60/477/59
f 124/480/58 253/487/58 125/488/58
f 188/481/3 253/489/3 252/490/3
f 60/483/4 125/491/4 61/492/4
f 62/493/61 189/494/61 61/485/61
f 125/488/60 254/495/60 126/496/60
f 189/497/64 254/498/64 253/489/64
f 61/492/4 126/499/4 62/500/4
f 63/501/63 190/502/63 62/493/63
f 126/496/62 255/503/62 127/504/62
f 190/505/7 255/506/7 254/498/7
f 62/500/4 127/507/4 63/508/4
f 64/509/66 191/510/66 63/501/66
f 127/504/65 256/511/65 128/512/65
f 192/513/64 255/506/64 191/514/64
f 64/515/4 127/507/4 128/516/4
f 1/3/68 192/517/68 64/509/68
f 128/512/67 193/518/67 65/4/67
f 129/7/3 256/519/3 192/513/3
f 1/10/4 128/516/4 65/520/4
f 2/1/1 130/14/1 129/2/1
f 65/4/2 193/518/2 194/5/2
f 129/7/3 130/17/3 194/8/3
f 1/10/4 65/520/4 66/11/4
f 3/13/5 131/22/5 130/14/5
f 66/6/6 194/5/6 195/15/6
f 130/17/64 131/26/64 195/18/64
f 2/12/4 66/11/4 67/19/4
f 4/21/8 132/521/8 131/22/8
f 67/16/9 195/15/9 196/23/9
f 132/25/7 196/35/7 195/18/7
f 4/27/4 3/20/4 67/19/4
f 5/29/10 133/39/10 132/30/10
f 68/24/11 196/23/11 197/32/11
f 133/34/64 197/44/64 196/35/64
f 5/36/4 4/27/4 68/28/4
f 6/38/12 134/48/12 133/39/12
f 69/40/13 197/522/13 198/41/13
f 134/43/3 198/52/3 197/44/3
f 6/45/4 5/36/4 69/37/4
f 7/47/14 135/56/14 134/48/14
f 70/42/15 198/41/15 199/49/15
f 134/43/3 135/60/3 199/51/3
f 6/45/4 70/46/4 71/53/4
f 8/55/16 136/64/16 135/56/16
f 71/50/17 199/49/17 200/57/17
f 136/59/3 200/68/3 199/51/3
f 7/54/4 71/53/4 72/61/4
f 9/63/18 137/72/18 136/64/18
f 72/58/19 200/57/19 201/65/19
f 137/67/3 201/76/3 200/68/3
f 9/69/4 8/62/4 72/61/4
f 10/71/20 138/80/20 137/72/20
f 73/66/21 201/65/21 202/73/21
f 137/67/3 138/84/3 202/75/3
f 9/69/4 73/70/4 74/77/4
f 11/79/22 139/88/22 138/80/22
f 74/74/23 202/73/23 203/81/23
f 139/83/7 203/92/7 202/75/7
f 10/78/4 74/77/4 75/85/4
f 12/87/24 140/96/24 139/88/24
f 75/82/25 203/81/25 204/89/25
f 140/91/64 204/100/64 203/92/64
f 12/93/4 11/86/4 75/85/4
f 13/95/26 141/104/26 140/96/26
f 76/90/27 204/89/27 205/97/27
f 140/91/3 141/107/3 205/99/3
f 12/93/4 76/94/4 77/101/4
f 14/103/28 142/112/28 141/104/28
f 77/98/29 205/97/29 206/105/29
f 141/107/3 142/115/3 206/108/3
f 13/102/4 77/101/4 78/109/4
f 15/111/30 143/120/30 142/112/30
f 78/106/31 206/105/31 207/113/31
f 142/115/3 143/124/3 207/116/3
f 14/110/4 78/109/4 79/117/4
f 16/119/32 144/128/32 143/120/32
f 79/114/33 207/113/33 208/121/33
f 144/123/3 208/132/3 207/116/3
f 16/125/4 15/118/4 79/117/4
f 17/127/34 145/136/34 144/128/34
f 80/122/35 208/121/35 209/129/35
f 145/131/3 209/140/3 208/132/3
f 17/133/4 16/125/4 80/126/4
f 18/135/36 146/144/36 145/136/36
f 81/130/37 209/129/37 210/137/37
f 145/131/3 146/147/3 210/139/3
f 17/133/4 81/134/4 82/141/4
f 19/143/38 147/152/38 146/144/38
f 82/138/39 210/137/39 211/145/39
f 146/147/3 147/156/3 211/148/3
f 18/142/4 82/141/4 83/149/4
f 20/151/40 148/523/40 147/152/40
f 83/146/41 211/145/41 212/153/41
f 148/155/3 212/165/3 211/148/3
f 20/157/4 19/150/4 83/149/4
f 21/159/42 149/169/42 148/160/42
f 84/154/43 212/153/43 213/162/43
f 149/164/3 213/174/3 212/165/3
f 21/166/4 20/157/4 84/158/4
f 22/168/44 150/178/44 149/169/44
f 85/170/45 213/524/45 214/171/45
f 150/173/3 214/182/3 213/174/3
f 22/175/4 21/166/4 85/167/4
f 23/177/46 151/186/46 150/178/46
f 86/172/47 214/171/47 215/179/47
f 150/173/3 151/190/3 215/181/3
f 22/175/4 86/176/4 87/183/4
f 24/185/48 152/194/48 151/186/48
f 87/180/49 215/179/49 216/187/49
f 152/189/64 216/198/64 215/181/64
f 23/184/4 87/183/4 88/191/4
f 25/193/50 153/202/50 152/194/50
f 88/188/51 216/187/51 217/195/51
f 153/197/3 217/206/3 216/198/3
f 25/199/4 24/192/4 88/191/4
f 26/201/52 154/210/52 153/202/52
f 89/196/53 217/195/53 218/203/53
f 153/197/3 154/214/3 218/205/3
f 25/199/4 89/200/4 90/207/4
f 27/209/54 155/218/54 154/210/54
f 90/204/55 218/203/55 219/211/55
f 155/213/3 219/222/3 218/205/3
f 26/208/4 90/207/4 91/215/4
f 28/217/56 156/226/56 155/218/56
f 91/212/57 219/211/57 220/219/57
f 156/221/3 220/230/3 219/222/3
f 28/223/4 27/216/4 91/215/4
f 29/225/58 157/234/58 156/226/58
f 92/220/59 220/219/59 221/227/59
f 156/221/3 157/237/3 221/229/3
f 28/223/4 92/224/4 93/231/4
f 30/233/60 158/242/60 157/234/60
f 93/228/61 221/227/61 222/235/61
f 157/237/3 158/245/3 222/238/3
f 29/232/4 93/231/4 94/239/4
f 31/241/62 159/250/62 158/242/62
f 94/236/63 222/235/63 223/243/63
f 158/245/3 159/254/3 223/246/3
f 30/240/4 94/239/4 95/247/4
f 32/249/65 160/258/65 159/250/65
f 95/244/66 223/243/66 224/251/66
f 160/253/64 224/262/64 223/246/64
f 32/255/4 31/248/4 95/247/4
f 33/257/67 161/266/67 160/258/67
f 96/252/68 224/251/68 225/259/68
f 161/261/3 225/270/3 224/262/3
f 33/263/4 32/255/4 96/256/4
f 34/265/2 162/274/2 161/266/2
f 97/260/1 225/259/1 226/267/1
f 161/261/3 162/277/3 226/269/3
f 33/263/4 97/264/4 98/271/4
f 35/273/6 163/282/6 162/274/6
f 98/268/5 226/267/5 227/275/5
f 162/277/7 163/286/7 227/278/7
f 34/272/4 98/271/4 99/279/4
f 36/281/9 164/525/9 163/282/9
f 99/276/8 227/275/8 228/283/8
f 164/285/64 228/295/64 227/278/64
f 36/287/4 35/280/4 99/279/4
f 37/289/11 165/299/11 164/290/11
f 100/284/10 228/283/10 229/292/10
f 165/294/7 229/304/7 228/295/7
f 37/296/4 36/287/4 100/288/4
f 38/298/13 166/308/13 165/299/13
f 101/300/12 229/526/12 230/301/12
f 166/303/3 230/312/3 229/304/3
f 38/305/4 37/296/4 101/297/4
f 39/307/15 167/316/15 166/308/15
f 102/302/14 230/301/14 231/309/14
f 166/303/3 167/320/3 231/311/3
f 38/305/4 102/306/4 103/313/4
f 40/315/17 168/324/17 167/316/17
f 103/310/16 231/309/16 232/317/16
f 168/319/3 232/328/3 231/311/3
f 39/314/4 103/313/4 104/321/4
f 41/323/19 169/332/19 168/324/19
f 104/318/18 232/317/18 233/325/18
f 169/327/3 233/336/3 232/328/3
f 41/329/4 40/322/4 104/321/4
f 42/331/21 170/340/21 169/332/21
f 105/326/20 233/325/20 234/333/20
f 169/327/3 170/344/3 234/335/3
f 41/329/4 105/330/4 106/337/4
f 43/339/23 171/348/23 170/340/23
f 106/334/22 234/333/22 235/341/22
f 171/343/64 235/352/64 234/335/64
f 42/338/4 106/337/4 107/345/4
f 44/347/25 172/356/25 171/348/25
f 107/342/24 235/341/24 236/349/24
f 172/351/7 236/360/7 235/352/7
f 44/353/4 43/346/4 107/345/4
f 45/355/27 173/364/27 172/356/27
f 108/350/26 236/349/26 237/357/26
f 172/351/3 173/367/3 237/359/3
f 44/353/4 108/354/4 109/361/4
f 46/363/29 174/372/29 173/364/29
f 109/358/28 237/357/28 238/365/28
f 173/367/3 174/375/3 238/368/3
f 45/362/4 109/361/4 110/369/4
f 47/371/31 175/380/31 174/372/31
f 110/366/30 238/365/30 239/373/30
f 174/375/3 175/384/3 239/376/3
f 46/370/4 110/369/4 111/377/4
f 48/379/33 176/388/33 175/380/33
f 111/374/32 239/373/32 240/381/32
f 176/383/3 240/392/3 239/376/3
f 48/385/4 47/378/4 111/377/4
f 49/387/35 177/396/35 176/388/35
f 112/382/34 240/381/34 241/389/34
f 177/391/3 241/400/3 240/392/3
f 49/393/4 48/385/4 112/386/4
f 50/395/37 178/404/37 177/396/37
f 113/390/36 241/389/36 242/397/36
f 177/391/3 178/407/3 242/399/3
f 49/393/4 113/394/4 114/401/4
f 51/403/39 179/412/39 178/404/39
f 114/398/38 242/397/38 243/405/38
f 178/407/3 179/416/3 243/408/3
f 50/402/4 114/401/4 115/409/4
f 52/411/41 180/527/41 179/412/41
f 115/406/40 243/405/40 244/413/40
f 180/415/3 244/425/3 243/408/3
f 52/417/4 51/410/4 115/409/4
f 53/419/43 181/429/43 180/420/43
f 116/414/42 244/413/42 245/422/42
f 181/424/3 245/434/3 244/425/3
f 53/426/4 52/417/4 116/418/4
f 54/428/45 182/438/45 181/429/45
f 117/430/44 245/528/44 246/431/44
f 182/433/3 246/442/3 245/434/3
f 54/435/4 53/426/4 117/427/4
f 55/437/47 183/446/47 182/438/47
f 118/432/46 246/431/46 247/439/46
f 182/433/3 183/450/3 247/441/3
f 54/435/4 118/436/4 119/443/4
f 56/445/49 184/454/49 183/446/49
f 119/440/48 247/439/48 248/447/48
f 184/449/7 248/458/7 247/441/7
f 55/444/4 119/443/4 120/451/4
f 57/453/51 185/462/51 184/454/51
f 120/448/50 248/447/50 249/455/50
f 185/457/3 249/466/3 248/458/3
f 57/459/4 56/452/4 120/451/4
f 58/461/53 186/470/53 185/462/53
f 121/456/52 249/455/52 250/463/52
f 185/457/3 186/474/3 250/465/3
f 57/459/4 121/460/4 122/467/4
f 59/469/55 187/478/55 186/470/55
f 122/464/54 250/463/54 251/471/54
f 187/473/3 251/482/3 250/465/3
f 58/468/4 122/467/4 123/475/4
f 60/477/57 188/486/57 187/478/57
f 123/472/56 251/471/56 252/479/56
f 188/481/3 252/490/3 251/482/3
f 60/483/4 59/476/4 123/475/4
f 61/485/59 189/494/59 188/486/59
f 124/480/58 252/479/58 253/487/58
f 188/481/3 189/497/3 253/489/3
f 60/483/4 124/484/4 125/491/4
f 62/493/61 190/502/61 189/494/61
f 125/488/60 253/487/60 254/495/60
f 189/497/3 190/505/3 254/498/3
f 61/492/4 125/491/4 126/499/4
f 63/501/63 191/510/63 190/502/63
f 126/496/62 254/495/62 255/503/62
f 190/505/3 191/514/3 255/506/3
f 62/500/4 126/499/4 127/507/4
f 64/509/66 192/517/66 191/510/66
f 127/504/65 255/503/65 256/511/65
f 192/513/7 256/519/7 255/506/7
f 64/515/4 63/508/4 127/507/4
f 1/3/68 129/2/68 192/517/68
f 128/512/67 256/511/67 193/518/67
f 129/7/3 193/9/3 256/519/3
f 1/10/4 64/515/4 128/516/4
