# Blender 4.5.11 LTS
# www.blender.org
mtllib visual.mtl
o cup_red
v 0.031000 0.000000 0.000000
v 0.030851 0.003039 0.000000
v 0.030404 0.006048 0.000000
v 0.029665 0.008999 0.000000
v 0.028640 0.011863 0.000000
v 0.027340 0.014613 0.000000
v 0.025776 0.017223 0.000000
v 0.023963 0.019666 0.000000
v 0.021920 0.021920 0.000000
v 0.019666 0.023963 0.000000
v 0.017223 0.025776 0.000000
v 0.014613 0.027340 0.000000
v 0.011863 0.028640 0.000000
v 0.008999 0.029665 0.000000
v 0.006048 0.030404 0.000000
v 0.003039 0.030851 0.000000
v 0.000000 0.031000 0.000000
v -0.003039 0.030851 0.000000
v -0.006048 0.030404 0.000000
v -0.008999 0.029665 0.000000
v -0.011863 0.028640 0.000000
v -0.014613 0.027340 0.000000
v -0.017223 0.025776 0.000000
v -0.019666 0.023963 0.000000
v -0.021920 0.021920 0.000000
v -0.023963 0.019666 0.000000
v -0.025776 0.017223 0.000000
v -0.027340 0.014613 0.000000
v -0.028640 0.011863 0.000000
v -0.029665 0.008999 0.000000
v -0.030404 0.006048 0.000000
v -0.030851 0.003039 0.000000
v -0.031000 0.000000 0.000000
v -0.030851 -0.003039 0.000000
v -0.030404 -0.006048 0.000000
v -0.029665 -0.008999 0.000000
v -0.028640 -0.011863 0.000000
v -0.027340 -0.014613 0.000000
v -0.025776 -0.017223 0.000000
v -0.023963 -0.019666 0.000000
v -0.021920 -0.021920 0.000000
v -0.019666 -0.023963 0.000000
v -0.017223 -0.025776 0.000000
v -0.014613 -0.027340 0.000000
v -0.011863 -0.028640 0.000000
v -0.008999 -0.029665 0.000000
v -0.006048 -0.030404 0.000000
v -0.003039 -0.030851 0.000000
v -0.000000 -0.031000 0.000000
v 0.003039 -0.030851 0.000000
v 0.006048 -0.030404 0.000000
v 0.008999 -0.029665 0.000000
v 0.011863 -0.028640 0.000000
v 0.014613 -0.027340 0.000000
v 0.017223 -0.025776 0.000000
v 0.019666 -0.023963 0.000000
v 0.021920 -0.021920 0.000000
v 0.023963 -0.019666 0.000000
v 0.025776 -0.017223 0.000000
v 0.027340 -0.014613 0.000000
v 0.028640 -0.011863 0.000000
v 0.029665 -0.008999 0.000000
v 0.030404 -0.006048 0.000000
v 0.030851 -0.003039 0.000000
v 0.037500 0.000000 0.120000
v 0.037319 0.003676 0.120000
v 0.036779 0.007316 0.120000
v 0.035885 0.010886 0.120000
v 0.034645 0.014351 0.120000
v 0.033072 0.017677 0.120000
v 0.031180 0.020834 0.120000
v 0.028988 0.023790 0.120000
v 0.026517 0.026517 0.120000
v 0.023790 0.028988 0.120000
v 0.020834 0.031180 0.120000
v 0.017677 0.033072 0.120000
v 0.014351 0.034645 0.120000
v 0.010886 0.035885 0.120000
v 0.007316 0.036779 0.120000
v 0.003676 0.037319 0.120000
v 0.000000 0.037500 0.120000
v -0.003676 0.037319 0.120000
v -0.007316 0.036779 0.120000
v -0.010886 0.035885 0.120000
v -0.014351 0.034645 0.120000
v -0.017677 0.033072 0.120000
v -0.020834 0.031180 0.120000
v -0.023790 0.028988 0.120000
v -0.026517 0.026517 0.120000
v -0.028988 0.023790 0.120000
v -0.031180 0.020834 0.120000
v -0.033072 0.017677 0.120000
v -0.034645 0.014351 0.120000
v -0.035885 0.010886 0.120000
v -0.036779 0.007316 0.120000
v -0.037319 0.003676 0.120000
v -0.037500 0.000000 0.120000
v -0.037319 -0.003676 0.120000
v -0.036779 -0.007316 0.120000
v -0.035885 -0.010886 0.120000
v -0.034645 -0.014351 0.120000
v -0.033072 -0.017677 0.120000
v -0.031180 -0.020834 0.120000
v -0.028988 -0.023790 0.120000
v -0.026517 -0.026517 0.120000
v -0.023790 -0.028988 0.120000
v -0.020834 -0.031180 0.120000
v -0.017677 -0.033072 0.120000
v -0.014351 -0.034645 0.120000
v -0.010886 -0.035885 0.120000
v -0.007316 -0.036779 0.120000
v -0.003676 -0.037319 0.120000
v -0.000000 -0.037500 0.120000
v 0.003676 -0.037319 0.120000
v 0.007316 -0.036779 0.120000
v 0.010886 -0.035885 0.120000
v 0.014351 -0.034645 0.120000
v 0.017677 -0.033072 0.120000
v 0.020834 -0.031180 0.120000
v 0.023790 -0.028988 0.120000
v 0.026517 -0.026517 0.120000
v 0.028988 -0.023790 0.120000
v 0.031180 -0.020834 0.120000
v 0.033072 -0.017677 0.120000
v 0.034645 -0.014351 0.120000
v 0.035885 -0.010886 0.120000
v 0.036779 -0.007316 0.120000
v 0.037319 -0.003676 0.120000
v 0.034500 0.000000 0.120000
v 0.034334 0.003382 0.120000
v 0.033837 0.006731 0.120000
v 0.033014 0.010015 0.120000
v 0.031874 0.013203 0.120000
v 0.030426 0.016263 0.120000
v 0.028686 0.019167 0.120000
v 0.026669 0.021887 0.120000
v 0.024395 0.024395 0.120000
v 0.021887 0.026669 0.120000
v 0.019167 0.028686 0.120000
v 0.016263 0.030426 0.120000
v 0.013203 0.031874 0.120000
v 0.010015 0.033014 0.120000
v 0.006731 0.033837 0.120000
v 0.003382 0.034334 0.120000
v 0.000000 0.034500 0.120000
v -0.003382 0.034334 0.120000
v -0.006731 0.033837 0.120000
v -0.010015 0.033014 0.120000
v -0.013203 0.031874 0.120000
v -0.016263 0.030426 0.120000
v -0.019167 0.028686 0.120000
v -0.021887 0.026669 0.120000
v -0.024395 0.024395 0.120000
v -0.026669 0.021887 0.120000
v -0.028686 0.019167 0.120000
v -0.030426 0.016263 0.120000
v -0.031874 0.013203 0.120000
v -0.033014 0.010015 0.120000
v -0.033837 0.006731 0.120000
v -0.034334 0.003382 0.120000
v -0.034500 0.000000 0.120000
v -0.034334 -0.003382 0.120000
v -0.033837 -0.006731 0.120000
v -0.033014 -0.010015 0.120000
v -0.031874 -0.013203 0.120000
v -0.030426 -0.016263 0.120000
v -0.028686 -0.019167 0.120000
v -0.026669 -0.021887 0.120000
v -0.024395 -0.024395 0.120000
v -0.021887 -0.026669 0.120000
v -0.019167 -0.028686 0.120000
v -0.016263 -0.030426 0.120000
v -0.013203 -0.031874 0.120000
v -0.010015 -0.033014 0.120000
v -0.006731 -0.033837 0.120000
v -0.003382 -0.034334 0.120000
v -0.000000 -0.034500 0.120000
v 0.003382 -0.034334 0.120000
v 0.006731 -0.033837 0.120000
v 0.010015 -0.033014 0.120000
v 0.013203 -0.031874 0.120000
v 0.016263 -0.030426 0.120000
v 0.019167 -0.028686 0.120000
v 0.021887 -0.026669 0.120000
v 0.024395 -0.024395 0.120000
v 0.026669 -0.021887 0.120000
v 0.028686 -0.019167 0.120000
v 0.030426 -0.016263 0.120000
v 0.031874 -0.013203 0.120000
v 0.033014 -0.010015 0.120000
v 0.033837 -0.006731 0.120000
v 0.034334 -0.003382 0.120000
v 0.028000 0.000000 0.004000
v 0.027865 0.002744 0.004000
v 0.027462 0.005463 0.004000
v 0.026794 0.008128 0.004000
v 0.025869 0.010715 0.004000
v 0.024694 0.013199 0.004000
v 0.023281 0.015556 0.004000
v 0.021644 0.017763 0.004000
v 0.019799 0.019799 0.004000
v 0.017763 0.021644 0.004000
v 0.015556 0.023281 0.004000
v 0.013199 0.024694 0.004000
v 0.010715 0.025869 0.004000
v 0.008128 0.026794 0.004000
v 0.005463 0.027462 0.004000
v 0.002744 0.027865 0.004000
v 0.000000 0.028000 0.004000
v -0.002744 0.027865 0.004000
v -0.005463 0.027462 0.004000
v -0.008128 0.026794 0.004000
v -0.010715 0.025869 0.004000
v -0.013199 0.024694 0.004000
v -0.015556 0.023281 0.004000
v -0.017763 0.021644 0.004000
v -0.019799 0.019799 0.004000
v -0.021644 0.017763 0.004000
v -0.023281 0.015556 0.004000
v -0.024694 0.013199 0.004000
v -0.025869 0.010715 0.004000
v -0.026794 0.008128 0.004000
v -0.027462 0.005463 0.004000
v -0.027865 0.002744 0.004000
v -0.028000 0.000000 0.004000
v -0.027865 -0.002744 0.004000
v -0.027462 -0.005463 0.004000
v -0.026794 -0.008128 0.004000
v -0.025869 -0.010715 0.004000
v -0.024694 -0.013199 0.004000
v -0.023281 -0.015556 0.004000
v -0.021644 -0.017763 0.004000
v -0.019799 -0.019799 0.004000
v -0.017763 -0.021644 0.004000
v -0.015556 -0.023281 0.004000
v -0.013199 -0.024694 0.004000
v -0.010715 -0.025869 0.004000
v -0.008128 -0.026794 0.004000
v -0.005463 -0.027462 0.004000
v -0.002744 -0.027865 0.004000
v -0.000000 -0.028000 0.004000
v 0.002744 -0.027865 0.004000
v 0.005463 -0.027462 0.004000
v 0.008128 -0.026794 0.004000
v 0.010715 -0.025869 0.004000
v 0.013199 -0.024694 0.004000
v 0.015556 -0.023281 0.004000
v 0.017763 -0.021644 0.004000
v 0.019799 -0.019799 0.004000
v 0.021644 -0.017763 0.004000
v 0.023281 -0.015556 0.004000
v 0.024694 -0.013199 0.004000
v 0.025869 -0.010715 0.004000
v 0.026794 -0.008128 0.004000
v 0.027462 -0.005463 0.004000
v 0.027865 -0.002744 0.004000
v 0.000000 0.000000 0.000000
v 0.000000 0.000000 0.004000
vn 0.9973 0.0490 -0.0540
vn -0.0000 -0.0000 1.0000
vn 0.9972 0.0490 -0.0559
vn -0.0000 -0.0000 -1.0000
vn 0.9877 0.1465 -0.0540
vn 0.9876 0.1465 -0.0559
vn 0.9686 0.2426 -0.0540
vn 0.9685 0.2426 -0.0559
vn 0.9402 0.3364 -0.0540
vn 0.9401 0.3364 -0.0559
vn 0.9027 0.4269 -0.0540
vn 0.9026 0.4269 -0.0559
vn 0.8565 0.5134 -0.0540
vn 0.8564 0.5133 -0.0559
vn 0.8020 0.5948 -0.0540
vn 0.8020 0.5948 -0.0559
vn 0.7399 0.6706 -0.0540
vn 0.7398 0.6705 -0.0559
vn 0.6706 0.7399 -0.0540
vn 0.6705 0.7398 -0.0559
vn 0.5948 0.8020 -0.0540
vn 0.5948 0.8020 -0.0559
vn 0.5134 0.8565 -0.0540
vn 0.5133 0.8564 -0.0559
vn 0.4269 0.9027 -0.0540
vn 0.4269 0.9026 -0.0559
vn 0.3364 0.9402 -0.0540
vn 0.3364 0.9401 -0.0559
vn 0.2426 0.9686 -0.0540
vn 0.2426 0.9685 -0.0559
vn 0.1465 0.9877 -0.0540
vn 0.1465 0.9876 -0.0559
vn 0.0490 0.9973 -0.0540
vn 0.0490 0.9972 -0.0559
vn -0.0490 0.9973 -0.0540
vn -0.0490 0.9972 -0.0559
vn -0.1465 0.9877 -0.0540
vn -0.1465 0.9876 -0.0559
vn -0.2426 0.9686 -0.0540
vn -0.2426 0.9685 -0.0559
vn -0.3364 0.9402 -0.0540
vn -0.3364 0.9401 -0.0559
vn -0.4269 0.9027 -0.0540
vn -0.4269 0.9026 -0.0559
vn -0.5134 0.8565 -0.0540
vn -0.5133 0.8564 -0.0559
vn -0.5948 0.8020 -0.0540
vn -0.5948 0.8020 -0.0559
vn -0.6706 0.7399 -0.0540
vn -0.6705 0.7398 -0.0559
vn -0.7399 0.6706 -0.0540
vn -0.7398 0.6705 -0.0559
vn -0.8020 0.5948 -0.0540
vn -0.8020 0.5948 -0.0559
vn -0.8565 0.5134 -0.0540
vn -0.8564 0.5133 -0.0559
vn -0.9027 0.4269 -0.0540
vn -0.9026 0.4269 -0.0559
vn -0.9402 0.3364 -0.0540
vn -0.9401 0.3364 -0.0559
vn -0.9686 0.2426 -0.0540
vn -0.9685 0.2426 -0.0559
vn -0.9877 0.1465 -0.0540
vn -0.9876 0.1465 -0.0559
vn -0.9973 0.0490 -0.0540
vn -0.9972 0.0490 -0.0559
vn -0.9973 -0.0490 -0.0540
vn -0.9972 -0.0490 -0.0559
vn -0.9877 -0.1465 -0.0540
vn -0.9876 -0.1465 -0.0559
vn -0.9686 -0.2426 -0.0540
vn -0.9685 -0.2426 -0.0559
vn -0.9402 -0.3364 -0.0540
vn -0.9401 -0.3364 -0.0559
vn -0.9027 -0.4269 -0.0540
vn -0.9026 -0.4269 -0.0559
vn -0.8565 -0.5134 -0.0540
vn -0.8564 -0.5133 -0.0559
vn -0.8020 -0.5948 -0.0540
vn -0.8020 -0.5948 -0.0559
vn -0.7399 -0.6706 -0.0540
vn -0.7398 -0.6705 -0.0559
vn -0.6706 -0.7399 -0.0540
vn -0.6705 -0.7398 -0.0559
vn -0.5948 -0.8020 -0.0540
vn -0.5948 -0.8020 -0.0559
vn -0.5134 -0.8565 -0.0540
vn -0.5133 -0.8564 -0.0559
vn -0.4269 -0.9027 -0.0540
vn -0.4269 -0.9026 -0.0559
vn -0.3364 -0.9402 -0.0540
vn -0.3364 -0.9401 -0.0559
vn -0.2426 -0.9686 -0.0540
vn -0.2426 -0.9685 -0.0559
vn -0.1465 -0.9877 -0.0540
vn -0.1465 -0.9876 -0.0559
vn -0.0490 -0.9973 -0.0540
vn -0.0490 -0.9972 -0.0559
vn 0.0490 -0.9973 -0.0540
vn 0.0490 -0.9972 -0.0559
vn 0.1465 -0.9877 -0.0540
vn 0.1465 -0.9876 -0.0559
vn 0.2426 -0.9686 -0.0540
vn 0.2426 -0.9685 -0.0559
vn 0.3364 -0.9402 -0.0540
vn 0.3364 -0.9401 -0.0559
vn 0.4269 -0.9027 -0.0540
vn 0.4269 -0.9026 -0.0559
vn 0.5134 -0.8565 -0.0540
vn 0.5133 -0.8564 -0.0559
vn 0.5948 -0.8020 -0.0540
vn 0.5948 -0.8020 -0.0559
vn 0.6706 -0.7399 -0.0540
vn 0.6705 -0.7398 -0.0559
vn 0.7399 -0.6706 -0.0540
vn 0.7398 -0.6705 -0.0559
vn 0.8020 -0.5948 -0.0540
vn 0.8020 -0.5948 -0.0559
vn 0.8565 -0.5134 -0.0540
vn 0.8564 -0.5133 -0.0559
vn 0.9027 -0.4269 -0.0540
vn 0.9026 -0.4269 -0.0559
vn 0.9402 -0.3364 -0.0540
vn 0.9401 -0.3364 -0.0559
vn 0.9686 -0.2426 -0.0540
vn 0.9685 -0.2426 -0.0559
vn 0.9877 -0.1465 -0.0540
vn 0.9876 -0.1465 -0.0559
vn 0.9973 -0.0490 -0.0540
vn 0.9972 -0.0490 -0.0559
vt 0.122568 0.404249
vt 0.139491 0.005813
vt 0.132226 0.404418
vt 0.864239 0.253912
vt 0.875959 0.243972
vt 0.876447 0.253912
vt 0.306663 0.417326
vt 0.289583 0.802483
vt 0.295915 0.417107
vt 0.804835 0.274466
vt 0.814159 0.270604
vt 0.848805 0.367434
vt 0.852495 0.665616
vt 0.843423 0.666510
vt 0.838865 0.573732
vt 0.112670 0.404135
vt 0.127808 0.005608
vt 0.852089 0.252716
vt 0.864727 0.243972
vt 0.280643 0.802356
vt 0.284899 0.416950
vt 0.795934 0.279224
vt 0.834307 0.666510
vt 0.102626 0.404078
vt 0.115834 0.005471
vt 0.842533 0.240680
vt 0.853549 0.242871
vt 0.271572 0.802278
vt 0.273722 0.416855
vt 0.787543 0.284831
vt 0.825235 0.665616
vt 0.092534 0.404078
vt 0.103684 0.005402
vt 0.828432 0.246790
vt 0.840115 0.250334
vt 0.262456 0.802253
vt 0.262490 0.416823
vt 0.779741 0.291233
vt 0.816295 0.663838
vt 0.082490 0.404135
vt 0.091476 0.005402
vt 0.821408 0.233121
vt 0.831785 0.237420
vt 0.253384 0.802278
vt 0.251312 0.416855
vt 0.772605 0.298370
vt 0.807571 0.661192
vt 0.072591 0.404249
vt 0.079326 0.005471
vt 0.806386 0.236363
vt 0.817153 0.242118
vt 0.244443 0.802356
vt 0.240296 0.416950
vt 0.766202 0.306171
vt 0.799150 0.657703
vt 0.062934 0.404418
vt 0.067352 0.005608
vt 0.802164 0.221587
vt 0.811502 0.227827
vt 0.235720 0.802483
vt 0.229547 0.417107
vt 0.760595 0.314563
vt 0.791110 0.653406
vt 0.053610 0.404640
vt 0.055669 0.005813
vt 0.796235 0.229580
vt 0.793481 0.214461
vt 0.227297 0.802661
vt 0.219170 0.417326
vt 0.755838 0.323463
vt 0.783531 0.648342
vt 0.044709 0.404915
vt 0.044390 0.006082
vt 0.778165 0.213203
vt 0.786798 0.221835
vt 0.219257 0.802886
vt 0.209263 0.417603
vt 0.751975 0.332788
vt 0.776484 0.642559
vt 0.036317 0.405238
vt 0.033623 0.006414
vt 0.770420 0.203765
vt 0.785539 0.206519
vt 0.211677 0.803157
vt 0.199923 0.417937
vt 0.749046 0.342445
vt 0.770038 0.636113
vt 0.028516 0.405607
vt 0.023472 0.006805
vt 0.763637 0.193614
vt 0.778414 0.197837
vt 0.204630 0.803470
vt 0.191240 0.418323
vt 0.747077 0.352344
vt 0.764256 0.629067
vt 0.021379 0.406019
vt 0.014035 0.007252
vt 0.766879 0.178592
vt 0.772174 0.188498
vt 0.198183 0.803824
vt 0.183296 0.418759
vt 0.746087 0.362388
vt 0.759191 0.621487
vt 0.150210 0.816659
vt 0.172493 0.418673
vt 0.158011 0.817028
vt 0.757882 0.182847
vt 0.762581 0.168215
vt 0.517433 0.418759
vt 0.494815 0.803470
vt 0.508751 0.418323
vt 0.746087 0.372480
vt 0.754894 0.613448
vt 0.152904 0.417835
vt 0.163055 0.418226
vt 0.749666 0.159885
vt 0.753210 0.171568
vt 0.487236 0.803157
vt 0.499414 0.417937
vt 0.747077 0.382524
vt 0.751406 0.605026
vt 0.132918 0.816061
vt 0.141818 0.816336
vt 0.747284 0.147911
vt 0.759320 0.157467
vt 0.479197 0.802886
vt 0.489509 0.417603
vt 0.749046 0.392422
vt 0.748759 0.596303
vt 0.123594 0.815838
vt 0.142137 0.417503
vt 0.756028 0.135273
vt 0.757129 0.146451
vt 0.470776 0.802661
vt 0.479133 0.417326
vt 0.751975 0.402080
vt 0.746981 0.587362
vt 0.113936 0.815669
vt 0.130858 0.417234
vt 0.746088 0.123553
vt 0.746088 0.135762
vt 0.462053 0.802483
vt 0.468385 0.417107
vt 0.755838 0.411404
vt 0.746087 0.578290
vt 0.104037 0.815556
vt 0.119175 0.417029
vt 0.747284 0.111403
vt 0.756028 0.124041
vt 0.453113 0.802356
vt 0.457369 0.416950
vt 0.760595 0.420305
vt 0.746087 0.569175
vt 0.093993 0.815499
vt 0.107201 0.416892
vt 0.759320 0.101847
vt 0.757129 0.112864
vt 0.444042 0.802278
vt 0.446192 0.416855
vt 0.766202 0.428697
vt 0.746981 0.560103
vt 0.083901 0.815499
vt 0.095051 0.416823
vt 0.753210 0.087746
vt 0.749666 0.099429
vt 0.434926 0.802252
vt 0.434960 0.416823
vt 0.772605 0.436498
vt 0.748759 0.551162
vt 0.073857 0.815556
vt 0.082843 0.416823
vt 0.766879 0.080722
vt 0.762581 0.091099
vt 0.425854 0.802278
vt 0.423782 0.416855
vt 0.779741 0.443634
vt 0.751406 0.542439
vt 0.063959 0.815669
vt 0.070693 0.416892
vt 0.763637 0.065700
vt 0.757882 0.076467
vt 0.416913 0.802356
vt 0.412766 0.416950
vt 0.787543 0.450037
vt 0.754894 0.534017
vt 0.054301 0.815838
vt 0.058719 0.417029
vt 0.778413 0.061478
vt 0.772173 0.070817
vt 0.408190 0.802483
vt 0.402017 0.417107
vt 0.795934 0.455644
vt 0.759191 0.525978
vt 0.044977 0.816061
vt 0.047036 0.417234
vt 0.770420 0.055549
vt 0.785539 0.052795
vt 0.399767 0.802661
vt 0.391639 0.417326
vt 0.804835 0.460402
vt 0.764256 0.518398
vt 0.036076 0.816336
vt 0.035757 0.417503
vt 0.786797 0.037479
vt 0.778165 0.046112
vt 0.391727 0.802886
vt 0.381733 0.417603
vt 0.814159 0.464264
vt 0.770038 0.511352
vt 0.027685 0.816659
vt 0.024990 0.417835
vt 0.796235 0.029734
vt 0.793481 0.044853
vt 0.384147 0.803157
vt 0.372393 0.417937
vt 0.823817 0.467193
vt 0.776484 0.504906
vt 0.019883 0.817028
vt 0.014839 0.418226
vt 0.806386 0.022951
vt 0.802163 0.037728
vt 0.377099 0.803470
vt 0.363710 0.418323
vt 0.833715 0.469162
vt 0.783531 0.499123
vt 0.354300 0.405427
vt 0.376286 0.007506
vt 0.361437 0.405819
vt 0.821408 0.026193
vt 0.811502 0.031488
vt 0.370653 0.803824
vt 0.355766 0.418759
vt 0.843759 0.470152
vt 0.791110 0.494059
vt 0.346497 0.405080
vt 0.367652 0.007033
vt 0.817153 0.017196
vt 0.831785 0.021895
vt 0.735284 0.405142
vt 0.712666 0.789854
vt 0.726603 0.404707
vt 0.853851 0.470152
vt 0.799150 0.489762
vt 0.348061 0.006250
vt 0.358213 0.006613
vt 0.840115 0.008980
vt 0.828432 0.012524
vt 0.705087 0.789540
vt 0.717265 0.404320
vt 0.863895 0.469162
vt 0.807571 0.486273
vt 0.329203 0.404531
vt 0.338105 0.404781
vt 0.852089 0.006598
vt 0.842533 0.018634
vt 0.697049 0.789270
vt 0.707360 0.403987
vt 0.873794 0.467193
vt 0.816295 0.483627
vt 0.319878 0.404335
vt 0.337293 0.005949
vt 0.864727 0.015342
vt 0.853549 0.016443
vt 0.688627 0.789045
vt 0.696984 0.403710
vt 0.883452 0.464264
vt 0.825235 0.481849
vt 0.310220 0.404193
vt 0.326013 0.005711
vt 0.876447 0.005402
vt 0.864239 0.005402
vt 0.679905 0.788867
vt 0.686236 0.403491
vt 0.892776 0.460402
vt 0.834307 0.480955
vt 0.300321 0.404108
vt 0.314330 0.005540
vt 0.888597 0.006598
vt 0.875959 0.015342
vt 0.670965 0.788739
vt 0.675221 0.403333
vt 0.901676 0.455644
vt 0.843423 0.480955
vt 0.290277 0.404079
vt 0.302356 0.005436
vt 0.898153 0.018634
vt 0.887136 0.016443
vt 0.661893 0.788662
vt 0.664043 0.403238
vt 0.910068 0.450037
vt 0.852495 0.481849
vt 0.280185 0.404108
vt 0.290206 0.005402
vt 0.912254 0.012524
vt 0.900571 0.008980
vt 0.652777 0.788636
vt 0.652811 0.403206
vt 0.917869 0.443634
vt 0.861435 0.483627
vt 0.270142 0.404193
vt 0.277997 0.005436
vt 0.919278 0.026193
vt 0.908901 0.021895
vt 0.643705 0.788662
vt 0.641633 0.403238
vt 0.925006 0.436498
vt 0.870158 0.486273
vt 0.260243 0.404335
vt 0.265848 0.005540
vt 0.934300 0.022951
vt 0.923533 0.017196
vt 0.634764 0.788739
vt 0.630617 0.403333
vt 0.931408 0.428697
vt 0.878580 0.489762
vt 0.250586 0.404531
vt 0.253874 0.005711
vt 0.938522 0.037728
vt 0.929183 0.031488
vt 0.626041 0.788867
vt 0.619868 0.403491
vt 0.937015 0.420305
vt 0.886619 0.494059
vt 0.241263 0.404781
vt 0.242192 0.005949
vt 0.944451 0.029734
vt 0.947205 0.044853
vt 0.617619 0.789045
vt 0.609491 0.403710
vt 0.941773 0.411404
vt 0.894199 0.499123
vt 0.232363 0.405080
vt 0.230914 0.006250
vt 0.962521 0.046112
vt 0.953888 0.037479
vt 0.609578 0.789270
vt 0.599584 0.403987
vt 0.945635 0.402080
vt 0.901245 0.504906
vt 0.223972 0.405427
vt 0.220148 0.006613
vt 0.970266 0.055549
vt 0.955147 0.052795
vt 0.601998 0.789540
vt 0.590244 0.404320
vt 0.948565 0.392422
vt 0.907691 0.511352
vt 0.216172 0.405819
vt 0.209998 0.007033
vt 0.977049 0.065700
vt 0.962272 0.061478
vt 0.594951 0.789854
vt 0.581561 0.404707
vt 0.950534 0.382524
vt 0.913474 0.518398
vt 0.540828 0.405428
vt 0.562814 0.007506
vt 0.547965 0.405819
vt 0.973807 0.080722
vt 0.968512 0.070817
vt 0.588504 0.790207
vt 0.573618 0.405142
vt 0.951523 0.372480
vt 0.918539 0.525978
vt 0.533025 0.405080
vt 0.554180 0.007033
vt 0.982804 0.076467
vt 0.978105 0.091099
vt 0.735284 0.007338
vt 0.712666 0.392049
vt 0.726603 0.006902
vt 0.951523 0.362388
vt 0.922836 0.534017
vt 0.534589 0.006250
vt 0.544741 0.006613
vt 0.991020 0.099429
vt 0.987476 0.087746
vt 0.705087 0.391736
vt 0.717265 0.006516
vt 0.950534 0.352344
vt 0.926324 0.542439
vt 0.515731 0.404531
vt 0.524633 0.404781
vt 0.993402 0.111403
vt 0.981366 0.101847
vt 0.697049 0.391465
vt 0.707360 0.006182
vt 0.948565 0.342445
vt 0.928970 0.551162
vt 0.506406 0.404335
vt 0.523821 0.005949
vt 0.984658 0.124041
vt 0.983557 0.112863
vt 0.688627 0.391240
vt 0.696984 0.005905
vt 0.945635 0.332788
vt 0.930749 0.560103
vt 0.496748 0.404193
vt 0.512541 0.005711
vt 0.994598 0.135761
vt 0.994598 0.123553
vt 0.679905 0.391063
vt 0.686236 0.005686
vt 0.941773 0.323463
vt 0.931642 0.569175
vt 0.486849 0.404108
vt 0.500858 0.005540
vt 0.993402 0.147911
vt 0.984658 0.135273
vt 0.670965 0.390935
vt 0.675221 0.005529
vt 0.937015 0.314563
vt 0.931642 0.578290
vt 0.476805 0.404079
vt 0.488884 0.005436
vt 0.981366 0.157467
vt 0.983557 0.146451
vt 0.661893 0.390857
vt 0.664043 0.005434
vt 0.931408 0.306171
vt 0.930749 0.587362
vt 0.466713 0.404108
vt 0.476734 0.005402
vt 0.987476 0.171568
vt 0.991020 0.159885
vt 0.652777 0.390832
vt 0.652811 0.005402
vt 0.925006 0.298370
vt 0.928970 0.596303
vt 0.456669 0.404193
vt 0.464525 0.005436
vt 0.973807 0.178592
vt 0.978105 0.168215
vt 0.643705 0.390857
vt 0.641633 0.005434
vt 0.917869 0.291233
vt 0.926324 0.605026
vt 0.446771 0.404335
vt 0.452376 0.005540
vt 0.977049 0.193614
vt 0.982804 0.182847
vt 0.634764 0.390935
vt 0.630617 0.005529
vt 0.910068 0.284831
vt 0.922836 0.613448
vt 0.437114 0.404531
vt 0.440402 0.005711
vt 0.962272 0.197836
vt 0.968512 0.188498
vt 0.626041 0.391063
vt 0.619868 0.005686
vt 0.901676 0.279224
vt 0.918539 0.621487
vt 0.427791 0.404781
vt 0.428720 0.005949
vt 0.970266 0.203765
vt 0.955147 0.206519
vt 0.617619 0.391240
vt 0.609491 0.005905
vt 0.892776 0.274466
vt 0.913474 0.629067
vt 0.418891 0.405080
vt 0.417442 0.006250
vt 0.953888 0.221835
vt 0.962521 0.213202
vt 0.609578 0.391465
vt 0.599584 0.006182
vt 0.883452 0.270604
vt 0.907691 0.636113
vt 0.410500 0.405427
vt 0.406676 0.006613
vt 0.944451 0.229580
vt 0.947205 0.214461
vt 0.601998 0.391736
vt 0.590244 0.006516
vt 0.873794 0.267674
vt 0.901245 0.642559
vt 0.402700 0.405819
vt 0.396526 0.007033
vt 0.934300 0.236363
vt 0.938522 0.221586
vt 0.594951 0.392049
vt 0.581561 0.006902
vt 0.863895 0.265705
vt 0.894199 0.648342
vt 0.166644 0.405607
vt 0.189758 0.007750
vt 0.173781 0.406019
vt 0.919278 0.233121
vt 0.929183 0.227827
vt 0.588504 0.392403
vt 0.573618 0.007338
vt 0.853851 0.264716
vt 0.886619 0.653406
vt 0.158843 0.405238
vt 0.181125 0.007252
vt 0.923533 0.242118
vt 0.908901 0.237419
vt 0.344963 0.418759
vt 0.322345 0.803470
vt 0.336281 0.418323
vt 0.843759 0.264716
vt 0.878580 0.657703
vt 0.161537 0.006414
vt 0.171688 0.006805
vt 0.900571 0.250334
vt 0.912254 0.246790
vt 0.314766 0.803157
vt 0.326944 0.417937
vt 0.833715 0.265705
vt 0.870158 0.661192
vt 0.141550 0.404640
vt 0.150451 0.404915
vt 0.888597 0.252716
vt 0.898153 0.240680
vt 0.306727 0.802886
vt 0.317039 0.417603
vt 0.823817 0.267674
vt 0.861435 0.663838
vt 0.150770 0.006082
vt 0.887137 0.242871
vt 0.298306 0.802661
vt 0.005402 0.007750
vt 0.501860 0.803824
vt 0.005402 0.418673
vt 0.719711 0.790207
vt 0.200562 0.007506
vt 0.719711 0.392403
vt 0.387090 0.007506
vt 0.329390 0.803824
s 0
usemtl ARAT_cup_red
f 2/1/1 65/2/1 1/3/1
f 66/4/2 129/5/2 65/6/2
f 129/7/3 194/8/3 130/9/3
f 2/10/4 1/11/4 257/12/4
f 193/13/2 194/14/2 258/15/2
f 3/16/5 66/17/5 2/1/5
f 67/18/2 130/19/2 66/4/2
f 130/9/6 195/20/6 131/21/6
f 3/22/4 2/10/4 257/12/4
f 194/14/2 195/23/2 258/15/2
f 4/24/7 67/25/7 3/16/7
f 67/18/2 132/26/2 131/27/2
f 131/21/8 196/28/8 132/29/8
f 4/30/4 3/22/4 257/12/4
f 195/23/2 196/31/2 258/15/2
f 5/32/9 68/33/9 4/24/9
f 69/34/2 132/26/2 68/35/2
f 132/29/10 197/36/10 133/37/10
f 5/38/4 4/30/4 257/12/4
f 196/31/2 197/39/2 258/15/2
f 6/40/11 69/41/11 5/32/11
f 69/34/2 134/42/2 133/43/2
f 133/37/12 198/44/12 134/45/12
f 6/46/4 5/38/4 257/12/4
f 197/39/2 198/47/2 258/15/2
f 7/48/13 70/49/13 6/40/13
f 71/50/2 134/42/2 70/51/2
f 134/45/14 199/52/14 135/53/14
f 7/54/4 6/46/4 257/12/4
f 198/47/2 199/55/2 258/15/2
f 8/56/15 71/57/15 7/48/15
f 71/50/2 136/58/2 135/59/2
f 135/53/16 200/60/16 136/61/16
f 8/62/4 7/54/4 257/12/4
f 199/55/2 200/63/2 258/15/2
f 9/64/17 72/65/17 8/56/17
f 72/66/2 137/67/2 136/58/2
f 136/61/18 201/68/18 137/69/18
f 9/70/4 8/62/4 257/12/4
f 200/63/2 201/71/2 258/15/2
f 10/72/19 73/73/19 9/64/19
f 74/74/2 137/67/2 73/75/2
f 137/69/20 202/76/20 138/77/20
f 10/78/4 9/70/4 257/12/4
f 201/71/2 202/79/2 258/15/2
f 11/80/21 74/81/21 10/72/21
f 75/82/2 138/83/2 74/74/2
f 138/77/22 203/84/22 139/85/22
f 11/86/4 10/78/4 257/12/4
f 202/79/2 203/87/2 258/15/2
f 12/88/23 75/89/23 11/80/23
f 76/90/2 139/91/2 75/82/2
f 139/85/24 204/92/24 140/93/24
f 12/94/4 11/86/4 257/12/4
f 203/87/2 204/95/2 258/15/2
f 13/96/25 76/97/25 12/88/25
f 76/90/2 141/98/2 140/99/2
f 140/93/26 205/100/26 141/101/26
f 13/102/4 12/94/4 257/12/4
f 204/95/2 205/103/2 258/15/2
f 14/104/27 77/105/27 13/106/27
f 77/107/2 142/108/2 141/98/2
f 141/109/28 206/110/28 142/111/28
f 14/112/4 13/102/4 257/12/4
f 205/103/2 206/113/2 258/15/2
f 14/104/29 79/114/29 78/115/29
f 79/116/2 142/108/2 78/117/2
f 142/111/30 207/118/30 143/119/30
f 15/120/4 14/112/4 257/12/4
f 206/113/2 207/121/2 258/15/2
f 16/122/31 79/114/31 15/123/31
f 80/124/2 143/125/2 79/116/2
f 143/119/32 208/126/32 144/127/32
f 16/128/4 15/120/4 257/12/4
f 207/121/2 208/129/2 258/15/2
f 17/130/33 80/131/33 16/122/33
f 80/124/2 145/132/2 144/133/2
f 144/127/34 209/134/34 145/135/34
f 17/136/4 16/128/4 257/12/4
f 208/129/2 209/137/2 258/15/2
f 18/138/35 81/139/35 17/130/35
f 82/140/2 145/132/2 81/141/2
f 145/135/36 210/142/36 146/143/36
f 18/144/4 17/136/4 257/12/4
f 209/137/2 210/145/2 258/15/2
f 19/146/37 82/147/37 18/138/37
f 83/148/2 146/149/2 82/140/2
f 146/143/38 211/150/38 147/151/38
f 19/152/4 18/144/4 257/12/4
f 210/145/2 211/153/2 258/15/2
f 20/154/39 83/155/39 19/146/39
f 83/148/2 148/156/2 147/157/2
f 147/151/40 212/158/40 148/159/40
f 20/160/4 19/152/4 257/12/4
f 211/153/2 212/161/2 258/15/2
f 21/162/41 84/163/41 20/154/41
f 85/164/2 148/156/2 84/165/2
f 148/159/42 213/166/42 149/167/42
f 21/168/4 20/160/4 257/12/4
f 212/161/2 213/169/2 258/15/2
f 22/170/43 85/171/43 21/162/43
f 85/164/2 150/172/2 149/173/2
f 149/167/44 214/174/44 150/175/44
f 22/176/4 21/168/4 257/12/4
f 213/169/2 214/177/2 258/15/2
f 23/178/45 86/179/45 22/170/45
f 87/180/2 150/172/2 86/181/2
f 150/175/46 215/182/46 151/183/46
f 23/184/4 22/176/4 257/12/4
f 214/177/2 215/185/2 258/15/2
f 24/186/47 87/187/47 23/178/47
f 87/180/2 152/188/2 151/189/2
f 151/183/48 216/190/48 152/191/48
f 24/192/4 23/184/4 257/12/4
f 215/185/2 216/193/2 258/15/2
f 25/194/49 88/195/49 24/186/49
f 88/196/2 153/197/2 152/188/2
f 152/191/50 217/198/50 153/199/50
f 25/200/4 24/192/4 257/12/4
f 216/193/2 217/201/2 258/15/2
f 26/202/51 89/203/51 25/194/51
f 90/204/2 153/197/2 89/205/2
f 153/199/52 218/206/52 154/207/52
f 26/208/4 25/200/4 257/12/4
f 217/201/2 218/209/2 258/15/2
f 27/210/53 90/211/53 26/202/53
f 91/212/2 154/213/2 90/204/2
f 154/207/54 219/214/54 155/215/54
f 27/216/4 26/208/4 257/12/4
f 218/209/2 219/217/2 258/15/2
f 28/218/55 91/219/55 27/210/55
f 92/220/2 155/221/2 91/212/2
f 155/215/56 220/222/56 156/223/56
f 28/224/4 27/216/4 257/12/4
f 219/217/2 220/225/2 258/15/2
f 29/226/57 92/227/57 28/228/57
f 92/220/2 157/229/2 156/230/2
f 156/223/58 221/231/58 157/232/58
f 29/233/4 28/224/4 257/12/4
f 220/225/2 221/234/2 258/15/2
f 30/235/59 93/236/59 29/226/59
f 93/237/2 158/238/2 157/229/2
f 157/239/60 222/240/60 158/241/60
f 30/242/4 29/233/4 257/12/4
f 221/234/2 222/243/2 258/15/2
f 30/235/61 95/244/61 94/245/61
f 95/246/2 158/238/2 94/247/2
f 158/241/62 223/248/62 159/249/62
f 31/250/4 30/242/4 257/12/4
f 222/243/2 223/251/2 258/15/2
f 32/252/63 95/244/63 31/253/63
f 96/254/2 159/255/2 95/246/2
f 159/249/64 224/256/64 160/257/64
f 32/258/4 31/250/4 257/12/4
f 223/251/2 224/259/2 258/15/2
f 33/260/65 96/261/65 32/252/65
f 96/254/2 161/262/2 160/263/2
f 160/257/66 225/264/66 161/265/66
f 33/266/4 32/258/4 257/12/4
f 224/259/2 225/267/2 258/15/2
f 34/268/67 97/269/67 33/260/67
f 98/270/2 161/262/2 97/271/2
f 161/265/68 226/272/68 162/273/68
f 34/274/4 33/266/4 257/12/4
f 225/267/2 226/275/2 258/15/2
f 35/276/69 98/277/69 34/268/69
f 99/278/2 162/279/2 98/270/2
f 162/273/70 227/280/70 163/281/70
f 35/282/4 34/274/4 257/12/4
f 226/275/2 227/283/2 258/15/2
f 36/284/71 99/285/71 35/276/71
f 99/278/2 164/286/2 163/287/2
f 163/281/72 228/288/72 164/289/72
f 36/290/4 35/282/4 257/12/4
f 227/283/2 228/291/2 258/15/2
f 37/292/73 100/293/73 36/284/73
f 101/294/2 164/286/2 100/295/2
f 164/289/74 229/296/74 165/297/74
f 37/298/4 36/290/4 257/12/4
f 228/291/2 229/299/2 258/15/2
f 38/300/75 101/301/75 37/292/75
f 101/294/2 166/302/2 165/303/2
f 165/297/76 230/304/76 166/305/76
f 38/306/4 37/298/4 257/12/4
f 229/299/2 230/307/2 258/15/2
f 39/308/77 102/309/77 38/300/77
f 103/310/2 166/302/2 102/311/2
f 166/305/78 231/312/78 167/313/78
f 39/314/4 38/306/4 257/12/4
f 230/307/2 231/315/2 258/15/2
f 40/316/79 103/317/79 39/308/79
f 103/310/2 168/318/2 167/319/2
f 167/313/80 232/320/80 168/321/80
f 40/322/4 39/314/4 257/12/4
f 231/315/2 232/323/2 258/15/2
f 41/324/81 104/325/81 40/316/81
f 104/326/2 169/327/2 168/318/2
f 168/321/82 233/328/82 169/329/82
f 41/330/4 40/322/4 257/12/4
f 232/323/2 233/331/2 258/15/2
f 42/332/83 105/333/83 41/324/83
f 106/334/2 169/327/2 105/335/2
f 169/329/84 234/336/84 170/337/84
f 42/338/4 41/330/4 257/12/4
f 233/331/2 234/339/2 258/15/2
f 43/340/85 106/341/85 42/332/85
f 107/342/2 170/343/2 106/334/2
f 170/337/86 235/344/86 171/345/86
f 43/346/4 42/338/4 257/12/4
f 234/339/2 235/347/2 258/15/2
f 44/348/87 107/349/87 43/340/87
f 108/350/2 171/351/2 107/342/2
f 171/345/88 236/352/88 172/353/88
f 44/354/4 43/346/4 257/12/4
f 235/347/2 236/355/2 258/15/2
f 45/356/89 108/357/89 44/358/89
f 108/350/2 173/359/2 172/360/2
f 172/353/90 237/361/90 173/362/90
f 45/363/4 44/354/4 257/12/4
f 236/355/2 237/364/2 258/15/2
f 46/365/91 109/366/91 45/356/91
f 109/367/2 174/368/2 173/359/2
f 173/369/92 238/370/92 174/371/92
f 46/372/4 45/363/4 257/12/4
f 237/364/2 238/373/2 258/15/2
f 46/365/93 111/374/93 110/375/93
f 111/376/2 174/368/2 110/377/2
f 174/371/94 239/378/94 175/379/94
f 47/380/4 46/372/4 257/12/4
f 238/373/2 239/381/2 258/15/2
f 48/382/95 111/374/95 47/383/95
f 112/384/2 175/385/2 111/376/2
f 175/379/96 240/386/96 176/387/96
f 48/388/4 47/380/4 257/12/4
f 239/381/2 240/389/2 258/15/2
f 49/390/97 112/391/97 48/382/97
f 112/384/2 177/392/2 176/393/2
f 176/387/98 241/394/98 177/395/98
f 49/396/4 48/388/4 257/12/4
f 240/389/2 241/397/2 258/15/2
f 50/398/99 113/399/99 49/390/99
f 114/400/2 177/392/2 113/401/2
f 177/395/100 242/402/100 178/403/100
f 50/404/4 49/396/4 257/12/4
f 241/397/2 242/405/2 258/15/2
f 51/406/101 114/407/101 50/398/101
f 115/408/2 178/409/2 114/400/2
f 178/403/102 243/410/102 179/411/102
f 51/412/4 50/404/4 257/12/4
f 242/405/2 243/413/2 258/15/2
f 52/414/103 115/415/103 51/406/103
f 115/408/2 180/416/2 179/417/2
f 179/411/104 244/418/104 180/419/104
f 52/420/4 51/412/4 257/12/4
f 243/413/2 244/421/2 258/15/2
f 53/422/105 116/423/105 52/414/105
f 117/424/2 180/416/2 116/425/2
f 180/419/106 245/426/106 181/427/106
f 53/428/4 52/420/4 257/12/4
f 244/421/2 245/429/2 258/15/2
f 54/430/107 117/431/107 53/422/107
f 117/424/2 182/432/2 181/433/2
f 181/427/108 246/434/108 182/435/108
f 54/436/4 53/428/4 257/12/4
f 245/429/2 246/437/2 258/15/2
f 55/438/109 118/439/109 54/430/109
f 119/440/2 182/432/2 118/441/2
f 182/435/110 247/442/110 183/443/110
f 55/444/4 54/436/4 257/12/4
f 246/437/2 247/445/2 258/15/2
f 56/446/111 119/447/111 55/438/111
f 119/440/2 184/448/2 183/449/2
f 183/443/112 248/450/112 184/451/112
f 56/452/4 55/444/4 257/12/4
f 247/445/2 248/453/2 258/15/2
f 57/454/113 120/455/113 56/446/113
f 120/456/2 185/457/2 184/448/2
f 184/451/114 249/458/114 185/459/114
f 57/460/4 56/452/4 257/12/4
f 248/453/2 249/461/2 258/15/2
f 58/462/115 121/463/115 57/454/115
f 122/464/2 185/457/2 121/465/2
f 185/459/116 250/466/116 186/467/116
f 58/468/4 57/460/4 257/12/4
f 249/461/2 250/469/2 258/15/2
f 59/470/117 122/471/117 58/462/117
f 123/472/2 186/473/2 122/464/2
f 186/467/118 251/474/118 187/475/118
f 59/476/4 58/468/4 257/12/4
f 250/469/2 251/477/2 258/15/2
f 60/478/119 123/479/119 59/470/119
f 124/480/2 187/481/2 123/472/2
f 187/475/120 252/482/120 188/483/120
f 60/484/4 59/476/4 257/12/4
f 251/477/2 252/485/2 258/15/2
f 61/486/121 124/487/121 60/488/121
f 124/480/2 189/489/2 188/490/2
f 188/483/122 253/491/122 189/492/122
f 61/493/4 60/484/4 257/12/4
f 252/485/2 253/494/2 258/15/2
f 62/495/123 125/496/123 61/486/123
f 125/497/2 190/498/2 189/489/2
f 189/499/124 254/500/124 190/501/124
f 62/502/4 61/493/4 257/12/4
f 253/494/2 254/503/2 258/15/2
f 62/495/125 127/504/125 126/505/125
f 127/506/2 190/498/2 126/507/2
f 190/501/126 255/508/126 191/509/126
f 63/510/4 62/502/4 257/12/4
f 254/503/2 255/511/2 258/15/2
f 64/512/127 127/504/127 63/513/127
f 128/514/2 191/515/2 127/506/2
f 191/509/128 256/516/128 192/517/128
f 64/518/4 63/510/4 257/12/4
f 255/511/2 256/519/2 258/15/2
f 1/3/129 128/520/129 64/512/129
f 128/514/2 129/5/2 192/521/2
f 192/517/130 193/522/130 129/7/130
f 1/11/4 64/518/4 257/12/4
f 256/519/2 193/13/2 258/15/2
f 2/1/1 66/17/1 65/2/1
f 66/4/2 130/19/2 129/5/2
f 129/7/3 193/522/3 194/8/3
f 3/16/5 67/25/5 66/17/5
f 67/18/2 131/27/2 130/19/2
f 130/9/6 194/8/6 195/20/6
f 4/24/7 68/33/7 67/25/7
f 67/18/2 68/35/2 132/26/2
f 131/21/8 195/20/8 196/28/8
f 5/32/9 69/41/9 68/33/9
f 69/34/2 133/43/2 132/26/2
f 132/29/10 196/28/10 197/36/10
f 6/40/11 70/49/11 69/41/11
f 69/34/2 70/51/2 134/42/2
f 133/37/12 197/36/12 198/44/12
f 7/48/13 71/57/13 70/49/13
f 71/50/2 135/59/2 134/42/2
f 134/45/14 198/44/14 199/52/14
f 8/56/15 72/65/15 71/57/15
f 71/50/2 72/66/2 136/58/2
f 135/53/16 199/52/16 200/60/16
f 9/64/17 73/73/17 72/65/17
f 72/66/2 73/75/2 137/67/2
f 136/61/18 200/60/18 201/68/18
f 10/72/19 74/81/19 73/73/19
f 74/74/2 138/83/2 137/67/2
f 137/69/20 201/68/20 202/76/20
f 11/80/21 75/89/21 74/81/21
f 75/82/2 139/91/2 138/83/2
f 138/77/22 202/76/22 203/84/22
f 12/88/23 76/97/23 75/89/23
f 76/90/2 140/99/2 139/91/2
f 139/85/24 203/84/24 204/92/24
f 13/96/25 77/523/25 76/97/25
f 76/90/2 77/107/2 141/98/2
f 140/93/26 204/92/26 205/100/26
f 14/104/27 78/115/27 77/105/27
f 77/107/2 78/117/2 142/108/2
f 141/109/28 205/524/28 206/110/28
f 14/104/29 15/123/29 79/114/29
f 79/116/2 143/125/2 142/108/2
f 142/111/30 206/110/30 207/118/30
f 16/122/31 80/131/31 79/114/31
f 80/124/2 144/133/2 143/125/2
f 143/119/32 207/118/32 208/126/32
f 17/130/33 81/139/33 80/131/33
f 80/124/2 81/141/2 145/132/2
f 144/127/34 208/126/34 209/134/34
f 18/138/35 82/147/35 81/139/35
f 82/140/2 146/149/2 145/132/2
f 145/135/36 209/134/36 210/142/36
f 19/146/37 83/155/37 82/147/37
f 83/148/2 147/157/2 146/149/2
f 146/143/38 210/142/38 211/150/38
f 20/154/39 84/163/39 83/155/39
f 83/148/2 84/165/2 148/156/2
f 147/151/40 211/150/40 212/158/40
f 21/162/41 85/171/41 84/163/41
f 85/164/2 149/173/2 148/156/2
f 148/159/42 212/158/42 213/166/42
f 22/170/43 86/179/43 85/171/43
f 85/164/2 86/181/2 150/172/2
f 149/167/44 213/166/44 214/174/44
f 23/178/45 87/187/45 86/179/45
f 87/180/2 151/189/2 150/172/2
f 150/175/46 214/174/46 215/182/46
f 24/186/47 88/195/47 87/187/47
f 87/180/2 88/196/2 152/188/2
f 151/183/48 215/182/48 216/190/48
f 25/194/49 89/203/49 88/195/49
f 88/196/2 89/205/2 153/197/2
f 152/191/50 216/190/50 217/198/50
f 26/202/51 90/211/51 89/203/51
f 90/204/2 154/213/2 153/197/2
f 153/199/52 217/198/52 218/206/52
f 27/210/53 91/219/53 90/211/53
f 91/212/2 155/221/2 154/213/2
f 154/207/54 218/206/54 219/214/54
f 28/218/55 92/525/55 91/219/55
f 92/220/2 156/230/2 155/221/2
f 155/215/56 219/214/56 220/222/56
f 29/226/57 93/236/57 92/227/57
f 92/220/2 93/237/2 157/229/2
f 156/223/58 220/222/58 221/231/58
f 30/235/59 94/245/59 93/236/59
f 93/237/2 94/247/2 158/238/2
f 157/239/60 221/526/60 222/240/60
f 30/235/61 31/253/61 95/244/61
f 95/246/2 159/255/2 158/238/2
f 158/241/62 222/240/62 223/248/62
f 32/252/63 96/261/63 95/244/63
f 96/254/2 160/263/2 159/255/2
f 159/249/64 223/248/64 224/256/64
f 33/260/65 97/269/65 96/261/65
f 96/254/2 97/271/2 161/262/2
f 160/257/66 224/256/66 225/264/66
f 34/268/67 98/277/67 97/269/67
f 98/270/2 162/279/2 161/262/2
f 161/265/68 225/264/68 226/272/68
f 35/276/69 99/285/69 98/277/69
f 99/278/2 163/287/2 162/279/2
f 162/273/70 226/272/70 227/280/70
f 36/284/71 100/293/71 99/285/71
f 99/278/2 100/295/2 164/286/2
f 163/281/72 227/280/72 228/288/72
f 37/292/73 101/301/73 100/293/73
f 101/294/2 165/303/2 164/286/2
f 164/289/74 228/288/74 229/296/74
f 38/300/75 102/309/75 101/301/75
f 101/294/2 102/311/2 166/302/2
f 165/297/76 229/296/76 230/304/76
f 39/308/77 103/317/77 102/309/77
f 103/310/2 167/319/2 166/302/2
f 166/305/78 230/304/78 231/312/78
f 40/316/79 104/325/79 103/317/79
f 103/310/2 104/326/2 168/318/2
f 167/313/80 231/312/80 232/320/80
f 41/324/81 105/333/81 104/325/81
f 104/326/2 105/335/2 169/327/2
f 168/321/82 232/320/82 233/328/82
f 42/332/83 106/341/83 105/333/83
f 106/334/2 170/343/2 169/327/2
f 169/329/84 233/328/84 234/336/84
f 43/340/85 107/349/85 106/341/85
f 107/342/2 171/351/2 170/343/2
f 170/337/86 234/336/86 235/344/86
f 44/348/87 108/527/87 107/349/87
f 108/350/2 172/360/2 171/351/2
f 171/345/88 235/344/88 236/352/88
f 45/356/89 109/366/89 108/357/89
f 108/350/2 109/367/2 173/359/2
f 172/353/90 236/352/90 237/361/90
f 46/365/91 110/375/91 109/366/91
f 109/367/2 110/377/2 174/368/2
f 173/369/92 237/528/92 238/370/92
f 46/365/93 47/383/93 111/374/93
f 111/376/2 175/385/2 174/368/2
f 174/371/94 238/370/94 239/378/94
f 48/382/95 112/391/95 111/374/95
f 112/384/2 176/393/2 175/385/2
f 175/379/96 239/378/96 240/386/96
f 49/390/97 113/399/97 112/391/97
f 112/384/2 113/401/2 177/392/2
f 176/387/98 240/386/98 241/394/98
f 50/398/99 114/407/99 113/399/99
f 114/400/2 178/409/2 177/392/2
f 177/395/100 241/394/100 242/402/100
f 51/406/101 115/415/101 114/407/101
f 115/408/2 179/417/2 178/409/2
f 178/403/102 242/402/102 243/410/102
f 52/414/103 116/423/103 115/415/103
f 115/408/2 116/425/2 180/416/2
f 179/411/104 243/410/104 244/418/104
f 53/422/105 117/431/105 116/423/105
f 117/424/2 181/433/2 180/416/2
f 180/419/106 244/418/106 245/426/106
f 54/430/107 118/439/107 117/431/107
f 117/424/2 118/441/2 182/432/2
f 181/427/108 245/426/108 246/434/108
f 55/438/109 119/447/109 118/439/109
f 119/440/2 183/449/2 182/432/2
f 182/435/110 246/434/110 247/442/110
f 56/446/111 120/455/111 119/447/111
f 119/440/2 120/456/2 184/448/2
f 183/443/112 247/442/112 248/450/112
f 57/454/113 121/463/113 120/455/113
f 120/456/2 121/465/2 185/457/2
f 184/451/114 248/450/114 249/458/114
f 58/462/115 122/471/115 121/463/115
f 122/464/2 186/473/2 185/457/2
f 185/459/116 249/458/116 250/466/116
f 59/470/117 123/479/117 122/471/117
f 123/472/2 187/481/2 186/473/2
f 186/467/118 250/466/118 251/474/118
f 60/478/119 124/529/119 123/479/119
f 124/480/2 188/490/2 187/481/2
f 187/475/120 251/474/120 252/482/120
f 61/486/121 125/496/121 124/487/121
f 124/480/2 125/497/2 189/489/2
f 188/483/122 252/482/122 253/491/122
f 62/495/123 126/505/123 125/496/123
f 125/497/2 126/507/2 190/498/2
f 189/499/124 253/530/124 254/500/124
f 62/495/125 63/513/125 127/504/125
f 127/506/2 191/515/2 190/498/2
f 190/501/126 254/500/126 255/508/126
f 64/512/127 128/520/127 127/504/127
f 128/514/2 192/521/2 191/515/2
f 191/509/128 255/508/128 256/516/128
f 1/3/129 65/2/129 128/520/129
f 128/514/2 65/6/2 129/5/2
f 192/517/130 256/516/130 193/522/130
