# Blender 4.5.11 LTS
# www.blender.org
mtllib visual.mtl
o wooden_block_10
v -0.048500 -0.048500 0.000000
v -0.048500 -0.050000 0.001500
v -0.050000 -0.048500 0.001500
v -0.048500 -0.049249 0.000200
v -0.049249 -0.048500 0.000200
v -0.049217 -0.049217 0.000395
v -0.049249 -0.049800 0.001500
v -0.048500 -0.049800 0.000751
v -0.049217 -0.049605 0.000783
v -0.049800 -0.048500 0.000751
v -0.049800 -0.049249 0.001500
v -0.049605 -0.049217 0.000783
v -0.048500 -0.050000 0.098500
v -0.048500 -0.048500 0.100000
v -0.050000 -0.048500 0.098500
v -0.048500 -0.049800 0.099249
v -0.049249 -0.049800 0.098500
v -0.049217 -0.049605 0.099217
v -0.049249 -0.048500 0.099800
v -0.048500 -0.049249 0.099800
v -0.049217 -0.049217 0.099605
v -0.049800 -0.049249 0.098500
v -0.049800 -0.048500 0.099249
v -0.049605 -0.049217 0.099217
v -0.048500 0.048500 0.000000
v -0.050000 0.048500 0.001500
v -0.048500 0.050000 0.001500
v -0.049249 0.048500 0.000200
v -0.048500 0.049249 0.000200
v -0.049217 0.049217 0.000395
v -0.049800 0.049249 0.001500
v -0.049800 0.048500 0.000751
v -0.049605 0.049217 0.000783
v -0.048500 0.049800 0.000751
v -0.049249 0.049800 0.001500
v -0.049217 0.049605 0.000783
v -0.048500 0.048500 0.100000
v -0.048500 0.050000 0.098500
v -0.050000 0.048500 0.098500
v -0.048500 0.049249 0.099800
v -0.049249 0.048500 0.099800
v -0.049217 0.049217 0.099605
v -0.049249 0.049800 0.098500
v -0.048500 0.049800 0.099249
v -0.049217 0.049605 0.099217
v -0.049800 0.048500 0.099249
v -0.049800 0.049249 0.098500
v -0.049605 0.049217 0.099217
v 0.048500 -0.048500 0.000000
v 0.050000 -0.048500 0.001500
v 0.048500 -0.050000 0.001500
v 0.049249 -0.048500 0.000200
v 0.048500 -0.049249 0.000200
v 0.049217 -0.049217 0.000395
v 0.049800 -0.049249 0.001500
v 0.049800 -0.048500 0.000751
v 0.049605 -0.049217 0.000783
v 0.048500 -0.049800 0.000751
v 0.049249 -0.049800 0.001500
v 0.049217 -0.049605 0.000783
v 0.048500 -0.048500 0.100000
v 0.048500 -0.050000 0.098500
v 0.050000 -0.048500 0.098500
v 0.048500 -0.049249 0.099800
v 0.049249 -0.048500 0.099800
v 0.049217 -0.049217 0.099605
v 0.049249 -0.049800 0.098500
v 0.048500 -0.049800 0.099249
v 0.049217 -0.049605 0.099217
v 0.049800 -0.048500 0.099249
v 0.049800 -0.049249 0.098500
v 0.049605 -0.049217 0.099217
v 0.048500 0.048500 0.000000
v 0.048500 0.050000 0.001500
v 0.050000 0.048500 0.001500
v 0.048500 0.049249 0.000200
v 0.049249 0.048500 0.000200
v 0.049217 0.049217 0.000395
v 0.049249 0.049800 0.001500
v 0.048500 0.049800 0.000751
v 0.049217 0.049605 0.000783
v 0.049800 0.048500 0.000751
v 0.049800 0.049249 0.001500
v 0.049605 0.049217 0.000783
v 0.048500 0.048500 0.100000
v 0.050000 0.048500 0.098500
v 0.048500 0.050000 0.098500
v 0.049249 0.048500 0.099800
v 0.048500 0.049249 0.099800
v 0.049217 0.049217 0.099605
v 0.049800 0.049249 0.098500
v 0.049800 0.048500 0.099249
v 0.049605 0.049217 0.099217
v 0.048500 0.049800 0.099249
v 0.049249 0.049800 0.098500
v 0.049217 0.049605 0.099217
vn -0.2502 -0.2502 -0.9353
vn -0.2178 -0.6901 -0.6901
vn -0.2502 -0.9353 -0.2502
vn -0.6901 -0.6901 -0.2178
vn -0.9353 -0.2502 -0.2502
vn -0.6901 -0.2178 -0.6901
vn -0.5773 -0.5774 -0.5774
vn -0.2502 -0.9353 0.2502
vn -0.2178 -0.6901 0.6901
vn -0.2502 -0.2502 0.9353
vn -0.6901 -0.2178 0.6902
vn -0.9353 -0.2502 0.2502
vn -0.6901 -0.6901 0.2178
vn -0.5773 -0.5774 0.5774
vn -0.2502 0.2502 -0.9353
vn -0.6901 0.2178 -0.6901
vn -0.9353 0.2502 -0.2502
vn -0.6901 0.6901 -0.2178
vn -0.2502 0.9353 -0.2502
vn -0.2178 0.6901 -0.6901
vn -0.5773 0.5774 -0.5774
vn -0.2502 0.2502 0.9353
vn -0.2178 0.6901 0.6901
vn -0.2502 0.9353 0.2502
vn -0.6901 0.6901 0.2178
vn -0.9353 0.2502 0.2502
vn -0.6901 0.2178 0.6901
vn -0.5773 0.5774 0.5774
vn 0.2502 -0.2502 -0.9353
vn 0.6901 -0.2178 -0.6901
vn 0.9353 -0.2502 -0.2502
vn 0.6901 -0.6901 -0.2178
vn 0.2502 -0.9353 -0.2502
vn 0.2178 -0.6901 -0.6901
vn 0.5773 -0.5774 -0.5774
vn 0.2502 -0.2502 0.9353
vn 0.2178 -0.6901 0.6901
vn 0.2502 -0.9353 0.2502
vn 0.6901 -0.6901 0.2178
vn 0.9353 -0.2502 0.2502
vn 0.6901 -0.2178 0.6901
vn 0.5773 -0.5774 0.5774
vn 0.2502 0.2502 -0.9353
vn 0.2178 0.6901 -0.6901
vn 0.2502 0.9353 -0.2502
vn 0.6901 0.6901 -0.2178
vn 0.9353 0.2502 -0.2502
vn 0.6901 0.2178 -0.6901
vn 0.5773 0.5774 -0.5774
vn 0.2502 0.2502 0.9353
vn 0.6901 0.2178 0.6902
vn 0.9353 0.2502 0.2502
vn 0.6901 0.6901 0.2178
vn 0.2502 0.9353 0.2502
vn 0.2178 0.6901 0.6901
vn 0.5773 0.5774 0.5774
vn -0.2585 -0.0000 -0.9660
vn -0.7071 -0.0000 -0.7071
vn -0.9660 -0.0000 -0.2585
vn -0.2585 -0.9660 -0.0000
vn -0.7071 -0.7071 -0.0000
vn -0.9660 -0.2584 -0.0000
vn -0.2585 -0.0000 0.9660
vn -0.7071 -0.0000 0.7071
vn -0.9660 -0.0000 0.2585
vn -0.2585 0.9660 -0.0000
vn -0.7071 0.7071 -0.0000
vn -0.9660 0.2584 -0.0000
vn -0.0000 0.2585 -0.9660
vn -0.0000 0.7071 -0.7071
vn -0.0000 0.9660 -0.2584
vn -0.0000 0.2585 0.9660
vn -0.0000 0.7071 0.7071
vn -0.0000 0.9660 0.2584
vn 0.9660 0.2585 -0.0000
vn 0.7071 0.7071 -0.0000
vn 0.2585 0.9660 -0.0000
vn 0.2585 -0.0000 -0.9660
vn 0.7071 -0.0000 -0.7071
vn 0.9660 -0.0000 -0.2585
vn 0.2585 -0.0000 0.9660
vn 0.7071 -0.0000 0.7071
vn 0.9660 -0.0000 0.2585
vn 0.2585 -0.9660 -0.0000
vn 0.7071 -0.7071 -0.0000
vn 0.9660 -0.2584 -0.0000
vn -0.0000 -0.2585 -0.9660
vn -0.0000 -0.7071 -0.7071
vn -0.0000 -0.9660 -0.2584
vn -0.0000 -0.2585 0.9660
vn -0.0000 -0.7071 0.7071
vn -0.0000 -0.9660 0.2584
vn -0.0000 -0.0000 -1.0000
vn -1.0000 -0.0000 -0.0000
vn -0.0000 -1.0000 -0.0000
vn -0.0000 -0.0000 1.0000
vn -0.0000 1.0000 -0.0000
vn 1.0000 -0.0000 -0.0000
vn -0.2635 -0.2635 -0.9280
vn -0.2635 -0.9280 -0.2635
vn -0.9280 -0.2635 -0.2635
vn -0.2635 -0.9280 0.2635
vn -0.2635 -0.2635 0.9280
vn -0.6901 -0.2178 0.6901
vn -0.9280 -0.2635 0.2635
vn -0.6902 -0.6901 0.2178
vn -0.2635 0.2635 -0.9280
vn -0.9280 0.2635 -0.2635
vn -0.2635 0.9280 -0.2635
vn -0.2635 0.2635 0.9280
vn -0.2635 0.9280 0.2635
vn -0.9280 0.2635 0.2635
vn 0.2635 -0.2635 -0.9280
vn 0.9280 -0.2635 -0.2635
vn 0.2635 -0.9280 -0.2635
vn 0.2635 -0.2635 0.9280
vn 0.2635 -0.9280 0.2635
vn 0.9280 -0.2635 0.2635
vn 0.2635 0.2635 -0.9280
vn 0.2635 0.9280 -0.2635
vn 0.9280 0.2635 -0.2635
vn 0.2635 0.2635 0.9280
vn 0.6901 0.2178 0.6901
vn 0.9280 0.2635 0.2635
vn 0.6902 0.6901 0.2178
vn 0.2635 0.9280 0.2635
vn -0.9660 -0.2585 -0.0000
vn -0.9660 -0.0000 0.2584
vn -0.9660 0.2585 -0.0000
vn -0.0000 0.9660 -0.2585
vn -0.0000 0.9660 0.2585
vn 0.9660 0.2584 -0.0000
vn 0.9660 -0.0000 0.2584
vn 0.9660 -0.2585 -0.0000
vn -0.0000 -0.9660 -0.2585
vn -0.0000 -0.9660 0.2585
vt -0.106250 -0.115613
vt -0.115613 -0.106250
vt -0.106250 -0.106250
vt -0.115216 -0.120062
vt -0.115216 -0.115216
vt -0.122495 -0.106250
vt -0.120062 -0.115216
vt -0.106250 1.115613
vt -0.115613 1.106250
vt -0.106250 1.106250
vt -0.106250 -0.122495
vt -0.120062 1.115216
vt -0.122495 1.106250
vt -0.115216 1.115216
vt 1.115613 -0.106250
vt 1.106250 -0.115613
vt 1.106250 -0.106250
vt -0.115216 1.120062
vt -0.106250 1.122495
vt 1.106250 1.115613
vt 1.115613 1.106250
vt 1.106250 1.106250
vt 1.120062 -0.115216
vt 1.115216 -0.115216
vt 1.122495 -0.106250
vt 1.115216 -0.120062
vt 1.106250 -0.122495
vt 1.122495 1.106250
vt 1.115216 1.115216
vt 1.115216 1.120062
vt 1.120062 1.115216
vt 1.106250 1.122495
s 0
usemtl ARAT_light_maple
f 4/1/1 5/2/1 1/3/1
f 4/1/2 9/4/2 6/5/2
f 7/2/3 8/1/3 2/3/3
f 11/6/4 9/5/4 7/2/4
f 10/1/5 11/2/5 3/3/5
f 5/2/6 12/7/6 10/6/6
f 6/5/7 9/4/7 12/7/7
f 16/8/8 17/9/8 13/10/8
f 16/11/9 21/5/9 18/4/9
f 19/2/10 20/1/10 14/3/10
f 19/2/11 24/7/11 21/5/11
f 22/9/12 23/8/12 15/10/12
f 17/9/13 24/12/13 22/13/13
f 18/4/14 21/5/14 24/7/14
f 28/9/15 29/8/15 25/10/15
f 28/9/16 33/12/16 30/14/16
f 31/15/17 32/16/17 26/17/17
f 35/2/18 33/7/18 31/6/18
f 34/1/19 35/2/19 27/3/19
f 29/8/20 36/18/20 34/19/20
f 30/14/21 33/12/21 36/18/21
f 40/8/22 41/9/22 37/10/22
f 40/8/23 45/18/23 42/14/23
f 43/9/24 44/8/24 38/10/24
f 47/13/25 45/14/25 43/9/25
f 46/20/26 47/21/26 39/22/26
f 46/13/27 42/14/27 48/12/27
f 42/14/28 45/18/28 48/12/28
f 52/15/29 53/16/29 49/17/29
f 52/15/30 57/23/30 54/24/30
f 55/2/31 56/1/31 50/3/31
f 59/15/32 57/23/32 55/25/32
f 58/16/33 59/15/33 51/17/33
f 53/16/34 60/26/34 58/27/34
f 54/24/35 57/23/35 60/26/35
f 64/16/36 65/15/36 61/17/36
f 64/16/37 69/26/37 66/24/37
f 67/21/38 68/20/38 62/22/38
f 71/28/39 69/29/39 67/21/39
f 70/8/40 71/9/40 63/10/40
f 70/25/41 66/24/41 72/23/41
f 66/24/42 69/26/42 72/23/42
f 76/20/43 77/21/43 73/22/43
f 76/20/44 81/30/44 78/29/44
f 79/15/45 80/16/45 74/17/45
f 83/25/46 81/24/46 79/15/46
f 82/16/47 83/15/47 75/17/47
f 77/21/48 84/31/48 82/28/48
f 78/29/49 81/30/49 84/31/49
f 88/21/50 89/20/50 85/22/50
f 88/21/51 93/31/51 90/29/51
f 91/21/52 92/20/52 86/22/52
f 95/21/53 93/31/53 91/28/53
f 94/20/54 95/21/54 87/22/54
f 94/32/55 90/29/55 96/30/55
f 90/29/56 93/31/56 96/30/56
f 1/3/57 28/9/57 25/10/57
f 5/2/58 32/13/58 28/9/58
f 10/1/59 26/17/59 32/16/59
f 13/10/60 7/2/60 2/3/60
f 17/9/61 11/6/61 7/2/61
f 22/9/62 3/3/62 11/2/62
f 37/10/63 19/2/63 14/3/63
f 41/9/64 23/6/64 19/2/64
f 46/20/65 15/10/65 23/8/65
f 27/3/66 43/9/66 38/10/66
f 35/2/67 47/13/67 43/9/67
f 31/15/68 39/22/68 47/21/68
f 25/10/69 76/20/69 73/22/69
f 29/8/70 80/32/70 76/20/70
f 34/1/71 74/17/71 80/16/71
f 85/22/72 40/8/72 37/10/72
f 89/20/73 44/19/73 40/8/73
f 94/20/74 38/10/74 44/8/74
f 75/17/75 91/21/75 86/22/75
f 83/25/76 95/21/76 91/28/76
f 79/15/77 87/22/77 95/21/77
f 73/22/78 52/15/78 49/17/78
f 77/21/79 56/25/79 52/15/79
f 82/16/80 50/3/80 56/1/80
f 61/17/81 88/21/81 85/22/81
f 65/15/82 92/28/82 88/21/82
f 70/8/83 86/22/83 92/20/83
f 51/17/84 67/21/84 62/22/84
f 59/15/85 71/28/85 67/21/85
f 55/2/86 63/10/86 71/9/86
f 49/17/87 4/1/87 1/3/87
f 53/16/88 8/11/88 4/1/88
f 58/16/89 2/3/89 8/1/89
f 14/3/90 64/16/90 61/17/90
f 20/1/91 68/27/91 64/16/91
f 16/8/92 62/22/92 68/20/92
f 73/22/93 1/3/93 25/10/93
f 15/10/94 26/17/94 3/3/94
f 62/22/95 2/3/95 51/17/95
f 37/10/96 61/17/96 85/22/96
f 38/10/97 74/17/97 27/3/97
f 86/22/98 50/3/98 75/17/98
f 4/1/99 6/5/99 5/2/99
f 4/1/2 8/11/2 9/4/2
f 7/2/100 9/5/100 8/1/100
f 11/6/4 12/7/4 9/5/4
f 10/1/101 12/5/101 11/2/101
f 5/2/6 6/5/6 12/7/6
f 16/8/102 18/14/102 17/9/102
f 16/11/9 20/1/9 21/5/9
f 19/2/103 21/5/103 20/1/103
f 19/2/104 23/6/104 24/7/104
f 22/9/105 24/14/105 23/8/105
f 17/9/106 18/14/106 24/12/106
f 28/9/107 30/14/107 29/8/107
f 28/9/16 32/13/16 33/12/16
f 31/15/108 33/24/108 32/16/108
f 35/2/18 36/5/18 33/7/18
f 34/1/109 36/5/109 35/2/109
f 29/8/20 30/14/20 36/18/20
f 40/8/110 42/14/110 41/9/110
f 40/8/23 44/19/23 45/18/23
f 43/9/111 45/14/111 44/8/111
f 47/13/25 48/12/25 45/14/25
f 46/20/112 48/29/112 47/21/112
f 46/13/27 41/9/27 42/14/27
f 52/15/113 54/24/113 53/16/113
f 52/15/30 56/25/30 57/23/30
f 55/2/114 57/5/114 56/1/114
f 59/15/32 60/24/32 57/23/32
f 58/16/115 60/24/115 59/15/115
f 53/16/34 54/24/34 60/26/34
f 64/16/116 66/24/116 65/15/116
f 64/16/37 68/27/37 69/26/37
f 67/21/117 69/29/117 68/20/117
f 71/28/39 72/31/39 69/29/39
f 70/8/118 72/14/118 71/9/118
f 70/25/41 65/15/41 66/24/41
f 76/20/119 78/29/119 77/21/119
f 76/20/44 80/32/44 81/30/44
f 79/15/120 81/24/120 80/16/120
f 83/25/46 84/23/46 81/24/46
f 82/16/121 84/24/121 83/15/121
f 77/21/48 78/29/48 84/31/48
f 88/21/122 90/29/122 89/20/122
f 88/21/123 92/28/123 93/31/123
f 91/21/124 93/29/124 92/20/124
f 95/21/125 96/29/125 93/31/125
f 94/20/126 96/29/126 95/21/126
f 94/32/55 89/20/55 90/29/55
f 1/3/57 5/2/57 28/9/57
f 5/2/58 10/6/58 32/13/58
f 10/1/59 3/3/59 26/17/59
f 13/10/60 17/9/60 7/2/60
f 17/9/61 22/13/61 11/6/61
f 22/9/127 15/10/127 3/3/127
f 37/10/63 41/9/63 19/2/63
f 41/9/64 46/13/64 23/6/64
f 46/20/128 39/22/128 15/10/128
f 27/3/66 35/2/66 43/9/66
f 35/2/67 31/6/67 47/13/67
f 31/15/129 26/17/129 39/22/129
f 25/10/69 29/8/69 76/20/69
f 29/8/70 34/19/70 80/32/70
f 34/1/130 27/3/130 74/17/130
f 85/22/72 89/20/72 40/8/72
f 89/20/73 94/32/73 44/19/73
f 94/20/131 87/22/131 38/10/131
f 75/17/132 83/15/132 91/21/132
f 83/25/76 79/15/76 95/21/76
f 79/15/77 74/17/77 87/22/77
f 73/22/78 77/21/78 52/15/78
f 77/21/79 82/28/79 56/25/79
f 82/16/80 75/17/80 50/3/80
f 61/17/81 65/15/81 88/21/81
f 65/15/82 70/25/82 92/28/82
f 70/8/133 63/10/133 86/22/133
f 51/17/84 59/15/84 67/21/84
f 59/15/85 55/25/85 71/28/85
f 55/2/134 50/3/134 63/10/134
f 49/17/87 53/16/87 4/1/87
f 53/16/88 58/27/88 8/11/88
f 58/16/135 51/17/135 2/3/135
f 14/3/90 20/1/90 64/16/90
f 20/1/91 16/11/91 68/27/91
f 16/8/136 13/10/136 62/22/136
f 73/22/93 49/17/93 1/3/93
f 15/10/94 39/22/94 26/17/94
f 62/22/95 13/10/95 2/3/95
f 37/10/96 14/3/96 61/17/96
f 38/10/97 87/22/97 74/17/97
f 86/22/98 63/10/98 50/3/98
