# Blender 4.5.11 LTS
# www.blender.org
mtllib visual.mtl
o bolt_large_starting_point
v -0.000000 0.009198 0.000000
v 0.000000 0.010000 0.000800
v -0.000000 0.009764 0.000234
v 0.000000 0.009198 0.135000
v 0.000000 0.010000 0.134200
v 0.000000 0.009764 0.134766
v 0.001201 0.009120 0.000000
v 0.001305 0.009914 0.000800
v 0.001275 0.009681 0.000234
v 0.001201 0.009120 0.135000
v 0.001305 0.009914 0.134200
v 0.001275 0.009681 0.134766
v 0.002381 0.008885 0.000000
v 0.002588 0.009659 0.000800
v 0.002527 0.009432 0.000234
v 0.002381 0.008885 0.135000
v 0.002588 0.009659 0.134200
v 0.002527 0.009432 0.134766
v 0.003520 0.008498 0.000000
v 0.003827 0.009239 0.000800
v 0.003737 0.009021 0.000234
v 0.003520 0.008498 0.135000
v 0.003827 0.009239 0.134200
v 0.003737 0.009021 0.134766
v 0.004599 0.007966 0.000000
v 0.005000 0.008660 0.000800
v 0.004882 0.008456 0.000234
v 0.004599 0.007966 0.135000
v 0.005000 0.008660 0.134200
v 0.004882 0.008456 0.134766
v 0.005600 0.007297 0.000000
v 0.006088 0.007934 0.000800
v 0.005944 0.007747 0.000234
v 0.005600 0.007297 0.135000
v 0.006088 0.007934 0.134200
v 0.005944 0.007747 0.134766
v 0.006504 0.006504 0.000000
v 0.007071 0.007071 0.000800
v 0.006905 0.006905 0.000234
v 0.006504 0.006504 0.135000
v 0.007071 0.007071 0.134200
v 0.006905 0.006905 0.134766
v 0.007297 0.005600 0.000000
v 0.007934 0.006088 0.000800
v 0.007747 0.005944 0.000234
v 0.007297 0.005600 0.135000
v 0.007934 0.006088 0.134200
v 0.007747 0.005944 0.134766
v 0.007966 0.004599 0.000000
v 0.008660 0.005000 0.000800
v 0.008456 0.004882 0.000234
v 0.007966 0.004599 0.135000
v 0.008660 0.005000 0.134200
v 0.008456 0.004882 0.134766
v 0.008498 0.003520 0.000000
v 0.009239 0.003827 0.000800
v 0.009021 0.003737 0.000234
v 0.008498 0.003520 0.135000
v 0.009239 0.003827 0.134200
v 0.009021 0.003737 0.134766
v 0.008885 0.002381 0.000000
v 0.009659 0.002588 0.000800
v 0.009432 0.002527 0.000234
v 0.008885 0.002381 0.135000
v 0.009659 0.002588 0.134200
v 0.009432 0.002527 0.134766
v 0.009120 0.001201 0.000000
v 0.009914 0.001305 0.000800
v 0.009681 0.001275 0.000234
v 0.009120 0.001201 0.135000
v 0.009914 0.001305 0.134200
v 0.009681 0.001275 0.134766
v 0.009198 0.000000 0.000000
v 0.010000 0.000000 0.000800
v 0.009764 0.000000 0.000234
v 0.009198 -0.000000 0.135000
v 0.010000 0.000000 0.134200
v 0.009764 -0.000000 0.134766
v 0.009120 -0.001201 0.000000
v 0.009914 -0.001305 0.000800
v 0.009681 -0.001275 0.000234
v 0.009120 -0.001201 0.135000
v 0.009914 -0.001305 0.134200
v 0.009681 -0.001275 0.134766
v 0.008885 -0.002381 0.000000
v 0.009659 -0.002588 0.000800
v 0.009432 -0.002527 0.000234
v 0.008885 -0.002381 0.135000
v 0.009659 -0.002588 0.134200
v 0.009432 -0.002527 0.134766
v 0.008498 -0.003520 0.000000
v 0.009239 -0.003827 0.000800
v 0.009021 -0.003737 0.000234
v 0.008498 -0.003520 0.135000
v 0.009239 -0.003827 0.134200
v 0.009021 -0.003737 0.134766
v 0.007966 -0.004599 0.000000
v 0.008660 -0.005000 0.000800
v 0.008456 -0.004882 0.000234
v 0.007966 -0.004599 0.135000
v 0.008660 -0.005000 0.134200
v 0.008456 -0.004882 0.134766
v 0.007297 -0.005600 0.000000
v 0.007934 -0.006088 0.000800
v 0.007747 -0.005944 0.000234
v 0.007297 -0.005600 0.135000
v 0.007934 -0.006088 0.134200
v 0.007747 -0.005944 0.134766
v 0.006504 -0.006504 0.000000
v 0.007071 -0.007071 0.000800
v 0.006905 -0.006905 0.000234
v 0.006504 -0.006504 0.135000
v 0.007071 -0.007071 0.134200
v 0.006905 -0.006905 0.134766
v 0.005600 -0.007297 0.000000
v 0.006088 -0.007934 0.000800
v 0.005944 -0.007747 0.000234
v 0.005600 -0.007297 0.135000
v 0.006088 -0.007934 0.134200
v 0.005944 -0.007747 0.134766
v 0.004599 -0.007966 0.000000
v 0.005000 -0.008660 0.000800
v 0.004882 -0.008456 0.000234
v 0.004599 -0.007966 0.135000
v 0.005000 -0.008660 0.134200
v 0.004882 -0.008456 0.134766
v 0.003520 -0.008498 0.000000
v 0.003827 -0.009239 0.000800
v 0.003737 -0.009021 0.000234
v 0.003520 -0.008498 0.135000
v 0.003827 -0.009239 0.134200
v 0.003737 -0.009021 0.134766
v 0.002381 -0.008885 0.000000
v 0.002588 -0.009659 0.000800
v 0.002527 -0.009432 0.000234
v 0.002381 -0.008885 0.135000
v 0.002588 -0.009659 0.134200
v 0.002527 -0.009432 0.134766
v 0.001201 -0.009120 0.000000
v 0.001305 -0.009914 0.000800
v 0.001275 -0.009681 0.000234
v 0.001201 -0.009120 0.135000
v 0.001305 -0.009914 0.134200
v 0.001275 -0.009681 0.134766
v 0.000000 -0.009198 0.000000
v 0.000000 -0.010000 0.000800
v 0.000000 -0.009764 0.000234
v -0.000000 -0.009198 0.135000
v 0.000000 -0.010000 0.134200
v -0.000000 -0.009764 0.134766
v -0.001201 -0.009120 0.000000
v -0.001305 -0.009914 0.000800
v -0.001275 -0.009681 0.000234
v -0.001201 -0.009120 0.135000
v -0.001305 -0.009914 0.134200
v -0.001275 -0.009681 0.134766
v -0.002381 -0.008885 0.000000
v -0.002588 -0.009659 0.000800
v -0.002527 -0.009432 0.000234
v -0.002381 -0.008885 0.135000
v -0.002588 -0.009659 0.134200
v -0.002527 -0.009432 0.134766
v -0.003520 -0.008498 0.000000
v -0.003827 -0.009239 0.000800
v -0.003737 -0.009021 0.000234
v -0.003520 -0.008498 0.135000
v -0.003827 -0.009239 0.134200
v -0.003737 -0.009021 0.134766
v -0.004599 -0.007966 0.000000
v -0.005000 -0.008660 0.000800
v -0.004882 -0.008456 0.000234
v -0.004599 -0.007966 0.135000
v -0.005000 -0.008660 0.134200
v -0.004882 -0.008456 0.134766
v -0.005600 -0.007297 0.000000
v -0.006088 -0.007934 0.000800
v -0.005944 -0.007747 0.000234
v -0.005600 -0.007297 0.135000
v -0.006088 -0.007934 0.134200
v -0.005944 -0.007747 0.134766
v -0.006504 -0.006504 0.000000
v -0.007071 -0.007071 0.000800
v -0.006905 -0.006905 0.000234
v -0.006504 -0.006504 0.135000
v -0.007071 -0.007071 0.134200
v -0.006905 -0.006905 0.134766
v -0.007297 -0.005600 0.000000
v -0.007934 -0.006088 0.000800
v -0.007747 -0.005944 0.000234
v -0.007297 -0.005600 0.135000
v -0.007934 -0.006088 0.134200
v -0.007747 -0.005944 0.134766
v -0.007966 -0.004599 0.000000
v -0.008660 -0.005000 0.000800
v -0.008456 -0.004882 0.000234
v -0.007966 -0.004599 0.135000
v -0.008660 -0.005000 0.134200
v -0.008456 -0.004882 0.134766
v -0.008498 -0.003520 0.000000
v -0.009239 -0.003827 0.000800
v -0.009021 -0.003737 0.000234
v -0.008498 -0.003520 0.135000
v -0.009239 -0.003827 0.134200
v -0.009021 -0.003737 0.134766
v -0.008885 -0.002381 0.000000
v -0.009659 -0.002588 0.000800
v -0.009432 -0.002527 0.000234
v -0.008885 -0.002381 0.135000
v -0.009659 -0.002588 0.134200
v -0.009432 -0.002527 0.134766
v -0.009120 -0.001201 0.000000
v -0.009914 -0.001305 0.000800
v -0.009681 -0.001275 0.000234
v -0.009120 -0.001201 0.135000
v -0.009914 -0.001305 0.134200
v -0.009681 -0.001275 0.134766
v -0.009198 -0.000000 0.000000
v -0.010000 0.000000 0.000800
v -0.009764 -0.000000 0.000234
v -0.009198 0.000000 0.135000
v -0.010000 0.000000 0.134200
v -0.009764 0.000000 0.134766
v -0.009120 0.001201 0.000000
v -0.009914 0.001305 0.000800
v -0.009681 0.001275 0.000234
v -0.009120 0.001201 0.135000
v -0.009914 0.001305 0.134200
v -0.009681 0.001275 0.134766
v -0.008885 0.002381 0.000000
v -0.009659 0.002588 0.000800
v -0.009432 0.002527 0.000234
v -0.008885 0.002381 0.135000
v -0.009659 0.002588 0.134200
v -0.009432 0.002527 0.134766
v -0.008498 0.003520 0.000000
v -0.009239 0.003827 0.000800
v -0.009021 0.003737 0.000234
v -0.008498 0.003520 0.135000
v -0.009239 0.003827 0.134200
v -0.009021 0.003737 0.134766
v -0.007966 0.004599 0.000000
v -0.008660 0.005000 0.000800
v -0.008456 0.004882 0.000234
v -0.007966 0.004599 0.135000
v -0.008660 0.005000 0.134200
v -0.008456 0.004882 0.134766
v -0.007297 0.005600 0.000000
v -0.007934 0.006088 0.000800
v -0.007747 0.005944 0.000234
v -0.007297 0.005600 0.135000
v -0.007934 0.006088 0.134200
v -0.007747 0.005944 0.134766
v -0.006504 0.006504 0.000000
v -0.007071 0.007071 0.000800
v -0.006905 0.006905 0.000234
v -0.006504 0.006504 0.135000
v -0.007071 0.007071 0.134200
v -0.006905 0.006905 0.134766
v -0.005600 0.007297 0.000000
v -0.006088 0.007934 0.000800
v -0.005944 0.007747 0.000234
v -0.005600 0.007297 0.135000
v -0.006088 0.007934 0.134200
v -0.005944 0.007747 0.134766
v -0.004599 0.007966 0.000000
v -0.005000 0.008660 0.000800
v -0.004882 0.008456 0.000234
v -0.004599 0.007966 0.135000
v -0.005000 0.008660 0.134200
v -0.004882 0.008456 0.134766
v -0.003520 0.008498 0.000000
v -0.003827 0.009239 0.000800
v -0.003737 0.009021 0.000234
v -0.003520 0.008498 0.135000
v -0.003827 0.009239 0.134200
v -0.003737 0.009021 0.134766
v -0.002381 0.008885 0.000000
v -0.002588 0.009659 0.000800
v -0.002527 0.009432 0.000234
v -0.002381 0.008885 0.135000
v -0.002588 0.009659 0.134200
v -0.002527 0.009432 0.134766
v -0.001201 0.009120 0.000000
v -0.001305 0.009914 0.000800
v -0.001275 0.009681 0.000234
v -0.001201 0.009120 0.135000
v -0.001305 0.009914 0.134200
v -0.001275 0.009681 0.134766
vn 0.0604 0.9215 -0.3837
vn 0.0251 0.3823 -0.9237
vn 0.0604 0.9215 0.3837
vn 0.0251 0.3823 0.9237
vn 0.1802 0.9057 -0.3837
vn 0.0747 0.3757 -0.9237
vn 0.1802 0.9057 0.3837
vn 0.0747 0.3757 0.9237
vn 0.2968 0.8745 -0.3837
vn 0.1231 0.3628 -0.9237
vn 0.2968 0.8745 0.3837
vn 0.1231 0.3628 0.9237
vn 0.4084 0.8282 -0.3837
vn 0.1694 0.3436 -0.9237
vn 0.4084 0.8282 0.3837
vn 0.1695 0.3436 0.9237
vn 0.5131 0.7678 -0.3837
vn 0.2128 0.3185 -0.9237
vn 0.5131 0.7678 0.3837
vn 0.2129 0.3185 0.9237
vn 0.6089 0.6943 -0.3837
vn 0.2526 0.2880 -0.9237
vn 0.6089 0.6943 0.3837
vn 0.2526 0.2880 0.9237
vn 0.6943 0.6089 -0.3837
vn 0.2880 0.2526 -0.9237
vn 0.6943 0.6089 0.3837
vn 0.2880 0.2526 0.9237
vn 0.7678 0.5131 -0.3837
vn 0.3185 0.2128 -0.9237
vn 0.7678 0.5130 0.3837
vn 0.3186 0.2128 0.9237
vn 0.8282 0.4084 -0.3837
vn 0.3436 0.1694 -0.9237
vn 0.8282 0.4084 0.3837
vn 0.3436 0.1694 0.9237
vn 0.8745 0.2968 -0.3837
vn 0.3628 0.1231 -0.9237
vn 0.8745 0.2968 0.3837
vn 0.3628 0.1231 0.9237
vn 0.9057 0.1802 -0.3837
vn 0.3757 0.0747 -0.9237
vn 0.9057 0.1802 0.3837
vn 0.3758 0.0747 0.9237
vn 0.9215 0.0604 -0.3837
vn 0.3823 0.0251 -0.9237
vn 0.9215 0.0604 0.3837
vn 0.3823 0.0251 0.9237
vn 0.9215 -0.0604 -0.3837
vn 0.3823 -0.0251 -0.9237
vn 0.9215 -0.0604 0.3837
vn 0.3823 -0.0251 0.9237
vn 0.9057 -0.1802 -0.3837
vn 0.3757 -0.0747 -0.9237
vn 0.9057 -0.1802 0.3837
vn 0.3757 -0.0747 0.9237
vn 0.8745 -0.2968 -0.3837
vn 0.3628 -0.1231 -0.9237
vn 0.8745 -0.2968 0.3837
vn 0.3628 -0.1231 0.9237
vn 0.8282 -0.4084 -0.3837
vn 0.3436 -0.1694 -0.9237
vn 0.8282 -0.4084 0.3837
vn 0.3436 -0.1694 0.9237
vn 0.7678 -0.5131 -0.3837
vn 0.3185 -0.2128 -0.9237
vn 0.7678 -0.5130 0.3837
vn 0.3186 -0.2128 0.9237
vn 0.6943 -0.6089 -0.3837
vn 0.2880 -0.2526 -0.9237
vn 0.6943 -0.6089 0.3837
vn 0.2881 -0.2526 0.9237
vn 0.6089 -0.6943 -0.3837
vn 0.2526 -0.2880 -0.9237
vn 0.6089 -0.6943 0.3837
vn 0.2526 -0.2880 0.9237
vn 0.5131 -0.7678 -0.3837
vn 0.2128 -0.3185 -0.9237
vn 0.5130 -0.7678 0.3837
vn 0.2129 -0.3185 0.9237
vn 0.4084 -0.8282 -0.3837
vn 0.1694 -0.3436 -0.9237
vn 0.4084 -0.8282 0.3837
vn 0.1694 -0.3436 0.9237
vn 0.2968 -0.8745 -0.3837
vn 0.1231 -0.3628 -0.9237
vn 0.2969 -0.8745 0.3837
vn 0.1232 -0.3628 0.9237
vn 0.1802 -0.9057 -0.3837
vn 0.0747 -0.3757 -0.9237
vn 0.1802 -0.9057 0.3837
vn 0.0747 -0.3757 0.9237
vn 0.0604 -0.9215 -0.3837
vn 0.0251 -0.3823 -0.9237
vn 0.0604 -0.9215 0.3837
vn 0.0251 -0.3823 0.9237
vn -0.0604 -0.9215 -0.3837
vn -0.0251 -0.3823 -0.9237
vn -0.0604 -0.9215 0.3837
vn -0.0251 -0.3823 0.9237
vn -0.1802 -0.9057 -0.3837
vn -0.0747 -0.3757 -0.9237
vn -0.1802 -0.9057 0.3837
vn -0.0747 -0.3757 0.9237
vn -0.2968 -0.8745 -0.3837
vn -0.1231 -0.3628 -0.9237
vn -0.2968 -0.8745 0.3837
vn -0.1231 -0.3628 0.9237
vn -0.4084 -0.8282 -0.3837
vn -0.1694 -0.3436 -0.9237
vn -0.4084 -0.8282 0.3837
vn -0.1695 -0.3436 0.9237
vn -0.5131 -0.7678 -0.3837
vn -0.2128 -0.3185 -0.9237
vn -0.5131 -0.7678 0.3837
vn -0.2129 -0.3185 0.9237
vn -0.6089 -0.6943 -0.3837
vn -0.2526 -0.2880 -0.9237
vn -0.6089 -0.6943 0.3837
vn -0.2526 -0.2880 0.9237
vn -0.6943 -0.6089 -0.3837
vn -0.2880 -0.2526 -0.9237
vn -0.6943 -0.6089 0.3837
vn -0.2880 -0.2526 0.9237
vn -0.7678 -0.5131 -0.3837
vn -0.3185 -0.2128 -0.9237
vn -0.7678 -0.5130 0.3837
vn -0.3186 -0.2128 0.9237
vn -0.8282 -0.4084 -0.3837
vn -0.3436 -0.1694 -0.9237
vn -0.8282 -0.4084 0.3837
vn -0.3436 -0.1694 0.9237
vn -0.8745 -0.2968 -0.3837
vn -0.3628 -0.1231 -0.9237
vn -0.8745 -0.2968 0.3837
vn -0.3628 -0.1231 0.9237
vn -0.9057 -0.1802 -0.3837
vn -0.3757 -0.0747 -0.9237
vn -0.9057 -0.1802 0.3837
vn -0.3758 -0.0747 0.9237
vn -0.9215 -0.0604 -0.3837
vn -0.3823 -0.0251 -0.9237
vn -0.9215 -0.0604 0.3837
vn -0.3823 -0.0251 0.9237
vn -0.9215 0.0604 -0.3837
vn -0.3823 0.0251 -0.9237
vn -0.9215 0.0604 0.3837
vn -0.3823 0.0251 0.9237
vn -0.9057 0.1802 -0.3837
vn -0.3757 0.0747 -0.9237
vn -0.9057 0.1802 0.3837
vn -0.3757 0.0747 0.9237
vn -0.8745 0.2968 -0.3837
vn -0.3628 0.1231 -0.9237
vn -0.8745 0.2968 0.3837
vn -0.3628 0.1231 0.9237
vn -0.8282 0.4084 -0.3837
vn -0.3436 0.1694 -0.9237
vn -0.8282 0.4084 0.3837
vn -0.3436 0.1694 0.9237
vn -0.7678 0.5131 -0.3837
vn -0.3185 0.2128 -0.9237
vn -0.7678 0.5130 0.3837
vn -0.3186 0.2128 0.9237
vn -0.6943 0.6089 -0.3837
vn -0.2880 0.2526 -0.9237
vn -0.6943 0.6089 0.3837
vn -0.2881 0.2526 0.9237
vn -0.6089 0.6943 -0.3837
vn -0.2526 0.2880 -0.9237
vn -0.6089 0.6943 0.3837
vn -0.2526 0.2880 0.9237
vn -0.5131 0.7678 -0.3837
vn -0.2128 0.3185 -0.9237
vn -0.5130 0.7678 0.3837
vn -0.2129 0.3185 0.9237
vn -0.4084 0.8282 -0.3837
vn -0.1694 0.3436 -0.9237
vn -0.4084 0.8282 0.3837
vn -0.1694 0.3436 0.9237
vn -0.2968 0.8745 -0.3837
vn -0.1231 0.3628 -0.9237
vn -0.2969 0.8745 0.3837
vn -0.1232 0.3628 0.9237
vn -0.1802 0.9057 -0.3837
vn -0.0747 0.3757 -0.9237
vn -0.1802 0.9057 0.3837
vn -0.0747 0.3757 0.9237
vn -0.0604 0.9215 -0.3837
vn -0.0251 0.3823 -0.9237
vn -0.0604 0.9215 0.3837
vn -0.0251 0.3823 0.9237
vn -0.0000 -0.0000 -1.0000
vn 0.0654 0.9979 -0.0000
vn -0.0654 0.9979 -0.0000
vn -0.0000 -0.0000 1.0000
vn 0.1951 0.9808 -0.0000
vn 0.3214 0.9469 -0.0000
vn 0.4423 0.8969 -0.0000
vn 0.5556 0.8315 -0.0000
vn 0.6593 0.7518 -0.0000
vn 0.7518 0.6593 -0.0000
vn 0.8315 0.5556 -0.0000
vn 0.8969 0.4423 -0.0000
vn 0.9469 0.3214 -0.0000
vn 0.9808 0.1951 -0.0000
vn 0.9979 0.0654 -0.0000
vn 0.9979 -0.0654 -0.0000
vn 0.9808 -0.1951 -0.0000
vn 0.9469 -0.3214 -0.0000
vn 0.8969 -0.4423 -0.0000
vn 0.8315 -0.5556 -0.0000
vn 0.7518 -0.6593 -0.0000
vn 0.6593 -0.7518 -0.0000
vn 0.5556 -0.8315 -0.0000
vn 0.4423 -0.8969 -0.0000
vn 0.3214 -0.9469 -0.0000
vn 0.1951 -0.9808 -0.0000
vn 0.0654 -0.9979 -0.0000
vn -0.0654 -0.9979 -0.0000
vn -0.1951 -0.9808 -0.0000
vn -0.3214 -0.9469 -0.0000
vn -0.4423 -0.8969 -0.0000
vn -0.5556 -0.8315 -0.0000
vn -0.6593 -0.7518 -0.0000
vn -0.7518 -0.6593 -0.0000
vn -0.8315 -0.5556 -0.0000
vn -0.8969 -0.4423 -0.0000
vn -0.9469 -0.3214 -0.0000
vn -0.9808 -0.1951 -0.0000
vn -0.9979 -0.0654 -0.0000
vn -0.9979 0.0654 -0.0000
vn -0.9808 0.1951 -0.0000
vn -0.9469 0.3214 -0.0000
vn -0.8969 0.4423 -0.0000
vn -0.8315 0.5556 -0.0000
vn -0.7518 0.6593 -0.0000
vn -0.6593 0.7518 -0.0000
vn -0.5556 0.8315 -0.0000
vn -0.4423 0.8969 -0.0000
vn -0.3214 0.9469 -0.0000
vn -0.1951 0.9808 -0.0000
vn 0.2969 0.8745 0.3837
vn 0.1232 0.3628 0.9237
vn 0.1694 0.3436 0.9237
vn 0.2128 0.3185 0.9237
vn 0.2881 0.2526 0.9237
vn 0.3185 0.2128 0.9237
vn 0.3757 0.0747 0.9237
vn 0.3758 -0.0747 0.9237
vn 0.3185 -0.2128 0.9237
vn 0.2880 -0.2526 0.9237
vn 0.5131 -0.7678 0.3837
vn 0.2128 -0.3185 0.9237
vn 0.2968 -0.8745 0.3837
vn 0.1231 -0.3628 0.9237
vn -0.2969 -0.8745 0.3837
vn -0.1232 -0.3628 0.9237
vn -0.1694 -0.3436 0.9237
vn -0.2128 -0.3185 0.9237
vn -0.2881 -0.2526 0.9237
vn -0.3185 -0.2128 0.9237
vn -0.3757 -0.0747 0.9237
vn -0.3758 0.0747 0.9237
vn -0.3185 0.2128 0.9237
vn -0.2880 0.2526 0.9237
vn -0.5131 0.7678 0.3837
vn -0.2128 0.3185 0.9237
vn -0.2968 0.8745 0.3837
vn -0.1231 0.3628 0.9237
vn 0.0001 -0.0000 1.0000
vn 0.0002 -0.0000 1.0000
vn -0.0001 -0.0000 1.0000
vn -0.0002 -0.0000 1.0000
vt 0.073165 0.992589
vt 0.081937 0.996767
vt 0.072826 0.996767
vt 0.474524 0.089259
vt 0.477465 0.079634
vt 0.478625 0.088443
vt 0.073165 0.007411
vt 0.081937 0.003233
vt 0.082496 0.007411
vt 0.474524 0.239640
vt 0.480925 0.247407
vt 0.476965 0.248752
vt 0.082496 0.992589
vt 0.090652 0.996767
vt 0.473292 0.079907
vt 0.477465 0.070748
vt 0.090652 0.003233
vt 0.091421 0.007411
vt 0.484325 0.255617
vt 0.480575 0.257466
vt 0.099787 0.992589
vt 0.091421 0.992589
vt 0.473292 0.070474
vt 0.478625 0.061938
vt 0.098821 0.003233
vt 0.099787 0.007411
vt 0.488768 0.263312
vt 0.485291 0.265635
vt 0.107451 0.992589
vt 0.098821 0.996767
vt 0.474524 0.061122
vt 0.480925 0.053355
vt 0.106304 0.003233
vt 0.107451 0.007411
vt 0.494177 0.270362
vt 0.491033 0.273119
vt 0.114282 0.992589
vt 0.106304 0.996767
vt 0.476965 0.052011
vt 0.484325 0.045146
vt 0.127579 0.007411
vt 0.122056 0.003233
vt 0.128726 0.003233
vt 0.497703 0.279789
vt 0.500460 0.276645
vt 0.135243 0.992589
vt 0.128726 0.996767
vt 0.127579 0.992589
vt 0.485291 0.035127
vt 0.480575 0.043296
vt 0.135243 0.007411
vt 0.136209 0.003233
vt 0.505187 0.285531
vt 0.507510 0.282054
vt 0.144378 0.996767
vt 0.136209 0.996767
vt 0.494177 0.030401
vt 0.488768 0.037450
vt 0.144378 0.003233
vt 0.143609 0.007411
vt 0.515205 0.286497
vt 0.513356 0.290247
vt 0.143609 0.992589
vt 0.153093 0.996767
vt 0.491033 0.027644
vt 0.500460 0.024118
vt 0.153093 0.003233
vt 0.152534 0.007411
vt 0.522071 0.293857
vt 0.523415 0.289897
vt 0.161865 0.992589
vt 0.152534 0.992589
vt 0.505187 0.015232
vt 0.497703 0.020974
vt 0.162204 0.003233
vt 0.161865 0.007411
vt 0.531998 0.292197
vt 0.531182 0.296298
vt 0.171442 0.992589
vt 0.162204 0.996767
vt 0.513356 0.010515
vt 0.507510 0.018708
vt 0.171442 0.007411
vt 0.171556 0.003233
vt 0.540534 0.297530
vt 0.540807 0.293357
vt 0.181102 0.992589
vt 0.171556 0.996767
vt 0.522070 0.006906
vt 0.515205 0.014265
vt 0.181102 0.007411
vt 0.180989 0.003233
vt 0.549967 0.297530
vt 0.549693 0.293357
vt 0.190680 0.992589
vt 0.180989 0.996767
vt 0.531182 0.004464
vt 0.523414 0.010865
vt 0.190680 0.007411
vt 0.190341 0.003233
vt 0.559319 0.296298
vt 0.558503 0.292197
vt 0.199452 0.996767
vt 0.190341 0.996767
vt 0.540807 0.007405
vt 0.531998 0.008565
vt 0.199452 0.003233
vt 0.200011 0.007411
vt 0.567086 0.289897
vt 0.568430 0.293857
vt 0.200011 0.992589
vt 0.208167 0.996767
vt 0.540534 0.003233
vt 0.549693 0.007405
vt 0.208167 0.003233
vt 0.208936 0.007411
vt 0.575295 0.286497
vt 0.577145 0.290247
vt 0.217302 0.992589
vt 0.208936 0.992589
vt 0.549966 0.003233
vt 0.558503 0.008565
vt 0.216336 0.003233
vt 0.217302 0.007411
vt 0.582990 0.282054
vt 0.585314 0.285531
vt 0.224966 0.992589
vt 0.216336 0.996767
vt 0.559318 0.004464
vt 0.567086 0.010865
vt 0.223819 0.003233
vt 0.224966 0.007411
vt 0.590040 0.276645
vt 0.592797 0.279789
vt 0.231797 0.992589
vt 0.223819 0.996767
vt 0.568430 0.006905
vt 0.575295 0.014265
vt 0.245094 0.007411
vt 0.239570 0.003233
vt 0.246240 0.003233
vt 0.599467 0.273119
vt 0.596323 0.270362
vt 0.252757 0.992589
vt 0.246240 0.996767
vt 0.245094 0.992589
vt 0.585313 0.015232
vt 0.577144 0.010515
vt 0.252757 0.007411
vt 0.253724 0.003233
vt 0.605209 0.265635
vt 0.601732 0.263312
vt 0.261893 0.996767
vt 0.253724 0.996767
vt 0.590040 0.024118
vt 0.582990 0.018708
vt 0.261893 0.003233
vt 0.261124 0.007411
vt 0.606175 0.255617
vt 0.609926 0.257466
vt 0.261124 0.992589
vt 0.270608 0.996767
vt 0.592797 0.020974
vt 0.596323 0.030401
vt 0.270608 0.003233
vt 0.270048 0.007411
vt 0.613535 0.248751
vt 0.609576 0.247407
vt 0.279379 0.992589
vt 0.270048 0.992589
vt 0.605209 0.035127
vt 0.599467 0.027644
vt 0.279719 0.003233
vt 0.279379 0.007411
vt 0.611876 0.238824
vt 0.615977 0.239640
vt 0.288957 0.992589
vt 0.279719 0.996767
vt 0.609926 0.043296
vt 0.601732 0.037450
vt 0.288957 0.007411
vt 0.289071 0.003233
vt 0.617208 0.230288
vt 0.613035 0.230015
vt 0.298617 0.992589
vt 0.289071 0.996767
vt 0.613535 0.052011
vt 0.606175 0.045146
vt 0.298617 0.007411
vt 0.298504 0.003233
vt 0.617208 0.220855
vt 0.613035 0.221129
vt 0.308195 0.992589
vt 0.298504 0.996767
vt 0.615977 0.061122
vt 0.609576 0.053355
vt 0.308195 0.007411
vt 0.307856 0.003233
vt 0.615977 0.211503
vt 0.611876 0.212319
vt 0.316967 0.996767
vt 0.307856 0.996767
vt 0.613035 0.070748
vt 0.611876 0.061938
vt 0.316967 0.003233
vt 0.317526 0.007411
vt 0.609576 0.203736
vt 0.613535 0.202392
vt 0.317526 0.992589
vt 0.325682 0.996767
vt 0.617208 0.070474
vt 0.613035 0.079633
vt 0.325682 0.003233
vt 0.326451 0.007411
vt 0.606175 0.195527
vt 0.609926 0.193677
vt 0.334817 0.992589
vt 0.326451 0.992589
vt 0.617208 0.079907
vt 0.611876 0.088443
vt 0.333851 0.003233
vt 0.334817 0.007411
vt 0.601732 0.187832
vt 0.605209 0.185508
vt 0.342481 0.992589
vt 0.333851 0.996767
vt 0.615977 0.089259
vt 0.609576 0.097026
vt 0.341334 0.003233
vt 0.342481 0.007411
vt 0.596323 0.180782
vt 0.599467 0.178025
vt 0.349312 0.992589
vt 0.341334 0.996767
vt 0.613535 0.098370
vt 0.606175 0.105236
vt 0.362608 0.007411
vt 0.357085 0.003233
vt 0.363755 0.003233
vt 0.592797 0.171355
vt 0.590040 0.174499
vt 0.370272 0.992589
vt 0.363755 0.996767
vt 0.362608 0.992589
vt 0.605209 0.115254
vt 0.609926 0.107085
vt 0.370272 0.007411
vt 0.371239 0.003233
vt 0.585313 0.165613
vt 0.582990 0.169090
vt 0.379408 0.996767
vt 0.371239 0.996767
vt 0.596323 0.119980
vt 0.601732 0.112931
vt 0.379408 0.003233
vt 0.378638 0.007411
vt 0.575295 0.164647
vt 0.577144 0.160896
vt 0.378638 0.992589
vt 0.388122 0.996767
vt 0.599467 0.122737
vt 0.590040 0.126264
vt 0.388122 0.003233
vt 0.387563 0.007411
vt 0.568430 0.157287
vt 0.567086 0.161246
vt 0.396894 0.992589
vt 0.387563 0.992589
vt 0.585314 0.135150
vt 0.592797 0.129407
vt 0.397234 0.003233
vt 0.396894 0.007411
vt 0.558503 0.158946
vt 0.559318 0.154845
vt 0.406472 0.992589
vt 0.397234 0.996767
vt 0.577145 0.139866
vt 0.582990 0.131673
vt 0.406472 0.007411
vt 0.406586 0.003233
vt 0.549966 0.153614
vt 0.549693 0.157787
vt 0.416132 0.992589
vt 0.406586 0.996767
vt 0.568430 0.143476
vt 0.575295 0.136116
vt 0.416132 0.007411
vt 0.416018 0.003233
vt 0.540534 0.153614
vt 0.540807 0.157787
vt 0.425710 0.992589
vt 0.416018 0.996767
vt 0.559319 0.145917
vt 0.567086 0.139516
vt 0.425710 0.007411
vt 0.425370 0.003233
vt 0.531182 0.154845
vt 0.531998 0.158946
vt 0.434482 0.996767
vt 0.425370 0.996767
vt 0.549693 0.142976
vt 0.558503 0.141816
vt 0.434482 0.003233
vt 0.435041 0.007411
vt 0.523414 0.161246
vt 0.522070 0.157287
vt 0.435041 0.992589
vt 0.443196 0.996767
vt 0.549967 0.147148
vt 0.540807 0.142976
vt 0.443196 0.003233
vt 0.443966 0.007411
vt 0.515205 0.164647
vt 0.513356 0.160897
vt 0.452332 0.992589
vt 0.443966 0.992589
vt 0.540534 0.147148
vt 0.531998 0.141816
vt 0.451365 0.003233
vt 0.452332 0.007411
vt 0.507510 0.169090
vt 0.505187 0.165613
vt 0.459996 0.992589
vt 0.451365 0.996767
vt 0.531182 0.145917
vt 0.523415 0.139516
vt 0.458849 0.003233
vt 0.459996 0.007411
vt 0.500460 0.174499
vt 0.497703 0.171355
vt 0.466827 0.992589
vt 0.458849 0.996767
vt 0.522071 0.143476
vt 0.515205 0.136116
vt 0.010064 0.007411
vt 0.004541 0.003233
vt 0.011211 0.003233
vt 0.491033 0.178025
vt 0.494177 0.180782
vt 0.017728 0.992589
vt 0.011211 0.996767
vt 0.010064 0.992589
vt 0.505187 0.135150
vt 0.513356 0.139866
vt 0.017728 0.007411
vt 0.018694 0.003233
vt 0.485291 0.185509
vt 0.488768 0.187832
vt 0.026863 0.996767
vt 0.018694 0.996767
vt 0.500460 0.126264
vt 0.507510 0.131673
vt 0.026863 0.003233
vt 0.026094 0.007411
vt 0.484325 0.195527
vt 0.480575 0.193678
vt 0.026094 0.992589
vt 0.035578 0.996767
vt 0.497703 0.129407
vt 0.494177 0.119980
vt 0.035578 0.003233
vt 0.035019 0.007411
vt 0.476965 0.202392
vt 0.480925 0.203736
vt 0.044350 0.992589
vt 0.035019 0.992589
vt 0.485291 0.115254
vt 0.491033 0.122737
vt 0.044689 0.003233
vt 0.044350 0.007411
vt 0.478625 0.212319
vt 0.474524 0.211504
vt 0.053927 0.992589
vt 0.044689 0.996767
vt 0.480575 0.107085
vt 0.488768 0.112931
vt 0.053927 0.007411
vt 0.054041 0.003233
vt 0.473292 0.220856
vt 0.477465 0.221129
vt 0.063588 0.992589
vt 0.054041 0.996767
vt 0.476965 0.098370
vt 0.484325 0.105236
vt 0.063588 0.007411
vt 0.063474 0.003233
vt 0.473292 0.230288
vt 0.477465 0.230015
vt 0.063474 0.996767
vt 0.480925 0.097026
vt 0.072826 0.003233
vt 0.478625 0.238825
vt 0.120748 0.007411
vt 0.120748 0.992589
vt 0.238263 0.007411
vt 0.238263 0.992589
vt 0.355778 0.007411
vt 0.355778 0.992589
vt 0.003233 0.007411
vt 0.003233 0.992589
vt 0.112974 0.996767
vt 0.230489 0.996767
vt 0.348004 0.996767
vt 0.465519 0.996767
s 0
usemtl ARAT_light_maple
f 2/1/1 9/2/1 3/3/1
f 3/4/2 7/5/2 1/6/2
f 5/7/3 12/8/3 11/9/3
f 6/10/4 10/11/4 12/12/4
f 8/13/5 15/14/5 9/2/5
f 9/15/6 13/16/6 7/5/6
f 11/9/7 18/17/7 17/18/7
f 12/12/8 16/19/8 18/20/8
f 20/21/9 15/14/9 14/22/9
f 15/23/10 19/24/10 13/16/10
f 17/18/11 24/25/11 23/26/11
f 18/20/12 22/27/12 24/28/12
f 26/29/13 21/30/13 20/21/13
f 21/31/14 25/32/14 19/24/14
f 23/26/15 30/33/15 29/34/15
f 24/28/16 28/35/16 30/36/16
f 32/37/17 27/38/17 26/29/17
f 27/39/18 31/40/18 25/32/18
f 35/41/19 30/42/19 36/43/19
f 36/44/20 28/35/20 34/45/20
f 38/46/21 33/47/21 32/48/21
f 39/49/22 31/40/22 33/50/22
f 41/51/23 36/43/23 42/52/23
f 42/53/24 34/45/24 40/54/24
f 38/46/25 45/55/25 39/56/25
f 39/49/26 43/57/26 37/58/26
f 41/51/27 48/59/27 47/60/27
f 42/53/28 46/61/28 48/62/28
f 44/63/29 51/64/29 45/55/29
f 45/65/30 49/66/30 43/57/30
f 47/60/31 54/67/31 53/68/31
f 54/69/32 46/61/32 52/70/32
f 56/71/33 51/64/33 50/72/33
f 57/73/34 49/66/34 51/74/34
f 53/68/35 60/75/35 59/76/35
f 54/69/36 58/77/36 60/78/36
f 62/79/37 57/80/37 56/71/37
f 63/81/38 55/82/38 57/73/38
f 65/83/39 60/75/39 66/84/39
f 66/85/40 58/77/40 64/86/40
f 68/87/41 63/88/41 62/79/41
f 69/89/42 61/90/42 63/81/42
f 71/91/43 66/84/43 72/92/43
f 72/93/44 64/86/44 70/94/44
f 74/95/45 69/96/45 68/87/45
f 75/97/46 67/98/46 69/89/46
f 77/99/47 72/92/47 78/100/47
f 78/101/48 70/94/48 76/102/48
f 74/95/49 81/103/49 75/104/49
f 75/97/50 79/105/50 73/106/50
f 77/99/51 84/107/51 83/108/51
f 78/101/52 82/109/52 84/110/52
f 80/111/53 87/112/53 81/103/53
f 81/113/54 85/114/54 79/105/54
f 83/108/55 90/115/55 89/116/55
f 84/110/56 88/117/56 90/118/56
f 92/119/57 87/112/57 86/120/57
f 87/121/58 91/122/58 85/114/58
f 89/116/59 96/123/59 95/124/59
f 90/118/60 94/125/60 96/126/60
f 98/127/61 93/128/61 92/119/61
f 93/129/62 97/130/62 91/122/62
f 95/124/63 102/131/63 101/132/63
f 96/126/64 100/133/64 102/134/64
f 104/135/65 99/136/65 98/127/65
f 99/137/66 103/138/66 97/130/66
f 107/139/67 102/140/67 108/141/67
f 108/142/68 100/133/68 106/143/68
f 110/144/69 105/145/69 104/146/69
f 111/147/70 103/138/70 105/148/70
f 113/149/71 108/141/71 114/150/71
f 114/151/72 106/143/72 112/152/72
f 110/144/73 117/153/73 111/154/73
f 111/147/74 115/155/74 109/156/74
f 113/149/75 120/157/75 119/158/75
f 114/151/76 118/159/76 120/160/76
f 116/161/77 123/162/77 117/153/77
f 117/163/78 121/164/78 115/155/78
f 119/158/79 126/165/79 125/166/79
f 126/167/80 118/159/80 124/168/80
f 128/169/81 123/162/81 122/170/81
f 129/171/82 121/164/82 123/172/82
f 125/166/83 132/173/83 131/174/83
f 126/167/84 130/175/84 132/176/84
f 134/177/85 129/178/85 128/169/85
f 135/179/86 127/180/86 129/171/86
f 137/181/87 132/173/87 138/182/87
f 138/183/88 130/175/88 136/184/88
f 140/185/89 135/186/89 134/177/89
f 141/187/90 133/188/90 135/179/90
f 143/189/91 138/182/91 144/190/91
f 144/191/92 136/184/92 142/192/92
f 146/193/93 141/194/93 140/185/93
f 147/195/94 139/196/94 141/187/94
f 149/197/95 144/190/95 150/198/95
f 150/199/96 142/192/96 148/200/96
f 146/193/97 153/201/97 147/202/97
f 147/195/98 151/203/98 145/204/98
f 149/197/99 156/205/99 155/206/99
f 150/199/100 154/207/100 156/208/100
f 152/209/101 159/210/101 153/201/101
f 153/211/102 157/212/102 151/203/102
f 155/206/103 162/213/103 161/214/103
f 156/208/104 160/215/104 162/216/104
f 164/217/105 159/210/105 158/218/105
f 159/219/106 163/220/106 157/212/106
f 161/214/107 168/221/107 167/222/107
f 162/216/108 166/223/108 168/224/108
f 170/225/109 165/226/109 164/217/109
f 165/227/110 169/228/110 163/220/110
f 167/222/111 174/229/111 173/230/111
f 168/224/112 172/231/112 174/232/112
f 176/233/113 171/234/113 170/225/113
f 171/235/114 175/236/114 169/228/114
f 179/237/115 174/238/115 180/239/115
f 180/240/116 172/231/116 178/241/116
f 182/242/117 177/243/117 176/244/117
f 183/245/118 175/236/118 177/246/118
f 185/247/119 180/239/119 186/248/119
f 186/249/120 178/241/120 184/250/120
f 182/242/121 189/251/121 183/252/121
f 183/245/122 187/253/122 181/254/122
f 185/247/123 192/255/123 191/256/123
f 186/249/124 190/257/124 192/258/124
f 188/259/125 195/260/125 189/251/125
f 189/261/126 193/262/126 187/253/126
f 191/256/127 198/263/127 197/264/127
f 198/265/128 190/257/128 196/266/128
f 200/267/129 195/260/129 194/268/129
f 201/269/130 193/262/130 195/270/130
f 197/264/131 204/271/131 203/272/131
f 198/265/132 202/273/132 204/274/132
f 206/275/133 201/276/133 200/267/133
f 207/277/134 199/278/134 201/269/134
f 209/279/135 204/271/135 210/280/135
f 210/281/136 202/273/136 208/282/136
f 212/283/137 207/284/137 206/275/137
f 213/285/138 205/286/138 207/277/138
f 215/287/139 210/280/139 216/288/139
f 216/289/140 208/282/140 214/290/140
f 218/291/141 213/292/141 212/283/141
f 219/293/142 211/294/142 213/285/142
f 221/295/143 216/288/143 222/296/143
f 222/297/144 214/290/144 220/298/144
f 218/291/145 225/299/145 219/300/145
f 219/293/146 223/301/146 217/302/146
f 221/295/147 228/303/147 227/304/147
f 222/297/148 226/305/148 228/306/148
f 224/307/149 231/308/149 225/299/149
f 225/309/150 229/310/150 223/301/150
f 227/304/151 234/311/151 233/312/151
f 228/306/152 232/313/152 234/314/152
f 236/315/153 231/308/153 230/316/153
f 231/317/154 235/318/154 229/310/154
f 233/312/155 240/319/155 239/320/155
f 234/314/156 238/321/156 240/322/156
f 242/323/157 237/324/157 236/315/157
f 237/325/158 241/326/158 235/318/158
f 239/320/159 246/327/159 245/328/159
f 240/322/160 244/329/160 246/330/160
f 248/331/161 243/332/161 242/323/161
f 243/333/162 247/334/162 241/326/162
f 251/335/163 246/336/163 252/337/163
f 252/338/164 244/329/164 250/339/164
f 254/340/165 249/341/165 248/342/165
f 255/343/166 247/334/166 249/344/166
f 257/345/167 252/337/167 258/346/167
f 258/347/168 250/339/168 256/348/168
f 254/340/169 261/349/169 255/350/169
f 255/343/170 259/351/170 253/352/170
f 257/345/171 264/353/171 263/354/171
f 258/347/172 262/355/172 264/356/172
f 260/357/173 267/358/173 261/349/173
f 261/359/174 265/360/174 259/351/174
f 263/354/175 270/361/175 269/362/175
f 270/363/176 262/355/176 268/364/176
f 272/365/177 267/358/177 266/366/177
f 273/367/178 265/360/178 267/368/178
f 269/362/179 276/369/179 275/370/179
f 270/363/180 274/371/180 276/372/180
f 278/373/181 273/374/181 272/365/181
f 279/375/182 271/376/182 273/367/182
f 281/377/183 276/369/183 282/378/183
f 282/379/184 274/371/184 280/380/184
f 284/381/185 279/382/185 278/373/185
f 285/383/186 277/384/186 279/375/186
f 287/385/187 282/378/187 288/386/187
f 288/387/188 280/380/188 286/388/188
f 2/1/189 285/389/189 284/381/189
f 3/4/190 283/390/190 285/383/190
f 5/7/191 288/386/191 6/391/191
f 6/10/192 286/388/192 4/392/192
f 91/122/193 187/253/193 283/390/193
f 5/7/194 8/13/194 2/1/194
f 287/385/195 2/1/195 284/381/195
f 208/282/196 112/152/196 16/19/196
f 11/9/197 14/22/197 8/13/197
f 17/18/198 20/21/198 14/22/198
f 23/26/199 26/29/199 20/21/199
f 29/393/200 32/48/200 26/394/200
f 35/41/201 38/46/201 32/48/201
f 41/51/202 44/63/202 38/46/202
f 47/60/203 50/72/203 44/63/203
f 53/68/204 56/71/204 50/72/204
f 59/76/205 62/79/205 56/71/205
f 65/83/206 68/87/206 62/79/206
f 71/91/207 74/95/207 68/87/207
f 77/99/208 80/111/208 74/95/208
f 83/108/209 86/120/209 80/111/209
f 89/116/210 92/119/210 86/120/210
f 95/124/211 98/127/211 92/119/211
f 101/395/212 104/146/212 98/396/212
f 107/139/213 110/144/213 104/146/213
f 113/149/214 116/161/214 110/144/214
f 119/158/215 122/170/215 116/161/215
f 125/166/216 128/169/216 122/170/216
f 131/174/217 134/177/217 128/169/217
f 137/181/218 140/185/218 134/177/218
f 143/189/219 146/193/219 140/185/219
f 149/197/220 152/209/220 146/193/220
f 155/206/221 158/218/221 152/209/221
f 161/214/222 164/217/222 158/218/222
f 167/222/223 170/225/223 164/217/223
f 173/397/224 176/244/224 170/398/224
f 179/237/225 182/242/225 176/244/225
f 185/247/226 188/259/226 182/242/226
f 191/256/227 194/268/227 188/259/227
f 197/264/228 200/267/228 194/268/228
f 203/272/229 206/275/229 200/267/229
f 209/279/230 212/283/230 206/275/230
f 215/287/231 218/291/231 212/283/231
f 221/295/232 224/307/232 218/291/232
f 227/304/233 230/316/233 224/307/233
f 233/312/234 236/315/234 230/316/234
f 239/320/235 242/323/235 236/315/235
f 245/399/236 248/342/236 242/400/236
f 251/335/237 254/340/237 248/342/237
f 257/345/238 260/357/238 254/340/238
f 263/354/239 266/366/239 260/357/239
f 269/362/240 272/365/240 266/366/240
f 275/370/241 278/373/241 272/365/241
f 281/377/242 284/381/242 278/373/242
f 2/1/1 8/13/1 9/2/1
f 3/4/2 9/15/2 7/5/2
f 5/7/3 6/391/3 12/8/3
f 6/10/4 4/392/4 10/11/4
f 8/13/5 14/22/5 15/14/5
f 9/15/6 15/23/6 13/16/6
f 11/9/7 12/8/7 18/17/7
f 12/12/8 10/11/8 16/19/8
f 20/21/9 21/30/9 15/14/9
f 15/23/10 21/31/10 19/24/10
f 17/18/243 18/17/243 24/25/243
f 18/20/244 16/19/244 22/27/244
f 26/29/13 27/38/13 21/30/13
f 21/31/14 27/39/14 25/32/14
f 23/26/15 24/25/15 30/33/15
f 24/28/245 22/27/245 28/35/245
f 32/37/17 33/401/17 27/38/17
f 27/39/18 33/50/18 31/40/18
f 35/41/19 29/393/19 30/42/19
f 36/44/246 30/36/246 28/35/246
f 38/46/21 39/56/21 33/47/21
f 39/49/22 37/58/22 31/40/22
f 41/51/23 35/41/23 36/43/23
f 42/53/24 36/44/24 34/45/24
f 38/46/25 44/63/25 45/55/25
f 39/49/26 45/65/26 43/57/26
f 41/51/27 42/52/27 48/59/27
f 42/53/247 40/54/247 46/61/247
f 44/63/29 50/72/29 51/64/29
f 45/65/30 51/74/30 49/66/30
f 47/60/31 48/59/31 54/67/31
f 54/69/248 48/62/248 46/61/248
f 56/71/33 57/80/33 51/64/33
f 57/73/34 55/82/34 49/66/34
f 53/68/35 54/67/35 60/75/35
f 54/69/36 52/70/36 58/77/36
f 62/79/37 63/88/37 57/80/37
f 63/81/38 61/90/38 55/82/38
f 65/83/39 59/76/39 60/75/39
f 66/85/40 60/78/40 58/77/40
f 68/87/41 69/96/41 63/88/41
f 69/89/42 67/98/42 61/90/42
f 71/91/43 65/83/43 66/84/43
f 72/93/249 66/85/249 64/86/249
f 74/95/45 75/104/45 69/96/45
f 75/97/46 73/106/46 67/98/46
f 77/99/47 71/91/47 72/92/47
f 78/101/48 72/93/48 70/94/48
f 74/95/49 80/111/49 81/103/49
f 75/97/50 81/113/50 79/105/50
f 77/99/51 78/100/51 84/107/51
f 78/101/52 76/102/52 82/109/52
f 80/111/53 86/120/53 87/112/53
f 81/113/54 87/121/54 85/114/54
f 83/108/55 84/107/55 90/115/55
f 84/110/250 82/109/250 88/117/250
f 92/119/57 93/128/57 87/112/57
f 87/121/58 93/129/58 91/122/58
f 89/116/59 90/115/59 96/123/59
f 90/118/60 88/117/60 94/125/60
f 98/127/61 99/136/61 93/128/61
f 93/129/62 99/137/62 97/130/62
f 95/124/63 96/123/63 102/131/63
f 96/126/64 94/125/64 100/133/64
f 104/135/65 105/402/65 99/136/65
f 99/137/66 105/148/66 103/138/66
f 107/139/67 101/395/67 102/140/67
f 108/142/251 102/134/251 100/133/251
f 110/144/69 111/154/69 105/145/69
f 111/147/70 109/156/70 103/138/70
f 113/149/71 107/139/71 108/141/71
f 114/151/252 108/142/252 106/143/252
f 110/144/73 116/161/73 117/153/73
f 111/147/74 117/163/74 115/155/74
f 113/149/75 114/150/75 120/157/75
f 114/151/76 112/152/76 118/159/76
f 116/161/77 122/170/77 123/162/77
f 117/163/78 123/172/78 121/164/78
f 119/158/253 120/157/253 126/165/253
f 126/167/254 120/160/254 118/159/254
f 128/169/81 129/178/81 123/162/81
f 129/171/82 127/180/82 121/164/82
f 125/166/83 126/165/83 132/173/83
f 126/167/84 124/168/84 130/175/84
f 134/177/85 135/186/85 129/178/85
f 135/179/86 133/188/86 127/180/86
f 137/181/255 131/174/255 132/173/255
f 138/183/256 132/176/256 130/175/256
f 140/185/89 141/194/89 135/186/89
f 141/187/90 139/196/90 133/188/90
f 143/189/91 137/181/91 138/182/91
f 144/191/92 138/183/92 136/184/92
f 146/193/93 147/202/93 141/194/93
f 147/195/94 145/204/94 139/196/94
f 149/197/95 143/189/95 144/190/95
f 150/199/96 144/191/96 142/192/96
f 146/193/97 152/209/97 153/201/97
f 147/195/98 153/211/98 151/203/98
f 149/197/99 150/198/99 156/205/99
f 150/199/100 148/200/100 154/207/100
f 152/209/101 158/218/101 159/210/101
f 153/211/102 159/219/102 157/212/102
f 155/206/103 156/205/103 162/213/103
f 156/208/104 154/207/104 160/215/104
f 164/217/105 165/226/105 159/210/105
f 159/219/106 165/227/106 163/220/106
f 161/214/257 162/213/257 168/221/257
f 162/216/258 160/215/258 166/223/258
f 170/225/109 171/234/109 165/226/109
f 165/227/110 171/235/110 169/228/110
f 167/222/111 168/221/111 174/229/111
f 168/224/259 166/223/259 172/231/259
f 176/233/113 177/403/113 171/234/113
f 171/235/114 177/246/114 175/236/114
f 179/237/115 173/397/115 174/238/115
f 180/240/260 174/232/260 172/231/260
f 182/242/117 183/252/117 177/243/117
f 183/245/118 181/254/118 175/236/118
f 185/247/119 179/237/119 180/239/119
f 186/249/120 180/240/120 178/241/120
f 182/242/121 188/259/121 189/251/121
f 183/245/122 189/261/122 187/253/122
f 185/247/123 186/248/123 192/255/123
f 186/249/261 184/250/261 190/257/261
f 188/259/125 194/268/125 195/260/125
f 189/261/126 195/270/126 193/262/126
f 191/256/127 192/255/127 198/263/127
f 198/265/262 192/258/262 190/257/262
f 200/267/129 201/276/129 195/260/129
f 201/269/130 199/278/130 193/262/130
f 197/264/131 198/263/131 204/271/131
f 198/265/132 196/266/132 202/273/132
f 206/275/133 207/284/133 201/276/133
f 207/277/134 205/286/134 199/278/134
f 209/279/135 203/272/135 204/271/135
f 210/281/136 204/274/136 202/273/136
f 212/283/137 213/292/137 207/284/137
f 213/285/138 211/294/138 205/286/138
f 215/287/139 209/279/139 210/280/139
f 216/289/263 210/281/263 208/282/263
f 218/291/141 219/300/141 213/292/141
f 219/293/142 217/302/142 211/294/142
f 221/295/143 215/287/143 216/288/143
f 222/297/144 216/289/144 214/290/144
f 218/291/145 224/307/145 225/299/145
f 219/293/146 225/309/146 223/301/146
f 221/295/147 222/296/147 228/303/147
f 222/297/148 220/298/148 226/305/148
f 224/307/149 230/316/149 231/308/149
f 225/309/150 231/317/150 229/310/150
f 227/304/151 228/303/151 234/311/151
f 228/306/264 226/305/264 232/313/264
f 236/315/153 237/324/153 231/308/153
f 231/317/154 237/325/154 235/318/154
f 233/312/155 234/311/155 240/319/155
f 234/314/156 232/313/156 238/321/156
f 242/323/157 243/332/157 237/324/157
f 237/325/158 243/333/158 241/326/158
f 239/320/159 240/319/159 246/327/159
f 240/322/160 238/321/160 244/329/160
f 248/331/161 249/404/161 243/332/161
f 243/333/162 249/344/162 247/334/162
f 251/335/163 245/399/163 246/336/163
f 252/338/265 246/330/265 244/329/265
f 254/340/165 255/350/165 249/341/165
f 255/343/166 253/352/166 247/334/166
f 257/345/167 251/335/167 252/337/167
f 258/347/266 252/338/266 250/339/266
f 254/340/169 260/357/169 261/349/169
f 255/343/170 261/359/170 259/351/170
f 257/345/171 258/346/171 264/353/171
f 258/347/172 256/348/172 262/355/172
f 260/357/173 266/366/173 267/358/173
f 261/359/174 267/368/174 265/360/174
f 263/354/267 264/353/267 270/361/267
f 270/363/268 264/356/268 262/355/268
f 272/365/177 273/374/177 267/358/177
f 273/367/178 271/376/178 265/360/178
f 269/362/179 270/361/179 276/369/179
f 270/363/180 268/364/180 274/371/180
f 278/373/181 279/382/181 273/374/181
f 279/375/182 277/384/182 271/376/182
f 281/377/269 275/370/269 276/369/269
f 282/379/270 276/372/270 274/371/270
f 284/381/185 285/389/185 279/382/185
f 285/383/186 283/390/186 277/384/186
f 287/385/187 281/377/187 282/378/187
f 288/387/188 282/379/188 280/380/188
f 2/1/189 3/3/189 285/389/189
f 3/4/190 1/6/190 283/390/190
f 5/7/191 287/385/191 288/386/191
f 6/10/192 288/387/192 286/388/192
f 283/390/193 1/6/193 7/5/193
f 7/5/193 13/16/193 19/24/193
f 19/24/193 25/32/193 31/40/193
f 31/40/193 37/58/193 43/57/193
f 43/57/193 49/66/193 55/82/193
f 55/82/193 61/90/193 67/98/193
f 67/98/193 73/106/193 79/105/193
f 79/105/193 85/114/193 91/122/193
f 91/122/193 97/130/193 103/138/193
f 103/138/193 109/156/193 115/155/193
f 115/155/193 121/164/193 127/180/193
f 127/180/193 133/188/193 139/196/193
f 139/196/193 145/204/193 151/203/193
f 151/203/193 157/212/193 163/220/193
f 163/220/193 169/228/193 175/236/193
f 175/236/193 181/254/193 187/253/193
f 187/253/193 193/262/193 199/278/193
f 199/278/193 205/286/193 211/294/193
f 211/294/193 217/302/193 223/301/193
f 223/301/193 229/310/193 235/318/193
f 235/318/193 241/326/193 247/334/193
f 247/334/193 253/352/193 259/351/193
f 259/351/193 265/360/193 271/376/193
f 271/376/193 277/384/193 283/390/193
f 283/390/193 7/5/193 19/24/193
f 19/24/193 31/40/193 43/57/193
f 43/57/193 55/82/193 67/98/193
f 67/98/193 79/105/193 91/122/193
f 91/122/193 103/138/193 115/155/193
f 115/155/193 127/180/193 139/196/193
f 139/196/193 151/203/193 163/220/193
f 163/220/193 175/236/193 187/253/193
f 187/253/193 199/278/193 211/294/193
f 211/294/193 223/301/193 235/318/193
f 235/318/193 247/334/193 259/351/193
f 259/351/193 271/376/193 283/390/193
f 283/390/193 19/24/193 43/57/193
f 43/57/193 67/98/193 91/122/193
f 91/122/193 115/155/193 139/196/193
f 139/196/193 163/220/193 187/253/193
f 187/253/193 211/294/193 235/318/193
f 235/318/193 259/351/193 283/390/193
f 283/390/193 43/57/193 91/122/193
f 91/122/193 139/196/193 187/253/193
f 187/253/193 235/318/193 283/390/193
f 5/7/194 11/9/194 8/13/194
f 287/385/195 5/7/195 2/1/195
f 16/19/196 10/11/196 4/392/196
f 4/392/196 286/388/196 280/380/196
f 280/380/196 274/371/196 268/364/196
f 268/364/271 262/355/271 256/348/271
f 256/348/196 250/339/196 244/329/196
f 244/329/272 238/321/272 232/313/272
f 232/313/196 226/305/196 220/298/196
f 220/298/196 214/290/196 208/282/196
f 208/282/196 202/273/196 196/266/196
f 196/266/196 190/257/196 184/250/196
f 184/250/271 178/241/271 172/231/271
f 172/231/196 166/223/196 160/215/196
f 160/215/196 154/207/196 148/200/196
f 148/200/196 142/192/196 136/184/196
f 136/184/196 130/175/196 124/168/196
f 124/168/273 118/159/273 112/152/273
f 112/152/196 106/143/196 100/133/196
f 100/133/274 94/125/274 88/117/274
f 88/117/196 82/109/196 76/102/196
f 76/102/196 70/94/196 64/86/196
f 64/86/196 58/77/196 52/70/196
f 52/70/196 46/61/196 40/54/196
f 40/54/273 34/45/273 28/35/273
f 28/35/196 22/27/196 16/19/196
f 16/19/196 4/392/196 280/380/196
f 280/380/196 268/364/196 256/348/196
f 256/348/273 244/329/273 232/313/273
f 232/313/196 220/298/196 208/282/196
f 208/282/196 196/266/196 184/250/196
f 184/250/196 172/231/196 160/215/196
f 160/215/196 148/200/196 136/184/196
f 136/184/196 124/168/196 112/152/196
f 112/152/271 100/133/271 88/117/271
f 88/117/196 76/102/196 64/86/196
f 64/86/196 52/70/196 40/54/196
f 40/54/196 28/35/196 16/19/196
f 16/19/196 280/380/196 256/348/196
f 256/348/196 232/313/196 208/282/196
f 208/282/196 184/250/196 160/215/196
f 160/215/196 136/184/196 112/152/196
f 112/152/196 88/117/196 64/86/196
f 64/86/196 40/54/196 16/19/196
f 16/19/196 256/348/196 208/282/196
f 208/282/196 160/215/196 112/152/196
f 112/152/196 64/86/196 16/19/196
f 11/9/197 17/18/197 14/22/197
f 17/18/198 23/26/198 20/21/198
f 23/26/199 29/34/199 26/29/199
f 29/393/200 35/41/200 32/48/200
f 35/41/201 41/51/201 38/46/201
f 41/51/202 47/60/202 44/63/202
f 47/60/203 53/68/203 50/72/203
f 53/68/204 59/76/204 56/71/204
f 59/76/205 65/83/205 62/79/205
f 65/83/206 71/91/206 68/87/206
f 71/91/207 77/99/207 74/95/207
f 77/99/208 83/108/208 80/111/208
f 83/108/209 89/116/209 86/120/209
f 89/116/210 95/124/210 92/119/210
f 95/124/211 101/132/211 98/127/211
f 101/395/212 107/139/212 104/146/212
f 107/139/213 113/149/213 110/144/213
f 113/149/214 119/158/214 116/161/214
f 119/158/215 125/166/215 122/170/215
f 125/166/216 131/174/216 128/169/216
f 131/174/217 137/181/217 134/177/217
f 137/181/218 143/189/218 140/185/218
f 143/189/219 149/197/219 146/193/219
f 149/197/220 155/206/220 152/209/220
f 155/206/221 161/214/221 158/218/221
f 161/214/222 167/222/222 164/217/222
f 167/222/223 173/230/223 170/225/223
f 173/397/224 179/237/224 176/244/224
f 179/237/225 185/247/225 182/242/225
f 185/247/226 191/256/226 188/259/226
f 191/256/227 197/264/227 194/268/227
f 197/264/228 203/272/228 200/267/228
f 203/272/229 209/279/229 206/275/229
f 209/279/230 215/287/230 212/283/230
f 215/287/231 221/295/231 218/291/231
f 221/295/232 227/304/232 224/307/232
f 227/304/233 233/312/233 230/316/233
f 233/312/234 239/320/234 236/315/234
f 239/320/235 245/328/235 242/323/235
f 245/399/236 251/335/236 248/342/236
f 251/335/237 257/345/237 254/340/237
f 257/345/238 263/354/238 260/357/238
f 263/354/239 269/362/239 266/366/239
f 269/362/240 275/370/240 272/365/240
f 275/370/241 281/377/241 278/373/241
f 281/377/242 287/385/242 284/381/242
