# Blender 4.5.11 LTS
# www.blender.org
mtllib visual.mtl
o tube_starting_fixture
v -0.028800 -0.041300 0.000000
v -0.028800 -0.042500 0.001200
v -0.030000 -0.041300 0.001200
v -0.028800 -0.041899 0.000160
v -0.029399 -0.041300 0.000160
v -0.029374 -0.041874 0.000316
v -0.029399 -0.042340 0.001200
v -0.028800 -0.042340 0.000601
v -0.029374 -0.042184 0.000626
v -0.029840 -0.041300 0.000601
v -0.029840 -0.041899 0.001200
v -0.029684 -0.041874 0.000626
v -0.028800 -0.042500 0.013800
v -0.028800 -0.041300 0.015000
v -0.030000 -0.041300 0.013800
v -0.028800 -0.042340 0.014399
v -0.029399 -0.042340 0.013800
v -0.029374 -0.042184 0.014374
v -0.029399 -0.041300 0.014840
v -0.028800 -0.041899 0.014840
v -0.029374 -0.041874 0.014684
v -0.029840 -0.041899 0.013800
v -0.029840 -0.041300 0.014399
v -0.029684 -0.041874 0.014374
v -0.028800 0.041300 0.000000
v -0.030000 0.041300 0.001200
v -0.028800 0.042500 0.001200
v -0.029399 0.041300 0.000160
v -0.028800 0.041899 0.000160
v -0.029374 0.041874 0.000316
v -0.029840 0.041899 0.001200
v -0.029840 0.041300 0.000601
v -0.029684 0.041874 0.000626
v -0.028800 0.042340 0.000601
v -0.029399 0.042340 0.001200
v -0.029374 0.042184 0.000626
v -0.028800 0.041300 0.015000
v -0.028800 0.042500 0.013800
v -0.030000 0.041300 0.013800
v -0.028800 0.041899 0.014840
v -0.029399 0.041300 0.014840
v -0.029374 0.041874 0.014684
v -0.029399 0.042340 0.013800
v -0.028800 0.042340 0.014399
v -0.029374 0.042184 0.014374
v -0.029840 0.041300 0.014399
v -0.029840 0.041899 0.013800
v -0.029684 0.041874 0.014374
v 0.028800 -0.041300 0.000000
v 0.030000 -0.041300 0.001200
v 0.028800 -0.042500 0.001200
v 0.029399 -0.041300 0.000160
v 0.028800 -0.041899 0.000160
v 0.029374 -0.041874 0.000316
v 0.029840 -0.041899 0.001200
v 0.029840 -0.041300 0.000601
v 0.029684 -0.041874 0.000626
v 0.028800 -0.042340 0.000601
v 0.029399 -0.042340 0.001200
v 0.029374 -0.042184 0.000626
v 0.028800 -0.041300 0.015000
v 0.028800 -0.042500 0.013800
v 0.030000 -0.041300 0.013800
v 0.028800 -0.041899 0.014840
v 0.029399 -0.041300 0.014840
v 0.029374 -0.041874 0.014684
v 0.029399 -0.042340 0.013800
v 0.028800 -0.042340 0.014399
v 0.029374 -0.042184 0.014374
v 0.029840 -0.041300 0.014399
v 0.029840 -0.041899 0.013800
v 0.029684 -0.041874 0.014374
v 0.028800 0.041300 0.000000
v 0.028800 0.042500 0.001200
v 0.030000 0.041300 0.001200
v 0.028800 0.041899 0.000160
v 0.029399 0.041300 0.000160
v 0.029374 0.041874 0.000316
v 0.029399 0.042340 0.001200
v 0.028800 0.042340 0.000601
v 0.029374 0.042184 0.000626
v 0.029840 0.041300 0.000601
v 0.029840 0.041899 0.001200
v 0.029684 0.041874 0.000626
v 0.028800 0.041300 0.015000
v 0.030000 0.041300 0.013800
v 0.028800 0.042500 0.013800
v 0.029399 0.041300 0.014840
v 0.028800 0.041899 0.014840
v 0.029374 0.041874 0.014684
v 0.029840 0.041899 0.013800
v 0.029840 0.041300 0.014399
v 0.029684 0.041874 0.014374
v 0.028800 0.042340 0.014399
v 0.029399 0.042340 0.013800
v 0.029374 0.042184 0.014374
v -0.020000 0.009198 0.015000
v -0.020000 0.010000 0.015800
v -0.020000 0.009764 0.015234
v -0.020000 0.009198 0.150000
v -0.020000 0.010000 0.149200
v -0.020000 0.009764 0.149766
v -0.018799 0.009120 0.015000
v -0.018695 0.009914 0.015800
v -0.018725 0.009681 0.015234
v -0.018799 0.009120 0.150000
v -0.018695 0.009914 0.149200
v -0.018725 0.009681 0.149766
v -0.017619 0.008885 0.015000
v -0.017412 0.009659 0.015800
v -0.017473 0.009432 0.015234
v -0.017619 0.008885 0.150000
v -0.017412 0.009659 0.149200
v -0.017473 0.009432 0.149766
v -0.016480 0.008498 0.015000
v -0.016173 0.009239 0.015800
v -0.016263 0.009021 0.015234
v -0.016480 0.008498 0.150000
v -0.016173 0.009239 0.149200
v -0.016263 0.009021 0.149766
v -0.015401 0.007966 0.015000
v -0.015000 0.008660 0.015800
v -0.015118 0.008456 0.015234
v -0.015401 0.007966 0.150000
v -0.015000 0.008660 0.149200
v -0.015118 0.008456 0.149766
v -0.014400 0.007297 0.015000
v -0.013912 0.007934 0.015800
v -0.014056 0.007747 0.015234
v -0.014400 0.007297 0.150000
v -0.013912 0.007934 0.149200
v -0.014056 0.007747 0.149766
v -0.013496 0.006504 0.015000
v -0.012929 0.007071 0.015800
v -0.013095 0.006905 0.015234
v -0.013496 0.006504 0.150000
v -0.012929 0.007071 0.149200
v -0.013095 0.006905 0.149766
v -0.012703 0.005600 0.015000
v -0.012066 0.006088 0.015800
v -0.012253 0.005944 0.015234
v -0.012703 0.005600 0.150000
v -0.012066 0.006088 0.149200
v -0.012253 0.005944 0.149766
v -0.012034 0.004599 0.015000
v -0.011340 0.005000 0.015800
v -0.011544 0.004882 0.015234
v -0.012034 0.004599 0.150000
v -0.011340 0.005000 0.149200
v -0.011544 0.004882 0.149766
v -0.011502 0.003520 0.015000
v -0.010761 0.003827 0.015800
v -0.010979 0.003737 0.015234
v -0.011502 0.003520 0.150000
v -0.010761 0.003827 0.149200
v -0.010979 0.003737 0.149766
v -0.011115 0.002381 0.015000
v -0.010341 0.002588 0.015800
v -0.010568 0.002527 0.015234
v -0.011115 0.002381 0.150000
v -0.010341 0.002588 0.149200
v -0.010568 0.002527 0.149766
v -0.010880 0.001201 0.015000
v -0.010086 0.001305 0.015800
v -0.010319 0.001275 0.015234
v -0.010880 0.001201 0.150000
v -0.010086 0.001305 0.149200
v -0.010319 0.001275 0.149766
v -0.010802 0.000000 0.015000
v -0.010000 0.000000 0.015800
v -0.010236 0.000000 0.015234
v -0.010802 -0.000000 0.150000
v -0.010000 0.000000 0.149200
v -0.010236 -0.000000 0.149766
v -0.010880 -0.001201 0.015000
v -0.010086 -0.001305 0.015800
v -0.010319 -0.001275 0.015234
v -0.010880 -0.001201 0.150000
v -0.010086 -0.001305 0.149200
v -0.010319 -0.001275 0.149766
v -0.011115 -0.002381 0.015000
v -0.010341 -0.002588 0.015800
v -0.010568 -0.002527 0.015234
v -0.011115 -0.002381 0.150000
v -0.010341 -0.002588 0.149200
v -0.010568 -0.002527 0.149766
v -0.011502 -0.003520 0.015000
v -0.010761 -0.003827 0.015800
v -0.010979 -0.003737 0.015234
v -0.011502 -0.003520 0.150000
v -0.010761 -0.003827 0.149200
v -0.010979 -0.003737 0.149766
v -0.012034 -0.004599 0.015000
v -0.011340 -0.005000 0.015800
v -0.011544 -0.004882 0.015234
v -0.012034 -0.004599 0.150000
v -0.011340 -0.005000 0.149200
v -0.011544 -0.004882 0.149766
v -0.012703 -0.005600 0.015000
v -0.012066 -0.006088 0.015800
v -0.012253 -0.005944 0.015234
v -0.012703 -0.005600 0.150000
v -0.012066 -0.006088 0.149200
v -0.012253 -0.005944 0.149766
v -0.013496 -0.006504 0.015000
v -0.012929 -0.007071 0.015800
v -0.013095 -0.006905 0.015234
v -0.013496 -0.006504 0.150000
v -0.012929 -0.007071 0.149200
v -0.013095 -0.006905 0.149766
v -0.014400 -0.007297 0.015000
v -0.013912 -0.007934 0.015800
v -0.014056 -0.007747 0.015234
v -0.014400 -0.007297 0.150000
v -0.013912 -0.007934 0.149200
v -0.014056 -0.007747 0.149766
v -0.015401 -0.007966 0.015000
v -0.015000 -0.008660 0.015800
v -0.015118 -0.008456 0.015234
v -0.015401 -0.007966 0.150000
v -0.015000 -0.008660 0.149200
v -0.015118 -0.008456 0.149766
v -0.016480 -0.008498 0.015000
v -0.016173 -0.009239 0.015800
v -0.016263 -0.009021 0.015234
v -0.016480 -0.008498 0.150000
v -0.016173 -0.009239 0.149200
v -0.016263 -0.009021 0.149766
v -0.017619 -0.008885 0.015000
v -0.017412 -0.009659 0.015800
v -0.017473 -0.009432 0.015234
v -0.017619 -0.008885 0.150000
v -0.017412 -0.009659 0.149200
v -0.017473 -0.009432 0.149766
v -0.018799 -0.009120 0.015000
v -0.018695 -0.009914 0.015800
v -0.018725 -0.009681 0.015234
v -0.018799 -0.009120 0.150000
v -0.018695 -0.009914 0.149200
v -0.018725 -0.009681 0.149766
v -0.020000 -0.009198 0.015000
v -0.020000 -0.010000 0.015800
v -0.020000 -0.009764 0.015234
v -0.020000 -0.009198 0.150000
v -0.020000 -0.010000 0.149200
v -0.020000 -0.009764 0.149766
v -0.021201 -0.009120 0.015000
v -0.021305 -0.009914 0.015800
v -0.021275 -0.009681 0.015234
v -0.021201 -0.009120 0.150000
v -0.021305 -0.009914 0.149200
v -0.021275 -0.009681 0.149766
v -0.022381 -0.008885 0.015000
v -0.022588 -0.009659 0.015800
v -0.022527 -0.009432 0.015234
v -0.022381 -0.008885 0.150000
v -0.022588 -0.009659 0.149200
v -0.022527 -0.009432 0.149766
v -0.023520 -0.008498 0.015000
v -0.023827 -0.009239 0.015800
v -0.023737 -0.009021 0.015234
v -0.023520 -0.008498 0.150000
v -0.023827 -0.009239 0.149200
v -0.023737 -0.009021 0.149766
v -0.024599 -0.007966 0.015000
v -0.025000 -0.008660 0.015800
v -0.024882 -0.008456 0.015234
v -0.024599 -0.007966 0.150000
v -0.025000 -0.008660 0.149200
v -0.024882 -0.008456 0.149766
v -0.025600 -0.007297 0.015000
v -0.026088 -0.007934 0.015800
v -0.025944 -0.007747 0.015234
v -0.025600 -0.007297 0.150000
v -0.026088 -0.007934 0.149200
v -0.025944 -0.007747 0.149766
v -0.026504 -0.006504 0.015000
v -0.027071 -0.007071 0.015800
v -0.026905 -0.006905 0.015234
v -0.026504 -0.006504 0.150000
v -0.027071 -0.007071 0.149200
v -0.026905 -0.006905 0.149766
v -0.027297 -0.005600 0.015000
v -0.027934 -0.006088 0.015800
v -0.027747 -0.005944 0.015234
v -0.027297 -0.005600 0.150000
v -0.027934 -0.006088 0.149200
v -0.027747 -0.005944 0.149766
v -0.027966 -0.004599 0.015000
v -0.028660 -0.005000 0.015800
v -0.028456 -0.004882 0.015234
v -0.027966 -0.004599 0.150000
v -0.028660 -0.005000 0.149200
v -0.028456 -0.004882 0.149766
v -0.028498 -0.003520 0.015000
v -0.029239 -0.003827 0.015800
v -0.029021 -0.003737 0.015234
v -0.028498 -0.003520 0.150000
v -0.029239 -0.003827 0.149200
v -0.029021 -0.003737 0.149766
v -0.028885 -0.002381 0.015000
v -0.029659 -0.002588 0.015800
v -0.029432 -0.002527 0.015234
v -0.028885 -0.002381 0.150000
v -0.029659 -0.002588 0.149200
v -0.029432 -0.002527 0.149766
v -0.029120 -0.001201 0.015000
v -0.029914 -0.001305 0.015800
v -0.029681 -0.001275 0.015234
v -0.029120 -0.001201 0.150000
v -0.029914 -0.001305 0.149200
v -0.029681 -0.001275 0.149766
v -0.029198 -0.000000 0.015000
v -0.030000 0.000000 0.015800
v -0.029764 -0.000000 0.015234
v -0.029198 0.000000 0.150000
v -0.030000 0.000000 0.149200
v -0.029764 0.000000 0.149766
v -0.029120 0.001201 0.015000
v -0.029914 0.001305 0.015800
v -0.029681 0.001275 0.015234
v -0.029120 0.001201 0.150000
v -0.029914 0.001305 0.149200
v -0.029681 0.001275 0.149766
v -0.028885 0.002381 0.015000
v -0.029659 0.002588 0.015800
v -0.029432 0.002527 0.015234
v -0.028885 0.002381 0.150000
v -0.029659 0.002588 0.149200
v -0.029432 0.002527 0.149766
v -0.028498 0.003520 0.015000
v -0.029239 0.003827 0.015800
v -0.029021 0.003737 0.015234
v -0.028498 0.003520 0.150000
v -0.029239 0.003827 0.149200
v -0.029021 0.003737 0.149766
v -0.027966 0.004599 0.015000
v -0.028660 0.005000 0.015800
v -0.028456 0.004882 0.015234
v -0.027966 0.004599 0.150000
v -0.028660 0.005000 0.149200
v -0.028456 0.004882 0.149766
v -0.027297 0.005600 0.015000
v -0.027934 0.006088 0.015800
v -0.027747 0.005944 0.015234
v -0.027297 0.005600 0.150000
v -0.027934 0.006088 0.149200
v -0.027747 0.005944 0.149766
v -0.026504 0.006504 0.015000
v -0.027071 0.007071 0.015800
v -0.026905 0.006905 0.015234
v -0.026504 0.006504 0.150000
v -0.027071 0.007071 0.149200
v -0.026905 0.006905 0.149766
v -0.025600 0.007297 0.015000
v -0.026088 0.007934 0.015800
v -0.025944 0.007747 0.015234
v -0.025600 0.007297 0.150000
v -0.026088 0.007934 0.149200
v -0.025944 0.007747 0.149766
v -0.024599 0.007966 0.015000
v -0.025000 0.008660 0.015800
v -0.024882 0.008456 0.015234
v -0.024599 0.007966 0.150000
v -0.025000 0.008660 0.149200
v -0.024882 0.008456 0.149766
v -0.023520 0.008498 0.015000
v -0.023827 0.009239 0.015800
v -0.023737 0.009021 0.015234
v -0.023520 0.008498 0.150000
v -0.023827 0.009239 0.149200
v -0.023737 0.009021 0.149766
v -0.022381 0.008885 0.015000
v -0.022588 0.009659 0.015800
v -0.022527 0.009432 0.015234
v -0.022381 0.008885 0.150000
v -0.022588 0.009659 0.149200
v -0.022527 0.009432 0.149766
v -0.021201 0.009120 0.015000
v -0.021305 0.009914 0.015800
v -0.021275 0.009681 0.015234
v -0.021201 0.009120 0.150000
v -0.021305 0.009914 0.149200
v -0.021275 0.009681 0.149766
v 0.020000 0.003679 0.015000
v 0.020000 0.004000 0.015320
v 0.020000 0.003906 0.015094
v 0.020000 0.003679 0.075000
v 0.020000 0.004000 0.074680
v 0.020000 0.003906 0.074906
v 0.020480 0.003648 0.015000
v 0.020522 0.003966 0.015320
v 0.020510 0.003872 0.015094
v 0.020480 0.003648 0.075000
v 0.020522 0.003966 0.074680
v 0.020510 0.003872 0.074906
v 0.020952 0.003554 0.015000
v 0.021035 0.003864 0.015320
v 0.021011 0.003773 0.015094
v 0.020952 0.003554 0.075000
v 0.021035 0.003864 0.074680
v 0.021011 0.003773 0.074906
v 0.021408 0.003399 0.015000
v 0.021531 0.003696 0.015320
v 0.021495 0.003608 0.015094
v 0.021408 0.003399 0.075000
v 0.021531 0.003696 0.074680
v 0.021495 0.003608 0.074906
v 0.021840 0.003186 0.015000
v 0.022000 0.003464 0.015320
v 0.021953 0.003383 0.015094
v 0.021840 0.003186 0.075000
v 0.022000 0.003464 0.074680
v 0.021953 0.003383 0.074906
v 0.022240 0.002919 0.015000
v 0.022435 0.003173 0.015320
v 0.022378 0.003099 0.015094
v 0.022240 0.002919 0.075000
v 0.022435 0.003173 0.074680
v 0.022378 0.003099 0.074906
v 0.022602 0.002602 0.015000
v 0.022828 0.002828 0.015320
v 0.022762 0.002762 0.015094
v 0.022602 0.002602 0.075000
v 0.022828 0.002828 0.074680
v 0.022762 0.002762 0.074906
v 0.022919 0.002240 0.015000
v 0.023173 0.002435 0.015320
v 0.023099 0.002378 0.015094
v 0.022919 0.002240 0.075000
v 0.023173 0.002435 0.074680
v 0.023099 0.002378 0.074906
v 0.023186 0.001840 0.015000
v 0.023464 0.002000 0.015320
v 0.023383 0.001953 0.015094
v 0.023186 0.001840 0.075000
v 0.023464 0.002000 0.074680
v 0.023383 0.001953 0.074906
v 0.023399 0.001408 0.015000
v 0.023696 0.001531 0.015320
v 0.023608 0.001495 0.015094
v 0.023399 0.001408 0.075000
v 0.023696 0.001531 0.074680
v 0.023608 0.001495 0.074906
v 0.023554 0.000952 0.015000
v 0.023864 0.001035 0.015320
v 0.023773 0.001011 0.015094
v 0.023554 0.000952 0.075000
v 0.023864 0.001035 0.074680
v 0.023773 0.001011 0.074906
v 0.023648 0.000480 0.015000
v 0.023966 0.000522 0.015320
v 0.023872 0.000510 0.015094
v 0.023648 0.000480 0.075000
v 0.023966 0.000522 0.074680
v 0.023872 0.000510 0.074906
v 0.023679 -0.000000 0.015000
v 0.024000 0.000000 0.015320
v 0.023906 0.000000 0.015094
v 0.023679 0.000000 0.075000
v 0.024000 0.000000 0.074680
v 0.023906 -0.000000 0.074906
v 0.023648 -0.000480 0.015000
v 0.023966 -0.000522 0.015320
v 0.023872 -0.000510 0.015094
v 0.023648 -0.000480 0.075000
v 0.023966 -0.000522 0.074680
v 0.023872 -0.000510 0.074906
v 0.023554 -0.000952 0.015000
v 0.023864 -0.001035 0.015320
v 0.023773 -0.001011 0.015094
v 0.023554 -0.000952 0.075000
v 0.023864 -0.001035 0.074680
v 0.023773 -0.001011 0.074906
v 0.023399 -0.001408 0.015000
v 0.023696 -0.001531 0.015320
v 0.023608 -0.001495 0.015094
v 0.023399 -0.001408 0.075000
v 0.023696 -0.001531 0.074680
v 0.023608 -0.001495 0.074906
v 0.023186 -0.001840 0.015000
v 0.023464 -0.002000 0.015320
v 0.023383 -0.001953 0.015094
v 0.023186 -0.001840 0.075000
v 0.023464 -0.002000 0.074680
v 0.023383 -0.001953 0.074906
v 0.022919 -0.002240 0.015000
v 0.023173 -0.002435 0.015320
v 0.023099 -0.002378 0.015094
v 0.022919 -0.002240 0.075000
v 0.023173 -0.002435 0.074680
v 0.023099 -0.002378 0.074906
v 0.022602 -0.002602 0.015000
v 0.022828 -0.002828 0.015320
v 0.022762 -0.002762 0.015094
v 0.022602 -0.002602 0.075000
v 0.022828 -0.002828 0.074680
v 0.022762 -0.002762 0.074906
v 0.022240 -0.002919 0.015000
v 0.022435 -0.003173 0.015320
v 0.022378 -0.003099 0.015094
v 0.022240 -0.002919 0.075000
v 0.022435 -0.003173 0.074680
v 0.022378 -0.003099 0.074906
v 0.021840 -0.003186 0.015000
v 0.022000 -0.003464 0.015320
v 0.021953 -0.003383 0.015094
v 0.021840 -0.003186 0.075000
v 0.022000 -0.003464 0.074680
v 0.021953 -0.003383 0.074906
v 0.021408 -0.003399 0.015000
v 0.021531 -0.003696 0.015320
v 0.021495 -0.003608 0.015094
v 0.021408 -0.003399 0.075000
v 0.021531 -0.003696 0.074680
v 0.021495 -0.003608 0.074906
v 0.020952 -0.003554 0.015000
v 0.021035 -0.003864 0.015320
v 0.021011 -0.003773 0.015094
v 0.020952 -0.003554 0.075000
v 0.021035 -0.003864 0.074680
v 0.021011 -0.003773 0.074906
v 0.020480 -0.003648 0.015000
v 0.020522 -0.003966 0.015320
v 0.020510 -0.003872 0.015094
v 0.020480 -0.003648 0.075000
v 0.020522 -0.003966 0.074680
v 0.020510 -0.003872 0.074906
v 0.020000 -0.003679 0.015000
v 0.020000 -0.004000 0.015320
v 0.020000 -0.003906 0.015094
v 0.020000 -0.003679 0.075000
v 0.020000 -0.004000 0.074680
v 0.020000 -0.003906 0.074906
v 0.019520 -0.003648 0.015000
v 0.019478 -0.003966 0.015320
v 0.019490 -0.003872 0.015094
v 0.019520 -0.003648 0.075000
v 0.019478 -0.003966 0.074680
v 0.019490 -0.003872 0.074906
v 0.019048 -0.003554 0.015000
v 0.018965 -0.003864 0.015320
v 0.018989 -0.003773 0.015094
v 0.019048 -0.003554 0.075000
v 0.018965 -0.003864 0.074680
v 0.018989 -0.003773 0.074906
v 0.018592 -0.003399 0.015000
v 0.018469 -0.003696 0.015320
v 0.018505 -0.003608 0.015094
v 0.018592 -0.003399 0.075000
v 0.018469 -0.003696 0.074680
v 0.018505 -0.003608 0.074906
v 0.018160 -0.003186 0.015000
v 0.018000 -0.003464 0.015320
v 0.018047 -0.003383 0.015094
v 0.018160 -0.003186 0.075000
v 0.018000 -0.003464 0.074680
v 0.018047 -0.003383 0.074906
v 0.017760 -0.002919 0.015000
v 0.017565 -0.003173 0.015320
v 0.017622 -0.003099 0.015094
v 0.017760 -0.002919 0.075000
v 0.017565 -0.003173 0.074680
v 0.017622 -0.003099 0.074906
v 0.017398 -0.002602 0.015000
v 0.017172 -0.002828 0.015320
v 0.017238 -0.002762 0.015094
v 0.017398 -0.002602 0.075000
v 0.017172 -0.002828 0.074680
v 0.017238 -0.002762 0.074906
v 0.017081 -0.002240 0.015000
v 0.016827 -0.002435 0.015320
v 0.016901 -0.002378 0.015094
v 0.017081 -0.002240 0.075000
v 0.016827 -0.002435 0.074680
v 0.016901 -0.002378 0.074906
v 0.016814 -0.001840 0.015000
v 0.016536 -0.002000 0.015320
v 0.016617 -0.001953 0.015094
v 0.016814 -0.001840 0.075000
v 0.016536 -0.002000 0.074680
v 0.016617 -0.001953 0.074906
v 0.016601 -0.001408 0.015000
v 0.016304 -0.001531 0.015320
v 0.016392 -0.001495 0.015094
v 0.016601 -0.001408 0.075000
v 0.016304 -0.001531 0.074680
v 0.016392 -0.001495 0.074906
v 0.016446 -0.000952 0.015000
v 0.016136 -0.001035 0.015320
v 0.016227 -0.001011 0.015094
v 0.016446 -0.000952 0.075000
v 0.016136 -0.001035 0.074680
v 0.016227 -0.001011 0.074906
v 0.016352 -0.000480 0.015000
v 0.016034 -0.000522 0.015320
v 0.016128 -0.000510 0.015094
v 0.016352 -0.000480 0.075000
v 0.016034 -0.000522 0.074680
v 0.016128 -0.000510 0.074906
v 0.016321 0.000000 0.015000
v 0.016000 0.000000 0.015320
v 0.016094 -0.000000 0.015094
v 0.016321 -0.000000 0.075000
v 0.016000 0.000000 0.074680
v 0.016094 0.000000 0.074906
v 0.016352 0.000480 0.015000
v 0.016034 0.000522 0.015320
v 0.016128 0.000510 0.015094
v 0.016352 0.000480 0.075000
v 0.016034 0.000522 0.074680
v 0.016128 0.000510 0.074906
v 0.016446 0.000952 0.015000
v 0.016136 0.001035 0.015320
v 0.016227 0.001011 0.015094
v 0.016446 0.000952 0.075000
v 0.016136 0.001035 0.074680
v 0.016227 0.001011 0.074906
v 0.016601 0.001408 0.015000
v 0.016304 0.001531 0.015320
v 0.016392 0.001495 0.015094
v 0.016601 0.001408 0.075000
v 0.016304 0.001531 0.074680
v 0.016392 0.001495 0.074906
v 0.016814 0.001840 0.015000
v 0.016536 0.002000 0.015320
v 0.016617 0.001953 0.015094
v 0.016814 0.001840 0.075000
v 0.016536 0.002000 0.074680
v 0.016617 0.001953 0.074906
v 0.017081 0.002240 0.015000
v 0.016827 0.002435 0.015320
v 0.016901 0.002378 0.015094
v 0.017081 0.002240 0.075000
v 0.016827 0.002435 0.074680
v 0.016901 0.002378 0.074906
v 0.017398 0.002602 0.015000
v 0.017172 0.002828 0.015320
v 0.017238 0.002762 0.015094
v 0.017398 0.002602 0.075000
v 0.017172 0.002828 0.074680
v 0.017238 0.002762 0.074906
v 0.017760 0.002919 0.015000
v 0.017565 0.003173 0.015320
v 0.017622 0.003099 0.015094
v 0.017760 0.002919 0.075000
v 0.017565 0.003173 0.074680
v 0.017622 0.003099 0.074906
v 0.018160 0.003186 0.015000
v 0.018000 0.003464 0.015320
v 0.018047 0.003383 0.015094
v 0.018160 0.003186 0.075000
v 0.018000 0.003464 0.074680
v 0.018047 0.003383 0.074906
v 0.018592 0.003399 0.015000
v 0.018469 0.003696 0.015320
v 0.018505 0.003608 0.015094
v 0.018592 0.003399 0.075000
v 0.018469 0.003696 0.074680
v 0.018505 0.003608 0.074906
v 0.019048 0.003554 0.015000
v 0.018965 0.003864 0.015320
v 0.018989 0.003773 0.015094
v 0.019048 0.003554 0.075000
v 0.018965 0.003864 0.074680
v 0.018989 0.003773 0.074906
v 0.019520 0.003648 0.015000
v 0.019478 0.003966 0.015320
v 0.019490 0.003872 0.015094
v 0.019520 0.003648 0.075000
v 0.019478 0.003966 0.074680
v 0.019490 0.003872 0.074906
vn -0.2502 -0.2502 -0.9353
vn -0.2178 -0.6901 -0.6901
vn -0.2502 -0.9353 -0.2502
vn -0.6901 -0.6901 -0.2178
vn -0.9353 -0.2502 -0.2502
vn -0.6901 -0.2178 -0.6901
vn -0.5774 -0.5773 -0.5773
vn -0.2502 -0.9353 0.2502
vn -0.2178 -0.6901 0.6901
vn -0.2502 -0.2502 0.9353
vn -0.6901 -0.2178 0.6901
vn -0.9353 -0.2502 0.2502
vn -0.6901 -0.6901 0.2178
vn -0.5774 -0.5773 0.5773
vn -0.2502 0.2502 -0.9353
vn -0.6901 0.2178 -0.6901
vn -0.9353 0.2502 -0.2502
vn -0.6901 0.6901 -0.2178
vn -0.2502 0.9353 -0.2502
vn -0.2178 0.6901 -0.6901
vn -0.5773 0.5774 -0.5773
vn -0.2502 0.2502 0.9353
vn -0.2178 0.6901 0.6901
vn -0.2502 0.9353 0.2502
vn -0.6901 0.6901 0.2178
vn -0.9353 0.2502 0.2502
vn -0.6901 0.2178 0.6901
vn -0.5774 0.5773 0.5773
vn 0.2502 -0.2502 -0.9353
vn 0.6901 -0.2178 -0.6901
vn 0.9353 -0.2502 -0.2502
vn 0.6901 -0.6901 -0.2178
vn 0.2502 -0.9353 -0.2502
vn 0.2178 -0.6901 -0.6901
vn 0.5773 -0.5774 -0.5773
vn 0.2502 -0.2502 0.9353
vn 0.2178 -0.6901 0.6901
vn 0.2502 -0.9353 0.2502
vn 0.6901 -0.6901 0.2178
vn 0.9353 -0.2502 0.2502
vn 0.6901 -0.2178 0.6901
vn 0.5774 -0.5773 0.5773
vn 0.2502 0.2502 -0.9353
vn 0.2178 0.6901 -0.6901
vn 0.2502 0.9353 -0.2502
vn 0.6901 0.6901 -0.2178
vn 0.9353 0.2502 -0.2502
vn 0.6901 0.2178 -0.6901
vn 0.5774 0.5773 -0.5773
vn 0.2502 0.2502 0.9353
vn 0.6901 0.2178 0.6901
vn 0.9353 0.2502 0.2502
vn 0.6901 0.6901 0.2178
vn 0.2502 0.9353 0.2502
vn 0.2178 0.6901 0.6901
vn 0.5774 0.5774 0.5773
vn -0.2585 -0.0000 -0.9660
vn -0.7071 -0.0000 -0.7071
vn -0.9660 -0.0000 -0.2585
vn -0.2585 -0.9660 -0.0000
vn -0.7071 -0.7071 -0.0000
vn -0.9660 -0.2585 -0.0000
vn -0.2585 -0.0000 0.9660
vn -0.7071 -0.0000 0.7071
vn -0.9660 -0.0000 0.2585
vn -0.2585 0.9660 -0.0000
vn -0.7071 0.7071 -0.0000
vn -0.9660 0.2585 -0.0000
vn -0.0000 0.2585 -0.9660
vn -0.0000 0.7071 -0.7071
vn -0.0000 0.9660 -0.2585
vn -0.0000 0.2585 0.9660
vn -0.0000 0.7071 0.7071
vn -0.0000 0.9660 0.2585
vn 0.9660 0.2585 -0.0000
vn 0.7071 0.7071 -0.0000
vn 0.2585 0.9660 -0.0000
vn 0.2585 -0.0000 -0.9660
vn 0.7071 -0.0000 -0.7071
vn 0.9660 -0.0000 -0.2585
vn 0.2585 -0.0000 0.9660
vn 0.7071 -0.0000 0.7071
vn 0.9660 -0.0000 0.2585
vn 0.2585 -0.9660 -0.0000
vn 0.7071 -0.7071 -0.0000
vn 0.9660 -0.2585 -0.0000
vn -0.0000 -0.2585 -0.9660
vn -0.0000 -0.7071 -0.7071
vn -0.0000 -0.9660 -0.2585
vn -0.0000 -0.2585 0.9660
vn -0.0000 -0.7071 0.7071
vn -0.0000 -0.9660 0.2585
vn -0.0000 -0.0000 -1.0000
vn -1.0000 -0.0000 -0.0000
vn -0.0000 -1.0000 -0.0000
vn -0.0000 -0.0000 1.0000
vn -0.0000 1.0000 -0.0000
vn 1.0000 -0.0000 -0.0000
vn 0.0604 0.9215 -0.3837
vn 0.0251 0.3823 -0.9237
vn 0.0604 0.9215 0.3837
vn 0.0251 0.3823 0.9237
vn 0.1802 0.9057 -0.3837
vn 0.0747 0.3757 -0.9237
vn 0.1802 0.9057 0.3837
vn 0.0748 0.3757 0.9237
vn 0.2968 0.8745 -0.3837
vn 0.1231 0.3628 -0.9237
vn 0.2968 0.8745 0.3837
vn 0.1231 0.3628 0.9237
vn 0.4084 0.8282 -0.3837
vn 0.1694 0.3436 -0.9237
vn 0.4085 0.8282 0.3837
vn 0.1694 0.3436 0.9237
vn 0.5131 0.7678 -0.3837
vn 0.2128 0.3185 -0.9237
vn 0.5131 0.7678 0.3837
vn 0.2129 0.3185 0.9237
vn 0.6089 0.6943 -0.3837
vn 0.2526 0.2880 -0.9237
vn 0.6089 0.6943 0.3837
vn 0.2526 0.2880 0.9237
vn 0.6943 0.6089 -0.3837
vn 0.2880 0.2526 -0.9237
vn 0.6943 0.6089 0.3837
vn 0.2880 0.2526 0.9237
vn 0.7678 0.5131 -0.3837
vn 0.3185 0.2128 -0.9237
vn 0.7678 0.5130 0.3837
vn 0.3185 0.2128 0.9237
vn 0.8282 0.4084 -0.3837
vn 0.3436 0.1694 -0.9237
vn 0.8282 0.4084 0.3837
vn 0.3436 0.1694 0.9237
vn 0.8745 0.2968 -0.3837
vn 0.3628 0.1231 -0.9237
vn 0.8745 0.2968 0.3837
vn 0.3627 0.1231 0.9237
vn 0.9057 0.1802 -0.3837
vn 0.3757 0.0747 -0.9237
vn 0.9057 0.1802 0.3837
vn 0.3757 0.0747 0.9237
vn 0.9215 0.0604 -0.3837
vn 0.3823 0.0251 -0.9237
vn 0.9215 0.0604 0.3837
vn 0.3823 0.0251 0.9237
vn 0.9215 -0.0604 -0.3837
vn 0.3823 -0.0251 -0.9237
vn 0.9215 -0.0604 0.3837
vn 0.3823 -0.0251 0.9237
vn 0.9057 -0.1802 -0.3837
vn 0.3757 -0.0747 -0.9237
vn 0.9057 -0.1802 0.3837
vn 0.3758 -0.0747 0.9237
vn 0.8745 -0.2968 -0.3837
vn 0.3628 -0.1231 -0.9237
vn 0.8745 -0.2968 0.3837
vn 0.3628 -0.1231 0.9237
vn 0.8282 -0.4084 -0.3837
vn 0.3436 -0.1694 -0.9237
vn 0.8282 -0.4084 0.3837
vn 0.3436 -0.1694 0.9237
vn 0.7678 -0.5131 -0.3837
vn 0.3185 -0.2128 -0.9237
vn 0.7678 -0.5130 0.3837
vn 0.3185 -0.2128 0.9237
vn 0.6943 -0.6089 -0.3837
vn 0.2880 -0.2526 -0.9237
vn 0.6943 -0.6089 0.3837
vn 0.2880 -0.2526 0.9237
vn 0.6089 -0.6943 -0.3837
vn 0.2526 -0.2880 -0.9237
vn 0.6089 -0.6943 0.3837
vn 0.2526 -0.2880 0.9237
vn 0.5131 -0.7678 -0.3837
vn 0.2128 -0.3185 -0.9237
vn 0.5131 -0.7678 0.3837
vn 0.2128 -0.3185 0.9237
vn 0.4084 -0.8282 -0.3837
vn 0.1694 -0.3436 -0.9237
vn 0.4085 -0.8282 0.3837
vn 0.1695 -0.3436 0.9237
vn 0.2968 -0.8745 -0.3837
vn 0.1231 -0.3628 -0.9237
vn 0.2968 -0.8745 0.3837
vn 0.1231 -0.3628 0.9237
vn 0.1802 -0.9057 -0.3837
vn 0.0747 -0.3757 -0.9237
vn 0.1802 -0.9057 0.3837
vn 0.0747 -0.3757 0.9237
vn 0.0604 -0.9215 -0.3837
vn 0.0251 -0.3823 -0.9237
vn 0.0604 -0.9215 0.3837
vn 0.0251 -0.3823 0.9237
vn -0.0604 -0.9215 -0.3837
vn -0.0251 -0.3823 -0.9237
vn -0.0604 -0.9215 0.3837
vn -0.0251 -0.3823 0.9237
vn -0.1802 -0.9057 -0.3837
vn -0.0747 -0.3757 -0.9237
vn -0.1802 -0.9057 0.3837
vn -0.0748 -0.3757 0.9237
vn -0.2968 -0.8745 -0.3837
vn -0.1231 -0.3628 -0.9237
vn -0.2968 -0.8745 0.3837
vn -0.1231 -0.3628 0.9237
vn -0.4084 -0.8282 -0.3837
vn -0.1694 -0.3436 -0.9237
vn -0.4085 -0.8282 0.3837
vn -0.1694 -0.3436 0.9237
vn -0.5131 -0.7678 -0.3837
vn -0.2128 -0.3185 -0.9237
vn -0.5130 -0.7678 0.3837
vn -0.2129 -0.3185 0.9237
vn -0.6089 -0.6943 -0.3837
vn -0.2526 -0.2880 -0.9237
vn -0.6089 -0.6943 0.3837
vn -0.2526 -0.2880 0.9237
vn -0.6943 -0.6089 -0.3837
vn -0.2880 -0.2526 -0.9237
vn -0.6943 -0.6089 0.3837
vn -0.2880 -0.2526 0.9237
vn -0.7678 -0.5131 -0.3837
vn -0.3185 -0.2128 -0.9237
vn -0.7678 -0.5130 0.3837
vn -0.3185 -0.2128 0.9237
vn -0.8282 -0.4084 -0.3837
vn -0.3436 -0.1694 -0.9237
vn -0.8282 -0.4084 0.3837
vn -0.3436 -0.1694 0.9237
vn -0.8745 -0.2968 -0.3837
vn -0.3628 -0.1231 -0.9237
vn -0.8745 -0.2968 0.3837
vn -0.3627 -0.1231 0.9237
vn -0.9057 -0.1802 -0.3837
vn -0.3757 -0.0747 -0.9237
vn -0.9057 -0.1802 0.3837
vn -0.3757 -0.0747 0.9237
vn -0.9215 -0.0604 -0.3837
vn -0.3823 -0.0251 -0.9237
vn -0.9215 -0.0604 0.3837
vn -0.3823 -0.0251 0.9237
vn -0.9215 0.0604 -0.3837
vn -0.3823 0.0251 -0.9237
vn -0.9215 0.0604 0.3837
vn -0.3823 0.0251 0.9237
vn -0.9057 0.1802 -0.3837
vn -0.3757 0.0747 -0.9237
vn -0.9057 0.1802 0.3837
vn -0.3757 0.0747 0.9237
vn -0.8745 0.2968 -0.3837
vn -0.3628 0.1231 -0.9237
vn -0.8745 0.2968 0.3837
vn -0.3628 0.1231 0.9237
vn -0.8282 0.4084 -0.3837
vn -0.3436 0.1694 -0.9237
vn -0.8282 0.4084 0.3837
vn -0.3436 0.1694 0.9237
vn -0.7678 0.5131 -0.3837
vn -0.3185 0.2128 -0.9237
vn -0.7678 0.5130 0.3837
vn -0.3185 0.2128 0.9237
vn -0.6943 0.6089 -0.3837
vn -0.2880 0.2526 -0.9237
vn -0.6943 0.6089 0.3837
vn -0.2880 0.2526 0.9237
vn -0.6089 0.6943 -0.3837
vn -0.2526 0.2880 -0.9237
vn -0.6089 0.6943 0.3837
vn -0.2526 0.2880 0.9237
vn -0.5131 0.7678 -0.3837
vn -0.2128 0.3185 -0.9237
vn -0.5131 0.7678 0.3837
vn -0.2128 0.3185 0.9237
vn -0.4084 0.8282 -0.3837
vn -0.1694 0.3436 -0.9237
vn -0.4085 0.8282 0.3837
vn -0.1694 0.3436 0.9237
vn -0.2968 0.8745 -0.3837
vn -0.1231 0.3628 -0.9237
vn -0.2968 0.8745 0.3837
vn -0.1231 0.3628 0.9237
vn -0.1802 0.9057 -0.3837
vn -0.0747 0.3757 -0.9237
vn -0.1802 0.9057 0.3837
vn -0.0747 0.3757 0.9237
vn -0.0604 0.9215 -0.3837
vn -0.0251 0.3823 -0.9237
vn -0.0604 0.9215 0.3837
vn -0.0251 0.3823 0.9237
vn 0.0654 0.9979 -0.0000
vn -0.0654 0.9979 -0.0000
vn 0.1951 0.9808 -0.0000
vn 0.3214 0.9469 -0.0000
vn 0.4423 0.8969 -0.0000
vn 0.5556 0.8315 -0.0000
vn 0.6593 0.7518 -0.0000
vn 0.7518 0.6593 -0.0000
vn 0.8315 0.5556 -0.0000
vn 0.8969 0.4423 -0.0000
vn 0.9469 0.3214 -0.0000
vn 0.9808 0.1951 -0.0000
vn 0.9979 0.0654 -0.0000
vn 0.9979 -0.0654 -0.0000
vn 0.9808 -0.1951 -0.0000
vn 0.9469 -0.3214 -0.0000
vn 0.8969 -0.4423 -0.0000
vn 0.8315 -0.5556 -0.0000
vn 0.7518 -0.6593 -0.0000
vn 0.6593 -0.7518 -0.0000
vn 0.5556 -0.8315 -0.0000
vn 0.4423 -0.8969 -0.0000
vn 0.3214 -0.9469 -0.0000
vn 0.1951 -0.9808 -0.0000
vn 0.0654 -0.9979 -0.0000
vn -0.0654 -0.9979 -0.0000
vn -0.1951 -0.9808 -0.0000
vn -0.3214 -0.9469 -0.0000
vn -0.4423 -0.8969 -0.0000
vn -0.5556 -0.8315 -0.0000
vn -0.6593 -0.7518 -0.0000
vn -0.7518 -0.6593 -0.0000
vn -0.8315 -0.5556 -0.0000
vn -0.8969 -0.4423 -0.0000
vn -0.9469 -0.3214 -0.0000
vn -0.9808 -0.1951 -0.0000
vn -0.9979 -0.0654 -0.0000
vn -0.9979 0.0654 -0.0000
vn -0.9808 0.1951 -0.0000
vn -0.9469 0.3214 -0.0000
vn -0.8969 0.4423 -0.0000
vn -0.8315 0.5556 -0.0000
vn -0.7518 0.6593 -0.0000
vn -0.6593 0.7518 -0.0000
vn -0.5556 0.8315 -0.0000
vn -0.4423 0.8969 -0.0000
vn -0.3214 0.9469 -0.0000
vn -0.1951 0.9808 -0.0000
vn 0.0250 0.3823 0.9237
vn 0.0747 0.3757 0.9237
vn 0.1232 0.3628 0.9237
vn 0.2128 0.3185 0.9237
vn 0.8283 0.4084 0.3837
vn 0.3628 0.1231 0.9237
vn 0.7678 -0.5131 0.3837
vn 0.3186 -0.2128 0.9237
vn 0.5130 -0.7678 0.3837
vn 0.2129 -0.3185 0.9237
vn 0.4084 -0.8282 0.3837
vn 0.1694 -0.3436 0.9237
vn 0.0748 -0.3757 0.9237
vn -0.0250 -0.3823 0.9237
vn -0.0747 -0.3757 0.9237
vn -0.1232 -0.3628 0.9237
vn -0.5131 -0.7678 0.3837
vn -0.2128 -0.3185 0.9237
vn -0.7678 -0.5131 0.3837
vn -0.8283 -0.4084 0.3837
vn -0.3628 -0.1231 0.9237
vn -0.3758 -0.0747 0.9237
vn -0.7678 0.5131 0.3837
vn -0.3186 0.2128 0.9237
vn -0.5130 0.7678 0.3837
vn -0.2129 0.3185 0.9237
vn -0.4084 0.8282 0.3837
vn -0.0748 0.3757 0.9237
vn -0.7518 0.6594 -0.0000
vn -0.2635 -0.2635 -0.9280
vn -0.2635 -0.9280 -0.2635
vn -0.9280 -0.2635 -0.2635
vn -0.2635 -0.9280 0.2635
vn -0.2635 -0.2635 0.9280
vn -0.9280 -0.2635 0.2635
vn -0.2635 0.2635 -0.9280
vn -0.9280 0.2635 -0.2635
vn -0.2635 0.9280 -0.2635
vn -0.2635 0.2635 0.9280
vn -0.2635 0.9280 0.2635
vn -0.9280 0.2635 0.2635
vn 0.2635 -0.2635 -0.9280
vn 0.9280 -0.2635 -0.2635
vn 0.2635 -0.9280 -0.2635
vn 0.2635 -0.2635 0.9280
vn 0.2635 -0.9280 0.2635
vn 0.9280 -0.2635 0.2635
vn 0.2635 0.2635 -0.9280
vn 0.2635 0.9280 -0.2635
vn 0.9280 0.2635 -0.2635
vn 0.2635 0.2635 0.9280
vn 0.9280 0.2635 0.2635
vn 0.2635 0.9280 0.2635
vn 0.4084 0.8282 0.3837
vn 0.7678 0.5131 0.3837
vn 0.8282 0.4085 0.3837
vn 0.3758 0.0747 0.9237
vn 0.3757 -0.0747 0.9237
vn 0.3627 -0.1231 0.9237
vn -0.4084 -0.8282 0.3837
vn -0.8282 -0.4085 0.3837
vn -0.3627 0.1231 0.9237
vn -0.8282 0.4085 0.3837
vn -0.1695 0.3436 0.9237
vn -0.0002 -0.0000 1.0000
vn 0.0002 -0.0000 1.0000
vn -0.0001 -0.0000 1.0000
vn 0.0001 -0.0000 1.0000
vn 0.5130 0.7678 0.3837
vn 0.3186 0.2128 0.9237
vn 0.8283 -0.4084 0.3837
vn 0.1232 -0.3628 0.9237
vn 0.0250 -0.3823 0.9237
vn -0.3186 -0.2128 0.9237
vn -0.3758 0.0747 0.9237
vn -0.8283 0.4084 0.3837
vn -0.1232 0.3628 0.9237
vn -0.0250 0.3823 0.9237
vn 0.0001 -0.0000 -1.0000
vn -0.0001 -0.0000 -1.0000
vn -0.7518 -0.6594 -0.0000
vt 0.140000 -0.023740
vt 0.132510 -0.016250
vt 0.140000 -0.016250
vt 0.132827 -0.027299
vt 0.132827 -0.023423
vt 0.132510 0.421250
vt 0.140000 0.413760
vt 0.140000 0.421250
vt -0.023740 0.421250
vt -0.027299 0.414077
vt -0.029246 0.421250
vt -0.016250 0.413760
vt -0.016250 0.421250
vt 0.127004 -0.016250
vt 0.128951 -0.023423
vt 0.132827 0.410201
vt 0.132827 0.414077
vt 0.128951 0.414077
vt 0.140000 0.586240
vt 0.132510 0.578750
vt 0.140000 0.578750
vt 0.140000 -0.029246
vt -0.023740 0.578750
vt -0.016250 0.586240
vt -0.016250 0.578750
vt -0.027299 0.585923
vt -0.023423 0.585923
vt 0.132827 0.585923
vt 0.132827 0.589799
vt 0.128951 0.585923
vt 0.132510 1.016250
vt 0.140000 1.023740
vt 0.140000 1.016250
vt 0.127004 1.016250
vt 0.132827 1.023423
vt 1.023740 0.421250
vt 1.016250 0.413760
vt 1.016250 0.421250
vt 1.027299 0.414077
vt 1.023423 0.414077
vt 0.140000 0.413760
vt 0.132510 0.421250
vt 0.132827 1.027299
vt 0.140000 1.029246
vt 0.132827 0.410201
vt 0.128951 0.414077
vt 0.132827 0.414077
vt 0.140000 1.023740
vt 0.132510 1.016250
vt 0.132827 1.027299
vt 0.132827 1.023423
vt 1.023740 0.578750
vt 1.027299 0.585923
vt 1.029246 0.578750
vt 1.016250 0.586240
vt 1.016250 0.578750
vt 0.128951 1.023423
vt 0.127004 1.016250
vt 0.867490 -0.016250
vt 0.860000 -0.023740
vt 0.860000 -0.016250
vt 0.872996 -0.016250
vt 0.867173 -0.023423
vt -0.023423 0.414077
vt 0.860000 0.413760
vt 0.867490 0.421250
vt 0.860000 0.421250
vt 0.867173 -0.027299
vt 0.860000 -0.029246
vt 0.867173 0.410201
vt 0.871049 0.414077
vt 0.867173 0.414077
vt 0.860000 -0.023740
vt 0.867490 -0.016250
vt 0.867173 -0.027299
vt 0.867173 -0.023423
vt 0.867490 0.578750
vt 0.860000 0.586240
vt 0.860000 0.578750
vt -0.029246 0.578750
vt 0.871050 -0.023423
vt 0.872996 -0.016250
vt 0.867173 0.589799
vt 0.867173 0.585923
vt 0.871050 0.585923
vt 0.860000 1.023740
vt 0.867490 1.016250
vt 0.860000 1.016250
vt 0.867173 1.027299
vt 0.867173 1.023423
vt 0.867490 0.421250
vt 0.860000 0.413760
vt 1.029246 0.421250
vt 0.872996 1.016250
vt 0.871050 1.023423
vt 0.867173 0.410201
vt 0.867173 0.414077
vt 0.871050 0.414077
vt 0.867490 1.016250
vt 0.860000 1.023740
vt 0.871049 1.023423
vt 0.867173 1.023423
vt 1.023423 0.585923
vt 0.860000 0.586240
vt 0.867490 0.578750
vt 0.867173 1.027299
vt 0.860000 1.029246
vt 0.867173 0.589799
vt 0.871049 0.585923
vt 0.867173 0.585923
vt -0.016250 0.408254
vt 1.016250 0.408254
vt 1.016250 0.591746
vt -0.016250 0.591746
vt 0.860000 1.029246
vt 0.140000 1.029246
vt 0.860000 -0.029246
vt 0.073165 0.992589
vt 0.081937 0.996767
vt 0.072826 0.996767
vt 0.474524 0.089259
vt 0.477465 0.079634
vt 0.478625 0.088443
vt 0.073165 0.007411
vt 0.081937 0.003233
vt 0.082496 0.007411
vt 0.474524 0.239640
vt 0.480925 0.247407
vt 0.476965 0.248752
vt 0.082496 0.992589
vt 0.090652 0.996767
vt 0.473292 0.079907
vt 0.477465 0.070748
vt 0.090652 0.003233
vt 0.091421 0.007411
vt 0.484325 0.255617
vt 0.480575 0.257466
vt 0.091421 0.992589
vt 0.098821 0.996767
vt 0.474524 0.061122
vt 0.473292 0.070474
vt 0.098821 0.003233
vt 0.099787 0.007411
vt 0.485291 0.265635
vt 0.488768 0.263312
vt 0.099787 0.992589
vt 0.106304 0.996767
vt 0.480925 0.053355
vt 0.478625 0.061938
vt 0.106304 0.003233
vt 0.107451 0.007411
vt 0.494177 0.270362
vt 0.491033 0.273119
vt 0.114282 0.992589
vt 0.107451 0.992589
vt 0.476965 0.052011
vt 0.484325 0.045146
vt 0.127579 0.007411
vt 0.122056 0.003233
vt 0.128726 0.003233
vt 0.500460 0.276645
vt 0.497703 0.279789
vt 0.135243 0.992589
vt 0.128726 0.996767
vt 0.127579 0.992589
vt 0.485291 0.035127
vt 0.480575 0.043296
vt 0.135243 0.007411
vt 0.136209 0.003233
vt 0.505187 0.285531
vt 0.507510 0.282054
vt 0.143609 0.992589
vt 0.136209 0.996767
vt 0.494177 0.030401
vt 0.488768 0.037450
vt 0.144378 0.003233
vt 0.143609 0.007411
vt 0.515205 0.286497
vt 0.513356 0.290247
vt 0.152534 0.992589
vt 0.144378 0.996767
vt 0.497703 0.020974
vt 0.491033 0.027644
vt 0.153093 0.003233
vt 0.152534 0.007411
vt 0.522071 0.293857
vt 0.523415 0.289897
vt 0.161865 0.992589
vt 0.153093 0.996767
vt 0.505187 0.015232
vt 0.500460 0.024118
vt 0.162204 0.003233
vt 0.161865 0.007411
vt 0.531998 0.292197
vt 0.531182 0.296298
vt 0.171442 0.992589
vt 0.162204 0.996767
vt 0.513356 0.010515
vt 0.507510 0.018708
vt 0.171556 0.003233
vt 0.171442 0.007411
vt 0.540534 0.297530
vt 0.540807 0.293357
vt 0.181102 0.992589
vt 0.171556 0.996767
vt 0.522070 0.006906
vt 0.515205 0.014265
vt 0.181102 0.007411
vt 0.180989 0.003233
vt 0.549967 0.297530
vt 0.549693 0.293357
vt 0.190680 0.992589
vt 0.180989 0.996767
vt 0.531182 0.004464
vt 0.523414 0.010865
vt 0.190680 0.007411
vt 0.190341 0.003233
vt 0.559319 0.296298
vt 0.558503 0.292197
vt 0.199452 0.996767
vt 0.190341 0.996767
vt 0.540807 0.007405
vt 0.531998 0.008565
vt 0.199452 0.003233
vt 0.200011 0.007411
vt 0.567086 0.289897
vt 0.568430 0.293857
vt 0.200011 0.992589
vt 0.208167 0.996767
vt 0.540534 0.003233
vt 0.549693 0.007405
vt 0.208167 0.003233
vt 0.208936 0.007411
vt 0.575295 0.286497
vt 0.577145 0.290247
vt 0.217302 0.992589
vt 0.208936 0.992589
vt 0.549966 0.003233
vt 0.558503 0.008565
vt 0.217302 0.007411
vt 0.216336 0.003233
vt 0.582990 0.282054
vt 0.585314 0.285531
vt 0.224966 0.992589
vt 0.216336 0.996767
vt 0.559318 0.004464
vt 0.567086 0.010865
vt 0.223819 0.003233
vt 0.224966 0.007411
vt 0.590040 0.276645
vt 0.592797 0.279789
vt 0.231797 0.992589
vt 0.223819 0.996767
vt 0.568430 0.006905
vt 0.575295 0.014265
vt 0.238263 0.007411
vt 0.246240 0.003233
vt 0.245094 0.007411
vt 0.599467 0.273119
vt 0.596323 0.270362
vt 0.252757 0.992589
vt 0.246240 0.996767
vt 0.245094 0.992589
vt 0.585313 0.015232
vt 0.577144 0.010515
vt 0.252757 0.007411
vt 0.253724 0.003233
vt 0.605209 0.265635
vt 0.601732 0.263312
vt 0.261893 0.996767
vt 0.253724 0.996767
vt 0.590040 0.024118
vt 0.582990 0.018708
vt 0.261893 0.003233
vt 0.261124 0.007411
vt 0.606175 0.255617
vt 0.609926 0.257466
vt 0.270048 0.992589
vt 0.261124 0.992589
vt 0.592797 0.020974
vt 0.596323 0.030401
vt 0.270608 0.003233
vt 0.270048 0.007411
vt 0.613535 0.248751
vt 0.609576 0.247407
vt 0.279379 0.992589
vt 0.270608 0.996767
vt 0.605209 0.035127
vt 0.599467 0.027644
vt 0.279719 0.003233
vt 0.279379 0.007411
vt 0.611876 0.238824
vt 0.615977 0.239640
vt 0.288957 0.992589
vt 0.279719 0.996767
vt 0.606175 0.045146
vt 0.601732 0.037450
vt 0.288957 0.007411
vt 0.289071 0.003233
vt 0.613035 0.230015
vt 0.617208 0.230288
vt 0.298617 0.992589
vt 0.289071 0.996767
vt 0.613535 0.052011
vt 0.609926 0.043296
vt 0.298617 0.007411
vt 0.298504 0.003233
vt 0.617208 0.220855
vt 0.613035 0.221129
vt 0.308195 0.992589
vt 0.298504 0.996767
vt 0.615977 0.061122
vt 0.609576 0.053355
vt 0.307856 0.003233
vt 0.308195 0.007411
vt 0.615977 0.211503
vt 0.611876 0.212319
vt 0.316967 0.996767
vt 0.307856 0.996767
vt 0.613035 0.070748
vt 0.611876 0.061938
vt 0.316967 0.003233
vt 0.317526 0.007411
vt 0.609576 0.203736
vt 0.613535 0.202392
vt 0.326451 0.992589
vt 0.317526 0.992589
vt 0.617208 0.070474
vt 0.613035 0.079633
vt 0.325682 0.003233
vt 0.326451 0.007411
vt 0.606175 0.195527
vt 0.609926 0.193677
vt 0.333851 0.996767
vt 0.325682 0.996767
vt 0.615977 0.089259
vt 0.617208 0.079907
vt 0.333851 0.003233
vt 0.334817 0.007411
vt 0.601732 0.187832
vt 0.605209 0.185508
vt 0.342481 0.992589
vt 0.334817 0.992589
vt 0.609576 0.097026
vt 0.611876 0.088443
vt 0.341334 0.003233
vt 0.342481 0.007411
vt 0.596323 0.180782
vt 0.599467 0.178025
vt 0.349312 0.992589
vt 0.341334 0.996767
vt 0.613535 0.098370
vt 0.606175 0.105236
vt 0.362608 0.007411
vt 0.357085 0.003233
vt 0.363755 0.003233
vt 0.590040 0.174499
vt 0.592797 0.171355
vt 0.370272 0.992589
vt 0.363755 0.996767
vt 0.362608 0.992589
vt 0.605209 0.115254
vt 0.609926 0.107085
vt 0.370272 0.007411
vt 0.371239 0.003233
vt 0.585313 0.165613
vt 0.582990 0.169090
vt 0.379408 0.996767
vt 0.371239 0.996767
vt 0.596323 0.119980
vt 0.601732 0.112931
vt 0.379408 0.003233
vt 0.378638 0.007411
vt 0.575295 0.164647
vt 0.577144 0.160896
vt 0.387563 0.992589
vt 0.378638 0.992589
vt 0.599467 0.122737
vt 0.590040 0.126264
vt 0.388122 0.003233
vt 0.387563 0.007411
vt 0.568430 0.157287
vt 0.567086 0.161246
vt 0.396894 0.992589
vt 0.388122 0.996767
vt 0.585314 0.135150
vt 0.592797 0.129407
vt 0.397234 0.003233
vt 0.396894 0.007411
vt 0.558503 0.158946
vt 0.559318 0.154845
vt 0.406472 0.992589
vt 0.397234 0.996767
vt 0.577145 0.139866
vt 0.582990 0.131673
vt 0.406472 0.007411
vt 0.406586 0.003233
vt 0.549966 0.153614
vt 0.549693 0.157787
vt 0.416132 0.992589
vt 0.406586 0.996767
vt 0.567086 0.139516
vt 0.575295 0.136116
vt 0.416132 0.007411
vt 0.416018 0.003233
vt 0.540534 0.153614
vt 0.540807 0.157787
vt 0.425710 0.992589
vt 0.416018 0.996767
vt 0.559319 0.145917
vt 0.568430 0.143476
vt 0.425710 0.007411
vt 0.425370 0.003233
vt 0.531182 0.154845
vt 0.531998 0.158946
vt 0.435041 0.992589
vt 0.425370 0.996767
vt 0.549693 0.142976
vt 0.558503 0.141816
vt 0.434482 0.003233
vt 0.435041 0.007411
vt 0.523414 0.161246
vt 0.522070 0.157287
vt 0.443196 0.996767
vt 0.434482 0.996767
vt 0.540534 0.147148
vt 0.549967 0.147148
vt 0.443196 0.003233
vt 0.443966 0.007411
vt 0.515205 0.164647
vt 0.513356 0.160897
vt 0.443966 0.992589
vt 0.451365 0.996767
vt 0.531998 0.141816
vt 0.540807 0.142976
vt 0.451365 0.003233
vt 0.452332 0.007411
vt 0.507510 0.169090
vt 0.505187 0.165613
vt 0.459996 0.992589
vt 0.452332 0.992589
vt 0.531182 0.145917
vt 0.523415 0.139516
vt 0.458849 0.003233
vt 0.459996 0.007411
vt 0.500460 0.174499
vt 0.497703 0.171355
vt 0.466827 0.992589
vt 0.458849 0.996767
vt 0.513356 0.139866
vt 0.522071 0.143476
vt 0.003233 0.007411
vt 0.011211 0.003233
vt 0.010064 0.007411
vt 0.491033 0.178025
vt 0.494177 0.180782
vt 0.017728 0.992589
vt 0.011211 0.996767
vt 0.010064 0.992589
vt 0.505187 0.135150
vt 0.515205 0.136116
vt 0.018694 0.003233
vt 0.017728 0.007411
vt 0.485291 0.185509
vt 0.488768 0.187832
vt 0.026863 0.996767
vt 0.018694 0.996767
vt 0.500460 0.126264
vt 0.507510 0.131673
vt 0.026863 0.003233
vt 0.026094 0.007411
vt 0.484325 0.195527
vt 0.480575 0.193678
vt 0.026094 0.992589
vt 0.035578 0.996767
vt 0.491033 0.122737
vt 0.497703 0.129407
vt 0.035578 0.003233
vt 0.035019 0.007411
vt 0.476965 0.202392
vt 0.480925 0.203736
vt 0.044350 0.992589
vt 0.035019 0.992589
vt 0.485291 0.115254
vt 0.494177 0.119980
vt 0.044689 0.003233
vt 0.044350 0.007411
vt 0.474524 0.211504
vt 0.478625 0.212319
vt 0.053927 0.992589
vt 0.044689 0.996767
vt 0.484325 0.105236
vt 0.488768 0.112931
vt 0.053927 0.007411
vt 0.054041 0.003233
vt 0.477465 0.221129
vt 0.473292 0.220856
vt 0.063588 0.992589
vt 0.054041 0.996767
vt 0.476965 0.098370
vt 0.480575 0.107085
vt 0.063474 0.003233
vt 0.063588 0.007411
vt 0.473292 0.230288
vt 0.477465 0.230015
vt 0.063474 0.996767
vt 0.480925 0.097026
vt 0.072826 0.003233
vt 0.478625 0.238825
vt 0.120748 0.007411
vt 0.120748 0.992589
vt 0.238263 0.992589
vt 0.355778 0.007411
vt 0.355778 0.992589
vt 0.003233 0.992589
vt 0.265385 0.993279
vt 0.256661 0.997039
vt 0.256763 0.993279
vt 0.401906 0.071981
vt 0.406706 0.079665
vt 0.403014 0.080400
vt 0.265385 0.006721
vt 0.256661 0.002961
vt 0.265079 0.002961
vt 0.403014 0.215870
vt 0.408776 0.222862
vt 0.405212 0.224072
vt 0.273784 0.993279
vt 0.265079 0.997039
vt 0.405662 0.063736
vt 0.405662 0.071735
vt 0.273784 0.006721
vt 0.273281 0.002961
vt 0.411837 0.230252
vt 0.408461 0.231917
vt 0.281818 0.993279
vt 0.273281 0.997039
vt 0.401906 0.063490
vt 0.406706 0.055806
vt 0.281818 0.006721
vt 0.281126 0.002961
vt 0.415837 0.237179
vt 0.412707 0.239271
vt 0.288479 0.997039
vt 0.281126 0.997039
vt 0.405212 0.046870
vt 0.403014 0.055071
vt 0.288479 0.002961
vt 0.289349 0.006721
vt 0.417876 0.246007
vt 0.420706 0.243525
vt 0.296248 0.993279
vt 0.289349 0.993279
vt 0.411837 0.040690
vt 0.408776 0.048080
vt 0.295216 0.002961
vt 0.296248 0.006721
vt 0.426362 0.249181
vt 0.423880 0.252011
vt 0.302397 0.993279
vt 0.295216 0.997039
vt 0.412707 0.031671
vt 0.408461 0.039025
vt 0.301220 0.002961
vt 0.302397 0.006721
vt 0.430617 0.257180
vt 0.432708 0.254051
vt 0.009110 0.993279
vt 0.004138 0.997039
vt 0.002961 0.993279
vt 0.417876 0.024935
vt 0.415837 0.033762
vt 0.002961 0.006721
vt 0.010142 0.002961
vt 0.009110 0.006721
vt 0.437970 0.261426
vt 0.439635 0.258050
vt 0.016009 0.993279
vt 0.010142 0.997039
vt 0.426362 0.021761
vt 0.420706 0.027417
vt 0.016009 0.006721
vt 0.016878 0.002961
vt 0.445815 0.264675
vt 0.447025 0.261111
vt 0.023539 0.993279
vt 0.016878 0.997039
vt 0.423880 0.018931
vt 0.432708 0.016891
vt 0.024232 0.002961
vt 0.023539 0.006721
vt 0.454751 0.263181
vt 0.454017 0.266873
vt 0.032077 0.997039
vt 0.024232 0.997039
vt 0.437970 0.009516
vt 0.430617 0.013762
vt 0.032077 0.002961
vt 0.031573 0.006721
vt 0.462681 0.264225
vt 0.462435 0.267981
vt 0.039973 0.993279
vt 0.031573 0.993279
vt 0.447025 0.009831
vt 0.439635 0.012892
vt 0.040279 0.002961
vt 0.039973 0.006721
vt 0.470680 0.264225
vt 0.470926 0.267981
vt 0.048697 0.997039
vt 0.040279 0.997039
vt 0.454017 0.004069
vt 0.445815 0.006267
vt 0.048697 0.002961
vt 0.048595 0.006721
vt 0.478610 0.263181
vt 0.479345 0.266873
vt 0.057291 0.993279
vt 0.048595 0.993279
vt 0.462681 0.006717
vt 0.454751 0.007761
vt 0.057291 0.006721
vt 0.057188 0.002961
vt 0.487547 0.264675
vt 0.486337 0.261111
vt 0.065607 0.997039
vt 0.057188 0.997039
vt 0.470926 0.002961
vt 0.462435 0.002961
vt 0.065607 0.002961
vt 0.065912 0.006721
vt 0.495391 0.261426
vt 0.493727 0.258050
vt 0.074312 0.993279
vt 0.065912 0.993279
vt 0.479345 0.004069
vt 0.470680 0.006717
vt 0.074312 0.006721
vt 0.073809 0.002961
vt 0.502745 0.257180
vt 0.500654 0.254051
vt 0.081653 0.997039
vt 0.073809 0.997039
vt 0.486337 0.009831
vt 0.478611 0.007761
vt 0.082346 0.006721
vt 0.081653 0.002961
vt 0.509481 0.252011
vt 0.507000 0.249181
vt 0.089877 0.993279
vt 0.082346 0.993279
vt 0.495391 0.009516
vt 0.487547 0.006267
vt 0.089007 0.002961
vt 0.089877 0.006721
vt 0.512656 0.243525
vt 0.515486 0.246007
vt 0.096776 0.993279
vt 0.089007 0.997039
vt 0.500654 0.016891
vt 0.493727 0.012892
vt 0.095743 0.002961
vt 0.096776 0.006721
vt 0.517525 0.237179
vt 0.520655 0.239271
vt 0.102925 0.993279
vt 0.095743 0.997039
vt 0.502745 0.013762
vt 0.507000 0.021761
vt 0.101747 0.002961
vt 0.102925 0.006721
vt 0.521524 0.230252
vt 0.524900 0.231917
vt 0.115745 0.993279
vt 0.109878 0.997039
vt 0.108846 0.993279
vt 0.515486 0.024935
vt 0.509481 0.018931
vt 0.108846 0.006721
vt 0.116615 0.002961
vt 0.115745 0.006721
vt 0.524585 0.222862
vt 0.528150 0.224072
vt 0.123276 0.993279
vt 0.116615 0.997039
vt 0.517525 0.033762
vt 0.512656 0.027417
vt 0.123276 0.006721
vt 0.123968 0.002961
vt 0.526656 0.215136
vt 0.530347 0.215871
vt 0.131813 0.997039
vt 0.123968 0.997039
vt 0.524900 0.039025
vt 0.520655 0.031671
vt 0.131813 0.002961
vt 0.131310 0.006721
vt 0.527700 0.207206
vt 0.531456 0.207452
vt 0.139709 0.993279
vt 0.131310 0.993279
vt 0.528150 0.046870
vt 0.521524 0.040690
vt 0.140015 0.002961
vt 0.139709 0.006721
vt 0.527700 0.199207
vt 0.531456 0.198961
vt 0.148331 0.993279
vt 0.140015 0.997039
vt 0.530347 0.055071
vt 0.524585 0.048080
vt 0.148433 0.002961
vt 0.148331 0.006721
vt 0.526656 0.191277
vt 0.530347 0.190542
vt 0.157027 0.993279
vt 0.148433 0.997039
vt 0.531456 0.063490
vt 0.526656 0.055806
vt 0.156925 0.002961
vt 0.157027 0.006721
vt 0.524585 0.183550
vt 0.528150 0.182341
vt 0.165649 0.993279
vt 0.156925 0.997039
vt 0.527700 0.071735
vt 0.527700 0.063736
vt 0.165649 0.006721
vt 0.165343 0.002961
vt 0.521524 0.176161
vt 0.524900 0.174496
vt 0.174048 0.993279
vt 0.165343 0.997039
vt 0.531456 0.071981
vt 0.526656 0.079665
vt 0.174048 0.006721
vt 0.173545 0.002961
vt 0.517525 0.169233
vt 0.520655 0.167142
vt 0.182082 0.993279
vt 0.173545 0.997039
vt 0.528150 0.088601
vt 0.530347 0.080400
vt 0.181390 0.002961
vt 0.182082 0.006721
vt 0.512656 0.162888
vt 0.515486 0.160406
vt 0.188743 0.997039
vt 0.181390 0.997039
vt 0.524900 0.096446
vt 0.524585 0.087391
vt 0.188743 0.002961
vt 0.189613 0.006721
vt 0.507000 0.157232
vt 0.509481 0.154402
vt 0.189613 0.993279
vt 0.195480 0.997039
vt 0.520655 0.103800
vt 0.521524 0.094781
vt 0.195480 0.002961
vt 0.196512 0.006721
vt 0.502745 0.149233
vt 0.500654 0.152362
vt 0.196512 0.993279
vt 0.201484 0.997039
vt 0.515486 0.110536
vt 0.517525 0.101709
vt 0.201484 0.002961
vt 0.202661 0.006721
vt 0.495391 0.144987
vt 0.493727 0.148363
vt 0.315217 0.993279
vt 0.309351 0.997039
vt 0.308319 0.993279
vt 0.507000 0.113710
vt 0.512656 0.108054
vt 0.308319 0.006721
vt 0.316087 0.002961
vt 0.315217 0.006721
vt 0.486337 0.145302
vt 0.487547 0.141738
vt 0.323441 0.997039
vt 0.316087 0.997039
vt 0.509481 0.116540
vt 0.500654 0.118580
vt 0.323441 0.002961
vt 0.322748 0.006721
vt 0.478611 0.143232
vt 0.479345 0.139540
vt 0.322748 0.993279
vt 0.331286 0.997039
vt 0.495391 0.125955
vt 0.502745 0.121709
vt 0.331286 0.002961
vt 0.330782 0.006721
vt 0.470680 0.142188
vt 0.470926 0.138432
vt 0.339182 0.993279
vt 0.330782 0.993279
vt 0.487547 0.129204
vt 0.493727 0.122579
vt 0.339182 0.006721
vt 0.339488 0.002961
vt 0.462435 0.138432
vt 0.462681 0.142188
vt 0.347906 0.997039
vt 0.339488 0.997039
vt 0.479345 0.131402
vt 0.486337 0.125640
vt 0.347906 0.002961
vt 0.347804 0.006721
vt 0.454017 0.139540
vt 0.454751 0.143232
vt 0.356500 0.993279
vt 0.347804 0.993279
vt 0.470680 0.128754
vt 0.478610 0.127710
vt 0.356500 0.006721
vt 0.356397 0.002961
vt 0.447025 0.145302
vt 0.445815 0.141738
vt 0.364816 0.997039
vt 0.356397 0.997039
vt 0.462435 0.132510
vt 0.470926 0.132510
vt 0.364816 0.002961
vt 0.365121 0.006721
vt 0.439635 0.148363
vt 0.437970 0.144987
vt 0.373521 0.993279
vt 0.365121 0.993279
vt 0.454017 0.131402
vt 0.462681 0.128754
vt 0.373521 0.006721
vt 0.373017 0.002961
vt 0.430617 0.149233
vt 0.432708 0.152362
vt 0.381555 0.993279
vt 0.373017 0.997039
vt 0.445815 0.129204
vt 0.454751 0.127710
vt 0.381555 0.006721
vt 0.380862 0.002961
vt 0.426362 0.157232
vt 0.423880 0.154402
vt 0.389086 0.993279
vt 0.380862 0.997039
vt 0.439635 0.122579
vt 0.447025 0.125640
vt 0.388216 0.002961
vt 0.389086 0.006721
vt 0.420706 0.162888
vt 0.417876 0.160406
vt 0.395985 0.993279
vt 0.388216 0.997039
vt 0.437970 0.125955
vt 0.432708 0.118580
vt 0.395985 0.006721
vt 0.394952 0.002961
vt 0.415837 0.169233
vt 0.412707 0.167142
vt 0.215481 0.993279
vt 0.209615 0.997039
vt 0.208582 0.993279
vt 0.430617 0.121709
vt 0.426362 0.113710
vt 0.208582 0.006721
vt 0.216351 0.002961
vt 0.215481 0.006721
vt 0.411837 0.176161
vt 0.408461 0.174496
vt 0.223012 0.993279
vt 0.216351 0.997039
vt 0.423880 0.116540
vt 0.420706 0.108054
vt 0.223705 0.002961
vt 0.223012 0.006721
vt 0.408776 0.183550
vt 0.405212 0.182341
vt 0.231046 0.993279
vt 0.223705 0.997039
vt 0.412707 0.103800
vt 0.417876 0.110536
vt 0.231046 0.006721
vt 0.231549 0.002961
vt 0.406706 0.191277
vt 0.403014 0.190542
vt 0.239751 0.997039
vt 0.231549 0.997039
vt 0.408461 0.096446
vt 0.415837 0.101709
vt 0.239751 0.002961
vt 0.239446 0.006721
vt 0.401906 0.198961
vt 0.405662 0.199207
vt 0.248067 0.993279
vt 0.239446 0.993279
vt 0.408776 0.087391
vt 0.411837 0.094781
vt 0.248170 0.002961
vt 0.248067 0.006721
vt 0.401906 0.207452
vt 0.405662 0.207206
vt 0.248170 0.997039
vt 0.405212 0.088601
vt 0.256763 0.006721
vt 0.406706 0.215136
vt 0.202661 0.993279
vt 0.128951 1.023423
vt 0.871049 -0.023423
vt 0.872996 1.016250
vt 0.112974 0.996767
vt 0.230489 0.996767
vt 0.239570 0.003233
vt 0.348004 0.996767
vt 0.465519 0.996767
vt 0.004541 0.003233
vt 0.301220 0.997039
vt 0.004138 0.002961
vt 0.101747 0.997039
vt 0.109878 0.002961
vt 0.309351 0.002961
vt 0.394952 0.997039
vt 0.209615 0.002961
s 0
usemtl ARAT_light_maple
f 4/1/1 5/2/1 1/3/1
f 4/1/2 9/4/2 6/5/2
f 7/6/3 8/7/3 2/8/3
f 11/9/4 9/10/4 7/11/4
f 10/12/5 11/9/5 3/13/5
f 10/14/6 6/5/6 12/15/6
f 6/16/7 9/17/7 12/18/7
f 16/19/8 17/20/8 13/21/8
f 20/1/9 18/4/9 16/22/9
f 19/2/10 20/1/10 14/3/10
f 19/2/11 24/15/11 21/5/11
f 22/23/12 23/24/12 15/25/12
f 22/23/13 18/26/13 24/27/13
f 18/28/14 21/29/14 24/30/14
f 28/31/15 29/32/15 25/33/15
f 32/34/16 30/35/16 28/31/16
f 31/36/17 32/37/17 26/38/17
f 31/36/18 36/39/18 33/40/18
f 34/41/19 35/42/19 27/8/19
f 29/32/20 36/43/20 34/44/20
f 30/45/21 33/46/21 36/47/21
f 40/48/22 41/49/22 37/33/22
f 40/48/23 45/50/23 42/51/23
f 43/20/24 44/19/24 38/21/24
f 47/52/25 45/53/25 43/54/25
f 46/55/26 47/52/26 39/56/26
f 41/49/27 48/57/27 46/58/27
f 42/29/28 45/28/28 48/30/28
f 52/59/29 53/60/29 49/61/29
f 56/62/30 54/63/30 52/59/30
f 55/9/31 56/12/31 50/13/31
f 55/9/32 60/10/32 57/64/32
f 58/65/33 59/66/33 51/67/33
f 53/60/34 60/68/34 58/69/34
f 54/70/35 57/71/35 60/72/35
f 64/73/36 65/74/36 61/61/36
f 64/73/37 69/75/37 66/76/37
f 67/77/38 68/78/38 62/79/38
f 71/23/39 69/26/39 67/80/39
f 70/24/40 71/23/40 63/25/40
f 65/74/41 72/81/41 70/82/41
f 66/83/42 69/84/42 72/85/42
f 76/86/43 77/87/43 73/88/43
f 76/86/44 81/89/44 78/90/44
f 79/91/45 80/92/45 74/67/45
f 83/36/46 81/39/46 79/93/46
f 82/37/47 83/36/47 75/38/47
f 82/94/48 78/90/48 84/95/48
f 78/96/49 81/97/49 84/98/49
f 88/99/50 89/100/50 85/88/50
f 88/99/51 93/101/51 90/102/51
f 91/52/52 92/55/52 86/56/52
f 91/52/53 96/53/53 93/103/53
f 94/104/54 95/105/54 87/79/54
f 89/100/55 96/106/55 94/107/55
f 90/108/56 93/109/56 96/110/56
f 1/3/57 28/31/57 25/33/57
f 5/111/58 32/37/58 28/112/58
f 10/12/59 26/38/59 32/37/59
f 13/21/60 7/6/60 2/8/60
f 17/80/61 11/9/61 7/11/61
f 22/23/62 3/13/62 11/9/62
f 37/33/63 19/2/63 14/3/63
f 41/113/64 23/24/64 19/114/64
f 46/55/65 15/25/65 23/24/65
f 27/8/66 43/20/66 38/21/66
f 43/54/67 31/36/67 47/52/67
f 31/36/68 39/56/68 47/52/68
f 25/33/69 76/86/69 73/88/69
f 29/32/70 80/115/70 76/86/70
f 34/41/71 74/67/71 80/92/71
f 85/88/72 40/48/72 37/33/72
f 89/100/73 44/116/73 40/48/73
f 94/104/74 38/21/74 44/19/74
f 75/38/75 91/52/75 86/56/75
f 91/52/76 79/93/76 95/54/76
f 79/91/77 87/79/77 95/105/77
f 73/88/78 52/59/78 49/61/78
f 77/112/79 56/12/79 52/111/79
f 82/37/80 50/13/80 56/12/80
f 61/61/81 88/99/81 85/88/81
f 65/114/82 92/55/82 88/113/82
f 70/24/83 86/56/83 92/55/83
f 51/67/84 67/77/84 62/79/84
f 67/80/85 55/9/85 71/23/85
f 55/9/86 63/25/86 71/23/86
f 49/61/87 4/1/87 1/3/87
f 53/60/88 8/22/88 4/1/88
f 58/65/89 2/8/89 8/7/89
f 14/3/90 64/73/90 61/61/90
f 20/1/91 68/117/91 64/73/91
f 16/19/92 62/79/92 68/78/92
f 73/88/93 1/3/93 25/33/93
f 15/25/94 26/38/94 3/13/94
f 62/79/95 2/8/95 51/67/95
f 37/33/96 61/61/96 85/88/96
f 38/21/97 74/67/97 27/8/97
f 86/56/98 50/13/98 75/38/98
f 98/118/99 105/119/99 99/120/99
f 99/121/100 103/122/100 97/123/100
f 101/124/101 108/125/101 107/126/101
f 102/127/102 106/128/102 108/129/102
f 104/130/103 111/131/103 105/119/103
f 105/132/104 109/133/104 103/122/104
f 107/126/105 114/134/105 113/135/105
f 108/129/106 112/136/106 114/137/106
f 110/138/107 117/139/107 111/131/107
f 117/140/108 109/133/108 111/141/108
f 113/135/109 120/142/109 119/143/109
f 120/144/110 112/136/110 118/145/110
f 116/146/111 123/147/111 117/139/111
f 117/140/112 121/148/112 115/149/112
f 119/143/113 126/150/113 125/151/113
f 120/144/114 124/152/114 126/153/114
f 128/154/115 123/147/115 122/155/115
f 123/156/116 127/157/116 121/148/116
f 131/158/117 126/159/117 132/160/117
f 126/153/118 130/161/118 132/162/118
f 134/163/119 129/164/119 128/165/119
f 135/166/120 127/157/120 129/167/120
f 137/168/121 132/160/121 138/169/121
f 138/170/122 130/161/122 136/171/122
f 140/172/123 135/173/123 134/163/123
f 135/166/124 139/174/124 133/175/124
f 137/168/125 144/176/125 143/177/125
f 138/170/126 142/178/126 144/179/126
f 146/180/127 141/181/127 140/172/127
f 147/182/128 139/174/128 141/183/128
f 143/177/129 150/184/129 149/185/129
f 150/186/130 142/178/130 148/187/130
f 152/188/131 147/189/131 146/180/131
f 153/190/132 145/191/132 147/182/132
f 149/185/133 156/192/133 155/193/133
f 150/186/134 154/194/134 156/195/134
f 158/196/135 153/197/135 152/188/135
f 159/198/136 151/199/136 153/190/136
f 155/193/137 162/200/137 161/201/137
f 162/202/138 154/194/138 160/203/138
f 164/204/139 159/205/139 158/196/139
f 165/206/140 157/207/140 159/198/140
f 167/208/141 162/200/141 168/209/141
f 168/210/142 160/203/142 166/211/142
f 170/212/143 165/213/143 164/204/143
f 171/214/144 163/215/144 165/206/144
f 173/216/145 168/209/145 174/217/145
f 174/218/146 166/211/146 172/219/146
f 170/212/147 177/220/147 171/221/147
f 171/214/148 175/222/148 169/223/148
f 173/216/149 180/224/149 179/225/149
f 174/218/150 178/226/150 180/227/150
f 176/228/151 183/229/151 177/220/151
f 177/230/152 181/231/152 175/222/152
f 179/225/153 186/232/153 185/233/153
f 180/227/154 184/234/154 186/235/154
f 188/236/155 183/229/155 182/237/155
f 183/238/156 187/239/156 181/231/156
f 191/240/157 186/232/157 192/241/157
f 186/235/158 190/242/158 192/243/158
f 194/244/159 189/245/159 188/236/159
f 189/246/160 193/247/160 187/239/160
f 191/240/161 198/248/161 197/249/161
f 192/243/162 196/250/162 198/251/162
f 200/252/163 195/253/163 194/244/163
f 195/254/164 199/255/164 193/247/164
f 197/256/165 204/257/165 203/258/165
f 204/259/166 196/250/166 202/260/166
f 206/261/167 201/262/167 200/263/167
f 207/264/168 199/255/168 201/265/168
f 209/266/169 204/257/169 210/267/169
f 210/268/170 202/260/170 208/269/170
f 206/261/171 213/270/171 207/271/171
f 207/264/172 211/272/172 205/273/172
f 209/266/173 216/274/173 215/275/173
f 210/268/174 214/276/174 216/277/174
f 218/278/175 213/270/175 212/279/175
f 213/280/176 217/281/176 211/272/176
f 215/275/177 222/282/177 221/283/177
f 222/284/178 214/276/178 220/285/178
f 224/286/179 219/287/179 218/278/179
f 225/288/180 217/281/180 219/289/180
f 221/283/181 228/290/181 227/291/181
f 222/284/182 226/292/182 228/293/182
f 230/294/183 225/295/183 224/286/183
f 225/288/184 229/296/184 223/297/184
f 233/298/185 228/290/185 234/299/185
f 228/293/186 232/300/186 234/301/186
f 236/302/187 231/303/187 230/294/187
f 237/304/188 229/296/188 231/305/188
f 239/306/189 234/299/189 240/307/189
f 240/308/190 232/300/190 238/309/190
f 242/310/191 237/311/191 236/302/191
f 243/312/192 235/313/192 237/304/192
f 239/306/193 246/314/193 245/315/193
f 246/316/194 238/309/194 244/317/194
f 242/310/195 249/318/195 243/319/195
f 243/312/196 247/320/196 241/321/196
f 245/315/197 252/322/197 251/323/197
f 246/316/198 250/324/198 252/325/198
f 254/326/199 249/318/199 248/327/199
f 249/328/200 253/329/200 247/320/200
f 251/323/201 258/330/201 257/331/201
f 252/325/202 256/332/202 258/333/202
f 254/326/203 261/334/203 255/335/203
f 261/336/204 253/329/204 255/337/204
f 257/331/205 264/338/205 263/339/205
f 258/333/206 262/340/206 264/341/206
f 266/342/207 261/334/207 260/343/207
f 261/336/208 265/344/208 259/345/208
f 263/339/209 270/346/209 269/347/209
f 264/341/210 268/348/210 270/349/210
f 272/350/211 267/351/211 266/342/211
f 267/352/212 271/353/212 265/344/212
f 275/354/213 270/355/213 276/356/213
f 270/349/214 274/357/214 276/358/214
f 278/359/215 273/360/215 272/361/215
f 279/362/216 271/353/216 273/363/216
f 281/364/217 276/356/217 282/365/217
f 282/366/218 274/357/218 280/367/218
f 278/359/219 285/368/219 279/369/219
f 279/362/220 283/370/220 277/371/220
f 281/364/221 288/372/221 287/373/221
f 282/366/222 286/374/222 288/375/222
f 290/376/223 285/368/223 284/377/223
f 285/378/224 289/379/224 283/370/224
f 287/373/225 294/380/225 293/381/225
f 294/382/226 286/374/226 292/383/226
f 296/384/227 291/385/227 290/376/227
f 297/386/228 289/379/228 291/387/228
f 293/381/229 300/388/229 299/389/229
f 294/382/230 298/390/230 300/391/230
f 302/392/231 297/393/231 296/384/231
f 303/394/232 295/395/232 297/386/232
f 305/396/233 300/388/233 306/397/233
f 306/398/234 298/390/234 304/399/234
f 308/400/235 303/401/235 302/392/235
f 303/394/236 307/402/236 301/403/236
f 311/404/237 306/397/237 312/405/237
f 312/406/238 304/399/238 310/407/238
f 314/408/239 309/409/239 308/400/239
f 315/410/240 307/402/240 309/411/240
f 317/412/241 312/405/241 318/413/241
f 318/414/242 310/407/242 316/415/242
f 320/416/243 315/417/243 314/408/243
f 315/410/244 319/418/244 313/419/244
f 317/412/245 324/420/245 323/421/245
f 318/414/246 322/422/246 324/423/246
f 320/416/247 327/424/247 321/425/247
f 327/426/248 319/418/248 321/427/248
f 323/421/249 330/428/249 329/429/249
f 324/423/250 328/430/250 330/431/250
f 326/432/251 333/433/251 327/424/251
f 327/426/252 331/434/252 325/435/252
f 329/429/253 336/436/253 335/437/253
f 330/431/254 334/438/254 336/439/254
f 338/440/255 333/433/255 332/441/255
f 333/442/256 337/443/256 331/434/256
f 335/437/257 342/444/257 341/445/257
f 336/439/258 340/446/258 342/447/258
f 344/448/259 339/449/259 338/440/259
f 345/450/260 337/443/260 339/451/260
f 341/452/261 348/453/261 347/454/261
f 348/455/262 340/446/262 346/456/262
f 350/457/263 345/458/263 344/459/263
f 351/460/264 343/461/264 345/450/264
f 347/454/265 354/462/265 353/463/265
f 354/464/266 346/456/266 352/465/266
f 350/457/267 357/466/267 351/467/267
f 351/460/268 355/468/268 349/469/268
f 353/463/269 360/470/269 359/471/269
f 354/464/270 358/472/270 360/473/270
f 356/474/271 363/475/271 357/466/271
f 363/476/272 355/468/272 357/477/272
f 359/471/273 366/478/273 365/479/273
f 366/480/274 358/472/274 364/481/274
f 368/482/275 363/475/275 362/483/275
f 369/484/276 361/485/276 363/476/276
f 365/479/277 372/486/277 371/487/277
f 372/488/278 364/481/278 370/489/278
f 374/490/279 369/491/279 368/482/279
f 369/484/280 373/492/280 367/493/280
f 377/494/281 372/486/281 378/495/281
f 372/488/282 376/496/282 378/497/282
f 380/498/283 375/499/283 374/490/283
f 381/500/284 373/492/284 375/501/284
f 377/494/285 384/502/285 383/503/285
f 384/504/286 376/496/286 382/505/286
f 98/118/287 381/506/287 380/498/287
f 99/121/288 379/507/288 381/500/288
f 101/124/289 384/502/289 102/508/289
f 102/127/290 382/505/290 100/509/290
f 187/239/93 283/370/93 379/507/93
f 101/124/291 104/130/291 98/118/291
f 383/503/292 98/118/292 380/498/292
f 304/399/96 208/269/96 112/136/96
f 107/126/293 110/138/293 104/130/293
f 113/135/294 116/146/294 110/138/294
f 119/143/295 122/155/295 116/146/295
f 125/510/296 128/165/296 122/511/296
f 131/158/297 134/163/297 128/165/297
f 137/168/298 140/172/298 134/163/298
f 143/177/299 146/180/299 140/172/299
f 149/185/300 152/188/300 146/180/300
f 155/193/301 158/196/301 152/188/301
f 161/201/302 164/204/302 158/196/302
f 167/208/303 170/212/303 164/204/303
f 173/216/304 176/228/304 170/212/304
f 179/225/305 182/237/305 176/228/305
f 185/233/306 188/236/306 182/237/306
f 191/240/307 194/244/307 188/236/307
f 197/256/308 200/263/308 194/512/308
f 203/258/309 206/261/309 200/263/309
f 209/266/310 212/279/310 206/261/310
f 215/275/311 218/278/311 212/279/311
f 221/283/312 224/286/312 218/278/312
f 227/291/313 230/294/313 224/286/313
f 233/298/314 236/302/314 230/294/314
f 239/306/315 242/310/315 236/302/315
f 245/315/316 248/327/316 242/310/316
f 251/323/317 254/326/317 248/327/317
f 257/331/318 260/343/318 254/326/318
f 263/339/319 266/342/319 260/343/319
f 269/513/320 272/361/320 266/514/320
f 275/354/321 278/359/321 272/361/321
f 281/364/322 284/377/322 278/359/322
f 287/373/323 290/376/323 284/377/323
f 293/381/324 296/384/324 290/376/324
f 299/389/325 302/392/325 296/384/325
f 305/396/326 308/400/326 302/392/326
f 311/404/327 314/408/327 308/400/327
f 317/412/328 320/416/328 314/408/328
f 323/421/329 326/432/329 320/416/329
f 329/429/330 332/441/330 326/432/330
f 335/437/331 338/440/331 332/441/331
f 341/452/332 344/459/332 338/515/332
f 347/454/333 350/457/333 344/459/333
f 353/463/334 356/474/334 350/457/334
f 359/471/335 362/483/335 356/474/335
f 365/479/336 368/482/336 362/483/336
f 371/487/337 374/490/337 368/482/337
f 377/494/338 380/498/338 374/490/338
f 392/516/99 387/517/99 386/518/99
f 393/519/100 385/520/100 387/521/100
f 395/522/101 390/523/101 396/524/101
f 390/525/339 394/526/339 396/527/339
f 398/528/103 393/529/103 392/516/103
f 393/519/104 397/530/104 391/531/104
f 401/532/105 396/524/105 402/533/105
f 396/527/340 400/534/340 402/535/340
f 404/536/107 399/537/107 398/528/107
f 399/538/108 403/539/108 397/530/108
f 407/540/109 402/533/109 408/541/109
f 402/535/341 406/542/341 408/543/341
f 404/536/111 411/544/111 405/545/111
f 411/546/112 403/539/112 405/547/112
f 407/540/113 414/548/113 413/549/113
f 414/550/114 406/542/114 412/551/114
f 416/552/115 411/544/115 410/553/115
f 411/546/116 415/554/116 409/555/116
f 413/549/117 420/556/117 419/557/117
f 414/550/342 418/558/342 420/559/342
f 422/560/119 417/561/119 416/552/119
f 423/562/120 415/554/120 417/563/120
f 419/557/121 426/564/121 425/565/121
f 426/566/122 418/558/122 424/567/122
f 428/568/123 423/569/123 422/570/123
f 429/571/124 421/572/124 423/562/124
f 425/573/125 432/574/125 431/575/125
f 432/576/126 424/567/126 430/577/126
f 434/578/127 429/579/127 428/568/127
f 429/571/128 433/580/128 427/581/128
f 437/582/129 432/574/129 438/583/129
f 438/584/130 430/577/130 436/585/130
f 440/586/131 435/587/131 434/578/131
f 435/588/132 439/589/132 433/580/132
f 437/582/343 444/590/343 443/591/343
f 438/584/134 442/592/134 444/593/134
f 440/586/135 447/594/135 441/595/135
f 447/596/136 439/589/136 441/597/136
f 443/591/137 450/598/137 449/599/137
f 444/593/344 448/600/344 450/601/344
f 452/602/139 447/594/139 446/603/139
f 447/596/140 451/604/140 445/605/140
f 449/599/141 456/606/141 455/607/141
f 450/601/142 454/608/142 456/609/142
f 452/602/143 459/610/143 453/611/143
f 459/612/144 451/604/144 453/613/144
f 455/607/145 462/614/145 461/615/145
f 456/609/146 460/616/146 462/617/146
f 464/618/147 459/610/147 458/619/147
f 459/612/148 463/620/148 457/621/148
f 467/622/149 462/614/149 468/623/149
f 468/624/150 460/616/150 466/625/150
f 464/618/151 471/626/151 465/627/151
f 471/628/152 463/620/152 465/629/152
f 467/622/153 474/630/153 473/631/153
f 474/632/154 466/625/154 472/633/154
f 476/634/155 471/626/155 470/635/155
f 477/636/156 469/637/156 471/628/156
f 479/638/157 474/630/157 480/639/157
f 480/640/158 472/633/158 478/641/158
f 476/634/159 483/642/159 477/643/159
f 477/636/160 481/644/160 475/645/160
f 485/646/161 480/639/161 486/647/161
f 486/648/162 478/641/162 484/649/162
f 488/650/163 483/642/163 482/651/163
f 489/652/164 481/644/164 483/653/164
f 485/646/345 492/654/345 491/655/345
f 486/648/346 490/656/346 492/657/346
f 494/658/167 489/659/167 488/650/167
f 489/652/168 493/660/168 487/661/168
f 491/655/169 498/662/169 497/663/169
f 492/657/170 496/664/170 498/665/170
f 500/666/171 495/667/171 494/658/171
f 495/668/172 499/669/172 493/660/172
f 497/663/173 504/670/173 503/671/173
f 498/665/174 502/672/174 504/673/174
f 506/674/175 501/675/175 500/676/175
f 507/677/176 499/669/176 501/678/176
f 503/679/347 510/680/347 509/681/347
f 504/673/348 508/682/348 510/683/348
f 512/684/179 507/685/179 506/674/179
f 507/677/180 511/686/180 505/687/180
f 515/688/349 510/680/349 516/689/349
f 510/683/350 514/690/350 516/691/350
f 512/684/183 519/692/183 513/693/183
f 519/694/184 511/686/184 513/695/184
f 515/688/185 522/696/185 521/697/185
f 516/691/186 520/698/186 522/699/186
f 524/700/187 519/692/187 518/701/187
f 525/702/188 517/703/188 519/694/188
f 521/697/189 528/704/189 527/705/189
f 522/699/351 526/706/351 528/707/351
f 530/708/191 525/709/191 524/700/191
f 531/710/192 523/711/192 525/702/192
f 527/705/193 534/712/193 533/713/193
f 528/707/194 532/714/194 534/715/194
f 536/716/195 531/717/195 530/708/195
f 537/718/196 529/719/196 531/710/196
f 533/713/197 540/720/197 539/721/197
f 534/715/352 538/722/352 540/723/352
f 542/724/199 537/725/199 536/716/199
f 537/718/200 541/726/200 535/727/200
f 545/728/201 540/720/201 546/729/201
f 540/723/353 544/730/353 546/731/353
f 548/732/203 543/733/203 542/724/203
f 543/734/204 547/735/204 541/726/204
f 551/736/205 546/729/205 552/737/205
f 546/731/354 550/738/354 552/739/354
f 554/740/207 549/741/207 548/732/207
f 555/742/208 547/735/208 549/743/208
f 551/736/209 558/744/209 557/745/209
f 552/739/210 556/746/210 558/747/210
f 554/740/211 561/748/211 555/749/211
f 561/750/212 553/751/212 555/742/212
f 557/745/355 564/752/355 563/753/355
f 558/747/356 562/754/356 564/755/356
f 560/756/215 567/757/215 561/748/215
f 567/758/216 559/759/216 561/750/216
f 563/753/217 570/760/217 569/761/217
f 570/762/218 562/754/218 568/763/218
f 566/764/219 573/765/219 567/757/219
f 573/766/220 565/767/220 567/758/220
f 569/761/221 576/768/221 575/769/221
f 576/770/222 568/763/222 574/771/222
f 578/772/223 573/773/223 572/774/223
f 573/766/224 577/775/224 571/776/224
f 575/777/357 582/778/357 581/779/357
f 576/770/226 580/780/226 582/781/226
f 578/772/227 585/782/227 579/783/227
f 579/784/228 583/785/228 577/775/228
f 581/779/358 588/786/358 587/787/358
f 582/781/230 586/788/230 588/789/230
f 584/790/231 591/791/231 585/782/231
f 591/792/232 583/785/232 585/793/232
f 587/787/233 594/794/233 593/795/233
f 588/789/359 592/796/359 594/797/359
f 596/798/235 591/791/235 590/799/235
f 597/800/236 589/801/236 591/792/236
f 599/802/237 594/794/237 600/803/237
f 600/804/360 592/796/360 598/805/360
f 596/798/239 603/806/239 597/807/239
f 603/808/240 595/809/240 597/800/240
f 599/802/241 606/810/241 605/811/241
f 606/812/242 598/805/242 604/813/242
f 608/814/243 603/806/243 602/815/243
f 603/808/244 607/816/244 601/817/244
f 611/818/245 606/810/245 612/819/245
f 606/812/246 610/820/246 612/821/246
f 608/814/247 615/822/247 609/823/247
f 615/824/248 607/816/248 609/825/248
f 611/818/249 618/826/249 617/827/249
f 612/821/250 616/828/250 618/829/250
f 620/830/251 615/822/251 614/831/251
f 621/832/252 613/833/252 615/824/252
f 623/834/253 618/826/253 624/835/253
f 624/836/254 616/828/254 622/837/254
f 626/838/255 621/839/255 620/830/255
f 627/840/256 619/841/256 621/832/256
f 629/842/257 624/835/257 630/843/257
f 624/836/258 628/844/258 630/845/258
f 632/846/259 627/847/259 626/838/259
f 627/840/260 631/848/260 625/849/260
f 629/842/361 636/850/361 635/851/361
f 630/845/362 634/852/362 636/853/362
f 638/854/263 633/855/263 632/846/263
f 633/856/264 637/857/264 631/848/264
f 641/858/265 636/850/265 642/859/265
f 636/853/266 640/860/266 642/861/266
f 644/862/267 639/863/267 638/864/267
f 639/865/268 643/866/268 637/857/268
f 641/867/269 648/868/269 647/869/269
f 642/861/270 646/870/270 648/871/270
f 650/872/271 645/873/271 644/862/271
f 645/874/272 649/875/272 643/866/272
f 647/869/363 654/876/363 653/877/363
f 648/871/364 652/878/364 654/879/364
f 656/880/275 651/881/275 650/872/275
f 657/882/276 649/875/276 651/883/276
f 659/884/365 654/876/365 660/885/365
f 654/879/278 658/886/278 660/887/278
f 656/880/279 663/888/279 657/889/279
f 663/890/280 655/891/280 657/882/280
f 659/884/281 666/892/281 665/893/281
f 666/894/282 658/886/282 664/895/282
f 668/896/283 663/888/283 662/897/283
f 663/890/284 667/898/284 661/899/284
f 665/893/285 672/900/285 671/901/285
f 672/902/366 664/895/366 670/903/366
f 386/518/287 669/904/287 668/896/287
f 387/521/288 667/898/288 669/905/288
f 671/901/289 390/523/289 389/906/289
f 672/902/290 388/907/290 390/525/290
f 475/645/93 571/776/93 667/898/93
f 389/906/291 392/516/291 386/518/291
f 671/901/292 386/518/292 668/896/292
f 592/796/96 496/664/96 400/534/96
f 395/522/293 398/528/293 392/516/293
f 401/532/294 404/536/294 398/528/294
f 407/540/295 410/553/295 404/536/295
f 413/549/296 416/552/296 410/553/296
f 419/557/297 422/560/297 416/552/297
f 425/573/298 428/568/298 422/570/298
f 431/575/299 434/578/299 428/568/299
f 437/582/300 440/586/300 434/578/300
f 443/591/301 446/603/301 440/586/301
f 449/599/302 452/602/302 446/603/302
f 455/607/303 458/619/303 452/602/303
f 461/615/304 464/618/304 458/619/304
f 467/622/305 470/635/305 464/618/305
f 473/631/306 476/634/306 470/635/306
f 479/638/307 482/651/307 476/634/307
f 485/646/308 488/650/308 482/651/308
f 491/655/309 494/658/309 488/650/309
f 497/663/310 500/666/310 494/658/310
f 503/679/311 506/674/311 500/676/311
f 509/681/312 512/684/312 506/674/312
f 515/688/313 518/701/313 512/684/313
f 521/697/314 524/700/314 518/701/314
f 527/705/315 530/708/315 524/700/315
f 533/713/316 536/716/316 530/708/316
f 539/721/317 542/724/317 536/716/317
f 545/728/318 548/732/318 542/724/318
f 551/736/319 554/740/319 548/732/319
f 557/745/320 560/756/320 554/740/320
f 563/753/321 566/764/321 560/756/321
f 569/761/322 572/908/322 566/764/322
f 575/777/323 578/772/323 572/774/323
f 581/779/324 584/790/324 578/772/324
f 587/787/325 590/799/325 584/790/325
f 593/795/326 596/798/326 590/799/326
f 599/802/327 602/815/327 596/798/327
f 605/811/328 608/814/328 602/815/328
f 611/818/329 614/831/329 608/814/329
f 617/827/330 620/830/330 614/831/330
f 623/834/331 626/838/331 620/830/331
f 629/842/332 632/846/332 626/838/332
f 635/851/367 638/854/367 632/846/367
f 641/867/334 644/862/334 638/864/334
f 647/869/335 650/872/335 644/862/335
f 653/877/336 656/880/336 650/872/336
f 659/884/337 662/897/337 656/880/337
f 665/893/338 668/896/338 662/897/338
f 4/1/368 6/5/368 5/2/368
f 4/1/2 8/22/2 9/4/2
f 7/6/369 9/17/369 8/7/369
f 11/9/4 12/64/4 9/10/4
f 10/12/370 12/64/370 11/9/370
f 10/14/6 5/2/6 6/5/6
f 16/19/371 18/28/371 17/20/371
f 20/1/9 21/5/9 18/4/9
f 19/2/372 21/5/372 20/1/372
f 19/2/11 23/14/11 24/15/11
f 22/23/373 24/27/373 23/24/373
f 22/23/13 17/80/13 18/26/13
f 28/31/374 30/35/374 29/32/374
f 32/34/16 33/909/16 30/35/16
f 31/36/375 33/40/375 32/37/375
f 31/36/18 35/93/18 36/39/18
f 34/41/376 36/47/376 35/42/376
f 29/32/20 30/35/20 36/43/20
f 40/48/377 42/51/377 41/49/377
f 40/48/23 44/116/23 45/50/23
f 43/20/378 45/28/378 44/19/378
f 47/52/25 48/103/25 45/53/25
f 46/55/379 48/103/379 47/52/379
f 41/49/27 42/51/27 48/57/27
f 52/59/380 54/63/380 53/60/380
f 56/62/30 57/910/30 54/63/30
f 55/9/381 57/64/381 56/12/381
f 55/9/32 59/11/32 60/10/32
f 58/65/382 60/72/382 59/66/382
f 53/60/34 54/63/34 60/68/34
f 64/73/383 66/76/383 65/74/383
f 64/73/37 68/117/37 69/75/37
f 67/77/384 69/84/384 68/78/384
f 71/23/39 72/27/39 69/26/39
f 70/24/385 72/27/385 71/23/385
f 65/74/41 66/76/41 72/81/41
f 76/86/386 78/90/386 77/87/386
f 76/86/44 80/115/44 81/89/44
f 79/91/387 81/97/387 80/92/387
f 83/36/46 84/40/46 81/39/46
f 82/37/388 84/40/388 83/36/388
f 82/94/48 77/87/48 78/90/48
f 88/99/389 90/102/389 89/100/389
f 88/99/51 92/911/51 93/101/51
f 91/52/390 93/103/390 92/55/390
f 91/52/53 95/54/53 96/53/53
f 94/104/391 96/110/391 95/105/391
f 89/100/55 90/102/55 96/106/55
f 1/3/57 5/2/57 28/31/57
f 5/111/58 10/12/58 32/37/58
f 10/12/59 3/13/59 26/38/59
f 13/21/60 17/20/60 7/6/60
f 17/80/61 22/23/61 11/9/61
f 22/23/62 15/25/62 3/13/62
f 37/33/63 41/49/63 19/2/63
f 41/113/64 46/55/64 23/24/64
f 46/55/65 39/56/65 15/25/65
f 27/8/66 35/42/66 43/20/66
f 43/54/67 35/93/67 31/36/67
f 31/36/68 26/38/68 39/56/68
f 25/33/69 29/32/69 76/86/69
f 29/32/70 34/44/70 80/115/70
f 34/41/71 27/8/71 74/67/71
f 85/88/72 89/100/72 40/48/72
f 89/100/73 94/107/73 44/116/73
f 94/104/74 87/79/74 38/21/74
f 75/38/75 83/36/75 91/52/75
f 91/52/76 83/36/76 79/93/76
f 79/91/77 74/67/77 87/79/77
f 73/88/78 77/87/78 52/59/78
f 77/112/79 82/37/79 56/12/79
f 82/37/80 75/38/80 50/13/80
f 61/61/81 65/74/81 88/99/81
f 65/114/82 70/24/82 92/55/82
f 70/24/83 63/25/83 86/56/83
f 51/67/84 59/66/84 67/77/84
f 67/80/85 59/11/85 55/9/85
f 55/9/86 50/13/86 63/25/86
f 49/61/87 53/60/87 4/1/87
f 53/60/88 58/69/88 8/22/88
f 58/65/89 51/67/89 2/8/89
f 14/3/90 20/1/90 64/73/90
f 20/1/91 16/22/91 68/117/91
f 16/19/92 13/21/92 62/79/92
f 73/88/93 49/61/93 1/3/93
f 15/25/94 39/56/94 26/38/94
f 62/79/95 13/21/95 2/8/95
f 37/33/96 14/3/96 61/61/96
f 38/21/97 87/79/97 74/67/97
f 86/56/98 63/25/98 50/13/98
f 98/118/99 104/130/99 105/119/99
f 99/121/100 105/132/100 103/122/100
f 101/124/101 102/508/101 108/125/101
f 102/127/102 100/509/102 106/128/102
f 104/130/103 110/138/103 111/131/103
f 105/132/104 111/141/104 109/133/104
f 107/126/105 108/125/105 114/134/105
f 108/129/340 106/128/340 112/136/340
f 110/138/107 116/146/107 117/139/107
f 117/140/108 115/149/108 109/133/108
f 113/135/109 114/134/109 120/142/109
f 120/144/110 114/137/110 112/136/110
f 116/146/111 122/155/111 123/147/111
f 117/140/112 123/156/112 121/148/112
f 119/143/392 120/142/392 126/150/392
f 120/144/114 118/145/114 124/152/114
f 128/154/115 129/912/115 123/147/115
f 123/156/116 129/167/116 127/157/116
f 131/158/117 125/510/117 126/159/117
f 126/153/342 124/152/342 130/161/342
f 134/163/119 135/173/119 129/164/119
f 135/166/120 133/175/120 127/157/120
f 137/168/121 131/158/121 132/160/121
f 138/170/122 132/162/122 130/161/122
f 140/172/123 141/181/123 135/173/123
f 135/166/124 141/183/124 139/174/124
f 137/168/125 138/169/125 144/176/125
f 138/170/126 136/171/126 142/178/126
f 146/180/127 147/189/127 141/181/127
f 147/182/128 145/191/128 139/174/128
f 143/177/393 144/176/393 150/184/393
f 150/186/130 144/179/130 142/178/130
f 152/188/131 153/197/131 147/189/131
f 153/190/132 151/199/132 145/191/132
f 149/185/394 150/184/394 156/192/394
f 150/186/134 148/187/134 154/194/134
f 158/196/135 159/205/135 153/197/135
f 159/198/136 157/207/136 151/199/136
f 155/193/137 156/192/137 162/200/137
f 162/202/344 156/195/344 154/194/344
f 164/204/139 165/213/139 159/205/139
f 165/206/140 163/215/140 157/207/140
f 167/208/141 161/201/141 162/200/141
f 168/210/395 162/202/395 160/203/395
f 170/212/143 171/221/143 165/213/143
f 171/214/144 169/223/144 163/215/144
f 173/216/145 167/208/145 168/209/145
f 174/218/146 168/210/146 166/211/146
f 170/212/147 176/228/147 177/220/147
f 171/214/148 177/230/148 175/222/148
f 173/216/149 174/217/149 180/224/149
f 174/218/150 172/219/150 178/226/150
f 176/228/151 182/237/151 183/229/151
f 177/230/152 183/238/152 181/231/152
f 179/225/153 180/224/153 186/232/153
f 180/227/396 178/226/396 184/234/396
f 188/236/155 189/245/155 183/229/155
f 183/238/156 189/246/156 187/239/156
f 191/240/157 185/233/157 186/232/157
f 186/235/397 184/234/397 190/242/397
f 194/244/159 195/253/159 189/245/159
f 189/246/160 195/254/160 193/247/160
f 191/240/161 192/241/161 198/248/161
f 192/243/162 190/242/162 196/250/162
f 200/252/163 201/913/163 195/253/163
f 195/254/164 201/265/164 199/255/164
f 197/256/345 198/914/345 204/257/345
f 204/259/166 198/251/166 196/250/166
f 206/261/167 207/271/167 201/262/167
f 207/264/168 205/273/168 199/255/168
f 209/266/169 203/258/169 204/257/169
f 210/268/170 204/259/170 202/260/170
f 206/261/171 212/279/171 213/270/171
f 207/264/172 213/280/172 211/272/172
f 209/266/173 210/267/173 216/274/173
f 210/268/174 208/269/174 214/276/174
f 218/278/175 219/287/175 213/270/175
f 213/280/176 219/289/176 217/281/176
f 215/275/347 216/274/347 222/282/347
f 222/284/178 216/277/178 214/276/178
f 224/286/179 225/295/179 219/287/179
f 225/288/180 223/297/180 217/281/180
f 221/283/349 222/282/349 228/290/349
f 222/284/350 220/285/350 226/292/350
f 230/294/183 231/303/183 225/295/183
f 225/288/184 231/305/184 229/296/184
f 233/298/185 227/291/185 228/290/185
f 228/293/186 226/292/186 232/300/186
f 236/302/187 237/311/187 231/303/187
f 237/304/188 235/313/188 229/296/188
f 239/306/189 233/298/189 234/299/189
f 240/308/351 234/301/351 232/300/351
f 242/310/191 243/319/191 237/311/191
f 243/312/192 241/321/192 235/313/192
f 239/306/193 240/307/193 246/314/193
f 246/316/194 240/308/194 238/309/194
f 242/310/195 248/327/195 249/318/195
f 243/312/196 249/328/196 247/320/196
f 245/315/197 246/314/197 252/322/197
f 246/316/198 244/317/198 250/324/198
f 254/326/199 255/335/199 249/318/199
f 249/328/200 255/337/200 253/329/200
f 251/323/201 252/322/201 258/330/201
f 252/325/353 250/324/353 256/332/353
f 254/326/203 260/343/203 261/334/203
f 261/336/204 259/345/204 253/329/204
f 257/331/205 258/330/205 264/338/205
f 258/333/206 256/332/206 262/340/206
f 266/342/207 267/351/207 261/334/207
f 261/336/208 267/352/208 265/344/208
f 263/339/398 264/338/398 270/346/398
f 264/341/210 262/340/210 268/348/210
f 272/350/211 273/915/211 267/351/211
f 267/352/212 273/363/212 271/353/212
f 275/354/355 269/513/355 270/355/355
f 270/349/356 268/348/356 274/357/356
f 278/359/215 279/369/215 273/360/215
f 279/362/216 277/371/216 271/353/216
f 281/364/217 275/354/217 276/356/217
f 282/366/218 276/358/218 274/357/218
f 278/359/219 284/377/219 285/368/219
f 279/362/220 285/378/220 283/370/220
f 281/364/221 282/365/221 288/372/221
f 282/366/222 280/367/222 286/374/222
f 290/376/223 291/385/223 285/368/223
f 285/378/224 291/387/224 289/379/224
f 287/373/357 288/372/357 294/380/357
f 294/382/226 288/375/226 286/374/226
f 296/384/227 297/393/227 291/385/227
f 297/386/228 295/395/228 289/379/228
f 293/381/399 294/380/399 300/388/399
f 294/382/230 292/383/230 298/390/230
f 302/392/231 303/401/231 297/393/231
f 303/394/232 301/403/232 295/395/232
f 305/396/233 299/389/233 300/388/233
f 306/398/359 300/391/359 298/390/359
f 308/400/235 309/409/235 303/401/235
f 303/394/236 309/411/236 307/402/236
f 311/404/237 305/396/237 306/397/237
f 312/406/238 306/398/238 304/399/238
f 314/408/239 315/417/239 309/409/239
f 315/410/240 313/419/240 307/402/240
f 317/412/241 311/404/241 312/405/241
f 318/414/242 312/406/242 310/407/242
f 320/416/243 321/425/243 315/417/243
f 315/410/244 321/427/244 319/418/244
f 317/412/245 318/413/245 324/420/245
f 318/414/246 316/415/246 322/422/246
f 320/416/247 326/432/247 327/424/247
f 327/426/248 325/435/248 319/418/248
f 323/421/249 324/420/249 330/428/249
f 324/423/250 322/422/250 328/430/250
f 326/432/251 332/441/251 333/433/251
f 327/426/252 333/442/252 331/434/252
f 329/429/253 330/428/253 336/436/253
f 330/431/400 328/430/400 334/438/400
f 338/440/255 339/449/255 333/433/255
f 333/442/256 339/451/256 337/443/256
f 335/437/401 336/436/401 342/444/401
f 336/439/258 334/438/258 340/446/258
f 344/448/259 345/916/259 339/449/259
f 345/450/260 343/461/260 337/443/260
f 341/452/361 342/917/361 348/453/361
f 348/455/262 342/447/262 340/446/262
f 350/457/263 351/467/263 345/458/263
f 351/460/264 349/469/264 343/461/264
f 347/454/265 348/453/265 354/462/265
f 354/464/266 348/455/266 346/456/266
f 350/457/267 356/474/267 357/466/267
f 351/460/268 357/477/268 355/468/268
f 353/463/269 354/462/269 360/470/269
f 354/464/270 352/465/270 358/472/270
f 356/474/271 362/483/271 363/475/271
f 363/476/272 361/485/272 355/468/272
f 359/471/363 360/470/363 366/478/363
f 366/480/274 360/473/274 358/472/274
f 368/482/275 369/491/275 363/475/275
f 369/484/276 367/493/276 361/485/276
f 365/479/365 366/478/365 372/486/365
f 372/488/402 366/480/402 364/481/402
f 374/490/279 375/499/279 369/491/279
f 369/484/280 375/501/280 373/492/280
f 377/494/281 371/487/281 372/486/281
f 372/488/282 370/489/282 376/496/282
f 380/498/283 381/506/283 375/499/283
f 381/500/284 379/507/284 373/492/284
f 377/494/285 378/495/285 384/502/285
f 384/504/366 378/497/366 376/496/366
f 98/118/287 99/120/287 381/506/287
f 99/121/288 97/123/288 379/507/288
f 101/124/289 383/503/289 384/502/289
f 102/127/290 384/504/290 382/505/290
f 379/507/93 97/123/93 103/122/93
f 103/122/93 109/133/93 115/149/93
f 115/149/93 121/148/93 127/157/93
f 127/157/93 133/175/93 139/174/93
f 139/174/93 145/191/93 151/199/93
f 151/199/93 157/207/93 163/215/93
f 163/215/93 169/223/93 175/222/93
f 175/222/93 181/231/93 187/239/93
f 187/239/93 193/247/93 199/255/93
f 199/255/93 205/273/93 211/272/93
f 211/272/93 217/281/93 223/297/93
f 223/297/93 229/296/93 235/313/93
f 235/313/93 241/321/93 247/320/93
f 247/320/93 253/329/93 259/345/93
f 259/345/93 265/344/93 271/353/93
f 271/353/93 277/371/93 283/370/93
f 283/370/93 289/379/93 295/395/93
f 295/395/93 301/403/93 307/402/93
f 307/402/93 313/419/93 319/418/93
f 319/418/93 325/435/93 331/434/93
f 331/434/93 337/443/93 343/461/93
f 343/461/93 349/469/93 355/468/93
f 355/468/93 361/485/93 367/493/93
f 367/493/93 373/492/93 379/507/93
f 379/507/93 103/122/93 115/149/93
f 115/149/93 127/157/93 139/174/93
f 139/174/93 151/199/93 163/215/93
f 163/215/93 175/222/93 187/239/93
f 187/239/93 199/255/93 211/272/93
f 211/272/93 223/297/93 235/313/93
f 235/313/93 247/320/93 259/345/93
f 259/345/93 271/353/93 283/370/93
f 283/370/93 295/395/93 307/402/93
f 307/402/93 319/418/93 331/434/93
f 331/434/93 343/461/93 355/468/93
f 355/468/93 367/493/93 379/507/93
f 379/507/93 115/149/93 139/174/93
f 139/174/93 163/215/93 187/239/93
f 187/239/93 211/272/93 235/313/93
f 235/313/93 259/345/93 283/370/93
f 283/370/93 307/402/93 331/434/93
f 331/434/93 355/468/93 379/507/93
f 379/507/93 139/174/93 187/239/93
f 187/239/93 235/313/93 283/370/93
f 283/370/93 331/434/93 379/507/93
f 101/124/291 107/126/291 104/130/291
f 383/503/292 101/124/292 98/118/292
f 112/136/96 106/128/96 100/509/96
f 100/509/96 382/505/96 376/496/96
f 376/496/96 370/489/96 364/481/96
f 364/481/96 358/472/96 352/465/96
f 352/465/403 346/456/403 340/446/403
f 340/446/96 334/438/96 328/430/96
f 328/430/404 322/422/404 316/415/404
f 316/415/404 310/407/404 304/399/404
f 304/399/403 298/390/403 292/383/403
f 292/383/96 286/374/96 280/367/96
f 280/367/96 274/357/96 268/348/96
f 268/348/96 262/340/96 256/332/96
f 256/332/96 250/324/96 244/317/96
f 244/317/96 238/309/96 232/300/96
f 232/300/96 226/292/96 220/285/96
f 220/285/96 214/276/96 208/269/96
f 208/269/404 202/260/404 196/250/404
f 196/250/96 190/242/96 184/234/96
f 184/234/403 178/226/403 172/219/403
f 172/219/403 166/211/403 160/203/403
f 160/203/404 154/194/404 148/187/404
f 148/187/96 142/178/96 136/171/96
f 136/171/96 130/161/96 124/152/96
f 124/152/96 118/145/96 112/136/96
f 112/136/96 100/509/96 376/496/96
f 376/496/96 364/481/96 352/465/96
f 352/465/405 340/446/405 328/430/405
f 328/430/96 316/415/96 304/399/96
f 304/399/405 292/383/405 280/367/405
f 280/367/96 268/348/96 256/332/96
f 256/332/96 244/317/96 232/300/96
f 232/300/96 220/285/96 208/269/96
f 208/269/406 196/250/406 184/234/406
f 184/234/96 172/219/96 160/203/96
f 160/203/406 148/187/406 136/171/406
f 136/171/96 124/152/96 112/136/96
f 112/136/96 376/496/96 352/465/96
f 352/465/96 328/430/96 304/399/96
f 304/399/96 280/367/96 256/332/96
f 256/332/96 232/300/96 208/269/96
f 208/269/96 184/234/96 160/203/96
f 160/203/96 136/171/96 112/136/96
f 112/136/96 352/465/96 304/399/96
f 304/399/96 256/332/96 208/269/96
f 208/269/96 160/203/96 112/136/96
f 107/126/293 113/135/293 110/138/293
f 113/135/294 119/143/294 116/146/294
f 119/143/295 125/151/295 122/155/295
f 125/510/296 131/158/296 128/165/296
f 131/158/297 137/168/297 134/163/297
f 137/168/298 143/177/298 140/172/298
f 143/177/299 149/185/299 146/180/299
f 149/185/300 155/193/300 152/188/300
f 155/193/301 161/201/301 158/196/301
f 161/201/302 167/208/302 164/204/302
f 167/208/303 173/216/303 170/212/303
f 173/216/304 179/225/304 176/228/304
f 179/225/305 185/233/305 182/237/305
f 185/233/306 191/240/306 188/236/306
f 191/240/307 197/249/307 194/244/307
f 197/256/308 203/258/308 200/263/308
f 203/258/309 209/266/309 206/261/309
f 209/266/310 215/275/310 212/279/310
f 215/275/311 221/283/311 218/278/311
f 221/283/312 227/291/312 224/286/312
f 227/291/313 233/298/313 230/294/313
f 233/298/314 239/306/314 236/302/314
f 239/306/315 245/315/315 242/310/315
f 245/315/316 251/323/316 248/327/316
f 251/323/317 257/331/317 254/326/317
f 257/331/318 263/339/318 260/343/318
f 263/339/319 269/347/319 266/342/319
f 269/513/320 275/354/320 272/361/320
f 275/354/321 281/364/321 278/359/321
f 281/364/322 287/373/322 284/377/322
f 287/373/323 293/381/323 290/376/323
f 293/381/324 299/389/324 296/384/324
f 299/389/325 305/396/325 302/392/325
f 305/396/326 311/404/326 308/400/326
f 311/404/327 317/412/327 314/408/327
f 317/412/328 323/421/328 320/416/328
f 323/421/329 329/429/329 326/432/329
f 329/429/330 335/437/330 332/441/330
f 335/437/331 341/445/331 338/440/331
f 341/452/332 347/454/332 344/459/332
f 347/454/333 353/463/333 350/457/333
f 353/463/334 359/471/334 356/474/334
f 359/471/335 365/479/335 362/483/335
f 365/479/336 371/487/336 368/482/336
f 371/487/337 377/494/337 374/490/337
f 377/494/338 383/503/338 380/498/338
f 392/516/99 393/529/99 387/517/99
f 393/519/100 391/531/100 385/520/100
f 395/522/101 389/906/101 390/523/101
f 390/525/102 388/907/102 394/526/102
f 398/528/103 399/537/103 393/529/103
f 393/519/104 399/538/104 397/530/104
f 401/532/105 395/522/105 396/524/105
f 396/527/106 394/526/106 400/534/106
f 404/536/107 405/545/107 399/537/107
f 399/538/108 405/547/108 403/539/108
f 407/540/109 401/532/109 402/533/109
f 402/535/110 400/534/110 406/542/110
f 404/536/111 410/553/111 411/544/111
f 411/546/112 409/555/112 403/539/112
f 407/540/392 408/541/392 414/548/392
f 414/550/114 408/543/114 406/542/114
f 416/552/115 417/561/115 411/544/115
f 411/546/116 417/563/116 415/554/116
f 413/549/407 414/548/407 420/556/407
f 414/550/118 412/551/118 418/558/118
f 422/560/119 423/918/119 417/561/119
f 423/562/120 421/572/120 415/554/120
f 419/557/121 420/556/121 426/564/121
f 426/566/122 420/559/122 418/558/122
f 428/568/123 429/579/123 423/569/123
f 429/571/124 427/581/124 421/572/124
f 425/573/125 426/919/125 432/574/125
f 432/576/126 426/566/126 424/567/126
f 434/578/127 435/587/127 429/579/127
f 429/571/128 435/588/128 433/580/128
f 437/582/393 431/575/393 432/574/393
f 438/584/408 432/576/408 430/577/408
f 440/586/131 441/595/131 435/587/131
f 435/588/132 441/597/132 439/589/132
f 437/582/133 438/583/133 444/590/133
f 438/584/134 436/585/134 442/592/134
f 440/586/135 446/603/135 447/594/135
f 447/596/136 445/605/136 439/589/136
f 443/591/137 444/590/137 450/598/137
f 444/593/344 442/592/344 448/600/344
f 452/602/139 453/611/139 447/594/139
f 447/596/140 453/613/140 451/604/140
f 449/599/141 450/598/141 456/606/141
f 450/601/395 448/600/395 454/608/395
f 452/602/143 458/619/143 459/610/143
f 459/612/144 457/621/144 451/604/144
f 455/607/145 456/606/145 462/614/145
f 456/609/146 454/608/146 460/616/146
f 464/618/147 465/627/147 459/610/147
f 459/612/148 465/629/148 463/620/148
f 467/622/149 461/615/149 462/614/149
f 468/624/150 462/617/150 460/616/150
f 464/618/151 470/635/151 471/626/151
f 471/628/152 469/637/152 463/620/152
f 467/622/153 468/623/153 474/630/153
f 474/632/396 468/624/396 466/625/396
f 476/634/155 477/643/155 471/626/155
f 477/636/156 475/645/156 469/637/156
f 479/638/157 473/631/157 474/630/157
f 480/640/158 474/632/158 472/633/158
f 476/634/159 482/651/159 483/642/159
f 477/636/160 483/653/160 481/644/160
f 485/646/409 479/638/409 480/639/409
f 486/648/162 480/640/162 478/641/162
f 488/650/163 489/659/163 483/642/163
f 489/652/164 487/661/164 481/644/164
f 485/646/165 486/647/165 492/654/165
f 486/648/166 484/649/166 490/656/166
f 494/658/167 495/667/167 489/659/167
f 489/652/168 495/668/168 493/660/168
f 491/655/169 492/654/169 498/662/169
f 492/657/170 490/656/170 496/664/170
f 500/666/171 501/920/171 495/667/171
f 495/668/172 501/678/172 499/669/172
f 497/663/173 498/662/173 504/670/173
f 498/665/174 496/664/174 502/672/174
f 506/674/175 507/685/175 501/675/175
f 507/677/176 505/687/176 499/669/176
f 503/679/347 504/921/347 510/680/347
f 504/673/178 502/672/178 508/682/178
f 512/684/179 513/693/179 507/685/179
f 507/677/180 513/695/180 511/686/180
f 515/688/181 509/681/181 510/680/181
f 510/683/350 508/682/350 514/690/350
f 512/684/183 518/701/183 519/692/183
f 519/694/184 517/703/184 511/686/184
f 515/688/185 516/689/185 522/696/185
f 516/691/410 514/690/410 520/698/410
f 524/700/187 525/709/187 519/692/187
f 525/702/188 523/711/188 517/703/188
f 521/697/189 522/696/189 528/704/189
f 522/699/190 520/698/190 526/706/190
f 530/708/191 531/717/191 525/709/191
f 531/710/192 529/719/192 523/711/192
f 527/705/193 528/704/193 534/712/193
f 528/707/411 526/706/411 532/714/411
f 536/716/195 537/725/195 531/717/195
f 537/718/196 535/727/196 529/719/196
f 533/713/197 534/712/197 540/720/197
f 534/715/198 532/714/198 538/722/198
f 542/724/199 543/733/199 537/725/199
f 537/718/200 543/734/200 541/726/200
f 545/728/201 539/721/201 540/720/201
f 540/723/202 538/722/202 544/730/202
f 548/732/203 549/741/203 543/733/203
f 543/734/204 549/743/204 547/735/204
f 551/736/205 545/728/205 546/729/205
f 546/731/206 544/730/206 550/738/206
f 554/740/207 555/749/207 549/741/207
f 555/742/208 553/751/208 547/735/208
f 551/736/398 552/737/398 558/744/398
f 552/739/210 550/738/210 556/746/210
f 554/740/211 560/756/211 561/748/211
f 561/750/212 559/759/212 553/751/212
f 557/745/213 558/744/213 564/752/213
f 558/747/214 556/746/214 562/754/214
f 560/756/215 566/764/215 567/757/215
f 567/758/216 565/767/216 559/759/216
f 563/753/217 564/752/217 570/760/217
f 570/762/218 564/755/218 562/754/218
f 566/764/219 572/908/219 573/765/219
f 573/766/220 571/776/220 565/767/220
f 569/761/221 570/760/221 576/768/221
f 576/770/222 570/762/222 568/763/222
f 578/772/223 579/783/223 573/773/223
f 573/766/224 579/784/224 577/775/224
f 575/777/225 576/922/225 582/778/225
f 576/770/412 574/771/412 580/780/412
f 578/772/227 584/790/227 585/782/227
f 579/784/228 585/793/228 583/785/228
f 581/779/229 582/778/229 588/786/229
f 582/781/230 580/780/230 586/788/230
f 584/790/231 590/799/231 591/791/231
f 591/792/232 589/801/232 583/785/232
f 587/787/233 588/786/233 594/794/233
f 588/789/359 586/788/359 592/796/359
f 596/798/235 597/807/235 591/791/235
f 597/800/236 595/809/236 589/801/236
f 599/802/237 593/795/237 594/794/237
f 600/804/238 594/797/238 592/796/238
f 596/798/239 602/815/239 603/806/239
f 603/808/240 601/817/240 595/809/240
f 599/802/241 600/803/241 606/810/241
f 606/812/242 600/804/242 598/805/242
f 608/814/243 609/823/243 603/806/243
f 603/808/244 609/825/244 607/816/244
f 611/818/245 605/811/245 606/810/245
f 606/812/246 604/813/246 610/820/246
f 608/814/247 614/831/247 615/822/247
f 615/824/248 613/833/248 607/816/248
f 611/818/249 612/819/249 618/826/249
f 612/821/413 610/820/413 616/828/413
f 620/830/251 621/839/251 615/822/251
f 621/832/252 619/841/252 613/833/252
f 623/834/253 617/827/253 618/826/253
f 624/836/254 618/829/254 616/828/254
f 626/838/255 627/847/255 621/839/255
f 627/840/256 625/849/256 619/841/256
f 629/842/414 623/834/414 624/835/414
f 624/836/258 622/837/258 628/844/258
f 632/846/259 633/855/259 627/847/259
f 627/840/260 633/856/260 631/848/260
f 629/842/261 630/843/261 636/850/261
f 630/845/262 628/844/262 634/852/262
f 638/854/263 639/923/263 633/855/263
f 633/856/264 639/865/264 637/857/264
f 641/858/265 635/851/265 636/850/265
f 636/853/266 634/852/266 640/860/266
f 644/862/267 645/873/267 639/863/267
f 639/865/268 645/874/268 643/866/268
f 641/867/269 642/924/269 648/868/269
f 642/861/270 640/860/270 646/870/270
f 650/872/271 651/881/271 645/873/271
f 645/874/272 651/883/272 649/875/272
f 647/869/363 648/868/363 654/876/363
f 648/871/274 646/870/274 652/878/274
f 656/880/275 657/889/275 651/881/275
f 657/882/276 655/891/276 649/875/276
f 659/884/277 653/877/277 654/876/277
f 654/879/278 652/878/278 658/886/278
f 656/880/279 662/897/279 663/888/279
f 663/890/280 661/899/280 655/891/280
f 659/884/281 660/885/281 666/892/281
f 666/894/415 660/887/415 658/886/415
f 668/896/283 669/904/283 663/888/283
f 663/890/284 669/905/284 667/898/284
f 665/893/285 666/892/285 672/900/285
f 672/902/286 666/894/286 664/895/286
f 386/518/287 387/517/287 669/904/287
f 387/521/288 385/520/288 667/898/288
f 671/901/289 672/900/289 390/523/289
f 672/902/416 670/903/416 388/907/416
f 667/898/93 385/520/93 391/531/93
f 391/531/93 397/530/93 403/539/93
f 403/539/93 409/555/93 415/554/93
f 415/554/93 421/572/93 427/581/93
f 427/581/93 433/580/93 439/589/93
f 439/589/417 445/605/417 451/604/417
f 451/604/93 457/621/93 463/620/93
f 463/620/417 469/637/417 475/645/417
f 475/645/93 481/644/93 487/661/93
f 487/661/93 493/660/93 499/669/93
f 499/669/93 505/687/93 511/686/93
f 511/686/93 517/703/93 523/711/93
f 523/711/93 529/719/93 535/727/93
f 535/727/93 541/726/93 547/735/93
f 547/735/93 553/751/93 559/759/93
f 559/759/93 565/767/93 571/776/93
f 571/776/93 577/775/93 583/785/93
f 583/785/418 589/801/418 595/809/418
f 595/809/93 601/817/93 607/816/93
f 607/816/418 613/833/418 619/841/418
f 619/841/93 625/849/93 631/848/93
f 631/848/93 637/857/93 643/866/93
f 643/866/93 649/875/93 655/891/93
f 655/891/93 661/899/93 667/898/93
f 667/898/93 391/531/93 403/539/93
f 403/539/93 415/554/93 427/581/93
f 427/581/93 439/589/93 451/604/93
f 451/604/93 463/620/93 475/645/93
f 475/645/93 487/661/93 499/669/93
f 499/669/93 511/686/93 523/711/93
f 523/711/93 535/727/93 547/735/93
f 547/735/93 559/759/93 571/776/93
f 571/776/93 583/785/93 595/809/93
f 595/809/93 607/816/93 619/841/93
f 619/841/93 631/848/93 643/866/93
f 643/866/93 655/891/93 667/898/93
f 667/898/93 403/539/93 427/581/93
f 427/581/93 451/604/93 475/645/93
f 475/645/93 499/669/93 523/711/93
f 523/711/93 547/735/93 571/776/93
f 571/776/93 595/809/93 619/841/93
f 619/841/93 643/866/93 667/898/93
f 667/898/93 427/581/93 475/645/93
f 475/645/93 523/711/93 571/776/93
f 571/776/93 619/841/93 667/898/93
f 389/906/291 395/522/291 392/516/291
f 671/901/292 389/906/292 386/518/292
f 400/534/96 394/526/96 388/907/96
f 388/907/96 670/903/96 664/895/96
f 664/895/405 658/886/405 652/878/405
f 652/878/406 646/870/406 640/860/406
f 640/860/405 634/852/405 628/844/405
f 628/844/96 622/837/96 616/828/96
f 616/828/404 610/820/404 604/813/404
f 604/813/404 598/805/404 592/796/404
f 592/796/96 586/788/96 580/780/96
f 580/780/405 574/771/405 568/763/405
f 568/763/406 562/754/406 556/746/406
f 556/746/405 550/738/405 544/730/405
f 544/730/96 538/722/96 532/714/96
f 532/714/96 526/706/96 520/698/96
f 520/698/406 514/690/406 508/682/406
f 508/682/405 502/672/405 496/664/405
f 496/664/406 490/656/406 484/649/406
f 484/649/96 478/641/96 472/633/96
f 472/633/403 466/625/403 460/616/403
f 460/616/403 454/608/403 448/600/403
f 448/600/96 442/592/96 436/585/96
f 436/585/406 430/577/406 424/567/406
f 424/567/405 418/558/405 412/551/405
f 412/551/406 406/542/406 400/534/406
f 400/534/96 388/907/96 664/895/96
f 664/895/96 652/878/96 640/860/96
f 640/860/405 628/844/405 616/828/405
f 616/828/96 604/813/96 592/796/96
f 592/796/96 580/780/96 568/763/96
f 568/763/96 556/746/96 544/730/96
f 544/730/96 532/714/96 520/698/96
f 520/698/96 508/682/96 496/664/96
f 496/664/406 484/649/406 472/633/406
f 472/633/96 460/616/96 448/600/96
f 448/600/96 436/585/96 424/567/96
f 424/567/96 412/551/96 400/534/96
f 400/534/96 664/895/96 640/860/96
f 640/860/96 616/828/96 592/796/96
f 592/796/96 568/763/96 544/730/96
f 544/730/96 520/698/96 496/664/96
f 496/664/96 472/633/96 448/600/96
f 448/600/96 424/567/96 400/534/96
f 400/534/96 640/860/96 592/796/96
f 592/796/96 544/730/96 496/664/96
f 496/664/96 448/600/96 400/534/96
f 395/522/293 401/532/293 398/528/293
f 401/532/294 407/540/294 404/536/294
f 407/540/295 413/549/295 410/553/295
f 413/549/296 419/557/296 416/552/296
f 419/557/297 425/565/297 422/560/297
f 425/573/298 431/575/298 428/568/298
f 431/575/299 437/582/299 434/578/299
f 437/582/300 443/591/300 440/586/300
f 443/591/301 449/599/301 446/603/301
f 449/599/302 455/607/302 452/602/302
f 455/607/303 461/615/303 458/619/303
f 461/615/304 467/622/304 464/618/304
f 467/622/305 473/631/305 470/635/305
f 473/631/306 479/638/306 476/634/306
f 479/638/307 485/646/307 482/651/307
f 485/646/308 491/655/308 488/650/308
f 491/655/309 497/663/309 494/658/309
f 497/663/310 503/671/310 500/666/310
f 503/679/311 509/681/311 506/674/311
f 509/681/312 515/688/312 512/684/312
f 515/688/313 521/697/313 518/701/313
f 521/697/314 527/705/314 524/700/314
f 527/705/315 533/713/315 530/708/315
f 533/713/316 539/721/316 536/716/316
f 539/721/317 545/728/317 542/724/317
f 545/728/318 551/736/318 548/732/318
f 551/736/319 557/745/319 554/740/319
f 557/745/320 563/753/320 560/756/320
f 563/753/321 569/761/321 566/764/321
f 569/761/419 575/769/419 572/908/419
f 575/777/323 581/779/323 578/772/323
f 581/779/324 587/787/324 584/790/324
f 587/787/325 593/795/325 590/799/325
f 593/795/326 599/802/326 596/798/326
f 599/802/327 605/811/327 602/815/327
f 605/811/328 611/818/328 608/814/328
f 611/818/329 617/827/329 614/831/329
f 617/827/330 623/834/330 620/830/330
f 623/834/331 629/842/331 626/838/331
f 629/842/332 635/851/332 632/846/332
f 635/851/333 641/858/333 638/854/333
f 641/867/334 647/869/334 644/862/334
f 647/869/335 653/877/335 650/872/335
f 653/877/336 659/884/336 656/880/336
f 659/884/337 665/893/337 662/897/337
f 665/893/338 671/901/338 668/896/338
