# Blender 4.5.11 LTS
# www.blender.org
mtllib visual.mtl
o washer.001
v 0.017500 0.000000 0.000000
v 0.017416 0.001715 0.000000
v 0.017164 0.003414 0.000000
v 0.016746 0.005080 0.000000
v 0.016168 0.006697 0.000000
v 0.015434 0.008249 0.000000
v 0.014551 0.009722 0.000000
v 0.013528 0.011102 0.000000
v 0.012374 0.012374 0.000000
v 0.011102 0.013528 0.000000
v 0.009722 0.014551 0.000000
v 0.008249 0.015434 0.000000
v 0.006697 0.016168 0.000000
v 0.005080 0.016746 0.000000
v 0.003414 0.017164 0.000000
v 0.001715 0.017416 0.000000
v 0.000000 0.017500 0.000000
v -0.001715 0.017416 0.000000
v -0.003414 0.017164 0.000000
v -0.005080 0.016746 0.000000
v -0.006697 0.016168 0.000000
v -0.008249 0.015434 0.000000
v -0.009722 0.014551 0.000000
v -0.011102 0.013528 0.000000
v -0.012374 0.012374 0.000000
v -0.013528 0.011102 0.000000
v -0.014551 0.009722 0.000000
v -0.015434 0.008249 0.000000
v -0.016168 0.006697 0.000000
v -0.016746 0.005080 0.000000
v -0.017164 0.003414 0.000000
v -0.017416 0.001715 0.000000
v -0.017500 0.000000 0.000000
v -0.017416 -0.001715 0.000000
v -0.017164 -0.003414 0.000000
v -0.016746 -0.005080 0.000000
v -0.016168 -0.006697 0.000000
v -0.015434 -0.008249 0.000000
v -0.014551 -0.009722 0.000000
v -0.013528 -0.011102 0.000000
v -0.012374 -0.012374 0.000000
v -0.011102 -0.013528 0.000000
v -0.009722 -0.014551 0.000000
v -0.008249 -0.015434 0.000000
v -0.006697 -0.016168 0.000000
v -0.005080 -0.016746 0.000000
v -0.003414 -0.017164 0.000000
v -0.001715 -0.017416 0.000000
v -0.000000 -0.017500 0.000000
v 0.001715 -0.017416 0.000000
v 0.003414 -0.017164 0.000000
v 0.005080 -0.016746 0.000000
v 0.006697 -0.016168 0.000000
v 0.008249 -0.015434 0.000000
v 0.009722 -0.014551 0.000000
v 0.011102 -0.013528 0.000000
v 0.012374 -0.012374 0.000000
v 0.013528 -0.011102 0.000000
v 0.014551 -0.009722 0.000000
v 0.015434 -0.008249 0.000000
v 0.016168 -0.006697 0.000000
v 0.016746 -0.005080 0.000000
v 0.017164 -0.003414 0.000000
v 0.017416 -0.001715 0.000000
v 0.007500 0.000000 0.000000
v 0.007464 0.000735 0.000000
v 0.007356 0.001463 0.000000
v 0.007177 0.002177 0.000000
v 0.006929 0.002870 0.000000
v 0.006614 0.003535 0.000000
v 0.006236 0.004167 0.000000
v 0.005798 0.004758 0.000000
v 0.005303 0.005303 0.000000
v 0.004758 0.005798 0.000000
v 0.004167 0.006236 0.000000
v 0.003535 0.006614 0.000000
v 0.002870 0.006929 0.000000
v 0.002177 0.007177 0.000000
v 0.001463 0.007356 0.000000
v 0.000735 0.007464 0.000000
v 0.000000 0.007500 0.000000
v -0.000735 0.007464 0.000000
v -0.001463 0.007356 0.000000
v -0.002177 0.007177 0.000000
v -0.002870 0.006929 0.000000
v -0.003535 0.006614 0.000000
v -0.004167 0.006236 0.000000
v -0.004758 0.005798 0.000000
v -0.005303 0.005303 0.000000
v -0.005798 0.004758 0.000000
v -0.006236 0.004167 0.000000
v -0.006614 0.003535 0.000000
v -0.006929 0.002870 0.000000
v -0.007177 0.002177 0.000000
v -0.007356 0.001463 0.000000
v -0.007464 0.000735 0.000000
v -0.007500 0.000000 0.000000
v -0.007464 -0.000735 0.000000
v -0.007356 -0.001463 0.000000
v -0.007177 -0.002177 0.000000
v -0.006929 -0.002870 0.000000
v -0.006614 -0.003535 0.000000
v -0.006236 -0.004167 0.000000
v -0.005798 -0.004758 0.000000
v -0.005303 -0.005303 0.000000
v -0.004758 -0.005798 0.000000
v -0.004167 -0.006236 0.000000
v -0.003535 -0.006614 0.000000
v -0.002870 -0.006929 0.000000
v -0.002177 -0.007177 0.000000
v -0.001463 -0.007356 0.000000
v -0.000735 -0.007464 0.000000
v -0.000000 -0.007500 0.000000
v 0.000735 -0.007464 0.000000
v 0.001463 -0.007356 0.000000
v 0.002177 -0.007177 0.000000
v 0.002870 -0.006929 0.000000
v 0.003535 -0.006614 0.000000
v 0.004167 -0.006236 0.000000
v 0.004758 -0.005798 0.000000
v 0.005303 -0.005303 0.000000
v 0.005798 -0.004758 0.000000
v 0.006236 -0.004167 0.000000
v 0.006614 -0.003535 0.000000
v 0.006929 -0.002870 0.000000
v 0.007177 -0.002177 0.000000
v 0.007356 -0.001463 0.000000
v 0.007464 -0.000735 0.000000
v 0.017500 0.000000 0.003175
v 0.017416 0.001715 0.003175
v 0.017164 0.003414 0.003175
v 0.016746 0.005080 0.003175
v 0.016168 0.006697 0.003175
v 0.015434 0.008249 0.003175
v 0.014551 0.009722 0.003175
v 0.013528 0.011102 0.003175
v 0.012374 0.012374 0.003175
v 0.011102 0.013528 0.003175
v 0.009722 0.014551 0.003175
v 0.008249 0.015434 0.003175
v 0.006697 0.016168 0.003175
v 0.005080 0.016746 0.003175
v 0.003414 0.017164 0.003175
v 0.001715 0.017416 0.003175
v 0.000000 0.017500 0.003175
v -0.001715 0.017416 0.003175
v -0.003414 0.017164 0.003175
v -0.005080 0.016746 0.003175
v -0.006697 0.016168 0.003175
v -0.008249 0.015434 0.003175
v -0.009722 0.014551 0.003175
v -0.011102 0.013528 0.003175
v -0.012374 0.012374 0.003175
v -0.013528 0.011102 0.003175
v -0.014551 0.009722 0.003175
v -0.015434 0.008249 0.003175
v -0.016168 0.006697 0.003175
v -0.016746 0.005080 0.003175
v -0.017164 0.003414 0.003175
v -0.017416 0.001715 0.003175
v -0.017500 0.000000 0.003175
v -0.017416 -0.001715 0.003175
v -0.017164 -0.003414 0.003175
v -0.016746 -0.005080 0.003175
v -0.016168 -0.006697 0.003175
v -0.015434 -0.008249 0.003175
v -0.014551 -0.009722 0.003175
v -0.013528 -0.011102 0.003175
v -0.012374 -0.012374 0.003175
v -0.011102 -0.013528 0.003175
v -0.009722 -0.014551 0.003175
v -0.008249 -0.015434 0.003175
v -0.006697 -0.016168 0.003175
v -0.005080 -0.016746 0.003175
v -0.003414 -0.017164 0.003175
v -0.001715 -0.017416 0.003175
v -0.000000 -0.017500 0.003175
v 0.001715 -0.017416 0.003175
v 0.003414 -0.017164 0.003175
v 0.005080 -0.016746 0.003175
v 0.006697 -0.016168 0.003175
v 0.008249 -0.015434 0.003175
v 0.009722 -0.014551 0.003175
v 0.011102 -0.013528 0.003175
v 0.012374 -0.012374 0.003175
v 0.013528 -0.011102 0.003175
v 0.014551 -0.009722 0.003175
v 0.015434 -0.008249 0.003175
v 0.016168 -0.006697 0.003175
v 0.016746 -0.005080 0.003175
v 0.017164 -0.003414 0.003175
v 0.017416 -0.001715 0.003175
v 0.007500 0.000000 0.003175
v 0.007464 0.000735 0.003175
v 0.007356 0.001463 0.003175
v 0.007177 0.002177 0.003175
v 0.006929 0.002870 0.003175
v 0.006614 0.003535 0.003175
v 0.006236 0.004167 0.003175
v 0.005798 0.004758 0.003175
v 0.005303 0.005303 0.003175
v 0.004758 0.005798 0.003175
v 0.004167 0.006236 0.003175
v 0.003535 0.006614 0.003175
v 0.002870 0.006929 0.003175
v 0.002177 0.007177 0.003175
v 0.001463 0.007356 0.003175
v 0.000735 0.007464 0.003175
v 0.000000 0.007500 0.003175
v -0.000735 0.007464 0.003175
v -0.001463 0.007356 0.003175
v -0.002177 0.007177 0.003175
v -0.002870 0.006929 0.003175
v -0.003535 0.006614 0.003175
v -0.004167 0.006236 0.003175
v -0.004758 0.005798 0.003175
v -0.005303 0.005303 0.003175
v -0.005798 0.004758 0.003175
v -0.006236 0.004167 0.003175
v -0.006614 0.003535 0.003175
v -0.006929 0.002870 0.003175
v -0.007177 0.002177 0.003175
v -0.007356 0.001463 0.003175
v -0.007464 0.000735 0.003175
v -0.007500 0.000000 0.003175
v -0.007464 -0.000735 0.003175
v -0.007356 -0.001463 0.003175
v -0.007177 -0.002177 0.003175
v -0.006929 -0.002870 0.003175
v -0.006614 -0.003535 0.003175
v -0.006236 -0.004167 0.003175
v -0.005798 -0.004758 0.003175
v -0.005303 -0.005303 0.003175
v -0.004758 -0.005798 0.003175
v -0.004167 -0.006236 0.003175
v -0.003535 -0.006614 0.003175
v -0.002870 -0.006929 0.003175
v -0.002177 -0.007177 0.003175
v -0.001463 -0.007356 0.003175
v -0.000735 -0.007464 0.003175
v -0.000000 -0.007500 0.003175
v 0.000735 -0.007464 0.003175
v 0.001463 -0.007356 0.003175
v 0.002177 -0.007177 0.003175
v 0.002870 -0.006929 0.003175
v 0.003535 -0.006614 0.003175
v 0.004167 -0.006236 0.003175
v 0.004758 -0.005798 0.003175
v 0.005303 -0.005303 0.003175
v 0.005798 -0.004758 0.003175
v 0.006236 -0.004167 0.003175
v 0.006614 -0.003535 0.003175
v 0.006929 -0.002870 0.003175
v 0.007177 -0.002177 0.003175
v 0.007356 -0.001463 0.003175
v 0.007464 -0.000735 0.003175
vn 0.9988 0.0491 -0.0000
vn -0.9988 -0.0491 -0.0000
vn -0.0000 -0.0000 1.0000
vn -0.0000 -0.0000 -1.0000
vn 0.9892 0.1467 -0.0000
vn -0.9892 -0.1467 -0.0000
vn 0.9700 0.2430 -0.0000
vn -0.9700 -0.2430 -0.0000
vn 0.9415 0.3369 -0.0000
vn -0.9415 -0.3369 -0.0000
vn 0.9040 0.4276 -0.0000
vn -0.9040 -0.4276 -0.0000
vn 0.8577 0.5141 -0.0000
vn -0.8577 -0.5141 -0.0000
vn 0.8032 0.5957 -0.0000
vn -0.8032 -0.5957 -0.0000
vn 0.7410 0.6716 -0.0000
vn -0.7410 -0.6716 -0.0000
vn 0.6716 0.7410 -0.0000
vn -0.6716 -0.7410 -0.0000
vn 0.5957 0.8032 -0.0000
vn -0.5957 -0.8032 -0.0000
vn 0.5141 0.8577 -0.0000
vn -0.5141 -0.8577 -0.0000
vn 0.4276 0.9040 -0.0000
vn -0.4276 -0.9040 -0.0000
vn 0.3369 0.9415 -0.0000
vn -0.3369 -0.9415 -0.0000
vn 0.2430 0.9700 -0.0000
vn -0.2430 -0.9700 -0.0000
vn 0.1467 0.9892 -0.0000
vn -0.1467 -0.9892 -0.0000
vn 0.0491 0.9988 -0.0000
vn -0.0491 -0.9988 -0.0000
vn -0.0491 0.9988 -0.0000
vn 0.0491 -0.9988 -0.0000
vn -0.1467 0.9892 -0.0000
vn 0.1467 -0.9892 -0.0000
vn -0.2430 0.9700 -0.0000
vn 0.2430 -0.9700 -0.0000
vn -0.3369 0.9415 -0.0000
vn 0.3369 -0.9415 -0.0000
vn -0.4276 0.9040 -0.0000
vn 0.4276 -0.9040 -0.0000
vn -0.5141 0.8577 -0.0000
vn 0.5141 -0.8577 -0.0000
vn -0.5957 0.8032 -0.0000
vn 0.5957 -0.8032 -0.0000
vn -0.6716 0.7410 -0.0000
vn 0.6716 -0.7410 -0.0000
vn -0.7410 0.6716 -0.0000
vn 0.7410 -0.6716 -0.0000
vn -0.8032 0.5957 -0.0000
vn 0.8032 -0.5957 -0.0000
vn -0.8577 0.5141 -0.0000
vn 0.8577 -0.5141 -0.0000
vn -0.9040 0.4276 -0.0000
vn 0.9040 -0.4276 -0.0000
vn -0.9415 0.3369 -0.0000
vn 0.9415 -0.3369 -0.0000
vn -0.9700 0.2430 -0.0000
vn 0.9700 -0.2430 -0.0000
vn -0.9892 0.1467 -0.0000
vn 0.9892 -0.1467 -0.0000
vn -0.9988 0.0491 -0.0000
vn 0.9988 -0.0491 -0.0000
vt 0.548374 0.059578
vt 0.503620 0.039450
vt 0.548374 0.039450
vt 0.600368 0.840526
vt 0.555614 0.832506
vt 0.600368 0.832506
vt 0.237896 0.496380
vt 0.255187 0.355592
vt 0.262104 0.496380
vt 0.213805 0.505993
vt 0.244813 0.644409
vt 0.234488 0.645425
vt 0.548374 0.080928
vt 0.503620 0.059578
vt 0.652362 0.286825
vt 0.607608 0.278806
vt 0.652362 0.278806
vt 0.213805 0.494007
vt 0.244813 0.355592
vt 0.224312 0.647449
vt 0.190062 0.510715
vt 0.548374 0.103293
vt 0.503620 0.080928
vt 0.607608 0.270179
vt 0.652362 0.270179
vt 0.190062 0.489285
vt 0.234488 0.354575
vt 0.166897 0.517742
vt 0.214384 0.650461
vt 0.548374 0.126458
vt 0.503620 0.103293
vt 0.607608 0.261030
vt 0.652362 0.261030
vt 0.166897 0.482258
vt 0.224312 0.352551
vt 0.204799 0.654431
vt 0.144532 0.527006
vt 0.548374 0.150201
vt 0.503620 0.126458
vt 0.607608 0.251445
vt 0.652362 0.251445
vt 0.144532 0.472994
vt 0.214384 0.349539
vt 0.195650 0.659322
vt 0.123182 0.538418
vt 0.548374 0.174292
vt 0.503620 0.150201
vt 0.607608 0.241517
vt 0.652362 0.241517
vt 0.123183 0.461582
vt 0.204799 0.345569
vt 0.103054 0.551867
vt 0.187023 0.665086
vt 0.548374 0.198500
vt 0.503620 0.174292
vt 0.607608 0.231341
vt 0.652362 0.231341
vt 0.103055 0.448133
vt 0.195650 0.340678
vt 0.084342 0.567224
vt 0.179004 0.671668
vt 0.548374 0.222591
vt 0.503620 0.198500
vt 0.607608 0.221016
vt 0.652362 0.221016
vt 0.084342 0.432776
vt 0.187023 0.334914
vt 0.171667 0.679004
vt 0.067224 0.584342
vt 0.548374 0.246333
vt 0.503620 0.222591
vt 0.607608 0.210642
vt 0.652362 0.210642
vt 0.067224 0.415658
vt 0.179004 0.328333
vt 0.165086 0.687023
vt 0.051867 0.603055
vt 0.548374 0.269499
vt 0.503620 0.246333
vt 0.607608 0.200317
vt 0.652362 0.200317
vt 0.165086 0.312977
vt 0.171668 0.320996
vt 0.159322 0.695650
vt 0.038418 0.623183
vt 0.548374 0.291864
vt 0.503620 0.269499
vt 0.607608 0.190141
vt 0.652362 0.190141
vt 0.051867 0.396946
vt 0.159322 0.304350
vt 0.154431 0.704799
vt 0.027006 0.644532
vt 0.548374 0.313213
vt 0.503620 0.291864
vt 0.607608 0.180213
vt 0.652362 0.180213
vt 0.027006 0.355468
vt 0.038418 0.376818
vt 0.150461 0.714384
vt 0.017742 0.666897
vt 0.548374 0.333341
vt 0.503620 0.313213
vt 0.607608 0.170628
vt 0.652362 0.170628
vt 0.017742 0.333103
vt 0.154431 0.295201
vt 0.147449 0.724312
vt 0.010715 0.690062
vt 0.548374 0.352054
vt 0.503620 0.333341
vt 0.607608 0.161479
vt 0.652362 0.161479
vt 0.147449 0.275688
vt 0.150461 0.285616
vt 0.145425 0.734488
vt 0.005993 0.713805
vt 0.548374 0.369172
vt 0.503620 0.352054
vt 0.607608 0.152852
vt 0.652362 0.152852
vt 0.005993 0.286195
vt 0.010715 0.309938
vt 0.144408 0.744813
vt 0.003620 0.737896
vt 0.548374 0.384529
vt 0.503620 0.369172
vt 0.652362 0.145613
vt 0.607608 0.137593
vt 0.652362 0.137593
vt 0.144409 0.255187
vt 0.145425 0.265512
vt 0.144408 0.755187
vt 0.003620 0.762104
vt 0.548374 0.407126
vt 0.503620 0.391768
vt 0.548374 0.391768
vt 0.607608 0.128967
vt 0.652362 0.128967
vt 0.003620 0.237896
vt 0.003620 0.262104
vt 0.005993 0.786195
vt 0.145425 0.765512
vt 0.548374 0.424243
vt 0.503620 0.407126
vt 0.607608 0.119817
vt 0.652362 0.119817
vt 0.005993 0.213805
vt 0.144408 0.244813
vt 0.147449 0.775688
vt 0.010715 0.809938
vt 0.548374 0.442956
vt 0.503620 0.424243
vt 0.607608 0.110232
vt 0.652362 0.110232
vt 0.010715 0.190062
vt 0.145425 0.234488
vt 0.017742 0.833103
vt 0.150461 0.785616
vt 0.548374 0.463084
vt 0.503620 0.442956
vt 0.607608 0.100304
vt 0.652362 0.100304
vt 0.017742 0.166897
vt 0.147449 0.224312
vt 0.154431 0.795201
vt 0.027006 0.855468
vt 0.548374 0.484433
vt 0.503620 0.463084
vt 0.607608 0.090128
vt 0.652362 0.090128
vt 0.027006 0.144532
vt 0.150461 0.214384
vt 0.159322 0.804350
vt 0.038418 0.876818
vt 0.548374 0.506798
vt 0.503620 0.484433
vt 0.607608 0.079804
vt 0.652362 0.079804
vt 0.038418 0.123183
vt 0.154431 0.204799
vt 0.051867 0.896946
vt 0.165086 0.812977
vt 0.548374 0.529964
vt 0.503620 0.506798
vt 0.607608 0.069429
vt 0.652362 0.069429
vt 0.051867 0.103055
vt 0.159322 0.195650
vt 0.067224 0.915658
vt 0.171668 0.820997
vt 0.548374 0.553706
vt 0.503620 0.529964
vt 0.607608 0.059104
vt 0.652362 0.059104
vt 0.067224 0.084342
vt 0.165086 0.187023
vt 0.179004 0.828333
vt 0.084342 0.932776
vt 0.548374 0.577798
vt 0.503620 0.553706
vt 0.607608 0.048929
vt 0.652362 0.048929
vt 0.084342 0.067224
vt 0.171667 0.179004
vt 0.187023 0.834914
vt 0.103055 0.948133
vt 0.548374 0.602005
vt 0.503620 0.577798
vt 0.607608 0.039001
vt 0.652362 0.039001
vt 0.187023 0.165086
vt 0.179004 0.171668
vt 0.195650 0.840678
vt 0.123183 0.961582
vt 0.548374 0.626097
vt 0.503620 0.602005
vt 0.607608 0.029416
vt 0.652362 0.029416
vt 0.103054 0.051867
vt 0.195650 0.159322
vt 0.204799 0.845569
vt 0.144532 0.972994
vt 0.548374 0.649839
vt 0.503620 0.626097
vt 0.607608 0.020266
vt 0.652362 0.020266
vt 0.144532 0.027006
vt 0.123182 0.038418
vt 0.214384 0.849539
vt 0.166897 0.982258
vt 0.548374 0.673005
vt 0.503620 0.649839
vt 0.607608 0.011640
vt 0.652362 0.011640
vt 0.166897 0.017742
vt 0.204799 0.154431
vt 0.224312 0.852551
vt 0.190062 0.989285
vt 0.548374 0.695370
vt 0.503620 0.673005
vt 0.607608 0.003620
vt 0.652362 0.003620
vt 0.224312 0.147449
vt 0.214384 0.150461
vt 0.234488 0.854575
vt 0.213805 0.994007
vt 0.548374 0.716719
vt 0.503620 0.695370
vt 0.600368 0.825266
vt 0.555614 0.817930
vt 0.600368 0.817930
vt 0.213805 0.005993
vt 0.190062 0.010715
vt 0.244813 0.855592
vt 0.237896 0.996380
vt 0.548374 0.736847
vt 0.503620 0.716719
vt 0.555614 0.809910
vt 0.600368 0.809910
vt 0.244813 0.144408
vt 0.234488 0.145425
vt 0.255187 0.855592
vt 0.262104 0.996380
vt 0.548374 0.755560
vt 0.503620 0.736847
vt 0.555614 0.801284
vt 0.600368 0.801284
vt 0.262104 0.003620
vt 0.237896 0.003620
vt 0.286195 0.994007
vt 0.265512 0.854575
vt 0.600368 0.022333
vt 0.555614 0.003620
vt 0.600368 0.003620
vt 0.555614 0.792134
vt 0.600368 0.792134
vt 0.286195 0.005993
vt 0.255187 0.144408
vt 0.275688 0.852551
vt 0.309938 0.989285
vt 0.600368 0.042461
vt 0.555614 0.022333
vt 0.555614 0.782549
vt 0.600368 0.782549
vt 0.309938 0.010715
vt 0.265512 0.145425
vt 0.333103 0.982258
vt 0.285616 0.849539
vt 0.600368 0.063810
vt 0.555614 0.042461
vt 0.555614 0.772621
vt 0.600368 0.772621
vt 0.333103 0.017742
vt 0.275688 0.147449
vt 0.295201 0.845569
vt 0.355468 0.972994
vt 0.600368 0.086175
vt 0.555614 0.063810
vt 0.555614 0.762446
vt 0.600368 0.762446
vt 0.355468 0.027006
vt 0.285616 0.150461
vt 0.304350 0.840678
vt 0.376818 0.961582
vt 0.600368 0.109340
vt 0.555614 0.086175
vt 0.555614 0.752121
vt 0.600368 0.752121
vt 0.376817 0.038418
vt 0.295201 0.154431
vt 0.396946 0.948133
vt 0.312977 0.834914
vt 0.600368 0.133083
vt 0.555614 0.109340
vt 0.555614 0.741746
vt 0.600368 0.741746
vt 0.396946 0.051867
vt 0.304350 0.159322
vt 0.415658 0.932776
vt 0.320996 0.828332
vt 0.600368 0.157174
vt 0.555614 0.133083
vt 0.555614 0.731422
vt 0.600368 0.731422
vt 0.415658 0.067224
vt 0.312977 0.165086
vt 0.328333 0.820996
vt 0.432776 0.915658
vt 0.600368 0.181382
vt 0.555614 0.157174
vt 0.555614 0.721246
vt 0.600368 0.721246
vt 0.432776 0.084342
vt 0.320996 0.171667
vt 0.334914 0.812977
vt 0.448133 0.896945
vt 0.600368 0.205473
vt 0.555614 0.181382
vt 0.555614 0.711318
vt 0.600368 0.711318
vt 0.334914 0.187023
vt 0.328333 0.179004
vt 0.340678 0.804350
vt 0.461582 0.876817
vt 0.600368 0.229216
vt 0.555614 0.205473
vt 0.555614 0.701733
vt 0.600368 0.701733
vt 0.448133 0.103054
vt 0.340678 0.195650
vt 0.345569 0.795201
vt 0.472994 0.855468
vt 0.600368 0.252381
vt 0.555614 0.229216
vt 0.555614 0.692584
vt 0.600368 0.692584
vt 0.472994 0.144532
vt 0.461582 0.123182
vt 0.349539 0.785616
vt 0.482258 0.833103
vt 0.600368 0.274746
vt 0.555614 0.252381
vt 0.555614 0.683957
vt 0.600368 0.683957
vt 0.482258 0.166897
vt 0.345569 0.204799
vt 0.352551 0.775688
vt 0.489285 0.809938
vt 0.600368 0.296096
vt 0.555614 0.274746
vt 0.555614 0.675937
vt 0.600368 0.675937
vt 0.352551 0.224312
vt 0.349539 0.214384
vt 0.354575 0.765512
vt 0.494007 0.786195
vt 0.600368 0.316224
vt 0.555614 0.296096
vt 0.555614 0.668601
vt 0.600368 0.668601
vt 0.494007 0.213805
vt 0.489285 0.190062
vt 0.355592 0.755187
vt 0.496380 0.762104
vt 0.600368 0.334937
vt 0.555614 0.316224
vt 0.555614 0.662020
vt 0.600368 0.662020
vt 0.355592 0.244813
vt 0.354575 0.234488
vt 0.355592 0.744813
vt 0.496380 0.737896
vt 0.600368 0.362304
vt 0.555614 0.342176
vt 0.600368 0.342176
vt 0.600368 0.988417
vt 0.555614 0.981835
vt 0.600368 0.981835
vt 0.496380 0.262104
vt 0.496380 0.237896
vt 0.494007 0.713805
vt 0.354575 0.734488
vt 0.600368 0.383654
vt 0.555614 0.362304
vt 0.555614 0.974499
vt 0.600368 0.974499
vt 0.494007 0.286195
vt 0.355592 0.255187
vt 0.352551 0.724312
vt 0.489285 0.690062
vt 0.600368 0.406019
vt 0.555614 0.383654
vt 0.555614 0.966479
vt 0.600368 0.966479
vt 0.489285 0.309938
vt 0.354575 0.265512
vt 0.482258 0.666897
vt 0.349539 0.714384
vt 0.600368 0.429184
vt 0.555614 0.406019
vt 0.555614 0.957853
vt 0.600368 0.957853
vt 0.482258 0.333103
vt 0.352551 0.275688
vt 0.345569 0.704799
vt 0.472994 0.644532
vt 0.600368 0.452927
vt 0.555614 0.429184
vt 0.555614 0.948703
vt 0.600368 0.948703
vt 0.472994 0.355468
vt 0.349539 0.285616
vt 0.340678 0.695650
vt 0.461582 0.623182
vt 0.600368 0.477018
vt 0.555614 0.452927
vt 0.555614 0.939118
vt 0.600368 0.939118
vt 0.461582 0.376817
vt 0.345569 0.295201
vt 0.448133 0.603054
vt 0.334914 0.687023
vt 0.600368 0.501226
vt 0.555614 0.477018
vt 0.555614 0.929190
vt 0.600368 0.929190
vt 0.448133 0.396945
vt 0.340678 0.304350
vt 0.432776 0.584342
vt 0.328333 0.679004
vt 0.600368 0.525317
vt 0.555614 0.501226
vt 0.555614 0.919015
vt 0.600368 0.919015
vt 0.432776 0.415658
vt 0.334914 0.312977
vt 0.320996 0.671667
vt 0.415658 0.567224
vt 0.600368 0.549059
vt 0.555614 0.525317
vt 0.555614 0.908690
vt 0.600368 0.908690
vt 0.415658 0.432776
vt 0.328333 0.320996
vt 0.312977 0.665086
vt 0.396945 0.551867
vt 0.600368 0.572225
vt 0.555614 0.549059
vt 0.555614 0.898315
vt 0.600368 0.898315
vt 0.312977 0.334914
vt 0.320996 0.328333
vt 0.304350 0.659322
vt 0.376817 0.538418
vt 0.600368 0.594590
vt 0.555614 0.572225
vt 0.555614 0.887990
vt 0.600368 0.887990
vt 0.396946 0.448133
vt 0.304350 0.340678
vt 0.295201 0.654431
vt 0.355468 0.527006
vt 0.600368 0.615939
vt 0.555614 0.594590
vt 0.555614 0.877815
vt 0.600368 0.877815
vt 0.355468 0.472994
vt 0.376818 0.461582
vt 0.285616 0.650461
vt 0.333103 0.517742
vt 0.600368 0.636067
vt 0.555614 0.615939
vt 0.555614 0.867887
vt 0.600368 0.867887
vt 0.333103 0.482258
vt 0.295201 0.345569
vt 0.275688 0.647449
vt 0.309938 0.510715
vt 0.600368 0.654780
vt 0.555614 0.636067
vt 0.555614 0.858302
vt 0.600368 0.858302
vt 0.275688 0.352551
vt 0.285616 0.349539
vt 0.265512 0.645425
vt 0.286195 0.505993
vt 0.548374 0.020737
vt 0.503620 0.003620
vt 0.548374 0.003620
vt 0.555614 0.849152
vt 0.600368 0.849152
vt 0.286195 0.494007
vt 0.309938 0.489285
vt 0.255187 0.644408
vt 0.262104 0.503620
vt 0.503620 0.020737
vt 0.555614 0.840526
vt 0.265512 0.354575
vt 0.237896 0.503620
vt 0.607608 0.286825
vt 0.503620 0.384529
vt 0.607608 0.145613
vt 0.555614 0.825266
vt 0.503620 0.755560
vt 0.555614 0.334937
vt 0.555614 0.988417
vt 0.555614 0.654780
s 0
usemtl ARAT_dark_steel
f 2/1/1 129/2/1 1/3/1
f 65/4/2 194/5/2 66/6/2
f 130/7/3 193/8/3 129/9/3
f 2/10/4 65/11/4 66/12/4
f 3/13/5 130/14/5 2/1/5
f 66/15/6 195/16/6 67/17/6
f 131/18/3 194/19/3 130/7/3
f 2/10/4 67/20/4 3/21/4
f 4/22/7 131/23/7 3/13/7
f 67/17/8 196/24/8 68/25/8
f 132/26/3 195/27/3 131/18/3
f 4/28/4 67/20/4 68/29/4
f 5/30/9 132/31/9 4/22/9
f 68/25/10 197/32/10 69/33/10
f 133/34/3 196/35/3 132/26/3
f 4/28/4 69/36/4 5/37/4
f 6/38/11 133/39/11 5/30/11
f 69/33/12 198/40/12 70/41/12
f 134/42/3 197/43/3 133/34/3
f 5/37/4 70/44/4 6/45/4
f 7/46/13 134/47/13 6/38/13
f 70/41/14 199/48/14 71/49/14
f 135/50/3 198/51/3 134/42/3
f 7/52/4 70/44/4 71/53/4
f 8/54/15 135/55/15 7/46/15
f 71/49/16 200/56/16 72/57/16
f 136/58/3 199/59/3 135/50/3
f 8/60/4 71/53/4 72/61/4
f 9/62/17 136/63/17 8/54/17
f 72/57/18 201/64/18 73/65/18
f 137/66/3 200/67/3 136/58/3
f 8/60/4 73/68/4 9/69/4
f 10/70/19 137/71/19 9/62/19
f 73/65/20 202/72/20 74/73/20
f 138/74/3 201/75/3 137/66/3
f 9/69/4 74/76/4 10/77/4
f 11/78/21 138/79/21 10/70/21
f 74/73/22 203/80/22 75/81/22
f 138/74/3 203/82/3 202/83/3
f 10/77/4 75/84/4 11/85/4
f 12/86/23 139/87/23 11/78/23
f 75/81/24 204/88/24 76/89/24
f 139/90/3 204/91/3 203/82/3
f 11/85/4 76/92/4 12/93/4
f 13/94/25 140/95/25 12/86/25
f 76/89/26 205/96/26 77/97/26
f 141/98/3 204/91/3 140/99/3
f 12/93/4 77/100/4 13/101/4
f 14/102/27 141/103/27 13/94/27
f 77/97/28 206/104/28 78/105/28
f 142/106/3 205/107/3 141/98/3
f 13/101/4 78/108/4 14/109/4
f 15/110/29 142/111/29 14/102/29
f 78/105/30 207/112/30 79/113/30
f 142/106/3 207/114/3 206/115/3
f 14/109/4 79/116/4 15/117/4
f 16/118/31 143/119/31 15/110/31
f 79/113/32 208/120/32 80/121/32
f 144/122/3 207/114/3 143/123/3
f 15/117/4 80/124/4 16/125/4
f 17/126/33 144/127/33 16/118/33
f 80/128/34 209/129/34 81/130/34
f 144/122/3 209/131/3 208/132/3
f 16/125/4 81/133/4 17/134/4
f 18/135/35 145/136/35 17/137/35
f 81/130/36 210/138/36 82/139/36
f 146/140/3 209/131/3 145/141/3
f 18/142/4 81/133/4 82/143/4
f 19/144/37 146/145/37 18/135/37
f 82/139/38 211/146/38 83/147/38
f 147/148/3 210/149/3 146/140/3
f 18/142/4 83/150/4 19/151/4
f 20/152/39 147/153/39 19/144/39
f 83/147/40 212/154/40 84/155/40
f 148/156/3 211/157/3 147/148/3
f 20/158/4 83/150/4 84/159/4
f 21/160/41 148/161/41 20/152/41
f 84/155/42 213/162/42 85/163/42
f 149/164/3 212/165/3 148/156/3
f 20/158/4 85/166/4 21/167/4
f 22/168/43 149/169/43 21/160/43
f 85/163/44 214/170/44 86/171/44
f 150/172/3 213/173/3 149/164/3
f 21/167/4 86/174/4 22/175/4
f 23/176/45 150/177/45 22/168/45
f 86/171/46 215/178/46 87/179/46
f 151/180/3 214/181/3 150/172/3
f 23/182/4 86/174/4 87/183/4
f 24/184/47 151/185/47 23/176/47
f 87/179/48 216/186/48 88/187/48
f 152/188/3 215/189/3 151/180/3
f 24/190/4 87/183/4 88/191/4
f 25/192/49 152/193/49 24/184/49
f 88/187/50 217/194/50 89/195/50
f 153/196/3 216/197/3 152/188/3
f 24/190/4 89/198/4 25/199/4
f 26/200/51 153/201/51 25/192/51
f 89/195/52 218/202/52 90/203/52
f 154/204/3 217/205/3 153/196/3
f 25/199/4 90/206/4 26/207/4
f 27/208/53 154/209/53 26/200/53
f 90/203/54 219/210/54 91/211/54
f 154/204/3 219/212/3 218/213/3
f 26/207/4 91/214/4 27/215/4
f 28/216/55 155/217/55 27/208/55
f 91/211/56 220/218/56 92/219/56
f 155/220/3 220/221/3 219/212/3
f 27/215/4 92/222/4 28/223/4
f 29/224/57 156/225/57 28/216/57
f 92/219/58 221/226/58 93/227/58
f 157/228/3 220/221/3 156/229/3
f 28/223/4 93/230/4 29/231/4
f 30/232/59 157/233/59 29/224/59
f 93/227/60 222/234/60 94/235/60
f 158/236/3 221/237/3 157/228/3
f 29/231/4 94/238/4 30/239/4
f 31/240/61 158/241/61 30/232/61
f 94/235/62 223/242/62 95/243/62
f 158/236/3 223/244/3 222/245/3
f 30/239/4 95/246/4 31/247/4
f 32/248/63 159/249/63 31/240/63
f 95/250/64 224/251/64 96/252/64
f 160/253/3 223/244/3 159/254/3
f 31/247/4 96/255/4 32/256/4
f 33/257/65 160/258/65 32/248/65
f 96/252/66 225/259/66 97/260/66
f 160/253/3 225/261/3 224/262/3
f 32/256/4 97/263/4 33/264/4
f 34/265/2 161/266/2 33/257/2
f 97/260/1 226/267/1 98/268/1
f 162/269/3 225/261/3 161/270/3
f 34/271/4 97/263/4 98/272/4
f 35/273/6 162/274/6 34/275/6
f 98/268/5 227/276/5 99/277/5
f 163/278/3 226/279/3 162/269/3
f 34/271/4 99/280/4 35/281/4
f 36/282/8 163/283/8 35/273/8
f 99/277/7 228/284/7 100/285/7
f 164/286/3 227/287/3 163/278/3
f 36/288/4 99/280/4 100/289/4
f 37/290/10 164/291/10 36/282/10
f 100/285/9 229/292/9 101/293/9
f 165/294/3 228/295/3 164/286/3
f 36/288/4 101/296/4 37/297/4
f 38/298/12 165/299/12 37/290/12
f 101/293/11 230/300/11 102/301/11
f 166/302/3 229/303/3 165/294/3
f 37/297/4 102/304/4 38/305/4
f 39/306/14 166/307/14 38/298/14
f 102/301/13 231/308/13 103/309/13
f 167/310/3 230/311/3 166/302/3
f 39/312/4 102/304/4 103/313/4
f 40/314/16 167/315/16 39/306/16
f 103/309/15 232/316/15 104/317/15
f 168/318/3 231/319/3 167/310/3
f 40/320/4 103/313/4 104/321/4
f 41/322/18 168/323/18 40/314/18
f 104/317/17 233/324/17 105/325/17
f 169/326/3 232/327/3 168/318/3
f 40/320/4 105/328/4 41/329/4
f 42/330/20 169/331/20 41/322/20
f 105/325/19 234/332/19 106/333/19
f 170/334/3 233/335/3 169/326/3
f 41/329/4 106/336/4 42/337/4
f 43/338/22 170/339/22 42/330/22
f 106/333/21 235/340/21 107/341/21
f 170/334/3 235/342/3 234/343/3
f 42/337/4 107/344/4 43/345/4
f 44/346/24 171/347/24 43/338/24
f 107/341/23 236/348/23 108/349/23
f 171/350/3 236/351/3 235/342/3
f 43/345/4 108/352/4 44/353/4
f 45/354/26 172/355/26 44/346/26
f 108/349/25 237/356/25 109/357/25
f 173/358/3 236/351/3 172/359/3
f 44/353/4 109/360/4 45/361/4
f 46/362/28 173/363/28 45/354/28
f 109/357/27 238/364/27 110/365/27
f 174/366/3 237/367/3 173/358/3
f 45/361/4 110/368/4 46/369/4
f 47/370/30 174/371/30 46/362/30
f 110/365/29 239/372/29 111/373/29
f 174/366/3 239/374/3 238/375/3
f 46/369/4 111/376/4 47/377/4
f 48/378/32 175/379/32 47/370/32
f 111/373/31 240/380/31 112/381/31
f 176/382/3 239/374/3 175/383/3
f 47/377/4 112/384/4 48/385/4
f 49/386/34 176/387/34 48/378/34
f 112/381/33 241/388/33 113/389/33
f 176/382/3 241/390/3 240/391/3
f 48/385/4 113/392/4 49/393/4
f 50/394/36 177/395/36 49/396/36
f 113/397/35 242/398/35 114/399/35
f 178/400/3 241/390/3 177/401/3
f 50/402/4 113/392/4 114/403/4
f 51/404/38 178/405/38 50/394/38
f 114/399/37 243/406/37 115/407/37
f 179/408/3 242/409/3 178/400/3
f 50/402/4 115/410/4 51/411/4
f 52/412/40 179/413/40 51/404/40
f 115/407/39 244/414/39 116/415/39
f 180/416/3 243/417/3 179/408/3
f 52/418/4 115/410/4 116/419/4
f 53/420/42 180/421/42 52/412/42
f 116/415/41 245/422/41 117/423/41
f 181/424/3 244/425/3 180/416/3
f 52/418/4 117/426/4 53/427/4
f 54/428/44 181/429/44 53/420/44
f 117/423/43 246/430/43 118/431/43
f 182/432/3 245/433/3 181/424/3
f 53/427/4 118/434/4 54/435/4
f 55/436/46 182/437/46 54/428/46
f 118/431/45 247/438/45 119/439/45
f 183/440/3 246/441/3 182/432/3
f 55/442/4 118/434/4 119/443/4
f 56/444/48 183/445/48 55/436/48
f 119/439/47 248/446/47 120/447/47
f 184/448/3 247/449/3 183/440/3
f 56/450/4 119/443/4 120/451/4
f 57/452/50 184/453/50 56/444/50
f 120/447/49 249/454/49 121/455/49
f 185/456/3 248/457/3 184/448/3
f 56/450/4 121/458/4 57/459/4
f 58/460/52 185/461/52 57/452/52
f 121/455/51 250/462/51 122/463/51
f 186/464/3 249/465/3 185/456/3
f 57/459/4 122/466/4 58/467/4
f 59/468/54 186/469/54 58/460/54
f 122/463/53 251/470/53 123/471/53
f 186/464/3 251/472/3 250/473/3
f 58/467/4 123/474/4 59/475/4
f 60/476/56 187/477/56 59/468/56
f 123/471/55 252/478/55 124/479/55
f 187/480/3 252/481/3 251/472/3
f 59/475/4 124/482/4 60/483/4
f 61/484/58 188/485/58 60/476/58
f 124/479/57 253/486/57 125/487/57
f 189/488/3 252/481/3 188/489/3
f 60/483/4 125/490/4 61/491/4
f 62/492/60 189/493/60 61/484/60
f 125/487/59 254/494/59 126/495/59
f 190/496/3 253/497/3 189/488/3
f 61/491/4 126/498/4 62/499/4
f 63/500/62 190/501/62 62/492/62
f 126/495/61 255/502/61 127/503/61
f 190/496/3 255/504/3 254/505/3
f 62/499/4 127/506/4 63/507/4
f 64/508/64 191/509/64 63/510/64
f 127/503/63 256/511/63 128/512/63
f 192/513/3 255/504/3 191/514/3
f 63/507/4 128/515/4 64/516/4
f 1/3/66 192/517/66 64/508/66
f 128/512/65 193/518/65 65/4/65
f 192/513/3 193/8/3 256/519/3
f 64/516/4 65/11/4 1/520/4
f 2/1/1 130/14/1 129/2/1
f 65/4/2 193/518/2 194/5/2
f 130/7/3 194/19/3 193/8/3
f 2/10/4 1/520/4 65/11/4
f 3/13/5 131/23/5 130/14/5
f 66/15/6 194/521/6 195/16/6
f 131/18/3 195/27/3 194/19/3
f 2/10/4 66/12/4 67/20/4
f 4/22/7 132/31/7 131/23/7
f 67/17/8 195/16/8 196/24/8
f 132/26/3 196/35/3 195/27/3
f 4/28/4 3/21/4 67/20/4
f 5/30/9 133/39/9 132/31/9
f 68/25/10 196/24/10 197/32/10
f 133/34/3 197/43/3 196/35/3
f 4/28/4 68/29/4 69/36/4
f 6/38/11 134/47/11 133/39/11
f 69/33/12 197/32/12 198/40/12
f 134/42/3 198/51/3 197/43/3
f 5/37/4 69/36/4 70/44/4
f 7/46/13 135/55/13 134/47/13
f 70/41/14 198/40/14 199/48/14
f 135/50/3 199/59/3 198/51/3
f 7/52/4 6/45/4 70/44/4
f 8/54/15 136/63/15 135/55/15
f 71/49/16 199/48/16 200/56/16
f 136/58/3 200/67/3 199/59/3
f 8/60/4 7/52/4 71/53/4
f 9/62/17 137/71/17 136/63/17
f 72/57/18 200/56/18 201/64/18
f 137/66/3 201/75/3 200/67/3
f 8/60/4 72/61/4 73/68/4
f 10/70/19 138/79/19 137/71/19
f 73/65/20 201/64/20 202/72/20
f 138/74/3 202/83/3 201/75/3
f 9/69/4 73/68/4 74/76/4
f 11/78/21 139/87/21 138/79/21
f 74/73/22 202/72/22 203/80/22
f 138/74/3 139/90/3 203/82/3
f 10/77/4 74/76/4 75/84/4
f 12/86/23 140/95/23 139/87/23
f 75/81/24 203/80/24 204/88/24
f 139/90/3 140/99/3 204/91/3
f 11/85/4 75/84/4 76/92/4
f 13/94/25 141/103/25 140/95/25
f 76/89/26 204/88/26 205/96/26
f 141/98/3 205/107/3 204/91/3
f 12/93/4 76/92/4 77/100/4
f 14/102/27 142/111/27 141/103/27
f 77/97/28 205/96/28 206/104/28
f 142/106/3 206/115/3 205/107/3
f 13/101/4 77/100/4 78/108/4
f 15/110/29 143/119/29 142/111/29
f 78/105/30 206/104/30 207/112/30
f 142/106/3 143/123/3 207/114/3
f 14/109/4 78/108/4 79/116/4
f 16/118/31 144/127/31 143/119/31
f 79/113/32 207/112/32 208/120/32
f 144/122/3 208/132/3 207/114/3
f 15/117/4 79/116/4 80/124/4
f 17/126/33 145/522/33 144/127/33
f 80/128/34 208/523/34 209/129/34
f 144/122/3 145/141/3 209/131/3
f 16/125/4 80/124/4 81/133/4
f 18/135/35 146/145/35 145/136/35
f 81/130/36 209/129/36 210/138/36
f 146/140/3 210/149/3 209/131/3
f 18/142/4 17/134/4 81/133/4
f 19/144/37 147/153/37 146/145/37
f 82/139/38 210/138/38 211/146/38
f 147/148/3 211/157/3 210/149/3
f 18/142/4 82/143/4 83/150/4
f 20/152/39 148/161/39 147/153/39
f 83/147/40 211/146/40 212/154/40
f 148/156/3 212/165/3 211/157/3
f 20/158/4 19/151/4 83/150/4
f 21/160/41 149/169/41 148/161/41
f 84/155/42 212/154/42 213/162/42
f 149/164/3 213/173/3 212/165/3
f 20/158/4 84/159/4 85/166/4
f 22/168/43 150/177/43 149/169/43
f 85/163/44 213/162/44 214/170/44
f 150/172/3 214/181/3 213/173/3
f 21/167/4 85/166/4 86/174/4
f 23/176/45 151/185/45 150/177/45
f 86/171/46 214/170/46 215/178/46
f 151/180/3 215/189/3 214/181/3
f 23/182/4 22/175/4 86/174/4
f 24/184/47 152/193/47 151/185/47
f 87/179/48 215/178/48 216/186/48
f 152/188/3 216/197/3 215/189/3
f 24/190/4 23/182/4 87/183/4
f 25/192/49 153/201/49 152/193/49
f 88/187/50 216/186/50 217/194/50
f 153/196/3 217/205/3 216/197/3
f 24/190/4 88/191/4 89/198/4
f 26/200/51 154/209/51 153/201/51
f 89/195/52 217/194/52 218/202/52
f 154/204/3 218/213/3 217/205/3
f 25/199/4 89/198/4 90/206/4
f 27/208/53 155/217/53 154/209/53
f 90/203/54 218/202/54 219/210/54
f 154/204/3 155/220/3 219/212/3
f 26/207/4 90/206/4 91/214/4
f 28/216/55 156/225/55 155/217/55
f 91/211/56 219/210/56 220/218/56
f 155/220/3 156/229/3 220/221/3
f 27/215/4 91/214/4 92/222/4
f 29/224/57 157/233/57 156/225/57
f 92/219/58 220/218/58 221/226/58
f 157/228/3 221/237/3 220/221/3
f 28/223/4 92/222/4 93/230/4
f 30/232/59 158/241/59 157/233/59
f 93/227/60 221/226/60 222/234/60
f 158/236/3 222/245/3 221/237/3
f 29/231/4 93/230/4 94/238/4
f 31/240/61 159/249/61 158/241/61
f 94/235/62 222/234/62 223/242/62
f 158/236/3 159/254/3 223/244/3
f 30/239/4 94/238/4 95/246/4
f 32/248/63 160/258/63 159/249/63
f 95/250/64 223/524/64 224/251/64
f 160/253/3 224/262/3 223/244/3
f 31/247/4 95/246/4 96/255/4
f 33/257/65 161/266/65 160/258/65
f 96/252/66 224/251/66 225/259/66
f 160/253/3 161/270/3 225/261/3
f 32/256/4 96/255/4 97/263/4
f 34/265/2 162/525/2 161/266/2
f 97/260/1 225/259/1 226/267/1
f 162/269/3 226/279/3 225/261/3
f 34/271/4 33/264/4 97/263/4
f 35/273/6 163/283/6 162/274/6
f 98/268/5 226/267/5 227/276/5
f 163/278/3 227/287/3 226/279/3
f 34/271/4 98/272/4 99/280/4
f 36/282/8 164/291/8 163/283/8
f 99/277/7 227/276/7 228/284/7
f 164/286/3 228/295/3 227/287/3
f 36/288/4 35/281/4 99/280/4
f 37/290/10 165/299/10 164/291/10
f 100/285/9 228/284/9 229/292/9
f 165/294/3 229/303/3 228/295/3
f 36/288/4 100/289/4 101/296/4
f 38/298/12 166/307/12 165/299/12
f 101/293/11 229/292/11 230/300/11
f 166/302/3 230/311/3 229/303/3
f 37/297/4 101/296/4 102/304/4
f 39/306/14 167/315/14 166/307/14
f 102/301/13 230/300/13 231/308/13
f 167/310/3 231/319/3 230/311/3
f 39/312/4 38/305/4 102/304/4
f 40/314/16 168/323/16 167/315/16
f 103/309/15 231/308/15 232/316/15
f 168/318/3 232/327/3 231/319/3
f 40/320/4 39/312/4 103/313/4
f 41/322/18 169/331/18 168/323/18
f 104/317/17 232/316/17 233/324/17
f 169/326/3 233/335/3 232/327/3
f 40/320/4 104/321/4 105/328/4
f 42/330/20 170/339/20 169/331/20
f 105/325/19 233/324/19 234/332/19
f 170/334/3 234/343/3 233/335/3
f 41/329/4 105/328/4 106/336/4
f 43/338/22 171/347/22 170/339/22
f 106/333/21 234/332/21 235/340/21
f 170/334/3 171/350/3 235/342/3
f 42/337/4 106/336/4 107/344/4
f 44/346/24 172/355/24 171/347/24
f 107/341/23 235/340/23 236/348/23
f 171/350/3 172/359/3 236/351/3
f 43/345/4 107/344/4 108/352/4
f 45/354/26 173/363/26 172/355/26
f 108/349/25 236/348/25 237/356/25
f 173/358/3 237/367/3 236/351/3
f 44/353/4 108/352/4 109/360/4
f 46/362/28 174/371/28 173/363/28
f 109/357/27 237/356/27 238/364/27
f 174/366/3 238/375/3 237/367/3
f 45/361/4 109/360/4 110/368/4
f 47/370/30 175/379/30 174/371/30
f 110/365/29 238/364/29 239/372/29
f 174/366/3 175/383/3 239/374/3
f 46/369/4 110/368/4 111/376/4
f 48/378/32 176/387/32 175/379/32
f 111/373/31 239/372/31 240/380/31
f 176/382/3 240/391/3 239/374/3
f 47/377/4 111/376/4 112/384/4
f 49/386/34 177/526/34 176/387/34
f 112/381/33 240/380/33 241/388/33
f 176/382/3 177/401/3 241/390/3
f 48/385/4 112/384/4 113/392/4
f 50/394/36 178/405/36 177/395/36
f 113/397/35 241/527/35 242/398/35
f 178/400/3 242/409/3 241/390/3
f 50/402/4 49/393/4 113/392/4
f 51/404/38 179/413/38 178/405/38
f 114/399/37 242/398/37 243/406/37
f 179/408/3 243/417/3 242/409/3
f 50/402/4 114/403/4 115/410/4
f 52/412/40 180/421/40 179/413/40
f 115/407/39 243/406/39 244/414/39
f 180/416/3 244/425/3 243/417/3
f 52/418/4 51/411/4 115/410/4
f 53/420/42 181/429/42 180/421/42
f 116/415/41 244/414/41 245/422/41
f 181/424/3 245/433/3 244/425/3
f 52/418/4 116/419/4 117/426/4
f 54/428/44 182/437/44 181/429/44
f 117/423/43 245/422/43 246/430/43
f 182/432/3 246/441/3 245/433/3
f 53/427/4 117/426/4 118/434/4
f 55/436/46 183/445/46 182/437/46
f 118/431/45 246/430/45 247/438/45
f 183/440/3 247/449/3 246/441/3
f 55/442/4 54/435/4 118/434/4
f 56/444/48 184/453/48 183/445/48
f 119/439/47 247/438/47 248/446/47
f 184/448/3 248/457/3 247/449/3
f 56/450/4 55/442/4 119/443/4
f 57/452/50 185/461/50 184/453/50
f 120/447/49 248/446/49 249/454/49
f 185/456/3 249/465/3 248/457/3
f 56/450/4 120/451/4 121/458/4
f 58/460/52 186/469/52 185/461/52
f 121/455/51 249/454/51 250/462/51
f 186/464/3 250/473/3 249/465/3
f 57/459/4 121/458/4 122/466/4
f 59/468/54 187/477/54 186/469/54
f 122/463/53 250/462/53 251/470/53
f 186/464/3 187/480/3 251/472/3
f 58/467/4 122/466/4 123/474/4
f 60/476/56 188/485/56 187/477/56
f 123/471/55 251/470/55 252/478/55
f 187/480/3 188/489/3 252/481/3
f 59/475/4 123/474/4 124/482/4
f 61/484/58 189/493/58 188/485/58
f 124/479/57 252/478/57 253/486/57
f 189/488/3 253/497/3 252/481/3
f 60/483/4 124/482/4 125/490/4
f 62/492/60 190/501/60 189/493/60
f 125/487/59 253/486/59 254/494/59
f 190/496/3 254/505/3 253/497/3
f 61/491/4 125/490/4 126/498/4
f 63/500/62 191/528/62 190/501/62
f 126/495/61 254/494/61 255/502/61
f 190/496/3 191/514/3 255/504/3
f 62/499/4 126/498/4 127/506/4
f 64/508/64 192/517/64 191/509/64
f 127/503/63 255/502/63 256/511/63
f 192/513/3 256/519/3 255/504/3
f 63/507/4 127/506/4 128/515/4
f 1/3/66 129/2/66 192/517/66
f 128/512/65 256/511/65 193/518/65
f 192/513/3 129/9/3 193/8/3
f 64/516/4 128/515/4 65/11/4
