# Blender 4.5.11 LTS
# www.blender.org
mtllib visual.mtl
o plank_target_point
v -0.041000 -0.168500 0.000000
v -0.041000 -0.170000 0.001500
v -0.042500 -0.168500 0.001500
v -0.041000 -0.169249 0.000200
v -0.041749 -0.168500 0.000200
v -0.041717 -0.169217 0.000395
v -0.041749 -0.169800 0.001500
v -0.041000 -0.169800 0.000751
v -0.041717 -0.169605 0.000783
v -0.042300 -0.168500 0.000751
v -0.042300 -0.169249 0.001500
v -0.042105 -0.169217 0.000783
v -0.041000 -0.170000 0.033500
v -0.041000 -0.168500 0.035000
v -0.042500 -0.168500 0.033500
v -0.041000 -0.169800 0.034249
v -0.041749 -0.169800 0.033500
v -0.041717 -0.169605 0.034217
v -0.041749 -0.168500 0.034800
v -0.041000 -0.169249 0.034800
v -0.041717 -0.169217 0.034605
v -0.042300 -0.169249 0.033500
v -0.042300 -0.168500 0.034249
v -0.042105 -0.169217 0.034217
v -0.041000 0.168500 0.000000
v -0.042500 0.168500 0.001500
v -0.041000 0.170000 0.001500
v -0.041749 0.168500 0.000200
v -0.041000 0.169249 0.000200
v -0.041717 0.169217 0.000395
v -0.042300 0.169249 0.001500
v -0.042300 0.168500 0.000751
v -0.042105 0.169217 0.000783
v -0.041000 0.169800 0.000751
v -0.041749 0.169800 0.001500
v -0.041717 0.169605 0.000783
v -0.041000 0.168500 0.035000
v -0.041000 0.170000 0.033500
v -0.042500 0.168500 0.033500
v -0.041000 0.169249 0.034800
v -0.041749 0.168500 0.034800
v -0.041717 0.169217 0.034605
v -0.041749 0.169800 0.033500
v -0.041000 0.169800 0.034249
v -0.041717 0.169605 0.034217
v -0.042300 0.168500 0.034249
v -0.042300 0.169249 0.033500
v -0.042105 0.169217 0.034217
v 0.041000 -0.168500 0.000000
v 0.042500 -0.168500 0.001500
v 0.041000 -0.170000 0.001500
v 0.041749 -0.168500 0.000200
v 0.041000 -0.169249 0.000200
v 0.041717 -0.169217 0.000395
v 0.042300 -0.169249 0.001500
v 0.042300 -0.168500 0.000751
v 0.042105 -0.169217 0.000783
v 0.041000 -0.169800 0.000751
v 0.041749 -0.169800 0.001500
v 0.041717 -0.169605 0.000783
v 0.041000 -0.168500 0.035000
v 0.041000 -0.170000 0.033500
v 0.042500 -0.168500 0.033500
v 0.041000 -0.169249 0.034800
v 0.041749 -0.168500 0.034800
v 0.041717 -0.169217 0.034605
v 0.041749 -0.169800 0.033500
v 0.041000 -0.169800 0.034249
v 0.041717 -0.169605 0.034217
v 0.042300 -0.168500 0.034249
v 0.042300 -0.169249 0.033500
v 0.042105 -0.169217 0.034217
v 0.041000 0.168500 0.000000
v 0.041000 0.170000 0.001500
v 0.042500 0.168500 0.001500
v 0.041000 0.169249 0.000200
v 0.041749 0.168500 0.000200
v 0.041717 0.169217 0.000395
v 0.041749 0.169800 0.001500
v 0.041000 0.169800 0.000751
v 0.041717 0.169605 0.000783
v 0.042300 0.168500 0.000751
v 0.042300 0.169249 0.001500
v 0.042105 0.169217 0.000783
v 0.041000 0.168500 0.035000
v 0.042500 0.168500 0.033500
v 0.041000 0.170000 0.033500
v 0.041749 0.168500 0.034800
v 0.041000 0.169249 0.034800
v 0.041717 0.169217 0.034605
v 0.042300 0.169249 0.033500
v 0.042300 0.168500 0.034249
v 0.042105 0.169217 0.034217
v 0.041000 0.169800 0.034249
v 0.041749 0.169800 0.033500
v 0.041717 0.169605 0.034217
vn -0.2502 -0.2502 -0.9353
vn -0.2178 -0.6902 -0.6901
vn -0.2502 -0.9353 -0.2502
vn -0.6902 -0.6901 -0.2178
vn -0.9353 -0.2502 -0.2502
vn -0.6901 -0.2178 -0.6901
vn -0.5773 -0.5773 -0.5774
vn -0.2502 -0.9353 0.2502
vn -0.2178 -0.6901 0.6902
vn -0.2502 -0.2502 0.9353
vn -0.6901 -0.2178 0.6901
vn -0.9353 -0.2502 0.2502
vn -0.6901 -0.6901 0.2178
vn -0.5773 -0.5773 0.5774
vn -0.2502 0.2502 -0.9353
vn -0.6901 0.2178 -0.6901
vn -0.9353 0.2502 -0.2502
vn -0.6901 0.6901 -0.2178
vn -0.2502 0.9353 -0.2502
vn -0.2178 0.6901 -0.6902
vn -0.5773 0.5773 -0.5774
vn -0.2502 0.2502 0.9353
vn -0.2178 0.6901 0.6901
vn -0.2502 0.9353 0.2502
vn -0.6902 0.6901 0.2178
vn -0.9353 0.2502 0.2502
vn -0.6901 0.2178 0.6901
vn -0.5773 0.5773 0.5774
vn 0.2502 -0.2502 -0.9353
vn 0.6901 -0.2178 -0.6901
vn 0.9353 -0.2502 -0.2502
vn 0.6901 -0.6901 -0.2178
vn 0.2502 -0.9353 -0.2502
vn 0.2178 -0.6901 -0.6902
vn 0.5773 -0.5773 -0.5774
vn 0.2502 -0.2502 0.9353
vn 0.2178 -0.6901 0.6901
vn 0.2502 -0.9353 0.2502
vn 0.6902 -0.6901 0.2178
vn 0.9353 -0.2502 0.2502
vn 0.6901 -0.2178 0.6901
vn 0.5773 -0.5773 0.5774
vn 0.2502 0.2502 -0.9353
vn 0.2178 0.6902 -0.6901
vn 0.2502 0.9353 -0.2502
vn 0.6902 0.6901 -0.2178
vn 0.9353 0.2502 -0.2502
vn 0.6901 0.2178 -0.6901
vn 0.5773 0.5773 -0.5774
vn 0.2502 0.2502 0.9353
vn 0.6901 0.2178 0.6901
vn 0.9353 0.2502 0.2502
vn 0.6901 0.6901 0.2178
vn 0.2502 0.9353 0.2502
vn 0.2178 0.6901 0.6902
vn 0.5773 0.5773 0.5774
vn -0.2585 -0.0000 -0.9660
vn -0.7071 -0.0000 -0.7071
vn -0.9660 -0.0000 -0.2585
vn -0.2584 -0.9660 -0.0000
vn -0.7071 -0.7071 -0.0000
vn -0.9660 -0.2584 -0.0000
vn -0.2585 -0.0000 0.9660
vn -0.7071 -0.0000 0.7071
vn -0.9660 -0.0000 0.2585
vn -0.2584 0.9660 -0.0000
vn -0.7071 0.7071 -0.0000
vn -0.9660 0.2585 -0.0000
vn -0.0000 0.2585 -0.9660
vn -0.0000 0.7071 -0.7071
vn -0.0000 0.9660 -0.2585
vn -0.0000 0.2585 0.9660
vn -0.0000 0.7071 0.7071
vn -0.0000 0.9660 0.2585
vn 0.9660 0.2585 -0.0000
vn 0.7071 0.7071 -0.0000
vn 0.2584 0.9660 -0.0000
vn 0.2585 -0.0000 -0.9660
vn 0.7071 -0.0000 -0.7071
vn 0.9660 -0.0000 -0.2585
vn 0.2585 -0.0000 0.9660
vn 0.7071 -0.0000 0.7071
vn 0.9660 -0.0000 0.2585
vn 0.2584 -0.9660 -0.0000
vn 0.7071 -0.7071 -0.0000
vn 0.9660 -0.2585 -0.0000
vn -0.0000 -0.2585 -0.9660
vn -0.0000 -0.7071 -0.7071
vn -0.0000 -0.9660 -0.2585
vn -0.0000 -0.2585 0.9660
vn -0.0000 -0.7071 0.7071
vn -0.0000 -0.9660 0.2585
vn -0.0000 -0.0000 -1.0000
vn -1.0000 -0.0000 -0.0000
vn -0.0000 -1.0000 -0.0000
vn -0.0000 -0.0000 1.0000
vn -0.0000 1.0000 -0.0000
vn 1.0000 -0.0000 -0.0000
vn -0.2635 -0.2635 -0.9280
vn -0.2178 -0.6901 -0.6902
vn -0.2635 -0.9280 -0.2635
vn -0.6901 -0.6901 -0.2178
vn -0.9280 -0.2635 -0.2635
vn -0.2635 -0.9280 0.2634
vn -0.2178 -0.6901 0.6901
vn -0.2635 -0.2635 0.9280
vn -0.9280 -0.2635 0.2635
vn -0.6902 -0.6901 0.2178
vn -0.2635 0.2635 -0.9280
vn -0.9280 0.2635 -0.2635
vn -0.6902 0.6901 -0.2178
vn -0.2635 0.9280 -0.2635
vn -0.2178 0.6902 -0.6901
vn -0.2635 0.2635 0.9280
vn -0.2178 0.6901 0.6902
vn -0.2635 0.9280 0.2635
vn -0.6901 0.6901 0.2178
vn -0.9280 0.2635 0.2635
vn 0.2635 -0.2635 -0.9280
vn 0.9280 -0.2635 -0.2635
vn 0.6902 -0.6901 -0.2178
vn 0.2635 -0.9280 -0.2635
vn 0.2178 -0.6902 -0.6901
vn 0.2635 -0.2635 0.9280
vn 0.2178 -0.6901 0.6902
vn 0.2635 -0.9280 0.2635
vn 0.6901 -0.6901 0.2178
vn 0.9280 -0.2635 0.2635
vn 0.2635 0.2635 -0.9280
vn 0.2178 0.6901 -0.6902
vn 0.2635 0.9280 -0.2635
vn 0.6901 0.6901 -0.2178
vn 0.9280 0.2635 -0.2635
vn 0.2635 0.2635 0.9280
vn 0.9280 0.2635 0.2635
vn 0.6902 0.6901 0.2178
vn 0.2635 0.9280 0.2634
vn 0.2178 0.6901 0.6901
vn -0.9660 -0.2585 -0.0000
vn 0.9660 0.2584 -0.0000
vt -0.012500 -1.615613
vt -0.021863 -1.606250
vt -0.012500 -1.606250
vt -0.021466 -1.620062
vt -0.021466 -1.615216
vt -0.021863 0.300000
vt -0.012500 0.290637
vt -0.012500 0.300000
vt -1.622495 0.300000
vt -1.615216 0.291034
vt -1.620062 0.291034
vt -1.606250 0.290637
vt -1.615613 0.300000
vt -1.606250 0.300000
vt -0.026312 -1.615216
vt -0.028745 -1.606250
vt -0.012500 0.709363
vt -0.021863 0.700000
vt -0.012500 0.700000
vt -0.012500 -1.622495
vt -1.615613 0.700000
vt -1.606250 0.709363
vt -1.606250 0.700000
vt -1.622495 0.700000
vt -1.615216 0.708966
vt -0.021863 2.606250
vt -0.012500 2.615613
vt -0.012500 2.606250
vt -0.026312 2.615216
vt -0.021466 2.615216
vt 2.615613 0.300000
vt 2.606250 0.290637
vt 2.606250 0.300000
vt 2.622495 0.300000
vt 2.615216 0.291034
vt -0.012500 2.622495
vt -0.021466 2.620062
vt 2.622495 0.700000
vt 2.615216 0.708966
vt 2.620062 0.708966
vt 2.606250 0.709363
vt 2.615613 0.700000
vt 2.606250 0.700000
vt -0.028745 2.606250
vt 1.021863 -1.606250
vt 1.012500 -1.615613
vt 1.012500 -1.606250
vt 1.026312 -1.615216
vt 1.021466 -1.615216
vt 1.012500 0.290637
vt 1.021863 0.300000
vt 1.012500 0.300000
vt 1.012500 -1.622495
vt 1.021466 -1.620062
vt 1.021863 0.700000
vt 1.012500 0.709363
vt 1.012500 0.700000
vt -1.620062 0.708966
vt 1.028745 -1.606250
vt 1.012500 2.615613
vt 1.021863 2.606250
vt 1.012500 2.606250
vt 1.021466 2.620062
vt 1.021466 2.615216
vt 2.620062 0.291034
vt 1.026312 2.615216
vt 1.028745 2.606250
vt 1.012500 2.622495
vt -0.021466 0.291034
vt -0.021466 0.708966
vt 1.021466 0.291034
vt 1.021466 0.708966
s 0
usemtl ARAT_light_maple
f 4/1/1 5/2/1 1/3/1
f 4/1/2 9/4/2 6/5/2
f 7/6/3 8/7/3 2/8/3
f 7/9/4 12/10/4 9/11/4
f 10/12/5 11/13/5 3/14/5
f 5/2/6 12/15/6 10/16/6
f 6/5/7 9/4/7 12/15/7
f 16/17/8 17/18/8 13/19/8
f 16/20/9 21/5/9 18/4/9
f 19/2/10 20/1/10 14/3/10
f 23/16/11 21/5/11 19/2/11
f 22/21/12 23/22/12 15/23/12
f 17/24/13 24/25/13 22/21/13
f 18/4/14 21/5/14 24/15/14
f 28/26/15 29/27/15 25/28/15
f 28/26/16 33/29/16 30/30/16
f 31/31/17 32/32/17 26/33/17
f 35/34/18 33/35/18 31/31/18
f 34/7/19 35/6/19 27/8/19
f 34/36/20 30/30/20 36/37/20
f 30/30/21 33/29/21 36/37/21
f 40/27/22 41/26/22 37/28/22
f 44/36/23 42/30/23 40/27/23
f 43/18/24 44/17/24 38/19/24
f 43/38/25 48/39/25 45/40/25
f 46/41/26 47/42/26 39/43/26
f 46/44/27 42/30/27 48/29/27
f 42/30/28 45/37/28 48/29/28
f 52/45/29 53/46/29 49/47/29
f 52/45/30 57/48/30 54/49/30
f 55/13/31 56/12/31 50/14/31
f 59/9/32 57/10/32 55/13/32
f 58/50/33 59/51/33 51/52/33
f 58/53/34 54/49/34 60/54/34
f 54/49/35 57/48/35 60/54/35
f 64/46/36 65/45/36 61/47/36
f 68/53/37 66/49/37 64/46/37
f 67/55/38 68/56/38 62/57/38
f 67/24/39 72/25/39 69/58/39
f 70/22/40 71/21/40 63/23/40
f 70/59/41 66/49/41 72/48/41
f 66/49/42 69/54/42 72/48/42
f 76/60/43 77/61/43 73/62/43
f 76/60/44 81/63/44 78/64/44
f 79/51/45 80/50/45 74/52/45
f 79/34/46 84/35/46 81/65/46
f 82/32/47 83/31/47 75/33/47
f 77/61/48 84/66/48 82/67/48
f 78/64/49 81/63/49 84/66/49
f 88/61/50 89/60/50 85/62/50
f 92/67/51 90/64/51 88/61/51
f 91/42/52 92/41/52 86/43/52
f 95/38/53 93/39/53 91/42/53
f 94/56/54 95/55/54 87/57/54
f 94/68/55 90/64/55 96/63/55
f 90/64/56 93/66/56 96/63/56
f 1/3/57 28/26/57 25/28/57
f 5/2/58 32/44/58 28/26/58
f 10/12/59 26/33/59 32/32/59
f 2/8/60 17/18/60 7/6/60
f 17/24/61 11/13/61 7/9/61
f 22/21/62 3/14/62 11/13/62
f 37/28/63 19/2/63 14/3/63
f 41/26/64 23/16/64 19/2/64
f 46/41/65 15/23/65 23/22/65
f 27/8/66 43/18/66 38/19/66
f 35/34/67 47/42/67 43/38/67
f 31/31/68 39/43/68 47/42/68
f 25/28/69 76/60/69 73/62/69
f 29/27/70 80/68/70 76/60/70
f 34/7/71 74/52/71 80/50/71
f 85/62/72 40/27/72 37/28/72
f 89/60/73 44/36/73 40/27/73
f 94/56/74 38/19/74 44/17/74
f 75/33/75 91/42/75 86/43/75
f 83/31/76 95/38/76 91/42/76
f 95/55/77 74/52/77 87/57/77
f 73/62/78 52/45/78 49/47/78
f 77/61/79 56/59/79 52/45/79
f 82/32/80 50/14/80 56/12/80
f 61/47/81 88/61/81 85/62/81
f 65/45/82 92/67/82 88/61/82
f 70/22/83 86/43/83 92/41/83
f 51/52/84 67/55/84 62/57/84
f 59/9/85 71/21/85 67/24/85
f 55/13/86 63/23/86 71/21/86
f 49/47/87 4/1/87 1/3/87
f 53/46/88 8/20/88 4/1/88
f 58/50/89 2/8/89 8/7/89
f 14/3/90 64/46/90 61/47/90
f 20/1/91 68/53/91 64/46/91
f 16/17/92 62/57/92 68/56/92
f 73/62/93 1/3/93 25/28/93
f 15/23/94 26/33/94 3/14/94
f 62/57/95 2/8/95 51/52/95
f 37/28/96 61/47/96 85/62/96
f 38/19/97 74/52/97 27/8/97
f 86/43/98 50/14/98 75/33/98
f 4/1/99 6/5/99 5/2/99
f 4/1/100 8/20/100 9/4/100
f 7/6/101 9/69/101 8/7/101
f 7/9/102 11/13/102 12/10/102
f 10/12/103 12/10/103 11/13/103
f 5/2/6 6/5/6 12/15/6
f 16/17/104 18/70/104 17/18/104
f 16/20/105 20/1/105 21/5/105
f 19/2/106 21/5/106 20/1/106
f 23/16/11 24/15/11 21/5/11
f 22/21/107 24/25/107 23/22/107
f 17/24/108 18/58/108 24/25/108
f 28/26/109 30/30/109 29/27/109
f 28/26/16 32/44/16 33/29/16
f 31/31/110 33/35/110 32/32/110
f 35/34/111 36/65/111 33/35/111
f 34/7/112 36/69/112 35/6/112
f 34/36/113 29/27/113 30/30/113
f 40/27/114 42/30/114 41/26/114
f 44/36/115 45/37/115 42/30/115
f 43/18/116 45/70/116 44/17/116
f 43/38/117 47/42/117 48/39/117
f 46/41/118 48/39/118 47/42/118
f 46/44/27 41/26/27 42/30/27
f 52/45/119 54/49/119 53/46/119
f 52/45/30 56/59/30 57/48/30
f 55/13/120 57/10/120 56/12/120
f 59/9/121 60/11/121 57/10/121
f 58/50/122 60/71/122 59/51/122
f 58/53/123 53/46/123 54/49/123
f 64/46/124 66/49/124 65/45/124
f 68/53/125 69/54/125 66/49/125
f 67/55/126 69/72/126 68/56/126
f 67/24/127 71/21/127 72/25/127
f 70/22/128 72/25/128 71/21/128
f 70/59/41 65/45/41 66/49/41
f 76/60/129 78/64/129 77/61/129
f 76/60/130 80/68/130 81/63/130
f 79/51/131 81/71/131 80/50/131
f 79/34/132 83/31/132 84/35/132
f 82/32/133 84/35/133 83/31/133
f 77/61/48 78/64/48 84/66/48
f 88/61/134 90/64/134 89/60/134
f 92/67/51 93/66/51 90/64/51
f 91/42/135 93/39/135 92/41/135
f 95/38/136 96/40/136 93/39/136
f 94/56/137 96/72/137 95/55/137
f 94/68/138 89/60/138 90/64/138
f 1/3/57 5/2/57 28/26/57
f 5/2/58 10/16/58 32/44/58
f 10/12/59 3/14/59 26/33/59
f 2/8/60 13/19/60 17/18/60
f 17/24/61 22/21/61 11/13/61
f 22/21/139 15/23/139 3/14/139
f 37/28/63 41/26/63 19/2/63
f 41/26/64 46/44/64 23/16/64
f 46/41/65 39/43/65 15/23/65
f 27/8/66 35/6/66 43/18/66
f 35/34/67 31/31/67 47/42/67
f 31/31/68 26/33/68 39/43/68
f 25/28/69 29/27/69 76/60/69
f 29/27/70 34/36/70 80/68/70
f 34/7/71 27/8/71 74/52/71
f 85/62/72 89/60/72 40/27/72
f 89/60/73 94/68/73 44/36/73
f 94/56/74 87/57/74 38/19/74
f 75/33/140 83/31/140 91/42/140
f 83/31/76 79/34/76 95/38/76
f 95/55/77 79/51/77 74/52/77
f 73/62/78 77/61/78 52/45/78
f 77/61/79 82/67/79 56/59/79
f 82/32/80 75/33/80 50/14/80
f 61/47/81 65/45/81 88/61/81
f 65/45/82 70/59/82 92/67/82
f 70/22/83 63/23/83 86/43/83
f 51/52/84 59/51/84 67/55/84
f 59/9/85 55/13/85 71/21/85
f 55/13/86 50/14/86 63/23/86
f 49/47/87 53/46/87 4/1/87
f 53/46/88 58/53/88 8/20/88
f 58/50/89 51/52/89 2/8/89
f 14/3/90 20/1/90 64/46/90
f 20/1/91 16/20/91 68/53/91
f 16/17/92 13/19/92 62/57/92
f 73/62/93 49/47/93 1/3/93
f 15/23/94 39/43/94 26/33/94
f 62/57/95 13/19/95 2/8/95
f 37/28/96 14/3/96 61/47/96
f 38/19/97 87/57/97 74/52/97
f 86/43/98 63/23/98 50/14/98
