# Blender 4.5.11 LTS
# www.blender.org
mtllib visual.mtl
o tin_lid.001
v 0.045000 0.000000 0.000000
v 0.044783 0.004411 0.000000
v 0.044135 0.008779 0.000000
v 0.043062 0.013063 0.000000
v 0.041575 0.017221 0.000000
v 0.039686 0.021213 0.000000
v 0.037416 0.025001 0.000000
v 0.034785 0.028548 0.000000
v 0.031820 0.031820 0.000000
v 0.028548 0.034785 0.000000
v 0.025001 0.037416 0.000000
v 0.021213 0.039686 0.000000
v 0.017221 0.041575 0.000000
v 0.013063 0.043062 0.000000
v 0.008779 0.044135 0.000000
v 0.004411 0.044783 0.000000
v 0.000000 0.045000 0.000000
v -0.004411 0.044783 0.000000
v -0.008779 0.044135 0.000000
v -0.013063 0.043062 0.000000
v -0.017221 0.041575 0.000000
v -0.021213 0.039686 0.000000
v -0.025001 0.037416 0.000000
v -0.028548 0.034785 0.000000
v -0.031820 0.031820 0.000000
v -0.034785 0.028548 0.000000
v -0.037416 0.025001 0.000000
v -0.039686 0.021213 0.000000
v -0.041575 0.017221 0.000000
v -0.043062 0.013063 0.000000
v -0.044135 0.008779 0.000000
v -0.044783 0.004411 0.000000
v -0.045000 0.000000 0.000000
v -0.044783 -0.004411 0.000000
v -0.044135 -0.008779 0.000000
v -0.043062 -0.013063 0.000000
v -0.041575 -0.017221 0.000000
v -0.039686 -0.021213 0.000000
v -0.037416 -0.025001 0.000000
v -0.034785 -0.028548 0.000000
v -0.031820 -0.031820 0.000000
v -0.028548 -0.034785 0.000000
v -0.025001 -0.037416 0.000000
v -0.021213 -0.039686 0.000000
v -0.017221 -0.041575 0.000000
v -0.013063 -0.043062 0.000000
v -0.008779 -0.044135 0.000000
v -0.004411 -0.044783 0.000000
v -0.000000 -0.045000 0.000000
v 0.004411 -0.044783 0.000000
v 0.008779 -0.044135 0.000000
v 0.013063 -0.043062 0.000000
v 0.017221 -0.041575 0.000000
v 0.021213 -0.039686 0.000000
v 0.025001 -0.037416 0.000000
v 0.028548 -0.034785 0.000000
v 0.031820 -0.031820 0.000000
v 0.034785 -0.028548 0.000000
v 0.037416 -0.025001 0.000000
v 0.039686 -0.021213 0.000000
v 0.041575 -0.017221 0.000000
v 0.043062 -0.013063 0.000000
v 0.044135 -0.008779 0.000000
v 0.044783 -0.004411 0.000000
v 0.045000 0.000000 0.010000
v 0.044783 0.004411 0.010000
v 0.044135 0.008779 0.010000
v 0.043062 0.013063 0.010000
v 0.041575 0.017221 0.010000
v 0.039686 0.021213 0.010000
v 0.037416 0.025001 0.010000
v 0.034785 0.028548 0.010000
v 0.031820 0.031820 0.010000
v 0.028548 0.034785 0.010000
v 0.025001 0.037416 0.010000
v 0.021213 0.039686 0.010000
v 0.017221 0.041575 0.010000
v 0.013063 0.043062 0.010000
v 0.008779 0.044135 0.010000
v 0.004411 0.044783 0.010000
v 0.000000 0.045000 0.010000
v -0.004411 0.044783 0.010000
v -0.008779 0.044135 0.010000
v -0.013063 0.043062 0.010000
v -0.017221 0.041575 0.010000
v -0.021213 0.039686 0.010000
v -0.025001 0.037416 0.010000
v -0.028548 0.034785 0.010000
v -0.031820 0.031820 0.010000
v -0.034785 0.028548 0.010000
v -0.037416 0.025001 0.010000
v -0.039686 0.021213 0.010000
v -0.041575 0.017221 0.010000
v -0.043062 0.013063 0.010000
v -0.044135 0.008779 0.010000
v -0.044783 0.004411 0.010000
v -0.045000 0.000000 0.010000
v -0.044783 -0.004411 0.010000
v -0.044135 -0.008779 0.010000
v -0.043062 -0.013063 0.010000
v -0.041575 -0.017221 0.010000
v -0.039686 -0.021213 0.010000
v -0.037416 -0.025001 0.010000
v -0.034785 -0.028548 0.010000
v -0.031820 -0.031820 0.010000
v -0.028548 -0.034785 0.010000
v -0.025001 -0.037416 0.010000
v -0.021213 -0.039686 0.010000
v -0.017221 -0.041575 0.010000
v -0.013063 -0.043062 0.010000
v -0.008779 -0.044135 0.010000
v -0.004411 -0.044783 0.010000
v -0.000000 -0.045000 0.010000
v 0.004411 -0.044783 0.010000
v 0.008779 -0.044135 0.010000
v 0.013063 -0.043062 0.010000
v 0.017221 -0.041575 0.010000
v 0.021213 -0.039686 0.010000
v 0.025001 -0.037416 0.010000
v 0.028548 -0.034785 0.010000
v 0.031820 -0.031820 0.010000
v 0.034785 -0.028548 0.010000
v 0.037416 -0.025001 0.010000
v 0.039686 -0.021213 0.010000
v 0.041575 -0.017221 0.010000
v 0.043062 -0.013063 0.010000
v 0.044135 -0.008779 0.010000
v 0.044783 -0.004411 0.010000
v 0.044200 0.000000 0.010000
v 0.043987 0.004332 0.010000
v 0.043351 0.008623 0.010000
v 0.042297 0.012831 0.010000
v 0.040835 0.016915 0.010000
v 0.038981 0.020836 0.010000
v 0.036751 0.024556 0.010000
v 0.034167 0.028040 0.010000
v 0.031254 0.031254 0.010000
v 0.028040 0.034167 0.010000
v 0.024556 0.036751 0.010000
v 0.020836 0.038981 0.010000
v 0.016915 0.040835 0.010000
v 0.012831 0.042297 0.010000
v 0.008623 0.043351 0.010000
v 0.004332 0.043987 0.010000
v 0.000000 0.044200 0.010000
v -0.004332 0.043987 0.010000
v -0.008623 0.043351 0.010000
v -0.012831 0.042297 0.010000
v -0.016915 0.040835 0.010000
v -0.020836 0.038981 0.010000
v -0.024556 0.036751 0.010000
v -0.028040 0.034167 0.010000
v -0.031254 0.031254 0.010000
v -0.034167 0.028040 0.010000
v -0.036751 0.024556 0.010000
v -0.038981 0.020836 0.010000
v -0.040835 0.016915 0.010000
v -0.042297 0.012831 0.010000
v -0.043351 0.008623 0.010000
v -0.043987 0.004332 0.010000
v -0.044200 0.000000 0.010000
v -0.043987 -0.004332 0.010000
v -0.043351 -0.008623 0.010000
v -0.042297 -0.012831 0.010000
v -0.040835 -0.016915 0.010000
v -0.038981 -0.020836 0.010000
v -0.036751 -0.024556 0.010000
v -0.034167 -0.028040 0.010000
v -0.031254 -0.031254 0.010000
v -0.028040 -0.034167 0.010000
v -0.024556 -0.036751 0.010000
v -0.020836 -0.038981 0.010000
v -0.016915 -0.040835 0.010000
v -0.012831 -0.042297 0.010000
v -0.008623 -0.043351 0.010000
v -0.004332 -0.043987 0.010000
v -0.000000 -0.044200 0.010000
v 0.004332 -0.043987 0.010000
v 0.008623 -0.043351 0.010000
v 0.012831 -0.042297 0.010000
v 0.016915 -0.040835 0.010000
v 0.020836 -0.038981 0.010000
v 0.024556 -0.036751 0.010000
v 0.028040 -0.034167 0.010000
v 0.031254 -0.031254 0.010000
v 0.034167 -0.028040 0.010000
v 0.036751 -0.024556 0.010000
v 0.038981 -0.020836 0.010000
v 0.040835 -0.016915 0.010000
v 0.042297 -0.012831 0.010000
v 0.043351 -0.008623 0.010000
v 0.043987 -0.004332 0.010000
v 0.044200 0.000000 0.000800
v 0.043987 0.004332 0.000800
v 0.043351 0.008623 0.000800
v 0.042297 0.012831 0.000800
v 0.040835 0.016915 0.000800
v 0.038981 0.020836 0.000800
v 0.036751 0.024556 0.000800
v 0.034167 0.028040 0.000800
v 0.031254 0.031254 0.000800
v 0.028040 0.034167 0.000800
v 0.024556 0.036751 0.000800
v 0.020836 0.038981 0.000800
v 0.016915 0.040835 0.000800
v 0.012831 0.042297 0.000800
v 0.008623 0.043351 0.000800
v 0.004332 0.043987 0.000800
v 0.000000 0.044200 0.000800
v -0.004332 0.043987 0.000800
v -0.008623 0.043351 0.000800
v -0.012831 0.042297 0.000800
v -0.016915 0.040835 0.000800
v -0.020836 0.038981 0.000800
v -0.024556 0.036751 0.000800
v -0.028040 0.034167 0.000800
v -0.031254 0.031254 0.000800
v -0.034167 0.028040 0.000800
v -0.036751 0.024556 0.000800
v -0.038981 0.020836 0.000800
v -0.040835 0.016915 0.000800
v -0.042297 0.012831 0.000800
v -0.043351 0.008623 0.000800
v -0.043987 0.004332 0.000800
v -0.044200 0.000000 0.000800
v -0.043987 -0.004332 0.000800
v -0.043351 -0.008623 0.000800
v -0.042297 -0.012831 0.000800
v -0.040835 -0.016915 0.000800
v -0.038981 -0.020836 0.000800
v -0.036751 -0.024556 0.000800
v -0.034167 -0.028040 0.000800
v -0.031254 -0.031254 0.000800
v -0.028040 -0.034167 0.000800
v -0.024556 -0.036751 0.000800
v -0.020836 -0.038981 0.000800
v -0.016915 -0.040835 0.000800
v -0.012831 -0.042297 0.000800
v -0.008623 -0.043351 0.000800
v -0.004332 -0.043987 0.000800
v -0.000000 -0.044200 0.000800
v 0.004332 -0.043987 0.000800
v 0.008623 -0.043351 0.000800
v 0.012831 -0.042297 0.000800
v 0.016915 -0.040835 0.000800
v 0.020836 -0.038981 0.000800
v 0.024556 -0.036751 0.000800
v 0.028040 -0.034167 0.000800
v 0.031254 -0.031254 0.000800
v 0.034167 -0.028040 0.000800
v 0.036751 -0.024556 0.000800
v 0.038981 -0.020836 0.000800
v 0.040835 -0.016915 0.000800
v 0.042297 -0.012831 0.000800
v 0.043351 -0.008623 0.000800
v 0.043987 -0.004332 0.000800
v 0.000000 0.000000 0.000000
v 0.000000 0.000000 0.000800
vn 0.9988 0.0491 -0.0000
vn -0.0000 -0.0000 1.0000
vn -0.0000 -0.0000 -1.0000
vn 0.9892 0.1467 -0.0000
vn 0.9700 0.2430 -0.0000
vn 0.9415 0.3369 -0.0000
vn 0.9040 0.4276 -0.0000
vn 0.8577 0.5141 -0.0000
vn 0.8032 0.5957 -0.0000
vn 0.7410 0.6716 -0.0000
vn 0.6716 0.7410 -0.0000
vn 0.5957 0.8032 -0.0000
vn 0.5141 0.8577 -0.0000
vn 0.4276 0.9040 -0.0000
vn 0.3369 0.9415 -0.0000
vn 0.2430 0.9700 -0.0000
vn 0.1467 0.9892 -0.0000
vn 0.0491 0.9988 -0.0000
vn -0.0491 0.9988 -0.0000
vn -0.1467 0.9892 -0.0000
vn -0.2430 0.9700 -0.0000
vn -0.3369 0.9415 -0.0000
vn -0.4276 0.9040 -0.0000
vn -0.5141 0.8577 -0.0000
vn -0.5957 0.8032 -0.0000
vn -0.6716 0.7410 -0.0000
vn -0.7410 0.6716 -0.0000
vn -0.8032 0.5957 -0.0000
vn -0.8577 0.5141 -0.0000
vn -0.9040 0.4276 -0.0000
vn -0.9415 0.3369 -0.0000
vn -0.9700 0.2430 -0.0000
vn -0.9892 0.1467 -0.0000
vn -0.9988 0.0491 -0.0000
vn -0.9988 -0.0491 -0.0000
vn -0.9892 -0.1467 -0.0000
vn -0.9700 -0.2430 -0.0000
vn -0.9415 -0.3369 -0.0000
vn -0.9040 -0.4276 -0.0000
vn -0.8577 -0.5141 -0.0000
vn -0.8032 -0.5957 -0.0000
vn -0.7410 -0.6716 -0.0000
vn -0.6716 -0.7410 -0.0000
vn -0.5957 -0.8032 -0.0000
vn -0.5141 -0.8577 -0.0000
vn -0.4276 -0.9040 -0.0000
vn -0.3369 -0.9415 -0.0000
vn -0.2430 -0.9700 -0.0000
vn -0.1467 -0.9892 -0.0000
vn -0.0491 -0.9988 -0.0000
vn 0.0491 -0.9988 -0.0000
vn 0.1467 -0.9892 -0.0000
vn 0.2430 -0.9700 -0.0000
vn 0.3369 -0.9415 -0.0000
vn 0.4276 -0.9040 -0.0000
vn 0.5141 -0.8577 -0.0000
vn 0.5957 -0.8032 -0.0000
vn 0.6716 -0.7410 -0.0000
vn 0.7410 -0.6716 -0.0000
vn 0.8032 -0.5957 -0.0000
vn 0.8577 -0.5141 -0.0000
vn 0.9040 -0.4276 -0.0000
vn 0.9415 -0.3369 -0.0000
vn 0.9700 -0.2430 -0.0000
vn 0.9892 -0.1467 -0.0000
vn 0.9988 -0.0491 -0.0000
vt 0.684337 0.844126
vt 0.629835 0.822899
vt 0.684337 0.822899
vt 0.332625 0.480920
vt 0.308533 0.483678
vt 0.331156 0.476815
vt 0.694414 0.817094
vt 0.744555 0.837943
vt 0.694414 0.837943
vt 0.145139 0.528290
vt 0.167375 0.519080
vt 0.250000 0.750000
vt 0.780992 0.483935
vt 0.757465 0.486252
vt 0.745645 0.245645
vt 0.933931 0.516341
vt 0.879429 0.496329
vt 0.933931 0.496329
vt 0.285987 0.492602
vt 0.309593 0.487907
vt 0.944007 0.496329
vt 0.994149 0.515985
vt 0.944007 0.515985
vt 0.123913 0.539636
vt 0.733825 0.486252
vt 0.933931 0.537567
vt 0.879429 0.516341
vt 0.261820 0.490607
vt 0.285347 0.488290
vt 0.994149 0.536834
vt 0.944007 0.536834
vt 0.103901 0.553008
vt 0.710298 0.483935
vt 0.933931 0.559803
vt 0.879429 0.537567
vt 0.237966 0.494962
vt 0.262034 0.494962
vt 0.994149 0.558675
vt 0.944007 0.558675
vt 0.085296 0.568277
vt 0.687112 0.479323
vt 0.933931 0.582835
vt 0.879429 0.559803
vt 0.214013 0.492602
vt 0.238180 0.490607
vt 0.994149 0.581298
vt 0.944007 0.581298
vt 0.068277 0.585295
vt 0.664490 0.472460
vt 0.933931 0.606441
vt 0.879429 0.582835
vt 0.191467 0.483677
vt 0.214653 0.488290
vt 0.994149 0.604484
vt 0.944007 0.604484
vt 0.053008 0.603901
vt 0.642649 0.463413
vt 0.933931 0.630394
vt 0.879429 0.606441
vt 0.167375 0.480920
vt 0.190407 0.487907
vt 0.994149 0.628011
vt 0.944007 0.628011
vt 0.039636 0.623913
vt 0.621799 0.452269
vt 0.933931 0.654462
vt 0.879429 0.630394
vt 0.145139 0.471710
vt 0.168844 0.476815
vt 0.994149 0.651651
vt 0.944007 0.651651
vt 0.028290 0.645139
vt 0.602143 0.439135
vt 0.933931 0.678415
vt 0.879429 0.654462
vt 0.126154 0.456624
vt 0.147003 0.467768
vt 0.994149 0.675178
vt 0.944007 0.675178
vt 0.019080 0.667375
vt 0.583869 0.424138
vt 0.933931 0.702021
vt 0.879429 0.678415
vt 0.103901 0.446992
vt 0.123913 0.460364
vt 0.994149 0.698364
vt 0.944007 0.698364
vt 0.012093 0.690407
vt 0.567152 0.407422
vt 0.933931 0.725053
vt 0.879429 0.702021
vt 0.085295 0.431723
vt 0.106498 0.443490
vt 0.994149 0.720986
vt 0.944007 0.720986
vt 0.007398 0.714013
vt 0.552155 0.389147
vt 0.933931 0.747289
vt 0.879429 0.725053
vt 0.068277 0.414705
vt 0.088224 0.428493
vt 0.994149 0.742827
vt 0.944007 0.742827
vt 0.005038 0.737966
vt 0.539021 0.369491
vt 0.933931 0.768515
vt 0.879429 0.747289
vt 0.056510 0.393502
vt 0.071507 0.411776
vt 0.994149 0.763676
vt 0.944007 0.763676
vt 0.005038 0.762034
vt 0.527877 0.348642
vt 0.933931 0.788527
vt 0.879429 0.768515
vt 0.039636 0.376087
vt 0.053008 0.396099
vt 0.994149 0.783333
vt 0.944007 0.783333
vt 0.007398 0.785987
vt 0.518830 0.326801
vt 0.809134 0.516341
vt 0.754632 0.496329
vt 0.809134 0.496329
vt 0.032232 0.352997
vt 0.043376 0.373846
vt 0.819211 0.496329
vt 0.869352 0.515985
vt 0.819211 0.515985
vt 0.012093 0.809593
vt 0.511968 0.304178
vt 0.809134 0.537567
vt 0.754632 0.516341
vt 0.019080 0.332625
vt 0.028290 0.354861
vt 0.869352 0.536834
vt 0.819211 0.536834
vt 0.019080 0.832625
vt 0.507356 0.280992
vt 0.809134 0.559803
vt 0.754632 0.537567
vt 0.016323 0.308533
vt 0.023185 0.331156
vt 0.869352 0.558675
vt 0.819211 0.558675
vt 0.028290 0.854861
vt 0.505038 0.257466
vt 0.809134 0.582835
vt 0.754632 0.559803
vt 0.007398 0.285987
vt 0.012093 0.309593
vt 0.869352 0.581298
vt 0.819211 0.581298
vt 0.039636 0.876087
vt 0.505038 0.233825
vt 0.809134 0.606441
vt 0.754632 0.582835
vt 0.009393 0.261820
vt 0.011711 0.285347
vt 0.869352 0.604484
vt 0.819211 0.604484
vt 0.053008 0.896099
vt 0.507356 0.210298
vt 0.809134 0.630394
vt 0.754632 0.606441
vt 0.005038 0.237966
vt 0.005038 0.262034
vt 0.869352 0.628010
vt 0.819211 0.628010
vt 0.068277 0.914705
vt 0.511968 0.187112
vt 0.809134 0.654462
vt 0.754632 0.630394
vt 0.007398 0.214013
vt 0.009393 0.238180
vt 0.869352 0.651651
vt 0.819211 0.651651
vt 0.085295 0.931723
vt 0.518830 0.164490
vt 0.809134 0.678415
vt 0.754632 0.654462
vt 0.016323 0.191467
vt 0.011711 0.214653
vt 0.869352 0.675178
vt 0.819211 0.675178
vt 0.103901 0.946992
vt 0.527877 0.142649
vt 0.809134 0.702021
vt 0.754632 0.678415
vt 0.019080 0.167375
vt 0.012093 0.190407
vt 0.869352 0.698364
vt 0.819211 0.698364
vt 0.123913 0.960364
vt 0.539021 0.121800
vt 0.809134 0.725053
vt 0.754632 0.702021
vt 0.028290 0.145139
vt 0.023185 0.168844
vt 0.869352 0.720986
vt 0.819211 0.720986
vt 0.145139 0.971710
vt 0.552155 0.102143
vt 0.809134 0.747289
vt 0.754632 0.725053
vt 0.043376 0.126154
vt 0.032232 0.147003
vt 0.869352 0.742827
vt 0.819211 0.742827
vt 0.167375 0.980920
vt 0.567152 0.083869
vt 0.809134 0.768515
vt 0.754632 0.747289
vt 0.053008 0.103901
vt 0.039636 0.123913
vt 0.869352 0.763676
vt 0.819211 0.763676
vt 0.190407 0.987907
vt 0.583868 0.067152
vt 0.809134 0.788527
vt 0.754632 0.768515
vt 0.068277 0.085295
vt 0.056510 0.106498
vt 0.869352 0.783333
vt 0.819211 0.783333
vt 0.214013 0.992602
vt 0.602143 0.052155
vt 0.809134 0.807133
vt 0.754632 0.788527
vt 0.085296 0.068277
vt 0.071507 0.088224
vt 0.869352 0.801607
vt 0.819211 0.801607
vt 0.237966 0.994962
vt 0.621799 0.039021
vt 0.559540 0.513348
vt 0.505038 0.496329
vt 0.559540 0.496329
vt 0.106498 0.056510
vt 0.088224 0.071507
vt 0.869352 0.818323
vt 0.819211 0.818323
vt 0.262034 0.994962
vt 0.642648 0.027877
vt 0.559540 0.531953
vt 0.505038 0.513348
vt 0.123913 0.039636
vt 0.103901 0.053008
vt 0.569617 0.496329
vt 0.619758 0.514603
vt 0.569617 0.514603
vt 0.285987 0.992602
vt 0.664489 0.018830
vt 0.559540 0.551965
vt 0.505038 0.531953
vt 0.147003 0.032232
vt 0.126154 0.043376
vt 0.619758 0.534259
vt 0.569617 0.534259
vt 0.309593 0.987907
vt 0.687112 0.011968
vt 0.559540 0.573191
vt 0.505038 0.551965
vt 0.167375 0.019080
vt 0.145139 0.028290
vt 0.619758 0.555108
vt 0.569617 0.555108
vt 0.332625 0.980920
vt 0.710298 0.007356
vt 0.559540 0.595428
vt 0.505038 0.573191
vt 0.191467 0.016323
vt 0.168844 0.023185
vt 0.619758 0.576949
vt 0.569617 0.576949
vt 0.354861 0.971710
vt 0.733825 0.005038
vt 0.559540 0.618460
vt 0.505038 0.595428
vt 0.214013 0.007398
vt 0.190407 0.012093
vt 0.619758 0.599572
vt 0.569617 0.599572
vt 0.376087 0.960364
vt 0.757465 0.005038
vt 0.559540 0.642065
vt 0.505038 0.618460
vt 0.238180 0.009393
vt 0.214653 0.011711
vt 0.619758 0.622758
vt 0.569617 0.622758
vt 0.396099 0.946992
vt 0.780992 0.007356
vt 0.559540 0.666018
vt 0.505038 0.642065
vt 0.262034 0.005038
vt 0.237966 0.005038
vt 0.619758 0.646285
vt 0.569617 0.646285
vt 0.414705 0.931723
vt 0.804178 0.011968
vt 0.559540 0.690086
vt 0.505038 0.666018
vt 0.285987 0.007398
vt 0.261820 0.009393
vt 0.619758 0.669925
vt 0.569617 0.669925
vt 0.431723 0.914705
vt 0.826801 0.018830
vt 0.559540 0.714039
vt 0.505038 0.690086
vt 0.308533 0.016323
vt 0.285347 0.011711
vt 0.619758 0.693452
vt 0.569617 0.693452
vt 0.446992 0.896099
vt 0.848642 0.027877
vt 0.559540 0.737645
vt 0.505038 0.714039
vt 0.332625 0.019080
vt 0.309593 0.012093
vt 0.619758 0.716638
vt 0.569617 0.716638
vt 0.460364 0.876087
vt 0.869491 0.039021
vt 0.559540 0.760677
vt 0.505038 0.737645
vt 0.354861 0.028290
vt 0.331156 0.023185
vt 0.619758 0.739261
vt 0.569617 0.739261
vt 0.471710 0.854861
vt 0.889147 0.052155
vt 0.559540 0.782913
vt 0.505038 0.760677
vt 0.373846 0.043376
vt 0.352997 0.032232
vt 0.619758 0.761102
vt 0.569617 0.761102
vt 0.480920 0.832625
vt 0.907421 0.067152
vt 0.559540 0.804139
vt 0.505038 0.782913
vt 0.396099 0.053008
vt 0.376087 0.039636
vt 0.619758 0.781951
vt 0.569617 0.781951
vt 0.487907 0.809593
vt 0.924138 0.083869
vt 0.559540 0.824152
vt 0.505038 0.804139
vt 0.414705 0.068277
vt 0.393502 0.056510
vt 0.619758 0.801607
vt 0.569617 0.801607
vt 0.492602 0.785987
vt 0.939135 0.102143
vt 0.559540 0.842757
vt 0.505038 0.824152
vt 0.431723 0.085296
vt 0.411776 0.071507
vt 0.619758 0.819882
vt 0.569617 0.819882
vt 0.494962 0.762034
vt 0.952269 0.121799
vt 0.559540 0.859776
vt 0.505038 0.842757
vt 0.443490 0.106498
vt 0.428493 0.088224
vt 0.619758 0.836598
vt 0.569617 0.836598
vt 0.494962 0.737966
vt 0.963413 0.142648
vt 0.559540 0.875044
vt 0.505038 0.859776
vt 0.460364 0.123913
vt 0.446992 0.103901
vt 0.619758 0.851595
vt 0.569617 0.851595
vt 0.492602 0.714013
vt 0.972460 0.164489
vt 0.559540 0.888416
vt 0.505038 0.875044
vt 0.467768 0.147003
vt 0.456624 0.126154
vt 0.619758 0.864729
vt 0.569617 0.864729
vt 0.487907 0.690407
vt 0.979322 0.187112
vt 0.559540 0.899762
vt 0.505038 0.888416
vt 0.480920 0.167375
vt 0.471710 0.145139
vt 0.619758 0.875873
vt 0.569617 0.875873
vt 0.480920 0.667375
vt 0.983934 0.210298
vt 0.684337 0.507674
vt 0.629835 0.496329
vt 0.684337 0.496329
vt 0.483678 0.191467
vt 0.476815 0.168844
vt 0.694414 0.496329
vt 0.744555 0.507473
vt 0.694414 0.507473
vt 0.471710 0.645139
vt 0.986252 0.233825
vt 0.684337 0.521046
vt 0.629835 0.507674
vt 0.492602 0.214013
vt 0.487907 0.190407
vt 0.744555 0.520607
vt 0.694414 0.520607
vt 0.460364 0.623913
vt 0.986252 0.257465
vt 0.684337 0.536315
vt 0.629835 0.521046
vt 0.490607 0.238180
vt 0.488290 0.214653
vt 0.744555 0.535604
vt 0.694414 0.535604
vt 0.446992 0.603901
vt 0.983935 0.280992
vt 0.684337 0.553334
vt 0.629835 0.536315
vt 0.494962 0.262034
vt 0.494962 0.237966
vt 0.744555 0.552320
vt 0.694414 0.552320
vt 0.431723 0.585295
vt 0.979322 0.304178
vt 0.684337 0.571939
vt 0.629835 0.553334
vt 0.492602 0.285987
vt 0.490607 0.261820
vt 0.744555 0.570595
vt 0.694414 0.570595
vt 0.414705 0.568277
vt 0.972460 0.326801
vt 0.684337 0.591951
vt 0.629835 0.571939
vt 0.483677 0.308533
vt 0.488290 0.285347
vt 0.744555 0.590251
vt 0.694414 0.590251
vt 0.396099 0.553008
vt 0.963413 0.348642
vt 0.684337 0.613177
vt 0.629835 0.591951
vt 0.480920 0.332625
vt 0.487907 0.309593
vt 0.744555 0.611100
vt 0.694414 0.611100
vt 0.376087 0.539636
vt 0.952269 0.369491
vt 0.684337 0.635414
vt 0.629835 0.613177
vt 0.471710 0.354861
vt 0.476815 0.331156
vt 0.744555 0.632941
vt 0.694414 0.632941
vt 0.354861 0.528290
vt 0.939135 0.389147
vt 0.684337 0.658446
vt 0.629835 0.635414
vt 0.456624 0.373846
vt 0.467768 0.352997
vt 0.744555 0.655564
vt 0.694414 0.655564
vt 0.332625 0.519080
vt 0.924138 0.407421
vt 0.684337 0.682052
vt 0.629835 0.658446
vt 0.446992 0.396099
vt 0.460364 0.376087
vt 0.744555 0.678750
vt 0.694414 0.678750
vt 0.309593 0.512093
vt 0.907422 0.424138
vt 0.684337 0.706004
vt 0.629835 0.682052
vt 0.431723 0.414705
vt 0.443490 0.393502
vt 0.744555 0.702277
vt 0.694414 0.702277
vt 0.285987 0.507398
vt 0.889147 0.439135
vt 0.684337 0.730072
vt 0.629835 0.706004
vt 0.414705 0.431723
vt 0.428493 0.411776
vt 0.744555 0.725917
vt 0.694414 0.725917
vt 0.262034 0.505038
vt 0.869491 0.452269
vt 0.684337 0.754025
vt 0.629835 0.730072
vt 0.393502 0.443490
vt 0.411776 0.428493
vt 0.744555 0.749444
vt 0.694414 0.749444
vt 0.237966 0.505038
vt 0.848642 0.463413
vt 0.684337 0.777631
vt 0.629835 0.754025
vt 0.376087 0.460364
vt 0.396099 0.446992
vt 0.744555 0.772630
vt 0.694414 0.772630
vt 0.214013 0.507398
vt 0.826801 0.472460
vt 0.684337 0.800663
vt 0.629835 0.777631
vt 0.352997 0.467768
vt 0.373846 0.456624
vt 0.744555 0.795253
vt 0.694414 0.795253
vt 0.190407 0.512093
vt 0.804178 0.479323
vt 0.629835 0.800663
vt 0.354861 0.471710
vt 0.744555 0.817094
vt 0.629835 0.844126
vt 0.994149 0.496329
vt 0.879429 0.788527
vt 0.869352 0.496329
vt 0.754632 0.807133
vt 0.619758 0.496329
vt 0.505038 0.899762
vt 0.744555 0.496329
s 0
usemtl ARAT_brushed_tin
f 2/1/1 65/2/1 1/3/1
f 65/4/2 130/5/2 129/6/2
f 129/7/1 194/8/1 130/9/1
f 2/10/3 1/11/3 257/12/3
f 193/13/2 194/14/2 258/15/2
f 3/16/4 66/17/4 2/18/4
f 67/19/2 130/5/2 66/20/2
f 130/21/4 195/22/4 131/23/4
f 3/24/3 2/10/3 257/12/3
f 194/14/2 195/25/2 258/15/2
f 4/26/5 67/27/5 3/16/5
f 67/19/2 132/28/2 131/29/2
f 131/23/5 196/30/5 132/31/5
f 4/32/3 3/24/3 257/12/3
f 195/25/2 196/33/2 258/15/2
f 5/34/6 68/35/6 4/26/6
f 69/36/2 132/28/2 68/37/2
f 132/31/6 197/38/6 133/39/6
f 5/40/3 4/32/3 257/12/3
f 196/33/2 197/41/2 258/15/2
f 6/42/7 69/43/7 5/34/7
f 70/44/2 133/45/2 69/36/2
f 133/39/7 198/46/7 134/47/7
f 6/48/3 5/40/3 257/12/3
f 197/41/2 198/49/2 258/15/2
f 7/50/8 70/51/8 6/42/8
f 70/44/2 135/52/2 134/53/2
f 134/47/8 199/54/8 135/55/8
f 7/56/3 6/48/3 257/12/3
f 198/49/2 199/57/2 258/15/2
f 8/58/9 71/59/9 7/50/9
f 72/60/2 135/52/2 71/61/2
f 135/55/9 200/62/9 136/63/9
f 8/64/3 7/56/3 257/12/3
f 199/57/2 200/65/2 258/15/2
f 9/66/10 72/67/10 8/58/10
f 73/68/2 136/69/2 72/60/2
f 136/63/10 201/70/10 137/71/10
f 9/72/3 8/64/3 257/12/3
f 200/65/2 201/73/2 258/15/2
f 10/74/11 73/75/11 9/66/11
f 73/68/2 138/76/2 137/77/2
f 137/71/11 202/78/11 138/79/11
f 10/80/3 9/72/3 257/12/3
f 201/73/2 202/81/2 258/15/2
f 11/82/12 74/83/12 10/74/12
f 75/84/2 138/76/2 74/85/2
f 138/79/12 203/86/12 139/87/12
f 11/88/3 10/80/3 257/12/3
f 202/81/2 203/89/2 258/15/2
f 12/90/13 75/91/13 11/82/13
f 76/92/2 139/93/2 75/84/2
f 139/87/13 204/94/13 140/95/13
f 12/96/3 11/88/3 257/12/3
f 203/89/2 204/97/2 258/15/2
f 13/98/14 76/99/14 12/90/14
f 77/100/2 140/101/2 76/92/2
f 140/95/14 205/102/14 141/103/14
f 13/104/3 12/96/3 257/12/3
f 204/97/2 205/105/2 258/15/2
f 14/106/15 77/107/15 13/98/15
f 77/100/2 142/108/2 141/109/2
f 141/103/15 206/110/15 142/111/15
f 14/112/3 13/104/3 257/12/3
f 205/105/2 206/113/2 258/15/2
f 15/114/16 78/115/16 14/106/16
f 79/116/2 142/108/2 78/117/2
f 142/111/16 207/118/16 143/119/16
f 15/120/3 14/112/3 257/12/3
f 206/113/2 207/121/2 258/15/2
f 16/122/17 79/123/17 15/124/17
f 79/116/2 144/125/2 143/126/2
f 143/127/17 208/128/17 144/129/17
f 16/130/3 15/120/3 257/12/3
f 207/121/2 208/131/2 258/15/2
f 17/132/18 80/133/18 16/122/18
f 81/134/2 144/125/2 80/135/2
f 144/129/18 209/136/18 145/137/18
f 17/138/3 16/130/3 257/12/3
f 208/131/2 209/139/2 258/15/2
f 18/140/19 81/141/19 17/132/19
f 81/134/2 146/142/2 145/143/2
f 145/137/19 210/144/19 146/145/19
f 18/146/3 17/138/3 257/12/3
f 209/139/2 210/147/2 258/15/2
f 19/148/20 82/149/20 18/140/20
f 83/150/2 146/142/2 82/151/2
f 146/145/20 211/152/20 147/153/20
f 19/154/3 18/146/3 257/12/3
f 210/147/2 211/155/2 258/15/2
f 20/156/21 83/157/21 19/148/21
f 83/150/2 148/158/2 147/159/2
f 147/153/21 212/160/21 148/161/21
f 20/162/3 19/154/3 257/12/3
f 211/155/2 212/163/2 258/15/2
f 21/164/22 84/165/22 20/156/22
f 85/166/2 148/158/2 84/167/2
f 148/161/22 213/168/22 149/169/22
f 21/170/3 20/162/3 257/12/3
f 212/163/2 213/171/2 258/15/2
f 22/172/23 85/173/23 21/164/23
f 86/174/2 149/175/2 85/166/2
f 149/169/23 214/176/23 150/177/23
f 22/178/3 21/170/3 257/12/3
f 213/171/2 214/179/2 258/15/2
f 23/180/24 86/181/24 22/172/24
f 86/174/2 151/182/2 150/183/2
f 150/177/24 215/184/24 151/185/24
f 23/186/3 22/178/3 257/12/3
f 214/179/2 215/187/2 258/15/2
f 24/188/25 87/189/25 23/180/25
f 88/190/2 151/182/2 87/191/2
f 151/185/25 216/192/25 152/193/25
f 24/194/3 23/186/3 257/12/3
f 215/187/2 216/195/2 258/15/2
f 25/196/26 88/197/26 24/188/26
f 89/198/2 152/199/2 88/190/2
f 152/193/26 217/200/26 153/201/26
f 25/202/3 24/194/3 257/12/3
f 216/195/2 217/203/2 258/15/2
f 26/204/27 89/205/27 25/196/27
f 89/198/2 154/206/2 153/207/2
f 153/201/27 218/208/27 154/209/27
f 26/210/3 25/202/3 257/12/3
f 217/203/2 218/211/2 258/15/2
f 27/212/28 90/213/28 26/204/28
f 91/214/2 154/206/2 90/215/2
f 154/209/28 219/216/28 155/217/28
f 27/218/3 26/210/3 257/12/3
f 218/211/2 219/219/2 258/15/2
f 28/220/29 91/221/29 27/212/29
f 92/222/2 155/223/2 91/214/2
f 155/217/29 220/224/29 156/225/29
f 28/226/3 27/218/3 257/12/3
f 219/219/2 220/227/2 258/15/2
f 29/228/30 92/229/30 28/220/30
f 93/230/2 156/231/2 92/222/2
f 156/225/30 221/232/30 157/233/30
f 29/234/3 28/226/3 257/12/3
f 220/227/2 221/235/2 258/15/2
f 30/236/31 93/237/31 29/238/31
f 93/230/2 158/239/2 157/240/2
f 157/233/31 222/241/31 158/242/31
f 30/243/3 29/234/3 257/12/3
f 221/235/2 222/244/2 258/15/2
f 31/245/32 94/246/32 30/236/32
f 95/247/2 158/239/2 94/248/2
f 158/249/32 223/250/32 159/251/32
f 31/252/3 30/243/3 257/12/3
f 222/244/2 223/253/2 258/15/2
f 32/254/33 95/255/33 31/245/33
f 95/247/2 160/256/2 159/257/2
f 159/251/33 224/258/33 160/259/33
f 32/260/3 31/252/3 257/12/3
f 223/253/2 224/261/2 258/15/2
f 33/262/34 96/263/34 32/254/34
f 97/264/2 160/256/2 96/265/2
f 160/259/34 225/266/34 161/267/34
f 33/268/3 32/260/3 257/12/3
f 224/261/2 225/269/2 258/15/2
f 34/270/35 97/271/35 33/262/35
f 97/264/2 162/272/2 161/273/2
f 161/267/35 226/274/35 162/275/35
f 34/276/3 33/268/3 257/12/3
f 225/269/2 226/277/2 258/15/2
f 35/278/36 98/279/36 34/270/36
f 99/280/2 162/272/2 98/281/2
f 162/275/36 227/282/36 163/283/36
f 35/284/3 34/276/3 257/12/3
f 226/277/2 227/285/2 258/15/2
f 36/286/37 99/287/37 35/278/37
f 99/280/2 164/288/2 163/289/2
f 163/283/37 228/290/37 164/291/37
f 36/292/3 35/284/3 257/12/3
f 227/285/2 228/293/2 258/15/2
f 37/294/38 100/295/38 36/286/38
f 101/296/2 164/288/2 100/297/2
f 164/291/38 229/298/38 165/299/38
f 37/300/3 36/292/3 257/12/3
f 228/293/2 229/301/2 258/15/2
f 38/302/39 101/303/39 37/294/39
f 102/304/2 165/305/2 101/296/2
f 165/299/39 230/306/39 166/307/39
f 38/308/3 37/300/3 257/12/3
f 229/301/2 230/309/2 258/15/2
f 39/310/40 102/311/40 38/302/40
f 102/304/2 167/312/2 166/313/2
f 166/307/40 231/314/40 167/315/40
f 39/316/3 38/308/3 257/12/3
f 230/309/2 231/317/2 258/15/2
f 40/318/41 103/319/41 39/310/41
f 104/320/2 167/312/2 103/321/2
f 167/315/41 232/322/41 168/323/41
f 40/324/3 39/316/3 257/12/3
f 231/317/2 232/325/2 258/15/2
f 41/326/42 104/327/42 40/318/42
f 105/328/2 168/329/2 104/320/2
f 168/323/42 233/330/42 169/331/42
f 41/332/3 40/324/3 257/12/3
f 232/325/2 233/333/2 258/15/2
f 42/334/43 105/335/43 41/326/43
f 105/328/2 170/336/2 169/337/2
f 169/331/43 234/338/43 170/339/43
f 42/340/3 41/332/3 257/12/3
f 233/333/2 234/341/2 258/15/2
f 43/342/44 106/343/44 42/334/44
f 107/344/2 170/336/2 106/345/2
f 170/339/44 235/346/44 171/347/44
f 43/348/3 42/340/3 257/12/3
f 234/341/2 235/349/2 258/15/2
f 44/350/45 107/351/45 43/342/45
f 108/352/2 171/353/2 107/344/2
f 171/347/45 236/354/45 172/355/45
f 44/356/3 43/348/3 257/12/3
f 235/349/2 236/357/2 258/15/2
f 45/358/46 108/359/46 44/350/46
f 109/360/2 172/361/2 108/352/2
f 172/355/46 237/362/46 173/363/46
f 45/364/3 44/356/3 257/12/3
f 236/357/2 237/365/2 258/15/2
f 46/366/47 109/367/47 45/358/47
f 109/360/2 174/368/2 173/369/2
f 173/363/47 238/370/47 174/371/47
f 46/372/3 45/364/3 257/12/3
f 237/365/2 238/373/2 258/15/2
f 47/374/48 110/375/48 46/366/48
f 111/376/2 174/368/2 110/377/2
f 174/371/48 239/378/48 175/379/48
f 47/380/3 46/372/3 257/12/3
f 238/373/2 239/381/2 258/15/2
f 48/382/49 111/383/49 47/374/49
f 111/376/2 176/384/2 175/385/2
f 175/379/49 240/386/49 176/387/49
f 48/388/3 47/380/3 257/12/3
f 239/381/2 240/389/2 258/15/2
f 49/390/50 112/391/50 48/382/50
f 113/392/2 176/384/2 112/393/2
f 176/387/50 241/394/50 177/395/50
f 49/396/3 48/388/3 257/12/3
f 240/389/2 241/397/2 258/15/2
f 50/398/51 113/399/51 49/400/51
f 113/392/2 178/401/2 177/402/2
f 177/403/51 242/404/51 178/405/51
f 50/406/3 49/396/3 257/12/3
f 241/397/2 242/407/2 258/15/2
f 51/408/52 114/409/52 50/398/52
f 115/410/2 178/401/2 114/411/2
f 178/405/52 243/412/52 179/413/52
f 51/414/3 50/406/3 257/12/3
f 242/407/2 243/415/2 258/15/2
f 52/416/53 115/417/53 51/408/53
f 115/410/2 180/418/2 179/419/2
f 179/413/53 244/420/53 180/421/53
f 52/422/3 51/414/3 257/12/3
f 243/415/2 244/423/2 258/15/2
f 53/424/54 116/425/54 52/416/54
f 117/426/2 180/418/2 116/427/2
f 180/421/54 245/428/54 181/429/54
f 53/430/3 52/422/3 257/12/3
f 244/423/2 245/431/2 258/15/2
f 54/432/55 117/433/55 53/424/55
f 118/434/2 181/435/2 117/426/2
f 181/429/55 246/436/55 182/437/55
f 54/438/3 53/430/3 257/12/3
f 245/431/2 246/439/2 258/15/2
f 55/440/56 118/441/56 54/432/56
f 118/434/2 183/442/2 182/443/2
f 182/437/56 247/444/56 183/445/56
f 55/446/3 54/438/3 257/12/3
f 246/439/2 247/447/2 258/15/2
f 56/448/57 119/449/57 55/440/57
f 120/450/2 183/442/2 119/451/2
f 183/445/57 248/452/57 184/453/57
f 56/454/3 55/446/3 257/12/3
f 247/447/2 248/455/2 258/15/2
f 57/456/58 120/457/58 56/448/58
f 121/458/2 184/459/2 120/450/2
f 184/453/58 249/460/58 185/461/58
f 57/462/3 56/454/3 257/12/3
f 248/455/2 249/463/2 258/15/2
f 58/464/59 121/465/59 57/456/59
f 121/458/2 186/466/2 185/467/2
f 185/461/59 250/468/59 186/469/59
f 58/470/3 57/462/3 257/12/3
f 249/463/2 250/471/2 258/15/2
f 59/472/60 122/473/60 58/464/60
f 123/474/2 186/466/2 122/475/2
f 186/469/60 251/476/60 187/477/60
f 59/478/3 58/470/3 257/12/3
f 250/471/2 251/479/2 258/15/2
f 60/480/61 123/481/61 59/472/61
f 124/482/2 187/483/2 123/474/2
f 187/477/61 252/484/61 188/485/61
f 60/486/3 59/478/3 257/12/3
f 251/479/2 252/487/2 258/15/2
f 61/488/62 124/489/62 60/480/62
f 125/490/2 188/491/2 124/482/2
f 188/485/62 253/492/62 189/493/62
f 61/494/3 60/486/3 257/12/3
f 252/487/2 253/495/2 258/15/2
f 62/496/63 125/497/63 61/488/63
f 125/490/2 190/498/2 189/499/2
f 189/493/63 254/500/63 190/501/63
f 62/502/3 61/494/3 257/12/3
f 253/495/2 254/503/2 258/15/2
f 63/504/64 126/505/64 62/496/64
f 127/506/2 190/498/2 126/507/2
f 190/501/64 255/508/64 191/509/64
f 63/510/3 62/502/3 257/12/3
f 254/503/2 255/511/2 258/15/2
f 64/512/65 127/513/65 63/504/65
f 127/506/2 192/514/2 191/515/2
f 191/509/65 256/516/65 192/517/65
f 64/518/3 63/510/3 257/12/3
f 255/511/2 256/519/2 258/15/2
f 1/3/66 128/520/66 64/512/66
f 65/4/2 192/514/2 128/521/2
f 192/517/66 193/522/66 129/7/66
f 1/11/3 64/518/3 257/12/3
f 256/519/2 193/13/2 258/15/2
f 2/1/1 66/523/1 65/2/1
f 65/4/2 66/20/2 130/5/2
f 129/7/1 193/522/1 194/8/1
f 3/16/4 67/27/4 66/17/4
f 67/19/2 131/29/2 130/5/2
f 130/21/4 194/524/4 195/22/4
f 4/26/5 68/35/5 67/27/5
f 67/19/2 68/37/2 132/28/2
f 131/23/5 195/22/5 196/30/5
f 5/34/6 69/43/6 68/35/6
f 69/36/2 133/45/2 132/28/2
f 132/31/6 196/30/6 197/38/6
f 6/42/7 70/51/7 69/43/7
f 70/44/2 134/53/2 133/45/2
f 133/39/7 197/38/7 198/46/7
f 7/50/8 71/59/8 70/51/8
f 70/44/2 71/61/2 135/52/2
f 134/47/8 198/46/8 199/54/8
f 8/58/9 72/67/9 71/59/9
f 72/60/2 136/69/2 135/52/2
f 135/55/9 199/54/9 200/62/9
f 9/66/10 73/75/10 72/67/10
f 73/68/2 137/77/2 136/69/2
f 136/63/10 200/62/10 201/70/10
f 10/74/11 74/83/11 73/75/11
f 73/68/2 74/85/2 138/76/2
f 137/71/11 201/70/11 202/78/11
f 11/82/12 75/91/12 74/83/12
f 75/84/2 139/93/2 138/76/2
f 138/79/12 202/78/12 203/86/12
f 12/90/13 76/99/13 75/91/13
f 76/92/2 140/101/2 139/93/2
f 139/87/13 203/86/13 204/94/13
f 13/98/14 77/107/14 76/99/14
f 77/100/2 141/109/2 140/101/2
f 140/95/14 204/94/14 205/102/14
f 14/106/15 78/115/15 77/107/15
f 77/100/2 78/117/2 142/108/2
f 141/103/15 205/102/15 206/110/15
f 15/114/16 79/525/16 78/115/16
f 79/116/2 143/126/2 142/108/2
f 142/111/16 206/110/16 207/118/16
f 16/122/17 80/133/17 79/123/17
f 79/116/2 80/135/2 144/125/2
f 143/127/17 207/526/17 208/128/17
f 17/132/18 81/141/18 80/133/18
f 81/134/2 145/143/2 144/125/2
f 144/129/18 208/128/18 209/136/18
f 18/140/19 82/149/19 81/141/19
f 81/134/2 82/151/2 146/142/2
f 145/137/19 209/136/19 210/144/19
f 19/148/20 83/157/20 82/149/20
f 83/150/2 147/159/2 146/142/2
f 146/145/20 210/144/20 211/152/20
f 20/156/21 84/165/21 83/157/21
f 83/150/2 84/167/2 148/158/2
f 147/153/21 211/152/21 212/160/21
f 21/164/22 85/173/22 84/165/22
f 85/166/2 149/175/2 148/158/2
f 148/161/22 212/160/22 213/168/22
f 22/172/23 86/181/23 85/173/23
f 86/174/2 150/183/2 149/175/2
f 149/169/23 213/168/23 214/176/23
f 23/180/24 87/189/24 86/181/24
f 86/174/2 87/191/2 151/182/2
f 150/177/24 214/176/24 215/184/24
f 24/188/25 88/197/25 87/189/25
f 88/190/2 152/199/2 151/182/2
f 151/185/25 215/184/25 216/192/25
f 25/196/26 89/205/26 88/197/26
f 89/198/2 153/207/2 152/199/2
f 152/193/26 216/192/26 217/200/26
f 26/204/27 90/213/27 89/205/27
f 89/198/2 90/215/2 154/206/2
f 153/201/27 217/200/27 218/208/27
f 27/212/28 91/221/28 90/213/28
f 91/214/2 155/223/2 154/206/2
f 154/209/28 218/208/28 219/216/28
f 28/220/29 92/229/29 91/221/29
f 92/222/2 156/231/2 155/223/2
f 155/217/29 219/216/29 220/224/29
f 29/228/30 93/527/30 92/229/30
f 93/230/2 157/240/2 156/231/2
f 156/225/30 220/224/30 221/232/30
f 30/236/31 94/246/31 93/237/31
f 93/230/2 94/248/2 158/239/2
f 157/233/31 221/232/31 222/241/31
f 31/245/32 95/255/32 94/246/32
f 95/247/2 159/257/2 158/239/2
f 158/249/32 222/528/32 223/250/32
f 32/254/33 96/263/33 95/255/33
f 95/247/2 96/265/2 160/256/2
f 159/251/33 223/250/33 224/258/33
f 33/262/34 97/271/34 96/263/34
f 97/264/2 161/273/2 160/256/2
f 160/259/34 224/258/34 225/266/34
f 34/270/35 98/279/35 97/271/35
f 97/264/2 98/281/2 162/272/2
f 161/267/35 225/266/35 226/274/35
f 35/278/36 99/287/36 98/279/36
f 99/280/2 163/289/2 162/272/2
f 162/275/36 226/274/36 227/282/36
f 36/286/37 100/295/37 99/287/37
f 99/280/2 100/297/2 164/288/2
f 163/283/37 227/282/37 228/290/37
f 37/294/38 101/303/38 100/295/38
f 101/296/2 165/305/2 164/288/2
f 164/291/38 228/290/38 229/298/38
f 38/302/39 102/311/39 101/303/39
f 102/304/2 166/313/2 165/305/2
f 165/299/39 229/298/39 230/306/39
f 39/310/40 103/319/40 102/311/40
f 102/304/2 103/321/2 167/312/2
f 166/307/40 230/306/40 231/314/40
f 40/318/41 104/327/41 103/319/41
f 104/320/2 168/329/2 167/312/2
f 167/315/41 231/314/41 232/322/41
f 41/326/42 105/335/42 104/327/42
f 105/328/2 169/337/2 168/329/2
f 168/323/42 232/322/42 233/330/42
f 42/334/43 106/343/43 105/335/43
f 105/328/2 106/345/2 170/336/2
f 169/331/43 233/330/43 234/338/43
f 43/342/44 107/351/44 106/343/44
f 107/344/2 171/353/2 170/336/2
f 170/339/44 234/338/44 235/346/44
f 44/350/45 108/359/45 107/351/45
f 108/352/2 172/361/2 171/353/2
f 171/347/45 235/346/45 236/354/45
f 45/358/46 109/367/46 108/359/46
f 109/360/2 173/369/2 172/361/2
f 172/355/46 236/354/46 237/362/46
f 46/366/47 110/375/47 109/367/47
f 109/360/2 110/377/2 174/368/2
f 173/363/47 237/362/47 238/370/47
f 47/374/48 111/383/48 110/375/48
f 111/376/2 175/385/2 174/368/2
f 174/371/48 238/370/48 239/378/48
f 48/382/49 112/391/49 111/383/49
f 111/376/2 112/393/2 176/384/2
f 175/379/49 239/378/49 240/386/49
f 49/390/50 113/529/50 112/391/50
f 113/392/2 177/402/2 176/384/2
f 176/387/50 240/386/50 241/394/50
f 50/398/51 114/409/51 113/399/51
f 113/392/2 114/411/2 178/401/2
f 177/403/51 241/530/51 242/404/51
f 51/408/52 115/417/52 114/409/52
f 115/410/2 179/419/2 178/401/2
f 178/405/52 242/404/52 243/412/52
f 52/416/53 116/425/53 115/417/53
f 115/410/2 116/427/2 180/418/2
f 179/413/53 243/412/53 244/420/53
f 53/424/54 117/433/54 116/425/54
f 117/426/2 181/435/2 180/418/2
f 180/421/54 244/420/54 245/428/54
f 54/432/55 118/441/55 117/433/55
f 118/434/2 182/443/2 181/435/2
f 181/429/55 245/428/55 246/436/55
f 55/440/56 119/449/56 118/441/56
f 118/434/2 119/451/2 183/442/2
f 182/437/56 246/436/56 247/444/56
f 56/448/57 120/457/57 119/449/57
f 120/450/2 184/459/2 183/442/2
f 183/445/57 247/444/57 248/452/57
f 57/456/58 121/465/58 120/457/58
f 121/458/2 185/467/2 184/459/2
f 184/453/58 248/452/58 249/460/58
f 58/464/59 122/473/59 121/465/59
f 121/458/2 122/475/2 186/466/2
f 185/461/59 249/460/59 250/468/59
f 59/472/60 123/481/60 122/473/60
f 123/474/2 187/483/2 186/466/2
f 186/469/60 250/468/60 251/476/60
f 60/480/61 124/489/61 123/481/61
f 124/482/2 188/491/2 187/483/2
f 187/477/61 251/476/61 252/484/61
f 61/488/62 125/497/62 124/489/62
f 125/490/2 189/499/2 188/491/2
f 188/485/62 252/484/62 253/492/62
f 62/496/63 126/505/63 125/497/63
f 125/490/2 126/507/2 190/498/2
f 189/493/63 253/492/63 254/500/63
f 63/504/64 127/513/64 126/505/64
f 127/506/2 191/515/2 190/498/2
f 190/501/64 254/500/64 255/508/64
f 64/512/65 128/520/65 127/513/65
f 127/506/2 128/521/2 192/514/2
f 191/509/65 255/508/65 256/516/65
f 1/3/66 65/2/66 128/520/66
f 65/4/2 129/6/2 192/514/2
f 192/517/66 256/516/66 193/522/66
